<svg class="main-svg" xmlns="http://www.w3.org/2000/svg" xmlns:xlink="http://www.w3.org/1999/xlink" width="800" height="500" style="" viewBox="0 0 800 500"><rect x="0" y="0" width="800" height="500" style="fill: rgb(255, 255, 255); fill-opacity: 1;"/><defs id="defs-f702be"><g class="clips"><clipPath id="clipf702bexyplot" class="plotclip"><rect width="608" height="395"/></clipPath><clipPath class="axesclip" id="clipf702bex"><rect x="112" y="0" width="608" height="500"/></clipPath><clipPath class="axesclip" id="clipf702bey"><rect x="0" y="50" width="800" height="395"/></clipPath><clipPath class="axesclip" id="clipf702bexy"><rect x="112" y="50" width="608" height="395"/></clipPath></g><g class="gradients"/></defs><g class="bglayer"><rect class="bg" x="112" y="50" width="608" height="395" style="fill: rgb(0, 0, 0); fill-opacity: 0; stroke-width: 0;"/></g><g class="layer-below"><g class="imagelayer"/><g class="shapelayer"><path data-index="0" fill-rule="evenodd" d="M355.2,445H395.73V50H355.2Z" clip-path="url('#clipf702bex')" style="opacity: 0.25; stroke: rgb(0, 0, 0); stroke-opacity: 0; fill: rgb(100, 100, 100); fill-opacity: 1; stroke-width: 0px;"/></g></g><g class="cartesianlayer"><g class="subplot xy"><g class="layer-subplot"><g class="shapelayer"/><g class="imagelayer"/></g><g class="gridlayer"><g class="x"/><g class="y"><path class="ygrid crisp" transform="translate(0,425.25)" d="M112,0h608" style="stroke: rgb(211, 211, 211); stroke-opacity: 1; stroke-width: 1px;"/><path class="ygrid crisp" transform="translate(0,395.83)" d="M112,0h608" style="stroke: rgb(211, 211, 211); stroke-opacity: 1; stroke-width: 1px;"/><path class="ygrid crisp" transform="translate(0,366.42)" d="M112,0h608" style="stroke: rgb(211, 211, 211); stroke-opacity: 1; stroke-width: 1px;"/><path class="ygrid crisp" transform="translate(0,337)" d="M112,0h608" style="stroke: rgb(211, 211, 211); stroke-opacity: 1; stroke-width: 1px;"/><path class="ygrid crisp" transform="translate(0,307.58)" d="M112,0h608" style="stroke: rgb(211, 211, 211); stroke-opacity: 1; stroke-width: 1px;"/><path class="ygrid crisp" transform="translate(0,278.16999999999996)" d="M112,0h608" style="stroke: rgb(211, 211, 211); stroke-opacity: 1; stroke-width: 1px;"/><path class="ygrid crisp" transform="translate(0,248.75)" d="M112,0h608" style="stroke: rgb(211, 211, 211); stroke-opacity: 1; stroke-width: 1px;"/><path class="ygrid crisp" transform="translate(0,219.33)" d="M112,0h608" style="stroke: rgb(211, 211, 211); stroke-opacity: 1; stroke-width: 1px;"/><path class="ygrid crisp" transform="translate(0,189.92)" d="M112,0h608" style="stroke: rgb(211, 211, 211); stroke-opacity: 1; stroke-width: 1px;"/><path class="ygrid crisp" transform="translate(0,160.5)" d="M112,0h608" style="stroke: rgb(211, 211, 211); stroke-opacity: 1; stroke-width: 1px;"/><path class="ygrid crisp" transform="translate(0,131.07999999999998)" d="M112,0h608" style="stroke: rgb(211, 211, 211); stroke-opacity: 1; stroke-width: 1px;"/><path class="ygrid crisp" transform="translate(0,101.67)" d="M112,0h608" style="stroke: rgb(211, 211, 211); stroke-opacity: 1; stroke-width: 1px;"/></g></g><g class="zerolinelayer"/><path class="xlines-below"/><path class="ylines-below"/><g class="overlines-below"/><g class="xaxislayer-below"/><g class="yaxislayer-below"/><g class="overaxes-below"/><g class="plot" transform="translate(112, 50)" clip-path="url('#clipf702bexyplot')"><g class="violinlayer mlayer"><g class="trace violins" style="opacity: 1;"><path class="violin" d="M-27.66,375.25L-27.66,374.96Q-23.65,374.81 -21.64,374.71C-19.63,374.61 -17.62,374.49 -15.61,374.36C-13.6,374.23 -11.59,374.08 -9.58,373.93C-7.57,373.79 -5.57,373.62 -3.56,373.49C-1.55,373.36 0.46,373.23 2.47,373.13C4.48,373.03 6.49,372.96 8.5,372.91C10.51,372.86 12.51,372.85 14.52,372.84C16.53,372.83 18.54,372.87 20.55,372.88C22.56,372.89 24.57,372.91 26.58,372.91C28.59,372.91 30.59,372.91 32.6,372.89C34.61,372.87 36.62,372.82 38.63,372.78C40.64,372.74 42.65,372.7 44.66,372.65C46.67,372.61 48.67,372.56 50.68,372.51C52.69,372.46 54.7,372.42 56.71,372.36C58.72,372.3 60.73,372.24 62.74,372.14C64.75,372.04 66.75,371.91 68.76,371.76C70.77,371.61 72.78,371.41 74.79,371.22C76.8,371.02 78.81,370.79 80.82,370.59C82.83,370.39 84.83,370.18 86.84,370.03C88.85,369.88 90.86,369.76 92.87,369.71C94.88,369.66 96.88,369.67 98.89,369.73C100.9,369.79 102.91,369.93 104.92,370.1C106.93,370.27 108.94,370.5 110.95,370.73C112.96,370.96 114.96,371.25 116.97,371.5C118.98,371.75 120.99,372.02 123,372.25C125.01,372.47 127.02,372.69 129.03,372.85C131.04,373.01 133.04,373.14 135.05,373.2C137.06,373.26 139.07,373.27 141.08,373.23C143.09,373.19 145.1,373.1 147.11,372.97C149.12,372.84 151.13,372.67 153.13,372.45C155.14,372.23 157.15,371.98 159.16,371.65C161.17,371.32 163.19,370.96 165.19,370.48C167.21,370 169.22,369.44 171.21,368.76C173.24,368.06 175.25,367.26 177.24,366.33C179.28,365.38 181.28,364.28 183.27,363.11C185.3,361.92 187.29,360.57 189.29,359.24C191.31,357.9 193.3,356.44 195.32,355.09C197.32,353.75 199.3,352.35 201.34,351.16C203.32,350 205.32,348.86 207.37,348.02C209.34,347.21 211.37,346.5 213.4,346.14C215.39,345.79 217.42,345.66 219.42,345.83C221.44,346 223.48,346.51 225.45,347.18C227.5,347.87 229.5,348.9 231.48,349.97C233.52,351.08 235.51,352.43 237.5,353.74C239.52,355.07 241.51,356.53 243.53,357.89C245.53,359.24 247.53,360.63 249.56,361.87C251.55,363.08 253.55,364.25 255.58,365.27C257.57,366.27 259.58,367.17 261.61,367.96C263.6,368.74 265.62,369.4 267.64,369.99C269.64,370.58 271.65,371.06 273.66,371.51C275.66,371.95 277.68,372.32 279.69,372.66C281.7,373 283.71,373.28 285.72,373.54C287.73,373.79 289.73,374.01 291.74,374.19C293.75,374.37 295.76,374.52 297.77,374.64Q299.78,374.76 303.79,374.93L303.79,375.25" style="vector-effect: non-scaling-stroke; stroke-width: 2px; stroke: rgb(33, 102, 172); stroke-opacity: 1; fill: rgb(33, 102, 172); fill-opacity: 0.5;"/><g class="points"><path class="point" transform="translate(8.71,368.52)" d="M2.5,0A2.5,2.5 0 1,1 0,-2.5A2.5,2.5 0 0,1 2.5,0Z" style="opacity: 1; stroke-width: 0px; fill: rgb(33, 102, 172); fill-opacity: 1;"/><path class="point" transform="translate(49.35,370.41)" d="M2.5,0A2.5,2.5 0 1,1 0,-2.5A2.5,2.5 0 0,1 2.5,0Z" style="opacity: 1; stroke-width: 0px; fill: rgb(33, 102, 172); fill-opacity: 1;"/><path class="point" transform="translate(86.94,368)" d="M2.5,0A2.5,2.5 0 1,1 0,-2.5A2.5,2.5 0 0,1 2.5,0Z" style="opacity: 1; stroke-width: 0px; fill: rgb(33, 102, 172); fill-opacity: 1;"/><path class="point" transform="translate(94.04,370.93)" d="M2.5,0A2.5,2.5 0 1,1 0,-2.5A2.5,2.5 0 0,1 2.5,0Z" style="opacity: 1; stroke-width: 0px; fill: rgb(33, 102, 172); fill-opacity: 1;"/><path class="point" transform="translate(112.68,369.85)" d="M2.5,0A2.5,2.5 0 1,1 0,-2.5A2.5,2.5 0 0,1 2.5,0Z" style="opacity: 1; stroke-width: 0px; fill: rgb(33, 102, 172); fill-opacity: 1;"/><path class="point" transform="translate(161.32,368.29)" d="M2.5,0A2.5,2.5 0 1,1 0,-2.5A2.5,2.5 0 0,1 2.5,0Z" style="opacity: 1; stroke-width: 0px; fill: rgb(33, 102, 172); fill-opacity: 1;"/><path class="point" transform="translate(191.01,369.45)" d="M2.5,0A2.5,2.5 0 1,1 0,-2.5A2.5,2.5 0 0,1 2.5,0Z" style="opacity: 1; stroke-width: 0px; fill: rgb(33, 102, 172); fill-opacity: 1;"/><path class="point" transform="translate(194.15,368.62)" d="M2.5,0A2.5,2.5 0 1,1 0,-2.5A2.5,2.5 0 0,1 2.5,0Z" style="opacity: 1; stroke-width: 0px; fill: rgb(33, 102, 172); fill-opacity: 1;"/><path class="point" transform="translate(200.23,370.2)" d="M2.5,0A2.5,2.5 0 1,1 0,-2.5A2.5,2.5 0 0,1 2.5,0Z" style="opacity: 1; stroke-width: 0px; fill: rgb(33, 102, 172); fill-opacity: 1;"/><path class="point" transform="translate(201.86,371.42)" d="M2.5,0A2.5,2.5 0 1,1 0,-2.5A2.5,2.5 0 0,1 2.5,0Z" style="opacity: 1; stroke-width: 0px; fill: rgb(33, 102, 172); fill-opacity: 1;"/><path class="point" transform="translate(204.69,368.35)" d="M2.5,0A2.5,2.5 0 1,1 0,-2.5A2.5,2.5 0 0,1 2.5,0Z" style="opacity: 1; stroke-width: 0px; fill: rgb(33, 102, 172); fill-opacity: 1;"/><path class="point" transform="translate(208.65,371.08)" d="M2.5,0A2.5,2.5 0 1,1 0,-2.5A2.5,2.5 0 0,1 2.5,0Z" style="opacity: 1; stroke-width: 0px; fill: rgb(33, 102, 172); fill-opacity: 1;"/><path class="point" transform="translate(210.17,366.1)" d="M2.5,0A2.5,2.5 0 1,1 0,-2.5A2.5,2.5 0 0,1 2.5,0Z" style="opacity: 1; stroke-width: 0px; fill: rgb(33, 102, 172); fill-opacity: 1;"/><path class="point" transform="translate(214.73,374.8)" d="M2.5,0A2.5,2.5 0 1,1 0,-2.5A2.5,2.5 0 0,1 2.5,0Z" style="opacity: 1; stroke-width: 0px; fill: rgb(33, 102, 172); fill-opacity: 1;"/><path class="point" transform="translate(217.06,372.43)" d="M2.5,0A2.5,2.5 0 1,1 0,-2.5A2.5,2.5 0 0,1 2.5,0Z" style="opacity: 1; stroke-width: 0px; fill: rgb(33, 102, 172); fill-opacity: 1;"/><path class="point" transform="translate(217.56,364.48)" d="M2.5,0A2.5,2.5 0 1,1 0,-2.5A2.5,2.5 0 0,1 2.5,0Z" style="opacity: 1; stroke-width: 0px; fill: rgb(33, 102, 172); fill-opacity: 1;"/><path class="point" transform="translate(221.31,370.84)" d="M2.5,0A2.5,2.5 0 1,1 0,-2.5A2.5,2.5 0 0,1 2.5,0Z" style="opacity: 1; stroke-width: 0px; fill: rgb(33, 102, 172); fill-opacity: 1;"/><path class="point" transform="translate(225.16,374.42)" d="M2.5,0A2.5,2.5 0 1,1 0,-2.5A2.5,2.5 0 0,1 2.5,0Z" style="opacity: 1; stroke-width: 0px; fill: rgb(33, 102, 172); fill-opacity: 1;"/><path class="point" transform="translate(226.58,371)" d="M2.5,0A2.5,2.5 0 1,1 0,-2.5A2.5,2.5 0 0,1 2.5,0Z" style="opacity: 1; stroke-width: 0px; fill: rgb(33, 102, 172); fill-opacity: 1;"/><path class="point" transform="translate(231.04,369.45)" d="M2.5,0A2.5,2.5 0 1,1 0,-2.5A2.5,2.5 0 0,1 2.5,0Z" style="opacity: 1; stroke-width: 0px; fill: rgb(33, 102, 172); fill-opacity: 1;"/><path class="point" transform="translate(231.55,367.64)" d="M2.5,0A2.5,2.5 0 1,1 0,-2.5A2.5,2.5 0 0,1 2.5,0Z" style="opacity: 1; stroke-width: 0px; fill: rgb(33, 102, 172); fill-opacity: 1;"/><path class="point" transform="translate(232.36,368.95)" d="M2.5,0A2.5,2.5 0 1,1 0,-2.5A2.5,2.5 0 0,1 2.5,0Z" style="opacity: 1; stroke-width: 0px; fill: rgb(33, 102, 172); fill-opacity: 1;"/><path class="point" transform="translate(233.88,370.41)" d="M2.5,0A2.5,2.5 0 1,1 0,-2.5A2.5,2.5 0 0,1 2.5,0Z" style="opacity: 1; stroke-width: 0px; fill: rgb(33, 102, 172); fill-opacity: 1;"/><path class="point" transform="translate(248.27,372.27)" d="M2.5,0A2.5,2.5 0 1,1 0,-2.5A2.5,2.5 0 0,1 2.5,0Z" style="opacity: 1; stroke-width: 0px; fill: rgb(33, 102, 172); fill-opacity: 1;"/><path class="point" transform="translate(267.42,369.38)" d="M2.5,0A2.5,2.5 0 1,1 0,-2.5A2.5,2.5 0 0,1 2.5,0Z" style="opacity: 1; stroke-width: 0px; fill: rgb(33, 102, 172); fill-opacity: 1;"/></g></g><g class="trace violins" style="opacity: 1;"><path class="violin" d="M-6.93,345.83L-6.93,345.42Q-0.75,345.2 2.34,345.04C5.43,344.88 8.51,344.69 11.6,344.47C14.69,344.25 17.78,343.98 20.87,343.7C23.96,343.42 27.04,343.1 30.13,342.8C33.22,342.5 36.31,342.18 39.4,341.9C42.49,341.62 45.57,341.35 48.66,341.13C51.75,340.92 54.84,340.74 57.93,340.61C61.02,340.48 64.1,340.41 67.19,340.37C70.28,340.33 73.37,340.33 76.46,340.35C79.55,340.37 82.63,340.43 85.72,340.46C88.81,340.49 91.9,340.55 94.99,340.55C98.08,340.55 101.17,340.56 104.26,340.49C107.35,340.42 110.43,340.32 113.52,340.15C116.61,339.98 119.7,339.75 122.79,339.45C125.88,339.15 128.97,338.78 132.05,338.35C135.14,337.92 138.24,337.43 141.32,336.89C144.41,336.35 147.5,335.76 150.58,335.13C153.67,334.5 156.77,333.83 159.85,333.1C162.94,332.37 166.03,331.61 169.11,330.76C172.21,329.91 175.3,328.99 178.38,328.01C181.48,327.02 184.56,325.93 187.64,324.85C190.73,323.77 193.81,322.57 196.91,321.52C199.99,320.47 203.06,319.36 206.17,318.54C209.24,317.73 212.33,316.97 215.44,316.62C218.51,316.27 221.63,316.16 224.7,316.42C227.8,316.68 230.92,317.34 233.97,318.22C237.1,319.12 240.18,320.45 243.23,321.82C246.36,323.23 249.42,324.95 252.5,326.58C255.6,328.22 258.66,330.03 261.76,331.65C264.83,333.25 267.91,334.86 271.03,336.24C274.09,337.6 277.18,338.85 280.29,339.89C283.35,340.92 286.45,341.77 289.56,342.47C292.63,343.16 295.72,343.67 298.82,344.09Q301.9,344.51 308.09,345.01L308.09,345.83" style="vector-effect: non-scaling-stroke; stroke-width: 2px; stroke: rgb(50, 97, 160); stroke-opacity: 1; fill: rgb(50, 97, 160); fill-opacity: 0.5;"/><g class="points"><path class="point" transform="translate(49.65,338.97)" d="M2.5,0A2.5,2.5 0 1,1 0,-2.5A2.5,2.5 0 0,1 2.5,0Z" style="opacity: 1; stroke-width: 0px; fill: rgb(50, 97, 160); fill-opacity: 1;"/><path class="point" transform="translate(57.56,341.25)" d="M2.5,0A2.5,2.5 0 1,1 0,-2.5A2.5,2.5 0 0,1 2.5,0Z" style="opacity: 1; stroke-width: 0px; fill: rgb(50, 97, 160); fill-opacity: 1;"/><path class="point" transform="translate(86.84,338.29)" d="M2.5,0A2.5,2.5 0 1,1 0,-2.5A2.5,2.5 0 0,1 2.5,0Z" style="opacity: 1; stroke-width: 0px; fill: rgb(50, 97, 160); fill-opacity: 1;"/><path class="point" transform="translate(115.11,341.68)" d="M2.5,0A2.5,2.5 0 1,1 0,-2.5A2.5,2.5 0 0,1 2.5,0Z" style="opacity: 1; stroke-width: 0px; fill: rgb(50, 97, 160); fill-opacity: 1;"/><path class="point" transform="translate(155.45,340.48)" d="M2.5,0A2.5,2.5 0 1,1 0,-2.5A2.5,2.5 0 0,1 2.5,0Z" style="opacity: 1; stroke-width: 0px; fill: rgb(50, 97, 160); fill-opacity: 1;"/><path class="point" transform="translate(157.98,338.76)" d="M2.5,0A2.5,2.5 0 1,1 0,-2.5A2.5,2.5 0 0,1 2.5,0Z" style="opacity: 1; stroke-width: 0px; fill: rgb(50, 97, 160); fill-opacity: 1;"/><path class="point" transform="translate(161.83,340.04)" d="M2.5,0A2.5,2.5 0 1,1 0,-2.5A2.5,2.5 0 0,1 2.5,0Z" style="opacity: 1; stroke-width: 0px; fill: rgb(50, 97, 160); fill-opacity: 1;"/><path class="point" transform="translate(167.5,339.23)" d="M2.5,0A2.5,2.5 0 1,1 0,-2.5A2.5,2.5 0 0,1 2.5,0Z" style="opacity: 1; stroke-width: 0px; fill: rgb(50, 97, 160); fill-opacity: 1;"/><path class="point" transform="translate(198.61,340.82)" d="M2.5,0A2.5,2.5 0 1,1 0,-2.5A2.5,2.5 0 0,1 2.5,0Z" style="opacity: 1; stroke-width: 0px; fill: rgb(50, 97, 160); fill-opacity: 1;"/><path class="point" transform="translate(199.02,342.46)" d="M2.5,0A2.5,2.5 0 1,1 0,-2.5A2.5,2.5 0 0,1 2.5,0Z" style="opacity: 1; stroke-width: 0px; fill: rgb(50, 97, 160); fill-opacity: 1;"/><path class="point" transform="translate(199.42,339.04)" d="M2.5,0A2.5,2.5 0 1,1 0,-2.5A2.5,2.5 0 0,1 2.5,0Z" style="opacity: 1; stroke-width: 0px; fill: rgb(50, 97, 160); fill-opacity: 1;"/><path class="point" transform="translate(201.25,341.09)" d="M2.5,0A2.5,2.5 0 1,1 0,-2.5A2.5,2.5 0 0,1 2.5,0Z" style="opacity: 1; stroke-width: 0px; fill: rgb(50, 97, 160); fill-opacity: 1;"/><path class="point" transform="translate(211.89,337.66)" d="M2.5,0A2.5,2.5 0 1,1 0,-2.5A2.5,2.5 0 0,1 2.5,0Z" style="opacity: 1; stroke-width: 0px; fill: rgb(50, 97, 160); fill-opacity: 1;"/><path class="point" transform="translate(220.5,344.83)" d="M2.5,0A2.5,2.5 0 1,1 0,-2.5A2.5,2.5 0 0,1 2.5,0Z" style="opacity: 1; stroke-width: 0px; fill: rgb(50, 97, 160); fill-opacity: 1;"/><path class="point" transform="translate(221.72,342.86)" d="M2.5,0A2.5,2.5 0 1,1 0,-2.5A2.5,2.5 0 0,1 2.5,0Z" style="opacity: 1; stroke-width: 0px; fill: rgb(50, 97, 160); fill-opacity: 1;"/><path class="point" transform="translate(225.47,335.5)" d="M2.5,0A2.5,2.5 0 1,1 0,-2.5A2.5,2.5 0 0,1 2.5,0Z" style="opacity: 1; stroke-width: 0px; fill: rgb(50, 97, 160); fill-opacity: 1;"/><path class="point" transform="translate(226.38,341.21)" d="M2.5,0A2.5,2.5 0 1,1 0,-2.5A2.5,2.5 0 0,1 2.5,0Z" style="opacity: 1; stroke-width: 0px; fill: rgb(50, 97, 160); fill-opacity: 1;"/><path class="point" transform="translate(226.78,344.41)" d="M2.5,0A2.5,2.5 0 1,1 0,-2.5A2.5,2.5 0 0,1 2.5,0Z" style="opacity: 1; stroke-width: 0px; fill: rgb(50, 97, 160); fill-opacity: 1;"/><path class="point" transform="translate(229.42,341.89)" d="M2.5,0A2.5,2.5 0 1,1 0,-2.5A2.5,2.5 0 0,1 2.5,0Z" style="opacity: 1; stroke-width: 0px; fill: rgb(50, 97, 160); fill-opacity: 1;"/><path class="point" transform="translate(229.62,340.06)" d="M2.5,0A2.5,2.5 0 1,1 0,-2.5A2.5,2.5 0 0,1 2.5,0Z" style="opacity: 1; stroke-width: 0px; fill: rgb(50, 97, 160); fill-opacity: 1;"/><path class="point" transform="translate(230.03,337.62)" d="M2.5,0A2.5,2.5 0 1,1 0,-2.5A2.5,2.5 0 0,1 2.5,0Z" style="opacity: 1; stroke-width: 0px; fill: rgb(50, 97, 160); fill-opacity: 1;"/><path class="point" transform="translate(232.05,339.4)" d="M2.5,0A2.5,2.5 0 1,1 0,-2.5A2.5,2.5 0 0,1 2.5,0Z" style="opacity: 1; stroke-width: 0px; fill: rgb(50, 97, 160); fill-opacity: 1;"/><path class="point" transform="translate(240.57,341.27)" d="M2.5,0A2.5,2.5 0 1,1 0,-2.5A2.5,2.5 0 0,1 2.5,0Z" style="opacity: 1; stroke-width: 0px; fill: rgb(50, 97, 160); fill-opacity: 1;"/><path class="point" transform="translate(242.9,343.79)" d="M2.5,0A2.5,2.5 0 1,1 0,-2.5A2.5,2.5 0 0,1 2.5,0Z" style="opacity: 1; stroke-width: 0px; fill: rgb(50, 97, 160); fill-opacity: 1;"/><path class="point" transform="translate(251.51,339.96)" d="M2.5,0A2.5,2.5 0 1,1 0,-2.5A2.5,2.5 0 0,1 2.5,0Z" style="opacity: 1; stroke-width: 0px; fill: rgb(50, 97, 160); fill-opacity: 1;"/></g></g><g class="trace violins" style="opacity: 1;"><path class="violin" d="M165.3,316.42L165.3,316.08Q167.71,315.91 168.92,315.8C170.13,315.68 171.34,315.55 172.55,315.39C173.76,315.23 174.96,315.05 176.17,314.86C177.38,314.67 178.58,314.46 179.79,314.26C181,314.06 182.21,313.85 183.42,313.67C184.63,313.49 185.83,313.31 187.04,313.17C188.25,313.03 189.46,312.91 190.67,312.81C191.88,312.71 193.08,312.64 194.29,312.58C195.5,312.52 196.7,312.49 197.91,312.45C199.12,312.41 200.33,312.39 201.54,312.33C202.75,312.27 203.96,312.21 205.16,312.07C206.37,311.93 207.59,311.77 208.79,311.49C210.01,311.21 211.22,310.84 212.41,310.37C213.64,309.88 214.84,309.27 216.03,308.58C217.26,307.87 218.47,307.03 219.66,306.15C220.89,305.25 222.08,304.23 223.28,303.23C224.5,302.22 225.7,301.15 226.91,300.12C228.12,299.1 229.32,298.06 230.53,297.07C231.73,296.09 232.93,295.13 234.15,294.22C235.35,293.33 236.56,292.45 237.78,291.65C238.97,290.86 240.17,290.09 241.4,289.44C242.59,288.81 243.8,288.2 245.03,287.79C246.22,287.4 247.44,287.07 248.65,287C249.85,286.93 251.09,287.05 252.27,287.36C253.51,287.69 254.73,288.29 255.9,288.97C257.15,289.7 258.34,290.67 259.52,291.64C260.75,292.65 261.94,293.82 263.15,294.91C264.36,296 265.54,297.17 266.77,298.18C267.95,299.16 269.15,300.12 270.39,300.89C271.57,301.62 272.79,302.25 274.02,302.74C275.21,303.21 276.42,303.51 277.64,303.79C278.84,304.07 280.06,304.2 281.27,304.41C282.48,304.62 283.69,304.78 284.89,305.06C286.1,305.35 287.32,305.69 288.51,306.12C289.73,306.57 290.94,307.13 292.14,307.71C293.36,308.3 294.55,309 295.76,309.66C296.97,310.32 298.17,311.03 299.39,311.65C300.59,312.26 301.79,312.86 303.01,313.36C304.21,313.85 305.42,314.29 306.64,314.65Q307.84,315 310.26,315.5L310.26,316.42" style="vector-effect: non-scaling-stroke; stroke-width: 2px; stroke: rgb(66, 92, 148); stroke-opacity: 1; fill: rgb(66, 92, 148); fill-opacity: 0.5;"/><g class="points"><path class="point" transform="translate(187.47,309.28)" d="M2.5,0A2.5,2.5 0 1,1 0,-2.5A2.5,2.5 0 0,1 2.5,0Z" style="opacity: 1; stroke-width: 0px; fill: rgb(66, 92, 148); fill-opacity: 1;"/><path class="point" transform="translate(203.48,312.15)" d="M2.5,0A2.5,2.5 0 1,1 0,-2.5A2.5,2.5 0 0,1 2.5,0Z" style="opacity: 1; stroke-width: 0px; fill: rgb(66, 92, 148); fill-opacity: 1;"/><path class="point" transform="translate(224.35,308.45)" d="M2.5,0A2.5,2.5 0 1,1 0,-2.5A2.5,2.5 0 0,1 2.5,0Z" style="opacity: 1; stroke-width: 0px; fill: rgb(66, 92, 148); fill-opacity: 1;"/><path class="point" transform="translate(228.81,312.77)" d="M2.5,0A2.5,2.5 0 1,1 0,-2.5A2.5,2.5 0 0,1 2.5,0Z" style="opacity: 1; stroke-width: 0px; fill: rgb(66, 92, 148); fill-opacity: 1;"/><path class="point" transform="translate(230.43,311.22)" d="M2.5,0A2.5,2.5 0 1,1 0,-2.5A2.5,2.5 0 0,1 2.5,0Z" style="opacity: 1; stroke-width: 0px; fill: rgb(66, 92, 148); fill-opacity: 1;"/><path class="point" transform="translate(230.74,309)" d="M2.5,0A2.5,2.5 0 1,1 0,-2.5A2.5,2.5 0 0,1 2.5,0Z" style="opacity: 1; stroke-width: 0px; fill: rgb(66, 92, 148); fill-opacity: 1;"/><path class="point" transform="translate(234.69,310.66)" d="M2.5,0A2.5,2.5 0 1,1 0,-2.5A2.5,2.5 0 0,1 2.5,0Z" style="opacity: 1; stroke-width: 0px; fill: rgb(66, 92, 148); fill-opacity: 1;"/><path class="point" transform="translate(236.51,309.18)" d="M2.5,0A2.5,2.5 0 1,1 0,-2.5A2.5,2.5 0 0,1 2.5,0Z" style="opacity: 1; stroke-width: 0px; fill: rgb(66, 92, 148); fill-opacity: 1;"/><path class="point" transform="translate(245.23,312.05)" d="M2.5,0A2.5,2.5 0 1,1 0,-2.5A2.5,2.5 0 0,1 2.5,0Z" style="opacity: 1; stroke-width: 0px; fill: rgb(66, 92, 148); fill-opacity: 1;"/><path class="point" transform="translate(245.83,313.93)" d="M2.5,0A2.5,2.5 0 1,1 0,-2.5A2.5,2.5 0 0,1 2.5,0Z" style="opacity: 1; stroke-width: 0px; fill: rgb(66, 92, 148); fill-opacity: 1;"/><path class="point" transform="translate(247.05,309.31)" d="M2.5,0A2.5,2.5 0 1,1 0,-2.5A2.5,2.5 0 0,1 2.5,0Z" style="opacity: 1; stroke-width: 0px; fill: rgb(66, 92, 148); fill-opacity: 1;"/><path class="point" transform="translate(247.46,312.14)" d="M2.5,0A2.5,2.5 0 1,1 0,-2.5A2.5,2.5 0 0,1 2.5,0Z" style="opacity: 1; stroke-width: 0px; fill: rgb(66, 92, 148); fill-opacity: 1;"/><path class="point" transform="translate(247.46,307.56)" d="M2.5,0A2.5,2.5 0 1,1 0,-2.5A2.5,2.5 0 0,1 2.5,0Z" style="opacity: 1; stroke-width: 0px; fill: rgb(66, 92, 148); fill-opacity: 1;"/><path class="point" transform="translate(251.1,316.26)" d="M2.5,0A2.5,2.5 0 1,1 0,-2.5A2.5,2.5 0 0,1 2.5,0Z" style="opacity: 1; stroke-width: 0px; fill: rgb(66, 92, 148); fill-opacity: 1;"/><path class="point" transform="translate(253.94,313.68)" d="M2.5,0A2.5,2.5 0 1,1 0,-2.5A2.5,2.5 0 0,1 2.5,0Z" style="opacity: 1; stroke-width: 0px; fill: rgb(66, 92, 148); fill-opacity: 1;"/><path class="point" transform="translate(254.75,306.28)" d="M2.5,0A2.5,2.5 0 1,1 0,-2.5A2.5,2.5 0 0,1 2.5,0Z" style="opacity: 1; stroke-width: 0px; fill: rgb(66, 92, 148); fill-opacity: 1;"/><path class="point" transform="translate(255.87,311.47)" d="M2.5,0A2.5,2.5 0 1,1 0,-2.5A2.5,2.5 0 0,1 2.5,0Z" style="opacity: 1; stroke-width: 0px; fill: rgb(66, 92, 148); fill-opacity: 1;"/><path class="point" transform="translate(259.41,313.68)" d="M2.5,0A2.5,2.5 0 1,1 0,-2.5A2.5,2.5 0 0,1 2.5,0Z" style="opacity: 1; stroke-width: 0px; fill: rgb(66, 92, 148); fill-opacity: 1;"/><path class="point" transform="translate(259.82,311.78)" d="M2.5,0A2.5,2.5 0 1,1 0,-2.5A2.5,2.5 0 0,1 2.5,0Z" style="opacity: 1; stroke-width: 0px; fill: rgb(66, 92, 148); fill-opacity: 1;"/><path class="point" transform="translate(262.86,310.62)" d="M2.5,0A2.5,2.5 0 1,1 0,-2.5A2.5,2.5 0 0,1 2.5,0Z" style="opacity: 1; stroke-width: 0px; fill: rgb(66, 92, 148); fill-opacity: 1;"/><path class="point" transform="translate(268.94,308.87)" d="M2.5,0A2.5,2.5 0 1,1 0,-2.5A2.5,2.5 0 0,1 2.5,0Z" style="opacity: 1; stroke-width: 0px; fill: rgb(66, 92, 148); fill-opacity: 1;"/><path class="point" transform="translate(283.94,310.14)" d="M2.5,0A2.5,2.5 0 1,1 0,-2.5A2.5,2.5 0 0,1 2.5,0Z" style="opacity: 1; stroke-width: 0px; fill: rgb(66, 92, 148); fill-opacity: 1;"/><path class="point" transform="translate(285.15,311.52)" d="M2.5,0A2.5,2.5 0 1,1 0,-2.5A2.5,2.5 0 0,1 2.5,0Z" style="opacity: 1; stroke-width: 0px; fill: rgb(66, 92, 148); fill-opacity: 1;"/><path class="point" transform="translate(286.77,313.27)" d="M2.5,0A2.5,2.5 0 1,1 0,-2.5A2.5,2.5 0 0,1 2.5,0Z" style="opacity: 1; stroke-width: 0px; fill: rgb(66, 92, 148); fill-opacity: 1;"/><path class="point" transform="translate(288.09,310.54)" d="M2.5,0A2.5,2.5 0 1,1 0,-2.5A2.5,2.5 0 0,1 2.5,0Z" style="opacity: 1; stroke-width: 0px; fill: rgb(66, 92, 148); fill-opacity: 1;"/></g></g><g class="trace violins" style="opacity: 1;"><path class="violin" d="M162.11,287L162.11,286.67Q164.2,286.5 165.25,286.39C166.3,286.28 167.34,286.14 168.39,286C169.44,285.86 170.48,285.69 171.53,285.53C172.58,285.37 173.62,285.2 174.67,285.06C175.71,284.92 176.75,284.78 177.8,284.7C178.84,284.62 179.89,284.56 180.94,284.56C181.99,284.56 183.03,284.6 184.08,284.67C185.13,284.74 186.17,284.87 187.22,285C188.27,285.13 189.31,285.3 190.36,285.44C191.41,285.58 192.45,285.73 193.5,285.84C194.55,285.95 195.59,286.05 196.64,286.08C197.68,286.11 198.73,286.12 199.77,286.05C200.82,285.98 201.87,285.86 202.91,285.67C203.96,285.48 205.01,285.22 206.05,284.9C207.11,284.58 208.15,284.18 209.19,283.75C210.25,283.31 211.29,282.81 212.33,282.3C213.38,281.79 214.43,281.23 215.47,280.68C216.52,280.13 217.56,279.56 218.61,279C219.66,278.44 220.71,277.89 221.75,277.33C222.8,276.77 223.84,276.21 224.88,275.62C225.93,275.02 226.98,274.41 228.02,273.77C229.07,273.12 230.12,272.43 231.16,271.72C232.21,271 233.26,270.24 234.3,269.47C235.35,268.7 236.39,267.89 237.44,267.1C238.49,266.31 239.53,265.5 240.58,264.72C241.62,263.94 242.67,263.16 243.72,262.42C244.76,261.69 245.79,260.95 246.85,260.31C247.88,259.68 248.92,259.06 249.99,258.6C251.02,258.16 252.07,257.74 253.13,257.58C254.16,257.42 255.24,257.4 256.27,257.61C257.34,257.83 258.41,258.33 259.41,258.94C260.51,259.61 261.54,260.57 262.55,261.56C263.64,262.63 264.66,263.91 265.69,265.17C266.76,266.48 267.78,267.92 268.83,269.28C269.87,270.63 270.89,272.04 271.96,273.32C272.98,274.55 274.02,275.76 275.1,276.82C276.12,277.82 277.16,278.76 278.24,279.54C279.26,280.28 280.31,280.9 281.38,281.42C282.4,281.91 283.46,282.29 284.52,282.6C285.56,282.91 286.61,283.11 287.66,283.3C288.7,283.49 289.75,283.61 290.8,283.75C291.84,283.89 292.89,284.01 293.93,284.15C294.98,284.29 296.02,284.45 297.07,284.61C298.12,284.77 299.16,284.95 300.21,285.12C301.26,285.29 302.3,285.46 303.35,285.61C304.4,285.75 305.44,285.9 306.49,285.99C307.54,286.08 308.58,286.14 309.63,286.16C310.68,286.18 311.72,286.16 312.77,286.11C313.82,286.06 314.87,285.95 315.91,285.84C316.96,285.73 318,285.58 319.04,285.44C320.09,285.3 321.13,285.13 322.18,285C323.23,284.87 324.27,284.74 325.32,284.67C326.37,284.6 327.41,284.56 328.46,284.56C329.51,284.56 330.55,284.62 331.6,284.7C332.65,284.78 333.69,284.92 334.74,285.06C335.79,285.2 336.83,285.37 337.88,285.53C338.92,285.69 339.96,285.86 341.01,286C342.05,286.14 343.1,286.28 344.15,286.39Q345.2,286.5 347.29,286.67L347.29,287" style="vector-effect: non-scaling-stroke; stroke-width: 2px; stroke: rgb(83, 87, 136); stroke-opacity: 1; fill: rgb(83, 87, 136); fill-opacity: 0.5;"/><g class="points"><path class="point" transform="translate(181.08,280.01)" d="M2.5,0A2.5,2.5 0 1,1 0,-2.5A2.5,2.5 0 0,1 2.5,0Z" style="opacity: 1; stroke-width: 0px; fill: rgb(83, 87, 136); fill-opacity: 1;"/><path class="point" transform="translate(218.68,282.56)" d="M2.5,0A2.5,2.5 0 1,1 0,-2.5A2.5,2.5 0 0,1 2.5,0Z" style="opacity: 1; stroke-width: 0px; fill: rgb(83, 87, 136); fill-opacity: 1;"/><path class="point" transform="translate(220.5,279.23)" d="M2.5,0A2.5,2.5 0 1,1 0,-2.5A2.5,2.5 0 0,1 2.5,0Z" style="opacity: 1; stroke-width: 0px; fill: rgb(83, 87, 136); fill-opacity: 1;"/><path class="point" transform="translate(227.19,283.29)" d="M2.5,0A2.5,2.5 0 1,1 0,-2.5A2.5,2.5 0 0,1 2.5,0Z" style="opacity: 1; stroke-width: 0px; fill: rgb(83, 87, 136); fill-opacity: 1;"/><path class="point" transform="translate(235.5,281.76)" d="M2.5,0A2.5,2.5 0 1,1 0,-2.5A2.5,2.5 0 0,1 2.5,0Z" style="opacity: 1; stroke-width: 0px; fill: rgb(83, 87, 136); fill-opacity: 1;"/><path class="point" transform="translate(235.9,279.68)" d="M2.5,0A2.5,2.5 0 1,1 0,-2.5A2.5,2.5 0 0,1 2.5,0Z" style="opacity: 1; stroke-width: 0px; fill: rgb(83, 87, 136); fill-opacity: 1;"/><path class="point" transform="translate(239.55,281.26)" d="M2.5,0A2.5,2.5 0 1,1 0,-2.5A2.5,2.5 0 0,1 2.5,0Z" style="opacity: 1; stroke-width: 0px; fill: rgb(83, 87, 136); fill-opacity: 1;"/><path class="point" transform="translate(240.36,279.98)" d="M2.5,0A2.5,2.5 0 1,1 0,-2.5A2.5,2.5 0 0,1 2.5,0Z" style="opacity: 1; stroke-width: 0px; fill: rgb(83, 87, 136); fill-opacity: 1;"/><path class="point" transform="translate(241.68,282.51)" d="M2.5,0A2.5,2.5 0 1,1 0,-2.5A2.5,2.5 0 0,1 2.5,0Z" style="opacity: 1; stroke-width: 0px; fill: rgb(83, 87, 136); fill-opacity: 1;"/><path class="point" transform="translate(247.66,284.73)" d="M2.5,0A2.5,2.5 0 1,1 0,-2.5A2.5,2.5 0 0,1 2.5,0Z" style="opacity: 1; stroke-width: 0px; fill: rgb(83, 87, 136); fill-opacity: 1;"/><path class="point" transform="translate(247.86,279.82)" d="M2.5,0A2.5,2.5 0 1,1 0,-2.5A2.5,2.5 0 0,1 2.5,0Z" style="opacity: 1; stroke-width: 0px; fill: rgb(83, 87, 136); fill-opacity: 1;"/><path class="point" transform="translate(251.41,282.85)" d="M2.5,0A2.5,2.5 0 1,1 0,-2.5A2.5,2.5 0 0,1 2.5,0Z" style="opacity: 1; stroke-width: 0px; fill: rgb(83, 87, 136); fill-opacity: 1;"/><path class="point" transform="translate(253.33,277.98)" d="M2.5,0A2.5,2.5 0 1,1 0,-2.5A2.5,2.5 0 0,1 2.5,0Z" style="opacity: 1; stroke-width: 0px; fill: rgb(83, 87, 136); fill-opacity: 1;"/><path class="point" transform="translate(253.33,286.05)" d="M2.5,0A2.5,2.5 0 1,1 0,-2.5A2.5,2.5 0 0,1 2.5,0Z" style="opacity: 1; stroke-width: 0px; fill: rgb(83, 87, 136); fill-opacity: 1;"/><path class="point" transform="translate(256.17,284.44)" d="M2.5,0A2.5,2.5 0 1,1 0,-2.5A2.5,2.5 0 0,1 2.5,0Z" style="opacity: 1; stroke-width: 0px; fill: rgb(83, 87, 136); fill-opacity: 1;"/><path class="point" transform="translate(257.18,276.29)" d="M2.5,0A2.5,2.5 0 1,1 0,-2.5A2.5,2.5 0 0,1 2.5,0Z" style="opacity: 1; stroke-width: 0px; fill: rgb(83, 87, 136); fill-opacity: 1;"/><path class="point" transform="translate(257.59,282.59)" d="M2.5,0A2.5,2.5 0 1,1 0,-2.5A2.5,2.5 0 0,1 2.5,0Z" style="opacity: 1; stroke-width: 0px; fill: rgb(83, 87, 136); fill-opacity: 1;"/><path class="point" transform="translate(260.83,285.23)" d="M2.5,0A2.5,2.5 0 1,1 0,-2.5A2.5,2.5 0 0,1 2.5,0Z" style="opacity: 1; stroke-width: 0px; fill: rgb(83, 87, 136); fill-opacity: 1;"/><path class="point" transform="translate(261.24,282.3)" d="M2.5,0A2.5,2.5 0 1,1 0,-2.5A2.5,2.5 0 0,1 2.5,0Z" style="opacity: 1; stroke-width: 0px; fill: rgb(83, 87, 136); fill-opacity: 1;"/><path class="point" transform="translate(262.86,281.17)" d="M2.5,0A2.5,2.5 0 1,1 0,-2.5A2.5,2.5 0 0,1 2.5,0Z" style="opacity: 1; stroke-width: 0px; fill: rgb(83, 87, 136); fill-opacity: 1;"/><path class="point" transform="translate(264.68,279.98)" d="M2.5,0A2.5,2.5 0 1,1 0,-2.5A2.5,2.5 0 0,1 2.5,0Z" style="opacity: 1; stroke-width: 0px; fill: rgb(83, 87, 136); fill-opacity: 1;"/><path class="point" transform="translate(265.9,280.85)" d="M2.5,0A2.5,2.5 0 1,1 0,-2.5A2.5,2.5 0 0,1 2.5,0Z" style="opacity: 1; stroke-width: 0px; fill: rgb(83, 87, 136); fill-opacity: 1;"/><path class="point" transform="translate(275.22,281.76)" d="M2.5,0A2.5,2.5 0 1,1 0,-2.5A2.5,2.5 0 0,1 2.5,0Z" style="opacity: 1; stroke-width: 0px; fill: rgb(83, 87, 136); fill-opacity: 1;"/><path class="point" transform="translate(292.55,282.89)" d="M2.5,0A2.5,2.5 0 1,1 0,-2.5A2.5,2.5 0 0,1 2.5,0Z" style="opacity: 1; stroke-width: 0px; fill: rgb(83, 87, 136); fill-opacity: 1;"/><path class="point" transform="translate(328.32,281.12)" d="M2.5,0A2.5,2.5 0 1,1 0,-2.5A2.5,2.5 0 0,1 2.5,0Z" style="opacity: 1; stroke-width: 0px; fill: rgb(83, 87, 136); fill-opacity: 1;"/></g></g><g class="trace violins" style="opacity: 1;"><path class="violin" d="M111.18,257.58L111.18,257.26Q114.75,257.1 116.54,256.99C118.33,256.88 120.12,256.74 121.91,256.6C123.7,256.46 125.49,256.29 127.28,256.14C129.07,255.98 130.86,255.81 132.65,255.67C134.44,255.53 136.23,255.4 138.02,255.32C139.81,255.24 141.6,255.18 143.39,255.17C145.18,255.16 146.96,255.21 148.75,255.28C150.54,255.35 152.33,255.48 154.12,255.61C155.91,255.74 157.7,255.91 159.49,256.06C161.28,256.21 163.07,256.37 164.86,256.51C166.65,256.65 168.44,256.78 170.23,256.88C172.02,256.97 173.8,257.04 175.59,257.08C177.38,257.12 179.17,257.13 180.96,257.09C182.75,257.05 184.54,256.98 186.33,256.85C188.12,256.72 189.91,256.56 191.7,256.32C193.49,256.08 195.29,255.79 197.07,255.43C198.86,255.07 200.65,254.64 202.43,254.14C204.23,253.63 206.02,253.05 207.8,252.4C209.6,251.74 211.39,251.01 213.17,250.21C214.97,249.4 216.77,248.5 218.54,247.55C220.35,246.58 222.14,245.53 223.91,244.44C225.71,243.33 227.49,242.12 229.27,240.92C231.07,239.7 232.85,238.4 234.64,237.17C236.43,235.94 238.2,234.66 240.01,233.54C241.78,232.45 243.55,231.36 245.38,230.54C247.14,229.75 248.94,229.04 250.75,228.65C252.51,228.27 254.33,228.11 256.11,228.17C257.9,228.23 259.71,228.58 261.48,229C263.29,229.43 265.07,230.11 266.85,230.76C268.65,231.42 270.43,232.22 272.22,232.96C274.01,233.71 275.8,234.48 277.59,235.23C279.38,235.98 281.17,236.71 282.96,237.44C284.75,238.17 286.53,238.9 288.32,239.63C290.11,240.36 291.9,241.12 293.69,241.84C295.48,242.56 297.26,243.29 299.06,243.96C300.84,244.63 302.63,245.28 304.43,245.85C306.21,246.41 308,246.91 309.8,247.34C311.58,247.76 313.37,248.1 315.16,248.41C316.94,248.71 318.74,248.94 320.53,249.17C322.32,249.4 324.11,249.59 325.9,249.8C327.69,250.02 329.48,250.22 331.27,250.46C333.06,250.7 334.85,250.95 336.64,251.22C338.43,251.49 340.21,251.79 342,252.1C343.79,252.41 345.58,252.74 347.37,253.06C349.16,253.39 350.95,253.73 352.74,254.05C354.53,254.37 356.32,254.69 358.11,254.98C359.9,255.27 361.69,255.54 363.48,255.79C365.27,256.03 367.05,256.26 368.84,256.45C370.63,256.64 372.42,256.79 374.21,256.92Q376,257.05 379.58,257.23L379.58,257.58" style="vector-effect: non-scaling-stroke; stroke-width: 2px; stroke: rgb(99, 82, 124); stroke-opacity: 1; fill: rgb(99, 82, 124); fill-opacity: 0.5;"/><g class="points"><path class="point" transform="translate(143.79,250.67)" d="M2.5,0A2.5,2.5 0 1,1 0,-2.5A2.5,2.5 0 0,1 2.5,0Z" style="opacity: 1; stroke-width: 0px; fill: rgb(99, 82, 124); fill-opacity: 1;"/><path class="point" transform="translate(215.84,253.04)" d="M2.5,0A2.5,2.5 0 1,1 0,-2.5A2.5,2.5 0 0,1 2.5,0Z" style="opacity: 1; stroke-width: 0px; fill: rgb(99, 82, 124); fill-opacity: 1;"/><path class="point" transform="translate(228.51,249.95)" d="M2.5,0A2.5,2.5 0 1,1 0,-2.5A2.5,2.5 0 0,1 2.5,0Z" style="opacity: 1; stroke-width: 0px; fill: rgb(99, 82, 124); fill-opacity: 1;"/><path class="point" transform="translate(228.81,253.74)" d="M2.5,0A2.5,2.5 0 1,1 0,-2.5A2.5,2.5 0 0,1 2.5,0Z" style="opacity: 1; stroke-width: 0px; fill: rgb(99, 82, 124); fill-opacity: 1;"/><path class="point" transform="translate(242.39,252.32)" d="M2.5,0A2.5,2.5 0 1,1 0,-2.5A2.5,2.5 0 0,1 2.5,0Z" style="opacity: 1; stroke-width: 0px; fill: rgb(99, 82, 124); fill-opacity: 1;"/><path class="point" transform="translate(243,250.3)" d="M2.5,0A2.5,2.5 0 1,1 0,-2.5A2.5,2.5 0 0,1 2.5,0Z" style="opacity: 1; stroke-width: 0px; fill: rgb(99, 82, 124); fill-opacity: 1;"/><path class="point" transform="translate(249.28,251.87)" d="M2.5,0A2.5,2.5 0 1,1 0,-2.5A2.5,2.5 0 0,1 2.5,0Z" style="opacity: 1; stroke-width: 0px; fill: rgb(99, 82, 124); fill-opacity: 1;"/><path class="point" transform="translate(250.29,250.24)" d="M2.5,0A2.5,2.5 0 1,1 0,-2.5A2.5,2.5 0 0,1 2.5,0Z" style="opacity: 1; stroke-width: 0px; fill: rgb(99, 82, 124); fill-opacity: 1;"/><path class="point" transform="translate(250.5,253.23)" d="M2.5,0A2.5,2.5 0 1,1 0,-2.5A2.5,2.5 0 0,1 2.5,0Z" style="opacity: 1; stroke-width: 0px; fill: rgb(99, 82, 124); fill-opacity: 1;"/><path class="point" transform="translate(252.73,256.01)" d="M2.5,0A2.5,2.5 0 1,1 0,-2.5A2.5,2.5 0 0,1 2.5,0Z" style="opacity: 1; stroke-width: 0px; fill: rgb(99, 82, 124); fill-opacity: 1;"/><path class="point" transform="translate(253.74,250.22)" d="M2.5,0A2.5,2.5 0 1,1 0,-2.5A2.5,2.5 0 0,1 2.5,0Z" style="opacity: 1; stroke-width: 0px; fill: rgb(99, 82, 124); fill-opacity: 1;"/><path class="point" transform="translate(255.46,253.32)" d="M2.5,0A2.5,2.5 0 1,1 0,-2.5A2.5,2.5 0 0,1 2.5,0Z" style="opacity: 1; stroke-width: 0px; fill: rgb(99, 82, 124); fill-opacity: 1;"/><path class="point" transform="translate(259.01,248.74)" d="M2.5,0A2.5,2.5 0 1,1 0,-2.5A2.5,2.5 0 0,1 2.5,0Z" style="opacity: 1; stroke-width: 0px; fill: rgb(99, 82, 124); fill-opacity: 1;"/><path class="point" transform="translate(262.76,256.22)" d="M2.5,0A2.5,2.5 0 1,1 0,-2.5A2.5,2.5 0 0,1 2.5,0Z" style="opacity: 1; stroke-width: 0px; fill: rgb(99, 82, 124); fill-opacity: 1;"/><path class="point" transform="translate(264.89,254.38)" d="M2.5,0A2.5,2.5 0 1,1 0,-2.5A2.5,2.5 0 0,1 2.5,0Z" style="opacity: 1; stroke-width: 0px; fill: rgb(99, 82, 124); fill-opacity: 1;"/><path class="point" transform="translate(268.23,247.54)" d="M2.5,0A2.5,2.5 0 1,1 0,-2.5A2.5,2.5 0 0,1 2.5,0Z" style="opacity: 1; stroke-width: 0px; fill: rgb(99, 82, 124); fill-opacity: 1;"/><path class="point" transform="translate(281.3,252.67)" d="M2.5,0A2.5,2.5 0 1,1 0,-2.5A2.5,2.5 0 0,1 2.5,0Z" style="opacity: 1; stroke-width: 0px; fill: rgb(99, 82, 124); fill-opacity: 1;"/><path class="point" transform="translate(285.96,254.7)" d="M2.5,0A2.5,2.5 0 1,1 0,-2.5A2.5,2.5 0 0,1 2.5,0Z" style="opacity: 1; stroke-width: 0px; fill: rgb(99, 82, 124); fill-opacity: 1;"/><path class="point" transform="translate(286.67,252.84)" d="M2.5,0A2.5,2.5 0 1,1 0,-2.5A2.5,2.5 0 0,1 2.5,0Z" style="opacity: 1; stroke-width: 0px; fill: rgb(99, 82, 124); fill-opacity: 1;"/><path class="point" transform="translate(289,251.77)" d="M2.5,0A2.5,2.5 0 1,1 0,-2.5A2.5,2.5 0 0,1 2.5,0Z" style="opacity: 1; stroke-width: 0px; fill: rgb(99, 82, 124); fill-opacity: 1;"/><path class="point" transform="translate(289,250.36)" d="M2.5,0A2.5,2.5 0 1,1 0,-2.5A2.5,2.5 0 0,1 2.5,0Z" style="opacity: 1; stroke-width: 0px; fill: rgb(99, 82, 124); fill-opacity: 1;"/><path class="point" transform="translate(307.55,251.36)" d="M2.5,0A2.5,2.5 0 1,1 0,-2.5A2.5,2.5 0 0,1 2.5,0Z" style="opacity: 1; stroke-width: 0px; fill: rgb(99, 82, 124); fill-opacity: 1;"/><path class="point" transform="translate(322.54,252.54)" d="M2.5,0A2.5,2.5 0 1,1 0,-2.5A2.5,2.5 0 0,1 2.5,0Z" style="opacity: 1; stroke-width: 0px; fill: rgb(99, 82, 124); fill-opacity: 1;"/><path class="point" transform="translate(328.22,254.03)" d="M2.5,0A2.5,2.5 0 1,1 0,-2.5A2.5,2.5 0 0,1 2.5,0Z" style="opacity: 1; stroke-width: 0px; fill: rgb(99, 82, 124); fill-opacity: 1;"/><path class="point" transform="translate(346.97,251.71)" d="M2.5,0A2.5,2.5 0 1,1 0,-2.5A2.5,2.5 0 0,1 2.5,0Z" style="opacity: 1; stroke-width: 0px; fill: rgb(99, 82, 124); fill-opacity: 1;"/></g></g><g class="trace violins" style="opacity: 1;"><path class="violin" d="M198.53,228.17L198.53,227.6Q201.05,227.28 202.31,227.04C203.58,226.8 204.85,226.5 206.1,226.14C207.37,225.78 208.63,225.34 209.88,224.86C211.15,224.37 212.41,223.8 213.66,223.23C214.93,222.65 216.18,222.02 217.44,221.41C218.7,220.8 219.95,220.15 221.22,219.56C222.48,218.97 223.74,218.4 225.01,217.85C226.27,217.3 227.53,216.79 228.79,216.25C230.05,215.7 231.32,215.19 232.57,214.58C233.84,213.96 235.11,213.31 236.35,212.57C237.63,211.81 238.89,210.95 240.13,210.05C241.41,209.12 242.66,208.09 243.92,207.08C245.19,206.06 246.42,204.96 247.7,203.98C248.95,203.02 250.19,202.03 251.48,201.26C252.71,200.52 253.97,199.83 255.26,199.41C256.49,199.01 257.79,198.76 259.05,198.75C260.31,198.74 261.59,198.97 262.83,199.33C264.12,199.7 265.37,200.33 266.61,200.99C267.9,201.68 269.15,202.54 270.39,203.4C271.67,204.28 272.91,205.26 274.17,206.21C275.44,207.17 276.69,208.18 277.96,209.14C279.22,210.1 280.47,211.06 281.74,211.98C282.99,212.89 284.25,213.79 285.52,214.64C286.77,215.47 288.03,216.27 289.3,217.01C290.55,217.74 291.81,218.43 293.08,219.04C294.33,219.64 295.59,220.2 296.87,220.67C298.12,221.13 299.38,221.53 300.65,221.84C301.9,222.15 303.17,222.37 304.43,222.54C305.69,222.7 306.95,222.78 308.21,222.83C309.47,222.88 310.73,222.84 311.99,222.82C313.25,222.8 314.52,222.73 315.78,222.71C317.04,222.69 318.3,222.67 319.56,222.72C320.82,222.77 322.08,222.86 323.34,223.02C324.6,223.18 325.86,223.41 327.12,223.67C328.39,223.93 329.65,224.26 330.91,224.58C332.17,224.9 333.43,225.25 334.69,225.57C335.95,225.88 337.21,226.2 338.47,226.47C339.73,226.74 340.99,226.97 342.25,227.17Q343.51,227.36 346.03,227.64L346.03,228.17" style="vector-effect: non-scaling-stroke; stroke-width: 2px; stroke: rgb(116, 77, 112); stroke-opacity: 1; fill: rgb(116, 77, 112); fill-opacity: 0.5;"/><g class="points"><path class="point" transform="translate(221.51,220.46)" d="M2.5,0A2.5,2.5 0 1,1 0,-2.5A2.5,2.5 0 0,1 2.5,0Z" style="opacity: 1; stroke-width: 0px; fill: rgb(116, 77, 112); fill-opacity: 1;"/><path class="point" transform="translate(226.38,224.6)" d="M2.5,0A2.5,2.5 0 1,1 0,-2.5A2.5,2.5 0 0,1 2.5,0Z" style="opacity: 1; stroke-width: 0px; fill: rgb(116, 77, 112); fill-opacity: 1;"/><path class="point" transform="translate(227.59,219.35)" d="M2.5,0A2.5,2.5 0 1,1 0,-2.5A2.5,2.5 0 0,1 2.5,0Z" style="opacity: 1; stroke-width: 0px; fill: rgb(116, 77, 112); fill-opacity: 1;"/><path class="point" transform="translate(235.09,225.69)" d="M2.5,0A2.5,2.5 0 1,1 0,-2.5A2.5,2.5 0 0,1 2.5,0Z" style="opacity: 1; stroke-width: 0px; fill: rgb(116, 77, 112); fill-opacity: 1;"/><path class="point" transform="translate(245.83,223.3)" d="M2.5,0A2.5,2.5 0 1,1 0,-2.5A2.5,2.5 0 0,1 2.5,0Z" style="opacity: 1; stroke-width: 0px; fill: rgb(116, 77, 112); fill-opacity: 1;"/><path class="point" transform="translate(246.85,220.06)" d="M2.5,0A2.5,2.5 0 1,1 0,-2.5A2.5,2.5 0 0,1 2.5,0Z" style="opacity: 1; stroke-width: 0px; fill: rgb(116, 77, 112); fill-opacity: 1;"/><path class="point" transform="translate(249.89,222.45)" d="M2.5,0A2.5,2.5 0 1,1 0,-2.5A2.5,2.5 0 0,1 2.5,0Z" style="opacity: 1; stroke-width: 0px; fill: rgb(116, 77, 112); fill-opacity: 1;"/><path class="point" transform="translate(252.12,221.05)" d="M2.5,0A2.5,2.5 0 1,1 0,-2.5A2.5,2.5 0 0,1 2.5,0Z" style="opacity: 1; stroke-width: 0px; fill: rgb(116, 77, 112); fill-opacity: 1;"/><path class="point" transform="translate(252.32,223.81)" d="M2.5,0A2.5,2.5 0 1,1 0,-2.5A2.5,2.5 0 0,1 2.5,0Z" style="opacity: 1; stroke-width: 0px; fill: rgb(116, 77, 112); fill-opacity: 1;"/><path class="point" transform="translate(254.25,226.5)" d="M2.5,0A2.5,2.5 0 1,1 0,-2.5A2.5,2.5 0 0,1 2.5,0Z" style="opacity: 1; stroke-width: 0px; fill: rgb(116, 77, 112); fill-opacity: 1;"/><path class="point" transform="translate(256.37,220.74)" d="M2.5,0A2.5,2.5 0 1,1 0,-2.5A2.5,2.5 0 0,1 2.5,0Z" style="opacity: 1; stroke-width: 0px; fill: rgb(116, 77, 112); fill-opacity: 1;"/><path class="point" transform="translate(258.6,224.14)" d="M2.5,0A2.5,2.5 0 1,1 0,-2.5A2.5,2.5 0 0,1 2.5,0Z" style="opacity: 1; stroke-width: 0px; fill: rgb(116, 77, 112); fill-opacity: 1;"/><path class="point" transform="translate(261.85,218.55)" d="M2.5,0A2.5,2.5 0 1,1 0,-2.5A2.5,2.5 0 0,1 2.5,0Z" style="opacity: 1; stroke-width: 0px; fill: rgb(116, 77, 112); fill-opacity: 1;"/><path class="point" transform="translate(262.45,227.34)" d="M2.5,0A2.5,2.5 0 1,1 0,-2.5A2.5,2.5 0 0,1 2.5,0Z" style="opacity: 1; stroke-width: 0px; fill: rgb(116, 77, 112); fill-opacity: 1;"/><path class="point" transform="translate(264.68,225.04)" d="M2.5,0A2.5,2.5 0 1,1 0,-2.5A2.5,2.5 0 0,1 2.5,0Z" style="opacity: 1; stroke-width: 0px; fill: rgb(116, 77, 112); fill-opacity: 1;"/><path class="point" transform="translate(265.49,217.91)" d="M2.5,0A2.5,2.5 0 1,1 0,-2.5A2.5,2.5 0 0,1 2.5,0Z" style="opacity: 1; stroke-width: 0px; fill: rgb(116, 77, 112); fill-opacity: 1;"/><path class="point" transform="translate(269.55,223.44)" d="M2.5,0A2.5,2.5 0 1,1 0,-2.5A2.5,2.5 0 0,1 2.5,0Z" style="opacity: 1; stroke-width: 0px; fill: rgb(116, 77, 112); fill-opacity: 1;"/><path class="point" transform="translate(270.15,225.71)" d="M2.5,0A2.5,2.5 0 1,1 0,-2.5A2.5,2.5 0 0,1 2.5,0Z" style="opacity: 1; stroke-width: 0px; fill: rgb(116, 77, 112); fill-opacity: 1;"/><path class="point" transform="translate(275.42,223.37)" d="M2.5,0A2.5,2.5 0 1,1 0,-2.5A2.5,2.5 0 0,1 2.5,0Z" style="opacity: 1; stroke-width: 0px; fill: rgb(116, 77, 112); fill-opacity: 1;"/><path class="point" transform="translate(281.71,222.35)" d="M2.5,0A2.5,2.5 0 1,1 0,-2.5A2.5,2.5 0 0,1 2.5,0Z" style="opacity: 1; stroke-width: 0px; fill: rgb(116, 77, 112); fill-opacity: 1;"/><path class="point" transform="translate(281.91,220.88)" d="M2.5,0A2.5,2.5 0 1,1 0,-2.5A2.5,2.5 0 0,1 2.5,0Z" style="opacity: 1; stroke-width: 0px; fill: rgb(116, 77, 112); fill-opacity: 1;"/><path class="point" transform="translate(288.09,221.94)" d="M2.5,0A2.5,2.5 0 1,1 0,-2.5A2.5,2.5 0 0,1 2.5,0Z" style="opacity: 1; stroke-width: 0px; fill: rgb(116, 77, 112); fill-opacity: 1;"/><path class="point" transform="translate(300.96,223.09)" d="M2.5,0A2.5,2.5 0 1,1 0,-2.5A2.5,2.5 0 0,1 2.5,0Z" style="opacity: 1; stroke-width: 0px; fill: rgb(116, 77, 112); fill-opacity: 1;"/><path class="point" transform="translate(320.42,224.63)" d="M2.5,0A2.5,2.5 0 1,1 0,-2.5A2.5,2.5 0 0,1 2.5,0Z" style="opacity: 1; stroke-width: 0px; fill: rgb(116, 77, 112); fill-opacity: 1;"/><path class="point" transform="translate(323.05,222.29)" d="M2.5,0A2.5,2.5 0 1,1 0,-2.5A2.5,2.5 0 0,1 2.5,0Z" style="opacity: 1; stroke-width: 0px; fill: rgb(116, 77, 112); fill-opacity: 1;"/></g></g><g class="trace violins" style="opacity: 1;"><path class="violin" d="M204.26,198.75L204.26,198.23Q207.46,197.93 209.06,197.69C210.66,197.44 212.27,197.15 213.86,196.76C215.47,196.36 217.08,195.88 218.66,195.3C220.28,194.7 221.88,194 223.46,193.21C225.08,192.4 226.67,191.46 228.25,190.47C229.87,189.45 231.46,188.32 233.05,187.17C234.66,186 236.25,184.75 237.85,183.52C239.45,182.29 241.04,181 242.65,179.79C244.24,178.59 245.83,177.39 247.45,176.3C249.03,175.24 250.62,174.21 252.25,173.34C253.83,172.49 255.43,171.72 257.05,171.12C258.62,170.54 260.23,170.07 261.84,169.77C263.43,169.48 265.04,169.33 266.64,169.33C268.24,169.33 269.85,169.5 271.44,169.79C273.05,170.09 274.66,170.54 276.24,171.1C277.86,171.67 279.46,172.39 281.04,173.19C282.66,174.01 284.26,174.97 285.84,175.97C287.46,177 289.06,178.14 290.64,179.3C292.25,180.48 293.83,181.75 295.43,182.99C297.03,184.23 298.62,185.52 300.23,186.73C301.82,187.92 303.41,189.12 305.03,190.19C306.61,191.23 308.2,192.24 309.83,193.09C311.41,193.92 313.01,194.65 314.63,195.25C316.21,195.83 317.82,196.3 319.43,196.65C321.02,196.99 322.63,197.21 324.23,197.33C325.82,197.45 327.42,197.45 329.02,197.37C330.62,197.29 332.23,197.09 333.82,196.83C335.43,196.56 337.03,196.19 338.62,195.78C340.23,195.37 341.82,194.85 343.42,194.35C345.02,193.84 346.62,193.26 348.22,192.75C349.82,192.24 351.41,191.71 353.02,191.31C354.61,190.91 356.21,190.55 357.81,190.35C359.4,190.15 361.01,190.07 362.61,190.12C364.21,190.17 365.82,190.38 367.41,190.66C369.02,190.94 370.62,191.38 372.21,191.82C373.82,192.26 375.41,192.81 377.01,193.31C378.61,193.81 380.21,194.36 381.81,194.84C383.41,195.32 385.01,195.78 386.61,196.17C388.2,196.56 389.8,196.91 391.4,197.2C392.99,197.49 394.6,197.7 396.2,197.89Q397.8,198.08 401,198.32L401,198.75" style="vector-effect: non-scaling-stroke; stroke-width: 2px; stroke: rgb(132, 73, 99); stroke-opacity: 1; fill: rgb(132, 73, 99); fill-opacity: 0.5;"/><g class="points"><path class="point" transform="translate(233.47,190.49)" d="M2.5,0A2.5,2.5 0 1,1 0,-2.5A2.5,2.5 0 0,1 2.5,0Z" style="opacity: 1; stroke-width: 0px; fill: rgb(132, 73, 99); fill-opacity: 1;"/><path class="point" transform="translate(241.58,195.94)" d="M2.5,0A2.5,2.5 0 1,1 0,-2.5A2.5,2.5 0 0,1 2.5,0Z" style="opacity: 1; stroke-width: 0px; fill: rgb(132, 73, 99); fill-opacity: 1;"/><path class="point" transform="translate(243.81,189.05)" d="M2.5,0A2.5,2.5 0 1,1 0,-2.5A2.5,2.5 0 0,1 2.5,0Z" style="opacity: 1; stroke-width: 0px; fill: rgb(132, 73, 99); fill-opacity: 1;"/><path class="point" transform="translate(247.86,196.96)" d="M2.5,0A2.5,2.5 0 1,1 0,-2.5A2.5,2.5 0 0,1 2.5,0Z" style="opacity: 1; stroke-width: 0px; fill: rgb(132, 73, 99); fill-opacity: 1;"/><path class="point" transform="translate(252.12,194.08)" d="M2.5,0A2.5,2.5 0 1,1 0,-2.5A2.5,2.5 0 0,1 2.5,0Z" style="opacity: 1; stroke-width: 0px; fill: rgb(132, 73, 99); fill-opacity: 1;"/><path class="point" transform="translate(253.64,190.23)" d="M2.5,0A2.5,2.5 0 1,1 0,-2.5A2.5,2.5 0 0,1 2.5,0Z" style="opacity: 1; stroke-width: 0px; fill: rgb(132, 73, 99); fill-opacity: 1;"/><path class="point" transform="translate(255.36,193.07)" d="M2.5,0A2.5,2.5 0 1,1 0,-2.5A2.5,2.5 0 0,1 2.5,0Z" style="opacity: 1; stroke-width: 0px; fill: rgb(132, 73, 99); fill-opacity: 1;"/><path class="point" transform="translate(257.99,191.25)" d="M2.5,0A2.5,2.5 0 1,1 0,-2.5A2.5,2.5 0 0,1 2.5,0Z" style="opacity: 1; stroke-width: 0px; fill: rgb(132, 73, 99); fill-opacity: 1;"/><path class="point" transform="translate(262.45,194.7)" d="M2.5,0A2.5,2.5 0 1,1 0,-2.5A2.5,2.5 0 0,1 2.5,0Z" style="opacity: 1; stroke-width: 0px; fill: rgb(132, 73, 99); fill-opacity: 1;"/><path class="point" transform="translate(265.09,197.18)" d="M2.5,0A2.5,2.5 0 1,1 0,-2.5A2.5,2.5 0 0,1 2.5,0Z" style="opacity: 1; stroke-width: 0px; fill: rgb(132, 73, 99); fill-opacity: 1;"/><path class="point" transform="translate(267.22,191.36)" d="M2.5,0A2.5,2.5 0 1,1 0,-2.5A2.5,2.5 0 0,1 2.5,0Z" style="opacity: 1; stroke-width: 0px; fill: rgb(132, 73, 99); fill-opacity: 1;"/><path class="point" transform="translate(269.14,194.71)" d="M2.5,0A2.5,2.5 0 1,1 0,-2.5A2.5,2.5 0 0,1 2.5,0Z" style="opacity: 1; stroke-width: 0px; fill: rgb(132, 73, 99); fill-opacity: 1;"/><path class="point" transform="translate(271.07,189.6)" d="M2.5,0A2.5,2.5 0 1,1 0,-2.5A2.5,2.5 0 0,1 2.5,0Z" style="opacity: 1; stroke-width: 0px; fill: rgb(132, 73, 99); fill-opacity: 1;"/><path class="point" transform="translate(273.6,198.26)" d="M2.5,0A2.5,2.5 0 1,1 0,-2.5A2.5,2.5 0 0,1 2.5,0Z" style="opacity: 1; stroke-width: 0px; fill: rgb(132, 73, 99); fill-opacity: 1;"/><path class="point" transform="translate(276.64,196.18)" d="M2.5,0A2.5,2.5 0 1,1 0,-2.5A2.5,2.5 0 0,1 2.5,0Z" style="opacity: 1; stroke-width: 0px; fill: rgb(132, 73, 99); fill-opacity: 1;"/><path class="point" transform="translate(280.49,188.11)" d="M2.5,0A2.5,2.5 0 1,1 0,-2.5A2.5,2.5 0 0,1 2.5,0Z" style="opacity: 1; stroke-width: 0px; fill: rgb(132, 73, 99); fill-opacity: 1;"/><path class="point" transform="translate(282.52,193.65)" d="M2.5,0A2.5,2.5 0 1,1 0,-2.5A2.5,2.5 0 0,1 2.5,0Z" style="opacity: 1; stroke-width: 0px; fill: rgb(132, 73, 99); fill-opacity: 1;"/><path class="point" transform="translate(290.02,195.54)" d="M2.5,0A2.5,2.5 0 1,1 0,-2.5A2.5,2.5 0 0,1 2.5,0Z" style="opacity: 1; stroke-width: 0px; fill: rgb(132, 73, 99); fill-opacity: 1;"/><path class="point" transform="translate(290.12,193.89)" d="M2.5,0A2.5,2.5 0 1,1 0,-2.5A2.5,2.5 0 0,1 2.5,0Z" style="opacity: 1; stroke-width: 0px; fill: rgb(132, 73, 99); fill-opacity: 1;"/><path class="point" transform="translate(291.03,192.93)" d="M2.5,0A2.5,2.5 0 1,1 0,-2.5A2.5,2.5 0 0,1 2.5,0Z" style="opacity: 1; stroke-width: 0px; fill: rgb(132, 73, 99); fill-opacity: 1;"/><path class="point" transform="translate(296.6,191.57)" d="M2.5,0A2.5,2.5 0 1,1 0,-2.5A2.5,2.5 0 0,1 2.5,0Z" style="opacity: 1; stroke-width: 0px; fill: rgb(132, 73, 99); fill-opacity: 1;"/><path class="point" transform="translate(356.29,192.56)" d="M2.5,0A2.5,2.5 0 1,1 0,-2.5A2.5,2.5 0 0,1 2.5,0Z" style="opacity: 1; stroke-width: 0px; fill: rgb(132, 73, 99); fill-opacity: 1;"/><path class="point" transform="translate(358.72,193.63)" d="M2.5,0A2.5,2.5 0 1,1 0,-2.5A2.5,2.5 0 0,1 2.5,0Z" style="opacity: 1; stroke-width: 0px; fill: rgb(132, 73, 99); fill-opacity: 1;"/><path class="point" transform="translate(361.46,194.95)" d="M2.5,0A2.5,2.5 0 1,1 0,-2.5A2.5,2.5 0 0,1 2.5,0Z" style="opacity: 1; stroke-width: 0px; fill: rgb(132, 73, 99); fill-opacity: 1;"/><path class="point" transform="translate(371.79,192.87)" d="M2.5,0A2.5,2.5 0 1,1 0,-2.5A2.5,2.5 0 0,1 2.5,0Z" style="opacity: 1; stroke-width: 0px; fill: rgb(132, 73, 99); fill-opacity: 1;"/></g></g><g class="trace violins" style="opacity: 1;"><path class="violin" d="M191.9,169.33L191.9,168.99Q195.62,168.81 197.48,168.67C199.34,168.53 201.21,168.36 203.07,168.14C204.93,167.92 206.79,167.66 208.65,167.34C210.52,167.01 212.38,166.64 214.24,166.19C216.11,165.74 217.98,165.22 219.83,164.62C221.7,164.01 223.57,163.31 225.41,162.53C227.29,161.73 229.16,160.84 231,159.86C232.88,158.86 234.74,157.75 236.58,156.59C238.46,155.4 240.32,154.1 242.17,152.81C244.04,151.5 245.88,150.1 247.75,148.79C249.6,147.49 251.45,146.14 253.34,144.98C255.18,143.86 257.03,142.74 258.93,141.92C260.75,141.14 262.63,140.46 264.51,140.13C266.35,139.81 268.25,139.74 270.1,139.92C271.97,140.1 273.85,140.63 275.68,141.25C277.57,141.89 279.43,142.83 281.27,143.76C283.15,144.71 285,145.84 286.86,146.88C288.72,147.93 290.57,149.03 292.44,150.03C294.29,151.02 296.15,151.99 298.03,152.85C299.88,153.7 301.74,154.47 303.61,155.18C305.46,155.88 307.33,156.5 309.2,157.1C311.06,157.69 312.92,158.21 314.79,158.74C316.65,159.27 318.51,159.76 320.37,160.26C322.23,160.75 324.1,161.24 325.96,161.71C327.82,162.17 329.68,162.63 331.54,163.05C333.4,163.46 335.26,163.86 337.13,164.2C338.99,164.54 340.85,164.84 342.72,165.1C344.58,165.35 346.44,165.55 348.3,165.73C350.16,165.91 352.03,166.04 353.89,166.17C355.75,166.3 357.61,166.41 359.47,166.51C361.33,166.61 363.2,166.71 365.06,166.79C366.92,166.87 368.78,166.96 370.64,167C372.5,167.04 374.37,167.07 376.23,167.04C378.09,167.01 379.96,166.94 381.82,166.83C383.68,166.72 385.54,166.55 387.4,166.38C389.26,166.21 391.13,165.98 392.99,165.79C394.85,165.6 396.71,165.39 398.57,165.25C400.43,165.12 402.3,165.01 404.16,164.98C406.02,164.95 407.89,164.99 409.75,165.09C411.61,165.19 413.47,165.38 415.33,165.59C417.19,165.8 419.06,166.08 420.92,166.35C422.78,166.62 424.64,166.92 426.5,167.19C428.36,167.45 430.23,167.72 432.09,167.94C433.95,168.16 435.82,168.36 437.68,168.52Q439.54,168.68 443.26,168.9L443.26,169.33" style="vector-effect: non-scaling-stroke; stroke-width: 2px; stroke: rgb(149, 68, 87); stroke-opacity: 1; fill: rgb(149, 68, 87); fill-opacity: 0.5;"/><g class="points"><path class="point" transform="translate(225.97,161.85)" d="M2.5,0A2.5,2.5 0 1,1 0,-2.5A2.5,2.5 0 0,1 2.5,0Z" style="opacity: 1; stroke-width: 0px; fill: rgb(149, 68, 87); fill-opacity: 1;"/><path class="point" transform="translate(244.62,165.59)" d="M2.5,0A2.5,2.5 0 1,1 0,-2.5A2.5,2.5 0 0,1 2.5,0Z" style="opacity: 1; stroke-width: 0px; fill: rgb(149, 68, 87); fill-opacity: 1;"/><path class="point" transform="translate(246.04,160.72)" d="M2.5,0A2.5,2.5 0 1,1 0,-2.5A2.5,2.5 0 0,1 2.5,0Z" style="opacity: 1; stroke-width: 0px; fill: rgb(149, 68, 87); fill-opacity: 1;"/><path class="point" transform="translate(250.29,166.58)" d="M2.5,0A2.5,2.5 0 1,1 0,-2.5A2.5,2.5 0 0,1 2.5,0Z" style="opacity: 1; stroke-width: 0px; fill: rgb(149, 68, 87); fill-opacity: 1;"/><path class="point" transform="translate(253.54,164.39)" d="M2.5,0A2.5,2.5 0 1,1 0,-2.5A2.5,2.5 0 0,1 2.5,0Z" style="opacity: 1; stroke-width: 0px; fill: rgb(149, 68, 87); fill-opacity: 1;"/><path class="point" transform="translate(262.05,161.36)" d="M2.5,0A2.5,2.5 0 1,1 0,-2.5A2.5,2.5 0 0,1 2.5,0Z" style="opacity: 1; stroke-width: 0px; fill: rgb(149, 68, 87); fill-opacity: 1;"/><path class="point" transform="translate(262.45,163.64)" d="M2.5,0A2.5,2.5 0 1,1 0,-2.5A2.5,2.5 0 0,1 2.5,0Z" style="opacity: 1; stroke-width: 0px; fill: rgb(149, 68, 87); fill-opacity: 1;"/><path class="point" transform="translate(264.68,161.96)" d="M2.5,0A2.5,2.5 0 1,1 0,-2.5A2.5,2.5 0 0,1 2.5,0Z" style="opacity: 1; stroke-width: 0px; fill: rgb(149, 68, 87); fill-opacity: 1;"/><path class="point" transform="translate(266.2,165.18)" d="M2.5,0A2.5,2.5 0 1,1 0,-2.5A2.5,2.5 0 0,1 2.5,0Z" style="opacity: 1; stroke-width: 0px; fill: rgb(149, 68, 87); fill-opacity: 1;"/><path class="point" transform="translate(268.43,167.32)" d="M2.5,0A2.5,2.5 0 1,1 0,-2.5A2.5,2.5 0 0,1 2.5,0Z" style="opacity: 1; stroke-width: 0px; fill: rgb(149, 68, 87); fill-opacity: 1;"/><path class="point" transform="translate(269.34,161.88)" d="M2.5,0A2.5,2.5 0 1,1 0,-2.5A2.5,2.5 0 0,1 2.5,0Z" style="opacity: 1; stroke-width: 0px; fill: rgb(149, 68, 87); fill-opacity: 1;"/><path class="point" transform="translate(270.56,165.13)" d="M2.5,0A2.5,2.5 0 1,1 0,-2.5A2.5,2.5 0 0,1 2.5,0Z" style="opacity: 1; stroke-width: 0px; fill: rgb(149, 68, 87); fill-opacity: 1;"/><path class="point" transform="translate(271.98,160.44)" d="M2.5,0A2.5,2.5 0 1,1 0,-2.5A2.5,2.5 0 0,1 2.5,0Z" style="opacity: 1; stroke-width: 0px; fill: rgb(149, 68, 87); fill-opacity: 1;"/><path class="point" transform="translate(273.8,167.74)" d="M2.5,0A2.5,2.5 0 1,1 0,-2.5A2.5,2.5 0 0,1 2.5,0Z" style="opacity: 1; stroke-width: 0px; fill: rgb(149, 68, 87); fill-opacity: 1;"/><path class="point" transform="translate(278.26,165.81)" d="M2.5,0A2.5,2.5 0 1,1 0,-2.5A2.5,2.5 0 0,1 2.5,0Z" style="opacity: 1; stroke-width: 0px; fill: rgb(149, 68, 87); fill-opacity: 1;"/><path class="point" transform="translate(281.91,160.17)" d="M2.5,0A2.5,2.5 0 1,1 0,-2.5A2.5,2.5 0 0,1 2.5,0Z" style="opacity: 1; stroke-width: 0px; fill: rgb(149, 68, 87); fill-opacity: 1;"/><path class="point" transform="translate(288.8,164.33)" d="M2.5,0A2.5,2.5 0 1,1 0,-2.5A2.5,2.5 0 0,1 2.5,0Z" style="opacity: 1; stroke-width: 0px; fill: rgb(149, 68, 87); fill-opacity: 1;"/><path class="point" transform="translate(295.29,165.87)" d="M2.5,0A2.5,2.5 0 1,1 0,-2.5A2.5,2.5 0 0,1 2.5,0Z" style="opacity: 1; stroke-width: 0px; fill: rgb(149, 68, 87); fill-opacity: 1;"/><path class="point" transform="translate(301.67,164.21)" d="M2.5,0A2.5,2.5 0 1,1 0,-2.5A2.5,2.5 0 0,1 2.5,0Z" style="opacity: 1; stroke-width: 0px; fill: rgb(149, 68, 87); fill-opacity: 1;"/><path class="point" transform="translate(309.67,163.5)" d="M2.5,0A2.5,2.5 0 1,1 0,-2.5A2.5,2.5 0 0,1 2.5,0Z" style="opacity: 1; stroke-width: 0px; fill: rgb(149, 68, 87); fill-opacity: 1;"/><path class="point" transform="translate(319.4,162.46)" d="M2.5,0A2.5,2.5 0 1,1 0,-2.5A2.5,2.5 0 0,1 2.5,0Z" style="opacity: 1; stroke-width: 0px; fill: rgb(149, 68, 87); fill-opacity: 1;"/><path class="point" transform="translate(326.5,163.21)" d="M2.5,0A2.5,2.5 0 1,1 0,-2.5A2.5,2.5 0 0,1 2.5,0Z" style="opacity: 1; stroke-width: 0px; fill: rgb(149, 68, 87); fill-opacity: 1;"/><path class="point" transform="translate(358.31,164.03)" d="M2.5,0A2.5,2.5 0 1,1 0,-2.5A2.5,2.5 0 0,1 2.5,0Z" style="opacity: 1; stroke-width: 0px; fill: rgb(149, 68, 87); fill-opacity: 1;"/><path class="point" transform="translate(402.8,165.09)" d="M2.5,0A2.5,2.5 0 1,1 0,-2.5A2.5,2.5 0 0,1 2.5,0Z" style="opacity: 1; stroke-width: 0px; fill: rgb(149, 68, 87); fill-opacity: 1;"/><path class="point" transform="translate(409.18,163.46)" d="M2.5,0A2.5,2.5 0 1,1 0,-2.5A2.5,2.5 0 0,1 2.5,0Z" style="opacity: 1; stroke-width: 0px; fill: rgb(149, 68, 87); fill-opacity: 1;"/></g></g><g class="trace violins" style="opacity: 1;"><path class="violin" d="M205.63,139.92L205.63,138.42Q210.69,137.55 213.19,136.89C215.73,136.22 218.27,135.4 220.76,134.4C223.32,133.37 225.84,132.12 228.33,130.77C230.89,129.38 233.39,127.75 235.89,126.14C238.43,124.5 240.93,122.67 243.46,121C245.97,119.34 248.46,117.59 251.03,116.14C253.51,114.74 256.03,113.37 258.6,112.42C261.07,111.51 263.62,110.8 266.16,110.5C268.66,110.2 271.22,110.28 273.73,110.59C276.27,110.91 278.81,111.62 281.3,112.42C283.85,113.23 286.35,114.36 288.86,115.44C291.4,116.53 293.9,117.79 296.43,118.95C298.95,120.1 301.46,121.31 304,122.37C306.51,123.41 309.02,124.41 311.56,125.26C314.07,126.1 316.59,126.84 319.13,127.45C321.64,128.06 324.17,128.52 326.7,128.93C329.21,129.33 331.74,129.61 334.26,129.89C336.78,130.17 339.31,130.36 341.83,130.6C344.35,130.83 346.88,131.04 349.4,131.3C351.92,131.56 354.45,131.85 356.97,132.16C359.49,132.47 362.01,132.83 364.53,133.17C367.05,133.51 369.58,133.87 372.1,134.18C374.62,134.49 377.15,134.8 379.67,135.04C382.19,135.28 384.71,135.48 387.23,135.64C389.75,135.8 392.28,135.89 394.8,135.98C397.32,136.07 399.85,136.11 402.37,136.17C404.89,136.23 407.41,136.26 409.93,136.33C412.45,136.4 414.98,136.47 417.5,136.57C420.02,136.67 422.55,136.8 425.07,136.94C427.59,137.08 430.11,137.25 432.63,137.43C435.15,137.61 437.68,137.81 440.2,138C442.72,138.19 445.25,138.38 447.77,138.55C450.29,138.72 452.82,138.89 455.34,139.03C457.86,139.17 460.38,139.29 462.9,139.39Q465.42,139.49 470.47,139.64L470.47,139.92" style="vector-effect: non-scaling-stroke; stroke-width: 2px; stroke: rgb(165, 63, 75); stroke-opacity: 1; fill: rgb(165, 63, 75); fill-opacity: 0.5;"/><g class="points"><path class="point" transform="translate(251.51,130.98)" d="M2.5,0A2.5,2.5 0 1,1 0,-2.5A2.5,2.5 0 0,1 2.5,0Z" style="opacity: 1; stroke-width: 0px; fill: rgb(165, 63, 75); fill-opacity: 1;"/><path class="point" transform="translate(255.56,137.04)" d="M2.5,0A2.5,2.5 0 1,1 0,-2.5A2.5,2.5 0 0,1 2.5,0Z" style="opacity: 1; stroke-width: 0px; fill: rgb(165, 63, 75); fill-opacity: 1;"/><path class="point" transform="translate(255.97,130.35)" d="M2.5,0A2.5,2.5 0 1,1 0,-2.5A2.5,2.5 0 0,1 2.5,0Z" style="opacity: 1; stroke-width: 0px; fill: rgb(165, 63, 75); fill-opacity: 1;"/><path class="point" transform="translate(256.17,138.09)" d="M2.5,0A2.5,2.5 0 1,1 0,-2.5A2.5,2.5 0 0,1 2.5,0Z" style="opacity: 1; stroke-width: 0px; fill: rgb(165, 63, 75); fill-opacity: 1;"/><path class="point" transform="translate(256.78,135.09)" d="M2.5,0A2.5,2.5 0 1,1 0,-2.5A2.5,2.5 0 0,1 2.5,0Z" style="opacity: 1; stroke-width: 0px; fill: rgb(165, 63, 75); fill-opacity: 1;"/><path class="point" transform="translate(256.98,131.84)" d="M2.5,0A2.5,2.5 0 1,1 0,-2.5A2.5,2.5 0 0,1 2.5,0Z" style="opacity: 1; stroke-width: 0px; fill: rgb(165, 63, 75); fill-opacity: 1;"/><path class="point" transform="translate(261.74,134.2)" d="M2.5,0A2.5,2.5 0 1,1 0,-2.5A2.5,2.5 0 0,1 2.5,0Z" style="opacity: 1; stroke-width: 0px; fill: rgb(165, 63, 75); fill-opacity: 1;"/><path class="point" transform="translate(263.26,132.84)" d="M2.5,0A2.5,2.5 0 1,1 0,-2.5A2.5,2.5 0 0,1 2.5,0Z" style="opacity: 1; stroke-width: 0px; fill: rgb(165, 63, 75); fill-opacity: 1;"/><path class="point" transform="translate(264.68,135.23)" d="M2.5,0A2.5,2.5 0 1,1 0,-2.5A2.5,2.5 0 0,1 2.5,0Z" style="opacity: 1; stroke-width: 0px; fill: rgb(165, 63, 75); fill-opacity: 1;"/><path class="point" transform="translate(269.95,136.58)" d="M2.5,0A2.5,2.5 0 1,1 0,-2.5A2.5,2.5 0 0,1 2.5,0Z" style="opacity: 1; stroke-width: 0px; fill: rgb(165, 63, 75); fill-opacity: 1;"/><path class="point" transform="translate(273.19,133.12)" d="M2.5,0A2.5,2.5 0 1,1 0,-2.5A2.5,2.5 0 0,1 2.5,0Z" style="opacity: 1; stroke-width: 0px; fill: rgb(165, 63, 75); fill-opacity: 1;"/><path class="point" transform="translate(273.4,135.16)" d="M2.5,0A2.5,2.5 0 1,1 0,-2.5A2.5,2.5 0 0,1 2.5,0Z" style="opacity: 1; stroke-width: 0px; fill: rgb(165, 63, 75); fill-opacity: 1;"/><path class="point" transform="translate(278.26,132.19)" d="M2.5,0A2.5,2.5 0 1,1 0,-2.5A2.5,2.5 0 0,1 2.5,0Z" style="opacity: 1; stroke-width: 0px; fill: rgb(165, 63, 75); fill-opacity: 1;"/><path class="point" transform="translate(283.13,136.81)" d="M2.5,0A2.5,2.5 0 1,1 0,-2.5A2.5,2.5 0 0,1 2.5,0Z" style="opacity: 1; stroke-width: 0px; fill: rgb(165, 63, 75); fill-opacity: 1;"/><path class="point" transform="translate(288.19,135.47)" d="M2.5,0A2.5,2.5 0 1,1 0,-2.5A2.5,2.5 0 0,1 2.5,0Z" style="opacity: 1; stroke-width: 0px; fill: rgb(165, 63, 75); fill-opacity: 1;"/><path class="point" transform="translate(289.31,132.02)" d="M2.5,0A2.5,2.5 0 1,1 0,-2.5A2.5,2.5 0 0,1 2.5,0Z" style="opacity: 1; stroke-width: 0px; fill: rgb(165, 63, 75); fill-opacity: 1;"/><path class="point" transform="translate(293.87,134.58)" d="M2.5,0A2.5,2.5 0 1,1 0,-2.5A2.5,2.5 0 0,1 2.5,0Z" style="opacity: 1; stroke-width: 0px; fill: rgb(165, 63, 75); fill-opacity: 1;"/><path class="point" transform="translate(308.15,135.93)" d="M2.5,0A2.5,2.5 0 1,1 0,-2.5A2.5,2.5 0 0,1 2.5,0Z" style="opacity: 1; stroke-width: 0px; fill: rgb(165, 63, 75); fill-opacity: 1;"/><path class="point" transform="translate(311.19,134.63)" d="M2.5,0A2.5,2.5 0 1,1 0,-2.5A2.5,2.5 0 0,1 2.5,0Z" style="opacity: 1; stroke-width: 0px; fill: rgb(165, 63, 75); fill-opacity: 1;"/><path class="point" transform="translate(331.16,134.07)" d="M2.5,0A2.5,2.5 0 1,1 0,-2.5A2.5,2.5 0 0,1 2.5,0Z" style="opacity: 1; stroke-width: 0px; fill: rgb(165, 63, 75); fill-opacity: 1;"/><path class="point" transform="translate(346.05,133.32)" d="M2.5,0A2.5,2.5 0 1,1 0,-2.5A2.5,2.5 0 0,1 2.5,0Z" style="opacity: 1; stroke-width: 0px; fill: rgb(165, 63, 75); fill-opacity: 1;"/><path class="point" transform="translate(353.96,133.86)" d="M2.5,0A2.5,2.5 0 1,1 0,-2.5A2.5,2.5 0 0,1 2.5,0Z" style="opacity: 1; stroke-width: 0px; fill: rgb(165, 63, 75); fill-opacity: 1;"/><path class="point" transform="translate(356.09,134.46)" d="M2.5,0A2.5,2.5 0 1,1 0,-2.5A2.5,2.5 0 0,1 2.5,0Z" style="opacity: 1; stroke-width: 0px; fill: rgb(165, 63, 75); fill-opacity: 1;"/><path class="point" transform="translate(397.63,135.22)" d="M2.5,0A2.5,2.5 0 1,1 0,-2.5A2.5,2.5 0 0,1 2.5,0Z" style="opacity: 1; stroke-width: 0px; fill: rgb(165, 63, 75); fill-opacity: 1;"/><path class="point" transform="translate(424.59,134.04)" d="M2.5,0A2.5,2.5 0 1,1 0,-2.5A2.5,2.5 0 0,1 2.5,0Z" style="opacity: 1; stroke-width: 0px; fill: rgb(165, 63, 75); fill-opacity: 1;"/></g></g><g class="trace violins" style="opacity: 1;"><path class="violin" d="M176.27,110.5L176.27,109.86Q181.18,109.52 183.63,109.27C186.09,109.02 188.54,108.72 190.99,108.35C193.45,107.98 195.9,107.55 198.35,107.06C200.81,106.57 203.26,106.02 205.71,105.43C208.17,104.84 210.61,104.19 213.06,103.52C215.52,102.85 217.97,102.14 220.42,101.4C222.88,100.66 225.33,99.89 227.78,99.08C230.24,98.26 232.69,97.41 235.14,96.5C237.6,95.59 240.05,94.62 242.5,93.62C244.96,92.62 247.41,91.55 249.86,90.5C252.31,89.45 254.76,88.34 257.22,87.34C259.66,86.34 262.11,85.34 264.58,84.5C267.01,83.67 269.46,82.9 271.93,82.34C274.37,81.79 276.83,81.36 279.29,81.15C281.74,80.94 284.2,80.92 286.65,81.08C289.11,81.24 291.57,81.63 294.01,82.13C296.48,82.64 298.93,83.36 301.37,84.14C303.84,84.93 306.29,85.89 308.73,86.86C311.19,87.84 313.64,88.92 316.09,89.98C318.55,91.04 320.99,92.15 323.45,93.2C325.9,94.24 328.34,95.28 330.8,96.25C333.24,97.21 335.7,98.15 338.16,99C340.6,99.85 343.06,100.63 345.52,101.36C347.96,102.08 350.42,102.73 352.88,103.34C355.33,103.94 357.78,104.49 360.24,104.99C362.69,105.49 365.14,105.94 367.6,106.36C370.05,106.78 372.5,107.16 374.96,107.5C377.41,107.84 379.86,108.15 382.32,108.41C384.77,108.67 387.23,108.9 389.68,109.07C392.13,109.24 394.58,109.38 397.03,109.45C399.48,109.52 401.94,109.54 404.39,109.51C406.84,109.48 409.3,109.38 411.75,109.24C414.2,109.1 416.66,108.89 419.11,108.66C421.57,108.43 424.02,108.13 426.47,107.84C428.92,107.55 431.38,107.21 433.83,106.92C436.28,106.63 438.73,106.34 441.19,106.12C443.64,105.9 446.1,105.71 448.55,105.61C451,105.51 453.45,105.48 455.9,105.5C458.35,105.52 460.81,105.62 463.26,105.73C465.71,105.84 468.17,106 470.62,106.15C473.07,106.3 475.53,106.47 477.98,106.61C480.43,106.75 482.89,106.87 485.34,106.99C487.79,107.11 490.25,107.2 492.7,107.31C495.15,107.42 497.61,107.51 500.06,107.63C502.51,107.75 504.97,107.88 507.42,108.03C509.87,108.18 512.32,108.34 514.77,108.51C517.22,108.68 519.68,108.86 522.13,109.03C524.58,109.2 527.04,109.36 529.49,109.51C531.94,109.65 534.4,109.79 536.85,109.9Q539.3,110.01 544.21,110.17L544.21,110.5" style="vector-effect: non-scaling-stroke; stroke-width: 2px; stroke: rgb(182, 58, 63); stroke-opacity: 1; fill: rgb(182, 58, 63); fill-opacity: 0.5;"/><g class="points"><path class="point" transform="translate(221.11,102.72)" d="M2.5,0A2.5,2.5 0 1,1 0,-2.5A2.5,2.5 0 0,1 2.5,0Z" style="opacity: 1; stroke-width: 0px; fill: rgb(182, 58, 63); fill-opacity: 1;"/><path class="point" transform="translate(223.95,107.1)" d="M2.5,0A2.5,2.5 0 1,1 0,-2.5A2.5,2.5 0 0,1 2.5,0Z" style="opacity: 1; stroke-width: 0px; fill: rgb(182, 58, 63); fill-opacity: 1;"/><path class="point" transform="translate(238.13,101.38)" d="M2.5,0A2.5,2.5 0 1,1 0,-2.5A2.5,2.5 0 0,1 2.5,0Z" style="opacity: 1; stroke-width: 0px; fill: rgb(182, 58, 63); fill-opacity: 1;"/><path class="point" transform="translate(253.54,108.36)" d="M2.5,0A2.5,2.5 0 1,1 0,-2.5A2.5,2.5 0 0,1 2.5,0Z" style="opacity: 1; stroke-width: 0px; fill: rgb(182, 58, 63); fill-opacity: 1;"/><path class="point" transform="translate(261.85,105.71)" d="M2.5,0A2.5,2.5 0 1,1 0,-2.5A2.5,2.5 0 0,1 2.5,0Z" style="opacity: 1; stroke-width: 0px; fill: rgb(182, 58, 63); fill-opacity: 1;"/><path class="point" transform="translate(264.78,102.4)" d="M2.5,0A2.5,2.5 0 1,1 0,-2.5A2.5,2.5 0 0,1 2.5,0Z" style="opacity: 1; stroke-width: 0px; fill: rgb(182, 58, 63); fill-opacity: 1;"/><path class="point" transform="translate(267.11,104.78)" d="M2.5,0A2.5,2.5 0 1,1 0,-2.5A2.5,2.5 0 0,1 2.5,0Z" style="opacity: 1; stroke-width: 0px; fill: rgb(182, 58, 63); fill-opacity: 1;"/><path class="point" transform="translate(268.03,103.25)" d="M2.5,0A2.5,2.5 0 1,1 0,-2.5A2.5,2.5 0 0,1 2.5,0Z" style="opacity: 1; stroke-width: 0px; fill: rgb(182, 58, 63); fill-opacity: 1;"/><path class="point" transform="translate(268.74,106.33)" d="M2.5,0A2.5,2.5 0 1,1 0,-2.5A2.5,2.5 0 0,1 2.5,0Z" style="opacity: 1; stroke-width: 0px; fill: rgb(182, 58, 63); fill-opacity: 1;"/><path class="point" transform="translate(274.61,108.93)" d="M2.5,0A2.5,2.5 0 1,1 0,-2.5A2.5,2.5 0 0,1 2.5,0Z" style="opacity: 1; stroke-width: 0px; fill: rgb(182, 58, 63); fill-opacity: 1;"/><path class="point" transform="translate(286.57,103.05)" d="M2.5,0A2.5,2.5 0 1,1 0,-2.5A2.5,2.5 0 0,1 2.5,0Z" style="opacity: 1; stroke-width: 0px; fill: rgb(182, 58, 63); fill-opacity: 1;"/><path class="point" transform="translate(287.79,106.44)" d="M2.5,0A2.5,2.5 0 1,1 0,-2.5A2.5,2.5 0 0,1 2.5,0Z" style="opacity: 1; stroke-width: 0px; fill: rgb(182, 58, 63); fill-opacity: 1;"/><path class="point" transform="translate(290.42,101.3)" d="M2.5,0A2.5,2.5 0 1,1 0,-2.5A2.5,2.5 0 0,1 2.5,0Z" style="opacity: 1; stroke-width: 0px; fill: rgb(182, 58, 63); fill-opacity: 1;"/><path class="point" transform="translate(293.97,109.34)" d="M2.5,0A2.5,2.5 0 1,1 0,-2.5A2.5,2.5 0 0,1 2.5,0Z" style="opacity: 1; stroke-width: 0px; fill: rgb(182, 58, 63); fill-opacity: 1;"/><path class="point" transform="translate(295.49,107.3)" d="M2.5,0A2.5,2.5 0 1,1 0,-2.5A2.5,2.5 0 0,1 2.5,0Z" style="opacity: 1; stroke-width: 0px; fill: rgb(182, 58, 63); fill-opacity: 1;"/><path class="point" transform="translate(298.73,100.31)" d="M2.5,0A2.5,2.5 0 1,1 0,-2.5A2.5,2.5 0 0,1 2.5,0Z" style="opacity: 1; stroke-width: 0px; fill: rgb(182, 58, 63); fill-opacity: 1;"/><path class="point" transform="translate(305.11,105.61)" d="M2.5,0A2.5,2.5 0 1,1 0,-2.5A2.5,2.5 0 0,1 2.5,0Z" style="opacity: 1; stroke-width: 0px; fill: rgb(182, 58, 63); fill-opacity: 1;"/><path class="point" transform="translate(310.49,106.95)" d="M2.5,0A2.5,2.5 0 1,1 0,-2.5A2.5,2.5 0 0,1 2.5,0Z" style="opacity: 1; stroke-width: 0px; fill: rgb(182, 58, 63); fill-opacity: 1;"/><path class="point" transform="translate(318.29,105.51)" d="M2.5,0A2.5,2.5 0 1,1 0,-2.5A2.5,2.5 0 0,1 2.5,0Z" style="opacity: 1; stroke-width: 0px; fill: rgb(182, 58, 63); fill-opacity: 1;"/><path class="point" transform="translate(328.73,104.67)" d="M2.5,0A2.5,2.5 0 1,1 0,-2.5A2.5,2.5 0 0,1 2.5,0Z" style="opacity: 1; stroke-width: 0px; fill: rgb(182, 58, 63); fill-opacity: 1;"/><path class="point" transform="translate(335.62,103.59)" d="M2.5,0A2.5,2.5 0 1,1 0,-2.5A2.5,2.5 0 0,1 2.5,0Z" style="opacity: 1; stroke-width: 0px; fill: rgb(182, 58, 63); fill-opacity: 1;"/><path class="point" transform="translate(361.56,104.37)" d="M2.5,0A2.5,2.5 0 1,1 0,-2.5A2.5,2.5 0 0,1 2.5,0Z" style="opacity: 1; stroke-width: 0px; fill: rgb(182, 58, 63); fill-opacity: 1;"/><path class="point" transform="translate(447.49,105.2)" d="M2.5,0A2.5,2.5 0 1,1 0,-2.5A2.5,2.5 0 0,1 2.5,0Z" style="opacity: 1; stroke-width: 0px; fill: rgb(182, 58, 63); fill-opacity: 1;"/><path class="point" transform="translate(454.99,106.26)" d="M2.5,0A2.5,2.5 0 1,1 0,-2.5A2.5,2.5 0 0,1 2.5,0Z" style="opacity: 1; stroke-width: 0px; fill: rgb(182, 58, 63); fill-opacity: 1;"/><path class="point" transform="translate(499.37,104.62)" d="M2.5,0A2.5,2.5 0 1,1 0,-2.5A2.5,2.5 0 0,1 2.5,0Z" style="opacity: 1; stroke-width: 0px; fill: rgb(182, 58, 63); fill-opacity: 1;"/></g></g><g class="trace violins" style="opacity: 1;"><path class="violin" d="M151.41,81.08L151.41,80.76Q158.84,80.59 162.56,80.45C166.28,80.31 169.99,80.15 173.71,79.93C177.43,79.71 181.15,79.45 184.86,79.12C188.58,78.78 192.3,78.41 196.01,77.92C199.73,77.43 203.45,76.87 207.16,76.18C210.89,75.49 214.62,74.7 218.32,73.77C222.05,72.83 225.77,71.75 229.47,70.57C233.2,69.38 236.92,68.03 240.62,66.65C244.35,65.27 248.05,63.73 251.77,62.29C255.48,60.85 259.18,59.32 262.92,58.01C266.62,56.72 270.33,55.45 274.07,54.49C277.76,53.55 281.49,52.76 285.22,52.29C288.92,51.82 292.65,51.64 296.37,51.67C300.09,51.7 303.81,52.05 307.52,52.48C311.25,52.92 314.97,53.6 318.68,54.28C322.4,54.96 326.12,55.78 329.83,56.55C333.55,57.33 337.26,58.14 340.98,58.93C344.7,59.72 348.41,60.5 352.13,61.3C355.85,62.1 359.56,62.9 363.28,63.72C367,64.54 370.71,65.39 374.43,66.22C378.15,67.06 381.86,67.92 385.58,68.73C389.29,69.54 393.01,70.36 396.73,71.08C400.44,71.8 404.16,72.48 407.88,73.06C411.59,73.64 415.32,74.13 419.04,74.54C422.75,74.95 426.47,75.26 430.19,75.53C433.9,75.79 437.62,75.97 441.34,76.13C445.06,76.29 448.77,76.38 452.49,76.48C456.21,76.58 459.92,76.63 463.64,76.71C467.36,76.78 471.07,76.85 474.79,76.93C478.51,77.01 482.22,77.09 485.94,77.19C489.66,77.29 493.37,77.41 497.09,77.54C500.81,77.67 504.52,77.82 508.24,77.98C511.96,78.14 515.68,78.33 519.4,78.52C523.12,78.71 526.83,78.92 530.55,79.11C534.27,79.3 537.98,79.49 541.7,79.67C545.42,79.84 549.13,80.01 552.85,80.16C556.57,80.3 560.28,80.43 564,80.54Q567.72,80.64 575.15,80.79L575.15,81.08" style="vector-effect: non-scaling-stroke; stroke-width: 2px; stroke: rgb(198, 53, 51); stroke-opacity: 1; fill: rgb(198, 53, 51); fill-opacity: 0.5;"/><g class="points"><path class="point" transform="translate(219.69,73.6)" d="M2.5,0A2.5,2.5 0 1,1 0,-2.5A2.5,2.5 0 0,1 2.5,0Z" style="opacity: 1; stroke-width: 0px; fill: rgb(198, 53, 51); fill-opacity: 1;"/><path class="point" transform="translate(257.99,77.32)" d="M2.5,0A2.5,2.5 0 1,1 0,-2.5A2.5,2.5 0 0,1 2.5,0Z" style="opacity: 1; stroke-width: 0px; fill: rgb(198, 53, 51); fill-opacity: 1;"/><path class="point" transform="translate(263.67,72.59)" d="M2.5,0A2.5,2.5 0 1,1 0,-2.5A2.5,2.5 0 0,1 2.5,0Z" style="opacity: 1; stroke-width: 0px; fill: rgb(198, 53, 51); fill-opacity: 1;"/><path class="point" transform="translate(265.49,78.23)" d="M2.5,0A2.5,2.5 0 1,1 0,-2.5A2.5,2.5 0 0,1 2.5,0Z" style="opacity: 1; stroke-width: 0px; fill: rgb(198, 53, 51); fill-opacity: 1;"/><path class="point" transform="translate(276.84,76.11)" d="M2.5,0A2.5,2.5 0 1,1 0,-2.5A2.5,2.5 0 0,1 2.5,0Z" style="opacity: 1; stroke-width: 0px; fill: rgb(198, 53, 51); fill-opacity: 1;"/><path class="point" transform="translate(280.09,73.16)" d="M2.5,0A2.5,2.5 0 1,1 0,-2.5A2.5,2.5 0 0,1 2.5,0Z" style="opacity: 1; stroke-width: 0px; fill: rgb(198, 53, 51); fill-opacity: 1;"/><path class="point" transform="translate(281.91,75.41)" d="M2.5,0A2.5,2.5 0 1,1 0,-2.5A2.5,2.5 0 0,1 2.5,0Z" style="opacity: 1; stroke-width: 0px; fill: rgb(198, 53, 51); fill-opacity: 1;"/><path class="point" transform="translate(290.22,73.49)" d="M2.5,0A2.5,2.5 0 1,1 0,-2.5A2.5,2.5 0 0,1 2.5,0Z" style="opacity: 1; stroke-width: 0px; fill: rgb(198, 53, 51); fill-opacity: 1;"/><path class="point" transform="translate(290.93,76.78)" d="M2.5,0A2.5,2.5 0 1,1 0,-2.5A2.5,2.5 0 0,1 2.5,0Z" style="opacity: 1; stroke-width: 0px; fill: rgb(198, 53, 51); fill-opacity: 1;"/><path class="point" transform="translate(294.68,79.06)" d="M2.5,0A2.5,2.5 0 1,1 0,-2.5A2.5,2.5 0 0,1 2.5,0Z" style="opacity: 1; stroke-width: 0px; fill: rgb(198, 53, 51); fill-opacity: 1;"/><path class="point" transform="translate(295.49,74.01)" d="M2.5,0A2.5,2.5 0 1,1 0,-2.5A2.5,2.5 0 0,1 2.5,0Z" style="opacity: 1; stroke-width: 0px; fill: rgb(198, 53, 51); fill-opacity: 1;"/><path class="point" transform="translate(295.69,76.67)" d="M2.5,0A2.5,2.5 0 1,1 0,-2.5A2.5,2.5 0 0,1 2.5,0Z" style="opacity: 1; stroke-width: 0px; fill: rgb(198, 53, 51); fill-opacity: 1;"/><path class="point" transform="translate(296.7,72.32)" d="M2.5,0A2.5,2.5 0 1,1 0,-2.5A2.5,2.5 0 0,1 2.5,0Z" style="opacity: 1; stroke-width: 0px; fill: rgb(198, 53, 51); fill-opacity: 1;"/><path class="point" transform="translate(312.21,79.1)" d="M2.5,0A2.5,2.5 0 1,1 0,-2.5A2.5,2.5 0 0,1 2.5,0Z" style="opacity: 1; stroke-width: 0px; fill: rgb(198, 53, 51); fill-opacity: 1;"/><path class="point" transform="translate(317.98,77.45)" d="M2.5,0A2.5,2.5 0 1,1 0,-2.5A2.5,2.5 0 0,1 2.5,0Z" style="opacity: 1; stroke-width: 0px; fill: rgb(198, 53, 51); fill-opacity: 1;"/><path class="point" transform="translate(338.05,71.75)" d="M2.5,0A2.5,2.5 0 1,1 0,-2.5A2.5,2.5 0 0,1 2.5,0Z" style="opacity: 1; stroke-width: 0px; fill: rgb(198, 53, 51); fill-opacity: 1;"/><path class="point" transform="translate(339.26,76.16)" d="M2.5,0A2.5,2.5 0 1,1 0,-2.5A2.5,2.5 0 0,1 2.5,0Z" style="opacity: 1; stroke-width: 0px; fill: rgb(198, 53, 51); fill-opacity: 1;"/><path class="point" transform="translate(345.75,77.76)" d="M2.5,0A2.5,2.5 0 1,1 0,-2.5A2.5,2.5 0 0,1 2.5,0Z" style="opacity: 1; stroke-width: 0px; fill: rgb(198, 53, 51); fill-opacity: 1;"/><path class="point" transform="translate(362.17,76.11)" d="M2.5,0A2.5,2.5 0 1,1 0,-2.5A2.5,2.5 0 0,1 2.5,0Z" style="opacity: 1; stroke-width: 0px; fill: rgb(198, 53, 51); fill-opacity: 1;"/><path class="point" transform="translate(370.47,75.25)" d="M2.5,0A2.5,2.5 0 1,1 0,-2.5A2.5,2.5 0 0,1 2.5,0Z" style="opacity: 1; stroke-width: 0px; fill: rgb(198, 53, 51); fill-opacity: 1;"/><path class="point" transform="translate(370.47,74.09)" d="M2.5,0A2.5,2.5 0 1,1 0,-2.5A2.5,2.5 0 0,1 2.5,0Z" style="opacity: 1; stroke-width: 0px; fill: rgb(198, 53, 51); fill-opacity: 1;"/><path class="point" transform="translate(373.92,74.94)" d="M2.5,0A2.5,2.5 0 1,1 0,-2.5A2.5,2.5 0 0,1 2.5,0Z" style="opacity: 1; stroke-width: 0px; fill: rgb(198, 53, 51); fill-opacity: 1;"/><path class="point" transform="translate(424.99,75.83)" d="M2.5,0A2.5,2.5 0 1,1 0,-2.5A2.5,2.5 0 0,1 2.5,0Z" style="opacity: 1; stroke-width: 0px; fill: rgb(198, 53, 51); fill-opacity: 1;"/><path class="point" transform="translate(463.19,77.02)" d="M2.5,0A2.5,2.5 0 1,1 0,-2.5A2.5,2.5 0 0,1 2.5,0Z" style="opacity: 1; stroke-width: 0px; fill: rgb(198, 53, 51); fill-opacity: 1;"/><path class="point" transform="translate(506.87,75.21)" d="M2.5,0A2.5,2.5 0 1,1 0,-2.5A2.5,2.5 0 0,1 2.5,0Z" style="opacity: 1; stroke-width: 0px; fill: rgb(198, 53, 51); fill-opacity: 1;"/></g></g><g class="trace violins" style="opacity: 1;"><path class="violin" d="M174.02,51.67L174.02,50.18Q183.22,49.33 187.81,48.67C192.42,48.01 197.03,47.2 201.61,46.2C206.23,45.19 210.83,43.98 215.41,42.63C220.03,41.27 224.62,39.67 229.2,38.08C233.81,36.48 238.39,34.67 243,33.03C247.59,31.4 252.18,29.67 256.8,28.26C261.37,26.86 265.97,25.54 270.59,24.59C275.16,23.65 279.78,22.96 284.39,22.57C288.98,22.18 293.59,22.14 298.18,22.25C302.78,22.36 307.39,22.79 311.98,23.22C316.59,23.66 321.18,24.29 325.78,24.86C330.38,25.43 334.97,26.05 339.57,26.63C344.17,27.2 348.77,27.74 353.37,28.31C357.97,28.88 362.57,29.41 367.17,30.03C371.77,30.65 376.37,31.3 380.96,32.05C385.57,32.8 390.17,33.65 394.76,34.55C399.36,35.45 403.95,36.47 408.55,37.46C413.15,38.45 417.75,39.52 422.35,40.49C426.95,41.45 431.54,42.42 436.15,43.25C440.74,44.08 445.34,44.84 449.94,45.48C454.53,46.12 459.14,46.63 463.74,47.08C468.33,47.53 472.93,47.87 477.53,48.18C482.13,48.49 486.73,48.71 491.33,48.93C495.93,49.15 500.53,49.32 505.13,49.48C509.73,49.63 514.32,49.76 518.92,49.86C523.52,49.96 528.12,50.04 532.72,50.08C537.32,50.12 541.92,50.13 546.52,50.11C551.12,50.09 555.71,50.03 560.31,49.98C564.91,49.92 569.51,49.84 574.11,49.78C578.71,49.72 583.3,49.64 587.9,49.61C592.5,49.58 597.1,49.56 601.7,49.58C606.3,49.6 610.9,49.66 615.5,49.74C620.1,49.82 624.69,49.93 629.29,50.05C633.89,50.17 638.49,50.32 643.09,50.45C647.69,50.58 652.29,50.72 656.89,50.84C661.49,50.96 666.08,51.07 670.68,51.16Q675.28,51.25 684.48,51.39L684.48,51.67" style="vector-effect: non-scaling-stroke; stroke-width: 2px; stroke: rgb(215, 48, 39); stroke-opacity: 1; fill: rgb(215, 48, 39); fill-opacity: 0.5;"/><g class="points"><path class="point" transform="translate(258.81,43.09)" d="M2.5,0A2.5,2.5 0 1,1 0,-2.5A2.5,2.5 0 0,1 2.5,0Z" style="opacity: 1; stroke-width: 0px; fill: rgb(215, 48, 39); fill-opacity: 1;"/><path class="point" transform="translate(264.89,49.15)" d="M2.5,0A2.5,2.5 0 1,1 0,-2.5A2.5,2.5 0 0,1 2.5,0Z" style="opacity: 1; stroke-width: 0px; fill: rgb(215, 48, 39); fill-opacity: 1;"/><path class="point" transform="translate(268.03,41.41)" d="M2.5,0A2.5,2.5 0 1,1 0,-2.5A2.5,2.5 0 0,1 2.5,0Z" style="opacity: 1; stroke-width: 0px; fill: rgb(215, 48, 39); fill-opacity: 1;"/><path class="point" transform="translate(269.55,50.76)" d="M2.5,0A2.5,2.5 0 1,1 0,-2.5A2.5,2.5 0 0,1 2.5,0Z" style="opacity: 1; stroke-width: 0px; fill: rgb(215, 48, 39); fill-opacity: 1;"/><path class="point" transform="translate(270.76,47.19)" d="M2.5,0A2.5,2.5 0 1,1 0,-2.5A2.5,2.5 0 0,1 2.5,0Z" style="opacity: 1; stroke-width: 0px; fill: rgb(215, 48, 39); fill-opacity: 1;"/><path class="point" transform="translate(276.44,43.01)" d="M2.5,0A2.5,2.5 0 1,1 0,-2.5A2.5,2.5 0 0,1 2.5,0Z" style="opacity: 1; stroke-width: 0px; fill: rgb(215, 48, 39); fill-opacity: 1;"/><path class="point" transform="translate(279.27,45.95)" d="M2.5,0A2.5,2.5 0 1,1 0,-2.5A2.5,2.5 0 0,1 2.5,0Z" style="opacity: 1; stroke-width: 0px; fill: rgb(215, 48, 39); fill-opacity: 1;"/><path class="point" transform="translate(279.78,44.45)" d="M2.5,0A2.5,2.5 0 1,1 0,-2.5A2.5,2.5 0 0,1 2.5,0Z" style="opacity: 1; stroke-width: 0px; fill: rgb(215, 48, 39); fill-opacity: 1;"/><path class="point" transform="translate(280.79,47.09)" d="M2.5,0A2.5,2.5 0 1,1 0,-2.5A2.5,2.5 0 0,1 2.5,0Z" style="opacity: 1; stroke-width: 0px; fill: rgb(215, 48, 39); fill-opacity: 1;"/><path class="point" transform="translate(285.15,48.81)" d="M2.5,0A2.5,2.5 0 1,1 0,-2.5A2.5,2.5 0 0,1 2.5,0Z" style="opacity: 1; stroke-width: 0px; fill: rgb(215, 48, 39); fill-opacity: 1;"/><path class="point" transform="translate(292.85,44.86)" d="M2.5,0A2.5,2.5 0 1,1 0,-2.5A2.5,2.5 0 0,1 2.5,0Z" style="opacity: 1; stroke-width: 0px; fill: rgb(215, 48, 39); fill-opacity: 1;"/><path class="point" transform="translate(310.89,46.93)" d="M2.5,0A2.5,2.5 0 1,1 0,-2.5A2.5,2.5 0 0,1 2.5,0Z" style="opacity: 1; stroke-width: 0px; fill: rgb(215, 48, 39); fill-opacity: 1;"/><path class="point" transform="translate(313.12,43.76)" d="M2.5,0A2.5,2.5 0 1,1 0,-2.5A2.5,2.5 0 0,1 2.5,0Z" style="opacity: 1; stroke-width: 0px; fill: rgb(215, 48, 39); fill-opacity: 1;"/><path class="point" transform="translate(326.29,48.8)" d="M2.5,0A2.5,2.5 0 1,1 0,-2.5A2.5,2.5 0 0,1 2.5,0Z" style="opacity: 1; stroke-width: 0px; fill: rgb(215, 48, 39); fill-opacity: 1;"/><path class="point" transform="translate(326.6,47.56)" d="M2.5,0A2.5,2.5 0 1,1 0,-2.5A2.5,2.5 0 0,1 2.5,0Z" style="opacity: 1; stroke-width: 0px; fill: rgb(215, 48, 39); fill-opacity: 1;"/><path class="point" transform="translate(355.68,43.02)" d="M2.5,0A2.5,2.5 0 1,1 0,-2.5A2.5,2.5 0 0,1 2.5,0Z" style="opacity: 1; stroke-width: 0px; fill: rgb(215, 48, 39); fill-opacity: 1;"/><path class="point" transform="translate(357.5,46.64)" d="M2.5,0A2.5,2.5 0 1,1 0,-2.5A2.5,2.5 0 0,1 2.5,0Z" style="opacity: 1; stroke-width: 0px; fill: rgb(215, 48, 39); fill-opacity: 1;"/><path class="point" transform="translate(373.11,48.65)" d="M2.5,0A2.5,2.5 0 1,1 0,-2.5A2.5,2.5 0 0,1 2.5,0Z" style="opacity: 1; stroke-width: 0px; fill: rgb(215, 48, 39); fill-opacity: 1;"/><path class="point" transform="translate(380,46.61)" d="M2.5,0A2.5,2.5 0 1,1 0,-2.5A2.5,2.5 0 0,1 2.5,0Z" style="opacity: 1; stroke-width: 0px; fill: rgb(215, 48, 39); fill-opacity: 1;"/><path class="point" transform="translate(385.47,45.82)" d="M2.5,0A2.5,2.5 0 1,1 0,-2.5A2.5,2.5 0 0,1 2.5,0Z" style="opacity: 1; stroke-width: 0px; fill: rgb(215, 48, 39); fill-opacity: 1;"/><path class="point" transform="translate(390.13,44.94)" d="M2.5,0A2.5,2.5 0 1,1 0,-2.5A2.5,2.5 0 0,1 2.5,0Z" style="opacity: 1; stroke-width: 0px; fill: rgb(215, 48, 39); fill-opacity: 1;"/><path class="point" transform="translate(392.97,45.59)" d="M2.5,0A2.5,2.5 0 1,1 0,-2.5A2.5,2.5 0 0,1 2.5,0Z" style="opacity: 1; stroke-width: 0px; fill: rgb(215, 48, 39); fill-opacity: 1;"/><path class="point" transform="translate(398.44,46.27)" d="M2.5,0A2.5,2.5 0 1,1 0,-2.5A2.5,2.5 0 0,1 2.5,0Z" style="opacity: 1; stroke-width: 0px; fill: rgb(215, 48, 39); fill-opacity: 1;"/><path class="point" transform="translate(480.22,47.13)" d="M2.5,0A2.5,2.5 0 1,1 0,-2.5A2.5,2.5 0 0,1 2.5,0Z" style="opacity: 1; stroke-width: 0px; fill: rgb(215, 48, 39); fill-opacity: 1;"/><path class="point" transform="translate(599.69,45.79)" d="M2.5,0A2.5,2.5 0 1,1 0,-2.5A2.5,2.5 0 0,1 2.5,0Z" style="opacity: 1; stroke-width: 0px; fill: rgb(215, 48, 39); fill-opacity: 1;"/></g></g></g></g><g class="overplot"/><path class="xlines-above crisp" d="M111,445.5H720" style="fill: none; stroke-width: 1px; stroke: rgb(255, 255, 255); stroke-opacity: 1;"/><path class="ylines-above crisp" d="M111.5,50V445" style="fill: none; stroke-width: 1px; stroke: rgb(255, 255, 255); stroke-opacity: 1;"/><g class="overlines-above"/><g class="xaxislayer-above"><g class="xtick"><text text-anchor="middle" x="0" y="460.4" transform="translate(172.8,0)" style="font-family: 'Open Sans', verdana, arial, sans-serif; font-size: 12px; fill: rgb(42, 63, 95); fill-opacity: 1; white-space: pre;">10</text></g><g class="xtick"><text text-anchor="middle" x="0" y="460.4" transform="translate(274.13,0)" style="font-family: 'Open Sans', verdana, arial, sans-serif; font-size: 12px; fill: rgb(42, 63, 95); fill-opacity: 1; white-space: pre;">5</text></g><g class="xtick"><text text-anchor="middle" x="0" y="460.4" transform="translate(375.47,0)" style="font-family: 'Open Sans', verdana, arial, sans-serif; font-size: 12px; fill: rgb(42, 63, 95); fill-opacity: 1; white-space: pre;">0</text></g><g class="xtick"><text text-anchor="middle" x="0" y="460.4" transform="translate(476.8,0)" style="font-family: 'Open Sans', verdana, arial, sans-serif; font-size: 12px; fill: rgb(42, 63, 95); fill-opacity: 1; white-space: pre;">5</text></g><g class="xtick"><text text-anchor="middle" x="0" y="460.4" transform="translate(578.13,0)" style="font-family: 'Open Sans', verdana, arial, sans-serif; font-size: 12px; fill: rgb(42, 63, 95); fill-opacity: 1; white-space: pre;">10</text></g><g class="xtick"><text text-anchor="middle" x="0" y="460.4" transform="translate(679.47,0)" style="font-family: 'Open Sans', verdana, arial, sans-serif; font-size: 12px; fill: rgb(42, 63, 95); fill-opacity: 1; white-space: pre;">15</text></g></g><g class="yaxislayer-above"><g class="ytick"><text text-anchor="end" x="108.6" y="4.199999999999999" transform="translate(0,425.25)" style="font-family: 'Open Sans', verdana, arial, sans-serif; font-size: 12px; fill: rgb(42, 63, 95); fill-opacity: 1; white-space: pre;">Sample 131-1_F4</text></g><g class="ytick"><text text-anchor="end" x="108.6" y="4.199999999999999" transform="translate(0,395.83)" style="font-family: 'Open Sans', verdana, arial, sans-serif; font-size: 12px; fill: rgb(42, 63, 95); fill-opacity: 1; white-space: pre;">Sample 80-1_H3</text></g><g class="ytick"><text text-anchor="end" x="108.6" y="4.199999999999999" transform="translate(0,366.42)" style="font-family: 'Open Sans', verdana, arial, sans-serif; font-size: 12px; fill: rgb(42, 63, 95); fill-opacity: 1; white-space: pre;">Sample 7-2_F2</text></g><g class="ytick"><text text-anchor="end" x="108.6" y="4.199999999999999" transform="translate(0,337)" style="font-family: 'Open Sans', verdana, arial, sans-serif; font-size: 12px; fill: rgb(42, 63, 95); fill-opacity: 1; white-space: pre;">Sample 117-2_C4</text></g><g class="ytick"><text text-anchor="end" x="108.6" y="4.199999999999999" transform="translate(0,307.58)" style="font-family: 'Open Sans', verdana, arial, sans-serif; font-size: 12px; fill: rgb(42, 63, 95); fill-opacity: 1; white-space: pre;">Sample 11-1_A3</text></g><g class="ytick"><text text-anchor="end" x="108.6" y="4.199999999999999" transform="translate(0,278.16999999999996)" style="font-family: 'Open Sans', verdana, arial, sans-serif; font-size: 12px; fill: rgb(42, 63, 95); fill-opacity: 1; white-space: pre;">Sample 134-2_A5</text></g><g class="ytick"><text text-anchor="end" x="108.6" y="4.199999999999999" transform="translate(0,248.75)" style="font-family: 'Open Sans', verdana, arial, sans-serif; font-size: 12px; fill: rgb(42, 63, 95); fill-opacity: 1; white-space: pre;">Sample 4-1_B2</text></g><g class="ytick"><text text-anchor="end" x="108.6" y="4.199999999999999" transform="translate(0,219.33)" style="font-family: 'Open Sans', verdana, arial, sans-serif; font-size: 12px; fill: rgb(42, 63, 95); fill-opacity: 1; white-space: pre;">Sample 69-1_F3</text></g><g class="ytick"><text text-anchor="end" x="108.6" y="4.199999999999999" transform="translate(0,189.92)" style="font-family: 'Open Sans', verdana, arial, sans-serif; font-size: 12px; fill: rgb(42, 63, 95); fill-opacity: 1; white-space: pre;">Sample 79-2_G3</text></g><g class="ytick"><text text-anchor="end" x="108.6" y="4.199999999999999" transform="translate(0,160.5)" style="font-family: 'Open Sans', verdana, arial, sans-serif; font-size: 12px; fill: rgb(42, 63, 95); fill-opacity: 1; white-space: pre;">Sample 4-2_B2</text></g><g class="ytick"><text text-anchor="end" x="108.6" y="4.199999999999999" transform="translate(0,131.07999999999998)" style="font-family: 'Open Sans', verdana, arial, sans-serif; font-size: 12px; fill: rgb(42, 63, 95); fill-opacity: 1; white-space: pre;">Sample 7-1_E2</text></g><g class="ytick"><text text-anchor="end" x="108.6" y="4.199999999999999" transform="translate(0,101.67)" style="font-family: 'Open Sans', verdana, arial, sans-serif; font-size: 12px; fill: rgb(42, 63, 95); fill-opacity: 1; white-space: pre;">Sample 134-1_H4</text></g></g><g class="overaxes-above"/></g></g><g class="polarlayer"/><g class="ternarylayer"/><g class="geolayer"/><g class="funnelarealayer"/><g class="pielayer"/><g class="treemaplayer"/><g class="sunburstlayer"/><g class="glimages"/><defs id="topdefs-f702be"><g class="clips"/></defs><g class="layer-above"><g class="imagelayer"/><g class="shapelayer"/></g><g class="infolayer"><g class="g-gtitle"/><g class="g-xtitle"><text class="xtitle" x="416" y="488.20625" text-anchor="middle" style="font-family: 'Open Sans', verdana, arial, sans-serif; font-size: 14px; fill: rgb(42, 63, 95); opacity: 1; font-weight: normal; white-space: pre;">CpG median log likelihood ratio</text></g><g class="g-ytitle"/><g class="annotation" data-index="0" style="opacity: 1;"><g class="annotation-text-g" transform="rotate(0,375.47,35.29999999999998)"><g class="cursor-pointer" transform="translate(343, 26)"><rect class="bg" x="0.5" y="0.5" width="63" height="17" style="stroke-width: 1px; stroke: rgb(0, 0, 0); stroke-opacity: 0; fill: rgb(0, 0, 0); fill-opacity: 0;"/><text class="annotation-text" text-anchor="middle" x="32.03125" y="13" style="font-family: 'Open Sans', verdana, arial, sans-serif; font-size: 12px; fill: rgb(100, 100, 100); fill-opacity: 1; white-space: pre;">Ambiguous</text></g></g></g><g class="annotation" data-index="1" style="opacity: 1;"><g class="annotation-text-g" transform="rotate(0,233.6,35.29999999999998)"><g class="cursor-pointer" transform="translate(195, 26)"><rect class="bg" x="0.5" y="0.5" width="77" height="17" style="stroke-width: 1px; stroke: rgb(0, 0, 0); stroke-opacity: 0; fill: rgb(0, 0, 0); fill-opacity: 0;"/><text class="annotation-text" text-anchor="middle" x="39.03125" y="13" style="font-family: 'Open Sans', verdana, arial, sans-serif; font-size: 12px; fill: rgb(33, 102, 172); fill-opacity: 1; white-space: pre;">Unmethylated</text></g></g></g><g class="annotation" data-index="2" style="opacity: 1;"><g class="annotation-text-g" transform="rotate(0,557.87,35.29999999999998)"><g class="cursor-pointer" transform="translate(526, 26)"><rect class="bg" x="0.5" y="0.5" width="62" height="17" style="stroke-width: 1px; stroke: rgb(0, 0, 0); stroke-opacity: 0; fill: rgb(0, 0, 0); fill-opacity: 0;"/><text class="annotation-text" text-anchor="middle" x="31.359375" y="13" style="font-family: 'Open Sans', verdana, arial, sans-serif; font-size: 12px; fill: rgb(215, 48, 39); fill-opacity: 1; white-space: pre;">Methylated</text></g></g></g></g></svg>