<svg class="main-svg" xmlns="http://www.w3.org/2000/svg" xmlns:xlink="http://www.w3.org/1999/xlink" width="800" height="500" style="" viewBox="0 0 800 500"><rect x="0" y="0" width="800" height="500" style="fill: rgb(255, 255, 255); fill-opacity: 1;"/><defs id="defs-4446e2"><g class="clips"><clipPath id="clip4446e2xyplot" class="plotclip"><rect width="608" height="395"/></clipPath><clipPath class="axesclip" id="clip4446e2x"><rect x="112" y="0" width="608" height="500"/></clipPath><clipPath class="axesclip" id="clip4446e2y"><rect x="0" y="50" width="800" height="395"/></clipPath><clipPath class="axesclip" id="clip4446e2xy"><rect x="112" y="50" width="608" height="395"/></clipPath></g><g class="gradients"/></defs><g class="bglayer"><rect class="bg" x="112" y="50" width="608" height="395" style="fill: rgb(0, 0, 0); fill-opacity: 0; stroke-width: 0;"/></g><g class="layer-below"><g class="imagelayer"/><g class="shapelayer"><path data-index="0" fill-rule="evenodd" d="M437.71,445H481.14V50H437.71Z" clip-path="url('#clip4446e2x')" style="opacity: 0.25; stroke: rgb(0, 0, 0); stroke-opacity: 0; fill: rgb(100, 100, 100); fill-opacity: 1; stroke-width: 0px;"/></g></g><g class="cartesianlayer"><g class="subplot xy"><g class="layer-subplot"><g class="shapelayer"/><g class="imagelayer"/></g><g class="gridlayer"><g class="x"/><g class="y"><path class="ygrid crisp" transform="translate(0,425.25)" d="M112,0h608" style="stroke: rgb(211, 211, 211); stroke-opacity: 1; stroke-width: 1px;"/><path class="ygrid crisp" transform="translate(0,393.16)" d="M112,0h608" style="stroke: rgb(211, 211, 211); stroke-opacity: 1; stroke-width: 1px;"/><path class="ygrid crisp" transform="translate(0,361.07)" d="M112,0h608" style="stroke: rgb(211, 211, 211); stroke-opacity: 1; stroke-width: 1px;"/><path class="ygrid crisp" transform="translate(0,328.98)" d="M112,0h608" style="stroke: rgb(211, 211, 211); stroke-opacity: 1; stroke-width: 1px;"/><path class="ygrid crisp" transform="translate(0,296.89)" d="M112,0h608" style="stroke: rgb(211, 211, 211); stroke-opacity: 1; stroke-width: 1px;"/><path class="ygrid crisp" transform="translate(0,264.8)" d="M112,0h608" style="stroke: rgb(211, 211, 211); stroke-opacity: 1; stroke-width: 1px;"/><path class="ygrid crisp" transform="translate(0,232.7)" d="M112,0h608" style="stroke: rgb(211, 211, 211); stroke-opacity: 1; stroke-width: 1px;"/><path class="ygrid crisp" transform="translate(0,200.61)" d="M112,0h608" style="stroke: rgb(211, 211, 211); stroke-opacity: 1; stroke-width: 1px;"/><path class="ygrid crisp" transform="translate(0,168.51999999999998)" d="M112,0h608" style="stroke: rgb(211, 211, 211); stroke-opacity: 1; stroke-width: 1px;"/><path class="ygrid crisp" transform="translate(0,136.43)" d="M112,0h608" style="stroke: rgb(211, 211, 211); stroke-opacity: 1; stroke-width: 1px;"/><path class="ygrid crisp" transform="translate(0,104.34)" d="M112,0h608" style="stroke: rgb(211, 211, 211); stroke-opacity: 1; stroke-width: 1px;"/></g></g><g class="zerolinelayer"/><path class="xlines-below"/><path class="ylines-below"/><g class="overlines-below"/><g class="xaxislayer-below"/><g class="yaxislayer-below"/><g class="overaxes-below"/><g class="plot" transform="translate(112, 50)" clip-path="url('#clip4446e2xyplot')"><g class="violinlayer mlayer"><g class="trace violins" style="opacity: 1;"><path class="violin" d="M-66.3,375.25L-66.3,374.92Q-58.05,374.76 -53.92,374.65C-49.79,374.54 -45.67,374.41 -41.54,374.26C-37.42,374.11 -33.29,373.94 -29.17,373.77C-25.04,373.6 -20.92,373.41 -16.79,373.24C-12.67,373.07 -8.54,372.9 -4.42,372.75C-0.29,372.6 3.83,372.47 7.96,372.36C12.08,372.25 16.21,372.16 20.33,372.07C24.46,371.98 28.58,371.92 32.71,371.84C36.83,371.76 40.96,371.68 45.08,371.57C49.21,371.46 53.33,371.34 57.46,371.18C61.58,371.02 65.71,370.84 69.83,370.63C73.96,370.42 78.08,370.18 82.21,369.92C86.34,369.66 90.46,369.36 94.59,369.06C98.71,368.76 102.84,368.44 106.96,368.11C111.09,367.78 115.21,367.44 119.34,367.08C123.46,366.73 127.59,366.38 131.71,365.98C135.84,365.58 139.97,365.18 144.09,364.7C148.22,364.22 152.34,363.72 156.46,363.11C160.59,362.5 164.72,361.82 168.84,361.03C172.97,360.24 177.09,359.34 181.21,358.37C185.34,357.4 189.47,356.3 193.59,355.22C197.72,354.14 201.83,352.96 205.96,351.9C210.08,350.84 214.2,349.77 218.34,348.86C222.46,347.96 226.58,347.14 230.72,346.47C234.83,345.81 238.96,345.3 243.09,344.87C247.21,344.45 251.34,344.17 255.47,343.92C259.59,343.67 263.72,343.51 267.84,343.38C271.97,343.25 276.09,343.16 280.22,343.16C284.34,343.16 288.47,343.18 292.59,343.39C296.72,343.6 300.86,343.89 304.97,344.42C309.11,344.95 313.24,345.66 317.34,346.57C321.49,347.48 325.61,348.65 329.72,349.89C333.87,351.15 337.98,352.63 342.1,354.08C346.23,355.53 350.34,357.13 354.47,358.6C358.59,360.06 362.71,361.55 366.85,362.87C370.96,364.18 375.08,365.41 379.22,366.47C383.33,367.52 387.46,368.44 391.6,369.21C395.71,369.98 399.84,370.6 403.97,371.11C408.09,371.62 412.22,371.98 416.35,372.27C420.47,372.56 424.59,372.71 428.72,372.83C432.84,372.95 436.97,372.96 441.1,372.97C445.22,372.98 449.35,372.91 453.47,372.88C457.6,372.85 461.72,372.79 465.85,372.77C469.98,372.75 474.1,372.74 478.23,372.77C482.35,372.8 486.48,372.88 490.6,372.97C494.73,373.07 498.85,373.2 502.98,373.34C507.1,373.48 511.23,373.65 515.35,373.81C519.48,373.97 523.6,374.14 527.73,374.28C531.85,374.42 535.98,374.55 540.1,374.66Q544.23,374.77 552.48,374.92L552.48,375.25" style="vector-effect: non-scaling-stroke; stroke-width: 2px; stroke: rgb(33, 102, 172); stroke-opacity: 1; fill: rgb(33, 102, 172); fill-opacity: 0.5;"/><g class="points"><path class="point" transform="translate(9.34,367.56)" d="M2.5,0A2.5,2.5 0 1,1 0,-2.5A2.5,2.5 0 0,1 2.5,0Z" style="opacity: 1; stroke-width: 0px; fill: rgb(33, 102, 172); fill-opacity: 1;"/><path class="point" transform="translate(77.09,370.37)" d="M2.5,0A2.5,2.5 0 1,1 0,-2.5A2.5,2.5 0 0,1 2.5,0Z" style="opacity: 1; stroke-width: 0px; fill: rgb(33, 102, 172); fill-opacity: 1;"/><path class="point" transform="translate(121.6,366.82)" d="M2.5,0A2.5,2.5 0 1,1 0,-2.5A2.5,2.5 0 0,1 2.5,0Z" style="opacity: 1; stroke-width: 0px; fill: rgb(33, 102, 172); fill-opacity: 1;"/><path class="point" transform="translate(136.8,371.17)" d="M2.5,0A2.5,2.5 0 1,1 0,-2.5A2.5,2.5 0 0,1 2.5,0Z" style="opacity: 1; stroke-width: 0px; fill: rgb(33, 102, 172); fill-opacity: 1;"/><path class="point" transform="translate(165.68,369.55)" d="M2.5,0A2.5,2.5 0 1,1 0,-2.5A2.5,2.5 0 0,1 2.5,0Z" style="opacity: 1; stroke-width: 0px; fill: rgb(33, 102, 172); fill-opacity: 1;"/><path class="point" transform="translate(177.62,367.24)" d="M2.5,0A2.5,2.5 0 1,1 0,-2.5A2.5,2.5 0 0,1 2.5,0Z" style="opacity: 1; stroke-width: 0px; fill: rgb(33, 102, 172); fill-opacity: 1;"/><path class="point" transform="translate(214.97,368.97)" d="M2.5,0A2.5,2.5 0 1,1 0,-2.5A2.5,2.5 0 0,1 2.5,0Z" style="opacity: 1; stroke-width: 0px; fill: rgb(33, 102, 172); fill-opacity: 1;"/><path class="point" transform="translate(218.12,367.6)" d="M2.5,0A2.5,2.5 0 1,1 0,-2.5A2.5,2.5 0 0,1 2.5,0Z" style="opacity: 1; stroke-width: 0px; fill: rgb(33, 102, 172); fill-opacity: 1;"/><path class="point" transform="translate(219.86,370.19)" d="M2.5,0A2.5,2.5 0 1,1 0,-2.5A2.5,2.5 0 0,1 2.5,0Z" style="opacity: 1; stroke-width: 0px; fill: rgb(33, 102, 172); fill-opacity: 1;"/><path class="point" transform="translate(224.09,372.37)" d="M2.5,0A2.5,2.5 0 1,1 0,-2.5A2.5,2.5 0 0,1 2.5,0Z" style="opacity: 1; stroke-width: 0px; fill: rgb(33, 102, 172); fill-opacity: 1;"/><path class="point" transform="translate(228.11,367.52)" d="M2.5,0A2.5,2.5 0 1,1 0,-2.5A2.5,2.5 0 0,1 2.5,0Z" style="opacity: 1; stroke-width: 0px; fill: rgb(33, 102, 172); fill-opacity: 1;"/><path class="point" transform="translate(231.47,370.72)" d="M2.5,0A2.5,2.5 0 1,1 0,-2.5A2.5,2.5 0 0,1 2.5,0Z" style="opacity: 1; stroke-width: 0px; fill: rgb(33, 102, 172); fill-opacity: 1;"/><path class="point" transform="translate(233.65,365.37)" d="M2.5,0A2.5,2.5 0 1,1 0,-2.5A2.5,2.5 0 0,1 2.5,0Z" style="opacity: 1; stroke-width: 0px; fill: rgb(33, 102, 172); fill-opacity: 1;"/><path class="point" transform="translate(246.89,374.19)" d="M2.5,0A2.5,2.5 0 1,1 0,-2.5A2.5,2.5 0 0,1 2.5,0Z" style="opacity: 1; stroke-width: 0px; fill: rgb(33, 102, 172); fill-opacity: 1;"/><path class="point" transform="translate(252.1,371.95)" d="M2.5,0A2.5,2.5 0 1,1 0,-2.5A2.5,2.5 0 0,1 2.5,0Z" style="opacity: 1; stroke-width: 0px; fill: rgb(33, 102, 172); fill-opacity: 1;"/><path class="point" transform="translate(260.57,364.43)" d="M2.5,0A2.5,2.5 0 1,1 0,-2.5A2.5,2.5 0 0,1 2.5,0Z" style="opacity: 1; stroke-width: 0px; fill: rgb(33, 102, 172); fill-opacity: 1;"/><path class="point" transform="translate(275.66,370.09)" d="M2.5,0A2.5,2.5 0 1,1 0,-2.5A2.5,2.5 0 0,1 2.5,0Z" style="opacity: 1; stroke-width: 0px; fill: rgb(33, 102, 172); fill-opacity: 1;"/><path class="point" transform="translate(285.54,373.14)" d="M2.5,0A2.5,2.5 0 1,1 0,-2.5A2.5,2.5 0 0,1 2.5,0Z" style="opacity: 1; stroke-width: 0px; fill: rgb(33, 102, 172); fill-opacity: 1;"/><path class="point" transform="translate(286.19,370.64)" d="M2.5,0A2.5,2.5 0 1,1 0,-2.5A2.5,2.5 0 0,1 2.5,0Z" style="opacity: 1; stroke-width: 0px; fill: rgb(33, 102, 172); fill-opacity: 1;"/><path class="point" transform="translate(293.36,368.95)" d="M2.5,0A2.5,2.5 0 1,1 0,-2.5A2.5,2.5 0 0,1 2.5,0Z" style="opacity: 1; stroke-width: 0px; fill: rgb(33, 102, 172); fill-opacity: 1;"/><path class="point" transform="translate(309.32,366.32)" d="M2.5,0A2.5,2.5 0 1,1 0,-2.5A2.5,2.5 0 0,1 2.5,0Z" style="opacity: 1; stroke-width: 0px; fill: rgb(33, 102, 172); fill-opacity: 1;"/><path class="point" transform="translate(310.73,368.16)" d="M2.5,0A2.5,2.5 0 1,1 0,-2.5A2.5,2.5 0 0,1 2.5,0Z" style="opacity: 1; stroke-width: 0px; fill: rgb(33, 102, 172); fill-opacity: 1;"/><path class="point" transform="translate(313.23,370.64)" d="M2.5,0A2.5,2.5 0 1,1 0,-2.5A2.5,2.5 0 0,1 2.5,0Z" style="opacity: 1; stroke-width: 0px; fill: rgb(33, 102, 172); fill-opacity: 1;"/><path class="point" transform="translate(313.66,372.74)" d="M2.5,0A2.5,2.5 0 1,1 0,-2.5A2.5,2.5 0 0,1 2.5,0Z" style="opacity: 1; stroke-width: 0px; fill: rgb(33, 102, 172); fill-opacity: 1;"/><path class="point" transform="translate(320.83,368.84)" d="M2.5,0A2.5,2.5 0 1,1 0,-2.5A2.5,2.5 0 0,1 2.5,0Z" style="opacity: 1; stroke-width: 0px; fill: rgb(33, 102, 172); fill-opacity: 1;"/><path class="point" transform="translate(325.17,369.79)" d="M2.5,0A2.5,2.5 0 1,1 0,-2.5A2.5,2.5 0 0,1 2.5,0Z" style="opacity: 1; stroke-width: 0px; fill: rgb(33, 102, 172); fill-opacity: 1;"/><path class="point" transform="translate(330.27,367.38)" d="M2.5,0A2.5,2.5 0 1,1 0,-2.5A2.5,2.5 0 0,1 2.5,0Z" style="opacity: 1; stroke-width: 0px; fill: rgb(33, 102, 172); fill-opacity: 1;"/><path class="point" transform="translate(334.29,369.09)" d="M2.5,0A2.5,2.5 0 1,1 0,-2.5A2.5,2.5 0 0,1 2.5,0Z" style="opacity: 1; stroke-width: 0px; fill: rgb(33, 102, 172); fill-opacity: 1;"/><path class="point" transform="translate(377.94,370.61)" d="M2.5,0A2.5,2.5 0 1,1 0,-2.5A2.5,2.5 0 0,1 2.5,0Z" style="opacity: 1; stroke-width: 0px; fill: rgb(33, 102, 172); fill-opacity: 1;"/><path class="point" transform="translate(476.85,371.2)" d="M2.5,0A2.5,2.5 0 1,1 0,-2.5A2.5,2.5 0 0,1 2.5,0Z" style="opacity: 1; stroke-width: 0px; fill: rgb(33, 102, 172); fill-opacity: 1;"/></g></g><g class="trace violins" style="opacity: 1;"><path class="violin" d="M0.19,343.16L0.19,342.84Q6.1,342.68 9.05,342.57C12,342.46 14.96,342.32 17.91,342.16C20.86,342 23.82,341.82 26.77,341.62C29.72,341.43 32.67,341.2 35.62,340.99C38.57,340.77 41.53,340.54 44.48,340.33C47.43,340.12 50.39,339.91 53.34,339.73C56.29,339.55 59.25,339.38 62.2,339.24C65.15,339.1 68.1,338.97 71.05,338.87C74,338.77 76.96,338.69 79.91,338.64C82.86,338.59 85.82,338.56 88.77,338.55C91.72,338.54 94.68,338.56 97.63,338.6C100.58,338.64 103.54,338.7 106.49,338.78C109.44,338.85 112.39,338.96 115.34,339.05C118.29,339.14 121.25,339.26 124.2,339.33C127.15,339.4 130.11,339.47 133.06,339.48C136.01,339.49 138.97,339.47 141.92,339.38C144.87,339.29 147.82,339.14 150.77,338.92C153.72,338.7 156.68,338.41 159.63,338.07C162.59,337.73 165.54,337.31 168.49,336.86C171.45,336.41 174.4,335.91 177.35,335.39C180.3,334.87 183.25,334.31 186.2,333.72C189.16,333.13 192.11,332.52 195.06,331.86C198.02,331.2 200.97,330.51 203.92,329.74C206.88,328.97 209.84,328.15 212.78,327.24C215.74,326.32 218.7,325.31 221.64,324.26C224.6,323.2 227.54,322.03 230.49,320.9C233.44,319.77 236.39,318.55 239.35,317.46C242.29,316.38 245.24,315.29 248.21,314.4C251.14,313.53 254.1,312.73 257.07,312.17C260,311.62 262.96,311.24 265.92,311.07C268.87,310.9 271.83,310.95 274.78,311.14C277.74,311.33 280.7,311.74 283.64,312.23C286.6,312.72 289.56,313.37 292.5,314.07C295.46,314.78 298.41,315.6 301.35,316.46C304.31,317.33 307.26,318.28 310.21,319.27C313.17,320.26 316.12,321.33 319.07,322.41C322.03,323.49 324.98,324.64 327.93,325.76C330.88,326.88 333.82,328.04 336.78,329.13C339.73,330.21 342.68,331.3 345.64,332.28C348.58,333.26 351.54,334.19 354.5,335.02C357.44,335.85 360.4,336.59 363.36,337.26C366.3,337.92 369.26,338.5 372.22,339.02C375.16,339.53 378.12,339.96 381.07,340.35C384.02,340.74 386.97,341.06 389.93,341.34C392.88,341.62 395.84,341.84 398.79,342.04C401.74,342.24 404.7,342.4 407.65,342.53Q410.6,342.66 416.5,342.83L416.5,343.16" style="vector-effect: non-scaling-stroke; stroke-width: 2px; stroke: rgb(51, 97, 159); stroke-opacity: 1; fill: rgb(51, 97, 159); fill-opacity: 0.5;"/><g class="points"><path class="point" transform="translate(54.07,335.58)" d="M2.5,0A2.5,2.5 0 1,1 0,-2.5A2.5,2.5 0 0,1 2.5,0Z" style="opacity: 1; stroke-width: 0px; fill: rgb(51, 97, 159); fill-opacity: 1;"/><path class="point" transform="translate(87.29,338.27)" d="M2.5,0A2.5,2.5 0 1,1 0,-2.5A2.5,2.5 0 0,1 2.5,0Z" style="opacity: 1; stroke-width: 0px; fill: rgb(51, 97, 159); fill-opacity: 1;"/><path class="point" transform="translate(116.39,334.89)" d="M2.5,0A2.5,2.5 0 1,1 0,-2.5A2.5,2.5 0 0,1 2.5,0Z" style="opacity: 1; stroke-width: 0px; fill: rgb(51, 97, 159); fill-opacity: 1;"/><path class="point" transform="translate(168.72,338.88)" d="M2.5,0A2.5,2.5 0 1,1 0,-2.5A2.5,2.5 0 0,1 2.5,0Z" style="opacity: 1; stroke-width: 0px; fill: rgb(51, 97, 159); fill-opacity: 1;"/><path class="point" transform="translate(195.43,337.4)" d="M2.5,0A2.5,2.5 0 1,1 0,-2.5A2.5,2.5 0 0,1 2.5,0Z" style="opacity: 1; stroke-width: 0px; fill: rgb(51, 97, 159); fill-opacity: 1;"/><path class="point" transform="translate(200.97,335.3)" d="M2.5,0A2.5,2.5 0 1,1 0,-2.5A2.5,2.5 0 0,1 2.5,0Z" style="opacity: 1; stroke-width: 0px; fill: rgb(51, 97, 159); fill-opacity: 1;"/><path class="point" transform="translate(206.5,336.85)" d="M2.5,0A2.5,2.5 0 1,1 0,-2.5A2.5,2.5 0 0,1 2.5,0Z" style="opacity: 1; stroke-width: 0px; fill: rgb(51, 97, 159); fill-opacity: 1;"/><path class="point" transform="translate(233.86,335.78)" d="M2.5,0A2.5,2.5 0 1,1 0,-2.5A2.5,2.5 0 0,1 2.5,0Z" style="opacity: 1; stroke-width: 0px; fill: rgb(51, 97, 159); fill-opacity: 1;"/><path class="point" transform="translate(238.21,338.02)" d="M2.5,0A2.5,2.5 0 1,1 0,-2.5A2.5,2.5 0 0,1 2.5,0Z" style="opacity: 1; stroke-width: 0px; fill: rgb(51, 97, 159); fill-opacity: 1;"/><path class="point" transform="translate(238.86,340.22)" d="M2.5,0A2.5,2.5 0 1,1 0,-2.5A2.5,2.5 0 0,1 2.5,0Z" style="opacity: 1; stroke-width: 0px; fill: rgb(51, 97, 159); fill-opacity: 1;"/><path class="point" transform="translate(249.28,335.47)" d="M2.5,0A2.5,2.5 0 1,1 0,-2.5A2.5,2.5 0 0,1 2.5,0Z" style="opacity: 1; stroke-width: 0px; fill: rgb(51, 97, 159); fill-opacity: 1;"/><path class="point" transform="translate(249.82,338.34)" d="M2.5,0A2.5,2.5 0 1,1 0,-2.5A2.5,2.5 0 0,1 2.5,0Z" style="opacity: 1; stroke-width: 0px; fill: rgb(51, 97, 159); fill-opacity: 1;"/><path class="point" transform="translate(251.02,332.91)" d="M2.5,0A2.5,2.5 0 1,1 0,-2.5A2.5,2.5 0 0,1 2.5,0Z" style="opacity: 1; stroke-width: 0px; fill: rgb(51, 97, 159); fill-opacity: 1;"/><path class="point" transform="translate(260.35,342.82)" d="M2.5,0A2.5,2.5 0 1,1 0,-2.5A2.5,2.5 0 0,1 2.5,0Z" style="opacity: 1; stroke-width: 0px; fill: rgb(51, 97, 159); fill-opacity: 1;"/><path class="point" transform="translate(260.57,340.34)" d="M2.5,0A2.5,2.5 0 1,1 0,-2.5A2.5,2.5 0 0,1 2.5,0Z" style="opacity: 1; stroke-width: 0px; fill: rgb(51, 97, 159); fill-opacity: 1;"/><path class="point" transform="translate(266,331.06)" d="M2.5,0A2.5,2.5 0 1,1 0,-2.5A2.5,2.5 0 0,1 2.5,0Z" style="opacity: 1; stroke-width: 0px; fill: rgb(51, 97, 159); fill-opacity: 1;"/><path class="point" transform="translate(268.61,338.26)" d="M2.5,0A2.5,2.5 0 1,1 0,-2.5A2.5,2.5 0 0,1 2.5,0Z" style="opacity: 1; stroke-width: 0px; fill: rgb(51, 97, 159); fill-opacity: 1;"/><path class="point" transform="translate(274.03,341.36)" d="M2.5,0A2.5,2.5 0 1,1 0,-2.5A2.5,2.5 0 0,1 2.5,0Z" style="opacity: 1; stroke-width: 0px; fill: rgb(51, 97, 159); fill-opacity: 1;"/><path class="point" transform="translate(275.77,338.71)" d="M2.5,0A2.5,2.5 0 1,1 0,-2.5A2.5,2.5 0 0,1 2.5,0Z" style="opacity: 1; stroke-width: 0px; fill: rgb(51, 97, 159); fill-opacity: 1;"/><path class="point" transform="translate(276.86,336.86)" d="M2.5,0A2.5,2.5 0 1,1 0,-2.5A2.5,2.5 0 0,1 2.5,0Z" style="opacity: 1; stroke-width: 0px; fill: rgb(51, 97, 159); fill-opacity: 1;"/><path class="point" transform="translate(284.89,334.29)" d="M2.5,0A2.5,2.5 0 1,1 0,-2.5A2.5,2.5 0 0,1 2.5,0Z" style="opacity: 1; stroke-width: 0px; fill: rgb(51, 97, 159); fill-opacity: 1;"/><path class="point" transform="translate(289.67,336.15)" d="M2.5,0A2.5,2.5 0 1,1 0,-2.5A2.5,2.5 0 0,1 2.5,0Z" style="opacity: 1; stroke-width: 0px; fill: rgb(51, 97, 159); fill-opacity: 1;"/><path class="point" transform="translate(301.61,338.25)" d="M2.5,0A2.5,2.5 0 1,1 0,-2.5A2.5,2.5 0 0,1 2.5,0Z" style="opacity: 1; stroke-width: 0px; fill: rgb(51, 97, 159); fill-opacity: 1;"/><path class="point" transform="translate(301.83,341.15)" d="M2.5,0A2.5,2.5 0 1,1 0,-2.5A2.5,2.5 0 0,1 2.5,0Z" style="opacity: 1; stroke-width: 0px; fill: rgb(51, 97, 159); fill-opacity: 1;"/><path class="point" transform="translate(308.34,336.75)" d="M2.5,0A2.5,2.5 0 1,1 0,-2.5A2.5,2.5 0 0,1 2.5,0Z" style="opacity: 1; stroke-width: 0px; fill: rgb(51, 97, 159); fill-opacity: 1;"/><path class="point" transform="translate(315.51,337.95)" d="M2.5,0A2.5,2.5 0 1,1 0,-2.5A2.5,2.5 0 0,1 2.5,0Z" style="opacity: 1; stroke-width: 0px; fill: rgb(51, 97, 159); fill-opacity: 1;"/><path class="point" transform="translate(319.63,334.87)" d="M2.5,0A2.5,2.5 0 1,1 0,-2.5A2.5,2.5 0 0,1 2.5,0Z" style="opacity: 1; stroke-width: 0px; fill: rgb(51, 97, 159); fill-opacity: 1;"/><path class="point" transform="translate(325.5,337.11)" d="M2.5,0A2.5,2.5 0 1,1 0,-2.5A2.5,2.5 0 0,1 2.5,0Z" style="opacity: 1; stroke-width: 0px; fill: rgb(51, 97, 159); fill-opacity: 1;"/><path class="point" transform="translate(328.54,339.23)" d="M2.5,0A2.5,2.5 0 1,1 0,-2.5A2.5,2.5 0 0,1 2.5,0Z" style="opacity: 1; stroke-width: 0px; fill: rgb(51, 97, 159); fill-opacity: 1;"/><path class="point" transform="translate(362.63,340.17)" d="M2.5,0A2.5,2.5 0 1,1 0,-2.5A2.5,2.5 0 0,1 2.5,0Z" style="opacity: 1; stroke-width: 0px; fill: rgb(51, 97, 159); fill-opacity: 1;"/></g></g><g class="trace violins" style="opacity: 1;"><path class="violin" d="M-48.49,311.07L-48.49,310.78Q-40.69,310.63 -36.79,310.52C-32.89,310.41 -28.99,310.28 -25.09,310.12C-21.19,309.96 -17.29,309.78 -13.39,309.58C-9.49,309.38 -5.59,309.14 -1.69,308.9C2.21,308.66 6.11,308.4 10.01,308.14C13.91,307.88 17.81,307.61 21.71,307.36C25.61,307.12 29.51,306.87 33.41,306.67C37.31,306.47 41.21,306.27 45.11,306.15C49.01,306.03 52.91,305.95 56.81,305.93C60.71,305.91 64.61,305.95 68.51,306.04C72.41,306.13 76.31,306.3 80.21,306.47C84.11,306.64 88.01,306.88 91.91,307.07C95.81,307.26 99.71,307.48 103.61,307.6C107.51,307.72 111.42,307.84 115.32,307.81C119.22,307.78 123.12,307.69 127.02,307.45C130.92,307.21 134.83,306.85 138.72,306.37C142.63,305.89 146.53,305.26 150.42,304.55C154.33,303.83 158.23,302.98 162.12,302.08C166.03,301.18 169.92,300.16 173.82,299.16C177.72,298.16 181.62,297.09 185.52,296.08C189.42,295.07 193.31,294.05 197.22,293.1C201.11,292.15 205.01,291.24 208.92,290.39C212.81,289.54 216.72,288.75 220.62,287.98C224.52,287.21 228.42,286.48 232.32,285.75C236.22,285.02 240.12,284.29 244.02,283.59C247.92,282.89 251.82,282.17 255.72,281.54C259.62,280.92 263.51,280.27 267.42,279.84C271.31,279.41 275.22,279.05 279.12,278.98C283.02,278.91 286.94,279.01 290.83,279.43C294.75,279.85 298.66,280.57 302.53,281.5C306.46,282.44 310.36,283.72 314.23,285.07C318.16,286.44 322.04,288.08 325.93,289.65C329.84,291.23 333.72,292.96 337.63,294.52C341.52,296.07 345.41,297.64 349.33,299C353.21,300.35 357.11,301.58 361.03,302.65C364.91,303.7 368.82,304.6 372.73,305.37C376.62,306.14 380.52,306.74 384.43,307.28C388.32,307.82 392.23,308.22 396.13,308.59C400.03,308.96 403.93,309.23 407.83,309.48C411.73,309.73 415.63,309.93 419.53,310.1C423.43,310.27 427.33,310.41 431.23,310.52Q435.13,310.63 442.93,310.78L442.93,311.07" style="vector-effect: non-scaling-stroke; stroke-width: 2px; stroke: rgb(69, 91, 145); stroke-opacity: 1; fill: rgb(69, 91, 145); fill-opacity: 0.5;"/><g class="points"><path class="point" transform="translate(22.91,303.57)" d="M2.5,0A2.5,2.5 0 1,1 0,-2.5A2.5,2.5 0 0,1 2.5,0Z" style="opacity: 1; stroke-width: 0px; fill: rgb(69, 91, 145); fill-opacity: 1;"/><path class="point" transform="translate(68.51,306.06)" d="M2.5,0A2.5,2.5 0 1,1 0,-2.5A2.5,2.5 0 0,1 2.5,0Z" style="opacity: 1; stroke-width: 0px; fill: rgb(69, 91, 145); fill-opacity: 1;"/><path class="point" transform="translate(70.14,302.82)" d="M2.5,0A2.5,2.5 0 1,1 0,-2.5A2.5,2.5 0 0,1 2.5,0Z" style="opacity: 1; stroke-width: 0px; fill: rgb(69, 91, 145); fill-opacity: 1;"/><path class="point" transform="translate(165.03,306.78)" d="M2.5,0A2.5,2.5 0 1,1 0,-2.5A2.5,2.5 0 0,1 2.5,0Z" style="opacity: 1; stroke-width: 0px; fill: rgb(69, 91, 145); fill-opacity: 1;"/><path class="point" transform="translate(191.95,305.29)" d="M2.5,0A2.5,2.5 0 1,1 0,-2.5A2.5,2.5 0 0,1 2.5,0Z" style="opacity: 1; stroke-width: 0px; fill: rgb(69, 91, 145); fill-opacity: 1;"/><path class="point" transform="translate(193.26,303.23)" d="M2.5,0A2.5,2.5 0 1,1 0,-2.5A2.5,2.5 0 0,1 2.5,0Z" style="opacity: 1; stroke-width: 0px; fill: rgb(69, 91, 145); fill-opacity: 1;"/><path class="point" transform="translate(204.33,304.76)" d="M2.5,0A2.5,2.5 0 1,1 0,-2.5A2.5,2.5 0 0,1 2.5,0Z" style="opacity: 1; stroke-width: 0px; fill: rgb(69, 91, 145); fill-opacity: 1;"/><path class="point" transform="translate(210.09,303.81)" d="M2.5,0A2.5,2.5 0 1,1 0,-2.5A2.5,2.5 0 0,1 2.5,0Z" style="opacity: 1; stroke-width: 0px; fill: rgb(69, 91, 145); fill-opacity: 1;"/><path class="point" transform="translate(210.85,305.94)" d="M2.5,0A2.5,2.5 0 1,1 0,-2.5A2.5,2.5 0 0,1 2.5,0Z" style="opacity: 1; stroke-width: 0px; fill: rgb(69, 91, 145); fill-opacity: 1;"/><path class="point" transform="translate(223.77,308)" d="M2.5,0A2.5,2.5 0 1,1 0,-2.5A2.5,2.5 0 0,1 2.5,0Z" style="opacity: 1; stroke-width: 0px; fill: rgb(69, 91, 145); fill-opacity: 1;"/><path class="point" transform="translate(225.39,303.46)" d="M2.5,0A2.5,2.5 0 1,1 0,-2.5A2.5,2.5 0 0,1 2.5,0Z" style="opacity: 1; stroke-width: 0px; fill: rgb(69, 91, 145); fill-opacity: 1;"/><path class="point" transform="translate(239.73,306.2)" d="M2.5,0A2.5,2.5 0 1,1 0,-2.5A2.5,2.5 0 0,1 2.5,0Z" style="opacity: 1; stroke-width: 0px; fill: rgb(69, 91, 145); fill-opacity: 1;"/><path class="point" transform="translate(247.54,301.66)" d="M2.5,0A2.5,2.5 0 1,1 0,-2.5A2.5,2.5 0 0,1 2.5,0Z" style="opacity: 1; stroke-width: 0px; fill: rgb(69, 91, 145); fill-opacity: 1;"/><path class="point" transform="translate(255.79,309.19)" d="M2.5,0A2.5,2.5 0 1,1 0,-2.5A2.5,2.5 0 0,1 2.5,0Z" style="opacity: 1; stroke-width: 0px; fill: rgb(69, 91, 145); fill-opacity: 1;"/><path class="point" transform="translate(263.18,307.4)" d="M2.5,0A2.5,2.5 0 1,1 0,-2.5A2.5,2.5 0 0,1 2.5,0Z" style="opacity: 1; stroke-width: 0px; fill: rgb(69, 91, 145); fill-opacity: 1;"/><path class="point" transform="translate(268.93,300.47)" d="M2.5,0A2.5,2.5 0 1,1 0,-2.5A2.5,2.5 0 0,1 2.5,0Z" style="opacity: 1; stroke-width: 0px; fill: rgb(69, 91, 145); fill-opacity: 1;"/><path class="point" transform="translate(271.86,305.95)" d="M2.5,0A2.5,2.5 0 1,1 0,-2.5A2.5,2.5 0 0,1 2.5,0Z" style="opacity: 1; stroke-width: 0px; fill: rgb(69, 91, 145); fill-opacity: 1;"/><path class="point" transform="translate(276.86,309.23)" d="M2.5,0A2.5,2.5 0 1,1 0,-2.5A2.5,2.5 0 0,1 2.5,0Z" style="opacity: 1; stroke-width: 0px; fill: rgb(69, 91, 145); fill-opacity: 1;"/><path class="point" transform="translate(279.46,306.48)" d="M2.5,0A2.5,2.5 0 1,1 0,-2.5A2.5,2.5 0 0,1 2.5,0Z" style="opacity: 1; stroke-width: 0px; fill: rgb(69, 91, 145); fill-opacity: 1;"/><path class="point" transform="translate(289.45,304.77)" d="M2.5,0A2.5,2.5 0 1,1 0,-2.5A2.5,2.5 0 0,1 2.5,0Z" style="opacity: 1; stroke-width: 0px; fill: rgb(69, 91, 145); fill-opacity: 1;"/><path class="point" transform="translate(292.06,301.97)" d="M2.5,0A2.5,2.5 0 1,1 0,-2.5A2.5,2.5 0 0,1 2.5,0Z" style="opacity: 1; stroke-width: 0px; fill: rgb(69, 91, 145); fill-opacity: 1;"/><path class="point" transform="translate(295.21,303.96)" d="M2.5,0A2.5,2.5 0 1,1 0,-2.5A2.5,2.5 0 0,1 2.5,0Z" style="opacity: 1; stroke-width: 0px; fill: rgb(69, 91, 145); fill-opacity: 1;"/><path class="point" transform="translate(299.87,306.46)" d="M2.5,0A2.5,2.5 0 1,1 0,-2.5A2.5,2.5 0 0,1 2.5,0Z" style="opacity: 1; stroke-width: 0px; fill: rgb(69, 91, 145); fill-opacity: 1;"/><path class="point" transform="translate(304.43,309.93)" d="M2.5,0A2.5,2.5 0 1,1 0,-2.5A2.5,2.5 0 0,1 2.5,0Z" style="opacity: 1; stroke-width: 0px; fill: rgb(69, 91, 145); fill-opacity: 1;"/><path class="point" transform="translate(306.93,304.66)" d="M2.5,0A2.5,2.5 0 1,1 0,-2.5A2.5,2.5 0 0,1 2.5,0Z" style="opacity: 1; stroke-width: 0px; fill: rgb(69, 91, 145); fill-opacity: 1;"/><path class="point" transform="translate(310.73,305.85)" d="M2.5,0A2.5,2.5 0 1,1 0,-2.5A2.5,2.5 0 0,1 2.5,0Z" style="opacity: 1; stroke-width: 0px; fill: rgb(69, 91, 145); fill-opacity: 1;"/><path class="point" transform="translate(310.95,302.81)" d="M2.5,0A2.5,2.5 0 1,1 0,-2.5A2.5,2.5 0 0,1 2.5,0Z" style="opacity: 1; stroke-width: 0px; fill: rgb(69, 91, 145); fill-opacity: 1;"/><path class="point" transform="translate(313.01,304.99)" d="M2.5,0A2.5,2.5 0 1,1 0,-2.5A2.5,2.5 0 0,1 2.5,0Z" style="opacity: 1; stroke-width: 0px; fill: rgb(69, 91, 145); fill-opacity: 1;"/><path class="point" transform="translate(316.81,307.04)" d="M2.5,0A2.5,2.5 0 1,1 0,-2.5A2.5,2.5 0 0,1 2.5,0Z" style="opacity: 1; stroke-width: 0px; fill: rgb(69, 91, 145); fill-opacity: 1;"/><path class="point" transform="translate(371.53,307.82)" d="M2.5,0A2.5,2.5 0 1,1 0,-2.5A2.5,2.5 0 0,1 2.5,0Z" style="opacity: 1; stroke-width: 0px; fill: rgb(69, 91, 145); fill-opacity: 1;"/></g></g><g class="trace violins" style="opacity: 1;"><path class="violin" d="M-43.21,278.98L-43.21,278.58Q-35.28,278.37 -31.31,278.22C-27.35,278.07 -23.38,277.89 -19.42,277.68C-15.45,277.47 -11.49,277.22 -7.52,276.96C-3.55,276.7 0.41,276.41 4.38,276.14C8.34,275.87 12.3,275.58 16.27,275.35C20.23,275.12 24.2,274.89 28.17,274.74C32.14,274.59 36.1,274.49 40.07,274.45C44.03,274.41 48,274.43 51.96,274.48C55.93,274.53 59.89,274.63 63.86,274.73C67.82,274.82 71.79,274.96 75.75,275.05C79.72,275.14 83.68,275.23 87.65,275.27C91.62,275.31 95.58,275.33 99.55,275.31C103.51,275.29 107.48,275.23 111.44,275.13C115.41,275.03 119.38,274.9 123.34,274.73C127.31,274.55 131.27,274.35 135.23,274.08C139.2,273.8 143.17,273.5 147.13,273.08C151.1,272.66 155.07,272.18 159.03,271.56C163,270.94 166.97,270.21 170.92,269.36C174.9,268.5 178.87,267.5 182.82,266.41C186.8,265.31 190.76,264.06 194.72,262.79C198.69,261.51 202.64,260.1 206.61,258.77C210.57,257.44 214.53,256.04 218.51,254.79C222.46,253.55 226.42,252.33 230.4,251.32C234.35,250.32 238.32,249.42 242.3,248.75C246.25,248.08 250.23,247.59 254.2,247.28C258.16,246.97 262.13,246.87 266.09,246.89C270.06,246.91 274.03,247.11 277.99,247.39C281.96,247.67 285.92,248.1 289.88,248.56C293.85,249.03 297.82,249.59 301.78,250.18C305.75,250.77 309.72,251.41 313.68,252.1C317.65,252.79 321.61,253.51 325.57,254.3C329.54,255.09 333.51,255.93 337.47,256.83C341.44,257.73 345.41,258.69 349.37,259.7C353.34,260.71 357.3,261.79 361.26,262.87C365.23,263.95 369.19,265.09 373.16,266.17C377.12,267.25 381.08,268.35 385.05,269.35C389.01,270.35 392.97,271.32 396.95,272.17C400.91,273.02 404.88,273.8 408.85,274.47C412.81,275.14 416.77,275.71 420.74,276.19C424.7,276.67 428.67,277.05 432.64,277.37C436.6,277.69 440.56,277.92 444.53,278.12Q448.49,278.32 456.43,278.55L456.43,278.98" style="vector-effect: non-scaling-stroke; stroke-width: 2px; stroke: rgb(88, 86, 132); stroke-opacity: 1; fill: rgb(88, 86, 132); fill-opacity: 0.5;"/><g class="points"><path class="point" transform="translate(29.75,271.32)" d="M2.5,0A2.5,2.5 0 1,1 0,-2.5A2.5,2.5 0 0,1 2.5,0Z" style="opacity: 1; stroke-width: 0px; fill: rgb(88, 86, 132); fill-opacity: 1;"/><path class="point" transform="translate(47.99,274.17)" d="M2.5,0A2.5,2.5 0 1,1 0,-2.5A2.5,2.5 0 0,1 2.5,0Z" style="opacity: 1; stroke-width: 0px; fill: rgb(88, 86, 132); fill-opacity: 1;"/><path class="point" transform="translate(117.58,270.45)" d="M2.5,0A2.5,2.5 0 1,1 0,-2.5A2.5,2.5 0 0,1 2.5,0Z" style="opacity: 1; stroke-width: 0px; fill: rgb(88, 86, 132); fill-opacity: 1;"/><path class="point" transform="translate(165.03,275)" d="M2.5,0A2.5,2.5 0 1,1 0,-2.5A2.5,2.5 0 0,1 2.5,0Z" style="opacity: 1; stroke-width: 0px; fill: rgb(88, 86, 132); fill-opacity: 1;"/><path class="point" transform="translate(197.49,273.3)" d="M2.5,0A2.5,2.5 0 1,1 0,-2.5A2.5,2.5 0 0,1 2.5,0Z" style="opacity: 1; stroke-width: 0px; fill: rgb(88, 86, 132); fill-opacity: 1;"/><path class="point" transform="translate(213.13,270.89)" d="M2.5,0A2.5,2.5 0 1,1 0,-2.5A2.5,2.5 0 0,1 2.5,0Z" style="opacity: 1; stroke-width: 0px; fill: rgb(88, 86, 132); fill-opacity: 1;"/><path class="point" transform="translate(224.74,272.68)" d="M2.5,0A2.5,2.5 0 1,1 0,-2.5A2.5,2.5 0 0,1 2.5,0Z" style="opacity: 1; stroke-width: 0px; fill: rgb(88, 86, 132); fill-opacity: 1;"/><path class="point" transform="translate(226.81,271.4)" d="M2.5,0A2.5,2.5 0 1,1 0,-2.5A2.5,2.5 0 0,1 2.5,0Z" style="opacity: 1; stroke-width: 0px; fill: rgb(88, 86, 132); fill-opacity: 1;"/><path class="point" transform="translate(231.04,274.12)" d="M2.5,0A2.5,2.5 0 1,1 0,-2.5A2.5,2.5 0 0,1 2.5,0Z" style="opacity: 1; stroke-width: 0px; fill: rgb(88, 86, 132); fill-opacity: 1;"/><path class="point" transform="translate(235.93,276.57)" d="M2.5,0A2.5,2.5 0 1,1 0,-2.5A2.5,2.5 0 0,1 2.5,0Z" style="opacity: 1; stroke-width: 0px; fill: rgb(88, 86, 132); fill-opacity: 1;"/><path class="point" transform="translate(236.58,270.95)" d="M2.5,0A2.5,2.5 0 1,1 0,-2.5A2.5,2.5 0 0,1 2.5,0Z" style="opacity: 1; stroke-width: 0px; fill: rgb(88, 86, 132); fill-opacity: 1;"/><path class="point" transform="translate(244.72,274.67)" d="M2.5,0A2.5,2.5 0 1,1 0,-2.5A2.5,2.5 0 0,1 2.5,0Z" style="opacity: 1; stroke-width: 0px; fill: rgb(88, 86, 132); fill-opacity: 1;"/><path class="point" transform="translate(247.22,268.68)" d="M2.5,0A2.5,2.5 0 1,1 0,-2.5A2.5,2.5 0 0,1 2.5,0Z" style="opacity: 1; stroke-width: 0px; fill: rgb(88, 86, 132); fill-opacity: 1;"/><path class="point" transform="translate(252.1,278.7)" d="M2.5,0A2.5,2.5 0 1,1 0,-2.5A2.5,2.5 0 0,1 2.5,0Z" style="opacity: 1; stroke-width: 0px; fill: rgb(88, 86, 132); fill-opacity: 1;"/><path class="point" transform="translate(267.41,276.27)" d="M2.5,0A2.5,2.5 0 1,1 0,-2.5A2.5,2.5 0 0,1 2.5,0Z" style="opacity: 1; stroke-width: 0px; fill: rgb(88, 86, 132); fill-opacity: 1;"/><path class="point" transform="translate(270.78,267.37)" d="M2.5,0A2.5,2.5 0 1,1 0,-2.5A2.5,2.5 0 0,1 2.5,0Z" style="opacity: 1; stroke-width: 0px; fill: rgb(88, 86, 132); fill-opacity: 1;"/><path class="point" transform="translate(275.55,274.1)" d="M2.5,0A2.5,2.5 0 1,1 0,-2.5A2.5,2.5 0 0,1 2.5,0Z" style="opacity: 1; stroke-width: 0px; fill: rgb(88, 86, 132); fill-opacity: 1;"/><path class="point" transform="translate(282.72,277.2)" d="M2.5,0A2.5,2.5 0 1,1 0,-2.5A2.5,2.5 0 0,1 2.5,0Z" style="opacity: 1; stroke-width: 0px; fill: rgb(88, 86, 132); fill-opacity: 1;"/><path class="point" transform="translate(283.59,274.36)" d="M2.5,0A2.5,2.5 0 1,1 0,-2.5A2.5,2.5 0 0,1 2.5,0Z" style="opacity: 1; stroke-width: 0px; fill: rgb(88, 86, 132); fill-opacity: 1;"/><path class="point" transform="translate(286.63,272.68)" d="M2.5,0A2.5,2.5 0 1,1 0,-2.5A2.5,2.5 0 0,1 2.5,0Z" style="opacity: 1; stroke-width: 0px; fill: rgb(88, 86, 132); fill-opacity: 1;"/><path class="point" transform="translate(297.27,270.13)" d="M2.5,0A2.5,2.5 0 1,1 0,-2.5A2.5,2.5 0 0,1 2.5,0Z" style="opacity: 1; stroke-width: 0px; fill: rgb(88, 86, 132); fill-opacity: 1;"/><path class="point" transform="translate(299.98,271.95)" d="M2.5,0A2.5,2.5 0 1,1 0,-2.5A2.5,2.5 0 0,1 2.5,0Z" style="opacity: 1; stroke-width: 0px; fill: rgb(88, 86, 132); fill-opacity: 1;"/><path class="point" transform="translate(318.55,274.12)" d="M2.5,0A2.5,2.5 0 1,1 0,-2.5A2.5,2.5 0 0,1 2.5,0Z" style="opacity: 1; stroke-width: 0px; fill: rgb(88, 86, 132); fill-opacity: 1;"/><path class="point" transform="translate(322.13,277.13)" d="M2.5,0A2.5,2.5 0 1,1 0,-2.5A2.5,2.5 0 0,1 2.5,0Z" style="opacity: 1; stroke-width: 0px; fill: rgb(88, 86, 132); fill-opacity: 1;"/><path class="point" transform="translate(329.51,272.57)" d="M2.5,0A2.5,2.5 0 1,1 0,-2.5A2.5,2.5 0 0,1 2.5,0Z" style="opacity: 1; stroke-width: 0px; fill: rgb(88, 86, 132); fill-opacity: 1;"/><path class="point" transform="translate(342.22,273.92)" d="M2.5,0A2.5,2.5 0 1,1 0,-2.5A2.5,2.5 0 0,1 2.5,0Z" style="opacity: 1; stroke-width: 0px; fill: rgb(88, 86, 132); fill-opacity: 1;"/><path class="point" transform="translate(345.91,270.48)" d="M2.5,0A2.5,2.5 0 1,1 0,-2.5A2.5,2.5 0 0,1 2.5,0Z" style="opacity: 1; stroke-width: 0px; fill: rgb(88, 86, 132); fill-opacity: 1;"/><path class="point" transform="translate(351.34,272.98)" d="M2.5,0A2.5,2.5 0 1,1 0,-2.5A2.5,2.5 0 0,1 2.5,0Z" style="opacity: 1; stroke-width: 0px; fill: rgb(88, 86, 132); fill-opacity: 1;"/><path class="point" transform="translate(353.51,275.52)" d="M2.5,0A2.5,2.5 0 1,1 0,-2.5A2.5,2.5 0 0,1 2.5,0Z" style="opacity: 1; stroke-width: 0px; fill: rgb(88, 86, 132); fill-opacity: 1;"/><path class="point" transform="translate(383.47,276.66)" d="M2.5,0A2.5,2.5 0 1,1 0,-2.5A2.5,2.5 0 0,1 2.5,0Z" style="opacity: 1; stroke-width: 0px; fill: rgb(88, 86, 132); fill-opacity: 1;"/></g></g><g class="trace violins" style="opacity: 1;"><path class="violin" d="M158.73,246.89L158.73,246.58Q164.33,246.42 167.13,246.32C169.93,246.21 172.73,246.09 175.53,245.95C178.33,245.81 181.13,245.65 183.93,245.49C186.73,245.33 189.53,245.17 192.33,245.01C195.13,244.86 197.93,244.7 200.73,244.56C203.53,244.42 206.33,244.29 209.13,244.15C211.93,244.01 214.73,243.9 217.53,243.71C220.33,243.52 223.13,243.34 225.93,243.02C228.73,242.7 231.54,242.33 234.33,241.8C237.14,241.27 239.95,240.61 242.73,239.83C245.55,239.04 248.34,238.09 251.13,237.09C253.95,236.08 256.74,234.92 259.53,233.79C262.34,232.65 265.12,231.42 267.93,230.29C270.72,229.17 273.52,228.04 276.33,227.03C279.12,226.03 281.92,225.09 284.73,224.24C287.52,223.4 290.32,222.66 293.13,221.97C295.92,221.28 298.73,220.68 301.53,220.09C304.33,219.5 307.13,218.96 309.93,218.44C312.73,217.92 315.53,217.43 318.33,216.98C321.13,216.54 323.93,216.11 326.73,215.77C329.53,215.44 332.33,215.13 335.13,214.97C337.93,214.81 340.73,214.72 343.53,214.8C346.33,214.88 349.14,215.07 351.93,215.44C354.74,215.81 357.55,216.35 360.33,217.02C363.15,217.7 365.95,218.57 368.73,219.5C371.55,220.45 374.34,221.55 377.13,222.67C379.94,223.8 382.73,225.04 385.53,226.24C388.33,227.44 391.12,228.68 393.93,229.85C396.72,231.01 399.52,232.16 402.33,233.22C405.12,234.27 407.92,235.28 410.73,236.19C413.52,237.1 416.32,237.93 419.13,238.69C421.92,239.45 424.72,240.13 427.53,240.76C430.32,241.39 433.12,241.95 435.93,242.46C438.73,242.97 441.53,243.42 444.33,243.82C447.13,244.22 449.93,244.57 452.73,244.88C455.53,245.19 458.33,245.44 461.13,245.66C463.93,245.88 466.73,246.05 469.53,246.2Q472.33,246.34 477.93,246.53L477.93,246.89" style="vector-effect: non-scaling-stroke; stroke-width: 2px; stroke: rgb(106, 80, 119); stroke-opacity: 1; fill: rgb(106, 80, 119); fill-opacity: 0.5;"/><g class="points"><path class="point" transform="translate(209.54,238.81)" d="M2.5,0A2.5,2.5 0 1,1 0,-2.5A2.5,2.5 0 0,1 2.5,0Z" style="opacity: 1; stroke-width: 0px; fill: rgb(106, 80, 119); fill-opacity: 1;"/><path class="point" transform="translate(269.04,242.69)" d="M2.5,0A2.5,2.5 0 1,1 0,-2.5A2.5,2.5 0 0,1 2.5,0Z" style="opacity: 1; stroke-width: 0px; fill: rgb(106, 80, 119); fill-opacity: 1;"/><path class="point" transform="translate(269.69,237.68)" d="M2.5,0A2.5,2.5 0 1,1 0,-2.5A2.5,2.5 0 0,1 2.5,0Z" style="opacity: 1; stroke-width: 0px; fill: rgb(106, 80, 119); fill-opacity: 1;"/><path class="point" transform="translate(276.21,243.44)" d="M2.5,0A2.5,2.5 0 1,1 0,-2.5A2.5,2.5 0 0,1 2.5,0Z" style="opacity: 1; stroke-width: 0px; fill: rgb(106, 80, 119); fill-opacity: 1;"/><path class="point" transform="translate(280.55,241.38)" d="M2.5,0A2.5,2.5 0 1,1 0,-2.5A2.5,2.5 0 0,1 2.5,0Z" style="opacity: 1; stroke-width: 0px; fill: rgb(106, 80, 119); fill-opacity: 1;"/><path class="point" transform="translate(284.57,238.49)" d="M2.5,0A2.5,2.5 0 1,1 0,-2.5A2.5,2.5 0 0,1 2.5,0Z" style="opacity: 1; stroke-width: 0px; fill: rgb(106, 80, 119); fill-opacity: 1;"/><path class="point" transform="translate(285.33,240.67)" d="M2.5,0A2.5,2.5 0 1,1 0,-2.5A2.5,2.5 0 0,1 2.5,0Z" style="opacity: 1; stroke-width: 0px; fill: rgb(106, 80, 119); fill-opacity: 1;"/><path class="point" transform="translate(292.27,238.86)" d="M2.5,0A2.5,2.5 0 1,1 0,-2.5A2.5,2.5 0 0,1 2.5,0Z" style="opacity: 1; stroke-width: 0px; fill: rgb(106, 80, 119); fill-opacity: 1;"/><path class="point" transform="translate(308.34,242.22)" d="M2.5,0A2.5,2.5 0 1,1 0,-2.5A2.5,2.5 0 0,1 2.5,0Z" style="opacity: 1; stroke-width: 0px; fill: rgb(106, 80, 119); fill-opacity: 1;"/><path class="point" transform="translate(309.1,244.5)" d="M2.5,0A2.5,2.5 0 1,1 0,-2.5A2.5,2.5 0 0,1 2.5,0Z" style="opacity: 1; stroke-width: 0px; fill: rgb(106, 80, 119); fill-opacity: 1;"/><path class="point" transform="translate(317.46,238.95)" d="M2.5,0A2.5,2.5 0 1,1 0,-2.5A2.5,2.5 0 0,1 2.5,0Z" style="opacity: 1; stroke-width: 0px; fill: rgb(106, 80, 119); fill-opacity: 1;"/><path class="point" transform="translate(318.77,242.15)" d="M2.5,0A2.5,2.5 0 1,1 0,-2.5A2.5,2.5 0 0,1 2.5,0Z" style="opacity: 1; stroke-width: 0px; fill: rgb(106, 80, 119); fill-opacity: 1;"/><path class="point" transform="translate(319.63,237.04)" d="M2.5,0A2.5,2.5 0 1,1 0,-2.5A2.5,2.5 0 0,1 2.5,0Z" style="opacity: 1; stroke-width: 0px; fill: rgb(106, 80, 119); fill-opacity: 1;"/><path class="point" transform="translate(326.8,246.4)" d="M2.5,0A2.5,2.5 0 1,1 0,-2.5A2.5,2.5 0 0,1 2.5,0Z" style="opacity: 1; stroke-width: 0px; fill: rgb(106, 80, 119); fill-opacity: 1;"/><path class="point" transform="translate(331.14,243.87)" d="M2.5,0A2.5,2.5 0 1,1 0,-2.5A2.5,2.5 0 0,1 2.5,0Z" style="opacity: 1; stroke-width: 0px; fill: rgb(106, 80, 119); fill-opacity: 1;"/><path class="point" transform="translate(332.01,234.98)" d="M2.5,0A2.5,2.5 0 1,1 0,-2.5A2.5,2.5 0 0,1 2.5,0Z" style="opacity: 1; stroke-width: 0px; fill: rgb(106, 80, 119); fill-opacity: 1;"/><path class="point" transform="translate(344.17,241.99)" d="M2.5,0A2.5,2.5 0 1,1 0,-2.5A2.5,2.5 0 0,1 2.5,0Z" style="opacity: 1; stroke-width: 0px; fill: rgb(106, 80, 119); fill-opacity: 1;"/><path class="point" transform="translate(344.61,245.68)" d="M2.5,0A2.5,2.5 0 1,1 0,-2.5A2.5,2.5 0 0,1 2.5,0Z" style="opacity: 1; stroke-width: 0px; fill: rgb(106, 80, 119); fill-opacity: 1;"/><path class="point" transform="translate(349.6,242.48)" d="M2.5,0A2.5,2.5 0 1,1 0,-2.5A2.5,2.5 0 0,1 2.5,0Z" style="opacity: 1; stroke-width: 0px; fill: rgb(106, 80, 119); fill-opacity: 1;"/><path class="point" transform="translate(353.29,240.61)" d="M2.5,0A2.5,2.5 0 1,1 0,-2.5A2.5,2.5 0 0,1 2.5,0Z" style="opacity: 1; stroke-width: 0px; fill: rgb(106, 80, 119); fill-opacity: 1;"/><path class="point" transform="translate(357.2,237.91)" d="M2.5,0A2.5,2.5 0 1,1 0,-2.5A2.5,2.5 0 0,1 2.5,0Z" style="opacity: 1; stroke-width: 0px; fill: rgb(106, 80, 119); fill-opacity: 1;"/><path class="point" transform="translate(360.46,239.78)" d="M2.5,0A2.5,2.5 0 1,1 0,-2.5A2.5,2.5 0 0,1 2.5,0Z" style="opacity: 1; stroke-width: 0px; fill: rgb(106, 80, 119); fill-opacity: 1;"/><path class="point" transform="translate(361.11,242.06)" d="M2.5,0A2.5,2.5 0 1,1 0,-2.5A2.5,2.5 0 0,1 2.5,0Z" style="opacity: 1; stroke-width: 0px; fill: rgb(106, 80, 119); fill-opacity: 1;"/><path class="point" transform="translate(368.17,244.88)" d="M2.5,0A2.5,2.5 0 1,1 0,-2.5A2.5,2.5 0 0,1 2.5,0Z" style="opacity: 1; stroke-width: 0px; fill: rgb(106, 80, 119); fill-opacity: 1;"/><path class="point" transform="translate(368.27,240.48)" d="M2.5,0A2.5,2.5 0 1,1 0,-2.5A2.5,2.5 0 0,1 2.5,0Z" style="opacity: 1; stroke-width: 0px; fill: rgb(106, 80, 119); fill-opacity: 1;"/><path class="point" transform="translate(379.24,241.76)" d="M2.5,0A2.5,2.5 0 1,1 0,-2.5A2.5,2.5 0 0,1 2.5,0Z" style="opacity: 1; stroke-width: 0px; fill: rgb(106, 80, 119); fill-opacity: 1;"/><path class="point" transform="translate(383.47,238.47)" d="M2.5,0A2.5,2.5 0 1,1 0,-2.5A2.5,2.5 0 0,1 2.5,0Z" style="opacity: 1; stroke-width: 0px; fill: rgb(106, 80, 119); fill-opacity: 1;"/><path class="point" transform="translate(392.49,240.83)" d="M2.5,0A2.5,2.5 0 1,1 0,-2.5A2.5,2.5 0 0,1 2.5,0Z" style="opacity: 1; stroke-width: 0px; fill: rgb(106, 80, 119); fill-opacity: 1;"/><path class="point" transform="translate(404.54,243.05)" d="M2.5,0A2.5,2.5 0 1,1 0,-2.5A2.5,2.5 0 0,1 2.5,0Z" style="opacity: 1; stroke-width: 0px; fill: rgb(106, 80, 119); fill-opacity: 1;"/><path class="point" transform="translate(427.12,243.83)" d="M2.5,0A2.5,2.5 0 1,1 0,-2.5A2.5,2.5 0 0,1 2.5,0Z" style="opacity: 1; stroke-width: 0px; fill: rgb(106, 80, 119); fill-opacity: 1;"/></g></g><g class="trace violins" style="opacity: 1;"><path class="violin" d="M100.75,214.8L100.75,214.49Q107.88,214.34 111.44,214.23C115,214.13 118.56,214 122.12,213.86C125.68,213.72 129.24,213.55 132.8,213.39C136.36,213.22 139.93,213.04 143.49,212.87C147.05,212.7 150.61,212.52 154.17,212.37C157.73,212.22 161.29,212.09 164.85,211.97C168.41,211.85 171.98,211.75 175.54,211.67C179.1,211.59 182.66,211.53 186.22,211.47C189.78,211.41 193.34,211.37 196.9,211.31C200.46,211.25 204.03,211.19 207.59,211.1C211.15,211.01 214.71,210.91 218.27,210.76C221.83,210.6 225.4,210.43 228.96,210.17C232.52,209.91 236.08,209.61 239.64,209.21C243.2,208.81 246.77,208.35 250.32,207.79C253.89,207.23 257.45,206.58 261.01,205.87C264.58,205.16 268.14,204.35 271.69,203.51C275.26,202.66 278.81,201.74 282.37,200.8C285.94,199.85 289.5,198.84 293.06,197.83C296.62,196.82 300.18,195.76 303.74,194.73C307.3,193.7 310.85,192.64 314.42,191.65C317.98,190.66 321.54,189.68 325.11,188.79C328.66,187.91 332.22,187.07 335.79,186.35C339.34,185.64 342.9,185.01 346.47,184.5C350.02,183.99 353.59,183.6 357.16,183.3C360.72,183 364.28,182.81 367.84,182.71C371.4,182.61 374.96,182.59 378.52,182.7C382.08,182.81 385.65,183.01 389.21,183.36C392.78,183.71 396.34,184.18 399.89,184.81C403.46,185.45 407.03,186.25 410.57,187.18C414.15,188.12 417.71,189.24 421.26,190.42C424.84,191.61 428.39,192.96 431.94,194.28C435.51,195.61 439.05,197.03 442.62,198.36C446.18,199.69 449.74,201.03 453.31,202.25C456.86,203.46 460.42,204.62 463.99,205.66C467.54,206.69 471.11,207.63 474.68,208.46C478.23,209.28 481.79,209.99 485.36,210.61C488.91,211.23 492.47,211.75 496.04,212.19C499.6,212.63 503.16,212.97 506.73,213.27C510.29,213.57 513.85,213.78 517.41,213.97Q520.97,214.15 528.09,214.38L528.09,214.8" style="vector-effect: non-scaling-stroke; stroke-width: 2px; stroke: rgb(124, 75, 106); stroke-opacity: 1; fill: rgb(124, 75, 106); fill-opacity: 0.5;"/><g class="points"><path class="point" transform="translate(165.68,207.08)" d="M2.5,0A2.5,2.5 0 1,1 0,-2.5A2.5,2.5 0 0,1 2.5,0Z" style="opacity: 1; stroke-width: 0px; fill: rgb(124, 75, 106); fill-opacity: 1;"/><path class="point" transform="translate(217.79,210.09)" d="M2.5,0A2.5,2.5 0 1,1 0,-2.5A2.5,2.5 0 0,1 2.5,0Z" style="opacity: 1; stroke-width: 0px; fill: rgb(124, 75, 106); fill-opacity: 1;"/><path class="point" transform="translate(273.27,206.15)" d="M2.5,0A2.5,2.5 0 1,1 0,-2.5A2.5,2.5 0 0,1 2.5,0Z" style="opacity: 1; stroke-width: 0px; fill: rgb(124, 75, 106); fill-opacity: 1;"/><path class="point" transform="translate(279.25,210.94)" d="M2.5,0A2.5,2.5 0 1,1 0,-2.5A2.5,2.5 0 0,1 2.5,0Z" style="opacity: 1; stroke-width: 0px; fill: rgb(124, 75, 106); fill-opacity: 1;"/><path class="point" transform="translate(289.45,209.13)" d="M2.5,0A2.5,2.5 0 1,1 0,-2.5A2.5,2.5 0 0,1 2.5,0Z" style="opacity: 1; stroke-width: 0px; fill: rgb(124, 75, 106); fill-opacity: 1;"/><path class="point" transform="translate(310.3,206.69)" d="M2.5,0A2.5,2.5 0 1,1 0,-2.5A2.5,2.5 0 0,1 2.5,0Z" style="opacity: 1; stroke-width: 0px; fill: rgb(124, 75, 106); fill-opacity: 1;"/><path class="point" transform="translate(316.59,208.52)" d="M2.5,0A2.5,2.5 0 1,1 0,-2.5A2.5,2.5 0 0,1 2.5,0Z" style="opacity: 1; stroke-width: 0px; fill: rgb(124, 75, 106); fill-opacity: 1;"/><path class="point" transform="translate(319.42,206.93)" d="M2.5,0A2.5,2.5 0 1,1 0,-2.5A2.5,2.5 0 0,1 2.5,0Z" style="opacity: 1; stroke-width: 0px; fill: rgb(124, 75, 106); fill-opacity: 1;"/><path class="point" transform="translate(322.67,209.91)" d="M2.5,0A2.5,2.5 0 1,1 0,-2.5A2.5,2.5 0 0,1 2.5,0Z" style="opacity: 1; stroke-width: 0px; fill: rgb(124, 75, 106); fill-opacity: 1;"/><path class="point" transform="translate(341.24,212.14)" d="M2.5,0A2.5,2.5 0 1,1 0,-2.5A2.5,2.5 0 0,1 2.5,0Z" style="opacity: 1; stroke-width: 0px; fill: rgb(124, 75, 106); fill-opacity: 1;"/><path class="point" transform="translate(341.35,206.74)" d="M2.5,0A2.5,2.5 0 1,1 0,-2.5A2.5,2.5 0 0,1 2.5,0Z" style="opacity: 1; stroke-width: 0px; fill: rgb(124, 75, 106); fill-opacity: 1;"/><path class="point" transform="translate(344.93,210.4)" d="M2.5,0A2.5,2.5 0 1,1 0,-2.5A2.5,2.5 0 0,1 2.5,0Z" style="opacity: 1; stroke-width: 0px; fill: rgb(124, 75, 106); fill-opacity: 1;"/><path class="point" transform="translate(345.58,204.72)" d="M2.5,0A2.5,2.5 0 1,1 0,-2.5A2.5,2.5 0 0,1 2.5,0Z" style="opacity: 1; stroke-width: 0px; fill: rgb(124, 75, 106); fill-opacity: 1;"/><path class="point" transform="translate(357.42,213.6)" d="M2.5,0A2.5,2.5 0 1,1 0,-2.5A2.5,2.5 0 0,1 2.5,0Z" style="opacity: 1; stroke-width: 0px; fill: rgb(124, 75, 106); fill-opacity: 1;"/><path class="point" transform="translate(357.85,211.64)" d="M2.5,0A2.5,2.5 0 1,1 0,-2.5A2.5,2.5 0 0,1 2.5,0Z" style="opacity: 1; stroke-width: 0px; fill: rgb(124, 75, 106); fill-opacity: 1;"/><path class="point" transform="translate(358.18,203.4)" d="M2.5,0A2.5,2.5 0 1,1 0,-2.5A2.5,2.5 0 0,1 2.5,0Z" style="opacity: 1; stroke-width: 0px; fill: rgb(124, 75, 106); fill-opacity: 1;"/><path class="point" transform="translate(364.58,209.81)" d="M2.5,0A2.5,2.5 0 1,1 0,-2.5A2.5,2.5 0 0,1 2.5,0Z" style="opacity: 1; stroke-width: 0px; fill: rgb(124, 75, 106); fill-opacity: 1;"/><path class="point" transform="translate(373.81,213.28)" d="M2.5,0A2.5,2.5 0 1,1 0,-2.5A2.5,2.5 0 0,1 2.5,0Z" style="opacity: 1; stroke-width: 0px; fill: rgb(124, 75, 106); fill-opacity: 1;"/><path class="point" transform="translate(385.43,210.5)" d="M2.5,0A2.5,2.5 0 1,1 0,-2.5A2.5,2.5 0 0,1 2.5,0Z" style="opacity: 1; stroke-width: 0px; fill: rgb(124, 75, 106); fill-opacity: 1;"/><path class="point" transform="translate(397.91,208.5)" d="M2.5,0A2.5,2.5 0 1,1 0,-2.5A2.5,2.5 0 0,1 2.5,0Z" style="opacity: 1; stroke-width: 0px; fill: rgb(124, 75, 106); fill-opacity: 1;"/><path class="point" transform="translate(398.46,205.87)" d="M2.5,0A2.5,2.5 0 1,1 0,-2.5A2.5,2.5 0 0,1 2.5,0Z" style="opacity: 1; stroke-width: 0px; fill: rgb(124, 75, 106); fill-opacity: 1;"/><path class="point" transform="translate(400.19,207.75)" d="M2.5,0A2.5,2.5 0 1,1 0,-2.5A2.5,2.5 0 0,1 2.5,0Z" style="opacity: 1; stroke-width: 0px; fill: rgb(124, 75, 106); fill-opacity: 1;"/><path class="point" transform="translate(401.06,210.06)" d="M2.5,0A2.5,2.5 0 1,1 0,-2.5A2.5,2.5 0 0,1 2.5,0Z" style="opacity: 1; stroke-width: 0px; fill: rgb(124, 75, 106); fill-opacity: 1;"/><path class="point" transform="translate(401.28,213.04)" d="M2.5,0A2.5,2.5 0 1,1 0,-2.5A2.5,2.5 0 0,1 2.5,0Z" style="opacity: 1; stroke-width: 0px; fill: rgb(124, 75, 106); fill-opacity: 1;"/><path class="point" transform="translate(408.45,208.39)" d="M2.5,0A2.5,2.5 0 1,1 0,-2.5A2.5,2.5 0 0,1 2.5,0Z" style="opacity: 1; stroke-width: 0px; fill: rgb(124, 75, 106); fill-opacity: 1;"/><path class="point" transform="translate(416.48,209.84)" d="M2.5,0A2.5,2.5 0 1,1 0,-2.5A2.5,2.5 0 0,1 2.5,0Z" style="opacity: 1; stroke-width: 0px; fill: rgb(124, 75, 106); fill-opacity: 1;"/><path class="point" transform="translate(421.37,206.15)" d="M2.5,0A2.5,2.5 0 1,1 0,-2.5A2.5,2.5 0 0,1 2.5,0Z" style="opacity: 1; stroke-width: 0px; fill: rgb(124, 75, 106); fill-opacity: 1;"/><path class="point" transform="translate(424.51,208.78)" d="M2.5,0A2.5,2.5 0 1,1 0,-2.5A2.5,2.5 0 0,1 2.5,0Z" style="opacity: 1; stroke-width: 0px; fill: rgb(124, 75, 106); fill-opacity: 1;"/><path class="point" transform="translate(443.51,211.12)" d="M2.5,0A2.5,2.5 0 1,1 0,-2.5A2.5,2.5 0 0,1 2.5,0Z" style="opacity: 1; stroke-width: 0px; fill: rgb(124, 75, 106); fill-opacity: 1;"/><path class="point" transform="translate(463.17,212.17)" d="M2.5,0A2.5,2.5 0 1,1 0,-2.5A2.5,2.5 0 0,1 2.5,0Z" style="opacity: 1; stroke-width: 0px; fill: rgb(124, 75, 106); fill-opacity: 1;"/></g></g><g class="trace violins" style="opacity: 1;"><path class="violin" d="M222.4,182.7L222.4,182.32Q228.69,182.13 231.84,181.98C234.99,181.83 238.14,181.65 241.29,181.43C244.44,181.21 247.59,180.94 250.73,180.64C253.88,180.33 257.03,179.99 260.17,179.6C263.32,179.21 266.47,178.77 269.62,178.29C272.77,177.8 275.92,177.29 279.06,176.69C282.21,176.09 285.36,175.44 288.5,174.68C291.66,173.92 294.82,173.09 297.95,172.13C301.11,171.16 304.26,170.08 307.39,168.91C310.55,167.73 313.69,166.4 316.83,165.07C319.99,163.73 323.13,162.25 326.28,160.88C329.42,159.51 332.55,158.08 335.72,156.86C338.85,155.65 341.99,154.48 345.17,153.58C348.29,152.69 351.45,151.97 354.61,151.47C357.74,150.98 360.9,150.73 364.05,150.61C367.2,150.49 370.35,150.63 373.5,150.76C376.65,150.89 379.79,151.19 382.94,151.42C386.09,151.65 389.23,151.93 392.38,152.16C395.53,152.39 398.68,152.57 401.83,152.79C404.98,153.01 408.13,153.17 411.27,153.47C414.42,153.77 417.57,154.09 420.71,154.6C423.87,155.12 427.03,155.75 430.16,156.57C433.33,157.4 436.47,158.43 439.6,159.55C442.77,160.69 445.91,162.04 449.05,163.36C452.21,164.69 455.34,166.16 458.49,167.5C461.63,168.83 464.76,170.21 467.93,171.39C471.06,172.56 474.21,173.65 477.38,174.56C480.51,175.45 483.66,176.2 486.82,176.8C489.95,177.4 493.11,177.83 496.26,178.18C499.4,178.53 502.56,178.73 505.71,178.91C508.86,179.09 512,179.18 515.15,179.26C518.3,179.34 521.44,179.37 524.59,179.41C527.74,179.45 530.89,179.47 534.04,179.5C537.19,179.53 540.33,179.55 543.48,179.58C546.63,179.62 549.78,179.65 552.93,179.71C556.08,179.77 559.22,179.84 562.37,179.94C565.52,180.04 568.66,180.17 571.81,180.31C574.96,180.45 578.11,180.62 581.26,180.78C584.41,180.94 587.55,181.12 590.7,181.28C593.85,181.44 596.99,181.61 600.14,181.75C603.29,181.89 606.44,182.02 609.59,182.13Q612.74,182.24 619.03,182.39L619.03,182.7" style="vector-effect: non-scaling-stroke; stroke-width: 2px; stroke: rgb(142, 70, 92); stroke-opacity: 1; fill: rgb(142, 70, 92); fill-opacity: 0.5;"/><g class="points"><path class="point" transform="translate(280.33,174.46)" d="M2.5,0A2.5,2.5 0 1,1 0,-2.5A2.5,2.5 0 0,1 2.5,0Z" style="opacity: 1; stroke-width: 0px; fill: rgb(142, 70, 92); fill-opacity: 1;"/><path class="point" transform="translate(300.42,178.71)" d="M2.5,0A2.5,2.5 0 1,1 0,-2.5A2.5,2.5 0 0,1 2.5,0Z" style="opacity: 1; stroke-width: 0px; fill: rgb(142, 70, 92); fill-opacity: 1;"/><path class="point" transform="translate(329.84,173.27)" d="M2.5,0A2.5,2.5 0 1,1 0,-2.5A2.5,2.5 0 0,1 2.5,0Z" style="opacity: 1; stroke-width: 0px; fill: rgb(142, 70, 92); fill-opacity: 1;"/><path class="point" transform="translate(333.64,179.7)" d="M2.5,0A2.5,2.5 0 1,1 0,-2.5A2.5,2.5 0 0,1 2.5,0Z" style="opacity: 1; stroke-width: 0px; fill: rgb(142, 70, 92); fill-opacity: 1;"/><path class="point" transform="translate(338.53,177.34)" d="M2.5,0A2.5,2.5 0 1,1 0,-2.5A2.5,2.5 0 0,1 2.5,0Z" style="opacity: 1; stroke-width: 0px; fill: rgb(142, 70, 92); fill-opacity: 1;"/><path class="point" transform="translate(342.22,173.96)" d="M2.5,0A2.5,2.5 0 1,1 0,-2.5A2.5,2.5 0 0,1 2.5,0Z" style="opacity: 1; stroke-width: 0px; fill: rgb(142, 70, 92); fill-opacity: 1;"/><path class="point" transform="translate(343.74,176.46)" d="M2.5,0A2.5,2.5 0 1,1 0,-2.5A2.5,2.5 0 0,1 2.5,0Z" style="opacity: 1; stroke-width: 0px; fill: rgb(142, 70, 92); fill-opacity: 1;"/><path class="point" transform="translate(351.23,174.44)" d="M2.5,0A2.5,2.5 0 1,1 0,-2.5A2.5,2.5 0 0,1 2.5,0Z" style="opacity: 1; stroke-width: 0px; fill: rgb(142, 70, 92); fill-opacity: 1;"/><path class="point" transform="translate(355.68,178.3)" d="M2.5,0A2.5,2.5 0 1,1 0,-2.5A2.5,2.5 0 0,1 2.5,0Z" style="opacity: 1; stroke-width: 0px; fill: rgb(142, 70, 92); fill-opacity: 1;"/><path class="point" transform="translate(356.33,180.99)" d="M2.5,0A2.5,2.5 0 1,1 0,-2.5A2.5,2.5 0 0,1 2.5,0Z" style="opacity: 1; stroke-width: 0px; fill: rgb(142, 70, 92); fill-opacity: 1;"/><path class="point" transform="translate(358.39,174.66)" d="M2.5,0A2.5,2.5 0 1,1 0,-2.5A2.5,2.5 0 0,1 2.5,0Z" style="opacity: 1; stroke-width: 0px; fill: rgb(142, 70, 92); fill-opacity: 1;"/><path class="point" transform="translate(367.62,178.03)" d="M2.5,0A2.5,2.5 0 1,1 0,-2.5A2.5,2.5 0 0,1 2.5,0Z" style="opacity: 1; stroke-width: 0px; fill: rgb(142, 70, 92); fill-opacity: 1;"/><path class="point" transform="translate(367.84,172.82)" d="M2.5,0A2.5,2.5 0 1,1 0,-2.5A2.5,2.5 0 0,1 2.5,0Z" style="opacity: 1; stroke-width: 0px; fill: rgb(142, 70, 92); fill-opacity: 1;"/><path class="point" transform="translate(372.07,181.58)" d="M2.5,0A2.5,2.5 0 1,1 0,-2.5A2.5,2.5 0 0,1 2.5,0Z" style="opacity: 1; stroke-width: 0px; fill: rgb(142, 70, 92); fill-opacity: 1;"/><path class="point" transform="translate(375.77,179.28)" d="M2.5,0A2.5,2.5 0 1,1 0,-2.5A2.5,2.5 0 0,1 2.5,0Z" style="opacity: 1; stroke-width: 0px; fill: rgb(142, 70, 92); fill-opacity: 1;"/><path class="point" transform="translate(383.8,171.95)" d="M2.5,0A2.5,2.5 0 1,1 0,-2.5A2.5,2.5 0 0,1 2.5,0Z" style="opacity: 1; stroke-width: 0px; fill: rgb(142, 70, 92); fill-opacity: 1;"/><path class="point" transform="translate(398.46,177.6)" d="M2.5,0A2.5,2.5 0 1,1 0,-2.5A2.5,2.5 0 0,1 2.5,0Z" style="opacity: 1; stroke-width: 0px; fill: rgb(142, 70, 92); fill-opacity: 1;"/><path class="point" transform="translate(402.69,180.77)" d="M2.5,0A2.5,2.5 0 1,1 0,-2.5A2.5,2.5 0 0,1 2.5,0Z" style="opacity: 1; stroke-width: 0px; fill: rgb(142, 70, 92); fill-opacity: 1;"/><path class="point" transform="translate(407.58,177.97)" d="M2.5,0A2.5,2.5 0 1,1 0,-2.5A2.5,2.5 0 0,1 2.5,0Z" style="opacity: 1; stroke-width: 0px; fill: rgb(142, 70, 92); fill-opacity: 1;"/><path class="point" transform="translate(413.66,176.39)" d="M2.5,0A2.5,2.5 0 1,1 0,-2.5A2.5,2.5 0 0,1 2.5,0Z" style="opacity: 1; stroke-width: 0px; fill: rgb(142, 70, 92); fill-opacity: 1;"/><path class="point" transform="translate(422.13,173.92)" d="M2.5,0A2.5,2.5 0 1,1 0,-2.5A2.5,2.5 0 0,1 2.5,0Z" style="opacity: 1; stroke-width: 0px; fill: rgb(142, 70, 92); fill-opacity: 1;"/><path class="point" transform="translate(423.86,175.63)" d="M2.5,0A2.5,2.5 0 1,1 0,-2.5A2.5,2.5 0 0,1 2.5,0Z" style="opacity: 1; stroke-width: 0px; fill: rgb(142, 70, 92); fill-opacity: 1;"/><path class="point" transform="translate(424.08,177.9)" d="M2.5,0A2.5,2.5 0 1,1 0,-2.5A2.5,2.5 0 0,1 2.5,0Z" style="opacity: 1; stroke-width: 0px; fill: rgb(142, 70, 92); fill-opacity: 1;"/><path class="point" transform="translate(431.03,179.52)" d="M2.5,0A2.5,2.5 0 1,1 0,-2.5A2.5,2.5 0 0,1 2.5,0Z" style="opacity: 1; stroke-width: 0px; fill: rgb(142, 70, 92); fill-opacity: 1;"/><path class="point" transform="translate(438.85,176.3)" d="M2.5,0A2.5,2.5 0 1,1 0,-2.5A2.5,2.5 0 0,1 2.5,0Z" style="opacity: 1; stroke-width: 0px; fill: rgb(142, 70, 92); fill-opacity: 1;"/><path class="point" transform="translate(439.17,177.21)" d="M2.5,0A2.5,2.5 0 1,1 0,-2.5A2.5,2.5 0 0,1 2.5,0Z" style="opacity: 1; stroke-width: 0px; fill: rgb(142, 70, 92); fill-opacity: 1;"/><path class="point" transform="translate(442.75,174.89)" d="M2.5,0A2.5,2.5 0 1,1 0,-2.5A2.5,2.5 0 0,1 2.5,0Z" style="opacity: 1; stroke-width: 0px; fill: rgb(142, 70, 92); fill-opacity: 1;"/><path class="point" transform="translate(449.49,176.53)" d="M2.5,0A2.5,2.5 0 1,1 0,-2.5A2.5,2.5 0 0,1 2.5,0Z" style="opacity: 1; stroke-width: 0px; fill: rgb(142, 70, 92); fill-opacity: 1;"/><path class="point" transform="translate(509.85,178.03)" d="M2.5,0A2.5,2.5 0 1,1 0,-2.5A2.5,2.5 0 0,1 2.5,0Z" style="opacity: 1; stroke-width: 0px; fill: rgb(142, 70, 92); fill-opacity: 1;"/><path class="point" transform="translate(561.1,178.62)" d="M2.5,0A2.5,2.5 0 1,1 0,-2.5A2.5,2.5 0 0,1 2.5,0Z" style="opacity: 1; stroke-width: 0px; fill: rgb(142, 70, 92); fill-opacity: 1;"/></g></g><g class="trace violins" style="opacity: 1;"><path class="violin" d="M204.78,150.61L204.78,150.21Q210.57,150 213.47,149.84C216.37,149.68 219.26,149.49 222.16,149.27C225.06,149.05 227.96,148.79 230.86,148.53C233.76,148.26 236.65,147.96 239.55,147.68C242.45,147.4 245.34,147.11 248.24,146.86C251.14,146.61 254.04,146.39 256.94,146.2C259.84,146.01 262.73,145.87 265.63,145.73C268.53,145.59 271.42,145.51 274.32,145.36C277.22,145.21 280.12,145.08 283.02,144.84C285.92,144.6 288.82,144.32 291.71,143.91C294.61,143.5 297.51,143 300.4,142.4C303.31,141.8 306.21,141.07 309.1,140.31C312.01,139.55 314.9,138.68 317.79,137.82C320.69,136.96 323.58,136.04 326.48,135.16C329.38,134.28 332.28,133.38 335.18,132.52C338.08,131.66 340.97,130.82 343.87,129.98C346.77,129.15 349.66,128.32 352.56,127.51C355.46,126.7 358.36,125.89 361.26,125.1C364.16,124.31 367.05,123.52 369.95,122.79C372.84,122.06 375.73,121.34 378.64,120.74C381.53,120.15 384.43,119.59 387.34,119.22C390.23,118.85 393.13,118.57 396.03,118.52C398.93,118.47 401.83,118.58 404.72,118.91C407.63,119.25 410.54,119.8 413.42,120.54C416.34,121.29 419.24,122.28 422.11,123.38C425.03,124.5 427.92,125.84 430.8,127.2C433.72,128.58 436.6,130.12 439.5,131.59C442.4,133.06 445.28,134.63 448.19,136.04C451.07,137.44 453.96,138.82 456.88,140.02C459.76,141.2 462.66,142.29 465.58,143.19C468.46,144.08 471.36,144.8 474.27,145.4C477.15,145.99 480.06,146.4 482.96,146.76C485.85,147.11 488.76,147.32 491.66,147.53C494.56,147.74 497.45,147.86 500.35,148.01C503.25,148.16 506.14,148.27 509.04,148.41C511.94,148.55 514.84,148.7 517.74,148.85C520.64,149 523.53,149.16 526.43,149.31C529.33,149.46 532.22,149.61 535.12,149.74C538.02,149.87 540.92,149.98 543.82,150.08Q546.72,150.18 552.51,150.33L552.51,150.61" style="vector-effect: non-scaling-stroke; stroke-width: 2px; stroke: rgb(160, 64, 79); stroke-opacity: 1; fill: rgb(160, 64, 79); fill-opacity: 0.5;"/><g class="points"><path class="point" transform="translate(257.1,142.62)" d="M2.5,0A2.5,2.5 0 1,1 0,-2.5A2.5,2.5 0 0,1 2.5,0Z" style="opacity: 1; stroke-width: 0px; fill: rgb(160, 64, 79); fill-opacity: 1;"/><path class="point" transform="translate(267.74,146.11)" d="M2.5,0A2.5,2.5 0 1,1 0,-2.5A2.5,2.5 0 0,1 2.5,0Z" style="opacity: 1; stroke-width: 0px; fill: rgb(160, 64, 79); fill-opacity: 1;"/><path class="point" transform="translate(314.97,141.69)" d="M2.5,0A2.5,2.5 0 1,1 0,-2.5A2.5,2.5 0 0,1 2.5,0Z" style="opacity: 1; stroke-width: 0px; fill: rgb(160, 64, 79); fill-opacity: 1;"/><path class="point" transform="translate(326.8,147.03)" d="M2.5,0A2.5,2.5 0 1,1 0,-2.5A2.5,2.5 0 0,1 2.5,0Z" style="opacity: 1; stroke-width: 0px; fill: rgb(160, 64, 79); fill-opacity: 1;"/><path class="point" transform="translate(327.23,145.05)" d="M2.5,0A2.5,2.5 0 1,1 0,-2.5A2.5,2.5 0 0,1 2.5,0Z" style="opacity: 1; stroke-width: 0px; fill: rgb(160, 64, 79); fill-opacity: 1;"/><path class="point" transform="translate(331.58,142.36)" d="M2.5,0A2.5,2.5 0 1,1 0,-2.5A2.5,2.5 0 0,1 2.5,0Z" style="opacity: 1; stroke-width: 0px; fill: rgb(160, 64, 79); fill-opacity: 1;"/><path class="point" transform="translate(348.95,144.33)" d="M2.5,0A2.5,2.5 0 1,1 0,-2.5A2.5,2.5 0 0,1 2.5,0Z" style="opacity: 1; stroke-width: 0px; fill: rgb(160, 64, 79); fill-opacity: 1;"/><path class="point" transform="translate(349.17,142.85)" d="M2.5,0A2.5,2.5 0 1,1 0,-2.5A2.5,2.5 0 0,1 2.5,0Z" style="opacity: 1; stroke-width: 0px; fill: rgb(160, 64, 79); fill-opacity: 1;"/><path class="point" transform="translate(354.92,145.81)" d="M2.5,0A2.5,2.5 0 1,1 0,-2.5A2.5,2.5 0 0,1 2.5,0Z" style="opacity: 1; stroke-width: 0px; fill: rgb(160, 64, 79); fill-opacity: 1;"/><path class="point" transform="translate(359.48,147.76)" d="M2.5,0A2.5,2.5 0 1,1 0,-2.5A2.5,2.5 0 0,1 2.5,0Z" style="opacity: 1; stroke-width: 0px; fill: rgb(160, 64, 79); fill-opacity: 1;"/><path class="point" transform="translate(370.12,142.87)" d="M2.5,0A2.5,2.5 0 1,1 0,-2.5A2.5,2.5 0 0,1 2.5,0Z" style="opacity: 1; stroke-width: 0px; fill: rgb(160, 64, 79); fill-opacity: 1;"/><path class="point" transform="translate(376.96,146.01)" d="M2.5,0A2.5,2.5 0 1,1 0,-2.5A2.5,2.5 0 0,1 2.5,0Z" style="opacity: 1; stroke-width: 0px; fill: rgb(160, 64, 79); fill-opacity: 1;"/><path class="point" transform="translate(379.35,140.79)" d="M2.5,0A2.5,2.5 0 1,1 0,-2.5A2.5,2.5 0 0,1 2.5,0Z" style="opacity: 1; stroke-width: 0px; fill: rgb(160, 64, 79); fill-opacity: 1;"/><path class="point" transform="translate(380.43,149.42)" d="M2.5,0A2.5,2.5 0 1,1 0,-2.5A2.5,2.5 0 0,1 2.5,0Z" style="opacity: 1; stroke-width: 0px; fill: rgb(160, 64, 79); fill-opacity: 1;"/><path class="point" transform="translate(385.54,147.34)" d="M2.5,0A2.5,2.5 0 1,1 0,-2.5A2.5,2.5 0 0,1 2.5,0Z" style="opacity: 1; stroke-width: 0px; fill: rgb(160, 64, 79); fill-opacity: 1;"/><path class="point" transform="translate(387.6,138.73)" d="M2.5,0A2.5,2.5 0 1,1 0,-2.5A2.5,2.5 0 0,1 2.5,0Z" style="opacity: 1; stroke-width: 0px; fill: rgb(160, 64, 79); fill-opacity: 1;"/><path class="point" transform="translate(394.11,145.71)" d="M2.5,0A2.5,2.5 0 1,1 0,-2.5A2.5,2.5 0 0,1 2.5,0Z" style="opacity: 1; stroke-width: 0px; fill: rgb(160, 64, 79); fill-opacity: 1;"/><path class="point" transform="translate(396.83,149.53)" d="M2.5,0A2.5,2.5 0 1,1 0,-2.5A2.5,2.5 0 0,1 2.5,0Z" style="opacity: 1; stroke-width: 0px; fill: rgb(160, 64, 79); fill-opacity: 1;"/><path class="point" transform="translate(402.8,146.19)" d="M2.5,0A2.5,2.5 0 1,1 0,-2.5A2.5,2.5 0 0,1 2.5,0Z" style="opacity: 1; stroke-width: 0px; fill: rgb(160, 64, 79); fill-opacity: 1;"/><path class="point" transform="translate(406.06,144.33)" d="M2.5,0A2.5,2.5 0 1,1 0,-2.5A2.5,2.5 0 0,1 2.5,0Z" style="opacity: 1; stroke-width: 0px; fill: rgb(160, 64, 79); fill-opacity: 1;"/><path class="point" transform="translate(406.17,141.6)" d="M2.5,0A2.5,2.5 0 1,1 0,-2.5A2.5,2.5 0 0,1 2.5,0Z" style="opacity: 1; stroke-width: 0px; fill: rgb(160, 64, 79); fill-opacity: 1;"/><path class="point" transform="translate(414.74,143.54)" d="M2.5,0A2.5,2.5 0 1,1 0,-2.5A2.5,2.5 0 0,1 2.5,0Z" style="opacity: 1; stroke-width: 0px; fill: rgb(160, 64, 79); fill-opacity: 1;"/><path class="point" transform="translate(414.96,145.82)" d="M2.5,0A2.5,2.5 0 1,1 0,-2.5A2.5,2.5 0 0,1 2.5,0Z" style="opacity: 1; stroke-width: 0px; fill: rgb(160, 64, 79); fill-opacity: 1;"/><path class="point" transform="translate(418.43,149.21)" d="M2.5,0A2.5,2.5 0 1,1 0,-2.5A2.5,2.5 0 0,1 2.5,0Z" style="opacity: 1; stroke-width: 0px; fill: rgb(160, 64, 79); fill-opacity: 1;"/><path class="point" transform="translate(418.98,144.21)" d="M2.5,0A2.5,2.5 0 1,1 0,-2.5A2.5,2.5 0 0,1 2.5,0Z" style="opacity: 1; stroke-width: 0px; fill: rgb(160, 64, 79); fill-opacity: 1;"/><path class="point" transform="translate(429.07,145.26)" d="M2.5,0A2.5,2.5 0 1,1 0,-2.5A2.5,2.5 0 0,1 2.5,0Z" style="opacity: 1; stroke-width: 0px; fill: rgb(160, 64, 79); fill-opacity: 1;"/><path class="point" transform="translate(433.74,142.52)" d="M2.5,0A2.5,2.5 0 1,1 0,-2.5A2.5,2.5 0 0,1 2.5,0Z" style="opacity: 1; stroke-width: 0px; fill: rgb(160, 64, 79); fill-opacity: 1;"/><path class="point" transform="translate(438.3,144.49)" d="M2.5,0A2.5,2.5 0 1,1 0,-2.5A2.5,2.5 0 0,1 2.5,0Z" style="opacity: 1; stroke-width: 0px; fill: rgb(160, 64, 79); fill-opacity: 1;"/><path class="point" transform="translate(441.02,146.28)" d="M2.5,0A2.5,2.5 0 1,1 0,-2.5A2.5,2.5 0 0,1 2.5,0Z" style="opacity: 1; stroke-width: 0px; fill: rgb(160, 64, 79); fill-opacity: 1;"/><path class="point" transform="translate(500.19,146.91)" d="M2.5,0A2.5,2.5 0 1,1 0,-2.5A2.5,2.5 0 0,1 2.5,0Z" style="opacity: 1; stroke-width: 0px; fill: rgb(160, 64, 79); fill-opacity: 1;"/></g></g><g class="trace violins" style="opacity: 1;"><path class="violin" d="M214,118.52L214,118.12Q219.93,117.91 222.9,117.76C225.87,117.61 228.83,117.43 231.8,117.21C234.77,116.99 237.73,116.73 240.7,116.46C243.67,116.19 246.64,115.89 249.61,115.59C252.58,115.3 255.54,114.97 258.51,114.69C261.48,114.41 264.44,114.14 267.41,113.89C270.38,113.65 273.34,113.44 276.31,113.22C279.28,113 282.25,112.83 285.22,112.58C288.19,112.33 291.16,112.09 294.12,111.7C297.09,111.31 300.07,110.86 303.02,110.23C306,109.59 308.98,108.82 311.93,107.9C314.92,106.97 317.88,105.85 320.83,104.68C323.81,103.5 326.77,102.14 329.73,100.85C332.7,99.55 335.65,98.16 338.63,96.91C341.59,95.67 344.55,94.43 347.54,93.37C350.49,92.33 353.46,91.38 356.44,90.59C359.39,89.81 362.36,89.19 365.34,88.67C368.3,88.15 371.28,87.79 374.25,87.47C377.21,87.15 380.18,86.94 383.15,86.77C386.11,86.6 389.08,86.48 392.05,86.43C395.02,86.38 397.98,86.37 400.95,86.48C403.92,86.59 406.9,86.77 409.86,87.11C412.84,87.45 415.81,87.91 418.76,88.53C421.74,89.16 424.71,89.96 427.66,90.88C430.65,91.81 433.62,92.93 436.57,94.08C439.55,95.25 442.51,96.57 445.47,97.85C448.44,99.13 451.39,100.5 454.37,101.75C457.33,102.99 460.28,104.24 463.27,105.3C466.22,106.35 469.19,107.32 472.18,108.09C475.13,108.85 478.1,109.46 481.08,109.93C484.04,110.39 487.01,110.67 489.98,110.88C492.95,111.09 495.92,111.13 498.89,111.2C501.86,111.27 504.82,111.25 507.79,111.3C510.76,111.35 513.72,111.39 516.69,111.52C519.66,111.65 522.62,111.83 525.59,112.07C528.56,112.31 531.53,112.63 534.5,112.97C537.47,113.31 540.43,113.72 543.4,114.1C546.37,114.49 549.33,114.91 552.3,115.28C555.27,115.65 558.23,116.01 561.2,116.33C564.17,116.64 567.14,116.93 570.11,117.17C573.08,117.41 576.04,117.6 579.01,117.76Q581.98,117.92 587.91,118.13L587.91,118.52" style="vector-effect: non-scaling-stroke; stroke-width: 2px; stroke: rgb(179, 59, 66); stroke-opacity: 1; fill: rgb(179, 59, 66); fill-opacity: 0.5;"/><g class="points"><path class="point" transform="translate(268.39,110.33)" d="M2.5,0A2.5,2.5 0 1,1 0,-2.5A2.5,2.5 0 0,1 2.5,0Z" style="opacity: 1; stroke-width: 0px; fill: rgb(179, 59, 66); fill-opacity: 1;"/><path class="point" transform="translate(285.76,114.43)" d="M2.5,0A2.5,2.5 0 1,1 0,-2.5A2.5,2.5 0 0,1 2.5,0Z" style="opacity: 1; stroke-width: 0px; fill: rgb(179, 59, 66); fill-opacity: 1;"/><path class="point" transform="translate(336.57,109.25)" d="M2.5,0A2.5,2.5 0 1,1 0,-2.5A2.5,2.5 0 0,1 2.5,0Z" style="opacity: 1; stroke-width: 0px; fill: rgb(179, 59, 66); fill-opacity: 1;"/><path class="point" transform="translate(341.46,115.42)" d="M2.5,0A2.5,2.5 0 1,1 0,-2.5A2.5,2.5 0 0,1 2.5,0Z" style="opacity: 1; stroke-width: 0px; fill: rgb(179, 59, 66); fill-opacity: 1;"/><path class="point" transform="translate(343.09,113.11)" d="M2.5,0A2.5,2.5 0 1,1 0,-2.5A2.5,2.5 0 0,1 2.5,0Z" style="opacity: 1; stroke-width: 0px; fill: rgb(179, 59, 66); fill-opacity: 1;"/><path class="point" transform="translate(343.63,109.94)" d="M2.5,0A2.5,2.5 0 1,1 0,-2.5A2.5,2.5 0 0,1 2.5,0Z" style="opacity: 1; stroke-width: 0px; fill: rgb(179, 59, 66); fill-opacity: 1;"/><path class="point" transform="translate(347.32,112.27)" d="M2.5,0A2.5,2.5 0 1,1 0,-2.5A2.5,2.5 0 0,1 2.5,0Z" style="opacity: 1; stroke-width: 0px; fill: rgb(179, 59, 66); fill-opacity: 1;"/><path class="point" transform="translate(358.94,110.29)" d="M2.5,0A2.5,2.5 0 1,1 0,-2.5A2.5,2.5 0 0,1 2.5,0Z" style="opacity: 1; stroke-width: 0px; fill: rgb(179, 59, 66); fill-opacity: 1;"/><path class="point" transform="translate(359.59,114.14)" d="M2.5,0A2.5,2.5 0 1,1 0,-2.5A2.5,2.5 0 0,1 2.5,0Z" style="opacity: 1; stroke-width: 0px; fill: rgb(179, 59, 66); fill-opacity: 1;"/><path class="point" transform="translate(363.93,116.41)" d="M2.5,0A2.5,2.5 0 1,1 0,-2.5A2.5,2.5 0 0,1 2.5,0Z" style="opacity: 1; stroke-width: 0px; fill: rgb(179, 59, 66); fill-opacity: 1;"/><path class="point" transform="translate(371.21,110.53)" d="M2.5,0A2.5,2.5 0 1,1 0,-2.5A2.5,2.5 0 0,1 2.5,0Z" style="opacity: 1; stroke-width: 0px; fill: rgb(179, 59, 66); fill-opacity: 1;"/><path class="point" transform="translate(380,113.84)" d="M2.5,0A2.5,2.5 0 1,1 0,-2.5A2.5,2.5 0 0,1 2.5,0Z" style="opacity: 1; stroke-width: 0px; fill: rgb(179, 59, 66); fill-opacity: 1;"/><path class="point" transform="translate(381.3,108.42)" d="M2.5,0A2.5,2.5 0 1,1 0,-2.5A2.5,2.5 0 0,1 2.5,0Z" style="opacity: 1; stroke-width: 0px; fill: rgb(179, 59, 66); fill-opacity: 1;"/><path class="point" transform="translate(384.34,117.64)" d="M2.5,0A2.5,2.5 0 1,1 0,-2.5A2.5,2.5 0 0,1 2.5,0Z" style="opacity: 1; stroke-width: 0px; fill: rgb(179, 59, 66); fill-opacity: 1;"/><path class="point" transform="translate(393.79,115.5)" d="M2.5,0A2.5,2.5 0 1,1 0,-2.5A2.5,2.5 0 0,1 2.5,0Z" style="opacity: 1; stroke-width: 0px; fill: rgb(179, 59, 66); fill-opacity: 1;"/><path class="point" transform="translate(393.9,106.57)" d="M2.5,0A2.5,2.5 0 1,1 0,-2.5A2.5,2.5 0 0,1 2.5,0Z" style="opacity: 1; stroke-width: 0px; fill: rgb(179, 59, 66); fill-opacity: 1;"/><path class="point" transform="translate(410.18,113.64)" d="M2.5,0A2.5,2.5 0 1,1 0,-2.5A2.5,2.5 0 0,1 2.5,0Z" style="opacity: 1; stroke-width: 0px; fill: rgb(179, 59, 66); fill-opacity: 1;"/><path class="point" transform="translate(410.94,117.4)" d="M2.5,0A2.5,2.5 0 1,1 0,-2.5A2.5,2.5 0 0,1 2.5,0Z" style="opacity: 1; stroke-width: 0px; fill: rgb(179, 59, 66); fill-opacity: 1;"/><path class="point" transform="translate(413.77,114.14)" d="M2.5,0A2.5,2.5 0 1,1 0,-2.5A2.5,2.5 0 0,1 2.5,0Z" style="opacity: 1; stroke-width: 0px; fill: rgb(179, 59, 66); fill-opacity: 1;"/><path class="point" transform="translate(414.85,112.23)" d="M2.5,0A2.5,2.5 0 1,1 0,-2.5A2.5,2.5 0 0,1 2.5,0Z" style="opacity: 1; stroke-width: 0px; fill: rgb(179, 59, 66); fill-opacity: 1;"/><path class="point" transform="translate(416.05,109.62)" d="M2.5,0A2.5,2.5 0 1,1 0,-2.5A2.5,2.5 0 0,1 2.5,0Z" style="opacity: 1; stroke-width: 0px; fill: rgb(179, 59, 66); fill-opacity: 1;"/><path class="point" transform="translate(426.9,111.39)" d="M2.5,0A2.5,2.5 0 1,1 0,-2.5A2.5,2.5 0 0,1 2.5,0Z" style="opacity: 1; stroke-width: 0px; fill: rgb(179, 59, 66); fill-opacity: 1;"/><path class="point" transform="translate(427.34,113.3)" d="M2.5,0A2.5,2.5 0 1,1 0,-2.5A2.5,2.5 0 0,1 2.5,0Z" style="opacity: 1; stroke-width: 0px; fill: rgb(179, 59, 66); fill-opacity: 1;"/><path class="point" transform="translate(430.38,115.69)" d="M2.5,0A2.5,2.5 0 1,1 0,-2.5A2.5,2.5 0 0,1 2.5,0Z" style="opacity: 1; stroke-width: 0px; fill: rgb(179, 59, 66); fill-opacity: 1;"/><path class="point" transform="translate(444.06,112.12)" d="M2.5,0A2.5,2.5 0 1,1 0,-2.5A2.5,2.5 0 0,1 2.5,0Z" style="opacity: 1; stroke-width: 0px; fill: rgb(179, 59, 66); fill-opacity: 1;"/><path class="point" transform="translate(451.22,113.18)" d="M2.5,0A2.5,2.5 0 1,1 0,-2.5A2.5,2.5 0 0,1 2.5,0Z" style="opacity: 1; stroke-width: 0px; fill: rgb(179, 59, 66); fill-opacity: 1;"/><path class="point" transform="translate(452.74,110.42)" d="M2.5,0A2.5,2.5 0 1,1 0,-2.5A2.5,2.5 0 0,1 2.5,0Z" style="opacity: 1; stroke-width: 0px; fill: rgb(179, 59, 66); fill-opacity: 1;"/><path class="point" transform="translate(508.44,112.41)" d="M2.5,0A2.5,2.5 0 1,1 0,-2.5A2.5,2.5 0 0,1 2.5,0Z" style="opacity: 1; stroke-width: 0px; fill: rgb(179, 59, 66); fill-opacity: 1;"/><path class="point" transform="translate(509.2,114.19)" d="M2.5,0A2.5,2.5 0 1,1 0,-2.5A2.5,2.5 0 0,1 2.5,0Z" style="opacity: 1; stroke-width: 0px; fill: rgb(179, 59, 66); fill-opacity: 1;"/><path class="point" transform="translate(533.52,115.03)" d="M2.5,0A2.5,2.5 0 1,1 0,-2.5A2.5,2.5 0 0,1 2.5,0Z" style="opacity: 1; stroke-width: 0px; fill: rgb(179, 59, 66); fill-opacity: 1;"/></g></g><g class="trace violins" style="opacity: 1;"><path class="violin" d="M255.42,86.43L255.42,86.05Q260.93,85.84 263.68,85.68C266.43,85.52 269.18,85.32 271.93,85.07C274.68,84.81 277.43,84.52 280.18,84.15C282.94,83.77 285.69,83.34 288.44,82.82C291.2,82.3 293.95,81.7 296.69,81.02C299.45,80.33 302.2,79.56 304.94,78.7C307.71,77.83 310.46,76.87 313.2,75.85C315.96,74.82 318.71,73.7 321.45,72.57C324.21,71.44 326.95,70.22 329.7,69.06C332.45,67.9 335.2,66.7 337.96,65.6C340.7,64.51 343.45,63.45 346.21,62.5C348.95,61.56 351.7,60.7 354.46,59.95C357.2,59.2 359.96,58.57 362.72,58C365.46,57.44 368.21,56.97 370.97,56.55C373.72,56.13 376.47,55.77 379.23,55.46C381.98,55.15 384.73,54.88 387.48,54.69C390.23,54.5 392.98,54.34 395.73,54.34C398.48,54.34 401.24,54.42 403.99,54.68C406.75,54.94 409.51,55.36 412.24,55.93C415.01,56.5 417.75,57.27 420.49,58.1C423.26,58.94 426,59.97 428.75,60.96C431.51,61.96 434.25,63.07 437,64.08C439.75,65.09 442.49,66.11 445.25,67.04C447.99,67.96 450.75,68.83 453.51,69.64C456.25,70.45 459.01,71.17 461.76,71.9C464.51,72.62 467.26,73.3 470.01,73.99C472.76,74.68 475.52,75.38 478.27,76.06C481.02,76.74 483.77,77.44 486.52,78.09C489.27,78.73 492.01,79.38 494.77,79.93C497.52,80.48 500.27,80.98 503.03,81.38C505.77,81.78 508.53,82.09 511.28,82.33C514.03,82.57 516.78,82.72 519.53,82.84C522.28,82.95 525.04,82.99 527.79,83.02C530.54,83.05 533.29,83.05 536.04,83.05C538.79,83.05 541.54,83.04 544.29,83.04C547.04,83.04 549.8,83.03 552.55,83.04C555.3,83.05 558.05,83.07 560.8,83.1C563.55,83.13 566.3,83.17 569.05,83.23C571.8,83.3 574.56,83.38 577.31,83.49C580.06,83.6 582.81,83.73 585.56,83.88C588.31,84.03 591.06,84.21 593.81,84.38C596.56,84.56 599.32,84.75 602.07,84.93C604.82,85.1 607.57,85.28 610.32,85.43C613.07,85.58 615.82,85.71 618.57,85.82Q621.32,85.93 626.83,86.1L626.83,86.43" style="vector-effect: non-scaling-stroke; stroke-width: 2px; stroke: rgb(197, 53, 52); stroke-opacity: 1; fill: rgb(197, 53, 52); fill-opacity: 0.5;"/><g class="points"><path class="point" transform="translate(305.85,77.99)" d="M2.5,0A2.5,2.5 0 1,1 0,-2.5A2.5,2.5 0 0,1 2.5,0Z" style="opacity: 1; stroke-width: 0px; fill: rgb(197, 53, 52); fill-opacity: 1;"/><path class="point" transform="translate(332.55,82.66)" d="M2.5,0A2.5,2.5 0 1,1 0,-2.5A2.5,2.5 0 0,1 2.5,0Z" style="opacity: 1; stroke-width: 0px; fill: rgb(197, 53, 52); fill-opacity: 1;"/><path class="point" transform="translate(334.29,76.62)" d="M2.5,0A2.5,2.5 0 1,1 0,-2.5A2.5,2.5 0 0,1 2.5,0Z" style="opacity: 1; stroke-width: 0px; fill: rgb(197, 53, 52); fill-opacity: 1;"/><path class="point" transform="translate(340.91,83.83)" d="M2.5,0A2.5,2.5 0 1,1 0,-2.5A2.5,2.5 0 0,1 2.5,0Z" style="opacity: 1; stroke-width: 0px; fill: rgb(197, 53, 52); fill-opacity: 1;"/><path class="point" transform="translate(344.28,81.19)" d="M2.5,0A2.5,2.5 0 1,1 0,-2.5A2.5,2.5 0 0,1 2.5,0Z" style="opacity: 1; stroke-width: 0px; fill: rgb(197, 53, 52); fill-opacity: 1;"/><path class="point" transform="translate(355.79,77.52)" d="M2.5,0A2.5,2.5 0 1,1 0,-2.5A2.5,2.5 0 0,1 2.5,0Z" style="opacity: 1; stroke-width: 0px; fill: rgb(197, 53, 52); fill-opacity: 1;"/><path class="point" transform="translate(358.83,80.22)" d="M2.5,0A2.5,2.5 0 1,1 0,-2.5A2.5,2.5 0 0,1 2.5,0Z" style="opacity: 1; stroke-width: 0px; fill: rgb(197, 53, 52); fill-opacity: 1;"/><path class="point" transform="translate(361.54,78.46)" d="M2.5,0A2.5,2.5 0 1,1 0,-2.5A2.5,2.5 0 0,1 2.5,0Z" style="opacity: 1; stroke-width: 0px; fill: rgb(197, 53, 52); fill-opacity: 1;"/><path class="point" transform="translate(365.45,81.67)" d="M2.5,0A2.5,2.5 0 1,1 0,-2.5A2.5,2.5 0 0,1 2.5,0Z" style="opacity: 1; stroke-width: 0px; fill: rgb(197, 53, 52); fill-opacity: 1;"/><path class="point" transform="translate(365.89,83.89)" d="M2.5,0A2.5,2.5 0 1,1 0,-2.5A2.5,2.5 0 0,1 2.5,0Z" style="opacity: 1; stroke-width: 0px; fill: rgb(197, 53, 52); fill-opacity: 1;"/><path class="point" transform="translate(373.16,78.47)" d="M2.5,0A2.5,2.5 0 1,1 0,-2.5A2.5,2.5 0 0,1 2.5,0Z" style="opacity: 1; stroke-width: 0px; fill: rgb(197, 53, 52); fill-opacity: 1;"/><path class="point" transform="translate(383.91,81.91)" d="M2.5,0A2.5,2.5 0 1,1 0,-2.5A2.5,2.5 0 0,1 2.5,0Z" style="opacity: 1; stroke-width: 0px; fill: rgb(197, 53, 52); fill-opacity: 1;"/><path class="point" transform="translate(387.27,76.33)" d="M2.5,0A2.5,2.5 0 1,1 0,-2.5A2.5,2.5 0 0,1 2.5,0Z" style="opacity: 1; stroke-width: 0px; fill: rgb(197, 53, 52); fill-opacity: 1;"/><path class="point" transform="translate(397.26,85.59)" d="M2.5,0A2.5,2.5 0 1,1 0,-2.5A2.5,2.5 0 0,1 2.5,0Z" style="opacity: 1; stroke-width: 0px; fill: rgb(197, 53, 52); fill-opacity: 1;"/><path class="point" transform="translate(398.67,83.1)" d="M2.5,0A2.5,2.5 0 1,1 0,-2.5A2.5,2.5 0 0,1 2.5,0Z" style="opacity: 1; stroke-width: 0px; fill: rgb(197, 53, 52); fill-opacity: 1;"/><path class="point" transform="translate(401.5,74.99)" d="M2.5,0A2.5,2.5 0 1,1 0,-2.5A2.5,2.5 0 0,1 2.5,0Z" style="opacity: 1; stroke-width: 0px; fill: rgb(197, 53, 52); fill-opacity: 1;"/><path class="point" transform="translate(404.54,81.56)" d="M2.5,0A2.5,2.5 0 1,1 0,-2.5A2.5,2.5 0 0,1 2.5,0Z" style="opacity: 1; stroke-width: 0px; fill: rgb(197, 53, 52); fill-opacity: 1;"/><path class="point" transform="translate(406.49,85.47)" d="M2.5,0A2.5,2.5 0 1,1 0,-2.5A2.5,2.5 0 0,1 2.5,0Z" style="opacity: 1; stroke-width: 0px; fill: rgb(197, 53, 52); fill-opacity: 1;"/><path class="point" transform="translate(411.81,82.14)" d="M2.5,0A2.5,2.5 0 1,1 0,-2.5A2.5,2.5 0 0,1 2.5,0Z" style="opacity: 1; stroke-width: 0px; fill: rgb(197, 53, 52); fill-opacity: 1;"/><path class="point" transform="translate(419.19,80.12)" d="M2.5,0A2.5,2.5 0 1,1 0,-2.5A2.5,2.5 0 0,1 2.5,0Z" style="opacity: 1; stroke-width: 0px; fill: rgb(197, 53, 52); fill-opacity: 1;"/><path class="point" transform="translate(420.39,77.83)" d="M2.5,0A2.5,2.5 0 1,1 0,-2.5A2.5,2.5 0 0,1 2.5,0Z" style="opacity: 1; stroke-width: 0px; fill: rgb(197, 53, 52); fill-opacity: 1;"/><path class="point" transform="translate(424.08,79.48)" d="M2.5,0A2.5,2.5 0 1,1 0,-2.5A2.5,2.5 0 0,1 2.5,0Z" style="opacity: 1; stroke-width: 0px; fill: rgb(197, 53, 52); fill-opacity: 1;"/><path class="point" transform="translate(424.95,81.33)" d="M2.5,0A2.5,2.5 0 1,1 0,-2.5A2.5,2.5 0 0,1 2.5,0Z" style="opacity: 1; stroke-width: 0px; fill: rgb(197, 53, 52); fill-opacity: 1;"/><path class="point" transform="translate(434.18,82.98)" d="M2.5,0A2.5,2.5 0 1,1 0,-2.5A2.5,2.5 0 0,1 2.5,0Z" style="opacity: 1; stroke-width: 0px; fill: rgb(197, 53, 52); fill-opacity: 1;"/><path class="point" transform="translate(456.43,80.02)" d="M2.5,0A2.5,2.5 0 1,1 0,-2.5A2.5,2.5 0 0,1 2.5,0Z" style="opacity: 1; stroke-width: 0px; fill: rgb(197, 53, 52); fill-opacity: 1;"/><path class="point" transform="translate(466.21,80.88)" d="M2.5,0A2.5,2.5 0 1,1 0,-2.5A2.5,2.5 0 0,1 2.5,0Z" style="opacity: 1; stroke-width: 0px; fill: rgb(197, 53, 52); fill-opacity: 1;"/><path class="point" transform="translate(469.68,78.7)" d="M2.5,0A2.5,2.5 0 1,1 0,-2.5A2.5,2.5 0 0,1 2.5,0Z" style="opacity: 1; stroke-width: 0px; fill: rgb(197, 53, 52); fill-opacity: 1;"/><path class="point" transform="translate(476.3,80.25)" d="M2.5,0A2.5,2.5 0 1,1 0,-2.5A2.5,2.5 0 0,1 2.5,0Z" style="opacity: 1; stroke-width: 0px; fill: rgb(197, 53, 52); fill-opacity: 1;"/><path class="point" transform="translate(532.76,81.67)" d="M2.5,0A2.5,2.5 0 1,1 0,-2.5A2.5,2.5 0 0,1 2.5,0Z" style="opacity: 1; stroke-width: 0px; fill: rgb(197, 53, 52); fill-opacity: 1;"/><path class="point" transform="translate(576.41,82.36)" d="M2.5,0A2.5,2.5 0 1,1 0,-2.5A2.5,2.5 0 0,1 2.5,0Z" style="opacity: 1; stroke-width: 0px; fill: rgb(197, 53, 52); fill-opacity: 1;"/></g></g><g class="trace violins" style="opacity: 1;"><path class="violin" d="M244.47,54.34L244.47,54.02Q249.44,53.85 251.92,53.74C254.4,53.62 256.89,53.49 259.37,53.33C261.85,53.17 264.33,52.99 266.81,52.8C269.29,52.61 271.78,52.39 274.26,52.17C276.74,51.95 279.23,51.73 281.71,51.5C284.19,51.27 286.68,51.05 289.16,50.8C291.64,50.55 294.13,50.3 296.61,50.01C299.09,49.72 301.58,49.42 304.06,49.05C306.55,48.68 309.03,48.26 311.51,47.79C314,47.31 316.47,46.78 318.95,46.2C321.44,45.62 323.92,44.97 326.4,44.3C328.89,43.63 331.37,42.9 333.85,42.18C336.34,41.45 338.82,40.69 341.3,39.95C343.78,39.21 346.27,38.46 348.75,37.73C351.23,37 353.71,36.27 356.2,35.58C358.68,34.89 361.16,34.23 363.64,33.6C366.12,32.97 368.6,32.38 371.09,31.81C373.57,31.24 376.06,30.71 378.54,30.18C381.02,29.65 383.51,29.16 385.99,28.62C388.48,28.08 390.96,27.53 393.44,26.96C395.93,26.39 398.41,25.77 400.89,25.19C403.37,24.61 405.84,23.97 408.33,23.49C410.8,23.02 413.29,22.54 415.78,22.33C418.26,22.13 420.76,22.04 423.23,22.25C425.72,22.47 428.23,22.94 430.68,23.63C433.2,24.34 435.68,25.37 438.13,26.47C440.65,27.6 443.11,29.01 445.58,30.36C448.08,31.73 450.54,33.25 453.03,34.65C455.5,36.04 457.97,37.45 460.47,38.72C462.93,39.97 465.42,41.15 467.92,42.2C470.38,43.24 472.87,44.16 475.37,45C477.84,45.83 480.33,46.56 482.82,47.23C485.29,47.9 487.78,48.48 490.27,49.03C492.75,49.58 495.23,50.07 497.72,50.53C500.2,50.98 502.68,51.4 505.16,51.76C507.64,52.12 510.12,52.44 512.61,52.71C515.09,52.98 517.58,53.2 520.06,53.39C522.54,53.58 525.03,53.72 527.51,53.83C529.99,53.94 532.48,54.01 534.96,54.07C537.44,54.12 539.93,54.15 542.41,54.16C544.89,54.17 547.38,54.16 549.86,54.13C552.34,54.1 554.82,54.06 557.3,53.99C559.78,53.92 562.27,53.84 564.75,53.73C567.23,53.62 569.72,53.49 572.2,53.35C574.68,53.21 577.17,53.04 579.65,52.89C582.13,52.74 584.62,52.57 587.1,52.44C589.58,52.31 592.07,52.18 594.55,52.11C597.03,52.04 599.51,52 601.99,52C604.47,52 606.96,52.05 609.44,52.13C611.92,52.21 614.41,52.34 616.89,52.47C619.37,52.6 621.86,52.78 624.34,52.93C626.82,53.08 629.31,53.24 631.79,53.38C634.27,53.52 636.76,53.65 639.24,53.76Q641.72,53.87 646.69,54.02L646.69,54.34" style="vector-effect: non-scaling-stroke; stroke-width: 2px; stroke: rgb(215, 48, 39); stroke-opacity: 1; fill: rgb(215, 48, 39); fill-opacity: 0.5;"/><g class="points"><path class="point" transform="translate(289.45,46.46)" d="M2.5,0A2.5,2.5 0 1,1 0,-2.5A2.5,2.5 0 0,1 2.5,0Z" style="opacity: 1; stroke-width: 0px; fill: rgb(215, 48, 39); fill-opacity: 1;"/><path class="point" transform="translate(322.78,49.83)" d="M2.5,0A2.5,2.5 0 1,1 0,-2.5A2.5,2.5 0 0,1 2.5,0Z" style="opacity: 1; stroke-width: 0px; fill: rgb(215, 48, 39); fill-opacity: 1;"/><path class="point" transform="translate(338.63,45.49)" d="M2.5,0A2.5,2.5 0 1,1 0,-2.5A2.5,2.5 0 0,1 2.5,0Z" style="opacity: 1; stroke-width: 0px; fill: rgb(215, 48, 39); fill-opacity: 1;"/><path class="point" transform="translate(344.17,50.72)" d="M2.5,0A2.5,2.5 0 1,1 0,-2.5A2.5,2.5 0 0,1 2.5,0Z" style="opacity: 1; stroke-width: 0px; fill: rgb(215, 48, 39); fill-opacity: 1;"/><path class="point" transform="translate(347.21,48.78)" d="M2.5,0A2.5,2.5 0 1,1 0,-2.5A2.5,2.5 0 0,1 2.5,0Z" style="opacity: 1; stroke-width: 0px; fill: rgb(215, 48, 39); fill-opacity: 1;"/><path class="point" transform="translate(363.06,46.09)" d="M2.5,0A2.5,2.5 0 1,1 0,-2.5A2.5,2.5 0 0,1 2.5,0Z" style="opacity: 1; stroke-width: 0px; fill: rgb(215, 48, 39); fill-opacity: 1;"/><path class="point" transform="translate(368.6,48.08)" d="M2.5,0A2.5,2.5 0 1,1 0,-2.5A2.5,2.5 0 0,1 2.5,0Z" style="opacity: 1; stroke-width: 0px; fill: rgb(215, 48, 39); fill-opacity: 1;"/><path class="point" transform="translate(373.16,46.63)" d="M2.5,0A2.5,2.5 0 1,1 0,-2.5A2.5,2.5 0 0,1 2.5,0Z" style="opacity: 1; stroke-width: 0px; fill: rgb(215, 48, 39); fill-opacity: 1;"/><path class="point" transform="translate(375.33,49.35)" d="M2.5,0A2.5,2.5 0 1,1 0,-2.5A2.5,2.5 0 0,1 2.5,0Z" style="opacity: 1; stroke-width: 0px; fill: rgb(215, 48, 39); fill-opacity: 1;"/><path class="point" transform="translate(376.42,51.27)" d="M2.5,0A2.5,2.5 0 1,1 0,-2.5A2.5,2.5 0 0,1 2.5,0Z" style="opacity: 1; stroke-width: 0px; fill: rgb(215, 48, 39); fill-opacity: 1;"/><path class="point" transform="translate(386.08,46.71)" d="M2.5,0A2.5,2.5 0 1,1 0,-2.5A2.5,2.5 0 0,1 2.5,0Z" style="opacity: 1; stroke-width: 0px; fill: rgb(215, 48, 39); fill-opacity: 1;"/><path class="point" transform="translate(392.05,49.49)" d="M2.5,0A2.5,2.5 0 1,1 0,-2.5A2.5,2.5 0 0,1 2.5,0Z" style="opacity: 1; stroke-width: 0px; fill: rgb(215, 48, 39); fill-opacity: 1;"/><path class="point" transform="translate(397.37,44.82)" d="M2.5,0A2.5,2.5 0 1,1 0,-2.5A2.5,2.5 0 0,1 2.5,0Z" style="opacity: 1; stroke-width: 0px; fill: rgb(215, 48, 39); fill-opacity: 1;"/><path class="point" transform="translate(403.23,52.72)" d="M2.5,0A2.5,2.5 0 1,1 0,-2.5A2.5,2.5 0 0,1 2.5,0Z" style="opacity: 1; stroke-width: 0px; fill: rgb(215, 48, 39); fill-opacity: 1;"/><path class="point" transform="translate(403.45,50.79)" d="M2.5,0A2.5,2.5 0 1,1 0,-2.5A2.5,2.5 0 0,1 2.5,0Z" style="opacity: 1; stroke-width: 0px; fill: rgb(215, 48, 39); fill-opacity: 1;"/><path class="point" transform="translate(419.85,43.16)" d="M2.5,0A2.5,2.5 0 1,1 0,-2.5A2.5,2.5 0 0,1 2.5,0Z" style="opacity: 1; stroke-width: 0px; fill: rgb(215, 48, 39); fill-opacity: 1;"/><path class="point" transform="translate(420.71,49.36)" d="M2.5,0A2.5,2.5 0 1,1 0,-2.5A2.5,2.5 0 0,1 2.5,0Z" style="opacity: 1; stroke-width: 0px; fill: rgb(215, 48, 39); fill-opacity: 1;"/><path class="point" transform="translate(422.23,53.1)" d="M2.5,0A2.5,2.5 0 1,1 0,-2.5A2.5,2.5 0 0,1 2.5,0Z" style="opacity: 1; stroke-width: 0px; fill: rgb(215, 48, 39); fill-opacity: 1;"/><path class="point" transform="translate(423.86,49.93)" d="M2.5,0A2.5,2.5 0 1,1 0,-2.5A2.5,2.5 0 0,1 2.5,0Z" style="opacity: 1; stroke-width: 0px; fill: rgb(215, 48, 39); fill-opacity: 1;"/><path class="point" transform="translate(424.19,48.05)" d="M2.5,0A2.5,2.5 0 1,1 0,-2.5A2.5,2.5 0 0,1 2.5,0Z" style="opacity: 1; stroke-width: 0px; fill: rgb(215, 48, 39); fill-opacity: 1;"/><path class="point" transform="translate(426.69,45.06)" d="M2.5,0A2.5,2.5 0 1,1 0,-2.5A2.5,2.5 0 0,1 2.5,0Z" style="opacity: 1; stroke-width: 0px; fill: rgb(215, 48, 39); fill-opacity: 1;"/><path class="point" transform="translate(427.99,47.21)" d="M2.5,0A2.5,2.5 0 1,1 0,-2.5A2.5,2.5 0 0,1 2.5,0Z" style="opacity: 1; stroke-width: 0px; fill: rgb(215, 48, 39); fill-opacity: 1;"/><path class="point" transform="translate(429.73,49.31)" d="M2.5,0A2.5,2.5 0 1,1 0,-2.5A2.5,2.5 0 0,1 2.5,0Z" style="opacity: 1; stroke-width: 0px; fill: rgb(215, 48, 39); fill-opacity: 1;"/><path class="point" transform="translate(435.05,51.59)" d="M2.5,0A2.5,2.5 0 1,1 0,-2.5A2.5,2.5 0 0,1 2.5,0Z" style="opacity: 1; stroke-width: 0px; fill: rgb(215, 48, 39); fill-opacity: 1;"/><path class="point" transform="translate(436.24,47.93)" d="M2.5,0A2.5,2.5 0 1,1 0,-2.5A2.5,2.5 0 0,1 2.5,0Z" style="opacity: 1; stroke-width: 0px; fill: rgb(215, 48, 39); fill-opacity: 1;"/><path class="point" transform="translate(448.83,48.64)" d="M2.5,0A2.5,2.5 0 1,1 0,-2.5A2.5,2.5 0 0,1 2.5,0Z" style="opacity: 1; stroke-width: 0px; fill: rgb(215, 48, 39); fill-opacity: 1;"/><path class="point" transform="translate(449.27,46.84)" d="M2.5,0A2.5,2.5 0 1,1 0,-2.5A2.5,2.5 0 0,1 2.5,0Z" style="opacity: 1; stroke-width: 0px; fill: rgb(215, 48, 39); fill-opacity: 1;"/><path class="point" transform="translate(470.98,48.12)" d="M2.5,0A2.5,2.5 0 1,1 0,-2.5A2.5,2.5 0 0,1 2.5,0Z" style="opacity: 1; stroke-width: 0px; fill: rgb(215, 48, 39); fill-opacity: 1;"/><path class="point" transform="translate(484.88,49.27)" d="M2.5,0A2.5,2.5 0 1,1 0,-2.5A2.5,2.5 0 0,1 2.5,0Z" style="opacity: 1; stroke-width: 0px; fill: rgb(215, 48, 39); fill-opacity: 1;"/><path class="point" transform="translate(601.7,49.68)" d="M2.5,0A2.5,2.5 0 1,1 0,-2.5A2.5,2.5 0 0,1 2.5,0Z" style="opacity: 1; stroke-width: 0px; fill: rgb(215, 48, 39); fill-opacity: 1;"/></g></g></g></g><g class="overplot"/><path class="xlines-above crisp" d="M111,445.5H720" style="fill: none; stroke-width: 1px; stroke: rgb(255, 255, 255); stroke-opacity: 1;"/><path class="ylines-above crisp" d="M111.5,50V445" style="fill: none; stroke-width: 1px; stroke: rgb(255, 255, 255); stroke-opacity: 1;"/><g class="overlines-above"/><g class="xaxislayer-above"><g class="xtick"><text text-anchor="middle" x="0" y="460.4" transform="translate(133.71,0)" style="font-family: 'Open Sans', verdana, arial, sans-serif; font-size: 12px; fill: rgb(42, 63, 95); fill-opacity: 1; white-space: pre;">15</text></g><g class="xtick"><text text-anchor="middle" x="0" y="460.4" transform="translate(242.29,0)" style="font-family: 'Open Sans', verdana, arial, sans-serif; font-size: 12px; fill: rgb(42, 63, 95); fill-opacity: 1; white-space: pre;">10</text></g><g class="xtick"><text text-anchor="middle" x="0" y="460.4" transform="translate(350.86,0)" style="font-family: 'Open Sans', verdana, arial, sans-serif; font-size: 12px; fill: rgb(42, 63, 95); fill-opacity: 1; white-space: pre;">5</text></g><g class="xtick"><text text-anchor="middle" x="0" y="460.4" transform="translate(459.43,0)" style="font-family: 'Open Sans', verdana, arial, sans-serif; font-size: 12px; fill: rgb(42, 63, 95); fill-opacity: 1; white-space: pre;">0</text></g><g class="xtick"><text text-anchor="middle" x="0" y="460.4" transform="translate(568,0)" style="font-family: 'Open Sans', verdana, arial, sans-serif; font-size: 12px; fill: rgb(42, 63, 95); fill-opacity: 1; white-space: pre;">5</text></g><g class="xtick"><text text-anchor="middle" x="0" y="460.4" transform="translate(676.57,0)" style="font-family: 'Open Sans', verdana, arial, sans-serif; font-size: 12px; fill: rgb(42, 63, 95); fill-opacity: 1; white-space: pre;">10</text></g></g><g class="yaxislayer-above"><g class="ytick"><text text-anchor="end" x="108.6" y="4.199999999999999" transform="translate(0,425.25)" style="font-family: 'Open Sans', verdana, arial, sans-serif; font-size: 12px; fill: rgb(42, 63, 95); fill-opacity: 1; white-space: pre;">Sample 4-2_B2</text></g><g class="ytick"><text text-anchor="end" x="108.6" y="4.199999999999999" transform="translate(0,393.16)" style="font-family: 'Open Sans', verdana, arial, sans-serif; font-size: 12px; fill: rgb(42, 63, 95); fill-opacity: 1; white-space: pre;">Sample 11-1_A3</text></g><g class="ytick"><text text-anchor="end" x="108.6" y="4.199999999999999" transform="translate(0,361.07)" style="font-family: 'Open Sans', verdana, arial, sans-serif; font-size: 12px; fill: rgb(42, 63, 95); fill-opacity: 1; white-space: pre;">Sample 7-2_F2</text></g><g class="ytick"><text text-anchor="end" x="108.6" y="4.199999999999999" transform="translate(0,328.98)" style="font-family: 'Open Sans', verdana, arial, sans-serif; font-size: 12px; fill: rgb(42, 63, 95); fill-opacity: 1; white-space: pre;">Sample 131-1_F4</text></g><g class="ytick"><text text-anchor="end" x="108.6" y="4.199999999999999" transform="translate(0,296.89)" style="font-family: 'Open Sans', verdana, arial, sans-serif; font-size: 12px; fill: rgb(42, 63, 95); fill-opacity: 1; white-space: pre;">Sample 69-1_F3</text></g><g class="ytick"><text text-anchor="end" x="108.6" y="4.199999999999999" transform="translate(0,264.8)" style="font-family: 'Open Sans', verdana, arial, sans-serif; font-size: 12px; fill: rgb(42, 63, 95); fill-opacity: 1; white-space: pre;">Sample 80-1_H3</text></g><g class="ytick"><text text-anchor="end" x="108.6" y="4.199999999999999" transform="translate(0,232.7)" style="font-family: 'Open Sans', verdana, arial, sans-serif; font-size: 12px; fill: rgb(42, 63, 95); fill-opacity: 1; white-space: pre;">Sample 79-2_G3</text></g><g class="ytick"><text text-anchor="end" x="108.6" y="4.199999999999999" transform="translate(0,200.61)" style="font-family: 'Open Sans', verdana, arial, sans-serif; font-size: 12px; fill: rgb(42, 63, 95); fill-opacity: 1; white-space: pre;">Sample 117-2_C4</text></g><g class="ytick"><text text-anchor="end" x="108.6" y="4.199999999999999" transform="translate(0,168.51999999999998)" style="font-family: 'Open Sans', verdana, arial, sans-serif; font-size: 12px; fill: rgb(42, 63, 95); fill-opacity: 1; white-space: pre;">Sample 134-1_H4</text></g><g class="ytick"><text text-anchor="end" x="108.6" y="4.199999999999999" transform="translate(0,136.43)" style="font-family: 'Open Sans', verdana, arial, sans-serif; font-size: 12px; fill: rgb(42, 63, 95); fill-opacity: 1; white-space: pre;">Sample 134-2_A5</text></g><g class="ytick"><text text-anchor="end" x="108.6" y="4.199999999999999" transform="translate(0,104.34)" style="font-family: 'Open Sans', verdana, arial, sans-serif; font-size: 12px; fill: rgb(42, 63, 95); fill-opacity: 1; white-space: pre;">Sample 7-1_E2</text></g></g><g class="overaxes-above"/></g></g><g class="polarlayer"/><g class="ternarylayer"/><g class="geolayer"/><g class="funnelarealayer"/><g class="pielayer"/><g class="treemaplayer"/><g class="sunburstlayer"/><g class="glimages"/><defs id="topdefs-4446e2"><g class="clips"/></defs><g class="layer-above"><g class="imagelayer"/><g class="shapelayer"/></g><g class="infolayer"><g class="g-gtitle"/><g class="g-xtitle"><text class="xtitle" x="416" y="488.20625" text-anchor="middle" style="font-family: 'Open Sans', verdana, arial, sans-serif; font-size: 14px; fill: rgb(42, 63, 95); opacity: 1; font-weight: normal; white-space: pre;">CpG median log likelihood ratio</text></g><g class="g-ytitle"/><g class="annotation" data-index="0" style="opacity: 1;"><g class="annotation-text-g" transform="rotate(0,459.43,35.29999999999998)"><g class="cursor-pointer" transform="translate(427, 26)"><rect class="bg" x="0.5" y="0.5" width="63" height="17" style="stroke-width: 1px; stroke: rgb(0, 0, 0); stroke-opacity: 0; fill: rgb(0, 0, 0); fill-opacity: 0;"/><text class="annotation-text" text-anchor="middle" x="32.03125" y="13" style="font-family: 'Open Sans', verdana, arial, sans-serif; font-size: 12px; fill: rgb(100, 100, 100); fill-opacity: 1; white-space: pre;">Ambiguous</text></g></g></g><g class="annotation" data-index="1" style="opacity: 1;"><g class="annotation-text-g" transform="rotate(0,274.86,35.29999999999998)"><g class="cursor-pointer" transform="translate(236, 26)"><rect class="bg" x="0.5" y="0.5" width="77" height="17" style="stroke-width: 1px; stroke: rgb(0, 0, 0); stroke-opacity: 0; fill: rgb(0, 0, 0); fill-opacity: 0;"/><text class="annotation-text" text-anchor="middle" x="39.03125" y="13" style="font-family: 'Open Sans', verdana, arial, sans-serif; font-size: 12px; fill: rgb(33, 102, 172); fill-opacity: 1; white-space: pre;">Unmethylated</text></g></g></g><g class="annotation" data-index="2" style="opacity: 1;"><g class="annotation-text-g" transform="rotate(0,600.5699999999999,35.29999999999998)"><g class="cursor-pointer" transform="translate(569, 26)"><rect class="bg" x="0.5" y="0.5" width="62" height="17" style="stroke-width: 1px; stroke: rgb(0, 0, 0); stroke-opacity: 0; fill: rgb(0, 0, 0); fill-opacity: 0;"/><text class="annotation-text" text-anchor="middle" x="31.359375" y="13" style="font-family: 'Open Sans', verdana, arial, sans-serif; font-size: 12px; fill: rgb(215, 48, 39); fill-opacity: 1; white-space: pre;">Methylated</text></g></g></g></g></svg>