<svg class="main-svg" xmlns="http://www.w3.org/2000/svg" xmlns:xlink="http://www.w3.org/1999/xlink" width="1400" height="500" style="" viewBox="0 0 1400 500"><rect x="0" y="0" width="1400" height="500" style="fill: rgb(255, 255, 255); fill-opacity: 1;"/><defs id="defs-28e365"><g class="clips"><clipPath id="clip28e365xyplot" class="plotclip"><rect width="1210" height="397"/></clipPath><clipPath class="axesclip" id="clip28e365x"><rect x="110" y="0" width="1210" height="500"/></clipPath><clipPath class="axesclip" id="clip28e365y"><rect x="0" y="50" width="1400" height="397"/></clipPath><clipPath class="axesclip" id="clip28e365xy"><rect x="110" y="50" width="1210" height="397"/></clipPath></g><g class="gradients"/></defs><g class="bglayer"><rect class="bg" x="110" y="50" width="1210" height="397" style="fill: rgb(0, 0, 0); fill-opacity: 0; stroke-width: 0;"/></g><g class="layer-below"><g class="imagelayer"/><g class="shapelayer"><path data-index="0" fill-rule="evenodd" d="M1030.28,447H1064.37V50H1030.28Z" clip-path="url('#clip28e365x')" style="opacity: 0.25; stroke: rgb(0, 0, 0); stroke-opacity: 0; fill: rgb(100, 100, 100); fill-opacity: 1; stroke-width: 0px;"/></g></g><g class="cartesianlayer"><g class="subplot xy"><g class="layer-subplot"><g class="shapelayer"/><g class="imagelayer"/></g><g class="gridlayer"><g class="x"/><g class="y"><path class="ygrid crisp" transform="translate(0,427.15)" d="M110,0h1210" style="stroke: rgb(211, 211, 211); stroke-opacity: 1; stroke-width: 1px;"/><path class="ygrid crisp" transform="translate(0,394.9)" d="M110,0h1210" style="stroke: rgb(211, 211, 211); stroke-opacity: 1; stroke-width: 1px;"/><path class="ygrid crisp" transform="translate(0,362.64)" d="M110,0h1210" style="stroke: rgb(211, 211, 211); stroke-opacity: 1; stroke-width: 1px;"/><path class="ygrid crisp" transform="translate(0,330.39)" d="M110,0h1210" style="stroke: rgb(211, 211, 211); stroke-opacity: 1; stroke-width: 1px;"/><path class="ygrid crisp" transform="translate(0,298.13)" d="M110,0h1210" style="stroke: rgb(211, 211, 211); stroke-opacity: 1; stroke-width: 1px;"/><path class="ygrid crisp" transform="translate(0,265.88)" d="M110,0h1210" style="stroke: rgb(211, 211, 211); stroke-opacity: 1; stroke-width: 1px;"/><path class="ygrid crisp" transform="translate(0,233.62)" d="M110,0h1210" style="stroke: rgb(211, 211, 211); stroke-opacity: 1; stroke-width: 1px;"/><path class="ygrid crisp" transform="translate(0,201.37)" d="M110,0h1210" style="stroke: rgb(211, 211, 211); stroke-opacity: 1; stroke-width: 1px;"/><path class="ygrid crisp" transform="translate(0,169.11)" d="M110,0h1210" style="stroke: rgb(211, 211, 211); stroke-opacity: 1; stroke-width: 1px;"/><path class="ygrid crisp" transform="translate(0,136.86)" d="M110,0h1210" style="stroke: rgb(211, 211, 211); stroke-opacity: 1; stroke-width: 1px;"/><path class="ygrid crisp" transform="translate(0,104.6)" d="M110,0h1210" style="stroke: rgb(211, 211, 211); stroke-opacity: 1; stroke-width: 1px;"/></g></g><g class="zerolinelayer"/><path class="xlines-below"/><path class="ylines-below"/><g class="overlines-below"/><g class="xaxislayer-below"/><g class="yaxislayer-below"/><g class="overaxes-below"/><g class="plot" transform="translate(110, 50)" clip-path="url('#clip28e365xyplot')"><g class="violinlayer mlayer"><g class="trace violins" style="opacity: 1;"><path class="violin" d="M89.12,377.15L89.12,376.74Q97.71,376.53 102,376.39C106.29,376.25 110.59,376.08 114.88,375.9C119.17,375.72 123.47,375.51 127.76,375.31C132.05,375.11 136.35,374.89 140.64,374.72C144.93,374.55 149.23,374.38 153.52,374.28C157.81,374.18 162.11,374.1 166.4,374.1C170.69,374.1 174.99,374.16 179.28,374.25C183.57,374.35 187.87,374.5 192.16,374.67C196.45,374.84 200.75,375.06 205.04,375.26C209.33,375.46 213.63,375.67 217.92,375.85C222.21,376.03 226.51,376.21 230.8,376.35C235.09,376.49 239.39,376.61 243.68,376.71C247.97,376.81 252.27,376.87 256.56,376.93C260.86,376.99 265.15,377.02 269.45,377.05C273.74,377.08 278.04,377.09 282.33,377.11C286.62,377.12 290.92,377.13 295.21,377.14C299.5,377.15 303.8,377.15 308.09,377.15C312.38,377.15 316.68,377.15 320.97,377.15C325.26,377.15 329.56,377.15 333.85,377.15C338.14,377.15 342.44,377.15 346.73,377.15C351.02,377.15 355.32,377.15 359.61,377.15C363.9,377.15 368.2,377.14 372.49,377.13C376.78,377.12 381.08,377.12 385.37,377.11C389.66,377.1 393.96,377.08 398.25,377.05C402.54,377.02 406.84,376.98 411.13,376.92C415.42,376.86 419.72,376.78 424.01,376.68C428.3,376.58 432.6,376.46 436.89,376.31C441.18,376.16 445.48,375.98 449.77,375.8C454.06,375.61 458.36,375.4 462.65,375.2C466.94,375 471.24,374.78 475.53,374.62C479.82,374.46 484.12,374.31 488.41,374.22C492.7,374.13 497,374.09 501.29,374.1C505.58,374.11 509.88,374.2 514.17,374.31C518.46,374.42 522.76,374.6 527.05,374.78C531.34,374.96 535.64,375.17 539.93,375.37C544.22,375.57 548.52,375.78 552.81,375.96C557.11,376.14 561.4,376.3 565.7,376.43C569.99,376.56 574.29,376.67 578.58,376.76C582.87,376.85 587.17,376.91 591.46,376.96C595.75,377.01 600.05,377.04 604.34,377.07C608.63,377.09 612.93,377.1 617.22,377.11C621.51,377.12 625.81,377.12 630.1,377.11C634.39,377.1 638.69,377.09 642.98,377.06C647.27,377.03 651.57,377.01 655.86,376.95C660.15,376.89 664.45,376.82 668.74,376.71C673.03,376.6 677.33,376.46 681.62,376.27C685.91,376.08 690.21,375.85 694.5,375.55C698.8,375.24 703.09,374.88 707.38,374.44C711.68,373.99 715.97,373.48 720.26,372.88C724.56,372.28 728.85,371.59 733.14,370.82C737.44,370.04 741.74,369.18 746.02,368.23C750.32,367.28 754.61,366.22 758.9,365.12C763.2,364.01 767.49,362.81 771.78,361.6C776.08,360.38 780.37,359.08 784.66,357.83C788.95,356.58 793.24,355.29 797.54,354.1C801.83,352.92 806.11,351.75 810.42,350.73C814.7,349.72 818.99,348.77 823.3,348C827.58,347.23 831.88,346.59 836.18,346.1C840.47,345.61 844.77,345.27 849.07,345.07C853.36,344.87 857.66,344.81 861.95,344.9C866.24,344.99 870.54,345.2 874.83,345.6C879.13,346 883.43,346.55 887.71,347.28C892.02,348.01 896.32,348.93 900.59,349.99C904.9,351.06 909.19,352.34 913.47,353.69C917.78,355.05 922.06,356.59 926.35,358.1C930.65,359.61 934.93,361.24 939.23,362.74C943.52,364.23 947.8,365.75 952.11,367.07C956.39,368.38 960.68,369.61 964.99,370.66C969.27,371.7 973.56,372.59 977.87,373.33C982.15,374.07 986.45,374.62 990.75,375.09Q995.04,375.56 1003.63,376.14L1003.63,377.15" style="vector-effect: non-scaling-stroke; stroke-width: 2px; stroke: rgb(33, 102, 172); stroke-opacity: 1; fill: rgb(33, 102, 172); fill-opacity: 0.5;"/><g class="points"><path class="point" transform="translate(167.01,369.91)" d="M2.5,0A2.5,2.5 0 1,1 0,-2.5A2.5,2.5 0 0,1 2.5,0Z" style="opacity: 1; stroke-width: 0px; fill: rgb(33, 102, 172); fill-opacity: 1;"/><path class="point" transform="translate(499.42,371.75)" d="M2.5,0A2.5,2.5 0 1,1 0,-2.5A2.5,2.5 0 0,1 2.5,0Z" style="opacity: 1; stroke-width: 0px; fill: rgb(33, 102, 172); fill-opacity: 1;"/><path class="point" transform="translate(748.5,369.33)" d="M2.5,0A2.5,2.5 0 1,1 0,-2.5A2.5,2.5 0 0,1 2.5,0Z" style="opacity: 1; stroke-width: 0px; fill: rgb(33, 102, 172); fill-opacity: 1;"/><path class="point" transform="translate(782.58,372.29)" d="M2.5,0A2.5,2.5 0 1,1 0,-2.5A2.5,2.5 0 0,1 2.5,0Z" style="opacity: 1; stroke-width: 0px; fill: rgb(33, 102, 172); fill-opacity: 1;"/><path class="point" transform="translate(795.36,371.19)" d="M2.5,0A2.5,2.5 0 1,1 0,-2.5A2.5,2.5 0 0,1 2.5,0Z" style="opacity: 1; stroke-width: 0px; fill: rgb(33, 102, 172); fill-opacity: 1;"/><path class="point" transform="translate(806.01,369.61)" d="M2.5,0A2.5,2.5 0 1,1 0,-2.5A2.5,2.5 0 0,1 2.5,0Z" style="opacity: 1; stroke-width: 0px; fill: rgb(33, 102, 172); fill-opacity: 1;"/><path class="point" transform="translate(815.81,370.81)" d="M2.5,0A2.5,2.5 0 1,1 0,-2.5A2.5,2.5 0 0,1 2.5,0Z" style="opacity: 1; stroke-width: 0px; fill: rgb(33, 102, 172); fill-opacity: 1;"/><path class="point" transform="translate(826.38,369.24)" d="M2.5,0A2.5,2.5 0 1,1 0,-2.5A2.5,2.5 0 0,1 2.5,0Z" style="opacity: 1; stroke-width: 0px; fill: rgb(33, 102, 172); fill-opacity: 1;"/><path class="point" transform="translate(833.88,372.42)" d="M2.5,0A2.5,2.5 0 1,1 0,-2.5A2.5,2.5 0 0,1 2.5,0Z" style="opacity: 1; stroke-width: 0px; fill: rgb(33, 102, 172); fill-opacity: 1;"/><path class="point" transform="translate(839.16,374.78)" d="M2.5,0A2.5,2.5 0 1,1 0,-2.5A2.5,2.5 0 0,1 2.5,0Z" style="opacity: 1; stroke-width: 0px; fill: rgb(33, 102, 172); fill-opacity: 1;"/><path class="point" transform="translate(847.94,369.14)" d="M2.5,0A2.5,2.5 0 1,1 0,-2.5A2.5,2.5 0 0,1 2.5,0Z" style="opacity: 1; stroke-width: 0px; fill: rgb(33, 102, 172); fill-opacity: 1;"/><path class="point" transform="translate(849.98,372.71)" d="M2.5,0A2.5,2.5 0 1,1 0,-2.5A2.5,2.5 0 0,1 2.5,0Z" style="opacity: 1; stroke-width: 0px; fill: rgb(33, 102, 172); fill-opacity: 1;"/><path class="point" transform="translate(865.24,366.95)" d="M2.5,0A2.5,2.5 0 1,1 0,-2.5A2.5,2.5 0 0,1 2.5,0Z" style="opacity: 1; stroke-width: 0px; fill: rgb(33, 102, 172); fill-opacity: 1;"/><path class="point" transform="translate(883.39,376.55)" d="M2.5,0A2.5,2.5 0 1,1 0,-2.5A2.5,2.5 0 0,1 2.5,0Z" style="opacity: 1; stroke-width: 0px; fill: rgb(33, 102, 172); fill-opacity: 1;"/><path class="point" transform="translate(889.95,374.07)" d="M2.5,0A2.5,2.5 0 1,1 0,-2.5A2.5,2.5 0 0,1 2.5,0Z" style="opacity: 1; stroke-width: 0px; fill: rgb(33, 102, 172); fill-opacity: 1;"/><path class="point" transform="translate(892.08,365.54)" d="M2.5,0A2.5,2.5 0 1,1 0,-2.5A2.5,2.5 0 0,1 2.5,0Z" style="opacity: 1; stroke-width: 0px; fill: rgb(33, 102, 172); fill-opacity: 1;"/><path class="point" transform="translate(894.72,372.1)" d="M2.5,0A2.5,2.5 0 1,1 0,-2.5A2.5,2.5 0 0,1 2.5,0Z" style="opacity: 1; stroke-width: 0px; fill: rgb(33, 102, 172); fill-opacity: 1;"/><path class="point" transform="translate(910.4,375.7)" d="M2.5,0A2.5,2.5 0 1,1 0,-2.5A2.5,2.5 0 0,1 2.5,0Z" style="opacity: 1; stroke-width: 0px; fill: rgb(33, 102, 172); fill-opacity: 1;"/><path class="point" transform="translate(915.17,372.83)" d="M2.5,0A2.5,2.5 0 1,1 0,-2.5A2.5,2.5 0 0,1 2.5,0Z" style="opacity: 1; stroke-width: 0px; fill: rgb(33, 102, 172); fill-opacity: 1;"/><path class="point" transform="translate(925.74,370.84)" d="M2.5,0A2.5,2.5 0 1,1 0,-2.5A2.5,2.5 0 0,1 2.5,0Z" style="opacity: 1; stroke-width: 0px; fill: rgb(33, 102, 172); fill-opacity: 1;"/></g></g><g class="trace violins" style="opacity: 1;"><path class="violin" d="M-70.63,344.9L-70.63,344.46Q-62.68,344.24 -58.7,344.1C-54.72,343.95 -50.75,343.78 -46.77,343.59C-42.79,343.4 -38.82,343.17 -34.84,342.96C-30.86,342.75 -26.89,342.52 -22.91,342.34C-18.93,342.16 -14.96,341.99 -10.98,341.88C-7,341.78 -3.03,341.71 0.95,341.71C4.93,341.71 8.9,341.78 12.88,341.88C16.86,341.99 20.83,342.16 24.81,342.34C28.79,342.52 32.76,342.75 36.74,342.96C40.72,343.17 44.69,343.39 48.67,343.58C52.65,343.77 56.62,343.95 60.6,344.1C64.57,344.25 68.55,344.36 72.52,344.46C76.5,344.56 80.47,344.62 84.45,344.68C88.43,344.74 92.4,344.77 96.38,344.8C100.36,344.83 104.33,344.85 108.31,344.86C112.29,344.87 116.26,344.87 120.24,344.88C124.22,344.88 128.19,344.89 132.17,344.89C136.15,344.89 140.12,344.89 144.1,344.89C148.08,344.89 152.05,344.9 156.03,344.9C160.01,344.9 163.98,344.9 167.96,344.9C171.94,344.9 175.91,344.9 179.89,344.9C183.87,344.9 187.84,344.9 191.82,344.9C195.8,344.9 199.77,344.9 203.75,344.9C207.73,344.9 211.7,344.9 215.68,344.9C219.66,344.9 223.63,344.9 227.61,344.9C231.58,344.9 235.56,344.9 239.53,344.9C243.51,344.9 247.48,344.89 251.46,344.89C255.44,344.89 259.41,344.89 263.39,344.89C267.37,344.89 271.34,344.88 275.32,344.88C279.3,344.87 283.27,344.87 287.25,344.86C291.23,344.85 295.2,344.84 299.18,344.82C303.16,344.79 307.13,344.76 311.11,344.71C315.09,344.66 319.06,344.59 323.04,344.5C327.02,344.41 330.99,344.3 334.97,344.16C338.95,344.02 342.92,343.85 346.9,343.67C350.88,343.49 354.85,343.27 358.83,343.06C362.81,342.85 366.78,342.62 370.76,342.43C374.74,342.24 378.71,342.05 382.69,341.93C386.67,341.81 390.64,341.73 394.62,341.71C398.59,341.69 402.57,341.74 406.54,341.83C410.52,341.92 414.49,342.09 418.47,342.26C422.45,342.43 426.42,342.66 430.4,342.86C434.38,343.07 438.35,343.29 442.33,343.49C446.31,343.68 450.28,343.87 454.26,344.03C458.24,344.18 462.21,344.31 466.19,344.42C470.17,344.52 474.14,344.6 478.12,344.66C482.1,344.72 486.07,344.76 490.05,344.79C494.03,344.82 498,344.83 501.98,344.85C505.96,344.86 509.93,344.87 513.91,344.88C517.89,344.89 521.86,344.89 525.84,344.89C529.82,344.89 533.79,344.89 537.77,344.89C541.75,344.89 545.72,344.9 549.7,344.9C553.68,344.9 557.65,344.9 561.63,344.9C565.6,344.9 569.58,344.9 573.55,344.9C577.53,344.9 581.5,344.89 585.48,344.89C589.46,344.89 593.43,344.89 597.41,344.89C601.39,344.89 605.36,344.89 609.34,344.88C613.32,344.87 617.29,344.87 621.27,344.85C625.25,344.83 629.22,344.81 633.2,344.78C637.18,344.74 641.15,344.71 645.13,344.64C649.11,344.57 653.08,344.49 657.06,344.38C661.04,344.27 665.01,344.13 668.99,343.96C672.97,343.79 676.94,343.59 680.92,343.37C684.9,343.14 688.87,342.88 692.85,342.61C696.83,342.34 700.8,342.04 704.78,341.75C708.76,341.45 712.73,341.16 716.71,340.84C720.68,340.52 724.66,340.2 728.63,339.82C732.61,339.44 736.59,339.06 740.56,338.56C744.54,338.06 748.52,337.52 752.49,336.84C756.48,336.16 760.46,335.37 764.42,334.47C768.41,333.56 772.38,332.51 776.35,331.4C780.34,330.29 784.31,329.03 788.28,327.81C792.26,326.59 796.23,325.29 800.21,324.09C804.18,322.9 808.15,321.7 812.14,320.65C816.1,319.6 820.08,318.63 824.07,317.79C828.04,316.95 832.02,316.24 836,315.61C839.97,314.98 843.95,314.46 847.93,314.03C851.9,313.6 855.88,313.24 859.86,313.01C863.83,312.78 867.81,312.61 871.79,312.64C875.77,312.67 879.75,312.81 883.72,313.19C887.7,313.57 891.69,314.15 895.64,314.95C899.64,315.76 903.62,316.83 907.57,318.04C911.57,319.26 915.54,320.76 919.5,322.26C923.49,323.77 927.45,325.48 931.43,327.09C935.41,328.7 939.37,330.39 943.36,331.9C947.32,333.4 951.29,334.87 955.29,336.13C959.24,337.38 963.23,338.5 967.22,339.44C971.18,340.38 975.16,341.14 979.15,341.78C983.12,342.41 987.1,342.87 991.08,343.26Q995.05,343.65 1003.01,344.11L1003.01,344.9" style="vector-effect: non-scaling-stroke; stroke-width: 2px; stroke: rgb(51, 97, 159); stroke-opacity: 1; fill: rgb(51, 97, 159); fill-opacity: 0.5;"/><g class="points"><path class="point" transform="translate(1.02,337.73)" d="M2.5,0A2.5,2.5 0 1,1 0,-2.5A2.5,2.5 0 0,1 2.5,0Z" style="opacity: 1; stroke-width: 0px; fill: rgb(51, 97, 159); fill-opacity: 1;"/><path class="point" transform="translate(396.4,339.4)" d="M2.5,0A2.5,2.5 0 1,1 0,-2.5A2.5,2.5 0 0,1 2.5,0Z" style="opacity: 1; stroke-width: 0px; fill: rgb(51, 97, 159); fill-opacity: 1;"/><path class="point" transform="translate(725.83,337.19)" d="M2.5,0A2.5,2.5 0 1,1 0,-2.5A2.5,2.5 0 0,1 2.5,0Z" style="opacity: 1; stroke-width: 0px; fill: rgb(51, 97, 159); fill-opacity: 1;"/><path class="point" transform="translate(781.39,339.89)" d="M2.5,0A2.5,2.5 0 1,1 0,-2.5A2.5,2.5 0 0,1 2.5,0Z" style="opacity: 1; stroke-width: 0px; fill: rgb(51, 97, 159); fill-opacity: 1;"/><path class="point" transform="translate(807.29,338.89)" d="M2.5,0A2.5,2.5 0 1,1 0,-2.5A2.5,2.5 0 0,1 2.5,0Z" style="opacity: 1; stroke-width: 0px; fill: rgb(51, 97, 159); fill-opacity: 1;"/><path class="point" transform="translate(812.23,337.45)" d="M2.5,0A2.5,2.5 0 1,1 0,-2.5A2.5,2.5 0 0,1 2.5,0Z" style="opacity: 1; stroke-width: 0px; fill: rgb(51, 97, 159); fill-opacity: 1;"/><path class="point" transform="translate(817.86,338.54)" d="M2.5,0A2.5,2.5 0 1,1 0,-2.5A2.5,2.5 0 0,1 2.5,0Z" style="opacity: 1; stroke-width: 0px; fill: rgb(51, 97, 159); fill-opacity: 1;"/><path class="point" transform="translate(820.58,337.14)" d="M2.5,0A2.5,2.5 0 1,1 0,-2.5A2.5,2.5 0 0,1 2.5,0Z" style="opacity: 1; stroke-width: 0px; fill: rgb(51, 97, 159); fill-opacity: 1;"/><path class="point" transform="translate(838.48,340.21)" d="M2.5,0A2.5,2.5 0 1,1 0,-2.5A2.5,2.5 0 0,1 2.5,0Z" style="opacity: 1; stroke-width: 0px; fill: rgb(51, 97, 159); fill-opacity: 1;"/><path class="point" transform="translate(844.44,342.92)" d="M2.5,0A2.5,2.5 0 1,1 0,-2.5A2.5,2.5 0 0,1 2.5,0Z" style="opacity: 1; stroke-width: 0px; fill: rgb(51, 97, 159); fill-opacity: 1;"/><path class="point" transform="translate(847.85,336.84)" d="M2.5,0A2.5,2.5 0 1,1 0,-2.5A2.5,2.5 0 0,1 2.5,0Z" style="opacity: 1; stroke-width: 0px; fill: rgb(51, 97, 159); fill-opacity: 1;"/><path class="point" transform="translate(872.9,340.4)" d="M2.5,0A2.5,2.5 0 1,1 0,-2.5A2.5,2.5 0 0,1 2.5,0Z" style="opacity: 1; stroke-width: 0px; fill: rgb(51, 97, 159); fill-opacity: 1;"/><path class="point" transform="translate(875.12,334.61)" d="M2.5,0A2.5,2.5 0 1,1 0,-2.5A2.5,2.5 0 0,1 2.5,0Z" style="opacity: 1; stroke-width: 0px; fill: rgb(51, 97, 159); fill-opacity: 1;"/><path class="point" transform="translate(881.08,344.66)" d="M2.5,0A2.5,2.5 0 1,1 0,-2.5A2.5,2.5 0 0,1 2.5,0Z" style="opacity: 1; stroke-width: 0px; fill: rgb(51, 97, 159); fill-opacity: 1;"/><path class="point" transform="translate(888.75,341.87)" d="M2.5,0A2.5,2.5 0 1,1 0,-2.5A2.5,2.5 0 0,1 2.5,0Z" style="opacity: 1; stroke-width: 0px; fill: rgb(51, 97, 159); fill-opacity: 1;"/><path class="point" transform="translate(896.93,333.38)" d="M2.5,0A2.5,2.5 0 1,1 0,-2.5A2.5,2.5 0 0,1 2.5,0Z" style="opacity: 1; stroke-width: 0px; fill: rgb(51, 97, 159); fill-opacity: 1;"/><path class="point" transform="translate(903.75,340.06)" d="M2.5,0A2.5,2.5 0 1,1 0,-2.5A2.5,2.5 0 0,1 2.5,0Z" style="opacity: 1; stroke-width: 0px; fill: rgb(51, 97, 159); fill-opacity: 1;"/><path class="point" transform="translate(903.92,343.73)" d="M2.5,0A2.5,2.5 0 1,1 0,-2.5A2.5,2.5 0 0,1 2.5,0Z" style="opacity: 1; stroke-width: 0px; fill: rgb(51, 97, 159); fill-opacity: 1;"/><path class="point" transform="translate(912.95,340.44)" d="M2.5,0A2.5,2.5 0 1,1 0,-2.5A2.5,2.5 0 0,1 2.5,0Z" style="opacity: 1; stroke-width: 0px; fill: rgb(51, 97, 159); fill-opacity: 1;"/><path class="point" transform="translate(931.36,338.57)" d="M2.5,0A2.5,2.5 0 1,1 0,-2.5A2.5,2.5 0 0,1 2.5,0Z" style="opacity: 1; stroke-width: 0px; fill: rgb(51, 97, 159); fill-opacity: 1;"/></g></g><g class="trace violins" style="opacity: 1;"><path class="violin" d="M-6.55,312.64L-6.55,312.18Q0.3,311.95 3.73,311.79C7.16,311.63 10.58,311.44 14.01,311.24C17.44,311.04 20.86,310.8 24.29,310.58C27.72,310.36 31.14,310.11 34.57,309.91C38,309.72 41.42,309.53 44.85,309.41C48.28,309.3 51.7,309.22 55.13,309.22C58.56,309.22 61.98,309.28 65.41,309.39C68.84,309.5 72.26,309.68 75.69,309.87C79.12,310.06 82.54,310.31 85.97,310.53C89.4,310.75 92.82,310.99 96.25,311.2C99.68,311.4 103.1,311.6 106.53,311.76C109.96,311.92 113.38,312.05 116.81,312.16C120.24,312.27 123.66,312.34 127.09,312.4C130.52,312.46 133.94,312.51 137.37,312.54C140.8,312.57 144.22,312.58 147.65,312.6C151.08,312.61 154.5,312.62 157.93,312.63C161.36,312.64 164.78,312.64 168.21,312.64C171.64,312.64 175.06,312.64 178.49,312.64C181.92,312.64 185.34,312.64 188.77,312.64C192.2,312.64 195.62,312.64 199.05,312.64C202.48,312.64 205.9,312.64 209.33,312.64C212.76,312.64 216.18,312.64 219.61,312.64C223.04,312.64 226.46,312.64 229.89,312.64C233.32,312.64 236.74,312.64 240.17,312.64C243.6,312.64 247.02,312.64 250.45,312.64C253.88,312.64 257.3,312.64 260.73,312.64C264.16,312.64 267.58,312.64 271.01,312.64C274.44,312.64 277.86,312.64 281.29,312.64C284.72,312.64 288.14,312.64 291.57,312.64C295,312.64 298.42,312.63 301.85,312.63C305.28,312.63 308.7,312.63 312.13,312.62C315.56,312.61 318.98,312.6 322.41,312.58C325.84,312.56 329.26,312.53 332.69,312.49C336.12,312.44 339.54,312.39 342.97,312.31C346.4,312.23 349.82,312.13 353.25,312C356.68,311.87 360.1,311.71 363.53,311.53C366.96,311.35 370.38,311.13 373.81,310.91C377.24,310.69 380.66,310.44 384.09,310.23C387.52,310.02 390.94,309.79 394.37,309.63C397.8,309.47 401.22,309.33 404.65,309.27C408.08,309.21 411.5,309.21 414.93,309.26C418.36,309.31 421.78,309.44 425.21,309.6C428.64,309.76 432.06,309.99 435.49,310.2C438.92,310.41 442.34,310.66 445.77,310.88C449.2,311.1 452.62,311.32 456.05,311.5C459.48,311.68 462.9,311.85 466.33,311.98C469.76,312.11 473.18,312.22 476.61,312.3C480.04,312.38 483.46,312.43 486.89,312.48C490.32,312.52 493.74,312.55 497.17,312.57C500.6,312.59 504.02,312.61 507.45,312.62C510.87,312.63 514.3,312.63 517.72,312.63C521.15,312.63 524.57,312.64 528,312.64C531.43,312.64 534.85,312.64 538.28,312.64C541.71,312.64 545.13,312.64 548.56,312.64C551.99,312.64 555.41,312.64 558.84,312.64C562.27,312.64 565.69,312.64 569.12,312.64C572.55,312.64 575.97,312.64 579.4,312.64C582.83,312.64 586.25,312.64 589.68,312.63C593.11,312.62 596.53,312.61 599.96,312.6C603.39,312.58 606.81,312.57 610.24,312.54C613.67,312.51 617.09,312.47 620.52,312.41C623.95,312.35 627.37,312.28 630.8,312.17C634.23,312.06 637.65,311.93 641.08,311.77C644.51,311.61 647.93,311.42 651.36,311.22C654.79,311.02 658.21,310.77 661.64,310.55C665.07,310.33 668.49,310.08 671.92,309.89C675.35,309.7 678.77,309.51 682.2,309.39C685.63,309.27 689.05,309.19 692.48,309.18C695.91,309.17 699.33,309.22 702.76,309.3C706.19,309.38 709.61,309.53 713.04,309.65C716.47,309.76 719.89,309.93 723.32,309.99C726.75,310.05 730.17,310.12 733.6,310.04C737.03,309.96 740.46,309.83 743.88,309.52C747.31,309.21 750.75,308.79 754.16,308.2C757.6,307.61 761.03,306.85 764.44,305.96C767.88,305.07 771.31,304 774.72,302.85C778.16,301.69 781.58,300.36 785,299.04C788.44,297.71 791.85,296.26 795.28,294.89C798.7,293.52 802.12,292.12 805.56,290.84C808.97,289.57 812.4,288.33 815.84,287.26C819.25,286.2 822.68,285.24 826.12,284.42C829.53,283.61 832.96,282.92 836.4,282.36C839.82,281.8 843.25,281.37 846.68,281.04C850.1,280.71 853.53,280.49 856.96,280.39C860.38,280.29 863.82,280.29 867.24,280.43C870.67,280.57 874.1,280.84 877.52,281.26C880.96,281.68 884.39,282.26 887.8,282.97C891.24,283.69 894.67,284.58 898.08,285.56C901.52,286.55 904.95,287.7 908.36,288.88C911.8,290.07 915.22,291.39 918.64,292.69C922.07,293.99 925.49,295.37 928.92,296.67C932.34,297.97 935.76,299.3 939.2,300.51C942.62,301.72 946.04,302.88 949.48,303.93C952.89,304.97 956.32,305.93 959.76,306.76C963.17,307.59 966.6,308.3 970.04,308.92C973.46,309.53 976.89,310.04 980.32,310.46C983.74,310.88 987.17,311.18 990.6,311.45Q994.02,311.71 1000.88,312.05L1000.88,312.64" style="vector-effect: non-scaling-stroke; stroke-width: 2px; stroke: rgb(69, 91, 145); stroke-opacity: 1; fill: rgb(69, 91, 145); fill-opacity: 0.5;"/><g class="points"><path class="point" transform="translate(55.47,305.48)" d="M2.5,0A2.5,2.5 0 1,1 0,-2.5A2.5,2.5 0 0,1 2.5,0Z" style="opacity: 1; stroke-width: 0px; fill: rgb(69, 91, 145); fill-opacity: 1;"/><path class="point" transform="translate(410.04,307.14)" d="M2.5,0A2.5,2.5 0 1,1 0,-2.5A2.5,2.5 0 0,1 2.5,0Z" style="opacity: 1; stroke-width: 0px; fill: rgb(69, 91, 145); fill-opacity: 1;"/><path class="point" transform="translate(692.43,304.94)" d="M2.5,0A2.5,2.5 0 1,1 0,-2.5A2.5,2.5 0 0,1 2.5,0Z" style="opacity: 1; stroke-width: 0px; fill: rgb(69, 91, 145); fill-opacity: 1;"/><path class="point" transform="translate(788.03,307.64)" d="M2.5,0A2.5,2.5 0 1,1 0,-2.5A2.5,2.5 0 0,1 2.5,0Z" style="opacity: 1; stroke-width: 0px; fill: rgb(69, 91, 145); fill-opacity: 1;"/><path class="point" transform="translate(808.31,306.64)" d="M2.5,0A2.5,2.5 0 1,1 0,-2.5A2.5,2.5 0 0,1 2.5,0Z" style="opacity: 1; stroke-width: 0px; fill: rgb(69, 91, 145); fill-opacity: 1;"/><path class="point" transform="translate(813.09,305.2)" d="M2.5,0A2.5,2.5 0 1,1 0,-2.5A2.5,2.5 0 0,1 2.5,0Z" style="opacity: 1; stroke-width: 0px; fill: rgb(69, 91, 145); fill-opacity: 1;"/><path class="point" transform="translate(819.82,306.28)" d="M2.5,0A2.5,2.5 0 1,1 0,-2.5A2.5,2.5 0 0,1 2.5,0Z" style="opacity: 1; stroke-width: 0px; fill: rgb(69, 91, 145); fill-opacity: 1;"/><path class="point" transform="translate(827.91,305.03)" d="M2.5,0A2.5,2.5 0 1,1 0,-2.5A2.5,2.5 0 0,1 2.5,0Z" style="opacity: 1; stroke-width: 0px; fill: rgb(69, 91, 145); fill-opacity: 1;"/><path class="point" transform="translate(836.77,308.03)" d="M2.5,0A2.5,2.5 0 1,1 0,-2.5A2.5,2.5 0 0,1 2.5,0Z" style="opacity: 1; stroke-width: 0px; fill: rgb(69, 91, 145); fill-opacity: 1;"/><path class="point" transform="translate(838.22,310.92)" d="M2.5,0A2.5,2.5 0 1,1 0,-2.5A2.5,2.5 0 0,1 2.5,0Z" style="opacity: 1; stroke-width: 0px; fill: rgb(69, 91, 145); fill-opacity: 1;"/><path class="point" transform="translate(856.37,304.54)" d="M2.5,0A2.5,2.5 0 1,1 0,-2.5A2.5,2.5 0 0,1 2.5,0Z" style="opacity: 1; stroke-width: 0px; fill: rgb(69, 91, 145); fill-opacity: 1;"/><path class="point" transform="translate(868.47,308.08)" d="M2.5,0A2.5,2.5 0 1,1 0,-2.5A2.5,2.5 0 0,1 2.5,0Z" style="opacity: 1; stroke-width: 0px; fill: rgb(69, 91, 145); fill-opacity: 1;"/><path class="point" transform="translate(870.86,302.43)" d="M2.5,0A2.5,2.5 0 1,1 0,-2.5A2.5,2.5 0 0,1 2.5,0Z" style="opacity: 1; stroke-width: 0px; fill: rgb(69, 91, 145); fill-opacity: 1;"/><path class="point" transform="translate(873.76,312.29)" d="M2.5,0A2.5,2.5 0 1,1 0,-2.5A2.5,2.5 0 0,1 2.5,0Z" style="opacity: 1; stroke-width: 0px; fill: rgb(69, 91, 145); fill-opacity: 1;"/><path class="point" transform="translate(876.99,309.27)" d="M2.5,0A2.5,2.5 0 1,1 0,-2.5A2.5,2.5 0 0,1 2.5,0Z" style="opacity: 1; stroke-width: 0px; fill: rgb(69, 91, 145); fill-opacity: 1;"/><path class="point" transform="translate(888.24,301.25)" d="M2.5,0A2.5,2.5 0 1,1 0,-2.5A2.5,2.5 0 0,1 2.5,0Z" style="opacity: 1; stroke-width: 0px; fill: rgb(69, 91, 145); fill-opacity: 1;"/><path class="point" transform="translate(906.82,307.62)" d="M2.5,0A2.5,2.5 0 1,1 0,-2.5A2.5,2.5 0 0,1 2.5,0Z" style="opacity: 1; stroke-width: 0px; fill: rgb(69, 91, 145); fill-opacity: 1;"/><path class="point" transform="translate(909.2,310.85)" d="M2.5,0A2.5,2.5 0 1,1 0,-2.5A2.5,2.5 0 0,1 2.5,0Z" style="opacity: 1; stroke-width: 0px; fill: rgb(69, 91, 145); fill-opacity: 1;"/><path class="point" transform="translate(909.55,307.89)" d="M2.5,0A2.5,2.5 0 1,1 0,-2.5A2.5,2.5 0 0,1 2.5,0Z" style="opacity: 1; stroke-width: 0px; fill: rgb(69, 91, 145); fill-opacity: 1;"/><path class="point" transform="translate(938.86,306.29)" d="M2.5,0A2.5,2.5 0 1,1 0,-2.5A2.5,2.5 0 0,1 2.5,0Z" style="opacity: 1; stroke-width: 0px; fill: rgb(69, 91, 145); fill-opacity: 1;"/></g></g><g class="trace violins" style="opacity: 1;"><path class="violin" d="M96.16,280.39L96.16,279.98Q105.6,279.77 110.32,279.63C115.04,279.49 119.77,279.33 124.49,279.15C129.21,278.97 133.94,278.76 138.66,278.56C143.38,278.36 148.1,278.14 152.82,277.97C157.54,277.8 162.27,277.63 166.99,277.53C171.71,277.43 176.44,277.36 181.16,277.35C185.88,277.34 190.6,277.4 195.32,277.49C200.04,277.58 204.77,277.75 209.49,277.92C214.21,278.09 218.94,278.3 223.66,278.5C228.38,278.69 233.1,278.91 237.82,279.09C242.54,279.27 247.27,279.45 251.99,279.59C256.71,279.73 261.44,279.85 266.16,279.95C270.88,280.05 275.6,280.11 280.32,280.17C285.04,280.23 289.77,280.26 294.49,280.29C299.21,280.32 303.94,280.34 308.66,280.35C313.38,280.36 318.11,280.36 322.83,280.37C327.55,280.37 332.27,280.38 336.99,280.38C341.71,280.38 346.44,280.39 351.16,280.39C355.88,280.39 360.61,280.39 365.33,280.39C370.05,280.39 374.77,280.39 379.49,280.39C384.21,280.39 388.94,280.39 393.66,280.39C398.38,280.39 403.11,280.39 407.83,280.39C412.55,280.39 417.27,280.39 421.99,280.39C426.71,280.39 431.44,280.39 436.16,280.39C440.88,280.39 445.61,280.39 450.33,280.39C455.05,280.39 459.77,280.38 464.49,280.38C469.21,280.38 473.94,280.37 478.66,280.37C483.38,280.36 488.11,280.37 492.83,280.35C497.55,280.33 502.27,280.31 506.99,280.28C511.71,280.25 516.44,280.22 521.16,280.16C525.88,280.1 530.61,280.03 535.33,279.93C540.05,279.83 544.77,279.71 549.49,279.56C554.21,279.41 558.94,279.23 563.66,279.05C568.38,278.87 573.11,278.66 577.83,278.46C582.55,278.27 587.28,278.05 592,277.88C596.72,277.72 601.44,277.56 606.16,277.47C610.88,277.38 615.61,277.34 620.33,277.35C625.05,277.36 629.78,277.43 634.5,277.54C639.22,277.65 643.94,277.83 648.66,277.99C653.38,278.16 658.11,278.36 662.83,278.53C667.55,278.7 672.28,278.88 677,278.99C681.72,279.1 686.44,279.19 691.16,279.18C695.88,279.17 700.61,279.11 705.33,278.92C710.06,278.73 714.78,278.45 719.5,278.01C724.23,277.57 728.95,277 733.66,276.26C738.39,275.52 743.12,274.6 747.83,273.55C752.57,272.49 757.29,271.23 762,269.92C766.73,268.6 771.44,267.1 776.16,265.65C780.89,264.2 785.6,262.64 790.33,261.23C795.04,259.83 799.76,258.42 804.5,257.21C809.2,256.01 813.92,254.92 818.66,254C823.37,253.09 828.1,252.36 832.83,251.71C837.55,251.07 842.27,250.58 847,250.13C851.72,249.68 856.45,249.32 861.17,249.01C865.89,248.7 870.61,248.42 875.33,248.27C880.05,248.12 884.78,248.01 889.5,248.13C894.23,248.25 898.96,248.5 903.67,249.02C908.4,249.55 913.13,250.3 917.83,251.28C922.58,252.27 927.3,253.55 932,254.92C936.75,256.3 941.46,257.94 946.17,259.53C950.9,261.13 955.6,262.88 960.33,264.48C965.04,266.07 969.76,267.68 974.5,269.09C979.21,270.49 983.93,271.82 988.67,272.94C993.37,274.06 998.1,275.01 1002.83,275.82C1007.54,276.63 1012.27,277.25 1017,277.79C1021.72,278.32 1026.44,278.71 1031.17,279.03Q1035.89,279.35 1045.33,279.73L1045.33,280.39" style="vector-effect: non-scaling-stroke; stroke-width: 2px; stroke: rgb(88, 86, 132); stroke-opacity: 1; fill: rgb(88, 86, 132); fill-opacity: 0.5;"/><g class="points"><path class="point" transform="translate(181.84,273.08)" d="M2.5,0A2.5,2.5 0 1,1 0,-2.5A2.5,2.5 0 0,1 2.5,0Z" style="opacity: 1; stroke-width: 0px; fill: rgb(88, 86, 132); fill-opacity: 1;"/><path class="point" transform="translate(618.63,275.07)" d="M2.5,0A2.5,2.5 0 1,1 0,-2.5A2.5,2.5 0 0,1 2.5,0Z" style="opacity: 1; stroke-width: 0px; fill: rgb(88, 86, 132); fill-opacity: 1;"/><path class="point" transform="translate(791.1,272.44)" d="M2.5,0A2.5,2.5 0 1,1 0,-2.5A2.5,2.5 0 0,1 2.5,0Z" style="opacity: 1; stroke-width: 0px; fill: rgb(88, 86, 132); fill-opacity: 1;"/><path class="point" transform="translate(801.84,275.67)" d="M2.5,0A2.5,2.5 0 1,1 0,-2.5A2.5,2.5 0 0,1 2.5,0Z" style="opacity: 1; stroke-width: 0px; fill: rgb(88, 86, 132); fill-opacity: 1;"/><path class="point" transform="translate(809.85,274.47)" d="M2.5,0A2.5,2.5 0 1,1 0,-2.5A2.5,2.5 0 0,1 2.5,0Z" style="opacity: 1; stroke-width: 0px; fill: rgb(88, 86, 132); fill-opacity: 1;"/><path class="point" transform="translate(810.36,272.76)" d="M2.5,0A2.5,2.5 0 1,1 0,-2.5A2.5,2.5 0 0,1 2.5,0Z" style="opacity: 1; stroke-width: 0px; fill: rgb(88, 86, 132); fill-opacity: 1;"/><path class="point" transform="translate(828.59,274.07)" d="M2.5,0A2.5,2.5 0 1,1 0,-2.5A2.5,2.5 0 0,1 2.5,0Z" style="opacity: 1; stroke-width: 0px; fill: rgb(88, 86, 132); fill-opacity: 1;"/><path class="point" transform="translate(833.03,272.28)" d="M2.5,0A2.5,2.5 0 1,1 0,-2.5A2.5,2.5 0 0,1 2.5,0Z" style="opacity: 1; stroke-width: 0px; fill: rgb(88, 86, 132); fill-opacity: 1;"/><path class="point" transform="translate(838.82,275.77)" d="M2.5,0A2.5,2.5 0 1,1 0,-2.5A2.5,2.5 0 0,1 2.5,0Z" style="opacity: 1; stroke-width: 0px; fill: rgb(88, 86, 132); fill-opacity: 1;"/><path class="point" transform="translate(852.28,278.26)" d="M2.5,0A2.5,2.5 0 1,1 0,-2.5A2.5,2.5 0 0,1 2.5,0Z" style="opacity: 1; stroke-width: 0px; fill: rgb(88, 86, 132); fill-opacity: 1;"/><path class="point" transform="translate(869.33,272.36)" d="M2.5,0A2.5,2.5 0 1,1 0,-2.5A2.5,2.5 0 0,1 2.5,0Z" style="opacity: 1; stroke-width: 0px; fill: rgb(88, 86, 132); fill-opacity: 1;"/><path class="point" transform="translate(893.44,276.05)" d="M2.5,0A2.5,2.5 0 1,1 0,-2.5A2.5,2.5 0 0,1 2.5,0Z" style="opacity: 1; stroke-width: 0px; fill: rgb(88, 86, 132); fill-opacity: 1;"/><path class="point" transform="translate(896.59,269.87)" d="M2.5,0A2.5,2.5 0 1,1 0,-2.5A2.5,2.5 0 0,1 2.5,0Z" style="opacity: 1; stroke-width: 0px; fill: rgb(88, 86, 132); fill-opacity: 1;"/><path class="point" transform="translate(906.31,279.72)" d="M2.5,0A2.5,2.5 0 1,1 0,-2.5A2.5,2.5 0 0,1 2.5,0Z" style="opacity: 1; stroke-width: 0px; fill: rgb(88, 86, 132); fill-opacity: 1;"/><path class="point" transform="translate(908.86,277.21)" d="M2.5,0A2.5,2.5 0 1,1 0,-2.5A2.5,2.5 0 0,1 2.5,0Z" style="opacity: 1; stroke-width: 0px; fill: rgb(88, 86, 132); fill-opacity: 1;"/><path class="point" transform="translate(910.06,268.75)" d="M2.5,0A2.5,2.5 0 1,1 0,-2.5A2.5,2.5 0 0,1 2.5,0Z" style="opacity: 1; stroke-width: 0px; fill: rgb(88, 86, 132); fill-opacity: 1;"/><path class="point" transform="translate(911.76,275.55)" d="M2.5,0A2.5,2.5 0 1,1 0,-2.5A2.5,2.5 0 0,1 2.5,0Z" style="opacity: 1; stroke-width: 0px; fill: rgb(88, 86, 132); fill-opacity: 1;"/><path class="point" transform="translate(916.87,279.24)" d="M2.5,0A2.5,2.5 0 1,1 0,-2.5A2.5,2.5 0 0,1 2.5,0Z" style="opacity: 1; stroke-width: 0px; fill: rgb(88, 86, 132); fill-opacity: 1;"/><path class="point" transform="translate(936.47,275.99)" d="M2.5,0A2.5,2.5 0 1,1 0,-2.5A2.5,2.5 0 0,1 2.5,0Z" style="opacity: 1; stroke-width: 0px; fill: rgb(88, 86, 132); fill-opacity: 1;"/><path class="point" transform="translate(959.65,274.06)" d="M2.5,0A2.5,2.5 0 1,1 0,-2.5A2.5,2.5 0 0,1 2.5,0Z" style="opacity: 1; stroke-width: 0px; fill: rgb(88, 86, 132); fill-opacity: 1;"/></g></g><g class="trace violins" style="opacity: 1;"><path class="violin" d="M63.28,248.13L63.28,247.71Q68.11,247.49 70.53,247.35C72.95,247.21 75.37,247.03 77.79,246.85C80.21,246.66 82.63,246.44 85.05,246.24C87.47,246.04 89.88,245.82 92.3,245.64C94.72,245.46 97.14,245.29 99.56,245.18C101.98,245.08 104.39,245.01 106.81,245.01C109.23,245.01 111.65,245.08 114.07,245.18C116.49,245.28 118.91,245.46 121.33,245.63C123.75,245.81 126.16,246.03 128.58,246.23C131,246.43 133.42,246.65 135.84,246.84C138.26,247.03 140.67,247.21 143.09,247.35C145.51,247.5 147.93,247.61 150.35,247.71C152.77,247.8 155.19,247.86 157.61,247.92C160.03,247.97 162.44,248.01 164.86,248.04C167.28,248.07 169.7,248.09 172.12,248.1C174.54,248.11 176.95,248.12 179.37,248.12C181.79,248.13 184.21,248.13 186.63,248.13C189.05,248.13 191.47,248.13 193.89,248.13C196.31,248.13 198.72,248.13 201.14,248.13C203.56,248.13 205.98,248.13 208.4,248.13C210.82,248.13 213.23,248.13 215.65,248.13C218.07,248.13 220.49,248.13 222.91,248.13C225.33,248.13 227.75,248.13 230.17,248.13C232.59,248.13 235,248.13 237.42,248.13C239.84,248.13 242.26,248.13 244.68,248.13C247.1,248.13 249.51,248.13 251.93,248.13C254.35,248.13 256.77,248.13 259.19,248.13C261.61,248.13 264.03,248.13 266.45,248.13C268.87,248.13 271.28,248.13 273.7,248.13C276.12,248.13 278.54,248.13 280.96,248.13C283.38,248.13 285.79,248.13 288.21,248.13C290.63,248.13 293.05,248.13 295.47,248.13C297.89,248.13 300.31,248.13 302.73,248.13C305.15,248.13 307.56,248.13 309.98,248.13C312.4,248.13 314.82,248.13 317.24,248.13C319.66,248.13 322.08,248.13 324.5,248.13C326.92,248.13 329.33,248.13 331.75,248.13C334.17,248.13 336.59,248.13 339.01,248.13C341.43,248.13 343.84,248.13 346.26,248.13C348.68,248.13 351.1,248.13 353.52,248.13C355.94,248.13 358.36,248.13 360.78,248.13C363.2,248.13 365.61,248.12 368.03,248.12C370.45,248.11 372.87,248.11 375.29,248.1C377.71,248.09 380.12,248.08 382.54,248.06C384.96,248.03 387.38,248 389.8,247.95C392.22,247.9 394.64,247.85 397.06,247.76C399.48,247.67 401.89,247.56 404.31,247.43C406.73,247.29 409.15,247.13 411.57,246.95C413.99,246.77 416.4,246.55 418.82,246.35C421.24,246.15 423.66,245.93 426.08,245.74C428.5,245.56 430.92,245.36 433.34,245.24C435.76,245.12 438.17,245.04 440.59,245.02C443.01,245 445.43,245.05 447.85,245.13C450.27,245.21 452.68,245.37 455.1,245.53C457.52,245.7 459.94,245.92 462.36,246.12C464.78,246.32 467.2,246.55 469.62,246.74C472.04,246.93 474.45,247.12 476.87,247.27C479.29,247.42 481.71,247.54 484.13,247.65C486.55,247.75 488.96,247.84 491.38,247.9C493.8,247.96 496.22,248 498.64,248.03C501.06,248.06 503.48,248.07 505.9,248.09C508.32,248.1 510.73,248.11 513.15,248.12C515.57,248.13 517.99,248.13 520.41,248.13C522.83,248.13 525.24,248.13 527.66,248.13C530.08,248.13 532.5,248.13 534.92,248.13C537.34,248.13 539.76,248.13 542.18,248.13C544.6,248.13 547.01,248.13 549.43,248.13C551.85,248.13 554.27,248.13 556.69,248.13C559.11,248.13 561.52,248.13 563.94,248.13C566.36,248.13 568.78,248.13 571.2,248.13C573.62,248.13 576.04,248.13 578.46,248.13C580.88,248.13 583.29,248.13 585.71,248.13C588.13,248.13 590.55,248.13 592.97,248.13C595.39,248.13 597.8,248.13 600.22,248.13C602.64,248.13 605.06,248.13 607.48,248.13C609.9,248.13 612.32,248.13 614.74,248.13C617.16,248.13 619.57,248.13 621.99,248.13C624.41,248.13 626.83,248.13 629.25,248.13C631.67,248.13 634.08,248.13 636.5,248.13C638.92,248.13 641.34,248.13 643.76,248.13C646.18,248.13 648.6,248.13 651.02,248.13C653.44,248.13 655.85,248.13 658.27,248.13C660.69,248.13 663.11,248.13 665.53,248.13C667.95,248.13 670.37,248.13 672.79,248.13C675.21,248.13 677.62,248.13 680.04,248.13C682.46,248.13 684.88,248.13 687.3,248.13C689.72,248.13 692.13,248.13 694.55,248.13C696.97,248.13 699.39,248.12 701.81,248.12C704.23,248.12 706.65,248.12 709.07,248.11C711.49,248.1 713.9,248.09 716.32,248.07C718.74,248.05 721.16,248.03 723.58,247.99C726,247.95 728.41,247.9 730.83,247.83C733.25,247.76 735.67,247.67 738.09,247.55C740.51,247.43 742.93,247.28 745.35,247.11C747.77,246.94 750.18,246.74 752.6,246.54C755.02,246.34 757.44,246.11 759.86,245.9C762.28,245.7 764.69,245.48 767.11,245.31C769.53,245.14 771.95,244.99 774.37,244.88C776.79,244.77 779.21,244.71 781.63,244.64C784.05,244.57 786.46,244.55 788.88,244.46C791.3,244.37 793.72,244.31 796.14,244.11C798.56,243.91 800.98,243.68 803.39,243.28C805.82,242.88 808.25,242.36 810.65,241.72C813.09,241.07 815.51,240.26 817.91,239.38C820.35,238.49 822.75,237.44 825.16,236.38C827.59,235.31 830.01,234.13 832.42,232.98C834.84,231.82 837.25,230.61 839.67,229.44C842.09,228.27 844.5,227.1 846.93,225.97C849.34,224.84 851.76,223.72 854.19,222.67C856.6,221.62 859.01,220.57 861.44,219.67C863.84,218.78 866.26,217.9 868.7,217.27C871.1,216.65 873.52,216.1 875.95,215.88C878.36,215.66 880.81,215.64 883.21,215.92C885.65,216.21 888.09,216.82 890.47,217.62C892.93,218.44 895.33,219.6 897.72,220.81C900.17,222.05 902.57,223.55 904.98,224.99C907.41,226.44 909.8,228.03 912.23,229.47C914.64,230.9 917.04,232.35 919.49,233.62C921.89,234.86 924.3,236.03 926.75,237.03C929.14,238 931.57,238.83 934,239.55C936.4,240.26 938.83,240.81 941.26,241.31C943.67,241.81 946.09,242.18 948.51,242.55C950.93,242.92 953.35,243.2 955.77,243.51C958.19,243.82 960.61,244.1 963.03,244.39C965.45,244.68 967.86,244.97 970.28,245.25C972.7,245.53 975.12,245.81 977.54,246.07C979.96,246.32 982.37,246.57 984.79,246.78C987.21,246.99 989.63,247.18 992.05,247.33Q994.47,247.48 999.31,247.7L999.31,248.13" style="vector-effect: non-scaling-stroke; stroke-width: 2px; stroke: rgb(106, 80, 119); stroke-opacity: 1; fill: rgb(106, 80, 119); fill-opacity: 0.5;"/><g class="points"><path class="point" transform="translate(106.85,241.09)" d="M2.5,0A2.5,2.5 0 1,1 0,-2.5A2.5,2.5 0 0,1 2.5,0Z" style="opacity: 1; stroke-width: 0px; fill: rgb(106, 80, 119); fill-opacity: 1;"/><path class="point" transform="translate(441.91,242.47)" d="M2.5,0A2.5,2.5 0 1,1 0,-2.5A2.5,2.5 0 0,1 2.5,0Z" style="opacity: 1; stroke-width: 0px; fill: rgb(106, 80, 119); fill-opacity: 1;"/><path class="point" transform="translate(777.98,240.65)" d="M2.5,0A2.5,2.5 0 1,1 0,-2.5A2.5,2.5 0 0,1 2.5,0Z" style="opacity: 1; stroke-width: 0px; fill: rgb(106, 80, 119); fill-opacity: 1;"/><path class="point" transform="translate(831.49,242.88)" d="M2.5,0A2.5,2.5 0 1,1 0,-2.5A2.5,2.5 0 0,1 2.5,0Z" style="opacity: 1; stroke-width: 0px; fill: rgb(106, 80, 119); fill-opacity: 1;"/><path class="point" transform="translate(837.46,242.05)" d="M2.5,0A2.5,2.5 0 1,1 0,-2.5A2.5,2.5 0 0,1 2.5,0Z" style="opacity: 1; stroke-width: 0px; fill: rgb(106, 80, 119); fill-opacity: 1;"/><path class="point" transform="translate(844.61,240.85)" d="M2.5,0A2.5,2.5 0 1,1 0,-2.5A2.5,2.5 0 0,1 2.5,0Z" style="opacity: 1; stroke-width: 0px; fill: rgb(106, 80, 119); fill-opacity: 1;"/><path class="point" transform="translate(852.79,241.76)" d="M2.5,0A2.5,2.5 0 1,1 0,-2.5A2.5,2.5 0 0,1 2.5,0Z" style="opacity: 1; stroke-width: 0px; fill: rgb(106, 80, 119); fill-opacity: 1;"/><path class="point" transform="translate(856.2,240.46)" d="M2.5,0A2.5,2.5 0 1,1 0,-2.5A2.5,2.5 0 0,1 2.5,0Z" style="opacity: 1; stroke-width: 0px; fill: rgb(106, 80, 119); fill-opacity: 1;"/><path class="point" transform="translate(871.37,243.57)" d="M2.5,0A2.5,2.5 0 1,1 0,-2.5A2.5,2.5 0 0,1 2.5,0Z" style="opacity: 1; stroke-width: 0px; fill: rgb(106, 80, 119); fill-opacity: 1;"/><path class="point" transform="translate(873.25,246.06)" d="M2.5,0A2.5,2.5 0 1,1 0,-2.5A2.5,2.5 0 0,1 2.5,0Z" style="opacity: 1; stroke-width: 0px; fill: rgb(106, 80, 119); fill-opacity: 1;"/><path class="point" transform="translate(875.29,239.99)" d="M2.5,0A2.5,2.5 0 1,1 0,-2.5A2.5,2.5 0 0,1 2.5,0Z" style="opacity: 1; stroke-width: 0px; fill: rgb(106, 80, 119); fill-opacity: 1;"/><path class="point" transform="translate(878.7,243.8)" d="M2.5,0A2.5,2.5 0 1,1 0,-2.5A2.5,2.5 0 0,1 2.5,0Z" style="opacity: 1; stroke-width: 0px; fill: rgb(106, 80, 119); fill-opacity: 1;"/><path class="point" transform="translate(885.52,237.69)" d="M2.5,0A2.5,2.5 0 1,1 0,-2.5A2.5,2.5 0 0,1 2.5,0Z" style="opacity: 1; stroke-width: 0px; fill: rgb(106, 80, 119); fill-opacity: 1;"/><path class="point" transform="translate(886.03,247.54)" d="M2.5,0A2.5,2.5 0 1,1 0,-2.5A2.5,2.5 0 0,1 2.5,0Z" style="opacity: 1; stroke-width: 0px; fill: rgb(106, 80, 119); fill-opacity: 1;"/><path class="point" transform="translate(890.97,244.46)" d="M2.5,0A2.5,2.5 0 1,1 0,-2.5A2.5,2.5 0 0,1 2.5,0Z" style="opacity: 1; stroke-width: 0px; fill: rgb(106, 80, 119); fill-opacity: 1;"/><path class="point" transform="translate(892.16,237.59)" d="M2.5,0A2.5,2.5 0 1,1 0,-2.5A2.5,2.5 0 0,1 2.5,0Z" style="opacity: 1; stroke-width: 0px; fill: rgb(106, 80, 119); fill-opacity: 1;"/><path class="point" transform="translate(898.64,242.8)" d="M2.5,0A2.5,2.5 0 1,1 0,-2.5A2.5,2.5 0 0,1 2.5,0Z" style="opacity: 1; stroke-width: 0px; fill: rgb(106, 80, 119); fill-opacity: 1;"/><path class="point" transform="translate(904.26,245.42)" d="M2.5,0A2.5,2.5 0 1,1 0,-2.5A2.5,2.5 0 0,1 2.5,0Z" style="opacity: 1; stroke-width: 0px; fill: rgb(106, 80, 119); fill-opacity: 1;"/><path class="point" transform="translate(924.03,243.02)" d="M2.5,0A2.5,2.5 0 1,1 0,-2.5A2.5,2.5 0 0,1 2.5,0Z" style="opacity: 1; stroke-width: 0px; fill: rgb(106, 80, 119); fill-opacity: 1;"/><path class="point" transform="translate(955.73,241.76)" d="M2.5,0A2.5,2.5 0 1,1 0,-2.5A2.5,2.5 0 0,1 2.5,0Z" style="opacity: 1; stroke-width: 0px; fill: rgb(106, 80, 119); fill-opacity: 1;"/></g></g><g class="trace violins" style="opacity: 1;"><path class="violin" d="M272.01,215.88L272.01,215.44Q277.24,215.23 279.85,215.08C282.46,214.93 285.08,214.75 287.69,214.56C290.3,214.37 292.92,214.14 295.53,213.93C298.14,213.72 300.75,213.49 303.37,213.31C305.98,213.13 308.6,212.95 311.22,212.84C313.83,212.73 316.45,212.65 319.06,212.65C321.67,212.65 324.29,212.71 326.9,212.81C329.51,212.91 332.13,213.09 334.74,213.27C337.35,213.45 339.97,213.67 342.58,213.88C345.19,214.09 347.81,214.32 350.42,214.51C353.03,214.7 355.65,214.89 358.26,215.04C360.87,215.19 363.49,215.32 366.1,215.42C368.71,215.52 371.33,215.59 373.94,215.65C376.55,215.71 379.17,215.75 381.78,215.78C384.4,215.81 387.01,215.83 389.63,215.84C392.24,215.85 394.86,215.86 397.47,215.86C400.08,215.86 402.7,215.86 405.31,215.85C407.92,215.84 410.54,215.83 413.15,215.81C415.76,215.79 418.38,215.77 420.99,215.73C423.6,215.69 426.22,215.63 428.83,215.55C431.44,215.47 434.06,215.37 436.67,215.25C439.28,215.12 441.9,214.97 444.51,214.8C447.12,214.63 449.74,214.41 452.35,214.21C454.96,214 457.58,213.77 460.19,213.57C462.81,213.37 465.42,213.16 468.04,213.01C470.65,212.86 473.27,212.74 475.88,212.69C478.49,212.64 481.11,212.64 483.72,212.7C486.33,212.76 488.95,212.89 491.56,213.04C494.17,213.19 496.79,213.41 499.4,213.61C502.01,213.81 504.63,214.05 507.24,214.25C509.85,214.45 512.47,214.66 515.08,214.83C517.69,215 520.31,215.15 522.92,215.27C525.53,215.39 528.15,215.49 530.76,215.57C533.37,215.65 535.99,215.69 538.6,215.73C541.22,215.77 543.83,215.8 546.45,215.82C549.06,215.84 551.68,215.85 554.29,215.86C556.9,215.87 559.52,215.87 562.13,215.87C564.74,215.87 567.36,215.88 569.97,215.88C572.58,215.88 575.2,215.88 577.81,215.88C580.42,215.88 583.04,215.88 585.65,215.88C588.26,215.88 590.88,215.88 593.49,215.88C596.1,215.88 598.72,215.88 601.33,215.88C603.94,215.88 606.56,215.88 609.17,215.88C611.78,215.88 614.4,215.88 617.01,215.88C619.63,215.88 622.24,215.88 624.86,215.88C627.47,215.88 630.09,215.88 632.7,215.88C635.31,215.88 637.93,215.88 640.54,215.88C643.15,215.88 645.77,215.88 648.38,215.88C650.99,215.88 653.61,215.88 656.22,215.88C658.83,215.88 661.45,215.88 664.06,215.88C666.67,215.88 669.29,215.88 671.9,215.88C674.51,215.88 677.13,215.88 679.74,215.88C682.35,215.88 684.97,215.88 687.58,215.88C690.19,215.88 692.81,215.88 695.42,215.88C698.03,215.88 700.65,215.88 703.26,215.88C705.88,215.88 708.49,215.88 711.11,215.88C713.72,215.88 716.34,215.87 718.95,215.87C721.56,215.87 724.18,215.87 726.79,215.87C729.4,215.87 732.02,215.85 734.63,215.84C737.24,215.83 739.86,215.82 742.47,215.79C745.08,215.76 747.7,215.73 750.31,215.67C752.92,215.61 755.54,215.55 758.15,215.45C760.76,215.35 763.38,215.22 765.99,215.06C768.6,214.9 771.22,214.7 773.83,214.47C776.45,214.23 779.06,213.97 781.67,213.65C784.29,213.33 786.91,212.98 789.52,212.57C792.14,212.16 794.75,211.71 797.36,211.17C799.98,210.63 802.6,210.05 805.2,209.34C807.83,208.63 810.44,207.83 813.04,206.91C815.67,205.98 818.29,204.92 820.88,203.78C823.51,202.62 826.12,201.32 828.72,200.02C831.34,198.71 833.94,197.27 836.56,195.95C839.17,194.64 841.77,193.29 844.4,192.11C846.99,190.95 849.6,189.85 852.24,188.93C854.83,188.03 857.45,187.27 860.08,186.64C862.68,186.01 865.31,185.55 867.93,185.14C870.54,184.73 873.15,184.43 875.77,184.18C878.38,183.93 881,183.73 883.61,183.64C886.22,183.55 888.84,183.49 891.45,183.62C894.07,183.75 896.69,183.98 899.29,184.44C901.92,184.91 904.55,185.56 907.13,186.42C909.78,187.3 912.39,188.43 914.97,189.67C917.62,190.95 920.22,192.48 922.81,194C925.44,195.55 928.03,197.27 930.65,198.89C933.26,200.5 935.85,202.19 938.49,203.7C941.08,205.18 943.69,206.63 946.34,207.87C948.92,209.08 951.54,210.17 954.18,211.07C956.77,211.95 959.39,212.66 962.02,213.25Q964.62,213.83 969.86,214.58L969.86,215.88" style="vector-effect: non-scaling-stroke; stroke-width: 2px; stroke: rgb(124, 75, 106); stroke-opacity: 1; fill: rgb(124, 75, 106); fill-opacity: 0.5;"/><g class="points"><path class="point" transform="translate(319.37,208.77)" d="M2.5,0A2.5,2.5 0 1,1 0,-2.5A2.5,2.5 0 0,1 2.5,0Z" style="opacity: 1; stroke-width: 0px; fill: rgb(124, 75, 106); fill-opacity: 1;"/><path class="point" transform="translate(479.57,210.31)" d="M2.5,0A2.5,2.5 0 1,1 0,-2.5A2.5,2.5 0 0,1 2.5,0Z" style="opacity: 1; stroke-width: 0px; fill: rgb(124, 75, 106); fill-opacity: 1;"/><path class="point" transform="translate(806.01,208.28)" d="M2.5,0A2.5,2.5 0 1,1 0,-2.5A2.5,2.5 0 0,1 2.5,0Z" style="opacity: 1; stroke-width: 0px; fill: rgb(124, 75, 106); fill-opacity: 1;"/><path class="point" transform="translate(842.57,210.76)" d="M2.5,0A2.5,2.5 0 1,1 0,-2.5A2.5,2.5 0 0,1 2.5,0Z" style="opacity: 1; stroke-width: 0px; fill: rgb(124, 75, 106); fill-opacity: 1;"/><path class="point" transform="translate(848.7,209.84)" d="M2.5,0A2.5,2.5 0 1,1 0,-2.5A2.5,2.5 0 0,1 2.5,0Z" style="opacity: 1; stroke-width: 0px; fill: rgb(124, 75, 106); fill-opacity: 1;"/><path class="point" transform="translate(849.56,208.52)" d="M2.5,0A2.5,2.5 0 1,1 0,-2.5A2.5,2.5 0 0,1 2.5,0Z" style="opacity: 1; stroke-width: 0px; fill: rgb(124, 75, 106); fill-opacity: 1;"/><path class="point" transform="translate(850.07,209.5)" d="M2.5,0A2.5,2.5 0 1,1 0,-2.5A2.5,2.5 0 0,1 2.5,0Z" style="opacity: 1; stroke-width: 0px; fill: rgb(124, 75, 106); fill-opacity: 1;"/><path class="point" transform="translate(855.18,208.12)" d="M2.5,0A2.5,2.5 0 1,1 0,-2.5A2.5,2.5 0 0,1 2.5,0Z" style="opacity: 1; stroke-width: 0px; fill: rgb(124, 75, 106); fill-opacity: 1;"/><path class="point" transform="translate(859.44,211.34)" d="M2.5,0A2.5,2.5 0 1,1 0,-2.5A2.5,2.5 0 0,1 2.5,0Z" style="opacity: 1; stroke-width: 0px; fill: rgb(124, 75, 106); fill-opacity: 1;"/><path class="point" transform="translate(868.81,213.69)" d="M2.5,0A2.5,2.5 0 1,1 0,-2.5A2.5,2.5 0 0,1 2.5,0Z" style="opacity: 1; stroke-width: 0px; fill: rgb(124, 75, 106); fill-opacity: 1;"/><path class="point" transform="translate(886.03,208.01)" d="M2.5,0A2.5,2.5 0 1,1 0,-2.5A2.5,2.5 0 0,1 2.5,0Z" style="opacity: 1; stroke-width: 0px; fill: rgb(124, 75, 106); fill-opacity: 1;"/><path class="point" transform="translate(887.9,211.13)" d="M2.5,0A2.5,2.5 0 1,1 0,-2.5A2.5,2.5 0 0,1 2.5,0Z" style="opacity: 1; stroke-width: 0px; fill: rgb(124, 75, 106); fill-opacity: 1;"/><path class="point" transform="translate(888.92,206.01)" d="M2.5,0A2.5,2.5 0 1,1 0,-2.5A2.5,2.5 0 0,1 2.5,0Z" style="opacity: 1; stroke-width: 0px; fill: rgb(124, 75, 106); fill-opacity: 1;"/><path class="point" transform="translate(889.61,214.64)" d="M2.5,0A2.5,2.5 0 1,1 0,-2.5A2.5,2.5 0 0,1 2.5,0Z" style="opacity: 1; stroke-width: 0px; fill: rgb(124, 75, 106); fill-opacity: 1;"/><path class="point" transform="translate(898.47,212.67)" d="M2.5,0A2.5,2.5 0 1,1 0,-2.5A2.5,2.5 0 0,1 2.5,0Z" style="opacity: 1; stroke-width: 0px; fill: rgb(124, 75, 106); fill-opacity: 1;"/><path class="point" transform="translate(909.63,203.72)" d="M2.5,0A2.5,2.5 0 1,1 0,-2.5A2.5,2.5 0 0,1 2.5,0Z" style="opacity: 1; stroke-width: 0px; fill: rgb(124, 75, 106); fill-opacity: 1;"/><path class="point" transform="translate(913.12,210.99)" d="M2.5,0A2.5,2.5 0 1,1 0,-2.5A2.5,2.5 0 0,1 2.5,0Z" style="opacity: 1; stroke-width: 0px; fill: rgb(124, 75, 106); fill-opacity: 1;"/><path class="point" transform="translate(913.29,214.52)" d="M2.5,0A2.5,2.5 0 1,1 0,-2.5A2.5,2.5 0 0,1 2.5,0Z" style="opacity: 1; stroke-width: 0px; fill: rgb(124, 75, 106); fill-opacity: 1;"/><path class="point" transform="translate(918.24,211.26)" d="M2.5,0A2.5,2.5 0 1,1 0,-2.5A2.5,2.5 0 0,1 2.5,0Z" style="opacity: 1; stroke-width: 0px; fill: rgb(124, 75, 106); fill-opacity: 1;"/><path class="point" transform="translate(922.5,209.55)" d="M2.5,0A2.5,2.5 0 1,1 0,-2.5A2.5,2.5 0 0,1 2.5,0Z" style="opacity: 1; stroke-width: 0px; fill: rgb(124, 75, 106); fill-opacity: 1;"/></g></g><g class="trace violins" style="opacity: 1;"><path class="violin" d="M18.44,183.62L18.44,183.16Q23.94,182.93 26.69,182.77C29.44,182.61 32.19,182.42 34.94,182.22C37.69,182.02 40.44,181.77 43.19,181.55C45.94,181.33 48.7,181.08 51.45,180.89C54.2,180.7 56.95,180.51 59.7,180.39C62.45,180.27 65.2,180.2 67.95,180.19C70.7,180.18 73.45,180.24 76.2,180.35C78.95,180.46 81.7,180.64 84.45,180.83C87.2,181.02 89.95,181.27 92.7,181.49C95.45,181.71 98.2,181.95 100.95,182.16C103.7,182.36 106.45,182.56 109.2,182.72C111.95,182.88 114.7,183.02 117.45,183.13C120.2,183.24 122.95,183.32 125.7,183.38C128.45,183.44 131.2,183.48 133.95,183.51C136.7,183.54 139.45,183.56 142.2,183.58C144.95,183.6 147.7,183.6 150.45,183.61C153.2,183.62 155.95,183.62 158.7,183.62C161.45,183.62 164.2,183.62 166.95,183.62C169.7,183.62 172.46,183.62 175.21,183.62C177.96,183.62 180.71,183.62 183.46,183.62C186.21,183.62 188.96,183.62 191.71,183.62C194.46,183.62 197.21,183.62 199.96,183.62C202.71,183.62 205.46,183.62 208.21,183.62C210.96,183.62 213.71,183.62 216.46,183.62C219.21,183.62 221.96,183.62 224.71,183.62C227.46,183.62 230.21,183.62 232.96,183.62C235.71,183.62 238.46,183.62 241.21,183.62C243.96,183.62 246.71,183.62 249.46,183.62C252.21,183.62 254.96,183.62 257.71,183.62C260.46,183.62 263.21,183.62 265.96,183.62C268.71,183.62 271.46,183.62 274.21,183.62C276.96,183.62 279.71,183.62 282.46,183.62C285.21,183.62 287.96,183.62 290.71,183.62C293.46,183.62 296.22,183.62 298.97,183.62C301.72,183.62 304.47,183.62 307.22,183.62C309.97,183.62 312.72,183.62 315.47,183.62C318.22,183.62 320.97,183.62 323.72,183.62C326.47,183.62 329.22,183.62 331.97,183.62C334.72,183.62 337.47,183.62 340.22,183.62C342.97,183.62 345.72,183.62 348.47,183.62C351.22,183.62 353.97,183.62 356.72,183.62C359.47,183.62 362.22,183.62 364.97,183.62C367.72,183.62 370.47,183.62 373.22,183.62C375.97,183.62 378.72,183.62 381.47,183.62C384.22,183.62 386.97,183.62 389.72,183.62C392.47,183.62 395.22,183.62 397.97,183.62C400.72,183.62 403.47,183.62 406.22,183.62C408.97,183.62 411.72,183.62 414.47,183.62C417.22,183.62 419.98,183.62 422.73,183.62C425.48,183.62 428.23,183.62 430.98,183.62C433.73,183.62 436.48,183.62 439.23,183.62C441.98,183.62 444.73,183.62 447.48,183.62C450.23,183.62 452.98,183.62 455.73,183.62C458.48,183.62 461.23,183.62 463.98,183.62C466.73,183.62 469.48,183.62 472.23,183.62C474.98,183.62 477.73,183.62 480.48,183.62C483.23,183.62 485.98,183.62 488.73,183.62C491.48,183.62 494.23,183.62 496.98,183.62C499.73,183.62 502.48,183.62 505.23,183.62C507.98,183.62 510.73,183.62 513.48,183.62C516.23,183.62 518.98,183.62 521.73,183.62C524.48,183.62 527.23,183.62 529.98,183.62C532.73,183.62 535.49,183.62 538.24,183.62C540.99,183.62 543.74,183.62 546.49,183.62C549.24,183.62 551.99,183.62 554.74,183.62C557.49,183.62 560.24,183.62 562.99,183.62C565.74,183.62 568.49,183.62 571.24,183.62C573.99,183.62 576.74,183.62 579.49,183.62C582.24,183.62 584.99,183.62 587.74,183.61C590.49,183.6 593.24,183.59 595.99,183.58C598.74,183.56 601.49,183.55 604.24,183.52C606.99,183.49 609.74,183.44 612.49,183.38C615.24,183.32 617.99,183.25 620.74,183.14C623.49,183.03 626.24,182.9 628.99,182.74C631.74,182.58 634.49,182.38 637.24,182.18C639.99,181.97 642.74,181.73 645.49,181.51C648.24,181.29 650.99,181.04 653.74,180.85C656.49,180.66 659.25,180.47 662,180.36C664.75,180.25 667.5,180.19 670.25,180.19C673,180.19 675.75,180.26 678.5,180.37C681.25,180.48 684,180.68 686.75,180.87C689.5,181.06 692.25,181.31 695,181.53C697.75,181.75 700.5,182 703.25,182.2C706,182.4 708.75,182.59 711.5,182.75C714.25,182.91 717,183.03 719.75,183.14C722.5,183.24 725.25,183.32 728,183.38C730.75,183.44 733.5,183.46 736.25,183.48C739,183.5 741.75,183.5 744.5,183.48C747.25,183.46 750,183.43 752.75,183.37C755.5,183.31 758.25,183.23 761,183.11C763.75,182.99 766.5,182.86 769.25,182.67C772,182.48 774.75,182.26 777.5,181.99C780.25,181.72 783.01,181.4 785.76,181.03C788.51,180.66 791.26,180.25 794.01,179.77C796.76,179.29 799.52,178.77 802.26,178.16C805.02,177.55 807.77,176.88 810.51,176.11C813.27,175.33 816.03,174.47 818.76,173.49C821.53,172.5 824.28,171.39 827.01,170.21C829.78,169.02 832.52,167.68 835.26,166.36C838.02,165.03 840.75,163.58 843.51,162.25C846.25,160.92 848.99,159.56 851.76,158.38C854.49,157.22 857.24,156.11 860.01,155.21C862.74,154.33 865.49,153.58 868.26,153.01C870.99,152.45 873.75,152.06 876.51,151.79C879.25,151.52 882.01,151.41 884.76,151.37C887.51,151.33 890.26,151.4 893.01,151.56C895.76,151.72 898.52,151.97 901.26,152.33C904.02,152.7 906.78,153.16 909.52,153.76C912.28,154.36 915.04,155.1 917.77,155.93C920.54,156.77 923.28,157.75 926.02,158.77C928.78,159.8 931.52,160.95 934.27,162.08C937.03,163.21 939.77,164.41 942.52,165.56C945.27,166.71 948.01,167.87 950.77,168.97C953.51,170.07 956.26,171.14 959.02,172.15C961.76,173.15 964.51,174.11 967.27,175.01C970.01,175.9 972.76,176.75 975.52,177.51C978.26,178.27 981.01,178.96 983.77,179.56C986.51,180.16 989.26,180.68 992.02,181.12C994.76,181.56 997.52,181.91 1000.27,182.21Q1003.02,182.51 1008.52,182.9L1008.52,183.62" style="vector-effect: non-scaling-stroke; stroke-width: 2px; stroke: rgb(142, 70, 92); stroke-opacity: 1; fill: rgb(142, 70, 92); fill-opacity: 0.5;"/><g class="points"><path class="point" transform="translate(68.34,176.53)" d="M2.5,0A2.5,2.5 0 1,1 0,-2.5A2.5,2.5 0 0,1 2.5,0Z" style="opacity: 1; stroke-width: 0px; fill: rgb(142, 70, 92); fill-opacity: 1;"/><path class="point" transform="translate(670.1,178.03)" d="M2.5,0A2.5,2.5 0 1,1 0,-2.5A2.5,2.5 0 0,1 2.5,0Z" style="opacity: 1; stroke-width: 0px; fill: rgb(142, 70, 92); fill-opacity: 1;"/><path class="point" transform="translate(810.53,176.05)" d="M2.5,0A2.5,2.5 0 1,1 0,-2.5A2.5,2.5 0 0,1 2.5,0Z" style="opacity: 1; stroke-width: 0px; fill: rgb(142, 70, 92); fill-opacity: 1;"/><path class="point" transform="translate(841.55,178.48)" d="M2.5,0A2.5,2.5 0 1,1 0,-2.5A2.5,2.5 0 0,1 2.5,0Z" style="opacity: 1; stroke-width: 0px; fill: rgb(142, 70, 92); fill-opacity: 1;"/><path class="point" transform="translate(856.2,177.57)" d="M2.5,0A2.5,2.5 0 1,1 0,-2.5A2.5,2.5 0 0,1 2.5,0Z" style="opacity: 1; stroke-width: 0px; fill: rgb(142, 70, 92); fill-opacity: 1;"/><path class="point" transform="translate(858.93,176.27)" d="M2.5,0A2.5,2.5 0 1,1 0,-2.5A2.5,2.5 0 0,1 2.5,0Z" style="opacity: 1; stroke-width: 0px; fill: rgb(142, 70, 92); fill-opacity: 1;"/><path class="point" transform="translate(860.12,177.29)" d="M2.5,0A2.5,2.5 0 1,1 0,-2.5A2.5,2.5 0 0,1 2.5,0Z" style="opacity: 1; stroke-width: 0px; fill: rgb(142, 70, 92); fill-opacity: 1;"/><path class="point" transform="translate(860.12,175.65)" d="M2.5,0A2.5,2.5 0 1,1 0,-2.5A2.5,2.5 0 0,1 2.5,0Z" style="opacity: 1; stroke-width: 0px; fill: rgb(142, 70, 92); fill-opacity: 1;"/><path class="point" transform="translate(867.62,179.06)" d="M2.5,0A2.5,2.5 0 1,1 0,-2.5A2.5,2.5 0 0,1 2.5,0Z" style="opacity: 1; stroke-width: 0px; fill: rgb(142, 70, 92); fill-opacity: 1;"/><path class="point" transform="translate(882.28,181.9)" d="M2.5,0A2.5,2.5 0 1,1 0,-2.5A2.5,2.5 0 0,1 2.5,0Z" style="opacity: 1; stroke-width: 0px; fill: rgb(142, 70, 92); fill-opacity: 1;"/><path class="point" transform="translate(884.32,175.47)" d="M2.5,0A2.5,2.5 0 1,1 0,-2.5A2.5,2.5 0 0,1 2.5,0Z" style="opacity: 1; stroke-width: 0px; fill: rgb(142, 70, 92); fill-opacity: 1;"/><path class="point" transform="translate(893.95,179.23)" d="M2.5,0A2.5,2.5 0 1,1 0,-2.5A2.5,2.5 0 0,1 2.5,0Z" style="opacity: 1; stroke-width: 0px; fill: rgb(142, 70, 92); fill-opacity: 1;"/><path class="point" transform="translate(896.59,173.34)" d="M2.5,0A2.5,2.5 0 1,1 0,-2.5A2.5,2.5 0 0,1 2.5,0Z" style="opacity: 1; stroke-width: 0px; fill: rgb(142, 70, 92); fill-opacity: 1;"/><path class="point" transform="translate(909.63,182.39)" d="M2.5,0A2.5,2.5 0 1,1 0,-2.5A2.5,2.5 0 0,1 2.5,0Z" style="opacity: 1; stroke-width: 0px; fill: rgb(142, 70, 92); fill-opacity: 1;"/><path class="point" transform="translate(913.46,180.4)" d="M2.5,0A2.5,2.5 0 1,1 0,-2.5A2.5,2.5 0 0,1 2.5,0Z" style="opacity: 1; stroke-width: 0px; fill: rgb(142, 70, 92); fill-opacity: 1;"/><path class="point" transform="translate(917.38,172.42)" d="M2.5,0A2.5,2.5 0 1,1 0,-2.5A2.5,2.5 0 0,1 2.5,0Z" style="opacity: 1; stroke-width: 0px; fill: rgb(142, 70, 92); fill-opacity: 1;"/><path class="point" transform="translate(921.3,178.53)" d="M2.5,0A2.5,2.5 0 1,1 0,-2.5A2.5,2.5 0 0,1 2.5,0Z" style="opacity: 1; stroke-width: 0px; fill: rgb(142, 70, 92); fill-opacity: 1;"/><path class="point" transform="translate(925.22,181.62)" d="M2.5,0A2.5,2.5 0 1,1 0,-2.5A2.5,2.5 0 0,1 2.5,0Z" style="opacity: 1; stroke-width: 0px; fill: rgb(142, 70, 92); fill-opacity: 1;"/><path class="point" transform="translate(950.45,178.96)" d="M2.5,0A2.5,2.5 0 1,1 0,-2.5A2.5,2.5 0 0,1 2.5,0Z" style="opacity: 1; stroke-width: 0px; fill: rgb(142, 70, 92); fill-opacity: 1;"/><path class="point" transform="translate(958.63,177.28)" d="M2.5,0A2.5,2.5 0 1,1 0,-2.5A2.5,2.5 0 0,1 2.5,0Z" style="opacity: 1; stroke-width: 0px; fill: rgb(142, 70, 92); fill-opacity: 1;"/></g></g><g class="trace violins" style="opacity: 1;"><path class="violin" d="M888.22,151.37L888.22,149.84Q892.32,148.94 894.33,148.24C896.4,147.52 898.45,146.63 900.44,145.55C902.52,144.42 904.56,143.05 906.55,141.57C908.64,140.02 910.65,138.21 912.66,136.41C914.72,134.57 916.72,132.52 918.77,130.64C920.79,128.79 922.79,126.82 924.88,125.21C926.86,123.68 928.87,122.18 930.98,121.15C932.95,120.19 935.03,119.44 937.09,119.11C939.1,118.78 941.18,118.88 943.2,119.12C945.25,119.36 947.29,119.99 949.31,120.58C951.36,121.17 953.39,121.96 955.42,122.67C957.46,123.38 959.49,124.12 961.53,124.84C963.57,125.55 965.61,126.23 967.64,126.96C969.68,127.69 971.72,128.42 973.75,129.22C975.79,130.03 977.82,130.91 979.85,131.8C981.89,132.7 983.92,133.69 985.96,134.61C987.99,135.53 990.02,136.49 992.07,137.31C994.09,138.12 996.13,138.88 998.18,139.49C1000.2,140.09 1002.24,140.57 1004.29,140.94C1006.32,141.31 1008.36,141.52 1010.4,141.73C1012.43,141.94 1014.47,142.02 1016.51,142.18C1018.54,142.34 1020.58,142.46 1022.61,142.67C1024.65,142.89 1026.69,143.14 1028.72,143.47C1030.76,143.8 1032.8,144.22 1034.83,144.66C1036.87,145.1 1038.9,145.63 1040.94,146.12C1042.98,146.61 1045.01,147.14 1047.05,147.61C1049.08,148.08 1051.12,148.53 1053.16,148.92C1055.19,149.3 1057.23,149.64 1059.27,149.92C1061.3,150.2 1063.34,150.42 1065.38,150.6C1067.41,150.78 1069.45,150.9 1071.48,151C1073.52,151.1 1075.55,151.16 1077.59,151.21C1079.63,151.26 1081.66,151.28 1083.7,151.3C1085.74,151.32 1087.77,151.33 1089.81,151.34C1091.85,151.35 1093.88,151.35 1095.92,151.35C1097.96,151.35 1099.99,151.34 1102.03,151.33C1104.07,151.32 1106.1,151.3 1108.14,151.27C1110.18,151.24 1112.21,151.21 1114.25,151.15C1116.28,151.09 1118.32,151.02 1120.35,150.92C1122.39,150.82 1124.42,150.7 1126.46,150.56C1128.5,150.42 1130.53,150.24 1132.57,150.06C1134.61,149.88 1136.64,149.67 1138.68,149.47C1140.72,149.28 1142.75,149.06 1144.79,148.89C1146.83,148.72 1148.86,148.55 1150.9,148.46C1152.94,148.37 1154.97,148.31 1157.01,148.32C1159.04,148.33 1161.08,148.4 1163.11,148.5C1165.15,148.61 1167.18,148.78 1169.22,148.95C1171.26,149.12 1173.29,149.34 1175.33,149.54C1177.37,149.74 1179.4,149.95 1181.44,150.13C1183.48,150.31 1185.51,150.47 1187.55,150.61Q1189.59,150.75 1193.66,150.96L1193.66,151.37" style="vector-effect: non-scaling-stroke; stroke-width: 2px; stroke: rgb(160, 64, 79); stroke-opacity: 1; fill: rgb(160, 64, 79); fill-opacity: 0.5;"/><g class="points"><path class="point" transform="translate(925.22,141.82)" d="M2.5,0A2.5,2.5 0 1,1 0,-2.5A2.5,2.5 0 0,1 2.5,0Z" style="opacity: 1; stroke-width: 0px; fill: rgb(160, 64, 79); fill-opacity: 1;"/><path class="point" transform="translate(928.21,148.7)" d="M2.5,0A2.5,2.5 0 1,1 0,-2.5A2.5,2.5 0 0,1 2.5,0Z" style="opacity: 1; stroke-width: 0px; fill: rgb(160, 64, 79); fill-opacity: 1;"/><path class="point" transform="translate(933.15,140.22)" d="M2.5,0A2.5,2.5 0 1,1 0,-2.5A2.5,2.5 0 0,1 2.5,0Z" style="opacity: 1; stroke-width: 0px; fill: rgb(160, 64, 79); fill-opacity: 1;"/><path class="point" transform="translate(933.32,150.37)" d="M2.5,0A2.5,2.5 0 1,1 0,-2.5A2.5,2.5 0 0,1 2.5,0Z" style="opacity: 1; stroke-width: 0px; fill: rgb(160, 64, 79); fill-opacity: 1;"/><path class="point" transform="translate(935.19,146.27)" d="M2.5,0A2.5,2.5 0 1,1 0,-2.5A2.5,2.5 0 0,1 2.5,0Z" style="opacity: 1; stroke-width: 0px; fill: rgb(160, 64, 79); fill-opacity: 1;"/><path class="point" transform="translate(935.19,142.68)" d="M2.5,0A2.5,2.5 0 1,1 0,-2.5A2.5,2.5 0 0,1 2.5,0Z" style="opacity: 1; stroke-width: 0px; fill: rgb(160, 64, 79); fill-opacity: 1;"/><path class="point" transform="translate(937.32,145.08)" d="M2.5,0A2.5,2.5 0 1,1 0,-2.5A2.5,2.5 0 0,1 2.5,0Z" style="opacity: 1; stroke-width: 0px; fill: rgb(160, 64, 79); fill-opacity: 1;"/><path class="point" transform="translate(938.77,143.68)" d="M2.5,0A2.5,2.5 0 1,1 0,-2.5A2.5,2.5 0 0,1 2.5,0Z" style="opacity: 1; stroke-width: 0px; fill: rgb(160, 64, 79); fill-opacity: 1;"/><path class="point" transform="translate(938.86,146.23)" d="M2.5,0A2.5,2.5 0 1,1 0,-2.5A2.5,2.5 0 0,1 2.5,0Z" style="opacity: 1; stroke-width: 0px; fill: rgb(160, 64, 79); fill-opacity: 1;"/><path class="point" transform="translate(946.44,147.96)" d="M2.5,0A2.5,2.5 0 1,1 0,-2.5A2.5,2.5 0 0,1 2.5,0Z" style="opacity: 1; stroke-width: 0px; fill: rgb(160, 64, 79); fill-opacity: 1;"/><path class="point" transform="translate(964.34,143.85)" d="M2.5,0A2.5,2.5 0 1,1 0,-2.5A2.5,2.5 0 0,1 2.5,0Z" style="opacity: 1; stroke-width: 0px; fill: rgb(160, 64, 79); fill-opacity: 1;"/><path class="point" transform="translate(967.4,145.96)" d="M2.5,0A2.5,2.5 0 1,1 0,-2.5A2.5,2.5 0 0,1 2.5,0Z" style="opacity: 1; stroke-width: 0px; fill: rgb(160, 64, 79); fill-opacity: 1;"/><path class="point" transform="translate(971.92,143.09)" d="M2.5,0A2.5,2.5 0 1,1 0,-2.5A2.5,2.5 0 0,1 2.5,0Z" style="opacity: 1; stroke-width: 0px; fill: rgb(160, 64, 79); fill-opacity: 1;"/><path class="point" transform="translate(975.5,147.63)" d="M2.5,0A2.5,2.5 0 1,1 0,-2.5A2.5,2.5 0 0,1 2.5,0Z" style="opacity: 1; stroke-width: 0px; fill: rgb(160, 64, 79); fill-opacity: 1;"/><path class="point" transform="translate(976.35,145.98)" d="M2.5,0A2.5,2.5 0 1,1 0,-2.5A2.5,2.5 0 0,1 2.5,0Z" style="opacity: 1; stroke-width: 0px; fill: rgb(160, 64, 79); fill-opacity: 1;"/><path class="point" transform="translate(979.84,143.31)" d="M2.5,0A2.5,2.5 0 1,1 0,-2.5A2.5,2.5 0 0,1 2.5,0Z" style="opacity: 1; stroke-width: 0px; fill: rgb(160, 64, 79); fill-opacity: 1;"/><path class="point" transform="translate(1008.22,145.35)" d="M2.5,0A2.5,2.5 0 1,1 0,-2.5A2.5,2.5 0 0,1 2.5,0Z" style="opacity: 1; stroke-width: 0px; fill: rgb(160, 64, 79); fill-opacity: 1;"/><path class="point" transform="translate(1024.24,146.32)" d="M2.5,0A2.5,2.5 0 1,1 0,-2.5A2.5,2.5 0 0,1 2.5,0Z" style="opacity: 1; stroke-width: 0px; fill: rgb(160, 64, 79); fill-opacity: 1;"/><path class="point" transform="translate(1029.95,145.42)" d="M2.5,0A2.5,2.5 0 1,1 0,-2.5A2.5,2.5 0 0,1 2.5,0Z" style="opacity: 1; stroke-width: 0px; fill: rgb(160, 64, 79); fill-opacity: 1;"/><path class="point" transform="translate(1156.66,144.95)" d="M2.5,0A2.5,2.5 0 1,1 0,-2.5A2.5,2.5 0 0,1 2.5,0Z" style="opacity: 1; stroke-width: 0px; fill: rgb(160, 64, 79); fill-opacity: 1;"/></g></g><g class="trace violins" style="opacity: 1;"><path class="violin" d="M879.22,119.11L879.22,118.66Q883.2,118.42 885.19,118.22C887.18,118.02 889.17,117.79 891.15,117.47C893.14,117.15 895.13,116.77 897.11,116.29C899.11,115.8 901.1,115.24 903.07,114.55C905.08,113.85 907.08,113.04 909.04,112.12C911.05,111.17 913.04,110.09 915,108.92C917.02,107.71 918.99,106.35 920.96,104.96C922.97,103.54 924.94,101.98 926.92,100.47C928.91,98.95 930.88,97.34 932.89,95.88C934.86,94.44 936.82,92.98 938.85,91.76C940.8,90.59 942.78,89.47 944.81,88.67C946.76,87.9 948.77,87.3 950.78,87C952.75,86.71 954.76,86.69 956.74,86.86C958.74,87.04 960.73,87.51 962.7,88.06C964.71,88.62 966.69,89.42 968.66,90.22C970.66,91.03 972.65,91.99 974.63,92.91C976.62,93.84 978.6,94.82 980.59,95.78C982.58,96.74 984.56,97.71 986.55,98.68C988.54,99.65 990.52,100.61 992.51,101.58C994.5,102.55 996.49,103.54 998.48,104.52C1000.47,105.5 1002.45,106.5 1004.44,107.46C1006.42,108.42 1008.4,109.39 1010.4,110.29C1012.38,111.18 1014.37,112.06 1016.37,112.84C1018.35,113.61 1020.33,114.33 1022.33,114.95C1024.3,115.57 1026.29,116.11 1028.29,116.56C1030.27,117.01 1032.26,117.37 1034.25,117.67C1036.23,117.97 1038.23,118.18 1040.22,118.36C1042.21,118.54 1044.19,118.66 1046.18,118.76C1048.17,118.86 1050.15,118.91 1052.14,118.96C1054.13,119.01 1056.11,119.03 1058.1,119.05C1060.09,119.07 1062.08,119.08 1064.07,119.09C1066.06,119.1 1068.04,119.11 1070.03,119.11C1072.02,119.11 1074,119.11 1075.99,119.11C1077.98,119.11 1079.97,119.11 1081.96,119.11C1083.95,119.11 1085.93,119.11 1087.92,119.11C1089.91,119.11 1091.89,119.11 1093.88,119.11C1095.87,119.11 1097.85,119.11 1099.84,119.11C1101.83,119.11 1103.82,119.11 1105.81,119.1C1107.8,119.1 1109.78,119.09 1111.77,119.08C1113.76,119.07 1115.74,119.06 1117.73,119.03C1119.72,119 1121.7,118.97 1123.69,118.92C1125.68,118.87 1127.67,118.81 1129.66,118.72C1131.65,118.63 1133.63,118.53 1135.62,118.4C1137.61,118.27 1139.59,118.11 1141.58,117.94C1143.57,117.77 1145.56,117.57 1147.55,117.39C1149.54,117.21 1151.52,117 1153.51,116.84C1155.5,116.68 1157.48,116.53 1159.47,116.44C1161.46,116.35 1163.44,116.29 1165.43,116.29C1167.42,116.29 1169.41,116.36 1171.4,116.45C1173.39,116.55 1175.37,116.7 1177.36,116.86C1179.35,117.02 1181.33,117.22 1183.32,117.4C1185.31,117.58 1187.3,117.79 1189.29,117.96C1191.28,118.13 1193.26,118.28 1195.25,118.41Q1197.24,118.54 1201.21,118.73L1201.21,119.11" style="vector-effect: non-scaling-stroke; stroke-width: 2px; stroke: rgb(179, 59, 66); stroke-opacity: 1; fill: rgb(179, 59, 66); fill-opacity: 0.5;"/><g class="points"><path class="point" transform="translate(915.08,110.21)" d="M2.5,0A2.5,2.5 0 1,1 0,-2.5A2.5,2.5 0 0,1 2.5,0Z" style="opacity: 1; stroke-width: 0px; fill: rgb(179, 59, 66); fill-opacity: 1;"/><path class="point" transform="translate(934.85,115.58)" d="M2.5,0A2.5,2.5 0 1,1 0,-2.5A2.5,2.5 0 0,1 2.5,0Z" style="opacity: 1; stroke-width: 0px; fill: rgb(179, 59, 66); fill-opacity: 1;"/><path class="point" transform="translate(935.53,108.86)" d="M2.5,0A2.5,2.5 0 1,1 0,-2.5A2.5,2.5 0 0,1 2.5,0Z" style="opacity: 1; stroke-width: 0px; fill: rgb(179, 59, 66); fill-opacity: 1;"/><path class="point" transform="translate(939.54,116.89)" d="M2.5,0A2.5,2.5 0 1,1 0,-2.5A2.5,2.5 0 0,1 2.5,0Z" style="opacity: 1; stroke-width: 0px; fill: rgb(179, 59, 66); fill-opacity: 1;"/><path class="point" transform="translate(941.5,113.9)" d="M2.5,0A2.5,2.5 0 1,1 0,-2.5A2.5,2.5 0 0,1 2.5,0Z" style="opacity: 1; stroke-width: 0px; fill: rgb(179, 59, 66); fill-opacity: 1;"/><path class="point" transform="translate(942.44,109.92)" d="M2.5,0A2.5,2.5 0 1,1 0,-2.5A2.5,2.5 0 0,1 2.5,0Z" style="opacity: 1; stroke-width: 0px; fill: rgb(179, 59, 66); fill-opacity: 1;"/><path class="point" transform="translate(950.19,112.9)" d="M2.5,0A2.5,2.5 0 1,1 0,-2.5A2.5,2.5 0 0,1 2.5,0Z" style="opacity: 1; stroke-width: 0px; fill: rgb(179, 59, 66); fill-opacity: 1;"/><path class="point" transform="translate(950.87,110.79)" d="M2.5,0A2.5,2.5 0 1,1 0,-2.5A2.5,2.5 0 0,1 2.5,0Z" style="opacity: 1; stroke-width: 0px; fill: rgb(179, 59, 66); fill-opacity: 1;"/><path class="point" transform="translate(954.37,114.57)" d="M2.5,0A2.5,2.5 0 1,1 0,-2.5A2.5,2.5 0 0,1 2.5,0Z" style="opacity: 1; stroke-width: 0px; fill: rgb(179, 59, 66); fill-opacity: 1;"/><path class="point" transform="translate(958.88,117.02)" d="M2.5,0A2.5,2.5 0 1,1 0,-2.5A2.5,2.5 0 0,1 2.5,0Z" style="opacity: 1; stroke-width: 0px; fill: rgb(179, 59, 66); fill-opacity: 1;"/><path class="point" transform="translate(960.08,111.32)" d="M2.5,0A2.5,2.5 0 1,1 0,-2.5A2.5,2.5 0 0,1 2.5,0Z" style="opacity: 1; stroke-width: 0px; fill: rgb(179, 59, 66); fill-opacity: 1;"/><path class="point" transform="translate(964.59,114.47)" d="M2.5,0A2.5,2.5 0 1,1 0,-2.5A2.5,2.5 0 0,1 2.5,0Z" style="opacity: 1; stroke-width: 0px; fill: rgb(179, 59, 66); fill-opacity: 1;"/><path class="point" transform="translate(965.02,109.23)" d="M2.5,0A2.5,2.5 0 1,1 0,-2.5A2.5,2.5 0 0,1 2.5,0Z" style="opacity: 1; stroke-width: 0px; fill: rgb(179, 59, 66); fill-opacity: 1;"/><path class="point" transform="translate(973.79,117.34)" d="M2.5,0A2.5,2.5 0 1,1 0,-2.5A2.5,2.5 0 0,1 2.5,0Z" style="opacity: 1; stroke-width: 0px; fill: rgb(179, 59, 66); fill-opacity: 1;"/><path class="point" transform="translate(976.18,114.07)" d="M2.5,0A2.5,2.5 0 1,1 0,-2.5A2.5,2.5 0 0,1 2.5,0Z" style="opacity: 1; stroke-width: 0px; fill: rgb(179, 59, 66); fill-opacity: 1;"/><path class="point" transform="translate(990.92,110.61)" d="M2.5,0A2.5,2.5 0 1,1 0,-2.5A2.5,2.5 0 0,1 2.5,0Z" style="opacity: 1; stroke-width: 0px; fill: rgb(179, 59, 66); fill-opacity: 1;"/><path class="point" transform="translate(990.92,113.22)" d="M2.5,0A2.5,2.5 0 1,1 0,-2.5A2.5,2.5 0 0,1 2.5,0Z" style="opacity: 1; stroke-width: 0px; fill: rgb(179, 59, 66); fill-opacity: 1;"/><path class="point" transform="translate(992.63,114.44)" d="M2.5,0A2.5,2.5 0 1,1 0,-2.5A2.5,2.5 0 0,1 2.5,0Z" style="opacity: 1; stroke-width: 0px; fill: rgb(179, 59, 66); fill-opacity: 1;"/><path class="point" transform="translate(1007.45,113.31)" d="M2.5,0A2.5,2.5 0 1,1 0,-2.5A2.5,2.5 0 0,1 2.5,0Z" style="opacity: 1; stroke-width: 0px; fill: rgb(179, 59, 66); fill-opacity: 1;"/><path class="point" transform="translate(1165.35,112.7)" d="M2.5,0A2.5,2.5 0 1,1 0,-2.5A2.5,2.5 0 0,1 2.5,0Z" style="opacity: 1; stroke-width: 0px; fill: rgb(179, 59, 66); fill-opacity: 1;"/></g></g><g class="trace violins" style="opacity: 1;"><path class="violin" d="M871.79,86.86L871.79,85.94Q877.03,85.43 879.64,85.03C882.27,84.62 884.9,84.15 887.5,83.51C890.13,82.87 892.75,82.1 895.35,81.19C897.99,80.26 900.62,79.18 903.21,77.99C905.86,76.77 908.47,75.37 911.07,73.93C913.71,72.46 916.31,70.84 918.92,69.26C921.55,67.67 924.14,65.97 926.78,64.42C929.38,62.89 931.99,61.33 934.64,60.03C937.22,58.76 939.83,57.56 942.49,56.69C945.07,55.85 947.71,55.2 950.35,54.85C952.95,54.51 955.59,54.46 958.2,54.6C960.82,54.74 963.45,55.18 966.06,55.68C968.69,56.18 971.31,56.9 973.92,57.61C976.55,58.32 979.16,59.13 981.77,59.93C984.39,60.73 987.01,61.56 989.63,62.4C992.25,63.25 994.88,64.1 997.49,65C1000.11,65.9 1002.73,66.84 1005.34,67.82C1007.97,68.81 1010.59,69.85 1013.2,70.9C1015.82,71.95 1018.43,73.07 1021.05,74.14C1023.67,75.21 1026.28,76.31 1028.91,77.31C1031.52,78.31 1034.14,79.28 1036.77,80.14C1039.37,80.99 1041.99,81.78 1044.62,82.45C1047.23,83.12 1049.85,83.69 1052.48,84.17C1055.09,84.65 1057.71,85.02 1060.33,85.34C1062.94,85.66 1065.57,85.88 1068.19,86.07C1070.81,86.26 1073.43,86.38 1076.05,86.48C1078.67,86.58 1081.28,86.64 1083.9,86.69C1086.52,86.74 1089.14,86.77 1091.76,86.79C1094.38,86.81 1097,86.82 1099.62,86.83C1102.24,86.84 1104.85,86.84 1107.47,86.83C1110.09,86.82 1112.71,86.81 1115.33,86.79C1117.95,86.77 1120.56,86.74 1123.18,86.69C1125.8,86.64 1128.42,86.57 1131.04,86.47C1133.66,86.37 1136.28,86.26 1138.9,86.09C1141.52,85.92 1144.13,85.72 1146.75,85.47C1149.37,85.22 1151.99,84.91 1154.61,84.59C1157.23,84.26 1159.85,83.88 1162.47,83.52C1165.09,83.16 1167.7,82.76 1170.32,82.43C1172.94,82.1 1175.56,81.78 1178.18,81.56C1180.79,81.35 1183.41,81.19 1186.03,81.14C1188.65,81.09 1191.27,81.15 1193.89,81.29C1196.51,81.43 1199.13,81.69 1201.75,81.97C1204.37,82.25 1206.98,82.63 1209.6,82.98C1212.22,83.33 1214.84,83.74 1217.46,84.09C1220.08,84.44 1222.7,84.78 1225.32,85.07C1227.94,85.36 1230.55,85.61 1233.17,85.82Q1235.79,86.03 1241.03,86.31L1241.03,86.86" style="vector-effect: non-scaling-stroke; stroke-width: 2px; stroke: rgb(197, 53, 52); stroke-opacity: 1; fill: rgb(197, 53, 52); fill-opacity: 0.5;"/><g class="points"><path class="point" transform="translate(919.51,77.53)" d="M2.5,0A2.5,2.5 0 1,1 0,-2.5A2.5,2.5 0 0,1 2.5,0Z" style="opacity: 1; stroke-width: 0px; fill: rgb(197, 53, 52); fill-opacity: 1;"/><path class="point" transform="translate(921.47,84.23)" d="M2.5,0A2.5,2.5 0 1,1 0,-2.5A2.5,2.5 0 0,1 2.5,0Z" style="opacity: 1; stroke-width: 0px; fill: rgb(197, 53, 52); fill-opacity: 1;"/><path class="point" transform="translate(938.43,75.41)" d="M2.5,0A2.5,2.5 0 1,1 0,-2.5A2.5,2.5 0 0,1 2.5,0Z" style="opacity: 1; stroke-width: 0px; fill: rgb(197, 53, 52); fill-opacity: 1;"/><path class="point" transform="translate(942.01,85.48)" d="M2.5,0A2.5,2.5 0 1,1 0,-2.5A2.5,2.5 0 0,1 2.5,0Z" style="opacity: 1; stroke-width: 0px; fill: rgb(197, 53, 52); fill-opacity: 1;"/><path class="point" transform="translate(944.82,81.92)" d="M2.5,0A2.5,2.5 0 1,1 0,-2.5A2.5,2.5 0 0,1 2.5,0Z" style="opacity: 1; stroke-width: 0px; fill: rgb(197, 53, 52); fill-opacity: 1;"/><path class="point" transform="translate(948.15,77.26)" d="M2.5,0A2.5,2.5 0 1,1 0,-2.5A2.5,2.5 0 0,1 2.5,0Z" style="opacity: 1; stroke-width: 0px; fill: rgb(197, 53, 52); fill-opacity: 1;"/><path class="point" transform="translate(948.91,80.63)" d="M2.5,0A2.5,2.5 0 1,1 0,-2.5A2.5,2.5 0 0,1 2.5,0Z" style="opacity: 1; stroke-width: 0px; fill: rgb(197, 53, 52); fill-opacity: 1;"/><path class="point" transform="translate(949.08,78.56)" d="M2.5,0A2.5,2.5 0 1,1 0,-2.5A2.5,2.5 0 0,1 2.5,0Z" style="opacity: 1; stroke-width: 0px; fill: rgb(197, 53, 52); fill-opacity: 1;"/><path class="point" transform="translate(958.63,82.24)" d="M2.5,0A2.5,2.5 0 1,1 0,-2.5A2.5,2.5 0 0,1 2.5,0Z" style="opacity: 1; stroke-width: 0px; fill: rgb(197, 53, 52); fill-opacity: 1;"/><path class="point" transform="translate(961.44,84.5)" d="M2.5,0A2.5,2.5 0 1,1 0,-2.5A2.5,2.5 0 0,1 2.5,0Z" style="opacity: 1; stroke-width: 0px; fill: rgb(197, 53, 52); fill-opacity: 1;"/><path class="point" transform="translate(968.34,78.89)" d="M2.5,0A2.5,2.5 0 1,1 0,-2.5A2.5,2.5 0 0,1 2.5,0Z" style="opacity: 1; stroke-width: 0px; fill: rgb(197, 53, 52); fill-opacity: 1;"/><path class="point" transform="translate(970.22,82.28)" d="M2.5,0A2.5,2.5 0 1,1 0,-2.5A2.5,2.5 0 0,1 2.5,0Z" style="opacity: 1; stroke-width: 0px; fill: rgb(197, 53, 52); fill-opacity: 1;"/><path class="point" transform="translate(981.89,77.35)" d="M2.5,0A2.5,2.5 0 1,1 0,-2.5A2.5,2.5 0 0,1 2.5,0Z" style="opacity: 1; stroke-width: 0px; fill: rgb(197, 53, 52); fill-opacity: 1;"/><path class="point" transform="translate(995.61,83.14)" d="M2.5,0A2.5,2.5 0 1,1 0,-2.5A2.5,2.5 0 0,1 2.5,0Z" style="opacity: 1; stroke-width: 0px; fill: rgb(197, 53, 52); fill-opacity: 1;"/><path class="point" transform="translate(1001.32,82)" d="M2.5,0A2.5,2.5 0 1,1 0,-2.5A2.5,2.5 0 0,1 2.5,0Z" style="opacity: 1; stroke-width: 0px; fill: rgb(197, 53, 52); fill-opacity: 1;"/><path class="point" transform="translate(1002.34,78.06)" d="M2.5,0A2.5,2.5 0 1,1 0,-2.5A2.5,2.5 0 0,1 2.5,0Z" style="opacity: 1; stroke-width: 0px; fill: rgb(197, 53, 52); fill-opacity: 1;"/><path class="point" transform="translate(1003.02,81.04)" d="M2.5,0A2.5,2.5 0 1,1 0,-2.5A2.5,2.5 0 0,1 2.5,0Z" style="opacity: 1; stroke-width: 0px; fill: rgb(197, 53, 52); fill-opacity: 1;"/><path class="point" transform="translate(1024.75,82.48)" d="M2.5,0A2.5,2.5 0 1,1 0,-2.5A2.5,2.5 0 0,1 2.5,0Z" style="opacity: 1; stroke-width: 0px; fill: rgb(197, 53, 52); fill-opacity: 1;"/><path class="point" transform="translate(1182.56,81.17)" d="M2.5,0A2.5,2.5 0 1,1 0,-2.5A2.5,2.5 0 0,1 2.5,0Z" style="opacity: 1; stroke-width: 0px; fill: rgb(197, 53, 52); fill-opacity: 1;"/><path class="point" transform="translate(1193.3,80.45)" d="M2.5,0A2.5,2.5 0 1,1 0,-2.5A2.5,2.5 0 0,1 2.5,0Z" style="opacity: 1; stroke-width: 0px; fill: rgb(197, 53, 52); fill-opacity: 1;"/></g></g><g class="trace violins" style="opacity: 1;"><path class="violin" d="M873.3,54.6L873.3,52.94Q880.08,51.98 883.44,51.23C886.84,50.47 890.23,49.55 893.58,48.41C896.99,47.25 900.37,45.86 903.72,44.33C907.14,42.77 910.5,40.94 913.86,39.14C917.26,37.32 920.61,35.28 924,33.45C927.37,31.63 930.72,29.72 934.14,28.18C937.48,26.68 940.86,25.26 944.28,24.28C947.62,23.33 951.02,22.66 954.42,22.35C957.79,22.04 961.19,22.15 964.56,22.41C967.95,22.67 971.32,23.3 974.69,23.94C978.08,24.58 981.45,25.45 984.83,26.26C988.21,27.07 991.59,27.96 994.97,28.81C998.35,29.66 1001.73,30.51 1005.11,31.37C1008.49,32.23 1011.87,33.08 1015.25,33.97C1018.63,34.87 1022.01,35.78 1025.39,36.74C1028.77,37.7 1032.15,38.72 1035.53,39.73C1038.91,40.74 1042.29,41.81 1045.67,42.82C1049.05,43.83 1052.42,44.85 1055.81,45.78C1059.18,46.71 1062.56,47.61 1065.95,48.4C1069.32,49.18 1072.7,49.9 1076.09,50.5C1079.46,51.1 1082.84,51.6 1086.23,52C1089.6,52.4 1092.99,52.7 1096.37,52.92C1099.75,53.14 1103.13,53.25 1106.51,53.3C1109.89,53.35 1113.27,53.32 1116.65,53.25C1120.03,53.18 1123.41,53.03 1126.79,52.87C1130.17,52.71 1133.55,52.49 1136.93,52.29C1140.31,52.09 1143.69,51.87 1147.07,51.67C1150.45,51.48 1153.83,51.28 1157.21,51.12C1160.59,50.96 1163.97,50.83 1167.35,50.73C1170.73,50.63 1174.11,50.56 1177.49,50.52C1180.87,50.48 1184.24,50.47 1187.62,50.49C1191,50.51 1194.38,50.57 1197.76,50.65C1201.14,50.73 1204.52,50.85 1207.9,50.99C1211.28,51.13 1214.66,51.31 1218.04,51.5C1221.42,51.69 1224.8,51.92 1228.18,52.14C1231.56,52.36 1234.94,52.6 1238.32,52.81C1241.7,53.02 1245.08,53.24 1248.46,53.42C1251.84,53.6 1255.22,53.76 1258.6,53.89Q1261.98,54.02 1268.74,54.22L1268.74,54.6" style="vector-effect: non-scaling-stroke; stroke-width: 2px; stroke: rgb(215, 48, 39); stroke-opacity: 1; fill: rgb(215, 48, 39); fill-opacity: 0.5;"/><g class="points"><path class="point" transform="translate(934.26,44.98)" d="M2.5,0A2.5,2.5 0 1,1 0,-2.5A2.5,2.5 0 0,1 2.5,0Z" style="opacity: 1; stroke-width: 0px; fill: rgb(215, 48, 39); fill-opacity: 1;"/><path class="point" transform="translate(935.53,52.27)" d="M2.5,0A2.5,2.5 0 1,1 0,-2.5A2.5,2.5 0 0,1 2.5,0Z" style="opacity: 1; stroke-width: 0px; fill: rgb(215, 48, 39); fill-opacity: 1;"/><path class="point" transform="translate(942.1,43.68)" d="M2.5,0A2.5,2.5 0 1,1 0,-2.5A2.5,2.5 0 0,1 2.5,0Z" style="opacity: 1; stroke-width: 0px; fill: rgb(215, 48, 39); fill-opacity: 1;"/><path class="point" transform="translate(945.59,53.03)" d="M2.5,0A2.5,2.5 0 1,1 0,-2.5A2.5,2.5 0 0,1 2.5,0Z" style="opacity: 1; stroke-width: 0px; fill: rgb(215, 48, 39); fill-opacity: 1;"/><path class="point" transform="translate(948.49,49.62)" d="M2.5,0A2.5,2.5 0 1,1 0,-2.5A2.5,2.5 0 0,1 2.5,0Z" style="opacity: 1; stroke-width: 0px; fill: rgb(215, 48, 39); fill-opacity: 1;"/><path class="point" transform="translate(948.49,45.6)" d="M2.5,0A2.5,2.5 0 1,1 0,-2.5A2.5,2.5 0 0,1 2.5,0Z" style="opacity: 1; stroke-width: 0px; fill: rgb(215, 48, 39); fill-opacity: 1;"/><path class="point" transform="translate(949.59,48.32)" d="M2.5,0A2.5,2.5 0 1,1 0,-2.5A2.5,2.5 0 0,1 2.5,0Z" style="opacity: 1; stroke-width: 0px; fill: rgb(215, 48, 39); fill-opacity: 1;"/><path class="point" transform="translate(956.58,46.92)" d="M2.5,0A2.5,2.5 0 1,1 0,-2.5A2.5,2.5 0 0,1 2.5,0Z" style="opacity: 1; stroke-width: 0px; fill: rgb(215, 48, 39); fill-opacity: 1;"/><path class="point" transform="translate(959.82,49.52)" d="M2.5,0A2.5,2.5 0 1,1 0,-2.5A2.5,2.5 0 0,1 2.5,0Z" style="opacity: 1; stroke-width: 0px; fill: rgb(215, 48, 39); fill-opacity: 1;"/><path class="point" transform="translate(961.18,51.09)" d="M2.5,0A2.5,2.5 0 1,1 0,-2.5A2.5,2.5 0 0,1 2.5,0Z" style="opacity: 1; stroke-width: 0px; fill: rgb(215, 48, 39); fill-opacity: 1;"/><path class="point" transform="translate(979.08,47.15)" d="M2.5,0A2.5,2.5 0 1,1 0,-2.5A2.5,2.5 0 0,1 2.5,0Z" style="opacity: 1; stroke-width: 0px; fill: rgb(215, 48, 39); fill-opacity: 1;"/><path class="point" transform="translate(987.17,49.38)" d="M2.5,0A2.5,2.5 0 1,1 0,-2.5A2.5,2.5 0 0,1 2.5,0Z" style="opacity: 1; stroke-width: 0px; fill: rgb(215, 48, 39); fill-opacity: 1;"/><path class="point" transform="translate(1000.38,46.02)" d="M2.5,0A2.5,2.5 0 1,1 0,-2.5A2.5,2.5 0 0,1 2.5,0Z" style="opacity: 1; stroke-width: 0px; fill: rgb(215, 48, 39); fill-opacity: 1;"/><path class="point" transform="translate(1003.62,50.4)" d="M2.5,0A2.5,2.5 0 1,1 0,-2.5A2.5,2.5 0 0,1 2.5,0Z" style="opacity: 1; stroke-width: 0px; fill: rgb(215, 48, 39); fill-opacity: 1;"/><path class="point" transform="translate(1014.78,49.36)" d="M2.5,0A2.5,2.5 0 1,1 0,-2.5A2.5,2.5 0 0,1 2.5,0Z" style="opacity: 1; stroke-width: 0px; fill: rgb(215, 48, 39); fill-opacity: 1;"/><path class="point" transform="translate(1023.56,46.34)" d="M2.5,0A2.5,2.5 0 1,1 0,-2.5A2.5,2.5 0 0,1 2.5,0Z" style="opacity: 1; stroke-width: 0px; fill: rgb(215, 48, 39); fill-opacity: 1;"/><path class="point" transform="translate(1026.63,48.65)" d="M2.5,0A2.5,2.5 0 1,1 0,-2.5A2.5,2.5 0 0,1 2.5,0Z" style="opacity: 1; stroke-width: 0px; fill: rgb(215, 48, 39); fill-opacity: 1;"/><path class="point" transform="translate(1050.23,49.78)" d="M2.5,0A2.5,2.5 0 1,1 0,-2.5A2.5,2.5 0 0,1 2.5,0Z" style="opacity: 1; stroke-width: 0px; fill: rgb(215, 48, 39); fill-opacity: 1;"/><path class="point" transform="translate(1160.49,48.74)" d="M2.5,0A2.5,2.5 0 1,1 0,-2.5A2.5,2.5 0 0,1 2.5,0Z" style="opacity: 1; stroke-width: 0px; fill: rgb(215, 48, 39); fill-opacity: 1;"/><path class="point" transform="translate(1207.78,48.19)" d="M2.5,0A2.5,2.5 0 1,1 0,-2.5A2.5,2.5 0 0,1 2.5,0Z" style="opacity: 1; stroke-width: 0px; fill: rgb(215, 48, 39); fill-opacity: 1;"/></g></g></g></g><g class="overplot"/><path class="xlines-above crisp" d="M0,0" style="fill: none;"/><path class="ylines-above crisp" d="M0,0" style="fill: none;"/><g class="overlines-above"/><g class="xaxislayer-above"><g class="xtick"><text text-anchor="middle" x="0" y="460" transform="translate(195.20999999999998,0)" style="font-family: 'Open Sans', verdana, arial, sans-serif; font-size: 12px; fill: rgb(42, 63, 95); fill-opacity: 1; white-space: pre;">50</text></g><g class="xtick"><text text-anchor="middle" x="0" y="460" transform="translate(365.63,0)" style="font-family: 'Open Sans', verdana, arial, sans-serif; font-size: 12px; fill: rgb(42, 63, 95); fill-opacity: 1; white-space: pre;">40</text></g><g class="xtick"><text text-anchor="middle" x="0" y="460" transform="translate(536.06,0)" style="font-family: 'Open Sans', verdana, arial, sans-serif; font-size: 12px; fill: rgb(42, 63, 95); fill-opacity: 1; white-space: pre;">30</text></g><g class="xtick"><text text-anchor="middle" x="0" y="460" transform="translate(706.48,0)" style="font-family: 'Open Sans', verdana, arial, sans-serif; font-size: 12px; fill: rgb(42, 63, 95); fill-opacity: 1; white-space: pre;">20</text></g><g class="xtick"><text text-anchor="middle" x="0" y="460" transform="translate(876.9,0)" style="font-family: 'Open Sans', verdana, arial, sans-serif; font-size: 12px; fill: rgb(42, 63, 95); fill-opacity: 1; white-space: pre;">10</text></g><g class="xtick"><text text-anchor="middle" x="0" y="460" transform="translate(1047.3200000000002,0)" style="font-family: 'Open Sans', verdana, arial, sans-serif; font-size: 12px; fill: rgb(42, 63, 95); fill-opacity: 1; white-space: pre;">0</text></g><g class="xtick"><text text-anchor="middle" x="0" y="460" transform="translate(1217.75,0)" style="font-family: 'Open Sans', verdana, arial, sans-serif; font-size: 12px; fill: rgb(42, 63, 95); fill-opacity: 1; white-space: pre;">10</text></g></g><g class="yaxislayer-above"><g class="ytick"><text text-anchor="end" x="109" y="4.199999999999999" transform="translate(0,427.15)" style="font-family: 'Open Sans', verdana, arial, sans-serif; font-size: 12px; fill: rgb(42, 63, 95); fill-opacity: 1; white-space: pre;">Sample 11-1_A3</text></g><g class="ytick"><text text-anchor="end" x="109" y="4.199999999999999" transform="translate(0,394.9)" style="font-family: 'Open Sans', verdana, arial, sans-serif; font-size: 12px; fill: rgb(42, 63, 95); fill-opacity: 1; white-space: pre;">Sample 117-2_C4</text></g><g class="ytick"><text text-anchor="end" x="109" y="4.199999999999999" transform="translate(0,362.64)" style="font-family: 'Open Sans', verdana, arial, sans-serif; font-size: 12px; fill: rgb(42, 63, 95); fill-opacity: 1; white-space: pre;">Sample 134-2_A5</text></g><g class="ytick"><text text-anchor="end" x="109" y="4.199999999999999" transform="translate(0,330.39)" style="font-family: 'Open Sans', verdana, arial, sans-serif; font-size: 12px; fill: rgb(42, 63, 95); fill-opacity: 1; white-space: pre;">Sample 131-1_F4</text></g><g class="ytick"><text text-anchor="end" x="109" y="4.199999999999999" transform="translate(0,298.13)" style="font-family: 'Open Sans', verdana, arial, sans-serif; font-size: 12px; fill: rgb(42, 63, 95); fill-opacity: 1; white-space: pre;">Sample 79-2_G3</text></g><g class="ytick"><text text-anchor="end" x="109" y="4.199999999999999" transform="translate(0,265.88)" style="font-family: 'Open Sans', verdana, arial, sans-serif; font-size: 12px; fill: rgb(42, 63, 95); fill-opacity: 1; white-space: pre;">Sample 80-1_H3</text></g><g class="ytick"><text text-anchor="end" x="109" y="4.199999999999999" transform="translate(0,233.62)" style="font-family: 'Open Sans', verdana, arial, sans-serif; font-size: 12px; fill: rgb(42, 63, 95); fill-opacity: 1; white-space: pre;">Sample 4-1_B2</text></g><g class="ytick"><text text-anchor="end" x="109" y="4.199999999999999" transform="translate(0,201.37)" style="font-family: 'Open Sans', verdana, arial, sans-serif; font-size: 12px; fill: rgb(42, 63, 95); fill-opacity: 1; white-space: pre;">Sample 69-1_F3</text></g><g class="ytick"><text text-anchor="end" x="109" y="4.199999999999999" transform="translate(0,169.11)" style="font-family: 'Open Sans', verdana, arial, sans-serif; font-size: 12px; fill: rgb(42, 63, 95); fill-opacity: 1; white-space: pre;">Sample 4-2_B2</text></g><g class="ytick"><text text-anchor="end" x="109" y="4.199999999999999" transform="translate(0,136.86)" style="font-family: 'Open Sans', verdana, arial, sans-serif; font-size: 12px; fill: rgb(42, 63, 95); fill-opacity: 1; white-space: pre;">Sample 7-2_F2</text></g><g class="ytick"><text text-anchor="end" x="109" y="4.199999999999999" transform="translate(0,104.6)" style="font-family: 'Open Sans', verdana, arial, sans-serif; font-size: 12px; fill: rgb(42, 63, 95); fill-opacity: 1; white-space: pre;">Sample 7-1_E2</text></g></g><g class="overaxes-above"/></g></g><g class="polarlayer"/><g class="ternarylayer"/><g class="geolayer"/><g class="funnelarealayer"/><g class="pielayer"/><g class="treemaplayer"/><g class="sunburstlayer"/><g class="glimages"/><defs id="topdefs-28e365"><g class="clips"/></defs><g class="layer-above"><g class="imagelayer"/><g class="shapelayer"/></g><g class="infolayer"><g class="g-gtitle"/><g class="g-xtitle"><text class="xtitle" x="715" y="487.8" text-anchor="middle" style="font-family: 'Open Sans', verdana, arial, sans-serif; font-size: 14px; fill: rgb(42, 63, 95); opacity: 1; font-weight: normal; white-space: pre;">CpG median log likelihood ratio</text></g><g class="g-ytitle"/><g class="annotation" data-index="0" style="opacity: 1;"><g class="annotation-text-g" transform="rotate(0,1047.3200000000002,35.17999999999998)"><g class="cursor-pointer" transform="translate(1015, 26)"><rect class="bg" x="0.5" y="0.5" width="63" height="17" style="stroke-width: 1px; stroke: rgb(0, 0, 0); stroke-opacity: 0; fill: rgb(0, 0, 0); fill-opacity: 0;"/><text class="annotation-text" text-anchor="middle" x="32.03125" y="13" style="font-family: 'Open Sans', verdana, arial, sans-serif; font-size: 12px; fill: rgb(100, 100, 100); fill-opacity: 1; white-space: pre;">Ambiguous</text></g></g></g><g class="annotation" data-index="1" style="opacity: 1;"><g class="annotation-text-g" transform="rotate(0,570.14,35.17999999999998)"><g class="cursor-pointer" transform="translate(531, 26)"><rect class="bg" x="0.5" y="0.5" width="77" height="17" style="stroke-width: 1px; stroke: rgb(0, 0, 0); stroke-opacity: 0; fill: rgb(0, 0, 0); fill-opacity: 0;"/><text class="annotation-text" text-anchor="middle" x="39.03125" y="13" style="font-family: 'Open Sans', verdana, arial, sans-serif; font-size: 12px; fill: rgb(33, 102, 172); fill-opacity: 1; white-space: pre;">Unmethylated</text></g></g></g><g class="annotation" data-index="2" style="opacity: 1;"><g class="annotation-text-g" transform="rotate(0,1192.18,35.17999999999998)"><g class="cursor-pointer" transform="translate(1161, 26)"><rect class="bg" x="0.5" y="0.5" width="62" height="17" style="stroke-width: 1px; stroke: rgb(0, 0, 0); stroke-opacity: 0; fill: rgb(0, 0, 0); fill-opacity: 0;"/><text class="annotation-text" text-anchor="middle" x="31.359375" y="13" style="font-family: 'Open Sans', verdana, arial, sans-serif; font-size: 12px; fill: rgb(215, 48, 39); fill-opacity: 1; white-space: pre;">Methylated</text></g></g></g></g></svg>