<svg class="main-svg" xmlns="http://www.w3.org/2000/svg" xmlns:xlink="http://www.w3.org/1999/xlink" width="1400" height="500" style="" viewBox="0 0 1400 500"><rect x="0" y="0" width="1400" height="500" style="fill: rgb(255, 255, 255); fill-opacity: 1;"/><defs id="defs-7a8a40"><g class="clips"><clipPath id="clip7a8a40xyplot" class="plotclip"><rect width="1159" height="397"/></clipPath><clipPath class="axesclip" id="clip7a8a40x"><rect x="80" y="0" width="1159" height="500"/></clipPath><clipPath class="axesclip" id="clip7a8a40y"><rect x="0" y="50" width="1400" height="397"/></clipPath><clipPath class="axesclip" id="clip7a8a40xy"><rect x="80" y="50" width="1159" height="397"/></clipPath></g><g class="gradients"/></defs><g class="bglayer"><rect class="bg" x="80" y="50" width="1159" height="397" style="fill: rgb(0, 0, 0); fill-opacity: 0; stroke-width: 0;"/></g><g class="layer-below"><g class="imagelayer"/><g class="shapelayer"/></g><g class="cartesianlayer"><g class="subplot xy"><g class="layer-subplot"><g class="shapelayer"/><g class="imagelayer"/></g><g class="gridlayer"><g class="x"/><g class="y"><path class="ygrid crisp" transform="translate(0,367.1)" d="M80,0h1159" style="stroke: rgb(211, 211, 211); stroke-opacity: 1; stroke-width: 1px;"/><path class="ygrid crisp" transform="translate(0,287.2)" d="M80,0h1159" style="stroke: rgb(211, 211, 211); stroke-opacity: 1; stroke-width: 1px;"/><path class="ygrid crisp" transform="translate(0,207.3)" d="M80,0h1159" style="stroke: rgb(211, 211, 211); stroke-opacity: 1; stroke-width: 1px;"/><path class="ygrid crisp" transform="translate(0,127.4)" d="M80,0h1159" style="stroke: rgb(211, 211, 211); stroke-opacity: 1; stroke-width: 1px;"/></g></g><g class="zerolinelayer"><path class="xzl zl crisp" transform="translate(659.5,0)" d="M0,50v397" style="stroke: rgb(169, 169, 169); stroke-opacity: 1; stroke-width: 2px;"/><path class="yzl zl crisp" transform="translate(0,447)" d="M80,0h1159" style="stroke: rgb(255, 255, 255); stroke-opacity: 1; stroke-width: 2px;"/></g><path class="xlines-below"/><path class="ylines-below"/><g class="overlines-below"/><g class="xaxislayer-below"/><g class="yaxislayer-below"/><g class="overaxes-below"/><g class="plot" transform="translate(80, 50)" clip-path="url('#clip7a8a40xyplot')"><g class="scatterlayer mlayer"><g class="trace scatter tracef43012" style="stroke-miterlimit: 2;"><g class="fills"><g><path class="js-fill" d="M1159,397L0,397L0,396.19L9.31,395.55L11.64,395.18L23.27,393.83L25.6,393.95L41.89,395L44.22,394.85L65.16,393.26L67.49,393.28L88.44,393.75L90.77,394.25L102.4,396.61L104.73,396.78L118.69,396.59L121.02,396.49L134.98,395.42L137.31,395.06L144.29,394.66L146.62,394.84L155.93,395.45L158.26,395.31L169.89,393.5L172.22,392.96L181.53,391.4L183.86,391.38L209.46,392.87L211.79,393.27L221.09,394.44L223.42,394.32L232.73,392.34L235.06,391.8L242.04,390.99L244.37,390.93L269.97,390.07L272.3,389.46L279.28,388.02L281.6,387.9L290.91,388.63L293.24,388.96L302.55,390.03L304.88,389.97L314.19,388.39L316.51,387.74L328.15,384.7L330.48,384.59L337.46,384.1L339.79,383.55L349.1,381.26L351.42,381.2L377.02,383.11L379.35,382.86L397.97,380.74L400.3,380.05L407.28,378.26L409.61,378.05L416.59,376.96L418.92,375.77L430.55,367.54L432.88,366.59L449.17,361.88L451.5,361.86L458.48,361.83L460.81,361L465.46,357.68L467.79,355.62L472.44,352.18L474.77,351.05L484.08,346.58L486.41,345.02L495.72,338.16L498.04,335.5L502.7,327.98L505.03,323.5L512.01,311.53L514.34,308.7L525.97,296.92L528.3,293.66L532.95,285.23L535.28,280.13L544.59,256.3L546.92,249.67L558.55,214.58L560.88,204.14L563.21,189.86L565.54,170.49L570.19,115.27L572.52,82.65L577.17,29.64L579.5,19.85L581.83,24.81L584.15,42.76L595.79,172.77L598.12,190.02L602.77,215.98L605.1,225.94L609.76,241.99L612.08,248.46L630.7,293.74L633.03,300.06L642.34,323.65L644.66,328.01L649.32,333.53L651.65,334.83L663.28,338.06L665.61,339.4L674.92,344.54L677.25,345.36L681.9,347.6L684.23,349.36L698.19,362.33L700.52,363.79L705.17,365.72L707.5,366.21L714.48,366.23L716.81,366L721.47,366.08L723.79,366.63L744.74,374.61L747.07,374.8L756.38,374.32L758.7,374.85L770.34,378.81L772.67,379.08L781.98,380.53L784.3,381.48L793.61,386.06L795.94,386.45L800.59,385.52L802.92,384.44L807.58,382.55L809.9,382.33L814.56,383.66L816.89,384.85L821.54,386.95L823.87,387.51L828.52,387.52L830.85,387.08L842.49,383.91L844.81,383.84L858.78,385.68L861.1,385.48L870.41,385.33L872.74,385.43L882.05,385.96L884.38,386.51L896.01,389.8L898.34,389.96L907.65,389.19L909.98,388.93L916.96,389.19L919.29,389.66L928.6,391.44L930.92,391.54L944.89,392.18L947.21,392.52L956.52,393.01L958.85,392.78L970.49,391.93L972.82,392.11L986.78,393.23L989.11,393.03L1014.71,390.31L1017.03,390.71L1037.98,395.37L1040.31,395.48L1047.29,394.6L1049.62,394.07L1056.6,393.22L1058.93,393.34L1075.22,394.79L1077.54,394.63L1093.84,392.63L1096.16,393.06L1107.8,395.37L1110.13,395.54L1145.04,395.88L1147.36,395.9L1159,395.33" style="fill: rgb(215, 48, 39); fill-opacity: 0.5; stroke-width: 0;"/></g></g><g class="errorbars"/><g class="lines"><path class="js-line" d="M0,396.19L9.31,395.55L11.64,395.18L23.27,393.83L25.6,393.95L41.89,395L44.22,394.85L65.16,393.26L67.49,393.28L88.44,393.75L90.77,394.25L102.4,396.61L104.73,396.78L118.69,396.59L121.02,396.49L134.98,395.42L137.31,395.06L144.29,394.66L146.62,394.84L155.93,395.45L158.26,395.31L169.89,393.5L172.22,392.96L181.53,391.4L183.86,391.38L209.46,392.87L211.79,393.27L221.09,394.44L223.42,394.32L232.73,392.34L235.06,391.8L242.04,390.99L244.37,390.93L269.97,390.07L272.3,389.46L279.28,388.02L281.6,387.9L290.91,388.63L293.24,388.96L302.55,390.03L304.88,389.97L314.19,388.39L316.51,387.74L328.15,384.7L330.48,384.59L337.46,384.1L339.79,383.55L349.1,381.26L351.42,381.2L377.02,383.11L379.35,382.86L397.97,380.74L400.3,380.05L407.28,378.26L409.61,378.05L416.59,376.96L418.92,375.77L430.55,367.54L432.88,366.59L449.17,361.88L451.5,361.86L458.48,361.83L460.81,361L465.46,357.68L467.79,355.62L472.44,352.18L474.77,351.05L484.08,346.58L486.41,345.02L495.72,338.16L498.04,335.5L502.7,327.98L505.03,323.5L512.01,311.53L514.34,308.7L525.97,296.92L528.3,293.66L532.95,285.23L535.28,280.13L544.59,256.3L546.92,249.67L558.55,214.58L560.88,204.14L563.21,189.86L565.54,170.49L570.19,115.27L572.52,82.65L577.17,29.64L579.5,19.85L581.83,24.81L584.15,42.76L595.79,172.77L598.12,190.02L602.77,215.98L605.1,225.94L609.76,241.99L612.08,248.46L630.7,293.74L633.03,300.06L642.34,323.65L644.66,328.01L649.32,333.53L651.65,334.83L663.28,338.06L665.61,339.4L674.92,344.54L677.25,345.36L681.9,347.6L684.23,349.36L698.19,362.33L700.52,363.79L705.17,365.72L707.5,366.21L714.48,366.23L716.81,366L721.47,366.08L723.79,366.63L744.74,374.61L747.07,374.8L756.38,374.32L758.7,374.85L770.34,378.81L772.67,379.08L781.98,380.53L784.3,381.48L793.61,386.06L795.94,386.45L800.59,385.52L802.92,384.44L807.58,382.55L809.9,382.33L814.56,383.66L816.89,384.85L821.54,386.95L823.87,387.51L828.52,387.52L830.85,387.08L842.49,383.91L844.81,383.84L858.78,385.68L861.1,385.48L870.41,385.33L872.74,385.43L882.05,385.96L884.38,386.51L896.01,389.8L898.34,389.96L907.65,389.19L909.98,388.93L916.96,389.19L919.29,389.66L928.6,391.44L930.92,391.54L944.89,392.18L947.21,392.52L956.52,393.01L958.85,392.78L970.49,391.93L972.82,392.11L986.78,393.23L989.11,393.03L1014.71,390.31L1017.03,390.71L1037.98,395.37L1040.31,395.48L1047.29,394.6L1049.62,394.07L1056.6,393.22L1058.93,393.34L1075.22,394.79L1077.54,394.63L1093.84,392.63L1096.16,393.06L1107.8,395.37L1110.13,395.54L1145.04,395.88L1147.36,395.9L1159,395.33" style="vector-effect: non-scaling-stroke; fill: none; stroke: rgb(215, 48, 39); stroke-opacity: 0.5; stroke-width: 2px; opacity: 1;"/></g><g class="points"/><g class="text"/></g><g class="trace scatter trace8371ce" style="stroke-miterlimit: 2;"><g class="fills"><g><path class="js-fill" d="M1159,397L0,397L0,395.03L9.31,393.78L11.64,393.44L20.95,393.28L23.27,393.35L74.47,393.88L76.8,394L90.77,393.92L93.09,393.84L109.38,392.73L111.71,392.39L121.02,391.73L123.35,391.8L144.29,392.38L146.62,392.45L167.57,392.37L169.89,392.17L179.2,390.56L181.53,389.96L190.84,388.1L193.17,388.05L211.79,389.04L214.11,388.59L228.08,385.91L230.4,385.69L239.71,385.54L242.04,385.74L251.35,386.03L253.68,385.92L260.66,386.28L262.99,386.7L269.97,387.61L272.3,387.47L307.2,382.05L309.53,382L318.84,381.35L321.17,380.95L337.46,377.24L339.79,377.46L351.42,379.62L353.75,379.41L363.06,378.83L365.39,379.06L372.37,379.47L374.7,379.27L381.68,377.61L384.01,376.86L390.99,375.01L393.32,374.69L400.3,373.78L402.62,373L407.28,370.34L409.61,368.67L414.26,365.79L416.59,364.97L421.24,364.77L423.57,365.08L428.22,365.43L430.55,365.16L439.86,362.23L442.19,361.47L449.17,358.45L451.5,357.16L458.48,354.27L460.81,353.7L465.46,352.1L467.79,350.84L474.77,346.68L477.1,345.87L486.41,343.72L488.73,342.51L502.7,333.11L505.03,330.81L516.66,316.96L518.99,313.57L523.64,305.1L525.97,300.01L535.28,279.17L537.61,275.05L549.24,257.01L551.57,252.1L556.23,240.03L558.55,232.98L565.54,207.73L567.86,197.57L574.85,165.66L577.17,158.77L579.5,156.42L581.83,159.31L584.15,166.81L586.48,177.26L593.46,208.27L595.79,215.53L612.08,255.46L614.41,259.57L619.06,264.79L621.39,267.1L626.05,274.23L628.37,279.49L642.34,317.26L644.66,321.43L649.32,327.13L651.65,328.9L656.3,330.47L658.63,330.28L665.61,328.4L667.94,328.61L670.27,329.76L672.59,331.87L684.23,346.71L686.56,348.41L700.52,354.97L702.85,355.88L709.83,356.87L712.16,357.14L716.81,358.73L719.14,360.17L728.45,367.19L730.78,368.25L735.43,369.06L737.76,369.09L747.07,369.56L749.39,369.92L772.67,373.96L774.99,373.99L786.63,374.82L788.96,375.2L821.54,381.17L823.87,381.35L847.14,382.42L849.47,382.33L861.1,382.55L863.43,382.79L891.36,385.71L893.69,385.88L907.65,387.01L909.98,386.77L923.94,384.16L926.27,384.3L933.25,386.14L935.58,386.9L942.56,388.25L944.89,388.4L986.78,390.46L989.11,390.37L998.42,391.22L1000.74,391.49L1007.72,391.19L1010.05,390.78L1017.03,389.82L1019.36,389.83L1072.89,393.84L1075.22,393.92L1105.47,394.13L1107.8,393.83L1117.11,393.41L1119.44,393.61L1131.07,394.3L1133.4,394.17L1145.04,393.97L1147.36,394.1L1159,394.38" style="fill: rgb(33, 102, 172); fill-opacity: 0.5; stroke-width: 0;"/></g></g><g class="errorbars"/><g class="lines"><path class="js-line" d="M0,395.03L9.31,393.78L11.64,393.44L20.95,393.28L23.27,393.35L74.47,393.88L76.8,394L90.77,393.92L93.09,393.84L109.38,392.73L111.71,392.39L121.02,391.73L123.35,391.8L144.29,392.38L146.62,392.45L167.57,392.37L169.89,392.17L179.2,390.56L181.53,389.96L190.84,388.1L193.17,388.05L211.79,389.04L214.11,388.59L228.08,385.91L230.4,385.69L239.71,385.54L242.04,385.74L251.35,386.03L253.68,385.92L260.66,386.28L262.99,386.7L269.97,387.61L272.3,387.47L307.2,382.05L309.53,382L318.84,381.35L321.17,380.95L337.46,377.24L339.79,377.46L351.42,379.62L353.75,379.41L363.06,378.83L365.39,379.06L372.37,379.47L374.7,379.27L381.68,377.61L384.01,376.86L390.99,375.01L393.32,374.69L400.3,373.78L402.62,373L407.28,370.34L409.61,368.67L414.26,365.79L416.59,364.97L421.24,364.77L423.57,365.08L428.22,365.43L430.55,365.16L439.86,362.23L442.19,361.47L449.17,358.45L451.5,357.16L458.48,354.27L460.81,353.7L465.46,352.1L467.79,350.84L474.77,346.68L477.1,345.87L486.41,343.72L488.73,342.51L502.7,333.11L505.03,330.81L516.66,316.96L518.99,313.57L523.64,305.1L525.97,300.01L535.28,279.17L537.61,275.05L549.24,257.01L551.57,252.1L556.23,240.03L558.55,232.98L565.54,207.73L567.86,197.57L574.85,165.66L577.17,158.77L579.5,156.42L581.83,159.31L584.15,166.81L586.48,177.26L593.46,208.27L595.79,215.53L612.08,255.46L614.41,259.57L619.06,264.79L621.39,267.1L626.05,274.23L628.37,279.49L642.34,317.26L644.66,321.43L649.32,327.13L651.65,328.9L656.3,330.47L658.63,330.28L665.61,328.4L667.94,328.61L670.27,329.76L672.59,331.87L684.23,346.71L686.56,348.41L700.52,354.97L702.85,355.88L709.83,356.87L712.16,357.14L716.81,358.73L719.14,360.17L728.45,367.19L730.78,368.25L735.43,369.06L737.76,369.09L747.07,369.56L749.39,369.92L772.67,373.96L774.99,373.99L786.63,374.82L788.96,375.2L821.54,381.17L823.87,381.35L847.14,382.42L849.47,382.33L861.1,382.55L863.43,382.79L891.36,385.71L893.69,385.88L907.65,387.01L909.98,386.77L923.94,384.16L926.27,384.3L933.25,386.14L935.58,386.9L942.56,388.25L944.89,388.4L986.78,390.46L989.11,390.37L998.42,391.22L1000.74,391.49L1007.72,391.19L1010.05,390.78L1017.03,389.82L1019.36,389.83L1072.89,393.84L1075.22,393.92L1105.47,394.13L1107.8,393.83L1117.11,393.41L1119.44,393.61L1131.07,394.3L1133.4,394.17L1145.04,393.97L1147.36,394.1L1159,394.38" style="vector-effect: non-scaling-stroke; fill: none; stroke: rgb(33, 102, 172); stroke-opacity: 0.5; stroke-width: 2px; opacity: 1;"/></g><g class="points"/><g class="text"/></g></g></g><g class="overplot"/><path class="xlines-above crisp" d="M0,0" style="fill: none;"/><path class="ylines-above crisp" d="M0,0" style="fill: none;"/><g class="overlines-above"/><g class="xaxislayer-above"><g class="xtick"><text text-anchor="middle" x="0" y="460" transform="translate(194.97,0)" style="font-family: 'Open Sans', verdana, arial, sans-serif; font-size: 12px; fill: rgb(42, 63, 95); fill-opacity: 1; white-space: pre;">−80k</text></g><g class="xtick"><text text-anchor="middle" x="0" y="460" transform="translate(311.1,0)" style="font-family: 'Open Sans', verdana, arial, sans-serif; font-size: 12px; fill: rgb(42, 63, 95); fill-opacity: 1; white-space: pre;">−60k</text></g><g class="xtick"><text text-anchor="middle" x="0" y="460" transform="translate(427.23,0)" style="font-family: 'Open Sans', verdana, arial, sans-serif; font-size: 12px; fill: rgb(42, 63, 95); fill-opacity: 1; white-space: pre;">−40k</text></g><g class="xtick"><text text-anchor="middle" x="0" y="460" transform="translate(543.37,0)" style="font-family: 'Open Sans', verdana, arial, sans-serif; font-size: 12px; fill: rgb(42, 63, 95); fill-opacity: 1; white-space: pre;">−20k</text></g><g class="xtick"><text text-anchor="middle" x="0" y="460" transform="translate(659.5,0)" style="font-family: 'Open Sans', verdana, arial, sans-serif; font-size: 12px; fill: rgb(42, 63, 95); fill-opacity: 1; white-space: pre;">0</text></g><g class="xtick"><text text-anchor="middle" x="0" y="460" transform="translate(775.63,0)" style="font-family: 'Open Sans', verdana, arial, sans-serif; font-size: 12px; fill: rgb(42, 63, 95); fill-opacity: 1; white-space: pre;">20k</text></g><g class="xtick"><text text-anchor="middle" x="0" y="460" transform="translate(891.77,0)" style="font-family: 'Open Sans', verdana, arial, sans-serif; font-size: 12px; fill: rgb(42, 63, 95); fill-opacity: 1; white-space: pre;">40k</text></g><g class="xtick"><text text-anchor="middle" x="0" y="460" transform="translate(1007.9,0)" style="font-family: 'Open Sans', verdana, arial, sans-serif; font-size: 12px; fill: rgb(42, 63, 95); fill-opacity: 1; white-space: pre;">60k</text></g><g class="xtick"><text text-anchor="middle" x="0" y="460" transform="translate(1124.03,0)" style="font-family: 'Open Sans', verdana, arial, sans-serif; font-size: 12px; fill: rgb(42, 63, 95); fill-opacity: 1; white-space: pre;">80k</text></g></g><g class="yaxislayer-above"><g class="ytick"><text text-anchor="end" x="79" y="4.199999999999999" transform="translate(0,447)" style="font-family: 'Open Sans', verdana, arial, sans-serif; font-size: 12px; fill: rgb(42, 63, 95); fill-opacity: 1; white-space: pre;">0</text></g><g class="ytick"><text text-anchor="end" x="79" y="4.199999999999999" transform="translate(0,367.1)" style="font-family: 'Open Sans', verdana, arial, sans-serif; font-size: 12px; fill: rgb(42, 63, 95); fill-opacity: 1; white-space: pre;">0.005</text></g><g class="ytick"><text text-anchor="end" x="79" y="4.199999999999999" transform="translate(0,287.2)" style="font-family: 'Open Sans', verdana, arial, sans-serif; font-size: 12px; fill: rgb(42, 63, 95); fill-opacity: 1; white-space: pre;">0.01</text></g><g class="ytick"><text text-anchor="end" x="79" y="4.199999999999999" transform="translate(0,207.3)" style="font-family: 'Open Sans', verdana, arial, sans-serif; font-size: 12px; fill: rgb(42, 63, 95); fill-opacity: 1; white-space: pre;">0.015</text></g><g class="ytick"><text text-anchor="end" x="79" y="4.199999999999999" transform="translate(0,127.4)" style="font-family: 'Open Sans', verdana, arial, sans-serif; font-size: 12px; fill: rgb(42, 63, 95); fill-opacity: 1; white-space: pre;">0.02</text></g></g><g class="overaxes-above"/></g></g><g class="polarlayer"/><g class="ternarylayer"/><g class="geolayer"/><g class="funnelarealayer"/><g class="pielayer"/><g class="treemaplayer"/><g class="sunburstlayer"/><g class="glimages"/><defs id="topdefs-7a8a40"><g class="clips"/><clipPath id="legend7a8a40"><rect width="126" height="79" x="0" y="0"/></clipPath></defs><g class="layer-above"><g class="imagelayer"/><g class="shapelayer"/></g><g class="infolayer"><g class="legend" pointer-events="all" transform="translate(1262.18, 50)"><rect class="bg" shape-rendering="crispEdges" style="stroke: rgb(68, 68, 68); stroke-opacity: 1; fill: rgb(255, 255, 255); fill-opacity: 1; stroke-width: 0px;" width="126" height="79" x="0" y="0"/><g class="scrollbox" transform="translate(0, 0)" clip-path="url('#legend7a8a40')"><g class="groups"><g class="traces" transform="translate(0, 22.1)" style="opacity: 1;"><text class="legendtext user-select-none" text-anchor="start" x="40" y="-3.1200000000000006" style="font-family: 'Open Sans', verdana, arial, sans-serif; font-size: 12px; fill: rgb(42, 63, 95); fill-opacity: 1; white-space: pre;"><tspan class="line" dy="0em" x="40" y="-3.1200000000000006">Significant</tspan><tspan class="line" dy="1.3em" x="40" y="-3.1200000000000006">n=4359</tspan></text><g class="layers"><g class="legendfill"><path class="js-fill" d="M5,-2h30v6h-30z" style="stroke-width: 0; fill: rgb(215, 48, 39); fill-opacity: 0.5;"/></g><g class="legendlines"><path class="js-line" d="M5,-2h30" style="fill: none; stroke: rgb(215, 48, 39); stroke-opacity: 0.5; stroke-width: 2px;"/></g><g class="legendsymbols"><g class="legendpoints"/></g></g><rect class="legendtoggle" pointer-events="all" x="0" y="-17.1" width="120.046875" height="34.2" style="cursor: pointer; fill: rgb(0, 0, 0); fill-opacity: 0;"/></g><g class="traces" transform="translate(0, 56.300000000000004)" style="opacity: 1;"><text class="legendtext user-select-none" text-anchor="start" x="40" y="-3.1200000000000006" style="font-family: 'Open Sans', verdana, arial, sans-serif; font-size: 12px; fill: rgb(42, 63, 95); fill-opacity: 1; white-space: pre;"><tspan class="line" dy="0em" x="40" y="-3.1200000000000006">Non-significant</tspan><tspan class="line" dy="1.3em" x="40" y="-3.1200000000000006">n=8727</tspan></text><g class="layers"><g class="legendfill"><path class="js-fill" d="M5,-2h30v6h-30z" style="stroke-width: 0; fill: rgb(33, 102, 172); fill-opacity: 0.5;"/></g><g class="legendlines"><path class="js-line" d="M5,-2h30" style="fill: none; stroke: rgb(33, 102, 172); stroke-opacity: 0.5; stroke-width: 2px;"/></g><g class="legendsymbols"><g class="legendpoints"/></g></g><rect class="legendtoggle" pointer-events="all" x="0" y="-17.1" width="120.046875" height="34.2" style="cursor: pointer; fill: rgb(0, 0, 0); fill-opacity: 0;"/></g></g></g><rect class="scrollbar" rx="20" ry="3" width="0" height="0" style="fill: rgb(128, 139, 164); fill-opacity: 1;" x="0" y="0"/></g><g class="g-gtitle"/><g class="g-xtitle"><text class="xtitle" x="659.5" y="487.8" text-anchor="middle" style="font-family: 'Open Sans', verdana, arial, sans-serif; font-size: 14px; fill: rgb(42, 63, 95); opacity: 1; font-weight: normal; white-space: pre;">Distance to closest TSS</text></g><g class="g-ytitle"><text class="ytitle" transform="rotate(-90,24.168750000000003,248.5)" x="24.168750000000003" y="248.5" text-anchor="middle" style="font-family: 'Open Sans', verdana, arial, sans-serif; font-size: 14px; fill: rgb(42, 63, 95); opacity: 1; font-weight: normal; white-space: pre;">CpG Islands density</text></g></g></svg>