<svg class="main-svg" xmlns="http://www.w3.org/2000/svg" xmlns:xlink="http://www.w3.org/1999/xlink" width="1400" height="500" style="" viewBox="0 0 1400 500"><rect x="0" y="0" width="1400" height="500" style="fill: rgb(255, 255, 255); fill-opacity: 1;"/><defs id="defs-da2094"><g class="clips"><clipPath id="clipda2094xyplot" class="plotclip"><rect width="1210" height="397"/></clipPath><clipPath class="axesclip" id="clipda2094x"><rect x="110" y="0" width="1210" height="500"/></clipPath><clipPath class="axesclip" id="clipda2094y"><rect x="0" y="50" width="1400" height="397"/></clipPath><clipPath class="axesclip" id="clipda2094xy"><rect x="110" y="50" width="1210" height="397"/></clipPath></g><g class="gradients"/></defs><g class="bglayer"><rect class="bg" x="110" y="50" width="1210" height="397" style="fill: rgb(0, 0, 0); fill-opacity: 0; stroke-width: 0;"/></g><g class="layer-below"><g class="imagelayer"/><g class="shapelayer"><path data-index="0" fill-rule="evenodd" d="M801.43,447H839.84V50H801.43Z" clip-path="url('#clipda2094x')" style="opacity: 0.25; stroke: rgb(0, 0, 0); stroke-opacity: 0; fill: rgb(100, 100, 100); fill-opacity: 1; stroke-width: 0px;"/></g></g><g class="cartesianlayer"><g class="subplot xy"><g class="layer-subplot"><g class="shapelayer"/><g class="imagelayer"/></g><g class="gridlayer"><g class="x"/><g class="y"><path class="ygrid crisp" transform="translate(0,427.15)" d="M110,0h1210" style="stroke: rgb(211, 211, 211); stroke-opacity: 1; stroke-width: 1px;"/><path class="ygrid crisp" transform="translate(0,397.58)" d="M110,0h1210" style="stroke: rgb(211, 211, 211); stroke-opacity: 1; stroke-width: 1px;"/><path class="ygrid crisp" transform="translate(0,368.02)" d="M110,0h1210" style="stroke: rgb(211, 211, 211); stroke-opacity: 1; stroke-width: 1px;"/><path class="ygrid crisp" transform="translate(0,338.45)" d="M110,0h1210" style="stroke: rgb(211, 211, 211); stroke-opacity: 1; stroke-width: 1px;"/><path class="ygrid crisp" transform="translate(0,308.88)" d="M110,0h1210" style="stroke: rgb(211, 211, 211); stroke-opacity: 1; stroke-width: 1px;"/><path class="ygrid crisp" transform="translate(0,279.32)" d="M110,0h1210" style="stroke: rgb(211, 211, 211); stroke-opacity: 1; stroke-width: 1px;"/><path class="ygrid crisp" transform="translate(0,249.75)" d="M110,0h1210" style="stroke: rgb(211, 211, 211); stroke-opacity: 1; stroke-width: 1px;"/><path class="ygrid crisp" transform="translate(0,220.18)" d="M110,0h1210" style="stroke: rgb(211, 211, 211); stroke-opacity: 1; stroke-width: 1px;"/><path class="ygrid crisp" transform="translate(0,190.62)" d="M110,0h1210" style="stroke: rgb(211, 211, 211); stroke-opacity: 1; stroke-width: 1px;"/><path class="ygrid crisp" transform="translate(0,161.05)" d="M110,0h1210" style="stroke: rgb(211, 211, 211); stroke-opacity: 1; stroke-width: 1px;"/><path class="ygrid crisp" transform="translate(0,131.48000000000002)" d="M110,0h1210" style="stroke: rgb(211, 211, 211); stroke-opacity: 1; stroke-width: 1px;"/><path class="ygrid crisp" transform="translate(0,101.92)" d="M110,0h1210" style="stroke: rgb(211, 211, 211); stroke-opacity: 1; stroke-width: 1px;"/></g></g><g class="zerolinelayer"/><path class="xlines-below"/><path class="ylines-below"/><g class="overlines-below"/><g class="xaxislayer-below"/><g class="yaxislayer-below"/><g class="overaxes-below"/><g class="plot" transform="translate(110, 50)" clip-path="url('#clipda2094xyplot')"><g class="violinlayer mlayer"><g class="trace violins" style="opacity: 1;"><path class="violin" d="M-36.43,377.15L-36.43,376.8Q-30.03,376.63 -26.83,376.51C-23.63,376.39 -20.43,376.24 -17.23,376.09C-14.03,375.94 -10.82,375.76 -7.62,375.59C-4.42,375.42 -1.22,375.24 1.98,375.09C5.18,374.94 8.38,374.8 11.58,374.71C14.78,374.62 17.99,374.56 21.19,374.55C24.39,374.54 27.59,374.59 30.79,374.67C33.99,374.75 37.19,374.88 40.39,375.02C43.59,375.16 46.79,375.35 49.99,375.52C53.19,375.69 56.4,375.86 59.6,376.02C62.8,376.17 66,376.33 69.2,376.45C72.4,376.57 75.6,376.68 78.8,376.76C82,376.85 85.21,376.91 88.41,376.96C91.61,377.01 94.81,377.03 98.01,377.06C101.21,377.09 104.41,377.11 107.61,377.12C110.81,377.13 114.01,377.14 117.21,377.14C120.41,377.15 123.62,377.15 126.82,377.15C130.02,377.15 133.22,377.15 136.42,377.15C139.62,377.15 142.82,377.15 146.02,377.15C149.22,377.15 152.43,377.15 155.63,377.15C158.83,377.15 162.03,377.15 165.23,377.15C168.43,377.15 171.63,377.15 174.83,377.15C178.03,377.15 181.23,377.15 184.43,377.15C187.63,377.15 190.84,377.15 194.04,377.15C197.24,377.15 200.44,377.15 203.64,377.15C206.84,377.15 210.04,377.15 213.24,377.15C216.44,377.15 219.65,377.15 222.85,377.15C226.05,377.15 229.25,377.15 232.45,377.15C235.65,377.15 238.85,377.15 242.05,377.15C245.25,377.15 248.45,377.15 251.65,377.15C254.85,377.15 258.06,377.15 261.26,377.15C264.46,377.15 267.66,377.15 270.86,377.15C274.06,377.15 277.26,377.15 280.46,377.15C283.66,377.15 286.87,377.15 290.07,377.15C293.27,377.15 296.47,377.15 299.67,377.15C302.87,377.15 306.07,377.15 309.27,377.15C312.47,377.15 315.67,377.15 318.87,377.15C322.07,377.15 325.28,377.15 328.48,377.14C331.68,377.14 334.88,377.13 338.08,377.12C341.28,377.11 344.48,377.1 347.68,377.08C350.88,377.06 354.09,377.04 357.29,376.99C360.49,376.95 363.69,376.89 366.89,376.81C370.09,376.73 373.29,376.64 376.49,376.53C379.69,376.42 382.89,376.28 386.09,376.13C389.29,375.98 392.5,375.8 395.7,375.63C398.9,375.46 402.1,375.27 405.3,375.12C408.5,374.97 411.7,374.83 414.9,374.73C418.1,374.63 421.31,374.56 424.51,374.54C427.71,374.52 430.91,374.56 434.11,374.62C437.31,374.68 440.51,374.81 443.71,374.92C446.91,375.03 450.11,375.18 453.31,375.28C456.51,375.38 459.72,375.5 462.92,375.54C466.12,375.58 469.32,375.59 472.52,375.5C475.72,375.41 478.92,375.26 482.12,375.02C485.33,374.78 488.53,374.44 491.73,374.04C494.94,373.63 498.13,373.12 501.33,372.59C504.53,372.06 507.73,371.45 510.93,370.86C514.13,370.27 517.34,369.63 520.54,369.05C523.74,368.47 526.94,367.91 530.14,367.38C533.34,366.85 536.54,366.37 539.74,365.89C542.94,365.41 546.14,364.98 549.34,364.48C552.54,363.98 555.75,363.49 558.95,362.89C562.16,362.29 565.36,361.64 568.55,360.89C571.76,360.13 574.96,359.26 578.15,358.35C581.36,357.43 584.56,356.4 587.76,355.4C590.96,354.4 594.15,353.31 597.36,352.36C600.55,351.42 603.74,350.46 606.96,349.74C610.14,349.03 613.35,348.4 616.56,348.04C619.75,347.68 622.97,347.52 626.17,347.58C629.37,347.64 632.58,347.96 635.77,348.41C638.98,348.86 642.18,349.56 645.37,350.29C648.58,351.03 651.78,351.93 654.98,352.82C658.19,353.71 661.38,354.69 664.58,355.65C667.78,356.61 670.98,357.6 674.18,358.58C677.38,359.56 680.58,360.56 683.78,361.55C686.98,362.55 690.19,363.55 693.39,364.55C696.59,365.54 699.78,366.57 702.99,367.52C706.18,368.47 709.38,369.42 712.59,370.27C715.78,371.11 718.99,371.91 722.2,372.6C725.39,373.29 728.59,373.89 731.8,374.4C734.99,374.9 738.2,375.3 741.4,375.63Q744.6,375.96 751,376.39L751,377.15" style="vector-effect: non-scaling-stroke; stroke-width: 2px; stroke: rgb(33, 102, 172); stroke-opacity: 1; fill: rgb(33, 102, 172); fill-opacity: 0.5;"/><g class="points"><path class="point" transform="translate(21.9,370.61)" d="M2.5,0A2.5,2.5 0 1,1 0,-2.5A2.5,2.5 0 0,1 2.5,0Z" style="opacity: 1; stroke-width: 0px; fill: rgb(33, 102, 172); fill-opacity: 1;"/><path class="point" transform="translate(425.9,372.07)" d="M2.5,0A2.5,2.5 0 1,1 0,-2.5A2.5,2.5 0 0,1 2.5,0Z" style="opacity: 1; stroke-width: 0px; fill: rgb(33, 102, 172); fill-opacity: 1;"/><path class="point" transform="translate(528.17,370.15)" d="M2.5,0A2.5,2.5 0 1,1 0,-2.5A2.5,2.5 0 0,1 2.5,0Z" style="opacity: 1; stroke-width: 0px; fill: rgb(33, 102, 172); fill-opacity: 1;"/><path class="point" transform="translate(531.25,372.48)" d="M2.5,0A2.5,2.5 0 1,1 0,-2.5A2.5,2.5 0 0,1 2.5,0Z" style="opacity: 1; stroke-width: 0px; fill: rgb(33, 102, 172); fill-opacity: 1;"/><path class="point" transform="translate(542.2,371.62)" d="M2.5,0A2.5,2.5 0 1,1 0,-2.5A2.5,2.5 0 0,1 2.5,0Z" style="opacity: 1; stroke-width: 0px; fill: rgb(33, 102, 172); fill-opacity: 1;"/><path class="point" transform="translate(574.46,370.37)" d="M2.5,0A2.5,2.5 0 1,1 0,-2.5A2.5,2.5 0 0,1 2.5,0Z" style="opacity: 1; stroke-width: 0px; fill: rgb(33, 102, 172); fill-opacity: 1;"/><path class="point" transform="translate(574.94,371.34)" d="M2.5,0A2.5,2.5 0 1,1 0,-2.5A2.5,2.5 0 0,1 2.5,0Z" style="opacity: 1; stroke-width: 0px; fill: rgb(33, 102, 172); fill-opacity: 1;"/><path class="point" transform="translate(592.32,370.05)" d="M2.5,0A2.5,2.5 0 1,1 0,-2.5A2.5,2.5 0 0,1 2.5,0Z" style="opacity: 1; stroke-width: 0px; fill: rgb(33, 102, 172); fill-opacity: 1;"/><path class="point" transform="translate(605.29,372.53)" d="M2.5,0A2.5,2.5 0 1,1 0,-2.5A2.5,2.5 0 0,1 2.5,0Z" style="opacity: 1; stroke-width: 0px; fill: rgb(33, 102, 172); fill-opacity: 1;"/><path class="point" transform="translate(608.65,374.33)" d="M2.5,0A2.5,2.5 0 1,1 0,-2.5A2.5,2.5 0 0,1 2.5,0Z" style="opacity: 1; stroke-width: 0px; fill: rgb(33, 102, 172); fill-opacity: 1;"/><path class="point" transform="translate(609.42,369.83)" d="M2.5,0A2.5,2.5 0 1,1 0,-2.5A2.5,2.5 0 0,1 2.5,0Z" style="opacity: 1; stroke-width: 0px; fill: rgb(33, 102, 172); fill-opacity: 1;"/><path class="point" transform="translate(615.76,372.87)" d="M2.5,0A2.5,2.5 0 1,1 0,-2.5A2.5,2.5 0 0,1 2.5,0Z" style="opacity: 1; stroke-width: 0px; fill: rgb(33, 102, 172); fill-opacity: 1;"/><path class="point" transform="translate(622.48,367.78)" d="M2.5,0A2.5,2.5 0 1,1 0,-2.5A2.5,2.5 0 0,1 2.5,0Z" style="opacity: 1; stroke-width: 0px; fill: rgb(33, 102, 172); fill-opacity: 1;"/><path class="point" transform="translate(627.47,376.99)" d="M2.5,0A2.5,2.5 0 1,1 0,-2.5A2.5,2.5 0 0,1 2.5,0Z" style="opacity: 1; stroke-width: 0px; fill: rgb(33, 102, 172); fill-opacity: 1;"/><path class="point" transform="translate(631.31,374.1)" d="M2.5,0A2.5,2.5 0 1,1 0,-2.5A2.5,2.5 0 0,1 2.5,0Z" style="opacity: 1; stroke-width: 0px; fill: rgb(33, 102, 172); fill-opacity: 1;"/><path class="point" transform="translate(632.18,367.03)" d="M2.5,0A2.5,2.5 0 1,1 0,-2.5A2.5,2.5 0 0,1 2.5,0Z" style="opacity: 1; stroke-width: 0px; fill: rgb(33, 102, 172); fill-opacity: 1;"/><path class="point" transform="translate(639.38,372.45)" d="M2.5,0A2.5,2.5 0 1,1 0,-2.5A2.5,2.5 0 0,1 2.5,0Z" style="opacity: 1; stroke-width: 0px; fill: rgb(33, 102, 172); fill-opacity: 1;"/><path class="point" transform="translate(645.72,375.32)" d="M2.5,0A2.5,2.5 0 1,1 0,-2.5A2.5,2.5 0 0,1 2.5,0Z" style="opacity: 1; stroke-width: 0px; fill: rgb(33, 102, 172); fill-opacity: 1;"/><path class="point" transform="translate(650.71,372.78)" d="M2.5,0A2.5,2.5 0 1,1 0,-2.5A2.5,2.5 0 0,1 2.5,0Z" style="opacity: 1; stroke-width: 0px; fill: rgb(33, 102, 172); fill-opacity: 1;"/><path class="point" transform="translate(673.66,371.33)" d="M2.5,0A2.5,2.5 0 1,1 0,-2.5A2.5,2.5 0 0,1 2.5,0Z" style="opacity: 1; stroke-width: 0px; fill: rgb(33, 102, 172); fill-opacity: 1;"/><path class="point" transform="translate(679.71,369.31)" d="M2.5,0A2.5,2.5 0 1,1 0,-2.5A2.5,2.5 0 0,1 2.5,0Z" style="opacity: 1; stroke-width: 0px; fill: rgb(33, 102, 172); fill-opacity: 1;"/><path class="point" transform="translate(684.13,370.77)" d="M2.5,0A2.5,2.5 0 1,1 0,-2.5A2.5,2.5 0 0,1 2.5,0Z" style="opacity: 1; stroke-width: 0px; fill: rgb(33, 102, 172); fill-opacity: 1;"/><path class="point" transform="translate(692.68,372.4)" d="M2.5,0A2.5,2.5 0 1,1 0,-2.5A2.5,2.5 0 0,1 2.5,0Z" style="opacity: 1; stroke-width: 0px; fill: rgb(33, 102, 172); fill-opacity: 1;"/></g></g><g class="trace violins" style="opacity: 1;"><path class="violin" d="M-27.77,347.58L-27.77,347.24Q-20.56,347.06 -16.96,346.95C-13.36,346.83 -9.75,346.7 -6.15,346.55C-2.55,346.4 1.05,346.21 4.65,346.05C8.25,345.88 11.86,345.7 15.46,345.56C19.06,345.42 22.67,345.28 26.27,345.19C29.87,345.11 33.48,345.05 37.08,345.05C40.68,345.05 44.29,345.11 47.89,345.19C51.49,345.27 55.1,345.41 58.7,345.55C62.3,345.69 65.91,345.88 69.51,346.04C73.11,346.2 76.72,346.38 80.32,346.53C83.92,346.68 87.52,346.82 91.12,346.94C94.72,347.06 98.33,347.15 101.93,347.23C105.53,347.31 109.14,347.36 112.74,347.41C116.34,347.46 119.95,347.49 123.55,347.51C127.15,347.53 130.76,347.54 134.36,347.55C137.96,347.56 141.57,347.56 145.17,347.57C148.77,347.57 152.38,347.58 155.98,347.58C159.58,347.58 163.18,347.58 166.78,347.58C170.38,347.58 173.99,347.58 177.59,347.58C181.19,347.58 184.8,347.58 188.4,347.58C192,347.58 195.61,347.58 199.21,347.58C202.81,347.58 206.42,347.58 210.02,347.58C213.62,347.58 217.23,347.58 220.83,347.58C224.43,347.58 228.04,347.58 231.64,347.58C235.24,347.58 238.85,347.58 242.45,347.58C246.05,347.58 249.65,347.58 253.25,347.58C256.85,347.58 260.46,347.58 264.06,347.58C267.66,347.58 271.27,347.58 274.87,347.58C278.47,347.58 282.08,347.58 285.68,347.58C289.28,347.58 292.89,347.58 296.49,347.58C300.09,347.58 303.7,347.58 307.3,347.58C310.9,347.58 314.51,347.58 318.11,347.57C321.71,347.56 325.31,347.56 328.91,347.54C332.51,347.52 336.12,347.5 339.72,347.47C343.32,347.43 346.93,347.39 350.53,347.33C354.13,347.27 357.74,347.2 361.34,347.1C364.94,347 368.55,346.88 372.15,346.74C375.75,346.6 379.36,346.43 382.96,346.26C386.56,346.09 390.17,345.89 393.77,345.71C397.37,345.53 400.98,345.33 404.58,345.17C408.18,345.01 411.78,344.86 415.38,344.73C418.98,344.6 422.59,344.49 426.19,344.39C429.79,344.29 433.4,344.21 437,344.11C440.6,344.01 444.21,343.92 447.81,343.78C451.41,343.64 455.02,343.48 458.62,343.29C462.22,343.1 465.83,342.86 469.43,342.62C473.03,342.38 476.64,342.09 480.24,341.83C483.84,341.57 487.45,341.3 491.05,341.07C494.65,340.84 498.25,340.63 501.85,340.46C505.45,340.29 509.06,340.18 512.66,340.06C516.26,339.94 519.87,339.88 523.47,339.74C527.07,339.6 530.68,339.49 534.28,339.24C537.89,338.99 541.49,338.69 545.09,338.25C548.7,337.8 552.31,337.25 555.9,336.57C559.51,335.89 563.12,335.05 566.71,334.17C570.32,333.28 573.91,332.27 577.51,331.27C581.12,330.27 584.71,329.2 588.32,328.19C591.92,327.18 595.52,326.15 599.13,325.2C602.73,324.26 606.33,323.34 609.94,322.52C613.54,321.7 617.14,320.93 620.75,320.29C624.34,319.65 627.95,319.07 631.56,318.69C635.16,318.31 638.77,318.04 642.37,318.02C645.97,318 649.59,318.14 653.18,318.55C656.79,318.96 660.4,319.63 663.98,320.47C667.61,321.32 671.21,322.45 674.79,323.66C678.42,324.88 682.01,326.34 685.6,327.76C689.21,329.19 692.8,330.76 696.41,332.21C700.01,333.66 703.6,335.15 707.22,336.47C710.81,337.78 714.41,339.03 718.03,340.11C721.61,341.18 725.22,342.12 728.84,342.92C732.43,343.71 736.03,344.36 739.64,344.9C743.23,345.44 746.84,345.83 750.45,346.16Q754.05,346.49 761.26,346.89L761.26,347.58" style="vector-effect: non-scaling-stroke; stroke-width: 2px; stroke: rgb(50, 97, 160); stroke-opacity: 1; fill: rgb(50, 97, 160); fill-opacity: 0.5;"/><g class="points"><path class="point" transform="translate(37.26,340.99)" d="M2.5,0A2.5,2.5 0 1,1 0,-2.5A2.5,2.5 0 0,1 2.5,0Z" style="opacity: 1; stroke-width: 0px; fill: rgb(50, 97, 160); fill-opacity: 1;"/><path class="point" transform="translate(420.52,342.59)" d="M2.5,0A2.5,2.5 0 1,1 0,-2.5A2.5,2.5 0 0,1 2.5,0Z" style="opacity: 1; stroke-width: 0px; fill: rgb(50, 97, 160); fill-opacity: 1;"/><path class="point" transform="translate(481.7,340.47)" d="M2.5,0A2.5,2.5 0 1,1 0,-2.5A2.5,2.5 0 0,1 2.5,0Z" style="opacity: 1; stroke-width: 0px; fill: rgb(50, 97, 160); fill-opacity: 1;"/><path class="point" transform="translate(511.75,343.05)" d="M2.5,0A2.5,2.5 0 1,1 0,-2.5A2.5,2.5 0 0,1 2.5,0Z" style="opacity: 1; stroke-width: 0px; fill: rgb(50, 97, 160); fill-opacity: 1;"/><path class="point" transform="translate(521.84,342.09)" d="M2.5,0A2.5,2.5 0 1,1 0,-2.5A2.5,2.5 0 0,1 2.5,0Z" style="opacity: 1; stroke-width: 0px; fill: rgb(50, 97, 160); fill-opacity: 1;"/><path class="point" transform="translate(577.73,340.72)" d="M2.5,0A2.5,2.5 0 1,1 0,-2.5A2.5,2.5 0 0,1 2.5,0Z" style="opacity: 1; stroke-width: 0px; fill: rgb(50, 97, 160); fill-opacity: 1;"/><path class="point" transform="translate(580.42,341.78)" d="M2.5,0A2.5,2.5 0 1,1 0,-2.5A2.5,2.5 0 0,1 2.5,0Z" style="opacity: 1; stroke-width: 0px; fill: rgb(50, 97, 160); fill-opacity: 1;"/><path class="point" transform="translate(591.36,340.67)" d="M2.5,0A2.5,2.5 0 1,1 0,-2.5A2.5,2.5 0 0,1 2.5,0Z" style="opacity: 1; stroke-width: 0px; fill: rgb(50, 97, 160); fill-opacity: 1;"/><path class="point" transform="translate(599.43,342.89)" d="M2.5,0A2.5,2.5 0 1,1 0,-2.5A2.5,2.5 0 0,1 2.5,0Z" style="opacity: 1; stroke-width: 0px; fill: rgb(50, 97, 160); fill-opacity: 1;"/><path class="point" transform="translate(605.77,344.56)" d="M2.5,0A2.5,2.5 0 1,1 0,-2.5A2.5,2.5 0 0,1 2.5,0Z" style="opacity: 1; stroke-width: 0px; fill: rgb(50, 97, 160); fill-opacity: 1;"/><path class="point" transform="translate(615.76,340.33)" d="M2.5,0A2.5,2.5 0 1,1 0,-2.5A2.5,2.5 0 0,1 2.5,0Z" style="opacity: 1; stroke-width: 0px; fill: rgb(50, 97, 160); fill-opacity: 1;"/><path class="point" transform="translate(618.25,343.34)" d="M2.5,0A2.5,2.5 0 1,1 0,-2.5A2.5,2.5 0 0,1 2.5,0Z" style="opacity: 1; stroke-width: 0px; fill: rgb(50, 97, 160); fill-opacity: 1;"/><path class="point" transform="translate(638.23,338.27)" d="M2.5,0A2.5,2.5 0 1,1 0,-2.5A2.5,2.5 0 0,1 2.5,0Z" style="opacity: 1; stroke-width: 0px; fill: rgb(50, 97, 160); fill-opacity: 1;"/><path class="point" transform="translate(639.76,346.94)" d="M2.5,0A2.5,2.5 0 1,1 0,-2.5A2.5,2.5 0 0,1 2.5,0Z" style="opacity: 1; stroke-width: 0px; fill: rgb(50, 97, 160); fill-opacity: 1;"/><path class="point" transform="translate(643.03,344.84)" d="M2.5,0A2.5,2.5 0 1,1 0,-2.5A2.5,2.5 0 0,1 2.5,0Z" style="opacity: 1; stroke-width: 0px; fill: rgb(50, 97, 160); fill-opacity: 1;"/><path class="point" transform="translate(652.44,336.44)" d="M2.5,0A2.5,2.5 0 1,1 0,-2.5A2.5,2.5 0 0,1 2.5,0Z" style="opacity: 1; stroke-width: 0px; fill: rgb(50, 97, 160); fill-opacity: 1;"/><path class="point" transform="translate(653.21,342.98)" d="M2.5,0A2.5,2.5 0 1,1 0,-2.5A2.5,2.5 0 0,1 2.5,0Z" style="opacity: 1; stroke-width: 0px; fill: rgb(50, 97, 160); fill-opacity: 1;"/><path class="point" transform="translate(656.86,346.56)" d="M2.5,0A2.5,2.5 0 1,1 0,-2.5A2.5,2.5 0 0,1 2.5,0Z" style="opacity: 1; stroke-width: 0px; fill: rgb(50, 97, 160); fill-opacity: 1;"/><path class="point" transform="translate(663.58,343.48)" d="M2.5,0A2.5,2.5 0 1,1 0,-2.5A2.5,2.5 0 0,1 2.5,0Z" style="opacity: 1; stroke-width: 0px; fill: rgb(50, 97, 160); fill-opacity: 1;"/><path class="point" transform="translate(668.57,341.78)" d="M2.5,0A2.5,2.5 0 1,1 0,-2.5A2.5,2.5 0 0,1 2.5,0Z" style="opacity: 1; stroke-width: 0px; fill: rgb(50, 97, 160); fill-opacity: 1;"/><path class="point" transform="translate(669.53,339.2)" d="M2.5,0A2.5,2.5 0 1,1 0,-2.5A2.5,2.5 0 0,1 2.5,0Z" style="opacity: 1; stroke-width: 0px; fill: rgb(50, 97, 160); fill-opacity: 1;"/><path class="point" transform="translate(687.01,341.1)" d="M2.5,0A2.5,2.5 0 1,1 0,-2.5A2.5,2.5 0 0,1 2.5,0Z" style="opacity: 1; stroke-width: 0px; fill: rgb(50, 97, 160); fill-opacity: 1;"/><path class="point" transform="translate(696.23,343.05)" d="M2.5,0A2.5,2.5 0 1,1 0,-2.5A2.5,2.5 0 0,1 2.5,0Z" style="opacity: 1; stroke-width: 0px; fill: rgb(50, 97, 160); fill-opacity: 1;"/></g></g><g class="trace violins" style="opacity: 1;"><path class="violin" d="M-80.29,318.02L-80.29,317.72Q-70.71,317.57 -65.92,317.47C-61.13,317.37 -56.33,317.25 -51.54,317.12C-46.75,316.99 -41.96,316.84 -37.17,316.7C-32.38,316.56 -27.58,316.4 -22.79,316.28C-18,316.16 -13.2,316.03 -8.41,315.96C-3.62,315.89 1.17,315.84 5.96,315.84C10.75,315.84 15.55,315.88 20.34,315.95C25.13,316.02 29.92,316.14 34.71,316.26C39.5,316.38 44.3,316.54 49.09,316.68C53.88,316.82 58.68,316.98 63.47,317.11C68.26,317.24 73.05,317.36 77.84,317.46C82.63,317.56 87.43,317.64 92.22,317.71C97.01,317.78 101.8,317.83 106.59,317.87C111.38,317.91 116.18,317.93 120.97,317.95C125.76,317.97 130.55,317.98 135.34,317.99C140.13,318 144.93,318.01 149.72,318.01C154.51,318.01 159.31,318.01 164.1,318.01C168.89,318.01 173.68,318.02 178.47,318.02C183.26,318.02 188.06,318.02 192.85,318.02C197.64,318.02 202.43,318.02 207.22,318.02C212.01,318.02 216.81,318.01 221.6,318.01C226.39,318.01 231.19,318.01 235.98,318.01C240.77,318.01 245.56,318.01 250.35,318C255.14,317.99 259.94,317.98 264.73,317.96C269.52,317.94 274.31,317.92 279.1,317.89C283.89,317.86 288.69,317.82 293.48,317.76C298.27,317.7 303.06,317.62 307.85,317.53C312.64,317.43 317.44,317.32 322.23,317.19C327.02,317.06 331.82,316.9 336.61,316.75C341.4,316.6 346.19,316.43 350.98,316.28C355.77,316.13 360.57,315.97 365.36,315.84C370.15,315.71 374.94,315.59 379.73,315.49C384.52,315.39 389.32,315.31 394.11,315.23C398.9,315.15 403.69,315.09 408.48,315C413.27,314.91 418.07,314.82 422.86,314.68C427.65,314.54 432.45,314.38 437.24,314.16C442.03,313.94 446.82,313.67 451.61,313.37C456.4,313.06 461.2,312.71 465.99,312.33C470.78,311.95 475.57,311.52 480.36,311.08C485.15,310.64 489.95,310.17 494.74,309.69C499.53,309.21 504.33,308.72 509.12,308.2C513.91,307.68 518.7,307.16 523.49,306.59C528.28,306.02 533.08,305.43 537.87,304.76C542.66,304.09 547.46,303.39 552.24,302.59C557.04,301.79 561.83,300.91 566.62,299.98C571.42,299.04 576.2,298.01 580.99,296.98C585.79,295.95 590.57,294.82 595.37,293.81C600.16,292.8 604.95,291.74 609.75,290.93C614.53,290.12 619.32,289.36 624.12,288.95C628.9,288.54 633.71,288.31 638.5,288.45C643.3,288.59 648.1,289.06 652.87,289.81C657.69,290.57 662.48,291.71 667.25,292.98C672.07,294.26 676.85,295.89 681.63,297.47C686.43,299.06 691.2,300.86 696,302.5C700.79,304.13 705.57,305.82 710.38,307.28C715.15,308.73 719.94,310.08 724.75,311.22C729.52,312.35 734.32,313.3 739.13,314.09C743.91,314.88 748.7,315.47 753.5,315.96Q758.29,316.45 767.88,317.03L767.88,318.02" style="vector-effect: non-scaling-stroke; stroke-width: 2px; stroke: rgb(66, 92, 148); stroke-opacity: 1; fill: rgb(66, 92, 148); fill-opacity: 0.5;"/><g class="points"><path class="point" transform="translate(6.24,311.46)" d="M2.5,0A2.5,2.5 0 1,1 0,-2.5A2.5,2.5 0 0,1 2.5,0Z" style="opacity: 1; stroke-width: 0px; fill: rgb(66, 92, 148); fill-opacity: 1;"/><path class="point" transform="translate(382.69,312.96)" d="M2.5,0A2.5,2.5 0 1,1 0,-2.5A2.5,2.5 0 0,1 2.5,0Z" style="opacity: 1; stroke-width: 0px; fill: rgb(66, 92, 148); fill-opacity: 1;"/><path class="point" transform="translate(464.6,311)" d="M2.5,0A2.5,2.5 0 1,1 0,-2.5A2.5,2.5 0 0,1 2.5,0Z" style="opacity: 1; stroke-width: 0px; fill: rgb(66, 92, 148); fill-opacity: 1;"/><path class="point" transform="translate(512.91,313.38)" d="M2.5,0A2.5,2.5 0 1,1 0,-2.5A2.5,2.5 0 0,1 2.5,0Z" style="opacity: 1; stroke-width: 0px; fill: rgb(66, 92, 148); fill-opacity: 1;"/><path class="point" transform="translate(513.87,312.5)" d="M2.5,0A2.5,2.5 0 1,1 0,-2.5A2.5,2.5 0 0,1 2.5,0Z" style="opacity: 1; stroke-width: 0px; fill: rgb(66, 92, 148); fill-opacity: 1;"/><path class="point" transform="translate(540.95,311.23)" d="M2.5,0A2.5,2.5 0 1,1 0,-2.5A2.5,2.5 0 0,1 2.5,0Z" style="opacity: 1; stroke-width: 0px; fill: rgb(66, 92, 148); fill-opacity: 1;"/><path class="point" transform="translate(564.28,312.2)" d="M2.5,0A2.5,2.5 0 1,1 0,-2.5A2.5,2.5 0 0,1 2.5,0Z" style="opacity: 1; stroke-width: 0px; fill: rgb(66, 92, 148); fill-opacity: 1;"/><path class="point" transform="translate(587.33,311.17)" d="M2.5,0A2.5,2.5 0 1,1 0,-2.5A2.5,2.5 0 0,1 2.5,0Z" style="opacity: 1; stroke-width: 0px; fill: rgb(66, 92, 148); fill-opacity: 1;"/><path class="point" transform="translate(588.39,313.3)" d="M2.5,0A2.5,2.5 0 1,1 0,-2.5A2.5,2.5 0 0,1 2.5,0Z" style="opacity: 1; stroke-width: 0px; fill: rgb(66, 92, 148); fill-opacity: 1;"/><path class="point" transform="translate(592.9,314.73)" d="M2.5,0A2.5,2.5 0 1,1 0,-2.5A2.5,2.5 0 0,1 2.5,0Z" style="opacity: 1; stroke-width: 0px; fill: rgb(66, 92, 148); fill-opacity: 1;"/><path class="point" transform="translate(611.34,311.04)" d="M2.5,0A2.5,2.5 0 1,1 0,-2.5A2.5,2.5 0 0,1 2.5,0Z" style="opacity: 1; stroke-width: 0px; fill: rgb(66, 92, 148); fill-opacity: 1;"/><path class="point" transform="translate(623.73,313.57)" d="M2.5,0A2.5,2.5 0 1,1 0,-2.5A2.5,2.5 0 0,1 2.5,0Z" style="opacity: 1; stroke-width: 0px; fill: rgb(66, 92, 148); fill-opacity: 1;"/><path class="point" transform="translate(626.03,308.84)" d="M2.5,0A2.5,2.5 0 1,1 0,-2.5A2.5,2.5 0 0,1 2.5,0Z" style="opacity: 1; stroke-width: 0px; fill: rgb(66, 92, 148); fill-opacity: 1;"/><path class="point" transform="translate(631.12,317.04)" d="M2.5,0A2.5,2.5 0 1,1 0,-2.5A2.5,2.5 0 0,1 2.5,0Z" style="opacity: 1; stroke-width: 0px; fill: rgb(66, 92, 148); fill-opacity: 1;"/><path class="point" transform="translate(643.22,315.02)" d="M2.5,0A2.5,2.5 0 1,1 0,-2.5A2.5,2.5 0 0,1 2.5,0Z" style="opacity: 1; stroke-width: 0px; fill: rgb(66, 92, 148); fill-opacity: 1;"/><path class="point" transform="translate(646.29,307.03)" d="M2.5,0A2.5,2.5 0 1,1 0,-2.5A2.5,2.5 0 0,1 2.5,0Z" style="opacity: 1; stroke-width: 0px; fill: rgb(66, 92, 148); fill-opacity: 1;"/><path class="point" transform="translate(648.6,313.54)" d="M2.5,0A2.5,2.5 0 1,1 0,-2.5A2.5,2.5 0 0,1 2.5,0Z" style="opacity: 1; stroke-width: 0px; fill: rgb(66, 92, 148); fill-opacity: 1;"/><path class="point" transform="translate(650.42,316.81)" d="M2.5,0A2.5,2.5 0 1,1 0,-2.5A2.5,2.5 0 0,1 2.5,0Z" style="opacity: 1; stroke-width: 0px; fill: rgb(66, 92, 148); fill-opacity: 1;"/><path class="point" transform="translate(653.21,313.91)" d="M2.5,0A2.5,2.5 0 1,1 0,-2.5A2.5,2.5 0 0,1 2.5,0Z" style="opacity: 1; stroke-width: 0px; fill: rgb(66, 92, 148); fill-opacity: 1;"/><path class="point" transform="translate(658.39,312.23)" d="M2.5,0A2.5,2.5 0 1,1 0,-2.5A2.5,2.5 0 0,1 2.5,0Z" style="opacity: 1; stroke-width: 0px; fill: rgb(66, 92, 148); fill-opacity: 1;"/><path class="point" transform="translate(661.95,309.51)" d="M2.5,0A2.5,2.5 0 1,1 0,-2.5A2.5,2.5 0 0,1 2.5,0Z" style="opacity: 1; stroke-width: 0px; fill: rgb(66, 92, 148); fill-opacity: 1;"/><path class="point" transform="translate(674.33,311.49)" d="M2.5,0A2.5,2.5 0 1,1 0,-2.5A2.5,2.5 0 0,1 2.5,0Z" style="opacity: 1; stroke-width: 0px; fill: rgb(66, 92, 148); fill-opacity: 1;"/><path class="point" transform="translate(681.35,313.57)" d="M2.5,0A2.5,2.5 0 1,1 0,-2.5A2.5,2.5 0 0,1 2.5,0Z" style="opacity: 1; stroke-width: 0px; fill: rgb(66, 92, 148); fill-opacity: 1;"/></g></g><g class="trace violins" style="opacity: 1;"><path class="violin" d="M38.15,288.45L38.15,288.12Q45.36,287.96 48.96,287.85C52.57,287.74 56.17,287.6 59.78,287.46C63.39,287.32 66.99,287.16 70.6,287C74.2,286.85 77.81,286.67 81.41,286.53C85.02,286.39 88.62,286.25 92.23,286.17C95.83,286.09 99.44,286.03 103.04,286.03C106.65,286.03 110.25,286.07 113.86,286.15C117.47,286.23 121.07,286.36 124.68,286.49C128.28,286.62 131.89,286.8 135.49,286.95C139.1,287.11 142.7,287.27 146.31,287.42C149.91,287.56 153.52,287.71 157.12,287.82C160.73,287.93 164.33,288.02 167.94,288.1C171.55,288.18 175.15,288.23 178.76,288.28C182.36,288.32 185.97,288.35 189.57,288.37C193.18,288.39 196.78,288.41 200.39,288.42C203.99,288.43 207.6,288.44 211.2,288.44C214.81,288.45 218.41,288.45 222.02,288.45C225.63,288.45 229.23,288.45 232.84,288.45C236.44,288.45 240.05,288.45 243.65,288.45C247.26,288.45 250.86,288.45 254.47,288.45C258.07,288.45 261.68,288.45 265.28,288.45C268.89,288.45 272.49,288.45 276.1,288.45C279.71,288.45 283.31,288.45 286.92,288.45C290.52,288.45 294.13,288.45 297.73,288.45C301.34,288.45 304.94,288.45 308.55,288.45C312.15,288.45 315.76,288.45 319.36,288.45C322.97,288.45 326.57,288.45 330.18,288.45C333.78,288.45 337.39,288.45 340.99,288.45C344.6,288.45 348.2,288.45 351.81,288.45C355.42,288.45 359.02,288.44 362.63,288.44C366.23,288.44 369.84,288.44 373.44,288.43C377.05,288.42 380.65,288.4 384.26,288.38C387.86,288.36 391.47,288.34 395.07,288.29C398.68,288.24 402.28,288.18 405.89,288.09C409.5,288 413.1,287.89 416.71,287.74C420.31,287.59 423.92,287.4 427.52,287.18C431.13,286.96 434.74,286.69 438.34,286.41C441.95,286.13 445.55,285.79 449.15,285.48C452.76,285.17 456.36,284.84 459.97,284.56C463.58,284.28 467.18,284.01 470.79,283.82C474.39,283.63 478,283.5 481.6,283.41C485.21,283.32 488.81,283.32 492.42,283.31C496.02,283.3 499.63,283.37 503.23,283.35C506.84,283.33 510.44,283.34 514.05,283.21C517.66,283.08 521.27,282.89 524.87,282.54C528.48,282.19 532.09,281.73 535.68,281.13C539.3,280.53 542.9,279.76 546.5,278.94C550.11,278.12 553.71,277.15 557.31,276.22C560.92,275.28 564.52,274.26 568.13,273.33C571.73,272.41 575.34,271.48 578.95,270.67C582.55,269.86 586.15,269.13 589.76,268.45C593.36,267.77 596.97,267.19 600.58,266.59C604.18,265.99 607.79,265.44 611.39,264.84C615,264.23 618.6,263.6 622.21,262.96C625.82,262.32 629.42,261.61 633.03,261.02C636.63,260.43 640.23,259.8 643.84,259.44C647.44,259.08 651.06,258.8 654.66,258.88C658.27,258.96 661.89,259.28 665.47,259.9C669.1,260.53 672.72,261.52 676.29,262.66C679.93,263.82 683.53,265.33 687.11,266.84C690.74,268.36 694.31,270.13 697.92,271.76C701.52,273.39 705.11,275.1 708.74,276.61C712.32,278.1 715.92,279.55 719.55,280.77C723.13,281.98 726.74,283.04 730.37,283.91C733.96,284.77 737.57,285.44 741.19,286Q744.78,286.55 752,287.25L752,288.45" style="vector-effect: non-scaling-stroke; stroke-width: 2px; stroke: rgb(83, 87, 136); stroke-opacity: 1; fill: rgb(83, 87, 136); fill-opacity: 0.5;"/><g class="points"><path class="point" transform="translate(103.52,281.9)" d="M2.5,0A2.5,2.5 0 1,1 0,-2.5A2.5,2.5 0 0,1 2.5,0Z" style="opacity: 1; stroke-width: 0px; fill: rgb(83, 87, 136); fill-opacity: 1;"/><path class="point" transform="translate(475.55,283.39)" d="M2.5,0A2.5,2.5 0 1,1 0,-2.5A2.5,2.5 0 0,1 2.5,0Z" style="opacity: 1; stroke-width: 0px; fill: rgb(83, 87, 136); fill-opacity: 1;"/><path class="point" transform="translate(487.65,281.42)" d="M2.5,0A2.5,2.5 0 1,1 0,-2.5A2.5,2.5 0 0,1 2.5,0Z" style="opacity: 1; stroke-width: 0px; fill: rgb(83, 87, 136); fill-opacity: 1;"/><path class="point" transform="translate(553.53,283.84)" d="M2.5,0A2.5,2.5 0 1,1 0,-2.5A2.5,2.5 0 0,1 2.5,0Z" style="opacity: 1; stroke-width: 0px; fill: rgb(83, 87, 136); fill-opacity: 1;"/><path class="point" transform="translate(580.03,282.94)" d="M2.5,0A2.5,2.5 0 1,1 0,-2.5A2.5,2.5 0 0,1 2.5,0Z" style="opacity: 1; stroke-width: 0px; fill: rgb(83, 87, 136); fill-opacity: 1;"/><path class="point" transform="translate(582.14,281.67)" d="M2.5,0A2.5,2.5 0 1,1 0,-2.5A2.5,2.5 0 0,1 2.5,0Z" style="opacity: 1; stroke-width: 0px; fill: rgb(83, 87, 136); fill-opacity: 1;"/><path class="point" transform="translate(586.66,282.65)" d="M2.5,0A2.5,2.5 0 1,1 0,-2.5A2.5,2.5 0 0,1 2.5,0Z" style="opacity: 1; stroke-width: 0px; fill: rgb(83, 87, 136); fill-opacity: 1;"/><path class="point" transform="translate(593.86,281.65)" d="M2.5,0A2.5,2.5 0 1,1 0,-2.5A2.5,2.5 0 0,1 2.5,0Z" style="opacity: 1; stroke-width: 0px; fill: rgb(83, 87, 136); fill-opacity: 1;"/><path class="point" transform="translate(595.4,283.78)" d="M2.5,0A2.5,2.5 0 1,1 0,-2.5A2.5,2.5 0 0,1 2.5,0Z" style="opacity: 1; stroke-width: 0px; fill: rgb(83, 87, 136); fill-opacity: 1;"/><path class="point" transform="translate(598.09,285.8)" d="M2.5,0A2.5,2.5 0 1,1 0,-2.5A2.5,2.5 0 0,1 2.5,0Z" style="opacity: 1; stroke-width: 0px; fill: rgb(83, 87, 136); fill-opacity: 1;"/><path class="point" transform="translate(633.81,281.34)" d="M2.5,0A2.5,2.5 0 1,1 0,-2.5A2.5,2.5 0 0,1 2.5,0Z" style="opacity: 1; stroke-width: 0px; fill: rgb(83, 87, 136); fill-opacity: 1;"/><path class="point" transform="translate(635.73,284.04)" d="M2.5,0A2.5,2.5 0 1,1 0,-2.5A2.5,2.5 0 0,1 2.5,0Z" style="opacity: 1; stroke-width: 0px; fill: rgb(83, 87, 136); fill-opacity: 1;"/><path class="point" transform="translate(643.89,279.63)" d="M2.5,0A2.5,2.5 0 1,1 0,-2.5A2.5,2.5 0 0,1 2.5,0Z" style="opacity: 1; stroke-width: 0px; fill: rgb(83, 87, 136); fill-opacity: 1;"/><path class="point" transform="translate(648.41,286.75)" d="M2.5,0A2.5,2.5 0 1,1 0,-2.5A2.5,2.5 0 0,1 2.5,0Z" style="opacity: 1; stroke-width: 0px; fill: rgb(83, 87, 136); fill-opacity: 1;"/><path class="point" transform="translate(653.4,285.04)" d="M2.5,0A2.5,2.5 0 1,1 0,-2.5A2.5,2.5 0 0,1 2.5,0Z" style="opacity: 1; stroke-width: 0px; fill: rgb(83, 87, 136); fill-opacity: 1;"/><path class="point" transform="translate(655.13,277.51)" d="M2.5,0A2.5,2.5 0 1,1 0,-2.5A2.5,2.5 0 0,1 2.5,0Z" style="opacity: 1; stroke-width: 0px; fill: rgb(83, 87, 136); fill-opacity: 1;"/><path class="point" transform="translate(655.9,283.99)" d="M2.5,0A2.5,2.5 0 1,1 0,-2.5A2.5,2.5 0 0,1 2.5,0Z" style="opacity: 1; stroke-width: 0px; fill: rgb(83, 87, 136); fill-opacity: 1;"/><path class="point" transform="translate(663,287.54)" d="M2.5,0A2.5,2.5 0 1,1 0,-2.5A2.5,2.5 0 0,1 2.5,0Z" style="opacity: 1; stroke-width: 0px; fill: rgb(83, 87, 136); fill-opacity: 1;"/><path class="point" transform="translate(672.8,284.47)" d="M2.5,0A2.5,2.5 0 1,1 0,-2.5A2.5,2.5 0 0,1 2.5,0Z" style="opacity: 1; stroke-width: 0px; fill: rgb(83, 87, 136); fill-opacity: 1;"/><path class="point" transform="translate(675.87,282.66)" d="M2.5,0A2.5,2.5 0 1,1 0,-2.5A2.5,2.5 0 0,1 2.5,0Z" style="opacity: 1; stroke-width: 0px; fill: rgb(83, 87, 136); fill-opacity: 1;"/><path class="point" transform="translate(678.85,279.98)" d="M2.5,0A2.5,2.5 0 1,1 0,-2.5A2.5,2.5 0 0,1 2.5,0Z" style="opacity: 1; stroke-width: 0px; fill: rgb(83, 87, 136); fill-opacity: 1;"/><path class="point" transform="translate(679.14,281.94)" d="M2.5,0A2.5,2.5 0 1,1 0,-2.5A2.5,2.5 0 0,1 2.5,0Z" style="opacity: 1; stroke-width: 0px; fill: rgb(83, 87, 136); fill-opacity: 1;"/><path class="point" transform="translate(686.63,284.1)" d="M2.5,0A2.5,2.5 0 1,1 0,-2.5A2.5,2.5 0 0,1 2.5,0Z" style="opacity: 1; stroke-width: 0px; fill: rgb(83, 87, 136); fill-opacity: 1;"/></g></g><g class="trace violins" style="opacity: 1;"><path class="violin" d="M169.33,258.88L169.33,258.56Q175.63,258.41 178.78,258.3C181.93,258.19 185.08,258.06 188.23,257.92C191.38,257.78 194.53,257.61 197.68,257.46C200.83,257.31 203.98,257.13 207.13,257C210.28,256.87 213.43,256.74 216.58,256.66C219.73,256.58 222.88,256.52 226.03,256.52C229.18,256.52 232.33,256.57 235.48,256.64C238.63,256.72 241.78,256.84 244.93,256.97C248.08,257.1 251.23,257.28 254.38,257.43C257.53,257.58 260.68,257.75 263.83,257.89C266.98,258.03 270.13,258.16 273.28,258.27C276.43,258.38 279.58,258.47 282.73,258.55C285.88,258.62 289.03,258.68 292.18,258.72C295.33,258.76 298.48,258.79 301.63,258.81C304.78,258.83 307.93,258.84 311.08,258.85C314.23,258.86 317.38,258.86 320.53,258.87C323.68,258.87 326.83,258.88 329.98,258.88C333.13,258.88 336.28,258.88 339.43,258.88C342.58,258.88 345.73,258.88 348.88,258.88C352.03,258.88 355.18,258.88 358.33,258.88C361.48,258.88 364.63,258.88 367.78,258.88C370.93,258.88 374.08,258.88 377.23,258.88C380.38,258.88 383.53,258.88 386.68,258.88C389.83,258.88 392.98,258.87 396.13,258.86C399.28,258.85 402.43,258.85 405.58,258.83C408.73,258.81 411.88,258.79 415.03,258.76C418.18,258.72 421.33,258.68 424.48,258.62C427.63,258.56 430.78,258.48 433.93,258.38C437.08,258.28 440.23,258.16 443.38,258.02C446.53,257.88 449.68,257.72 452.83,257.56C455.98,257.4 459.13,257.21 462.28,257.04C465.43,256.87 468.58,256.69 471.73,256.53C474.88,256.37 478.03,256.23 481.18,256.09C484.33,255.95 487.48,255.84 490.63,255.71C493.78,255.58 496.93,255.47 500.08,255.33C503.23,255.18 506.38,255.03 509.53,254.84C512.68,254.65 515.83,254.44 518.98,254.2C522.13,253.96 525.28,253.68 528.43,253.41C531.58,253.14 534.73,252.85 537.88,252.57C541.03,252.29 544.18,252.02 547.33,251.74C550.48,251.46 553.63,251.2 556.78,250.9C559.93,250.6 563.08,250.31 566.23,249.94C569.38,249.56 572.54,249.17 575.68,248.65C578.84,248.13 581.99,247.54 585.13,246.83C588.29,246.11 591.44,245.27 594.58,244.35C597.74,243.42 600.89,242.35 604.03,241.27C607.19,240.18 610.33,238.98 613.48,237.85C616.63,236.72 619.77,235.53 622.93,234.51C626.07,233.5 629.21,232.51 632.38,231.74C635.51,230.98 638.67,230.32 641.83,229.92C644.97,229.52 648.13,229.3 651.28,229.32C654.43,229.34 657.6,229.59 660.73,230.05C663.9,230.51 667.05,231.23 670.18,232.08C673.35,232.95 676.5,234.06 679.63,235.22C682.8,236.4 685.94,237.77 689.08,239.12C692.24,240.48 695.38,241.95 698.53,243.33C701.68,244.7 704.81,246.11 707.98,247.38C711.11,248.63 714.26,249.84 717.43,250.9C720.56,251.95 723.71,252.89 726.88,253.7C730.01,254.5 733.17,255.17 736.33,255.74C739.47,256.3 742.63,256.73 745.78,257.1C748.93,257.47 752.08,257.73 755.23,257.95Q758.38,258.17 764.68,258.43L764.68,258.88" style="vector-effect: non-scaling-stroke; stroke-width: 2px; stroke: rgb(99, 82, 124); stroke-opacity: 1; fill: rgb(99, 82, 124); fill-opacity: 0.5;"/><g class="points"><path class="point" transform="translate(226.35,252.23)" d="M2.5,0A2.5,2.5 0 1,1 0,-2.5A2.5,2.5 0 0,1 2.5,0Z" style="opacity: 1; stroke-width: 0px; fill: rgb(99, 82, 124); fill-opacity: 1;"/><path class="point" transform="translate(484.19,253.92)" d="M2.5,0A2.5,2.5 0 1,1 0,-2.5A2.5,2.5 0 0,1 2.5,0Z" style="opacity: 1; stroke-width: 0px; fill: rgb(99, 82, 124); fill-opacity: 1;"/><path class="point" transform="translate(539.31,251.72)" d="M2.5,0A2.5,2.5 0 1,1 0,-2.5A2.5,2.5 0 0,1 2.5,0Z" style="opacity: 1; stroke-width: 0px; fill: rgb(99, 82, 124); fill-opacity: 1;"/><path class="point" transform="translate(548.53,254.42)" d="M2.5,0A2.5,2.5 0 1,1 0,-2.5A2.5,2.5 0 0,1 2.5,0Z" style="opacity: 1; stroke-width: 0px; fill: rgb(99, 82, 124); fill-opacity: 1;"/><path class="point" transform="translate(580.7,253.42)" d="M2.5,0A2.5,2.5 0 1,1 0,-2.5A2.5,2.5 0 0,1 2.5,0Z" style="opacity: 1; stroke-width: 0px; fill: rgb(99, 82, 124); fill-opacity: 1;"/><path class="point" transform="translate(589.35,251.97)" d="M2.5,0A2.5,2.5 0 1,1 0,-2.5A2.5,2.5 0 0,1 2.5,0Z" style="opacity: 1; stroke-width: 0px; fill: rgb(99, 82, 124); fill-opacity: 1;"/><path class="point" transform="translate(621.23,253.09)" d="M2.5,0A2.5,2.5 0 1,1 0,-2.5A2.5,2.5 0 0,1 2.5,0Z" style="opacity: 1; stroke-width: 0px; fill: rgb(99, 82, 124); fill-opacity: 1;"/><path class="point" transform="translate(622.67,251.87)" d="M2.5,0A2.5,2.5 0 1,1 0,-2.5A2.5,2.5 0 0,1 2.5,0Z" style="opacity: 1; stroke-width: 0px; fill: rgb(99, 82, 124); fill-opacity: 1;"/><path class="point" transform="translate(625.55,254.17)" d="M2.5,0A2.5,2.5 0 1,1 0,-2.5A2.5,2.5 0 0,1 2.5,0Z" style="opacity: 1; stroke-width: 0px; fill: rgb(99, 82, 124); fill-opacity: 1;"/><path class="point" transform="translate(627.66,256.15)" d="M2.5,0A2.5,2.5 0 1,1 0,-2.5A2.5,2.5 0 0,1 2.5,0Z" style="opacity: 1; stroke-width: 0px; fill: rgb(99, 82, 124); fill-opacity: 1;"/><path class="point" transform="translate(629.2,251.74)" d="M2.5,0A2.5,2.5 0 1,1 0,-2.5A2.5,2.5 0 0,1 2.5,0Z" style="opacity: 1; stroke-width: 0px; fill: rgb(99, 82, 124); fill-opacity: 1;"/><path class="point" transform="translate(636.11,254.92)" d="M2.5,0A2.5,2.5 0 1,1 0,-2.5A2.5,2.5 0 0,1 2.5,0Z" style="opacity: 1; stroke-width: 0px; fill: rgb(99, 82, 124); fill-opacity: 1;"/><path class="point" transform="translate(640.92,249.29)" d="M2.5,0A2.5,2.5 0 1,1 0,-2.5A2.5,2.5 0 0,1 2.5,0Z" style="opacity: 1; stroke-width: 0px; fill: rgb(99, 82, 124); fill-opacity: 1;"/><path class="point" transform="translate(652.06,258.24)" d="M2.5,0A2.5,2.5 0 1,1 0,-2.5A2.5,2.5 0 0,1 2.5,0Z" style="opacity: 1; stroke-width: 0px; fill: rgb(99, 82, 124); fill-opacity: 1;"/><path class="point" transform="translate(658.2,255.99)" d="M2.5,0A2.5,2.5 0 1,1 0,-2.5A2.5,2.5 0 0,1 2.5,0Z" style="opacity: 1; stroke-width: 0px; fill: rgb(99, 82, 124); fill-opacity: 1;"/><path class="point" transform="translate(658.59,248.29)" d="M2.5,0A2.5,2.5 0 1,1 0,-2.5A2.5,2.5 0 0,1 2.5,0Z" style="opacity: 1; stroke-width: 0px; fill: rgb(99, 82, 124); fill-opacity: 1;"/><path class="point" transform="translate(663,254.39)" d="M2.5,0A2.5,2.5 0 1,1 0,-2.5A2.5,2.5 0 0,1 2.5,0Z" style="opacity: 1; stroke-width: 0px; fill: rgb(99, 82, 124); fill-opacity: 1;"/><path class="point" transform="translate(666.08,256.99)" d="M2.5,0A2.5,2.5 0 1,1 0,-2.5A2.5,2.5 0 0,1 2.5,0Z" style="opacity: 1; stroke-width: 0px; fill: rgb(99, 82, 124); fill-opacity: 1;"/><path class="point" transform="translate(675.49,254.58)" d="M2.5,0A2.5,2.5 0 1,1 0,-2.5A2.5,2.5 0 0,1 2.5,0Z" style="opacity: 1; stroke-width: 0px; fill: rgb(99, 82, 124); fill-opacity: 1;"/><path class="point" transform="translate(681.35,253.07)" d="M2.5,0A2.5,2.5 0 1,1 0,-2.5A2.5,2.5 0 0,1 2.5,0Z" style="opacity: 1; stroke-width: 0px; fill: rgb(99, 82, 124); fill-opacity: 1;"/><path class="point" transform="translate(681.44,250.92)" d="M2.5,0A2.5,2.5 0 1,1 0,-2.5A2.5,2.5 0 0,1 2.5,0Z" style="opacity: 1; stroke-width: 0px; fill: rgb(99, 82, 124); fill-opacity: 1;"/><path class="point" transform="translate(681.83,252.48)" d="M2.5,0A2.5,2.5 0 1,1 0,-2.5A2.5,2.5 0 0,1 2.5,0Z" style="opacity: 1; stroke-width: 0px; fill: rgb(99, 82, 124); fill-opacity: 1;"/><path class="point" transform="translate(707.66,254.15)" d="M2.5,0A2.5,2.5 0 1,1 0,-2.5A2.5,2.5 0 0,1 2.5,0Z" style="opacity: 1; stroke-width: 0px; fill: rgb(99, 82, 124); fill-opacity: 1;"/></g></g><g class="trace violins" style="opacity: 1;"><path class="violin" d="M-5.4,229.32L-5.4,229.04Q4.19,228.89 8.99,228.8C13.79,228.7 18.58,228.59 23.38,228.47C28.18,228.35 32.97,228.21 37.77,228.08C42.57,227.95 47.36,227.8 52.16,227.68C56.96,227.56 61.75,227.44 66.55,227.37C71.35,227.3 76.15,227.25 80.95,227.24C85.75,227.23 90.54,227.27 95.34,227.33C100.14,227.39 104.93,227.5 109.73,227.61C114.53,227.72 119.32,227.87 124.12,228C128.92,228.13 133.71,228.27 138.51,228.4C143.31,228.52 148.1,228.65 152.9,228.75C157.7,228.85 162.49,228.93 167.29,229C172.09,229.07 176.89,229.12 181.69,229.16C186.49,229.2 191.28,229.22 196.08,229.24C200.88,229.26 205.67,229.28 210.47,229.29C215.27,229.3 220.06,229.31 224.86,229.31C229.66,229.31 234.45,229.31 239.25,229.31C244.05,229.31 248.84,229.32 253.64,229.32C258.44,229.32 263.23,229.32 268.03,229.32C272.83,229.32 277.63,229.32 282.43,229.32C287.23,229.32 292.02,229.31 296.82,229.31C301.62,229.31 306.41,229.31 311.21,229.31C316.01,229.31 320.8,229.31 325.6,229.3C330.4,229.29 335.19,229.28 339.99,229.26C344.79,229.24 349.58,229.22 354.38,229.17C359.18,229.12 363.98,229.07 368.78,228.97C373.58,228.87 378.37,228.76 383.17,228.58C387.97,228.4 392.77,228.19 397.56,227.91C402.36,227.62 407.16,227.28 411.95,226.87C416.75,226.46 421.55,225.97 426.34,225.47C431.14,224.97 435.93,224.39 440.73,223.86C445.53,223.33 450.32,222.75 455.12,222.27C459.92,221.8 464.72,221.34 469.52,221.01C474.31,220.68 479.11,220.44 483.91,220.29C488.71,220.14 493.5,220.11 498.3,220.1C503.1,220.09 507.89,220.2 512.69,220.22C517.49,220.24 522.28,220.32 527.08,220.25C531.88,220.18 536.68,220.07 541.47,219.79C546.27,219.51 551.07,219.12 555.86,218.56C560.67,218 565.47,217.28 570.26,216.42C575.07,215.56 579.86,214.52 584.65,213.41C589.46,212.3 594.25,211.01 599.04,209.76C603.84,208.51 608.62,207.11 613.43,205.89C618.22,204.67 623,203.4 627.82,202.44C632.6,201.49 637.4,200.62 642.21,200.17C646.99,199.72 651.81,199.53 656.6,199.75C661.41,199.97 666.23,200.6 671,201.5C675.83,202.41 680.62,203.77 685.39,205.2C690.22,206.65 694.99,208.44 699.78,210.14C704.59,211.84 709.36,213.73 714.17,215.4C718.95,217.06 723.74,218.71 728.56,220.11C733.33,221.5 738.13,222.75 742.95,223.78C747.73,224.81 752.53,225.63 757.34,226.3Q762.13,226.97 771.74,227.82L771.74,229.32" style="vector-effect: non-scaling-stroke; stroke-width: 2px; stroke: rgb(116, 77, 112); stroke-opacity: 1; fill: rgb(116, 77, 112); fill-opacity: 0.5;"/><g class="points"><path class="point" transform="translate(82.3,222.85)" d="M2.5,0A2.5,2.5 0 1,1 0,-2.5A2.5,2.5 0 0,1 2.5,0Z" style="opacity: 1; stroke-width: 0px; fill: rgb(116, 77, 112); fill-opacity: 1;"/><path class="point" transform="translate(467.87,224.13)" d="M2.5,0A2.5,2.5 0 1,1 0,-2.5A2.5,2.5 0 0,1 2.5,0Z" style="opacity: 1; stroke-width: 0px; fill: rgb(116, 77, 112); fill-opacity: 1;"/><path class="point" transform="translate(481.6,222.46)" d="M2.5,0A2.5,2.5 0 1,1 0,-2.5A2.5,2.5 0 0,1 2.5,0Z" style="opacity: 1; stroke-width: 0px; fill: rgb(116, 77, 112); fill-opacity: 1;"/><path class="point" transform="translate(482.27,224.5)" d="M2.5,0A2.5,2.5 0 1,1 0,-2.5A2.5,2.5 0 0,1 2.5,0Z" style="opacity: 1; stroke-width: 0px; fill: rgb(116, 77, 112); fill-opacity: 1;"/><path class="point" transform="translate(494.76,223.73)" d="M2.5,0A2.5,2.5 0 1,1 0,-2.5A2.5,2.5 0 0,1 2.5,0Z" style="opacity: 1; stroke-width: 0px; fill: rgb(116, 77, 112); fill-opacity: 1;"/><path class="point" transform="translate(551.99,222.67)" d="M2.5,0A2.5,2.5 0 1,1 0,-2.5A2.5,2.5 0 0,1 2.5,0Z" style="opacity: 1; stroke-width: 0px; fill: rgb(116, 77, 112); fill-opacity: 1;"/><path class="point" transform="translate(586.66,223.5)" d="M2.5,0A2.5,2.5 0 1,1 0,-2.5A2.5,2.5 0 0,1 2.5,0Z" style="opacity: 1; stroke-width: 0px; fill: rgb(116, 77, 112); fill-opacity: 1;"/><path class="point" transform="translate(595.59,222.64)" d="M2.5,0A2.5,2.5 0 1,1 0,-2.5A2.5,2.5 0 0,1 2.5,0Z" style="opacity: 1; stroke-width: 0px; fill: rgb(116, 77, 112); fill-opacity: 1;"/><path class="point" transform="translate(603.08,224.2)" d="M2.5,0A2.5,2.5 0 1,1 0,-2.5A2.5,2.5 0 0,1 2.5,0Z" style="opacity: 1; stroke-width: 0px; fill: rgb(116, 77, 112); fill-opacity: 1;"/><path class="point" transform="translate(629.68,225.29)" d="M2.5,0A2.5,2.5 0 1,1 0,-2.5A2.5,2.5 0 0,1 2.5,0Z" style="opacity: 1; stroke-width: 0px; fill: rgb(116, 77, 112); fill-opacity: 1;"/><path class="point" transform="translate(636.5,222.56)" d="M2.5,0A2.5,2.5 0 1,1 0,-2.5A2.5,2.5 0 0,1 2.5,0Z" style="opacity: 1; stroke-width: 0px; fill: rgb(116, 77, 112); fill-opacity: 1;"/><path class="point" transform="translate(637.94,224.64)" d="M2.5,0A2.5,2.5 0 1,1 0,-2.5A2.5,2.5 0 0,1 2.5,0Z" style="opacity: 1; stroke-width: 0px; fill: rgb(116, 77, 112); fill-opacity: 1;"/><path class="point" transform="translate(638.8,220.91)" d="M2.5,0A2.5,2.5 0 1,1 0,-2.5A2.5,2.5 0 0,1 2.5,0Z" style="opacity: 1; stroke-width: 0px; fill: rgb(116, 77, 112); fill-opacity: 1;"/><path class="point" transform="translate(655.99,227.45)" d="M2.5,0A2.5,2.5 0 1,1 0,-2.5A2.5,2.5 0 0,1 2.5,0Z" style="opacity: 1; stroke-width: 0px; fill: rgb(116, 77, 112); fill-opacity: 1;"/><path class="point" transform="translate(659.16,226.35)" d="M2.5,0A2.5,2.5 0 1,1 0,-2.5A2.5,2.5 0 0,1 2.5,0Z" style="opacity: 1; stroke-width: 0px; fill: rgb(116, 77, 112); fill-opacity: 1;"/><path class="point" transform="translate(661.47,218.66)" d="M2.5,0A2.5,2.5 0 1,1 0,-2.5A2.5,2.5 0 0,1 2.5,0Z" style="opacity: 1; stroke-width: 0px; fill: rgb(116, 77, 112); fill-opacity: 1;"/><path class="point" transform="translate(663.87,224.65)" d="M2.5,0A2.5,2.5 0 1,1 0,-2.5A2.5,2.5 0 0,1 2.5,0Z" style="opacity: 1; stroke-width: 0px; fill: rgb(116, 77, 112); fill-opacity: 1;"/><path class="point" transform="translate(665.69,227.61)" d="M2.5,0A2.5,2.5 0 1,1 0,-2.5A2.5,2.5 0 0,1 2.5,0Z" style="opacity: 1; stroke-width: 0px; fill: rgb(116, 77, 112); fill-opacity: 1;"/><path class="point" transform="translate(665.98,225.36)" d="M2.5,0A2.5,2.5 0 1,1 0,-2.5A2.5,2.5 0 0,1 2.5,0Z" style="opacity: 1; stroke-width: 0px; fill: rgb(116, 77, 112); fill-opacity: 1;"/><path class="point" transform="translate(671.65,223.53)" d="M2.5,0A2.5,2.5 0 1,1 0,-2.5A2.5,2.5 0 0,1 2.5,0Z" style="opacity: 1; stroke-width: 0px; fill: rgb(116, 77, 112); fill-opacity: 1;"/><path class="point" transform="translate(674.33,220.79)" d="M2.5,0A2.5,2.5 0 1,1 0,-2.5A2.5,2.5 0 0,1 2.5,0Z" style="opacity: 1; stroke-width: 0px; fill: rgb(116, 77, 112); fill-opacity: 1;"/><path class="point" transform="translate(681.92,222.77)" d="M2.5,0A2.5,2.5 0 1,1 0,-2.5A2.5,2.5 0 0,1 2.5,0Z" style="opacity: 1; stroke-width: 0px; fill: rgb(116, 77, 112); fill-opacity: 1;"/><path class="point" transform="translate(684.03,224.94)" d="M2.5,0A2.5,2.5 0 1,1 0,-2.5A2.5,2.5 0 0,1 2.5,0Z" style="opacity: 1; stroke-width: 0px; fill: rgb(116, 77, 112); fill-opacity: 1;"/></g></g><g class="trace violins" style="opacity: 1;"><path class="violin" d="M-17.66,199.75L-17.66,199.45Q-11.12,199.29 -7.85,199.19C-4.58,199.09 -1.32,198.96 1.95,198.83C5.22,198.7 8.49,198.54 11.76,198.39C15.03,198.25 18.29,198.09 21.56,197.96C24.83,197.83 28.1,197.71 31.37,197.63C34.64,197.56 37.9,197.51 41.17,197.51C44.44,197.51 47.7,197.56 50.97,197.63C54.24,197.7 57.51,197.82 60.78,197.95C64.05,198.07 67.31,198.24 70.58,198.38C73.85,198.53 77.12,198.69 80.39,198.82C83.66,198.95 86.92,199.08 90.19,199.18C93.46,199.28 96.73,199.37 100,199.44C103.27,199.51 106.53,199.56 109.8,199.6C113.07,199.64 116.34,199.66 119.61,199.68C122.88,199.7 126.14,199.71 129.41,199.72C132.68,199.73 135.95,199.73 139.22,199.74C142.49,199.74 145.75,199.75 149.02,199.75C152.29,199.75 155.56,199.75 158.83,199.75C162.1,199.75 165.36,199.75 168.63,199.75C171.9,199.75 175.17,199.75 178.44,199.75C181.71,199.75 184.97,199.75 188.24,199.75C191.51,199.75 194.77,199.75 198.04,199.75C201.31,199.75 204.58,199.75 207.85,199.75C211.12,199.75 214.38,199.75 217.65,199.75C220.92,199.75 224.19,199.75 227.46,199.75C230.73,199.75 233.99,199.75 237.26,199.75C240.53,199.75 243.8,199.75 247.07,199.75C250.34,199.75 253.6,199.75 256.87,199.75C260.14,199.75 263.41,199.75 266.68,199.75C269.95,199.75 273.21,199.75 276.48,199.75C279.75,199.75 283.02,199.75 286.29,199.75C289.56,199.75 292.82,199.75 296.09,199.75C299.36,199.75 302.63,199.75 305.9,199.75C309.17,199.75 312.43,199.75 315.7,199.75C318.97,199.75 322.24,199.75 325.51,199.75C328.78,199.75 332.04,199.75 335.31,199.75C338.58,199.75 341.84,199.74 345.11,199.74C348.38,199.73 351.65,199.73 354.92,199.72C358.19,199.71 361.45,199.69 364.72,199.66C367.99,199.63 371.26,199.59 374.53,199.53C377.8,199.47 381.06,199.39 384.33,199.28C387.6,199.17 390.87,199.03 394.14,198.85C397.41,198.67 400.67,198.45 403.94,198.2C407.21,197.95 410.48,197.66 413.75,197.37C417.02,197.08 420.28,196.75 423.55,196.48C426.82,196.21 430.09,195.93 433.36,195.73C436.63,195.54 439.89,195.37 443.16,195.31C446.43,195.25 449.7,195.28 452.97,195.37C456.24,195.46 459.5,195.65 462.77,195.87C466.04,196.09 469.31,196.39 472.58,196.67C475.85,196.95 479.11,197.27 482.38,197.54C485.65,197.81 488.91,198.08 492.18,198.29C495.45,198.5 498.72,198.67 501.99,198.78C505.26,198.89 508.52,198.95 511.79,198.94C515.06,198.93 518.33,198.86 521.6,198.71C524.87,198.56 528.14,198.35 531.4,198.05C534.67,197.75 537.95,197.37 541.21,196.91C544.48,196.45 547.75,195.91 551.01,195.31C554.28,194.71 557.55,194.03 560.82,193.33C564.09,192.63 567.35,191.86 570.62,191.13C573.89,190.4 577.16,189.64 580.43,188.94C583.69,188.24 586.96,187.56 590.23,186.91C593.5,186.26 596.77,185.66 600.04,185.03C603.31,184.4 606.58,183.81 609.84,183.12C613.11,182.43 616.38,181.71 619.64,180.89C622.92,180.06 626.19,179.13 629.45,178.16C632.73,177.19 635.98,176.07 639.25,175.07C642.51,174.07 645.77,172.97 649.06,172.17C652.31,171.38 655.58,170.62 658.86,170.29C662.11,169.96 665.42,169.87 668.67,170.18C671.95,170.49 675.24,171.22 678.47,172.17C681.78,173.14 685.04,174.54 688.28,175.97C691.58,177.43 694.82,179.2 698.08,180.85C701.36,182.51 704.6,184.32 707.89,185.92C711.14,187.5 714.39,189.07 717.69,190.42C720.93,191.75 724.21,192.95 727.5,193.96C730.74,194.95 734.02,195.76 737.3,196.44C740.55,197.11 743.83,197.6 747.11,198.01Q750.37,198.42 756.91,198.91L756.91,199.75" style="vector-effect: non-scaling-stroke; stroke-width: 2px; stroke: rgb(132, 73, 99); stroke-opacity: 1; fill: rgb(132, 73, 99); fill-opacity: 0.5;"/><g class="points"><path class="point" transform="translate(41.29,193.38)" d="M2.5,0A2.5,2.5 0 1,1 0,-2.5A2.5,2.5 0 0,1 2.5,0Z" style="opacity: 1; stroke-width: 0px; fill: rgb(132, 73, 99); fill-opacity: 1;"/><path class="point" transform="translate(444.92,194.44)" d="M2.5,0A2.5,2.5 0 1,1 0,-2.5A2.5,2.5 0 0,1 2.5,0Z" style="opacity: 1; stroke-width: 0px; fill: rgb(132, 73, 99); fill-opacity: 1;"/><path class="point" transform="translate(449.04,193.04)" d="M2.5,0A2.5,2.5 0 1,1 0,-2.5A2.5,2.5 0 0,1 2.5,0Z" style="opacity: 1; stroke-width: 0px; fill: rgb(132, 73, 99); fill-opacity: 1;"/><path class="point" transform="translate(577.34,194.76)" d="M2.5,0A2.5,2.5 0 1,1 0,-2.5A2.5,2.5 0 0,1 2.5,0Z" style="opacity: 1; stroke-width: 0px; fill: rgb(132, 73, 99); fill-opacity: 1;"/><path class="point" transform="translate(579.07,194.11)" d="M2.5,0A2.5,2.5 0 1,1 0,-2.5A2.5,2.5 0 0,1 2.5,0Z" style="opacity: 1; stroke-width: 0px; fill: rgb(132, 73, 99); fill-opacity: 1;"/><path class="point" transform="translate(598.47,193.22)" d="M2.5,0A2.5,2.5 0 1,1 0,-2.5A2.5,2.5 0 0,1 2.5,0Z" style="opacity: 1; stroke-width: 0px; fill: rgb(132, 73, 99); fill-opacity: 1;"/><path class="point" transform="translate(603.66,193.91)" d="M2.5,0A2.5,2.5 0 1,1 0,-2.5A2.5,2.5 0 0,1 2.5,0Z" style="opacity: 1; stroke-width: 0px; fill: rgb(132, 73, 99); fill-opacity: 1;"/><path class="point" transform="translate(613.45,193.25)" d="M2.5,0A2.5,2.5 0 1,1 0,-2.5A2.5,2.5 0 0,1 2.5,0Z" style="opacity: 1; stroke-width: 0px; fill: rgb(132, 73, 99); fill-opacity: 1;"/><path class="point" transform="translate(618.64,194.84)" d="M2.5,0A2.5,2.5 0 1,1 0,-2.5A2.5,2.5 0 0,1 2.5,0Z" style="opacity: 1; stroke-width: 0px; fill: rgb(132, 73, 99); fill-opacity: 1;"/><path class="point" transform="translate(643.22,196.14)" d="M2.5,0A2.5,2.5 0 1,1 0,-2.5A2.5,2.5 0 0,1 2.5,0Z" style="opacity: 1; stroke-width: 0px; fill: rgb(132, 73, 99); fill-opacity: 1;"/><path class="point" transform="translate(653.4,192.9)" d="M2.5,0A2.5,2.5 0 1,1 0,-2.5A2.5,2.5 0 0,1 2.5,0Z" style="opacity: 1; stroke-width: 0px; fill: rgb(132, 73, 99); fill-opacity: 1;"/><path class="point" transform="translate(657.24,195.02)" d="M2.5,0A2.5,2.5 0 1,1 0,-2.5A2.5,2.5 0 0,1 2.5,0Z" style="opacity: 1; stroke-width: 0px; fill: rgb(132, 73, 99); fill-opacity: 1;"/><path class="point" transform="translate(658.39,191.38)" d="M2.5,0A2.5,2.5 0 1,1 0,-2.5A2.5,2.5 0 0,1 2.5,0Z" style="opacity: 1; stroke-width: 0px; fill: rgb(132, 73, 99); fill-opacity: 1;"/><path class="point" transform="translate(663.96,197.71)" d="M2.5,0A2.5,2.5 0 1,1 0,-2.5A2.5,2.5 0 0,1 2.5,0Z" style="opacity: 1; stroke-width: 0px; fill: rgb(132, 73, 99); fill-opacity: 1;"/><path class="point" transform="translate(665.4,196.9)" d="M2.5,0A2.5,2.5 0 1,1 0,-2.5A2.5,2.5 0 0,1 2.5,0Z" style="opacity: 1; stroke-width: 0px; fill: rgb(132, 73, 99); fill-opacity: 1;"/><path class="point" transform="translate(668.38,188.61)" d="M2.5,0A2.5,2.5 0 1,1 0,-2.5A2.5,2.5 0 0,1 2.5,0Z" style="opacity: 1; stroke-width: 0px; fill: rgb(132, 73, 99); fill-opacity: 1;"/><path class="point" transform="translate(669.34,195.02)" d="M2.5,0A2.5,2.5 0 1,1 0,-2.5A2.5,2.5 0 0,1 2.5,0Z" style="opacity: 1; stroke-width: 0px; fill: rgb(132, 73, 99); fill-opacity: 1;"/><path class="point" transform="translate(670.3,197.82)" d="M2.5,0A2.5,2.5 0 1,1 0,-2.5A2.5,2.5 0 0,1 2.5,0Z" style="opacity: 1; stroke-width: 0px; fill: rgb(132, 73, 99); fill-opacity: 1;"/><path class="point" transform="translate(672.41,195.41)" d="M2.5,0A2.5,2.5 0 1,1 0,-2.5A2.5,2.5 0 0,1 2.5,0Z" style="opacity: 1; stroke-width: 0px; fill: rgb(132, 73, 99); fill-opacity: 1;"/><path class="point" transform="translate(673.66,193.93)" d="M2.5,0A2.5,2.5 0 1,1 0,-2.5A2.5,2.5 0 0,1 2.5,0Z" style="opacity: 1; stroke-width: 0px; fill: rgb(132, 73, 99); fill-opacity: 1;"/><path class="point" transform="translate(677.79,191.82)" d="M2.5,0A2.5,2.5 0 1,1 0,-2.5A2.5,2.5 0 0,1 2.5,0Z" style="opacity: 1; stroke-width: 0px; fill: rgb(132, 73, 99); fill-opacity: 1;"/><path class="point" transform="translate(695.46,193.37)" d="M2.5,0A2.5,2.5 0 1,1 0,-2.5A2.5,2.5 0 0,1 2.5,0Z" style="opacity: 1; stroke-width: 0px; fill: rgb(132, 73, 99); fill-opacity: 1;"/><path class="point" transform="translate(697.96,194.94)" d="M2.5,0A2.5,2.5 0 1,1 0,-2.5A2.5,2.5 0 0,1 2.5,0Z" style="opacity: 1; stroke-width: 0px; fill: rgb(132, 73, 99); fill-opacity: 1;"/></g></g><g class="trace violins" style="opacity: 1;"><path class="violin" d="M292.05,170.18L292.05,169.83Q294.77,169.65 296.13,169.53C297.49,169.41 298.84,169.26 300.2,169.1C301.56,168.94 302.92,168.76 304.28,168.59C305.64,168.42 306.99,168.23 308.35,168.08C309.71,167.93 311.07,167.78 312.43,167.69C313.79,167.6 315.14,167.54 316.5,167.54C317.86,167.54 319.22,167.6 320.58,167.68C321.94,167.77 323.29,167.9 324.65,168.05C326.01,168.2 327.36,168.39 328.72,168.56C330.08,168.73 331.44,168.91 332.8,169.07C334.16,169.23 335.51,169.39 336.87,169.51C338.23,169.63 339.59,169.73 340.95,169.81C342.31,169.89 343.66,169.95 345.02,170C346.38,170.05 347.74,170.07 349.1,170.1C350.46,170.12 351.81,170.14 353.17,170.15C354.53,170.16 355.89,170.16 357.25,170.17C358.61,170.17 359.96,170.18 361.32,170.18C362.68,170.18 364.04,170.18 365.4,170.18C366.76,170.18 368.11,170.18 369.47,170.18C370.83,170.18 372.19,170.18 373.55,170.18C374.91,170.18 376.26,170.18 377.62,170.18C378.98,170.18 380.33,170.18 381.69,170.18C383.05,170.18 384.41,170.18 385.77,170.18C387.13,170.18 388.48,170.18 389.84,170.18C391.2,170.18 392.56,170.18 393.92,170.18C395.28,170.18 396.63,170.18 397.99,170.18C399.35,170.18 400.71,170.18 402.07,170.18C403.43,170.18 404.78,170.18 406.14,170.18C407.5,170.18 408.86,170.18 410.22,170.18C411.58,170.18 412.93,170.18 414.29,170.18C415.65,170.18 417.01,170.18 418.37,170.18C419.73,170.18 421.08,170.18 422.44,170.18C423.8,170.18 425.16,170.18 426.52,170.18C427.88,170.18 429.23,170.18 430.59,170.18C431.95,170.18 433.3,170.18 434.66,170.18C436.02,170.18 437.38,170.18 438.74,170.18C440.1,170.18 441.45,170.18 442.81,170.18C444.17,170.18 445.53,170.18 446.89,170.18C448.25,170.18 449.6,170.18 450.96,170.17C452.32,170.16 453.68,170.16 455.04,170.14C456.4,170.12 457.75,170.1 459.11,170.07C460.47,170.04 461.83,170.01 463.19,169.95C464.55,169.89 465.9,169.82 467.26,169.72C468.62,169.62 469.98,169.51 471.34,169.37C472.7,169.23 474.05,169.07 475.41,168.9C476.77,168.73 478.13,168.54 479.49,168.37C480.85,168.2 482.2,168.03 483.56,167.9C484.92,167.77 486.27,167.66 487.63,167.6C488.99,167.54 490.35,167.52 491.71,167.56C493.07,167.6 494.42,167.7 495.78,167.81C497.14,167.93 498.5,168.09 499.86,168.25C501.22,168.41 502.57,168.61 503.93,168.78C505.29,168.95 506.65,169.12 508.01,169.26C509.37,169.4 510.72,169.54 512.08,169.64C513.44,169.74 514.8,169.82 516.16,169.88C517.52,169.94 518.87,169.96 520.23,169.98C521.59,170 522.95,169.99 524.31,169.97C525.67,169.95 527.02,169.91 528.38,169.84C529.74,169.77 531.1,169.68 532.46,169.57C533.82,169.46 535.17,169.32 536.53,169.17C537.89,169.02 539.24,168.83 540.6,168.66C541.96,168.49 543.32,168.31 544.68,168.15C546.04,168 547.39,167.83 548.75,167.73C550.11,167.63 551.47,167.56 552.83,167.55C554.19,167.54 555.54,167.57 556.9,167.64C558.26,167.71 559.62,167.85 560.98,167.99C562.34,168.13 563.69,168.31 565.05,168.48C566.41,168.65 567.77,168.84 569.13,169C570.49,169.16 571.84,169.32 573.2,169.45C574.56,169.58 575.92,169.68 577.28,169.77C578.64,169.86 579.99,169.92 581.35,169.97C582.71,170.02 584.07,170.05 585.43,170.07C586.79,170.09 588.14,170.1 589.5,170.1C590.86,170.1 592.21,170.08 593.57,170.05C594.93,170.02 596.29,169.98 597.65,169.92C599.01,169.86 600.36,169.78 601.72,169.68C603.08,169.58 604.44,169.45 605.8,169.31C607.16,169.17 608.51,168.99 609.87,168.82C611.23,168.65 612.59,168.45 613.95,168.27C615.31,168.09 616.66,167.91 618.02,167.75C619.38,167.59 620.74,167.45 622.1,167.33C623.46,167.21 624.81,167.13 626.17,167.03C627.53,166.93 628.89,166.86 630.25,166.73C631.61,166.6 632.97,166.46 634.32,166.23C635.68,165.99 637.04,165.71 638.39,165.32C639.76,164.92 641.13,164.42 642.47,163.84C643.84,163.25 645.2,162.55 646.54,161.8C647.92,161.03 649.27,160.16 650.62,159.27C651.99,158.36 653.34,157.39 654.69,156.4C656.06,155.4 657.42,154.34 658.77,153.29C660.13,152.23 661.48,151.13 662.84,150.05C664.2,148.98 665.55,147.87 666.92,146.84C668.27,145.83 669.61,144.8 670.99,143.94C672.32,143.11 673.68,142.3 675.07,141.74C676.4,141.21 677.77,140.78 679.14,140.62C680.49,140.47 681.88,140.53 683.22,140.79C684.6,141.06 685.97,141.62 687.29,142.26C688.68,142.94 690.03,143.86 691.36,144.8C692.75,145.78 694.09,146.92 695.44,148.04C696.81,149.18 698.15,150.41 699.51,151.59C700.87,152.77 702.22,153.99 703.59,155.13C704.94,156.25 706.28,157.37 707.66,158.38C709,159.36 710.36,160.29 711.74,161.11C713.08,161.9 714.43,162.62 715.81,163.23C717.15,163.82 718.52,164.31 719.89,164.74C721.24,165.16 722.6,165.47 723.96,165.77C725.31,166.07 726.68,166.3 728.04,166.54C729.4,166.78 730.75,166.99 732.11,167.21C733.47,167.43 734.83,167.65 736.19,167.87C737.55,168.09 738.9,168.31 740.26,168.51C741.62,168.71 742.97,168.9 744.33,169.07C745.69,169.24 747.05,169.39 748.41,169.52Q749.77,169.64 752.48,169.82L752.48,170.18" style="vector-effect: non-scaling-stroke; stroke-width: 2px; stroke: rgb(149, 68, 87); stroke-opacity: 1; fill: rgb(149, 68, 87); fill-opacity: 0.5;"/><g class="points"><path class="point" transform="translate(316.62,163.77)" d="M2.5,0A2.5,2.5 0 1,1 0,-2.5A2.5,2.5 0 0,1 2.5,0Z" style="opacity: 1; stroke-width: 0px; fill: rgb(149, 68, 87); fill-opacity: 1;"/><path class="point" transform="translate(490.15,164.94)" d="M2.5,0A2.5,2.5 0 1,1 0,-2.5A2.5,2.5 0 0,1 2.5,0Z" style="opacity: 1; stroke-width: 0px; fill: rgb(149, 68, 87); fill-opacity: 1;"/><path class="point" transform="translate(553.53,163.4)" d="M2.5,0A2.5,2.5 0 1,1 0,-2.5A2.5,2.5 0 0,1 2.5,0Z" style="opacity: 1; stroke-width: 0px; fill: rgb(149, 68, 87); fill-opacity: 1;"/><path class="point" transform="translate(624.11,165.28)" d="M2.5,0A2.5,2.5 0 1,1 0,-2.5A2.5,2.5 0 0,1 2.5,0Z" style="opacity: 1; stroke-width: 0px; fill: rgb(149, 68, 87); fill-opacity: 1;"/><path class="point" transform="translate(652.25,164.58)" d="M2.5,0A2.5,2.5 0 1,1 0,-2.5A2.5,2.5 0 0,1 2.5,0Z" style="opacity: 1; stroke-width: 0px; fill: rgb(149, 68, 87); fill-opacity: 1;"/><path class="point" transform="translate(654.46,163.57)" d="M2.5,0A2.5,2.5 0 1,1 0,-2.5A2.5,2.5 0 0,1 2.5,0Z" style="opacity: 1; stroke-width: 0px; fill: rgb(149, 68, 87); fill-opacity: 1;"/><path class="point" transform="translate(659.35,164.34)" d="M2.5,0A2.5,2.5 0 1,1 0,-2.5A2.5,2.5 0 0,1 2.5,0Z" style="opacity: 1; stroke-width: 0px; fill: rgb(149, 68, 87); fill-opacity: 1;"/><path class="point" transform="translate(667.13,163.63)" d="M2.5,0A2.5,2.5 0 1,1 0,-2.5A2.5,2.5 0 0,1 2.5,0Z" style="opacity: 1; stroke-width: 0px; fill: rgb(149, 68, 87); fill-opacity: 1;"/><path class="point" transform="translate(671.36,165.31)" d="M2.5,0A2.5,2.5 0 1,1 0,-2.5A2.5,2.5 0 0,1 2.5,0Z" style="opacity: 1; stroke-width: 0px; fill: rgb(149, 68, 87); fill-opacity: 1;"/><path class="point" transform="translate(673.47,167.5)" d="M2.5,0A2.5,2.5 0 1,1 0,-2.5A2.5,2.5 0 0,1 2.5,0Z" style="opacity: 1; stroke-width: 0px; fill: rgb(149, 68, 87); fill-opacity: 1;"/><path class="point" transform="translate(673.57,163.05)" d="M2.5,0A2.5,2.5 0 1,1 0,-2.5A2.5,2.5 0 0,1 2.5,0Z" style="opacity: 1; stroke-width: 0px; fill: rgb(149, 68, 87); fill-opacity: 1;"/><path class="point" transform="translate(673.95,165.91)" d="M2.5,0A2.5,2.5 0 1,1 0,-2.5A2.5,2.5 0 0,1 2.5,0Z" style="opacity: 1; stroke-width: 0px; fill: rgb(149, 68, 87); fill-opacity: 1;"/><path class="point" transform="translate(681.83,160.52)" d="M2.5,0A2.5,2.5 0 1,1 0,-2.5A2.5,2.5 0 0,1 2.5,0Z" style="opacity: 1; stroke-width: 0px; fill: rgb(149, 68, 87); fill-opacity: 1;"/><path class="point" transform="translate(683.65,169.16)" d="M2.5,0A2.5,2.5 0 1,1 0,-2.5A2.5,2.5 0 0,1 2.5,0Z" style="opacity: 1; stroke-width: 0px; fill: rgb(149, 68, 87); fill-opacity: 1;"/><path class="point" transform="translate(684.61,167.19)" d="M2.5,0A2.5,2.5 0 1,1 0,-2.5A2.5,2.5 0 0,1 2.5,0Z" style="opacity: 1; stroke-width: 0px; fill: rgb(149, 68, 87); fill-opacity: 1;"/><path class="point" transform="translate(684.61,159.89)" d="M2.5,0A2.5,2.5 0 1,1 0,-2.5A2.5,2.5 0 0,1 2.5,0Z" style="opacity: 1; stroke-width: 0px; fill: rgb(149, 68, 87); fill-opacity: 1;"/><path class="point" transform="translate(684.61,165.37)" d="M2.5,0A2.5,2.5 0 1,1 0,-2.5A2.5,2.5 0 0,1 2.5,0Z" style="opacity: 1; stroke-width: 0px; fill: rgb(149, 68, 87); fill-opacity: 1;"/><path class="point" transform="translate(685.09,167.44)" d="M2.5,0A2.5,2.5 0 1,1 0,-2.5A2.5,2.5 0 0,1 2.5,0Z" style="opacity: 1; stroke-width: 0px; fill: rgb(149, 68, 87); fill-opacity: 1;"/><path class="point" transform="translate(696.23,165.45)" d="M2.5,0A2.5,2.5 0 1,1 0,-2.5A2.5,2.5 0 0,1 2.5,0Z" style="opacity: 1; stroke-width: 0px; fill: rgb(149, 68, 87); fill-opacity: 1;"/><path class="point" transform="translate(698.15,164.34)" d="M2.5,0A2.5,2.5 0 1,1 0,-2.5A2.5,2.5 0 0,1 2.5,0Z" style="opacity: 1; stroke-width: 0px; fill: rgb(149, 68, 87); fill-opacity: 1;"/><path class="point" transform="translate(699.21,162.84)" d="M2.5,0A2.5,2.5 0 1,1 0,-2.5A2.5,2.5 0 0,1 2.5,0Z" style="opacity: 1; stroke-width: 0px; fill: rgb(149, 68, 87); fill-opacity: 1;"/><path class="point" transform="translate(706.6,163.94)" d="M2.5,0A2.5,2.5 0 1,1 0,-2.5A2.5,2.5 0 0,1 2.5,0Z" style="opacity: 1; stroke-width: 0px; fill: rgb(149, 68, 87); fill-opacity: 1;"/><path class="point" transform="translate(727.92,165.03)" d="M2.5,0A2.5,2.5 0 1,1 0,-2.5A2.5,2.5 0 0,1 2.5,0Z" style="opacity: 1; stroke-width: 0px; fill: rgb(149, 68, 87); fill-opacity: 1;"/></g></g><g class="trace violins" style="opacity: 1;"><path class="violin" d="M664.4,140.62L664.4,140.03Q669.86,139.7 672.59,139.42C675.32,139.14 678.06,138.82 680.78,138.37C683.52,137.92 686.25,137.39 688.97,136.73C691.71,136.07 694.45,135.29 697.16,134.41C699.91,133.52 702.64,132.5 705.35,131.41C708.1,130.31 710.82,129.07 713.54,127.82C716.28,126.56 719,125.2 721.73,123.88C724.46,122.56 727.18,121.17 729.92,119.89C732.64,118.62 735.36,117.35 738.11,116.25C740.82,115.17 743.55,114.13 746.3,113.34C749.01,112.56 751.74,111.91 754.49,111.53C757.21,111.15 759.95,110.99 762.68,111.05C765.41,111.11 768.16,111.44 770.87,111.91C773.62,112.38 776.35,113.11 779.06,113.88C781.81,114.66 784.53,115.64 787.25,116.58C789.99,117.53 792.71,118.57 795.44,119.56C798.17,120.55 800.89,121.56 803.63,122.5C806.35,123.44 809.08,124.35 811.82,125.21C814.54,126.06 817.28,126.86 820.01,127.62C822.73,128.38 825.46,129.08 828.19,129.77C830.92,130.46 833.65,131.11 836.38,131.74C839.11,132.37 841.84,132.98 844.57,133.56C847.3,134.14 850.03,134.7 852.76,135.21C855.49,135.71 858.22,136.19 860.95,136.59C863.68,136.99 866.41,137.33 869.14,137.6C871.87,137.86 874.6,138.05 877.33,138.18C880.06,138.31 882.79,138.34 885.52,138.36C888.25,138.38 890.98,138.33 893.71,138.29C896.44,138.25 899.17,138.17 901.9,138.14C904.63,138.11 907.36,138.08 910.09,138.1C912.82,138.12 915.55,138.17 918.28,138.25C921.01,138.33 923.74,138.46 926.47,138.59C929.2,138.72 931.93,138.89 934.66,139.04C937.39,139.19 940.12,139.35 942.85,139.48C945.58,139.6 948.31,139.72 951.04,139.79C953.77,139.86 956.5,139.9 959.23,139.9C961.96,139.9 964.69,139.86 967.42,139.79C970.15,139.72 972.88,139.61 975.61,139.48C978.34,139.35 981.07,139.17 983.8,139C986.53,138.83 989.26,138.63 991.99,138.45C994.72,138.27 997.45,138.09 1000.18,137.93C1002.91,137.77 1005.64,137.63 1008.37,137.51C1011.1,137.4 1013.83,137.31 1016.56,137.24C1019.29,137.17 1022.02,137.13 1024.75,137.11C1027.48,137.09 1030.21,137.1 1032.94,137.12C1035.67,137.14 1038.4,137.19 1041.13,137.26C1043.86,137.33 1046.58,137.42 1049.31,137.54C1052.04,137.66 1054.77,137.81 1057.5,137.97C1060.23,138.13 1062.96,138.33 1065.69,138.51C1068.42,138.69 1071.15,138.89 1073.88,139.07C1076.61,139.25 1079.34,139.43 1082.07,139.59C1084.8,139.74 1087.53,139.88 1090.26,140Q1092.99,140.11 1098.45,140.28L1098.45,140.62" style="vector-effect: non-scaling-stroke; stroke-width: 2px; stroke: rgb(165, 63, 75); stroke-opacity: 1; fill: rgb(165, 63, 75); fill-opacity: 0.5;"/><g class="points"><path class="point" transform="translate(714.09,132.45)" d="M2.5,0A2.5,2.5 0 1,1 0,-2.5A2.5,2.5 0 0,1 2.5,0Z" style="opacity: 1; stroke-width: 0px; fill: rgb(165, 63, 75); fill-opacity: 1;"/><path class="point" transform="translate(725.9,137.63)" d="M2.5,0A2.5,2.5 0 1,1 0,-2.5A2.5,2.5 0 0,1 2.5,0Z" style="opacity: 1; stroke-width: 0px; fill: rgb(165, 63, 75); fill-opacity: 1;"/><path class="point" transform="translate(730.51,131.27)" d="M2.5,0A2.5,2.5 0 1,1 0,-2.5A2.5,2.5 0 0,1 2.5,0Z" style="opacity: 1; stroke-width: 0px; fill: rgb(165, 63, 75); fill-opacity: 1;"/><path class="point" transform="translate(736.28,138.68)" d="M2.5,0A2.5,2.5 0 1,1 0,-2.5A2.5,2.5 0 0,1 2.5,0Z" style="opacity: 1; stroke-width: 0px; fill: rgb(165, 63, 75); fill-opacity: 1;"/><path class="point" transform="translate(743.09,135.89)" d="M2.5,0A2.5,2.5 0 1,1 0,-2.5A2.5,2.5 0 0,1 2.5,0Z" style="opacity: 1; stroke-width: 0px; fill: rgb(165, 63, 75); fill-opacity: 1;"/><path class="point" transform="translate(748.95,132.1)" d="M2.5,0A2.5,2.5 0 1,1 0,-2.5A2.5,2.5 0 0,1 2.5,0Z" style="opacity: 1; stroke-width: 0px; fill: rgb(165, 63, 75); fill-opacity: 1;"/><path class="point" transform="translate(751.54,134.91)" d="M2.5,0A2.5,2.5 0 1,1 0,-2.5A2.5,2.5 0 0,1 2.5,0Z" style="opacity: 1; stroke-width: 0px; fill: rgb(165, 63, 75); fill-opacity: 1;"/><path class="point" transform="translate(761.34,133.08)" d="M2.5,0A2.5,2.5 0 1,1 0,-2.5A2.5,2.5 0 0,1 2.5,0Z" style="opacity: 1; stroke-width: 0px; fill: rgb(165, 63, 75); fill-opacity: 1;"/><path class="point" transform="translate(761.92,136.59)" d="M2.5,0A2.5,2.5 0 1,1 0,-2.5A2.5,2.5 0 0,1 2.5,0Z" style="opacity: 1; stroke-width: 0px; fill: rgb(165, 63, 75); fill-opacity: 1;"/><path class="point" transform="translate(765.18,138.41)" d="M2.5,0A2.5,2.5 0 1,1 0,-2.5A2.5,2.5 0 0,1 2.5,0Z" style="opacity: 1; stroke-width: 0px; fill: rgb(165, 63, 75); fill-opacity: 1;"/><path class="point" transform="translate(767.58,133.3)" d="M2.5,0A2.5,2.5 0 1,1 0,-2.5A2.5,2.5 0 0,1 2.5,0Z" style="opacity: 1; stroke-width: 0px; fill: rgb(165, 63, 75); fill-opacity: 1;"/><path class="point" transform="translate(767.87,136.44)" d="M2.5,0A2.5,2.5 0 1,1 0,-2.5A2.5,2.5 0 0,1 2.5,0Z" style="opacity: 1; stroke-width: 0px; fill: rgb(165, 63, 75); fill-opacity: 1;"/><path class="point" transform="translate(772.86,131.47)" d="M2.5,0A2.5,2.5 0 1,1 0,-2.5A2.5,2.5 0 0,1 2.5,0Z" style="opacity: 1; stroke-width: 0px; fill: rgb(165, 63, 75); fill-opacity: 1;"/><path class="point" transform="translate(774.02,138.91)" d="M2.5,0A2.5,2.5 0 1,1 0,-2.5A2.5,2.5 0 0,1 2.5,0Z" style="opacity: 1; stroke-width: 0px; fill: rgb(165, 63, 75); fill-opacity: 1;"/><path class="point" transform="translate(794.76,137.12)" d="M2.5,0A2.5,2.5 0 1,1 0,-2.5A2.5,2.5 0 0,1 2.5,0Z" style="opacity: 1; stroke-width: 0px; fill: rgb(165, 63, 75); fill-opacity: 1;"/><path class="point" transform="translate(797.06,132.02)" d="M2.5,0A2.5,2.5 0 1,1 0,-2.5A2.5,2.5 0 0,1 2.5,0Z" style="opacity: 1; stroke-width: 0px; fill: rgb(165, 63, 75); fill-opacity: 1;"/><path class="point" transform="translate(798.98,135.29)" d="M2.5,0A2.5,2.5 0 1,1 0,-2.5A2.5,2.5 0 0,1 2.5,0Z" style="opacity: 1; stroke-width: 0px; fill: rgb(165, 63, 75); fill-opacity: 1;"/><path class="point" transform="translate(812.14,136.58)" d="M2.5,0A2.5,2.5 0 1,1 0,-2.5A2.5,2.5 0 0,1 2.5,0Z" style="opacity: 1; stroke-width: 0px; fill: rgb(165, 63, 75); fill-opacity: 1;"/><path class="point" transform="translate(832.6,135.39)" d="M2.5,0A2.5,2.5 0 1,1 0,-2.5A2.5,2.5 0 0,1 2.5,0Z" style="opacity: 1; stroke-width: 0px; fill: rgb(165, 63, 75); fill-opacity: 1;"/><path class="point" transform="translate(841.05,134.75)" d="M2.5,0A2.5,2.5 0 1,1 0,-2.5A2.5,2.5 0 0,1 2.5,0Z" style="opacity: 1; stroke-width: 0px; fill: rgb(165, 63, 75); fill-opacity: 1;"/><path class="point" transform="translate(910.77,133.84)" d="M2.5,0A2.5,2.5 0 1,1 0,-2.5A2.5,2.5 0 0,1 2.5,0Z" style="opacity: 1; stroke-width: 0px; fill: rgb(165, 63, 75); fill-opacity: 1;"/><path class="point" transform="translate(1008.33,134.51)" d="M2.5,0A2.5,2.5 0 1,1 0,-2.5A2.5,2.5 0 0,1 2.5,0Z" style="opacity: 1; stroke-width: 0px; fill: rgb(165, 63, 75); fill-opacity: 1;"/><path class="point" transform="translate(1048.76,135.17)" d="M2.5,0A2.5,2.5 0 1,1 0,-2.5A2.5,2.5 0 0,1 2.5,0Z" style="opacity: 1; stroke-width: 0px; fill: rgb(165, 63, 75); fill-opacity: 1;"/></g></g><g class="trace violins" style="opacity: 1;"><path class="violin" d="M660.28,111.05L660.28,110.29Q666.72,109.84 669.93,109.46C673.15,109.08 676.38,108.62 679.58,108C682.81,107.37 686.03,106.61 689.23,105.7C692.47,104.77 695.69,103.68 698.88,102.47C702.12,101.24 705.33,99.82 708.53,98.38C711.76,96.93 714.97,95.32 718.19,93.81C721.41,92.3 724.6,90.7 727.84,89.31C731.04,87.94 734.24,86.58 737.49,85.5C740.68,84.43 743.9,83.5 747.14,82.84C750.33,82.19 753.57,81.77 756.79,81.54C760,81.31 763.23,81.34 766.44,81.48C769.66,81.62 772.88,81.99 776.09,82.41C779.31,82.83 782.53,83.39 785.74,84C788.96,84.61 792.18,85.32 795.39,86.07C798.61,86.82 801.83,87.64 805.04,88.52C808.26,89.4 811.48,90.36 814.69,91.36C817.92,92.37 821.13,93.45 824.34,94.55C827.56,95.65 830.77,96.84 833.99,97.97C837.21,99.1 840.42,100.27 843.64,101.34C846.85,102.41 850.06,103.46 853.29,104.38C856.49,105.29 859.71,106.13 862.94,106.83C866.14,107.52 869.37,108.1 872.59,108.57C875.8,109.03 879.02,109.37 882.24,109.62C885.45,109.87 888.67,110.01 891.89,110.08C895.11,110.15 898.32,110.13 901.54,110.05C904.76,109.97 907.98,109.82 911.19,109.62C914.41,109.42 917.62,109.14 920.84,108.85C924.06,108.56 927.27,108.21 930.49,107.89C933.71,107.57 936.92,107.21 940.14,106.91C943.36,106.61 946.57,106.32 949.79,106.11C953.01,105.9 956.23,105.74 959.45,105.66C962.67,105.58 965.88,105.57 969.1,105.6C972.32,105.63 975.53,105.75 978.75,105.87C981.97,106 985.18,106.17 988.4,106.35C991.62,106.53 994.83,106.73 998.05,106.93C1001.27,107.13 1004.48,107.34 1007.7,107.55C1010.92,107.76 1014.13,107.98 1017.35,108.2C1020.57,108.42 1023.78,108.65 1027,108.86C1030.22,109.07 1033.43,109.29 1036.65,109.48C1039.87,109.67 1043.08,109.86 1046.3,110.02C1049.52,110.18 1052.73,110.32 1055.95,110.44Q1059.17,110.56 1065.6,110.72L1065.6,111.05" style="vector-effect: non-scaling-stroke; stroke-width: 2px; stroke: rgb(182, 58, 63); stroke-opacity: 1; fill: rgb(182, 58, 63); fill-opacity: 0.5;"/><g class="points"><path class="point" transform="translate(718.51,102.62)" d="M2.5,0A2.5,2.5 0 1,1 0,-2.5A2.5,2.5 0 0,1 2.5,0Z" style="opacity: 1; stroke-width: 0px; fill: rgb(182, 58, 63); fill-opacity: 1;"/><path class="point" transform="translate(732.34,108.36)" d="M2.5,0A2.5,2.5 0 1,1 0,-2.5A2.5,2.5 0 0,1 2.5,0Z" style="opacity: 1; stroke-width: 0px; fill: rgb(182, 58, 63); fill-opacity: 1;"/><path class="point" transform="translate(733.2,100.99)" d="M2.5,0A2.5,2.5 0 1,1 0,-2.5A2.5,2.5 0 0,1 2.5,0Z" style="opacity: 1; stroke-width: 0px; fill: rgb(182, 58, 63); fill-opacity: 1;"/><path class="point" transform="translate(735.22,109.97)" d="M2.5,0A2.5,2.5 0 1,1 0,-2.5A2.5,2.5 0 0,1 2.5,0Z" style="opacity: 1; stroke-width: 0px; fill: rgb(182, 58, 63); fill-opacity: 1;"/><path class="point" transform="translate(739.64,106.59)" d="M2.5,0A2.5,2.5 0 1,1 0,-2.5A2.5,2.5 0 0,1 2.5,0Z" style="opacity: 1; stroke-width: 0px; fill: rgb(182, 58, 63); fill-opacity: 1;"/><path class="point" transform="translate(749.82,102.53)" d="M2.5,0A2.5,2.5 0 1,1 0,-2.5A2.5,2.5 0 0,1 2.5,0Z" style="opacity: 1; stroke-width: 0px; fill: rgb(182, 58, 63); fill-opacity: 1;"/><path class="point" transform="translate(753.08,105.35)" d="M2.5,0A2.5,2.5 0 1,1 0,-2.5A2.5,2.5 0 0,1 2.5,0Z" style="opacity: 1; stroke-width: 0px; fill: rgb(182, 58, 63); fill-opacity: 1;"/><path class="point" transform="translate(754.62,103.5)" d="M2.5,0A2.5,2.5 0 1,1 0,-2.5A2.5,2.5 0 0,1 2.5,0Z" style="opacity: 1; stroke-width: 0px; fill: rgb(182, 58, 63); fill-opacity: 1;"/><path class="point" transform="translate(754.71,106.82)" d="M2.5,0A2.5,2.5 0 1,1 0,-2.5A2.5,2.5 0 0,1 2.5,0Z" style="opacity: 1; stroke-width: 0px; fill: rgb(182, 58, 63); fill-opacity: 1;"/><path class="point" transform="translate(756.54,109.06)" d="M2.5,0A2.5,2.5 0 1,1 0,-2.5A2.5,2.5 0 0,1 2.5,0Z" style="opacity: 1; stroke-width: 0px; fill: rgb(182, 58, 63); fill-opacity: 1;"/><path class="point" transform="translate(778.43,103.71)" d="M2.5,0A2.5,2.5 0 1,1 0,-2.5A2.5,2.5 0 0,1 2.5,0Z" style="opacity: 1; stroke-width: 0px; fill: rgb(182, 58, 63); fill-opacity: 1;"/><path class="point" transform="translate(779.39,106.73)" d="M2.5,0A2.5,2.5 0 1,1 0,-2.5A2.5,2.5 0 0,1 2.5,0Z" style="opacity: 1; stroke-width: 0px; fill: rgb(182, 58, 63); fill-opacity: 1;"/><path class="point" transform="translate(779.49,102.15)" d="M2.5,0A2.5,2.5 0 1,1 0,-2.5A2.5,2.5 0 0,1 2.5,0Z" style="opacity: 1; stroke-width: 0px; fill: rgb(182, 58, 63); fill-opacity: 1;"/><path class="point" transform="translate(788.23,109.64)" d="M2.5,0A2.5,2.5 0 1,1 0,-2.5A2.5,2.5 0 0,1 2.5,0Z" style="opacity: 1; stroke-width: 0px; fill: rgb(182, 58, 63); fill-opacity: 1;"/><path class="point" transform="translate(791.3,107.79)" d="M2.5,0A2.5,2.5 0 1,1 0,-2.5A2.5,2.5 0 0,1 2.5,0Z" style="opacity: 1; stroke-width: 0px; fill: rgb(182, 58, 63); fill-opacity: 1;"/><path class="point" transform="translate(801.87,102.59)" d="M2.5,0A2.5,2.5 0 1,1 0,-2.5A2.5,2.5 0 0,1 2.5,0Z" style="opacity: 1; stroke-width: 0px; fill: rgb(182, 58, 63); fill-opacity: 1;"/><path class="point" transform="translate(816.46,105.86)" d="M2.5,0A2.5,2.5 0 1,1 0,-2.5A2.5,2.5 0 0,1 2.5,0Z" style="opacity: 1; stroke-width: 0px; fill: rgb(182, 58, 63); fill-opacity: 1;"/><path class="point" transform="translate(821.26,107.32)" d="M2.5,0A2.5,2.5 0 1,1 0,-2.5A2.5,2.5 0 0,1 2.5,0Z" style="opacity: 1; stroke-width: 0px; fill: rgb(182, 58, 63); fill-opacity: 1;"/><path class="point" transform="translate(823.76,105.95)" d="M2.5,0A2.5,2.5 0 1,1 0,-2.5A2.5,2.5 0 0,1 2.5,0Z" style="opacity: 1; stroke-width: 0px; fill: rgb(182, 58, 63); fill-opacity: 1;"/><path class="point" transform="translate(826.83,105.19)" d="M2.5,0A2.5,2.5 0 1,1 0,-2.5A2.5,2.5 0 0,1 2.5,0Z" style="opacity: 1; stroke-width: 0px; fill: rgb(182, 58, 63); fill-opacity: 1;"/><path class="point" transform="translate(956.57,104.13)" d="M2.5,0A2.5,2.5 0 1,1 0,-2.5A2.5,2.5 0 0,1 2.5,0Z" style="opacity: 1; stroke-width: 0px; fill: rgb(182, 58, 63); fill-opacity: 1;"/><path class="point" transform="translate(959.17,104.9)" d="M2.5,0A2.5,2.5 0 1,1 0,-2.5A2.5,2.5 0 0,1 2.5,0Z" style="opacity: 1; stroke-width: 0px; fill: rgb(182, 58, 63); fill-opacity: 1;"/><path class="point" transform="translate(1007.37,105.7)" d="M2.5,0A2.5,2.5 0 1,1 0,-2.5A2.5,2.5 0 0,1 2.5,0Z" style="opacity: 1; stroke-width: 0px; fill: rgb(182, 58, 63); fill-opacity: 1;"/></g></g><g class="trace violins" style="opacity: 1;"><path class="violin" d="M675.23,81.48L675.23,80.59Q680.54,80.08 683.18,79.67C685.84,79.26 688.5,78.76 691.13,78.12C693.79,77.47 696.44,76.69 699.07,75.79C701.74,74.87 704.39,73.79 707.02,72.65C709.69,71.49 712.33,70.17 714.97,68.88C717.63,67.58 720.26,66.17 722.91,64.86C725.55,63.56 728.19,62.22 730.86,61.04C733.49,59.88 736.14,58.78 738.81,57.84C741.44,56.92 744.1,56.12 746.76,55.44C749.39,54.77 752.04,54.26 754.7,53.8C757.34,53.35 760,53 762.65,52.71C765.3,52.42 767.95,52.18 770.6,52.05C773.25,51.92 775.9,51.83 778.55,51.92C781.2,52.01 783.86,52.18 786.49,52.59C789.15,53 791.82,53.61 794.44,54.4C797.12,55.21 799.77,56.27 802.39,57.42C805.07,58.59 807.7,60.01 810.34,61.39C813,62.78 815.62,64.33 818.28,65.74C820.92,67.14 823.55,68.57 826.23,69.8C828.85,71 831.5,72.13 834.18,73.05C836.8,73.95 839.46,74.68 842.13,75.26C844.76,75.83 847.42,76.21 850.07,76.51C852.71,76.81 855.37,76.94 858.02,77.06C860.67,77.18 863.32,77.19 865.97,77.23C868.62,77.27 871.27,77.26 873.92,77.28C876.57,77.3 879.21,77.3 881.86,77.34C884.51,77.38 887.16,77.44 889.81,77.51C892.46,77.58 895.11,77.67 897.76,77.77C900.41,77.87 903.06,77.99 905.71,78.1C908.36,78.21 911,78.33 913.65,78.41C916.3,78.49 918.95,78.56 921.6,78.6C924.25,78.64 926.9,78.65 929.55,78.65C932.2,78.65 934.85,78.62 937.5,78.61C940.15,78.6 942.79,78.57 945.44,78.58C948.09,78.59 950.74,78.63 953.39,78.7C956.04,78.77 958.69,78.89 961.34,79.02C963.99,79.15 966.63,79.33 969.28,79.5C971.93,79.67 974.58,79.87 977.23,80.04C979.88,80.21 982.53,80.39 985.18,80.54C987.83,80.69 990.48,80.82 993.13,80.93C995.78,81.04 998.42,81.12 1001.07,81.19C1003.72,81.26 1006.37,81.31 1009.02,81.35C1011.67,81.39 1014.32,81.41 1016.97,81.43C1019.62,81.45 1022.27,81.45 1024.92,81.46C1027.57,81.47 1030.21,81.48 1032.86,81.48C1035.51,81.48 1038.16,81.48 1040.81,81.48C1043.46,81.48 1046.11,81.48 1048.76,81.48C1051.41,81.48 1054.06,81.48 1056.71,81.48C1059.36,81.48 1062,81.48 1064.65,81.48C1067.3,81.48 1069.95,81.48 1072.6,81.48C1075.25,81.48 1077.9,81.48 1080.55,81.48C1083.2,81.48 1085.85,81.48 1088.5,81.48C1091.15,81.48 1093.79,81.48 1096.44,81.48C1099.09,81.48 1101.74,81.48 1104.39,81.48C1107.04,81.48 1109.69,81.48 1112.34,81.48C1114.99,81.48 1117.64,81.48 1120.29,81.48C1122.94,81.48 1125.58,81.47 1128.23,81.47C1130.88,81.46 1133.53,81.46 1136.18,81.45C1138.83,81.44 1141.48,81.43 1144.13,81.41C1146.78,81.39 1149.43,81.36 1152.08,81.31C1154.73,81.26 1157.37,81.21 1160.02,81.13C1162.67,81.05 1165.32,80.94 1167.97,80.82C1170.62,80.7 1173.27,80.56 1175.92,80.4C1178.57,80.24 1181.22,80.05 1183.87,79.88C1186.52,79.71 1189.16,79.52 1191.81,79.37C1194.46,79.22 1197.11,79.08 1199.76,78.99C1202.41,78.9 1205.06,78.85 1207.71,78.85C1210.36,78.85 1213,78.9 1215.65,78.99C1218.3,79.08 1220.95,79.22 1223.6,79.37C1226.25,79.52 1228.9,79.71 1231.55,79.88C1234.2,80.05 1236.85,80.24 1239.5,80.4C1242.15,80.56 1244.79,80.71 1247.44,80.83Q1250.09,80.95 1255.39,81.13L1255.39,81.48" style="vector-effect: non-scaling-stroke; stroke-width: 2px; stroke: rgb(198, 53, 51); stroke-opacity: 1; fill: rgb(198, 53, 51); fill-opacity: 0.5;"/><g class="points"><path class="point" transform="translate(722.93,72.73)" d="M2.5,0A2.5,2.5 0 1,1 0,-2.5A2.5,2.5 0 0,1 2.5,0Z" style="opacity: 1; stroke-width: 0px; fill: rgb(198, 53, 51); fill-opacity: 1;"/><path class="point" transform="translate(726.96,79.09)" d="M2.5,0A2.5,2.5 0 1,1 0,-2.5A2.5,2.5 0 0,1 2.5,0Z" style="opacity: 1; stroke-width: 0px; fill: rgb(198, 53, 51); fill-opacity: 1;"/><path class="point" transform="translate(735.6,70.98)" d="M2.5,0A2.5,2.5 0 1,1 0,-2.5A2.5,2.5 0 0,1 2.5,0Z" style="opacity: 1; stroke-width: 0px; fill: rgb(198, 53, 51); fill-opacity: 1;"/><path class="point" transform="translate(737.52,80.07)" d="M2.5,0A2.5,2.5 0 1,1 0,-2.5A2.5,2.5 0 0,1 2.5,0Z" style="opacity: 1; stroke-width: 0px; fill: rgb(198, 53, 51); fill-opacity: 1;"/><path class="point" transform="translate(746.93,76.81)" d="M2.5,0A2.5,2.5 0 1,1 0,-2.5A2.5,2.5 0 0,1 2.5,0Z" style="opacity: 1; stroke-width: 0px; fill: rgb(198, 53, 51); fill-opacity: 1;"/><path class="point" transform="translate(747.51,72.8)" d="M2.5,0A2.5,2.5 0 1,1 0,-2.5A2.5,2.5 0 0,1 2.5,0Z" style="opacity: 1; stroke-width: 0px; fill: rgb(198, 53, 51); fill-opacity: 1;"/><path class="point" transform="translate(751.93,75.75)" d="M2.5,0A2.5,2.5 0 1,1 0,-2.5A2.5,2.5 0 0,1 2.5,0Z" style="opacity: 1; stroke-width: 0px; fill: rgb(198, 53, 51); fill-opacity: 1;"/><path class="point" transform="translate(752.5,74.05)" d="M2.5,0A2.5,2.5 0 1,1 0,-2.5A2.5,2.5 0 0,1 2.5,0Z" style="opacity: 1; stroke-width: 0px; fill: rgb(198, 53, 51); fill-opacity: 1;"/><path class="point" transform="translate(764.6,77.26)" d="M2.5,0A2.5,2.5 0 1,1 0,-2.5A2.5,2.5 0 0,1 2.5,0Z" style="opacity: 1; stroke-width: 0px; fill: rgb(198, 53, 51); fill-opacity: 1;"/><path class="point" transform="translate(775.55,79.83)" d="M2.5,0A2.5,2.5 0 1,1 0,-2.5A2.5,2.5 0 0,1 2.5,0Z" style="opacity: 1; stroke-width: 0px; fill: rgb(198, 53, 51); fill-opacity: 1;"/><path class="point" transform="translate(775.94,74.08)" d="M2.5,0A2.5,2.5 0 1,1 0,-2.5A2.5,2.5 0 0,1 2.5,0Z" style="opacity: 1; stroke-width: 0px; fill: rgb(198, 53, 51); fill-opacity: 1;"/><path class="point" transform="translate(786.98,77.32)" d="M2.5,0A2.5,2.5 0 1,1 0,-2.5A2.5,2.5 0 0,1 2.5,0Z" style="opacity: 1; stroke-width: 0px; fill: rgb(198, 53, 51); fill-opacity: 1;"/><path class="point" transform="translate(789.19,72.23)" d="M2.5,0A2.5,2.5 0 1,1 0,-2.5A2.5,2.5 0 0,1 2.5,0Z" style="opacity: 1; stroke-width: 0px; fill: rgb(198, 53, 51); fill-opacity: 1;"/><path class="point" transform="translate(790.15,81.04)" d="M2.5,0A2.5,2.5 0 1,1 0,-2.5A2.5,2.5 0 0,1 2.5,0Z" style="opacity: 1; stroke-width: 0px; fill: rgb(198, 53, 51); fill-opacity: 1;"/><path class="point" transform="translate(790.73,77.96)" d="M2.5,0A2.5,2.5 0 1,1 0,-2.5A2.5,2.5 0 0,1 2.5,0Z" style="opacity: 1; stroke-width: 0px; fill: rgb(198, 53, 51); fill-opacity: 1;"/><path class="point" transform="translate(795.33,72.48)" d="M2.5,0A2.5,2.5 0 1,1 0,-2.5A2.5,2.5 0 0,1 2.5,0Z" style="opacity: 1; stroke-width: 0px; fill: rgb(198, 53, 51); fill-opacity: 1;"/><path class="point" transform="translate(804.27,76.32)" d="M2.5,0A2.5,2.5 0 1,1 0,-2.5A2.5,2.5 0 0,1 2.5,0Z" style="opacity: 1; stroke-width: 0px; fill: rgb(198, 53, 51); fill-opacity: 1;"/><path class="point" transform="translate(805.9,77.18)" d="M2.5,0A2.5,2.5 0 1,1 0,-2.5A2.5,2.5 0 0,1 2.5,0Z" style="opacity: 1; stroke-width: 0px; fill: rgb(198, 53, 51); fill-opacity: 1;"/><path class="point" transform="translate(811.37,76.16)" d="M2.5,0A2.5,2.5 0 1,1 0,-2.5A2.5,2.5 0 0,1 2.5,0Z" style="opacity: 1; stroke-width: 0px; fill: rgb(198, 53, 51); fill-opacity: 1;"/><path class="point" transform="translate(861.79,75.61)" d="M2.5,0A2.5,2.5 0 1,1 0,-2.5A2.5,2.5 0 0,1 2.5,0Z" style="opacity: 1; stroke-width: 0px; fill: rgb(198, 53, 51); fill-opacity: 1;"/><path class="point" transform="translate(896.65,74.86)" d="M2.5,0A2.5,2.5 0 1,1 0,-2.5A2.5,2.5 0 0,1 2.5,0Z" style="opacity: 1; stroke-width: 0px; fill: rgb(198, 53, 51); fill-opacity: 1;"/><path class="point" transform="translate(950.91,75.41)" d="M2.5,0A2.5,2.5 0 1,1 0,-2.5A2.5,2.5 0 0,1 2.5,0Z" style="opacity: 1; stroke-width: 0px; fill: rgb(198, 53, 51); fill-opacity: 1;"/><path class="point" transform="translate(1207.7,75.95)" d="M2.5,0A2.5,2.5 0 1,1 0,-2.5A2.5,2.5 0 0,1 2.5,0Z" style="opacity: 1; stroke-width: 0px; fill: rgb(198, 53, 51); fill-opacity: 1;"/></g></g><g class="trace violins" style="opacity: 1;"><path class="violin" d="M677.53,51.92L677.53,50.83Q684.42,50.21 687.86,49.73C691.31,49.24 694.76,48.67 698.19,47.92C701.65,47.17 705.1,46.27 708.52,45.23C711.98,44.18 715.43,42.94 718.85,41.62C722.31,40.29 725.75,38.77 729.18,37.26C732.63,35.75 736.06,34.09 739.51,32.56C742.95,31.04 746.37,29.45 749.84,28.12C753.26,26.81 756.69,25.54 760.17,24.61C763.59,23.7 767.05,22.96 770.51,22.58C773.94,22.21 777.41,22.14 780.84,22.35C784.29,22.56 787.75,23.14 791.17,23.85C794.64,24.57 798.07,25.61 801.5,26.66C804.96,27.72 808.39,28.99 811.83,30.18C815.28,31.37 818.71,32.65 822.16,33.81C825.6,34.96 829.03,36.11 832.49,37.12C835.92,38.13 839.36,39.06 842.82,39.88C846.25,40.69 849.71,41.4 853.16,42.01C856.6,42.62 860.04,43.12 863.49,43.55C866.93,43.98 870.37,44.29 873.82,44.58C877.26,44.86 880.71,45.07 884.15,45.26C887.59,45.45 891.04,45.59 894.48,45.74C897.92,45.89 901.37,46.02 904.81,46.16C908.25,46.3 911.7,46.45 915.14,46.6C918.58,46.75 922.03,46.9 925.47,47.05C928.91,47.2 932.36,47.35 935.8,47.49C939.25,47.63 942.69,47.76 946.14,47.88C949.58,48 953.03,48.11 956.47,48.2C959.91,48.29 963.36,48.37 966.8,48.44C970.24,48.51 973.69,48.55 977.13,48.6C980.57,48.65 984.02,48.69 987.46,48.73C990.9,48.77 994.35,48.81 997.79,48.85C1001.23,48.9 1004.68,48.95 1008.12,49C1011.56,49.05 1015.01,49.11 1018.45,49.16C1021.89,49.21 1025.34,49.25 1028.78,49.28C1032.23,49.31 1035.67,49.33 1039.12,49.34C1042.56,49.35 1046.01,49.33 1049.45,49.33C1052.89,49.33 1056.34,49.32 1059.78,49.34C1063.22,49.36 1066.67,49.37 1070.11,49.43C1073.55,49.49 1077,49.57 1080.44,49.68C1083.88,49.79 1087.33,49.94 1090.77,50.08C1094.21,50.22 1097.66,50.39 1101.1,50.54C1104.54,50.69 1107.99,50.86 1111.43,50.99C1114.88,51.13 1118.32,51.25 1121.77,51.35Q1125.21,51.45 1132.1,51.61L1132.1,51.92" style="vector-effect: non-scaling-stroke; stroke-width: 2px; stroke: rgb(215, 48, 39); stroke-opacity: 1; fill: rgb(215, 48, 39); fill-opacity: 0.5;"/><g class="points"><path class="point" transform="translate(740.02,43.44)" d="M2.5,0A2.5,2.5 0 1,1 0,-2.5A2.5,2.5 0 0,1 2.5,0Z" style="opacity: 1; stroke-width: 0px; fill: rgb(215, 48, 39); fill-opacity: 1;"/><path class="point" transform="translate(741.75,49.25)" d="M2.5,0A2.5,2.5 0 1,1 0,-2.5A2.5,2.5 0 0,1 2.5,0Z" style="opacity: 1; stroke-width: 0px; fill: rgb(215, 48, 39); fill-opacity: 1;"/><path class="point" transform="translate(743.48,42.09)" d="M2.5,0A2.5,2.5 0 1,1 0,-2.5A2.5,2.5 0 0,1 2.5,0Z" style="opacity: 1; stroke-width: 0px; fill: rgb(215, 48, 39); fill-opacity: 1;"/><path class="point" transform="translate(759.13,50.48)" d="M2.5,0A2.5,2.5 0 1,1 0,-2.5A2.5,2.5 0 0,1 2.5,0Z" style="opacity: 1; stroke-width: 0px; fill: rgb(215, 48, 39); fill-opacity: 1;"/><path class="point" transform="translate(759.32,47.31)" d="M2.5,0A2.5,2.5 0 1,1 0,-2.5A2.5,2.5 0 0,1 2.5,0Z" style="opacity: 1; stroke-width: 0px; fill: rgb(215, 48, 39); fill-opacity: 1;"/><path class="point" transform="translate(766.91,43.17)" d="M2.5,0A2.5,2.5 0 1,1 0,-2.5A2.5,2.5 0 0,1 2.5,0Z" style="opacity: 1; stroke-width: 0px; fill: rgb(215, 48, 39); fill-opacity: 1;"/><path class="point" transform="translate(770.27,46.2)" d="M2.5,0A2.5,2.5 0 1,1 0,-2.5A2.5,2.5 0 0,1 2.5,0Z" style="opacity: 1; stroke-width: 0px; fill: rgb(215, 48, 39); fill-opacity: 1;"/><path class="point" transform="translate(775.94,44.51)" d="M2.5,0A2.5,2.5 0 1,1 0,-2.5A2.5,2.5 0 0,1 2.5,0Z" style="opacity: 1; stroke-width: 0px; fill: rgb(215, 48, 39); fill-opacity: 1;"/><path class="point" transform="translate(777.47,47.89)" d="M2.5,0A2.5,2.5 0 1,1 0,-2.5A2.5,2.5 0 0,1 2.5,0Z" style="opacity: 1; stroke-width: 0px; fill: rgb(215, 48, 39); fill-opacity: 1;"/><path class="point" transform="translate(781.99,50.07)" d="M2.5,0A2.5,2.5 0 1,1 0,-2.5A2.5,2.5 0 0,1 2.5,0Z" style="opacity: 1; stroke-width: 0px; fill: rgb(215, 48, 39); fill-opacity: 1;"/><path class="point" transform="translate(784.96,44.73)" d="M2.5,0A2.5,2.5 0 1,1 0,-2.5A2.5,2.5 0 0,1 2.5,0Z" style="opacity: 1; stroke-width: 0px; fill: rgb(215, 48, 39); fill-opacity: 1;"/><path class="point" transform="translate(788.04,47.46)" d="M2.5,0A2.5,2.5 0 1,1 0,-2.5A2.5,2.5 0 0,1 2.5,0Z" style="opacity: 1; stroke-width: 0px; fill: rgb(215, 48, 39); fill-opacity: 1;"/><path class="point" transform="translate(792.84,43.22)" d="M2.5,0A2.5,2.5 0 1,1 0,-2.5A2.5,2.5 0 0,1 2.5,0Z" style="opacity: 1; stroke-width: 0px; fill: rgb(215, 48, 39); fill-opacity: 1;"/><path class="point" transform="translate(796.58,49.36)" d="M2.5,0A2.5,2.5 0 1,1 0,-2.5A2.5,2.5 0 0,1 2.5,0Z" style="opacity: 1; stroke-width: 0px; fill: rgb(215, 48, 39); fill-opacity: 1;"/><path class="point" transform="translate(801.77,47.9)" d="M2.5,0A2.5,2.5 0 1,1 0,-2.5A2.5,2.5 0 0,1 2.5,0Z" style="opacity: 1; stroke-width: 0px; fill: rgb(215, 48, 39); fill-opacity: 1;"/><path class="point" transform="translate(824.62,43.5)" d="M2.5,0A2.5,2.5 0 1,1 0,-2.5A2.5,2.5 0 0,1 2.5,0Z" style="opacity: 1; stroke-width: 0px; fill: rgb(215, 48, 39); fill-opacity: 1;"/><path class="point" transform="translate(836.72,46.62)" d="M2.5,0A2.5,2.5 0 1,1 0,-2.5A2.5,2.5 0 0,1 2.5,0Z" style="opacity: 1; stroke-width: 0px; fill: rgb(215, 48, 39); fill-opacity: 1;"/><path class="point" transform="translate(844.12,47.87)" d="M2.5,0A2.5,2.5 0 1,1 0,-2.5A2.5,2.5 0 0,1 2.5,0Z" style="opacity: 1; stroke-width: 0px; fill: rgb(215, 48, 39); fill-opacity: 1;"/><path class="point" transform="translate(887.43,46.69)" d="M2.5,0A2.5,2.5 0 1,1 0,-2.5A2.5,2.5 0 0,1 2.5,0Z" style="opacity: 1; stroke-width: 0px; fill: rgb(215, 48, 39); fill-opacity: 1;"/><path class="point" transform="translate(904.43,46.05)" d="M2.5,0A2.5,2.5 0 1,1 0,-2.5A2.5,2.5 0 0,1 2.5,0Z" style="opacity: 1; stroke-width: 0px; fill: rgb(215, 48, 39); fill-opacity: 1;"/><path class="point" transform="translate(948.03,45.13)" d="M2.5,0A2.5,2.5 0 1,1 0,-2.5A2.5,2.5 0 0,1 2.5,0Z" style="opacity: 1; stroke-width: 0px; fill: rgb(215, 48, 39); fill-opacity: 1;"/><path class="point" transform="translate(1002.48,45.8)" d="M2.5,0A2.5,2.5 0 1,1 0,-2.5A2.5,2.5 0 0,1 2.5,0Z" style="opacity: 1; stroke-width: 0px; fill: rgb(215, 48, 39); fill-opacity: 1;"/><path class="point" transform="translate(1069.6,46.48)" d="M2.5,0A2.5,2.5 0 1,1 0,-2.5A2.5,2.5 0 0,1 2.5,0Z" style="opacity: 1; stroke-width: 0px; fill: rgb(215, 48, 39); fill-opacity: 1;"/></g></g></g></g><g class="overplot"/><path class="xlines-above crisp" d="M0,0" style="fill: none;"/><path class="ylines-above crisp" d="M0,0" style="fill: none;"/><g class="overlines-above"/><g class="xaxislayer-above"><g class="xtick"><text text-anchor="middle" x="0" y="460" transform="translate(244.44,0)" style="font-family: 'Open Sans', verdana, arial, sans-serif; font-size: 12px; fill: rgb(42, 63, 95); fill-opacity: 1; white-space: pre;">30</text></g><g class="xtick"><text text-anchor="middle" x="0" y="460" transform="translate(436.51,0)" style="font-family: 'Open Sans', verdana, arial, sans-serif; font-size: 12px; fill: rgb(42, 63, 95); fill-opacity: 1; white-space: pre;">20</text></g><g class="xtick"><text text-anchor="middle" x="0" y="460" transform="translate(628.57,0)" style="font-family: 'Open Sans', verdana, arial, sans-serif; font-size: 12px; fill: rgb(42, 63, 95); fill-opacity: 1; white-space: pre;">10</text></g><g class="xtick"><text text-anchor="middle" x="0" y="460" transform="translate(820.63,0)" style="font-family: 'Open Sans', verdana, arial, sans-serif; font-size: 12px; fill: rgb(42, 63, 95); fill-opacity: 1; white-space: pre;">0</text></g><g class="xtick"><text text-anchor="middle" x="0" y="460" transform="translate(1012.7,0)" style="font-family: 'Open Sans', verdana, arial, sans-serif; font-size: 12px; fill: rgb(42, 63, 95); fill-opacity: 1; white-space: pre;">10</text></g><g class="xtick"><text text-anchor="middle" x="0" y="460" transform="translate(1204.76,0)" style="font-family: 'Open Sans', verdana, arial, sans-serif; font-size: 12px; fill: rgb(42, 63, 95); fill-opacity: 1; white-space: pre;">20</text></g></g><g class="yaxislayer-above"><g class="ytick"><text text-anchor="end" x="109" y="4.199999999999999" transform="translate(0,427.15)" style="font-family: 'Open Sans', verdana, arial, sans-serif; font-size: 12px; fill: rgb(42, 63, 95); fill-opacity: 1; white-space: pre;">Sample 134-2_A5</text></g><g class="ytick"><text text-anchor="end" x="109" y="4.199999999999999" transform="translate(0,397.58)" style="font-family: 'Open Sans', verdana, arial, sans-serif; font-size: 12px; fill: rgb(42, 63, 95); fill-opacity: 1; white-space: pre;">Sample 4-1_B2</text></g><g class="ytick"><text text-anchor="end" x="109" y="4.199999999999999" transform="translate(0,368.02)" style="font-family: 'Open Sans', verdana, arial, sans-serif; font-size: 12px; fill: rgb(42, 63, 95); fill-opacity: 1; white-space: pre;">Sample 4-2_B2</text></g><g class="ytick"><text text-anchor="end" x="109" y="4.199999999999999" transform="translate(0,338.45)" style="font-family: 'Open Sans', verdana, arial, sans-serif; font-size: 12px; fill: rgb(42, 63, 95); fill-opacity: 1; white-space: pre;">Sample 7-2_F2</text></g><g class="ytick"><text text-anchor="end" x="109" y="4.199999999999999" transform="translate(0,308.88)" style="font-family: 'Open Sans', verdana, arial, sans-serif; font-size: 12px; fill: rgb(42, 63, 95); fill-opacity: 1; white-space: pre;">Sample 11-1_A3</text></g><g class="ytick"><text text-anchor="end" x="109" y="4.199999999999999" transform="translate(0,279.32)" style="font-family: 'Open Sans', verdana, arial, sans-serif; font-size: 12px; fill: rgb(42, 63, 95); fill-opacity: 1; white-space: pre;">Sample 131-1_F4</text></g><g class="ytick"><text text-anchor="end" x="109" y="4.199999999999999" transform="translate(0,249.75)" style="font-family: 'Open Sans', verdana, arial, sans-serif; font-size: 12px; fill: rgb(42, 63, 95); fill-opacity: 1; white-space: pre;">Sample 117-2_C4</text></g><g class="ytick"><text text-anchor="end" x="109" y="4.199999999999999" transform="translate(0,220.18)" style="font-family: 'Open Sans', verdana, arial, sans-serif; font-size: 12px; fill: rgb(42, 63, 95); fill-opacity: 1; white-space: pre;">Sample 80-1_H3</text></g><g class="ytick"><text text-anchor="end" x="109" y="4.199999999999999" transform="translate(0,190.62)" style="font-family: 'Open Sans', verdana, arial, sans-serif; font-size: 12px; fill: rgb(42, 63, 95); fill-opacity: 1; white-space: pre;">Sample 69-1_F3</text></g><g class="ytick"><text text-anchor="end" x="109" y="4.199999999999999" transform="translate(0,161.05)" style="font-family: 'Open Sans', verdana, arial, sans-serif; font-size: 12px; fill: rgb(42, 63, 95); fill-opacity: 1; white-space: pre;">Sample 79-2_G3</text></g><g class="ytick"><text text-anchor="end" x="109" y="4.199999999999999" transform="translate(0,131.48000000000002)" style="font-family: 'Open Sans', verdana, arial, sans-serif; font-size: 12px; fill: rgb(42, 63, 95); fill-opacity: 1; white-space: pre;">Sample 134-1_H4</text></g><g class="ytick"><text text-anchor="end" x="109" y="4.199999999999999" transform="translate(0,101.92)" style="font-family: 'Open Sans', verdana, arial, sans-serif; font-size: 12px; fill: rgb(42, 63, 95); fill-opacity: 1; white-space: pre;">Sample 7-1_E2</text></g></g><g class="overaxes-above"/></g></g><g class="polarlayer"/><g class="ternarylayer"/><g class="geolayer"/><g class="funnelarealayer"/><g class="pielayer"/><g class="treemaplayer"/><g class="sunburstlayer"/><g class="glimages"/><defs id="topdefs-da2094"><g class="clips"/></defs><g class="layer-above"><g class="imagelayer"/><g class="shapelayer"/></g><g class="infolayer"><g class="g-gtitle"/><g class="g-xtitle"><text class="xtitle" x="715" y="487.8" text-anchor="middle" style="font-family: 'Open Sans', verdana, arial, sans-serif; font-size: 14px; fill: rgb(42, 63, 95); opacity: 1; font-weight: normal; white-space: pre;">CpG median log likelihood ratio</text></g><g class="g-ytitle"/><g class="annotation" data-index="0" style="opacity: 1;"><g class="annotation-text-g" transform="rotate(0,820.63,35.17999999999998)"><g class="cursor-pointer" transform="translate(789, 26)"><rect class="bg" x="0.5" y="0.5" width="63" height="17" style="stroke-width: 1px; stroke: rgb(0, 0, 0); stroke-opacity: 0; fill: rgb(0, 0, 0); fill-opacity: 0;"/><text class="annotation-text" text-anchor="middle" x="32.03125" y="13" style="font-family: 'Open Sans', verdana, arial, sans-serif; font-size: 12px; fill: rgb(100, 100, 100); fill-opacity: 1; white-space: pre;">Ambiguous</text></g></g></g><g class="annotation" data-index="1" style="opacity: 1;"><g class="annotation-text-g" transform="rotate(0,455.71,35.17999999999998)"><g class="cursor-pointer" transform="translate(417, 26)"><rect class="bg" x="0.5" y="0.5" width="77" height="17" style="stroke-width: 1px; stroke: rgb(0, 0, 0); stroke-opacity: 0; fill: rgb(0, 0, 0); fill-opacity: 0;"/><text class="annotation-text" text-anchor="middle" x="39.03125" y="13" style="font-family: 'Open Sans', verdana, arial, sans-serif; font-size: 12px; fill: rgb(33, 102, 172); fill-opacity: 1; white-space: pre;">Unmethylated</text></g></g></g><g class="annotation" data-index="2" style="opacity: 1;"><g class="annotation-text-g" transform="rotate(0,1079.92,35.17999999999998)"><g class="cursor-pointer" transform="translate(1048, 26)"><rect class="bg" x="0.5" y="0.5" width="62" height="17" style="stroke-width: 1px; stroke: rgb(0, 0, 0); stroke-opacity: 0; fill: rgb(0, 0, 0); fill-opacity: 0;"/><text class="annotation-text" text-anchor="middle" x="31.359375" y="13" style="font-family: 'Open Sans', verdana, arial, sans-serif; font-size: 12px; fill: rgb(215, 48, 39); fill-opacity: 1; white-space: pre;">Methylated</text></g></g></g></g></svg>