<svg class="main-svg" xmlns="http://www.w3.org/2000/svg" xmlns:xlink="http://www.w3.org/1999/xlink" width="1400" height="500" style="" viewBox="0 0 1400 500"><rect x="0" y="0" width="1400" height="500" style="fill: rgb(255, 255, 255); fill-opacity: 1;"/><defs id="defs-648ecf"><g class="clips"><clipPath id="clip648ecfxyplot" class="plotclip"><rect width="1210" height="397"/></clipPath><clipPath class="axesclip" id="clip648ecfx"><rect x="110" y="0" width="1210" height="500"/></clipPath><clipPath class="axesclip" id="clip648ecfy"><rect x="0" y="50" width="1400" height="397"/></clipPath><clipPath class="axesclip" id="clip648ecfxy"><rect x="110" y="50" width="1210" height="397"/></clipPath></g><g class="gradients"/></defs><g class="bglayer"><rect class="bg" x="110" y="50" width="1210" height="397" style="fill: rgb(0, 0, 0); fill-opacity: 0; stroke-width: 0;"/></g><g class="layer-below"><g class="imagelayer"/><g class="shapelayer"><path data-index="0" fill-rule="evenodd" d="M690.8,447H739.2V50H690.8Z" clip-path="url('#clip648ecfx')" style="opacity: 0.25; stroke: rgb(0, 0, 0); stroke-opacity: 0; fill: rgb(100, 100, 100); fill-opacity: 1; stroke-width: 0px;"/></g></g><g class="cartesianlayer"><g class="subplot xy"><g class="layer-subplot"><g class="shapelayer"/><g class="imagelayer"/></g><g class="gridlayer"><g class="x"/><g class="y"><path class="ygrid crisp" transform="translate(0,427.15)" d="M110,0h1210" style="stroke: rgb(211, 211, 211); stroke-opacity: 1; stroke-width: 1px;"/><path class="ygrid crisp" transform="translate(0,394.9)" d="M110,0h1210" style="stroke: rgb(211, 211, 211); stroke-opacity: 1; stroke-width: 1px;"/><path class="ygrid crisp" transform="translate(0,362.64)" d="M110,0h1210" style="stroke: rgb(211, 211, 211); stroke-opacity: 1; stroke-width: 1px;"/><path class="ygrid crisp" transform="translate(0,330.39)" d="M110,0h1210" style="stroke: rgb(211, 211, 211); stroke-opacity: 1; stroke-width: 1px;"/><path class="ygrid crisp" transform="translate(0,298.13)" d="M110,0h1210" style="stroke: rgb(211, 211, 211); stroke-opacity: 1; stroke-width: 1px;"/><path class="ygrid crisp" transform="translate(0,265.88)" d="M110,0h1210" style="stroke: rgb(211, 211, 211); stroke-opacity: 1; stroke-width: 1px;"/><path class="ygrid crisp" transform="translate(0,233.62)" d="M110,0h1210" style="stroke: rgb(211, 211, 211); stroke-opacity: 1; stroke-width: 1px;"/><path class="ygrid crisp" transform="translate(0,201.37)" d="M110,0h1210" style="stroke: rgb(211, 211, 211); stroke-opacity: 1; stroke-width: 1px;"/><path class="ygrid crisp" transform="translate(0,169.11)" d="M110,0h1210" style="stroke: rgb(211, 211, 211); stroke-opacity: 1; stroke-width: 1px;"/><path class="ygrid crisp" transform="translate(0,136.86)" d="M110,0h1210" style="stroke: rgb(211, 211, 211); stroke-opacity: 1; stroke-width: 1px;"/><path class="ygrid crisp" transform="translate(0,104.6)" d="M110,0h1210" style="stroke: rgb(211, 211, 211); stroke-opacity: 1; stroke-width: 1px;"/></g></g><g class="zerolinelayer"/><path class="xlines-below"/><path class="ylines-below"/><g class="overlines-below"/><g class="xaxislayer-below"/><g class="yaxislayer-below"/><g class="overaxes-below"/><g class="plot" transform="translate(110, 50)" clip-path="url('#clip648ecfxyplot')"><g class="violinlayer mlayer"><g class="trace violins" style="opacity: 1;"><path class="violin" d="M71.27,377.15L71.27,376.43Q84.17,376.04 90.61,375.76C97.06,375.47 103.5,375.12 109.94,374.72C116.39,374.31 122.83,373.83 129.28,373.33C135.73,372.83 142.17,372.25 148.62,371.73C155.06,371.21 161.5,370.64 167.95,370.19C174.39,369.74 180.84,369.3 187.29,369.01C193.73,368.72 200.18,368.52 206.63,368.44C213.07,368.36 219.52,368.41 225.96,368.51C232.41,368.61 238.85,368.83 245.3,369.03C251.74,369.23 258.19,369.52 264.63,369.71C271.08,369.9 277.52,370.12 283.97,370.19C290.42,370.26 296.87,370.29 303.31,370.16C309.76,370.03 316.2,369.8 322.64,369.41C329.09,369.02 335.54,368.48 341.98,367.83C348.43,367.18 354.88,366.36 361.32,365.49C367.77,364.62 374.21,363.6 380.65,362.59C387.1,361.57 393.54,360.47 399.99,359.4C406.44,358.33 412.88,357.23 419.33,356.18C425.77,355.14 432.21,354.11 438.66,353.13C445.1,352.16 451.55,351.21 458,350.33C464.44,349.45 470.88,348.6 477.33,347.87C483.77,347.14 490.22,346.45 496.67,345.95C503.11,345.46 509.56,345.04 516.01,344.9C522.45,344.76 528.9,344.78 535.34,345.1C541.79,345.42 548.25,346 554.68,346.83C561.14,347.66 567.59,348.81 574.02,350.07C580.48,351.33 586.91,352.88 593.35,354.39C599.8,355.91 606.24,357.61 612.69,359.17C619.13,360.73 625.57,362.33 632.03,363.75C638.46,365.16 644.9,366.5 651.36,367.67C657.79,368.83 664.24,369.86 670.7,370.75C677.14,371.64 683.58,372.38 690.03,373.02C696.47,373.66 702.92,374.17 709.37,374.61C715.81,375.05 722.26,375.38 728.71,375.67C735.15,375.96 741.6,376.16 748.04,376.34Q754.49,376.52 767.38,376.74L767.38,377.15" style="vector-effect: non-scaling-stroke; stroke-width: 2px; stroke: rgb(33, 102, 172); stroke-opacity: 1; fill: rgb(33, 102, 172); fill-opacity: 0.5;"/><g class="points"><path class="point" transform="translate(187.43,369.16)" d="M2.5,0A2.5,2.5 0 1,1 0,-2.5A2.5,2.5 0 0,1 2.5,0Z" style="opacity: 1; stroke-width: 0px; fill: rgb(33, 102, 172); fill-opacity: 1;"/><path class="point" transform="translate(199.05,372.76)" d="M2.5,0A2.5,2.5 0 1,1 0,-2.5A2.5,2.5 0 0,1 2.5,0Z" style="opacity: 1; stroke-width: 0px; fill: rgb(33, 102, 172); fill-opacity: 1;"/><path class="point" transform="translate(213.69,368.02)" d="M2.5,0A2.5,2.5 0 1,1 0,-2.5A2.5,2.5 0 0,1 2.5,0Z" style="opacity: 1; stroke-width: 0px; fill: rgb(33, 102, 172); fill-opacity: 1;"/><path class="point" transform="translate(286.53,373.62)" d="M2.5,0A2.5,2.5 0 1,1 0,-2.5A2.5,2.5 0 0,1 2.5,0Z" style="opacity: 1; stroke-width: 0px; fill: rgb(33, 102, 172); fill-opacity: 1;"/><path class="point" transform="translate(374.01,371.57)" d="M2.5,0A2.5,2.5 0 1,1 0,-2.5A2.5,2.5 0 0,1 2.5,0Z" style="opacity: 1; stroke-width: 0px; fill: rgb(33, 102, 172); fill-opacity: 1;"/><path class="point" transform="translate(409.83,368.76)" d="M2.5,0A2.5,2.5 0 1,1 0,-2.5A2.5,2.5 0 0,1 2.5,0Z" style="opacity: 1; stroke-width: 0px; fill: rgb(33, 102, 172); fill-opacity: 1;"/><path class="point" transform="translate(411.88,370.84)" d="M2.5,0A2.5,2.5 0 1,1 0,-2.5A2.5,2.5 0 0,1 2.5,0Z" style="opacity: 1; stroke-width: 0px; fill: rgb(33, 102, 172); fill-opacity: 1;"/><path class="point" transform="translate(416.72,369.61)" d="M2.5,0A2.5,2.5 0 1,1 0,-2.5A2.5,2.5 0 0,1 2.5,0Z" style="opacity: 1; stroke-width: 0px; fill: rgb(33, 102, 172); fill-opacity: 1;"/><path class="point" transform="translate(449.15,372)" d="M2.5,0A2.5,2.5 0 1,1 0,-2.5A2.5,2.5 0 0,1 2.5,0Z" style="opacity: 1; stroke-width: 0px; fill: rgb(33, 102, 172); fill-opacity: 1;"/><path class="point" transform="translate(465,374.34)" d="M2.5,0A2.5,2.5 0 1,1 0,-2.5A2.5,2.5 0 0,1 2.5,0Z" style="opacity: 1; stroke-width: 0px; fill: rgb(33, 102, 172); fill-opacity: 1;"/><path class="point" transform="translate(473.84,369.19)" d="M2.5,0A2.5,2.5 0 1,1 0,-2.5A2.5,2.5 0 0,1 2.5,0Z" style="opacity: 1; stroke-width: 0px; fill: rgb(33, 102, 172); fill-opacity: 1;"/><path class="point" transform="translate(479.64,372.51)" d="M2.5,0A2.5,2.5 0 1,1 0,-2.5A2.5,2.5 0 0,1 2.5,0Z" style="opacity: 1; stroke-width: 0px; fill: rgb(33, 102, 172); fill-opacity: 1;"/><path class="point" transform="translate(489.2,367.26)" d="M2.5,0A2.5,2.5 0 1,1 0,-2.5A2.5,2.5 0 0,1 2.5,0Z" style="opacity: 1; stroke-width: 0px; fill: rgb(33, 102, 172); fill-opacity: 1;"/><path class="point" transform="translate(519.57,376.68)" d="M2.5,0A2.5,2.5 0 1,1 0,-2.5A2.5,2.5 0 0,1 2.5,0Z" style="opacity: 1; stroke-width: 0px; fill: rgb(33, 102, 172); fill-opacity: 1;"/><path class="point" transform="translate(531.67,374.43)" d="M2.5,0A2.5,2.5 0 1,1 0,-2.5A2.5,2.5 0 0,1 2.5,0Z" style="opacity: 1; stroke-width: 0px; fill: rgb(33, 102, 172); fill-opacity: 1;"/><path class="point" transform="translate(532.16,365.09)" d="M2.5,0A2.5,2.5 0 1,1 0,-2.5A2.5,2.5 0 0,1 2.5,0Z" style="opacity: 1; stroke-width: 0px; fill: rgb(33, 102, 172); fill-opacity: 1;"/><path class="point" transform="translate(540.39,372.28)" d="M2.5,0A2.5,2.5 0 1,1 0,-2.5A2.5,2.5 0 0,1 2.5,0Z" style="opacity: 1; stroke-width: 0px; fill: rgb(33, 102, 172); fill-opacity: 1;"/><path class="point" transform="translate(548.86,376.08)" d="M2.5,0A2.5,2.5 0 1,1 0,-2.5A2.5,2.5 0 0,1 2.5,0Z" style="opacity: 1; stroke-width: 0px; fill: rgb(33, 102, 172); fill-opacity: 1;"/><path class="point" transform="translate(552.24,372.5)" d="M2.5,0A2.5,2.5 0 1,1 0,-2.5A2.5,2.5 0 0,1 2.5,0Z" style="opacity: 1; stroke-width: 0px; fill: rgb(33, 102, 172); fill-opacity: 1;"/><path class="point" transform="translate(558.66,370.81)" d="M2.5,0A2.5,2.5 0 1,1 0,-2.5A2.5,2.5 0 0,1 2.5,0Z" style="opacity: 1; stroke-width: 0px; fill: rgb(33, 102, 172); fill-opacity: 1;"/><path class="point" transform="translate(570.88,368.4)" d="M2.5,0A2.5,2.5 0 1,1 0,-2.5A2.5,2.5 0 0,1 2.5,0Z" style="opacity: 1; stroke-width: 0px; fill: rgb(33, 102, 172); fill-opacity: 1;"/><path class="point" transform="translate(577.17,370.15)" d="M2.5,0A2.5,2.5 0 1,1 0,-2.5A2.5,2.5 0 0,1 2.5,0Z" style="opacity: 1; stroke-width: 0px; fill: rgb(33, 102, 172); fill-opacity: 1;"/><path class="point" transform="translate(588.54,372.05)" d="M2.5,0A2.5,2.5 0 1,1 0,-2.5A2.5,2.5 0 0,1 2.5,0Z" style="opacity: 1; stroke-width: 0px; fill: rgb(33, 102, 172); fill-opacity: 1;"/><path class="point" transform="translate(651.22,374.41)" d="M2.5,0A2.5,2.5 0 1,1 0,-2.5A2.5,2.5 0 0,1 2.5,0Z" style="opacity: 1; stroke-width: 0px; fill: rgb(33, 102, 172); fill-opacity: 1;"/></g></g><g class="trace violins" style="opacity: 1;"><path class="violin" d="M-118.26,344.9L-118.26,344.56Q-104.38,344.39 -97.44,344.28C-90.5,344.16 -83.55,344.03 -76.61,343.87C-69.67,343.71 -62.72,343.53 -55.78,343.34C-48.84,343.15 -41.9,342.94 -34.96,342.75C-28.02,342.55 -21.07,342.35 -14.13,342.17C-7.19,341.99 -0.25,341.83 6.69,341.69C13.63,341.55 20.58,341.43 27.52,341.34C34.46,341.25 41.41,341.18 48.35,341.13C55.29,341.08 62.23,341.07 69.17,341.05C76.11,341.03 83.06,341.03 90,341.02C96.94,341.01 103.88,341.02 110.82,340.99C117.76,340.96 124.71,340.93 131.65,340.85C138.59,340.77 145.54,340.66 152.48,340.51C159.42,340.36 166.36,340.17 173.3,339.95C180.24,339.73 187.19,339.46 194.13,339.2C201.07,338.95 208.01,338.65 214.95,338.42C221.89,338.19 228.84,337.97 235.78,337.82C242.72,337.68 249.67,337.58 256.61,337.55C263.55,337.52 270.49,337.56 277.43,337.61C284.37,337.66 291.32,337.78 298.26,337.83C305.2,337.88 312.14,337.98 319.08,337.93C326.02,337.88 332.97,337.8 339.91,337.54C346.86,337.28 353.8,336.92 360.74,336.37C367.69,335.82 374.63,335.11 381.56,334.25C388.51,333.38 395.46,332.32 402.39,331.18C409.34,330.03 416.27,328.7 423.21,327.37C430.16,326.04 437.09,324.58 444.04,323.22C450.98,321.86 457.92,320.45 464.87,319.22C471.8,318 478.74,316.81 485.69,315.87C492.62,314.93 499.57,314.12 506.52,313.58C513.45,313.04 520.4,312.7 527.34,312.64C534.28,312.58 541.23,312.76 548.17,313.2C555.12,313.64 562.07,314.36 569,315.28C575.96,316.2 582.89,317.41 589.82,318.73C596.78,320.05 603.72,321.63 610.65,323.2C617.6,324.77 624.53,326.52 631.47,328.14C638.41,329.76 645.35,331.43 652.3,332.91C659.23,334.39 666.17,335.81 673.13,337.02C680.06,338.22 687,339.27 693.95,340.15C700.88,341.03 707.83,341.71 714.78,342.29Q721.72,342.86 735.6,343.6L735.6,344.9" style="vector-effect: non-scaling-stroke; stroke-width: 2px; stroke: rgb(51, 97, 159); stroke-opacity: 1; fill: rgb(51, 97, 159); fill-opacity: 0.5;"/><g class="points"><path class="point" transform="translate(8.71,337.36)" d="M2.5,0A2.5,2.5 0 1,1 0,-2.5A2.5,2.5 0 0,1 2.5,0Z" style="opacity: 1; stroke-width: 0px; fill: rgb(51, 97, 159); fill-opacity: 1;"/><path class="point" transform="translate(102.85,339.79)" d="M2.5,0A2.5,2.5 0 1,1 0,-2.5A2.5,2.5 0 0,1 2.5,0Z" style="opacity: 1; stroke-width: 0px; fill: rgb(51, 97, 159); fill-opacity: 1;"/><path class="point" transform="translate(218.04,336.71)" d="M2.5,0A2.5,2.5 0 1,1 0,-2.5A2.5,2.5 0 0,1 2.5,0Z" style="opacity: 1; stroke-width: 0px; fill: rgb(51, 97, 159); fill-opacity: 1;"/><path class="point" transform="translate(255.43,340.45)" d="M2.5,0A2.5,2.5 0 1,1 0,-2.5A2.5,2.5 0 0,1 2.5,0Z" style="opacity: 1; stroke-width: 0px; fill: rgb(51, 97, 159); fill-opacity: 1;"/><path class="point" transform="translate(279.87,339.06)" d="M2.5,0A2.5,2.5 0 1,1 0,-2.5A2.5,2.5 0 0,1 2.5,0Z" style="opacity: 1; stroke-width: 0px; fill: rgb(51, 97, 159); fill-opacity: 1;"/><path class="point" transform="translate(375.83,337.06)" d="M2.5,0A2.5,2.5 0 1,1 0,-2.5A2.5,2.5 0 0,1 2.5,0Z" style="opacity: 1; stroke-width: 0px; fill: rgb(51, 97, 159); fill-opacity: 1;"/><path class="point" transform="translate(439.47,338.55)" d="M2.5,0A2.5,2.5 0 1,1 0,-2.5A2.5,2.5 0 0,1 2.5,0Z" style="opacity: 1; stroke-width: 0px; fill: rgb(51, 97, 159); fill-opacity: 1;"/><path class="point" transform="translate(459.07,337.47)" d="M2.5,0A2.5,2.5 0 1,1 0,-2.5A2.5,2.5 0 0,1 2.5,0Z" style="opacity: 1; stroke-width: 0px; fill: rgb(51, 97, 159); fill-opacity: 1;"/><path class="point" transform="translate(468.03,339.57)" d="M2.5,0A2.5,2.5 0 1,1 0,-2.5A2.5,2.5 0 0,1 2.5,0Z" style="opacity: 1; stroke-width: 0px; fill: rgb(51, 97, 159); fill-opacity: 1;"/><path class="point" transform="translate(469.96,341.09)" d="M2.5,0A2.5,2.5 0 1,1 0,-2.5A2.5,2.5 0 0,1 2.5,0Z" style="opacity: 1; stroke-width: 0px; fill: rgb(51, 97, 159); fill-opacity: 1;"/><path class="point" transform="translate(472.51,337.26)" d="M2.5,0A2.5,2.5 0 1,1 0,-2.5A2.5,2.5 0 0,1 2.5,0Z" style="opacity: 1; stroke-width: 0px; fill: rgb(51, 97, 159); fill-opacity: 1;"/><path class="point" transform="translate(498.28,340.26)" d="M2.5,0A2.5,2.5 0 1,1 0,-2.5A2.5,2.5 0 0,1 2.5,0Z" style="opacity: 1; stroke-width: 0px; fill: rgb(51, 97, 159); fill-opacity: 1;"/><path class="point" transform="translate(504.69,334.69)" d="M2.5,0A2.5,2.5 0 1,1 0,-2.5A2.5,2.5 0 0,1 2.5,0Z" style="opacity: 1; stroke-width: 0px; fill: rgb(51, 97, 159); fill-opacity: 1;"/><path class="point" transform="translate(512.8,343.92)" d="M2.5,0A2.5,2.5 0 1,1 0,-2.5A2.5,2.5 0 0,1 2.5,0Z" style="opacity: 1; stroke-width: 0px; fill: rgb(51, 97, 159); fill-opacity: 1;"/><path class="point" transform="translate(526.71,341.53)" d="M2.5,0A2.5,2.5 0 1,1 0,-2.5A2.5,2.5 0 0,1 2.5,0Z" style="opacity: 1; stroke-width: 0px; fill: rgb(51, 97, 159); fill-opacity: 1;"/><path class="point" transform="translate(539.66,333.86)" d="M2.5,0A2.5,2.5 0 1,1 0,-2.5A2.5,2.5 0 0,1 2.5,0Z" style="opacity: 1; stroke-width: 0px; fill: rgb(51, 97, 159); fill-opacity: 1;"/><path class="point" transform="translate(545.71,339.88)" d="M2.5,0A2.5,2.5 0 1,1 0,-2.5A2.5,2.5 0 0,1 2.5,0Z" style="opacity: 1; stroke-width: 0px; fill: rgb(51, 97, 159); fill-opacity: 1;"/><path class="point" transform="translate(550.79,343.48)" d="M2.5,0A2.5,2.5 0 1,1 0,-2.5A2.5,2.5 0 0,1 2.5,0Z" style="opacity: 1; stroke-width: 0px; fill: rgb(51, 97, 159); fill-opacity: 1;"/><path class="point" transform="translate(569.91,340.36)" d="M2.5,0A2.5,2.5 0 1,1 0,-2.5A2.5,2.5 0 0,1 2.5,0Z" style="opacity: 1; stroke-width: 0px; fill: rgb(51, 97, 159); fill-opacity: 1;"/><path class="point" transform="translate(583.46,338.57)" d="M2.5,0A2.5,2.5 0 1,1 0,-2.5A2.5,2.5 0 0,1 2.5,0Z" style="opacity: 1; stroke-width: 0px; fill: rgb(51, 97, 159); fill-opacity: 1;"/><path class="point" transform="translate(592.42,335.69)" d="M2.5,0A2.5,2.5 0 1,1 0,-2.5A2.5,2.5 0 0,1 2.5,0Z" style="opacity: 1; stroke-width: 0px; fill: rgb(51, 97, 159); fill-opacity: 1;"/><path class="point" transform="translate(596.53,337.78)" d="M2.5,0A2.5,2.5 0 1,1 0,-2.5A2.5,2.5 0 0,1 2.5,0Z" style="opacity: 1; stroke-width: 0px; fill: rgb(51, 97, 159); fill-opacity: 1;"/><path class="point" transform="translate(598.22,340.08)" d="M2.5,0A2.5,2.5 0 1,1 0,-2.5A2.5,2.5 0 0,1 2.5,0Z" style="opacity: 1; stroke-width: 0px; fill: rgb(51, 97, 159); fill-opacity: 1;"/><path class="point" transform="translate(608.63,343.84)" d="M2.5,0A2.5,2.5 0 1,1 0,-2.5A2.5,2.5 0 0,1 2.5,0Z" style="opacity: 1; stroke-width: 0px; fill: rgb(51, 97, 159); fill-opacity: 1;"/></g></g><g class="trace violins" style="opacity: 1;"><path class="violin" d="M273.23,312.64L273.23,312.27Q277.55,312.08 279.71,311.96C281.87,311.83 284.03,311.68 286.19,311.52C288.35,311.36 290.51,311.17 292.67,310.99C294.83,310.81 296.99,310.62 299.15,310.46C301.31,310.3 303.47,310.15 305.63,310.05C307.79,309.95 309.94,309.9 312.1,309.88C314.26,309.86 316.42,309.9 318.58,309.96C320.74,310.02 322.9,310.14 325.06,310.24C327.22,310.34 329.38,310.47 331.54,310.54C333.7,310.61 335.86,310.69 338.02,310.68C340.18,310.67 342.34,310.61 344.5,310.48C346.66,310.35 348.82,310.16 350.98,309.92C353.14,309.68 355.29,309.36 357.45,309.06C359.61,308.76 361.77,308.41 363.93,308.14C366.09,307.87 368.25,307.59 370.41,307.43C372.57,307.27 374.73,307.17 376.89,307.18C379.05,307.19 381.21,307.31 383.37,307.49C385.53,307.67 387.69,307.97 389.85,308.26C392.01,308.56 394.17,308.93 396.33,309.26C398.49,309.59 400.64,309.95 402.8,310.23C404.96,310.51 407.12,310.76 409.28,310.94C411.44,311.11 413.6,311.23 415.76,311.28C417.92,311.33 420.08,311.3 422.24,311.24C424.4,311.18 426.56,311.04 428.72,310.89C430.88,310.74 433.04,310.54 435.2,310.35C437.36,310.16 439.52,309.95 441.68,309.77C443.84,309.59 445.99,309.4 448.15,309.25C450.31,309.1 452.47,308.98 454.63,308.89C456.79,308.8 458.95,308.73 461.11,308.69C463.27,308.65 465.43,308.64 467.59,308.65C469.75,308.66 471.91,308.71 474.07,308.77C476.23,308.83 478.39,308.92 480.55,309.03C482.71,309.14 484.87,309.28 487.03,309.42C489.19,309.55 491.34,309.73 493.5,309.84C495.66,309.96 497.82,310.08 499.98,310.11C502.14,310.14 504.3,310.14 506.46,310.01C508.62,309.88 510.79,309.67 512.94,309.31C515.11,308.94 517.28,308.45 519.42,307.82C521.6,307.18 523.77,306.38 525.9,305.47C528.08,304.54 530.24,303.45 532.37,302.29C534.55,301.11 536.7,299.78 538.85,298.44C541.02,297.08 543.17,295.62 545.33,294.2C547.49,292.78 549.64,291.3 551.81,289.92C553.96,288.56 556.1,287.18 558.29,285.98C560.42,284.81 562.57,283.67 564.77,282.8C566.9,281.96 569.07,281.22 571.25,280.82C573.39,280.43 575.57,280.24 577.72,280.39C579.89,280.54 582.08,281.03 584.2,281.73C586.4,282.46 588.56,283.57 590.68,284.75C592.88,285.98 595.02,287.51 597.16,288.99C599.34,290.49 601.47,292.18 603.64,293.7C605.79,295.2 607.92,296.75 610.12,298.05C612.25,299.31 614.4,300.49 616.6,301.42C618.72,302.32 620.89,303.03 623.07,303.57C625.21,304.1 627.38,304.39 629.55,304.63C631.7,304.87 633.87,304.92 636.03,305.01C638.19,305.1 640.35,305.09 642.51,305.17C644.67,305.25 646.83,305.32 648.99,305.47C651.15,305.62 653.31,305.82 655.47,306.07C657.63,306.32 659.79,306.65 661.95,306.99C664.11,307.33 666.26,307.73 668.42,308.11C670.58,308.49 672.74,308.91 674.9,309.28C677.06,309.65 679.22,310.03 681.38,310.35C683.54,310.67 685.7,310.95 687.86,311.2C690.02,311.44 692.18,311.65 694.34,311.82Q696.5,311.99 700.82,312.21L700.82,312.64" style="vector-effect: non-scaling-stroke; stroke-width: 2px; stroke: rgb(69, 91, 145); stroke-opacity: 1; fill: rgb(69, 91, 145); fill-opacity: 0.5;"/><g class="points"><path class="point" transform="translate(312.42,305.33)" d="M2.5,0A2.5,2.5 0 1,1 0,-2.5A2.5,2.5 0 0,1 2.5,0Z" style="opacity: 1; stroke-width: 0px; fill: rgb(69, 91, 145); fill-opacity: 1;"/><path class="point" transform="translate(374.37,307.32)" d="M2.5,0A2.5,2.5 0 1,1 0,-2.5A2.5,2.5 0 0,1 2.5,0Z" style="opacity: 1; stroke-width: 0px; fill: rgb(69, 91, 145); fill-opacity: 1;"/><path class="point" transform="translate(378.97,304.73)" d="M2.5,0A2.5,2.5 0 1,1 0,-2.5A2.5,2.5 0 0,1 2.5,0Z" style="opacity: 1; stroke-width: 0px; fill: rgb(69, 91, 145); fill-opacity: 1;"/><path class="point" transform="translate(450.12,307.9)" d="M2.5,0A2.5,2.5 0 1,1 0,-2.5A2.5,2.5 0 0,1 2.5,0Z" style="opacity: 1; stroke-width: 0px; fill: rgb(69, 91, 145); fill-opacity: 1;"/><path class="point" transform="translate(481.34,306.71)" d="M2.5,0A2.5,2.5 0 1,1 0,-2.5A2.5,2.5 0 0,1 2.5,0Z" style="opacity: 1; stroke-width: 0px; fill: rgb(69, 91, 145); fill-opacity: 1;"/><path class="point" transform="translate(538.33,305.03)" d="M2.5,0A2.5,2.5 0 1,1 0,-2.5A2.5,2.5 0 0,1 2.5,0Z" style="opacity: 1; stroke-width: 0px; fill: rgb(69, 91, 145); fill-opacity: 1;"/><path class="point" transform="translate(547.89,306.28)" d="M2.5,0A2.5,2.5 0 1,1 0,-2.5A2.5,2.5 0 0,1 2.5,0Z" style="opacity: 1; stroke-width: 0px; fill: rgb(69, 91, 145); fill-opacity: 1;"/><path class="point" transform="translate(554.66,305.46)" d="M2.5,0A2.5,2.5 0 1,1 0,-2.5A2.5,2.5 0 0,1 2.5,0Z" style="opacity: 1; stroke-width: 0px; fill: rgb(69, 91, 145); fill-opacity: 1;"/><path class="point" transform="translate(554.91,307.19)" d="M2.5,0A2.5,2.5 0 1,1 0,-2.5A2.5,2.5 0 0,1 2.5,0Z" style="opacity: 1; stroke-width: 0px; fill: rgb(69, 91, 145); fill-opacity: 1;"/><path class="point" transform="translate(563.5,308.8)" d="M2.5,0A2.5,2.5 0 1,1 0,-2.5A2.5,2.5 0 0,1 2.5,0Z" style="opacity: 1; stroke-width: 0px; fill: rgb(69, 91, 145); fill-opacity: 1;"/><path class="point" transform="translate(566.52,304.81)" d="M2.5,0A2.5,2.5 0 1,1 0,-2.5A2.5,2.5 0 0,1 2.5,0Z" style="opacity: 1; stroke-width: 0px; fill: rgb(69, 91, 145); fill-opacity: 1;"/><path class="point" transform="translate(567.13,308.03)" d="M2.5,0A2.5,2.5 0 1,1 0,-2.5A2.5,2.5 0 0,1 2.5,0Z" style="opacity: 1; stroke-width: 0px; fill: rgb(69, 91, 145); fill-opacity: 1;"/><path class="point" transform="translate(576.2,302.29)" d="M2.5,0A2.5,2.5 0 1,1 0,-2.5A2.5,2.5 0 0,1 2.5,0Z" style="opacity: 1; stroke-width: 0px; fill: rgb(69, 91, 145); fill-opacity: 1;"/><path class="point" transform="translate(576.93,311.72)" d="M2.5,0A2.5,2.5 0 1,1 0,-2.5A2.5,2.5 0 0,1 2.5,0Z" style="opacity: 1; stroke-width: 0px; fill: rgb(69, 91, 145); fill-opacity: 1;"/><path class="point" transform="translate(578.62,309.92)" d="M2.5,0A2.5,2.5 0 1,1 0,-2.5A2.5,2.5 0 0,1 2.5,0Z" style="opacity: 1; stroke-width: 0px; fill: rgb(69, 91, 145); fill-opacity: 1;"/><path class="point" transform="translate(584.79,300.48)" d="M2.5,0A2.5,2.5 0 1,1 0,-2.5A2.5,2.5 0 0,1 2.5,0Z" style="opacity: 1; stroke-width: 0px; fill: rgb(69, 91, 145); fill-opacity: 1;"/><path class="point" transform="translate(587.21,307.27)" d="M2.5,0A2.5,2.5 0 1,1 0,-2.5A2.5,2.5 0 0,1 2.5,0Z" style="opacity: 1; stroke-width: 0px; fill: rgb(69, 91, 145); fill-opacity: 1;"/><path class="point" transform="translate(587.33,309.82)" d="M2.5,0A2.5,2.5 0 1,1 0,-2.5A2.5,2.5 0 0,1 2.5,0Z" style="opacity: 1; stroke-width: 0px; fill: rgb(69, 91, 145); fill-opacity: 1;"/><path class="point" transform="translate(593.14,307.45)" d="M2.5,0A2.5,2.5 0 1,1 0,-2.5A2.5,2.5 0 0,1 2.5,0Z" style="opacity: 1; stroke-width: 0px; fill: rgb(69, 91, 145); fill-opacity: 1;"/><path class="point" transform="translate(593.14,306.27)" d="M2.5,0A2.5,2.5 0 1,1 0,-2.5A2.5,2.5 0 0,1 2.5,0Z" style="opacity: 1; stroke-width: 0px; fill: rgb(69, 91, 145); fill-opacity: 1;"/><path class="point" transform="translate(596.17,304.58)" d="M2.5,0A2.5,2.5 0 1,1 0,-2.5A2.5,2.5 0 0,1 2.5,0Z" style="opacity: 1; stroke-width: 0px; fill: rgb(69, 91, 145); fill-opacity: 1;"/><path class="point" transform="translate(633.8,305.81)" d="M2.5,0A2.5,2.5 0 1,1 0,-2.5A2.5,2.5 0 0,1 2.5,0Z" style="opacity: 1; stroke-width: 0px; fill: rgb(69, 91, 145); fill-opacity: 1;"/><path class="point" transform="translate(645.29,307.08)" d="M2.5,0A2.5,2.5 0 1,1 0,-2.5A2.5,2.5 0 0,1 2.5,0Z" style="opacity: 1; stroke-width: 0px; fill: rgb(69, 91, 145); fill-opacity: 1;"/><path class="point" transform="translate(661.63,308.7)" d="M2.5,0A2.5,2.5 0 1,1 0,-2.5A2.5,2.5 0 0,1 2.5,0Z" style="opacity: 1; stroke-width: 0px; fill: rgb(69, 91, 145); fill-opacity: 1;"/></g></g><g class="trace violins" style="opacity: 1;"><path class="violin" d="M396.18,280.39L396.18,280.05Q407.57,279.88 413.27,279.76C418.97,279.64 424.67,279.51 430.37,279.35C436.07,279.19 441.77,279.01 447.47,278.82C453.17,278.63 458.87,278.43 464.57,278.23C470.27,278.03 475.97,277.83 481.67,277.61C487.37,277.39 493.06,277.19 498.76,276.92C504.46,276.65 510.16,276.4 515.86,276.01C521.56,275.62 527.27,275.2 532.96,274.59C538.67,273.98 544.37,273.27 550.06,272.37C555.77,271.47 561.47,270.39 567.15,269.17C572.87,267.95 578.56,266.51 584.25,265.04C589.96,263.57 595.65,261.91 601.35,260.36C607.05,258.81 612.74,257.15 618.45,255.72C624.13,254.3 629.82,252.9 635.54,251.81C641.22,250.72 646.93,249.79 652.64,249.18C658.33,248.57 664.04,248.22 669.74,248.13C675.44,248.04 681.15,248.26 686.84,248.63C692.55,249 698.25,249.66 703.94,250.36C709.65,251.06 715.34,251.96 721.03,252.84C726.73,253.72 732.43,254.71 738.13,255.65C743.83,256.59 749.53,257.55 755.23,258.47C760.93,259.38 766.63,260.29 772.33,261.14C778.02,261.98 783.72,262.8 789.42,263.54C795.12,264.28 800.82,264.97 806.52,265.6C812.22,266.23 817.92,266.8 823.62,267.33C829.32,267.86 835.02,268.32 840.72,268.79C846.42,269.26 852.12,269.68 857.82,270.13C863.52,270.58 869.21,271.03 874.91,271.51C880.61,271.99 886.31,272.49 892.01,273C897.71,273.52 903.41,274.07 909.11,274.6C914.81,275.13 920.51,275.67 926.21,276.16C931.91,276.65 937.6,277.13 943.3,277.54C949,277.95 954.7,278.32 960.4,278.63C966.1,278.94 971.8,279.19 977.5,279.4Q983.2,279.61 994.6,279.89L994.6,280.39" style="vector-effect: non-scaling-stroke; stroke-width: 2px; stroke: rgb(88, 86, 132); stroke-opacity: 1; fill: rgb(88, 86, 132); fill-opacity: 0.5;"/><g class="points"><path class="point" transform="translate(499,272.21)" d="M2.5,0A2.5,2.5 0 1,1 0,-2.5A2.5,2.5 0 0,1 2.5,0Z" style="opacity: 1; stroke-width: 0px; fill: rgb(88, 86, 132); fill-opacity: 1;"/><path class="point" transform="translate(603.06,276.17)" d="M2.5,0A2.5,2.5 0 1,1 0,-2.5A2.5,2.5 0 0,1 2.5,0Z" style="opacity: 1; stroke-width: 0px; fill: rgb(88, 86, 132); fill-opacity: 1;"/><path class="point" transform="translate(611.78,271.14)" d="M2.5,0A2.5,2.5 0 1,1 0,-2.5A2.5,2.5 0 0,1 2.5,0Z" style="opacity: 1; stroke-width: 0px; fill: rgb(88, 86, 132); fill-opacity: 1;"/><path class="point" transform="translate(614.08,277.09)" d="M2.5,0A2.5,2.5 0 1,1 0,-2.5A2.5,2.5 0 0,1 2.5,0Z" style="opacity: 1; stroke-width: 0px; fill: rgb(88, 86, 132); fill-opacity: 1;"/><path class="point" transform="translate(633.68,274.9)" d="M2.5,0A2.5,2.5 0 1,1 0,-2.5A2.5,2.5 0 0,1 2.5,0Z" style="opacity: 1; stroke-width: 0px; fill: rgb(88, 86, 132); fill-opacity: 1;"/><path class="point" transform="translate(634.77,271.76)" d="M2.5,0A2.5,2.5 0 1,1 0,-2.5A2.5,2.5 0 0,1 2.5,0Z" style="opacity: 1; stroke-width: 0px; fill: rgb(88, 86, 132); fill-opacity: 1;"/><path class="point" transform="translate(645.41,274.17)" d="M2.5,0A2.5,2.5 0 1,1 0,-2.5A2.5,2.5 0 0,1 2.5,0Z" style="opacity: 1; stroke-width: 0px; fill: rgb(88, 86, 132); fill-opacity: 1;"/><path class="point" transform="translate(660.66,272.07)" d="M2.5,0A2.5,2.5 0 1,1 0,-2.5A2.5,2.5 0 0,1 2.5,0Z" style="opacity: 1; stroke-width: 0px; fill: rgb(88, 86, 132); fill-opacity: 1;"/><path class="point" transform="translate(671.07,275.96)" d="M2.5,0A2.5,2.5 0 1,1 0,-2.5A2.5,2.5 0 0,1 2.5,0Z" style="opacity: 1; stroke-width: 0px; fill: rgb(88, 86, 132); fill-opacity: 1;"/><path class="point" transform="translate(673.73,278.31)" d="M2.5,0A2.5,2.5 0 1,1 0,-2.5A2.5,2.5 0 0,1 2.5,0Z" style="opacity: 1; stroke-width: 0px; fill: rgb(88, 86, 132); fill-opacity: 1;"/><path class="point" transform="translate(674.21,272.35)" d="M2.5,0A2.5,2.5 0 1,1 0,-2.5A2.5,2.5 0 0,1 2.5,0Z" style="opacity: 1; stroke-width: 0px; fill: rgb(88, 86, 132); fill-opacity: 1;"/><path class="point" transform="translate(678.69,275.74)" d="M2.5,0A2.5,2.5 0 1,1 0,-2.5A2.5,2.5 0 0,1 2.5,0Z" style="opacity: 1; stroke-width: 0px; fill: rgb(88, 86, 132); fill-opacity: 1;"/><path class="point" transform="translate(683.89,270.48)" d="M2.5,0A2.5,2.5 0 1,1 0,-2.5A2.5,2.5 0 0,1 2.5,0Z" style="opacity: 1; stroke-width: 0px; fill: rgb(88, 86, 132); fill-opacity: 1;"/><path class="point" transform="translate(688.25,279.41)" d="M2.5,0A2.5,2.5 0 1,1 0,-2.5A2.5,2.5 0 0,1 2.5,0Z" style="opacity: 1; stroke-width: 0px; fill: rgb(88, 86, 132); fill-opacity: 1;"/><path class="point" transform="translate(718.01,277.2)" d="M2.5,0A2.5,2.5 0 1,1 0,-2.5A2.5,2.5 0 0,1 2.5,0Z" style="opacity: 1; stroke-width: 0px; fill: rgb(88, 86, 132); fill-opacity: 1;"/><path class="point" transform="translate(720.43,269.81)" d="M2.5,0A2.5,2.5 0 1,1 0,-2.5A2.5,2.5 0 0,1 2.5,0Z" style="opacity: 1; stroke-width: 0px; fill: rgb(88, 86, 132); fill-opacity: 1;"/><path class="point" transform="translate(745.24,275.02)" d="M2.5,0A2.5,2.5 0 1,1 0,-2.5A2.5,2.5 0 0,1 2.5,0Z" style="opacity: 1; stroke-width: 0px; fill: rgb(88, 86, 132); fill-opacity: 1;"/><path class="point" transform="translate(761.7,277.38)" d="M2.5,0A2.5,2.5 0 1,1 0,-2.5A2.5,2.5 0 0,1 2.5,0Z" style="opacity: 1; stroke-width: 0px; fill: rgb(88, 86, 132); fill-opacity: 1;"/><path class="point" transform="translate(765.81,275.2)" d="M2.5,0A2.5,2.5 0 1,1 0,-2.5A2.5,2.5 0 0,1 2.5,0Z" style="opacity: 1; stroke-width: 0px; fill: rgb(88, 86, 132); fill-opacity: 1;"/><path class="point" transform="translate(767.87,274.02)" d="M2.5,0A2.5,2.5 0 1,1 0,-2.5A2.5,2.5 0 0,1 2.5,0Z" style="opacity: 1; stroke-width: 0px; fill: rgb(88, 86, 132); fill-opacity: 1;"/><path class="point" transform="translate(811.91,272.25)" d="M2.5,0A2.5,2.5 0 1,1 0,-2.5A2.5,2.5 0 0,1 2.5,0Z" style="opacity: 1; stroke-width: 0px; fill: rgb(88, 86, 132); fill-opacity: 1;"/><path class="point" transform="translate(839.98,273.51)" d="M2.5,0A2.5,2.5 0 1,1 0,-2.5A2.5,2.5 0 0,1 2.5,0Z" style="opacity: 1; stroke-width: 0px; fill: rgb(88, 86, 132); fill-opacity: 1;"/><path class="point" transform="translate(870.23,274.98)" d="M2.5,0A2.5,2.5 0 1,1 0,-2.5A2.5,2.5 0 0,1 2.5,0Z" style="opacity: 1; stroke-width: 0px; fill: rgb(88, 86, 132); fill-opacity: 1;"/><path class="point" transform="translate(891.77,276.82)" d="M2.5,0A2.5,2.5 0 1,1 0,-2.5A2.5,2.5 0 0,1 2.5,0Z" style="opacity: 1; stroke-width: 0px; fill: rgb(88, 86, 132); fill-opacity: 1;"/></g></g><g class="trace violins" style="opacity: 1;"><path class="violin" d="M489.11,248.13L489.11,247.27Q500.46,246.76 506.13,246.33C511.81,245.9 517.49,245.38 523.15,244.67C528.83,243.96 534.51,243.11 540.17,242.07C545.86,241.03 551.53,239.79 557.19,238.42C562.88,237.04 568.56,235.44 574.22,233.82C579.91,232.2 585.56,230.39 591.24,228.7C596.91,227.01 602.57,225.23 608.26,223.7C613.92,222.18 619.58,220.7 625.28,219.55C630.93,218.41 636.61,217.45 642.3,216.84C647.96,216.23 653.64,215.92 659.32,215.88C664.99,215.84 670.68,216.14 676.35,216.6C682.03,217.06 687.71,217.84 693.37,218.66C699.05,219.48 704.72,220.53 710.39,221.52C716.07,222.51 721.73,223.62 727.41,224.62C733.08,225.62 738.75,226.63 744.43,227.54C750.1,228.45 755.77,229.3 761.45,230.1C767.12,230.9 772.79,231.63 778.47,232.36C784.14,233.09 789.82,233.77 795.5,234.47C801.17,235.17 806.85,235.88 812.52,236.56C818.19,237.24 823.86,237.94 829.54,238.57C835.21,239.19 840.88,239.81 846.56,240.31C852.23,240.81 857.9,241.24 863.58,241.57C869.25,241.9 874.92,242.12 880.6,242.3C886.27,242.48 891.95,242.55 897.63,242.65C903.3,242.75 908.98,242.8 914.65,242.9C920.32,243.01 926,243.11 931.67,243.28C937.34,243.45 943.02,243.68 948.69,243.93C954.36,244.18 960.04,244.49 965.71,244.79C971.38,245.09 977.06,245.43 982.73,245.73C988.4,246.03 994.08,246.32 999.75,246.57C1005.43,246.82 1011.1,247.04 1016.78,247.22Q1022.45,247.4 1033.8,247.65L1033.8,248.13" style="vector-effect: non-scaling-stroke; stroke-width: 2px; stroke: rgb(106, 80, 119); stroke-opacity: 1; fill: rgb(106, 80, 119); fill-opacity: 0.5;"/><g class="points"><path class="point" transform="translate(591.93,238.56)" d="M2.5,0A2.5,2.5 0 1,1 0,-2.5A2.5,2.5 0 0,1 2.5,0Z" style="opacity: 1; stroke-width: 0px; fill: rgb(106, 80, 119); fill-opacity: 1;"/><path class="point" transform="translate(608.39,245.62)" d="M2.5,0A2.5,2.5 0 1,1 0,-2.5A2.5,2.5 0 0,1 2.5,0Z" style="opacity: 1; stroke-width: 0px; fill: rgb(106, 80, 119); fill-opacity: 1;"/><path class="point" transform="translate(617.46,236.96)" d="M2.5,0A2.5,2.5 0 1,1 0,-2.5A2.5,2.5 0 0,1 2.5,0Z" style="opacity: 1; stroke-width: 0px; fill: rgb(106, 80, 119); fill-opacity: 1;"/><path class="point" transform="translate(624.48,246.57)" d="M2.5,0A2.5,2.5 0 1,1 0,-2.5A2.5,2.5 0 0,1 2.5,0Z" style="opacity: 1; stroke-width: 0px; fill: rgb(106, 80, 119); fill-opacity: 1;"/><path class="point" transform="translate(627.87,243.14)" d="M2.5,0A2.5,2.5 0 1,1 0,-2.5A2.5,2.5 0 0,1 2.5,0Z" style="opacity: 1; stroke-width: 0px; fill: rgb(106, 80, 119); fill-opacity: 1;"/><path class="point" transform="translate(630.17,238.49)" d="M2.5,0A2.5,2.5 0 1,1 0,-2.5A2.5,2.5 0 0,1 2.5,0Z" style="opacity: 1; stroke-width: 0px; fill: rgb(106, 80, 119); fill-opacity: 1;"/><path class="point" transform="translate(635.49,241.92)" d="M2.5,0A2.5,2.5 0 1,1 0,-2.5A2.5,2.5 0 0,1 2.5,0Z" style="opacity: 1; stroke-width: 0px; fill: rgb(106, 80, 119); fill-opacity: 1;"/><path class="point" transform="translate(644.2,239.86)" d="M2.5,0A2.5,2.5 0 1,1 0,-2.5A2.5,2.5 0 0,1 2.5,0Z" style="opacity: 1; stroke-width: 0px; fill: rgb(106, 80, 119); fill-opacity: 1;"/><path class="point" transform="translate(658.24,243.58)" d="M2.5,0A2.5,2.5 0 1,1 0,-2.5A2.5,2.5 0 0,1 2.5,0Z" style="opacity: 1; stroke-width: 0px; fill: rgb(106, 80, 119); fill-opacity: 1;"/><path class="point" transform="translate(662.84,246.06)" d="M2.5,0A2.5,2.5 0 1,1 0,-2.5A2.5,2.5 0 0,1 2.5,0Z" style="opacity: 1; stroke-width: 0px; fill: rgb(106, 80, 119); fill-opacity: 1;"/><path class="point" transform="translate(666.95,240.08)" d="M2.5,0A2.5,2.5 0 1,1 0,-2.5A2.5,2.5 0 0,1 2.5,0Z" style="opacity: 1; stroke-width: 0px; fill: rgb(106, 80, 119); fill-opacity: 1;"/><path class="point" transform="translate(674.94,243.71)" d="M2.5,0A2.5,2.5 0 1,1 0,-2.5A2.5,2.5 0 0,1 2.5,0Z" style="opacity: 1; stroke-width: 0px; fill: rgb(106, 80, 119); fill-opacity: 1;"/><path class="point" transform="translate(687.89,238.47)" d="M2.5,0A2.5,2.5 0 1,1 0,-2.5A2.5,2.5 0 0,1 2.5,0Z" style="opacity: 1; stroke-width: 0px; fill: rgb(106, 80, 119); fill-opacity: 1;"/><path class="point" transform="translate(702.77,246.43)" d="M2.5,0A2.5,2.5 0 1,1 0,-2.5A2.5,2.5 0 0,1 2.5,0Z" style="opacity: 1; stroke-width: 0px; fill: rgb(106, 80, 119); fill-opacity: 1;"/><path class="point" transform="translate(705.31,244.33)" d="M2.5,0A2.5,2.5 0 1,1 0,-2.5A2.5,2.5 0 0,1 2.5,0Z" style="opacity: 1; stroke-width: 0px; fill: rgb(106, 80, 119); fill-opacity: 1;"/><path class="point" transform="translate(707,237.62)" d="M2.5,0A2.5,2.5 0 1,1 0,-2.5A2.5,2.5 0 0,1 2.5,0Z" style="opacity: 1; stroke-width: 0px; fill: rgb(106, 80, 119); fill-opacity: 1;"/><path class="point" transform="translate(708.58,242.82)" d="M2.5,0A2.5,2.5 0 1,1 0,-2.5A2.5,2.5 0 0,1 2.5,0Z" style="opacity: 1; stroke-width: 0px; fill: rgb(106, 80, 119); fill-opacity: 1;"/><path class="point" transform="translate(752.14,244.68)" d="M2.5,0A2.5,2.5 0 1,1 0,-2.5A2.5,2.5 0 0,1 2.5,0Z" style="opacity: 1; stroke-width: 0px; fill: rgb(106, 80, 119); fill-opacity: 1;"/><path class="point" transform="translate(774.64,242.83)" d="M2.5,0A2.5,2.5 0 1,1 0,-2.5A2.5,2.5 0 0,1 2.5,0Z" style="opacity: 1; stroke-width: 0px; fill: rgb(106, 80, 119); fill-opacity: 1;"/><path class="point" transform="translate(794.73,241.75)" d="M2.5,0A2.5,2.5 0 1,1 0,-2.5A2.5,2.5 0 0,1 2.5,0Z" style="opacity: 1; stroke-width: 0px; fill: rgb(106, 80, 119); fill-opacity: 1;"/><path class="point" transform="translate(798.6,240.27)" d="M2.5,0A2.5,2.5 0 1,1 0,-2.5A2.5,2.5 0 0,1 2.5,0Z" style="opacity: 1; stroke-width: 0px; fill: rgb(106, 80, 119); fill-opacity: 1;"/><path class="point" transform="translate(810.1,241.35)" d="M2.5,0A2.5,2.5 0 1,1 0,-2.5A2.5,2.5 0 0,1 2.5,0Z" style="opacity: 1; stroke-width: 0px; fill: rgb(106, 80, 119); fill-opacity: 1;"/><path class="point" transform="translate(915.49,242.54)" d="M2.5,0A2.5,2.5 0 1,1 0,-2.5A2.5,2.5 0 0,1 2.5,0Z" style="opacity: 1; stroke-width: 0px; fill: rgb(106, 80, 119); fill-opacity: 1;"/><path class="point" transform="translate(930.97,244.17)" d="M2.5,0A2.5,2.5 0 1,1 0,-2.5A2.5,2.5 0 0,1 2.5,0Z" style="opacity: 1; stroke-width: 0px; fill: rgb(106, 80, 119); fill-opacity: 1;"/></g></g><g class="trace violins" style="opacity: 1;"><path class="violin" d="M535.08,215.88L535.08,215.19Q542.26,214.78 545.84,214.45C549.43,214.11 553.02,213.72 556.6,213.18C560.19,212.64 563.78,211.99 567.35,211.2C570.95,210.4 574.54,209.46 578.11,208.41C581.71,207.35 585.3,206.13 588.87,204.88C592.47,203.62 596.04,202.22 599.62,200.88C603.21,199.53 606.79,198.12 610.38,196.81C613.96,195.51 617.53,194.22 621.13,193.06C624.7,191.91 628.29,190.83 631.89,189.88C635.46,188.93 639.05,188.09 642.65,187.35C646.22,186.61 649.81,185.96 653.4,185.42C656.98,184.88 660.57,184.43 664.16,184.13C667.74,183.83 671.33,183.62 674.91,183.62C678.5,183.62 682.09,183.78 685.67,184.16C689.27,184.54 692.86,185.15 696.43,185.92C700.03,186.7 703.61,187.74 707.18,188.83C710.78,189.94 714.36,191.27 717.94,192.53C721.53,193.8 725.1,195.19 728.69,196.42C732.27,197.65 735.84,198.88 739.45,199.91C743.02,200.93 746.61,201.84 750.21,202.57C753.78,203.29 757.37,203.84 760.96,204.27C764.54,204.7 768.13,204.93 771.72,205.16C775.3,205.39 778.89,205.48 782.47,205.64C786.06,205.8 789.65,205.92 793.23,206.14C796.82,206.37 800.41,206.64 803.99,206.99C807.58,207.35 811.16,207.79 814.74,208.27C818.33,208.75 821.91,209.32 825.5,209.85C829.09,210.38 832.67,210.95 836.26,211.43C839.84,211.91 843.42,212.36 847.01,212.71C850.59,213.06 854.18,213.33 857.77,213.52C861.35,213.71 864.94,213.8 868.52,213.84C872.11,213.88 875.69,213.82 879.28,213.76C882.87,213.7 886.45,213.59 890.04,213.5C893.62,213.42 897.21,213.3 900.79,213.25C904.38,213.2 907.96,213.17 911.55,213.19C915.13,213.21 918.72,213.28 922.3,213.38C925.89,213.48 929.47,213.63 933.06,213.78C936.65,213.93 940.23,214.12 943.82,214.29C947.4,214.46 950.99,214.65 954.57,214.8C958.16,214.96 961.74,215.1 965.33,215.22Q968.91,215.34 976.08,215.52L976.08,215.88" style="vector-effect: non-scaling-stroke; stroke-width: 2px; stroke: rgb(124, 75, 106); stroke-opacity: 1; fill: rgb(124, 75, 106); fill-opacity: 0.5;"/><g class="points"><path class="point" transform="translate(600.89,206.36)" d="M2.5,0A2.5,2.5 0 1,1 0,-2.5A2.5,2.5 0 0,1 2.5,0Z" style="opacity: 1; stroke-width: 0px; fill: rgb(124, 75, 106); fill-opacity: 1;"/><path class="point" transform="translate(620.85,212.96)" d="M2.5,0A2.5,2.5 0 1,1 0,-2.5A2.5,2.5 0 0,1 2.5,0Z" style="opacity: 1; stroke-width: 0px; fill: rgb(124, 75, 106); fill-opacity: 1;"/><path class="point" transform="translate(623.15,205.23)" d="M2.5,0A2.5,2.5 0 1,1 0,-2.5A2.5,2.5 0 0,1 2.5,0Z" style="opacity: 1; stroke-width: 0px; fill: rgb(124, 75, 106); fill-opacity: 1;"/><path class="point" transform="translate(624.97,213.85)" d="M2.5,0A2.5,2.5 0 1,1 0,-2.5A2.5,2.5 0 0,1 2.5,0Z" style="opacity: 1; stroke-width: 0px; fill: rgb(124, 75, 106); fill-opacity: 1;"/><path class="point" transform="translate(625.93,210.77)" d="M2.5,0A2.5,2.5 0 1,1 0,-2.5A2.5,2.5 0 0,1 2.5,0Z" style="opacity: 1; stroke-width: 0px; fill: rgb(124, 75, 106); fill-opacity: 1;"/><path class="point" transform="translate(634.04,206.48)" d="M2.5,0A2.5,2.5 0 1,1 0,-2.5A2.5,2.5 0 0,1 2.5,0Z" style="opacity: 1; stroke-width: 0px; fill: rgb(124, 75, 106); fill-opacity: 1;"/><path class="point" transform="translate(646.02,209.65)" d="M2.5,0A2.5,2.5 0 1,1 0,-2.5A2.5,2.5 0 0,1 2.5,0Z" style="opacity: 1; stroke-width: 0px; fill: rgb(124, 75, 106); fill-opacity: 1;"/><path class="point" transform="translate(656.06,207.72)" d="M2.5,0A2.5,2.5 0 1,1 0,-2.5A2.5,2.5 0 0,1 2.5,0Z" style="opacity: 1; stroke-width: 0px; fill: rgb(124, 75, 106); fill-opacity: 1;"/><path class="point" transform="translate(668.53,211.33)" d="M2.5,0A2.5,2.5 0 1,1 0,-2.5A2.5,2.5 0 0,1 2.5,0Z" style="opacity: 1; stroke-width: 0px; fill: rgb(124, 75, 106); fill-opacity: 1;"/><path class="point" transform="translate(670.95,213.7)" d="M2.5,0A2.5,2.5 0 1,1 0,-2.5A2.5,2.5 0 0,1 2.5,0Z" style="opacity: 1; stroke-width: 0px; fill: rgb(124, 75, 106); fill-opacity: 1;"/><path class="point" transform="translate(674.45,207.88)" d="M2.5,0A2.5,2.5 0 1,1 0,-2.5A2.5,2.5 0 0,1 2.5,0Z" style="opacity: 1; stroke-width: 0px; fill: rgb(124, 75, 106); fill-opacity: 1;"/><path class="point" transform="translate(686.43,211.52)" d="M2.5,0A2.5,2.5 0 1,1 0,-2.5A2.5,2.5 0 0,1 2.5,0Z" style="opacity: 1; stroke-width: 0px; fill: rgb(124, 75, 106); fill-opacity: 1;"/><path class="point" transform="translate(689.82,205.34)" d="M2.5,0A2.5,2.5 0 1,1 0,-2.5A2.5,2.5 0 0,1 2.5,0Z" style="opacity: 1; stroke-width: 0px; fill: rgb(124, 75, 106); fill-opacity: 1;"/><path class="point" transform="translate(690.18,215.56)" d="M2.5,0A2.5,2.5 0 1,1 0,-2.5A2.5,2.5 0 0,1 2.5,0Z" style="opacity: 1; stroke-width: 0px; fill: rgb(124, 75, 106); fill-opacity: 1;"/><path class="point" transform="translate(693.94,212.52)" d="M2.5,0A2.5,2.5 0 1,1 0,-2.5A2.5,2.5 0 0,1 2.5,0Z" style="opacity: 1; stroke-width: 0px; fill: rgb(124, 75, 106); fill-opacity: 1;"/><path class="point" transform="translate(702.89,205.52)" d="M2.5,0A2.5,2.5 0 1,1 0,-2.5A2.5,2.5 0 0,1 2.5,0Z" style="opacity: 1; stroke-width: 0px; fill: rgb(124, 75, 106); fill-opacity: 1;"/><path class="point" transform="translate(703.37,210.56)" d="M2.5,0A2.5,2.5 0 1,1 0,-2.5A2.5,2.5 0 0,1 2.5,0Z" style="opacity: 1; stroke-width: 0px; fill: rgb(124, 75, 106); fill-opacity: 1;"/><path class="point" transform="translate(711.6,213.3)" d="M2.5,0A2.5,2.5 0 1,1 0,-2.5A2.5,2.5 0 0,1 2.5,0Z" style="opacity: 1; stroke-width: 0px; fill: rgb(124, 75, 106); fill-opacity: 1;"/><path class="point" transform="translate(726.73,210.5)" d="M2.5,0A2.5,2.5 0 1,1 0,-2.5A2.5,2.5 0 0,1 2.5,0Z" style="opacity: 1; stroke-width: 0px; fill: rgb(124, 75, 106); fill-opacity: 1;"/><path class="point" transform="translate(752.02,209.49)" d="M2.5,0A2.5,2.5 0 1,1 0,-2.5A2.5,2.5 0 0,1 2.5,0Z" style="opacity: 1; stroke-width: 0px; fill: rgb(124, 75, 106); fill-opacity: 1;"/><path class="point" transform="translate(792.91,208.08)" d="M2.5,0A2.5,2.5 0 1,1 0,-2.5A2.5,2.5 0 0,1 2.5,0Z" style="opacity: 1; stroke-width: 0px; fill: rgb(124, 75, 106); fill-opacity: 1;"/><path class="point" transform="translate(798.72,209.12)" d="M2.5,0A2.5,2.5 0 1,1 0,-2.5A2.5,2.5 0 0,1 2.5,0Z" style="opacity: 1; stroke-width: 0px; fill: rgb(124, 75, 106); fill-opacity: 1;"/><path class="point" transform="translate(803.32,210.17)" d="M2.5,0A2.5,2.5 0 1,1 0,-2.5A2.5,2.5 0 0,1 2.5,0Z" style="opacity: 1; stroke-width: 0px; fill: rgb(124, 75, 106); fill-opacity: 1;"/><path class="point" transform="translate(910.28,211.52)" d="M2.5,0A2.5,2.5 0 1,1 0,-2.5A2.5,2.5 0 0,1 2.5,0Z" style="opacity: 1; stroke-width: 0px; fill: rgb(124, 75, 106); fill-opacity: 1;"/></g></g><g class="trace violins" style="opacity: 1;"><path class="violin" d="M539.19,183.62L539.19,183.03Q546.94,182.68 550.81,182.38C554.69,182.08 558.57,181.73 562.44,181.23C566.32,180.73 570.2,180.15 574.06,179.4C577.95,178.65 581.82,177.76 585.68,176.73C589.57,175.69 593.45,174.49 597.31,173.21C601.2,171.92 605.06,170.46 608.93,169.01C612.81,167.55 616.68,165.97 620.56,164.48C624.43,163 628.29,161.47 632.18,160.11C636.04,158.76 639.91,157.44 643.81,156.34C647.66,155.25 651.54,154.28 655.43,153.53C659.29,152.79 663.17,152.22 667.05,151.86C670.92,151.5 674.8,151.34 678.68,151.37C682.55,151.4 686.44,151.64 690.3,152.05C694.19,152.46 698.07,153.08 701.93,153.84C705.82,154.6 709.69,155.57 713.55,156.62C717.44,157.68 721.31,158.91 725.18,160.15C729.06,161.4 732.93,162.78 736.8,164.08C740.67,165.38 744.53,166.75 748.42,167.97C752.28,169.18 756.16,170.36 760.05,171.38C763.91,172.39 767.78,173.3 771.67,174.05C775.53,174.8 779.42,175.4 783.3,175.9C787.17,176.4 791.04,176.74 794.92,177.03C798.79,177.32 802.67,177.5 806.55,177.66C810.42,177.82 814.3,177.91 818.17,177.99C822.04,178.07 825.92,178.11 829.79,178.14C833.67,178.17 837.54,178.17 841.42,178.16C845.29,178.15 849.17,178.11 853.04,178.06C856.92,178.01 860.79,177.94 864.67,177.87C868.54,177.8 872.42,177.71 876.29,177.64C880.17,177.57 884.04,177.5 887.92,177.47C891.79,177.44 895.67,177.43 899.54,177.46C903.41,177.49 907.29,177.55 911.16,177.64C915.04,177.74 918.91,177.87 922.79,178.03C926.66,178.19 930.54,178.39 934.41,178.6C938.29,178.82 942.16,179.06 946.04,179.32C949.91,179.58 953.79,179.86 957.66,180.14C961.54,180.42 965.41,180.71 969.29,180.98C973.16,181.25 977.04,181.53 980.91,181.77C984.78,182.01 988.66,182.24 992.53,182.43C996.41,182.62 1000.28,182.78 1004.16,182.92Q1008.03,183.06 1015.78,183.25L1015.78,183.62" style="vector-effect: non-scaling-stroke; stroke-width: 2px; stroke: rgb(142, 70, 92); stroke-opacity: 1; fill: rgb(142, 70, 92); fill-opacity: 0.5;"/><g class="points"><path class="point" transform="translate(609.11,174.28)" d="M2.5,0A2.5,2.5 0 1,1 0,-2.5A2.5,2.5 0 0,1 2.5,0Z" style="opacity: 1; stroke-width: 0px; fill: rgb(142, 70, 92); fill-opacity: 1;"/><path class="point" transform="translate(632.1,180.51)" d="M2.5,0A2.5,2.5 0 1,1 0,-2.5A2.5,2.5 0 0,1 2.5,0Z" style="opacity: 1; stroke-width: 0px; fill: rgb(142, 70, 92); fill-opacity: 1;"/><path class="point" transform="translate(635.49,173.02)" d="M2.5,0A2.5,2.5 0 1,1 0,-2.5A2.5,2.5 0 0,1 2.5,0Z" style="opacity: 1; stroke-width: 0px; fill: rgb(142, 70, 92); fill-opacity: 1;"/><path class="point" transform="translate(641.78,181.72)" d="M2.5,0A2.5,2.5 0 1,1 0,-2.5A2.5,2.5 0 0,1 2.5,0Z" style="opacity: 1; stroke-width: 0px; fill: rgb(142, 70, 92); fill-opacity: 1;"/><path class="point" transform="translate(642.63,178.47)" d="M2.5,0A2.5,2.5 0 1,1 0,-2.5A2.5,2.5 0 0,1 2.5,0Z" style="opacity: 1; stroke-width: 0px; fill: rgb(142, 70, 92); fill-opacity: 1;"/><path class="point" transform="translate(645.9,174.28)" d="M2.5,0A2.5,2.5 0 1,1 0,-2.5A2.5,2.5 0 0,1 2.5,0Z" style="opacity: 1; stroke-width: 0px; fill: rgb(142, 70, 92); fill-opacity: 1;"/><path class="point" transform="translate(659.09,177.4)" d="M2.5,0A2.5,2.5 0 1,1 0,-2.5A2.5,2.5 0 0,1 2.5,0Z" style="opacity: 1; stroke-width: 0px; fill: rgb(142, 70, 92); fill-opacity: 1;"/><path class="point" transform="translate(665.02,175.36)" d="M2.5,0A2.5,2.5 0 1,1 0,-2.5A2.5,2.5 0 0,1 2.5,0Z" style="opacity: 1; stroke-width: 0px; fill: rgb(142, 70, 92); fill-opacity: 1;"/><path class="point" transform="translate(672.28,179.23)" d="M2.5,0A2.5,2.5 0 1,1 0,-2.5A2.5,2.5 0 0,1 2.5,0Z" style="opacity: 1; stroke-width: 0px; fill: rgb(142, 70, 92); fill-opacity: 1;"/><path class="point" transform="translate(683.17,181.25)" d="M2.5,0A2.5,2.5 0 1,1 0,-2.5A2.5,2.5 0 0,1 2.5,0Z" style="opacity: 1; stroke-width: 0px; fill: rgb(142, 70, 92); fill-opacity: 1;"/><path class="point" transform="translate(684.38,175.65)" d="M2.5,0A2.5,2.5 0 1,1 0,-2.5A2.5,2.5 0 0,1 2.5,0Z" style="opacity: 1; stroke-width: 0px; fill: rgb(142, 70, 92); fill-opacity: 1;"/><path class="point" transform="translate(691.15,179.15)" d="M2.5,0A2.5,2.5 0 1,1 0,-2.5A2.5,2.5 0 0,1 2.5,0Z" style="opacity: 1; stroke-width: 0px; fill: rgb(142, 70, 92); fill-opacity: 1;"/><path class="point" transform="translate(694.3,173.56)" d="M2.5,0A2.5,2.5 0 1,1 0,-2.5A2.5,2.5 0 0,1 2.5,0Z" style="opacity: 1; stroke-width: 0px; fill: rgb(142, 70, 92); fill-opacity: 1;"/><path class="point" transform="translate(696.72,182.92)" d="M2.5,0A2.5,2.5 0 1,1 0,-2.5A2.5,2.5 0 0,1 2.5,0Z" style="opacity: 1; stroke-width: 0px; fill: rgb(142, 70, 92); fill-opacity: 1;"/><path class="point" transform="translate(716.32,179.84)" d="M2.5,0A2.5,2.5 0 1,1 0,-2.5A2.5,2.5 0 0,1 2.5,0Z" style="opacity: 1; stroke-width: 0px; fill: rgb(142, 70, 92); fill-opacity: 1;"/><path class="point" transform="translate(716.56,173.65)" d="M2.5,0A2.5,2.5 0 1,1 0,-2.5A2.5,2.5 0 0,1 2.5,0Z" style="opacity: 1; stroke-width: 0px; fill: rgb(142, 70, 92); fill-opacity: 1;"/><path class="point" transform="translate(722.13,178.05)" d="M2.5,0A2.5,2.5 0 1,1 0,-2.5A2.5,2.5 0 0,1 2.5,0Z" style="opacity: 1; stroke-width: 0px; fill: rgb(142, 70, 92); fill-opacity: 1;"/><path class="point" transform="translate(735.32,180)" d="M2.5,0A2.5,2.5 0 1,1 0,-2.5A2.5,2.5 0 0,1 2.5,0Z" style="opacity: 1; stroke-width: 0px; fill: rgb(142, 70, 92); fill-opacity: 1;"/><path class="point" transform="translate(737.86,178.17)" d="M2.5,0A2.5,2.5 0 1,1 0,-2.5A2.5,2.5 0 0,1 2.5,0Z" style="opacity: 1; stroke-width: 0px; fill: rgb(142, 70, 92); fill-opacity: 1;"/><path class="point" transform="translate(790.61,177.24)" d="M2.5,0A2.5,2.5 0 1,1 0,-2.5A2.5,2.5 0 0,1 2.5,0Z" style="opacity: 1; stroke-width: 0px; fill: rgb(142, 70, 92); fill-opacity: 1;"/><path class="point" transform="translate(828.37,175.9)" d="M2.5,0A2.5,2.5 0 1,1 0,-2.5A2.5,2.5 0 0,1 2.5,0Z" style="opacity: 1; stroke-width: 0px; fill: rgb(142, 70, 92); fill-opacity: 1;"/><path class="point" transform="translate(877.98,176.87)" d="M2.5,0A2.5,2.5 0 1,1 0,-2.5A2.5,2.5 0 0,1 2.5,0Z" style="opacity: 1; stroke-width: 0px; fill: rgb(142, 70, 92); fill-opacity: 1;"/><path class="point" transform="translate(904.72,177.89)" d="M2.5,0A2.5,2.5 0 1,1 0,-2.5A2.5,2.5 0 0,1 2.5,0Z" style="opacity: 1; stroke-width: 0px; fill: rgb(142, 70, 92); fill-opacity: 1;"/><path class="point" transform="translate(945.86,179.13)" d="M2.5,0A2.5,2.5 0 1,1 0,-2.5A2.5,2.5 0 0,1 2.5,0Z" style="opacity: 1; stroke-width: 0px; fill: rgb(142, 70, 92); fill-opacity: 1;"/></g></g><g class="trace violins" style="opacity: 1;"><path class="violin" d="M458.08,151.37L458.08,150.79Q469.97,150.46 475.91,150.18C481.86,149.9 487.8,149.58 493.74,149.13C499.69,148.68 505.63,148.14 511.57,147.46C517.52,146.78 523.47,145.98 529.4,145.06C535.35,144.14 541.3,143.07 547.23,141.93C553.18,140.78 559.12,139.49 565.06,138.19C571.01,136.89 576.95,135.48 582.89,134.12C588.83,132.77 594.77,131.36 600.72,130.06C606.66,128.76 612.6,127.48 618.55,126.34C624.48,125.2 630.43,124.12 636.38,123.2C642.31,122.29 648.26,121.48 654.21,120.85C660.15,120.22 666.09,119.73 672.04,119.44C677.98,119.15 683.93,119.03 689.87,119.11C695.81,119.19 701.76,119.48 707.7,119.91C713.65,120.34 719.59,120.99 725.53,121.71C731.48,122.43 737.42,123.35 743.36,124.25C749.31,125.15 755.25,126.17 761.19,127.11C767.13,128.05 773.07,129.02 779.02,129.89C784.96,130.76 790.9,131.59 796.85,132.35C802.79,133.11 808.74,133.78 814.68,134.45C820.62,135.12 826.56,135.71 832.5,136.35C838.44,136.99 844.39,137.6 850.33,138.27C856.27,138.94 862.22,139.64 868.16,140.36C874.1,141.08 880.05,141.86 885.99,142.6C891.93,143.34 897.87,144.11 903.82,144.79C909.76,145.47 915.7,146.12 921.65,146.66C927.59,147.19 933.53,147.65 939.48,148C945.42,148.34 951.37,148.57 957.31,148.73C963.25,148.89 969.2,148.94 975.14,148.96C981.08,148.98 987.03,148.92 992.97,148.88C998.91,148.84 1004.86,148.76 1010.8,148.73C1016.74,148.7 1022.69,148.68 1028.63,148.71C1034.57,148.74 1040.52,148.8 1046.46,148.9C1052.4,149 1058.35,149.15 1064.29,149.3C1070.23,149.45 1076.18,149.64 1082.12,149.81C1088.06,149.98 1094.01,150.16 1099.95,150.31C1105.89,150.46 1111.84,150.6 1117.78,150.72Q1123.72,150.84 1135.61,151.02L1135.61,151.37" style="vector-effect: non-scaling-stroke; stroke-width: 2px; stroke: rgb(160, 64, 79); stroke-opacity: 1; fill: rgb(160, 64, 79); fill-opacity: 0.5;"/><g class="points"><path class="point" transform="translate(566.64,142.29)" d="M2.5,0A2.5,2.5 0 1,1 0,-2.5A2.5,2.5 0 0,1 2.5,0Z" style="opacity: 1; stroke-width: 0px; fill: rgb(160, 64, 79); fill-opacity: 1;"/><path class="point" transform="translate(604.27,148.36)" d="M2.5,0A2.5,2.5 0 1,1 0,-2.5A2.5,2.5 0 0,1 2.5,0Z" style="opacity: 1; stroke-width: 0px; fill: rgb(160, 64, 79); fill-opacity: 1;"/><path class="point" transform="translate(608.03,140.9)" d="M2.5,0A2.5,2.5 0 1,1 0,-2.5A2.5,2.5 0 0,1 2.5,0Z" style="opacity: 1; stroke-width: 0px; fill: rgb(160, 64, 79); fill-opacity: 1;"/><path class="point" transform="translate(613.59,149.36)" d="M2.5,0A2.5,2.5 0 1,1 0,-2.5A2.5,2.5 0 0,1 2.5,0Z" style="opacity: 1; stroke-width: 0px; fill: rgb(160, 64, 79); fill-opacity: 1;"/><path class="point" transform="translate(617.1,146.24)" d="M2.5,0A2.5,2.5 0 1,1 0,-2.5A2.5,2.5 0 0,1 2.5,0Z" style="opacity: 1; stroke-width: 0px; fill: rgb(160, 64, 79); fill-opacity: 1;"/><path class="point" transform="translate(642.15,142.01)" d="M2.5,0A2.5,2.5 0 1,1 0,-2.5A2.5,2.5 0 0,1 2.5,0Z" style="opacity: 1; stroke-width: 0px; fill: rgb(160, 64, 79); fill-opacity: 1;"/><path class="point" transform="translate(646.38,145.16)" d="M2.5,0A2.5,2.5 0 1,1 0,-2.5A2.5,2.5 0 0,1 2.5,0Z" style="opacity: 1; stroke-width: 0px; fill: rgb(160, 64, 79); fill-opacity: 1;"/><path class="point" transform="translate(667.44,143.05)" d="M2.5,0A2.5,2.5 0 1,1 0,-2.5A2.5,2.5 0 0,1 2.5,0Z" style="opacity: 1; stroke-width: 0px; fill: rgb(160, 64, 79); fill-opacity: 1;"/><path class="point" transform="translate(679.05,146.91)" d="M2.5,0A2.5,2.5 0 1,1 0,-2.5A2.5,2.5 0 0,1 2.5,0Z" style="opacity: 1; stroke-width: 0px; fill: rgb(160, 64, 79); fill-opacity: 1;"/><path class="point" transform="translate(686.8,149.23)" d="M2.5,0A2.5,2.5 0 1,1 0,-2.5A2.5,2.5 0 0,1 2.5,0Z" style="opacity: 1; stroke-width: 0px; fill: rgb(160, 64, 79); fill-opacity: 1;"/><path class="point" transform="translate(693.33,143.2)" d="M2.5,0A2.5,2.5 0 1,1 0,-2.5A2.5,2.5 0 0,1 2.5,0Z" style="opacity: 1; stroke-width: 0px; fill: rgb(160, 64, 79); fill-opacity: 1;"/><path class="point" transform="translate(698.17,146.95)" d="M2.5,0A2.5,2.5 0 1,1 0,-2.5A2.5,2.5 0 0,1 2.5,0Z" style="opacity: 1; stroke-width: 0px; fill: rgb(160, 64, 79); fill-opacity: 1;"/><path class="point" transform="translate(701.07,140.99)" d="M2.5,0A2.5,2.5 0 1,1 0,-2.5A2.5,2.5 0 0,1 2.5,0Z" style="opacity: 1; stroke-width: 0px; fill: rgb(160, 64, 79); fill-opacity: 1;"/><path class="point" transform="translate(712.45,150.91)" d="M2.5,0A2.5,2.5 0 1,1 0,-2.5A2.5,2.5 0 0,1 2.5,0Z" style="opacity: 1; stroke-width: 0px; fill: rgb(160, 64, 79); fill-opacity: 1;"/><path class="point" transform="translate(728.9,148.09)" d="M2.5,0A2.5,2.5 0 1,1 0,-2.5A2.5,2.5 0 0,1 2.5,0Z" style="opacity: 1; stroke-width: 0px; fill: rgb(160, 64, 79); fill-opacity: 1;"/><path class="point" transform="translate(736.16,140.51)" d="M2.5,0A2.5,2.5 0 1,1 0,-2.5A2.5,2.5 0 0,1 2.5,0Z" style="opacity: 1; stroke-width: 0px; fill: rgb(160, 64, 79); fill-opacity: 1;"/><path class="point" transform="translate(748.02,146.17)" d="M2.5,0A2.5,2.5 0 1,1 0,-2.5A2.5,2.5 0 0,1 2.5,0Z" style="opacity: 1; stroke-width: 0px; fill: rgb(160, 64, 79); fill-opacity: 1;"/><path class="point" transform="translate(768.35,149.09)" d="M2.5,0A2.5,2.5 0 1,1 0,-2.5A2.5,2.5 0 0,1 2.5,0Z" style="opacity: 1; stroke-width: 0px; fill: rgb(160, 64, 79); fill-opacity: 1;"/><path class="point" transform="translate(781.3,146.08)" d="M2.5,0A2.5,2.5 0 1,1 0,-2.5A2.5,2.5 0 0,1 2.5,0Z" style="opacity: 1; stroke-width: 0px; fill: rgb(160, 64, 79); fill-opacity: 1;"/><path class="point" transform="translate(815.18,144.99)" d="M2.5,0A2.5,2.5 0 1,1 0,-2.5A2.5,2.5 0 0,1 2.5,0Z" style="opacity: 1; stroke-width: 0px; fill: rgb(160, 64, 79); fill-opacity: 1;"/><path class="point" transform="translate(849.18,143.45)" d="M2.5,0A2.5,2.5 0 1,1 0,-2.5A2.5,2.5 0 0,1 2.5,0Z" style="opacity: 1; stroke-width: 0px; fill: rgb(160, 64, 79); fill-opacity: 1;"/><path class="point" transform="translate(853.66,144.57)" d="M2.5,0A2.5,2.5 0 1,1 0,-2.5A2.5,2.5 0 0,1 2.5,0Z" style="opacity: 1; stroke-width: 0px; fill: rgb(160, 64, 79); fill-opacity: 1;"/><path class="point" transform="translate(864.67,145.76)" d="M2.5,0A2.5,2.5 0 1,1 0,-2.5A2.5,2.5 0 0,1 2.5,0Z" style="opacity: 1; stroke-width: 0px; fill: rgb(160, 64, 79); fill-opacity: 1;"/><path class="point" transform="translate(1027.05,147.26)" d="M2.5,0A2.5,2.5 0 1,1 0,-2.5A2.5,2.5 0 0,1 2.5,0Z" style="opacity: 1; stroke-width: 0px; fill: rgb(160, 64, 79); fill-opacity: 1;"/></g></g><g class="trace violins" style="opacity: 1;"><path class="violin" d="M482.17,119.11L482.17,117.76Q495.89,117 502.74,116.41C509.6,115.82 516.46,115.11 523.31,114.21C530.18,113.31 537.04,112.23 543.88,111C550.75,109.77 557.6,108.33 564.44,106.84C571.31,105.34 578.16,103.64 585.01,102.02C591.87,100.4 598.72,98.66 605.58,97.1C612.43,95.55 619.27,93.99 626.14,92.69C632.98,91.4 639.84,90.22 646.71,89.33C653.55,88.44 660.42,87.77 667.28,87.36C674.13,86.95 680.99,86.8 687.84,86.86C694.7,86.92 701.56,87.26 708.41,87.74C715.27,88.22 722.13,88.95 728.98,89.75C735.84,90.55 742.7,91.55 749.55,92.55C756.41,93.55 763.26,94.68 770.11,95.76C776.97,96.84 783.82,97.97 790.68,99.01C797.53,100.05 804.39,101.08 811.25,102.01C818.1,102.94 824.95,103.81 831.81,104.6C838.66,105.39 845.52,106.09 852.38,106.73C859.23,107.37 866.09,107.93 872.95,108.45C879.8,108.97 886.65,109.41 893.51,109.84C900.36,110.26 907.22,110.64 914.08,111C920.94,111.36 927.79,111.68 934.65,111.99C941.5,112.3 948.36,112.59 955.21,112.86C962.07,113.13 968.92,113.38 975.78,113.63C982.64,113.87 989.49,114.11 996.35,114.33C1003.21,114.55 1010.06,114.75 1016.92,114.97C1023.77,115.18 1030.63,115.4 1037.48,115.62C1044.34,115.84 1051.19,116.05 1058.05,116.27C1064.91,116.49 1071.76,116.72 1078.62,116.94C1085.47,117.16 1092.33,117.38 1099.18,117.57C1106.04,117.76 1112.89,117.94 1119.75,118.1C1126.61,118.26 1133.46,118.39 1140.32,118.51Q1147.17,118.62 1160.88,118.79L1160.88,119.11" style="vector-effect: non-scaling-stroke; stroke-width: 2px; stroke: rgb(179, 59, 66); stroke-opacity: 1; fill: rgb(179, 59, 66); fill-opacity: 0.5;"/><g class="points"><path class="point" transform="translate(608.03,109.32)" d="M2.5,0A2.5,2.5 0 1,1 0,-2.5A2.5,2.5 0 0,1 2.5,0Z" style="opacity: 1; stroke-width: 0px; fill: rgb(179, 59, 66); fill-opacity: 1;"/><path class="point" transform="translate(613.47,116.39)" d="M2.5,0A2.5,2.5 0 1,1 0,-2.5A2.5,2.5 0 0,1 2.5,0Z" style="opacity: 1; stroke-width: 0px; fill: rgb(179, 59, 66); fill-opacity: 1;"/><path class="point" transform="translate(623.39,109.11)" d="M2.5,0A2.5,2.5 0 1,1 0,-2.5A2.5,2.5 0 0,1 2.5,0Z" style="opacity: 1; stroke-width: 0px; fill: rgb(179, 59, 66); fill-opacity: 1;"/><path class="point" transform="translate(628.96,116.8)" d="M2.5,0A2.5,2.5 0 1,1 0,-2.5A2.5,2.5 0 0,1 2.5,0Z" style="opacity: 1; stroke-width: 0px; fill: rgb(179, 59, 66); fill-opacity: 1;"/><path class="point" transform="translate(630.89,113.89)" d="M2.5,0A2.5,2.5 0 1,1 0,-2.5A2.5,2.5 0 0,1 2.5,0Z" style="opacity: 1; stroke-width: 0px; fill: rgb(179, 59, 66); fill-opacity: 1;"/><path class="point" transform="translate(633.43,110.13)" d="M2.5,0A2.5,2.5 0 1,1 0,-2.5A2.5,2.5 0 0,1 2.5,0Z" style="opacity: 1; stroke-width: 0px; fill: rgb(179, 59, 66); fill-opacity: 1;"/><path class="point" transform="translate(645.17,112.84)" d="M2.5,0A2.5,2.5 0 1,1 0,-2.5A2.5,2.5 0 0,1 2.5,0Z" style="opacity: 1; stroke-width: 0px; fill: rgb(179, 59, 66); fill-opacity: 1;"/><path class="point" transform="translate(678.57,111.2)" d="M2.5,0A2.5,2.5 0 1,1 0,-2.5A2.5,2.5 0 0,1 2.5,0Z" style="opacity: 1; stroke-width: 0px; fill: rgb(179, 59, 66); fill-opacity: 1;"/><path class="point" transform="translate(678.81,114.11)" d="M2.5,0A2.5,2.5 0 1,1 0,-2.5A2.5,2.5 0 0,1 2.5,0Z" style="opacity: 1; stroke-width: 0px; fill: rgb(179, 59, 66); fill-opacity: 1;"/><path class="point" transform="translate(684.86,115.92)" d="M2.5,0A2.5,2.5 0 1,1 0,-2.5A2.5,2.5 0 0,1 2.5,0Z" style="opacity: 1; stroke-width: 0px; fill: rgb(179, 59, 66); fill-opacity: 1;"/><path class="point" transform="translate(699.02,111.47)" d="M2.5,0A2.5,2.5 0 1,1 0,-2.5A2.5,2.5 0 0,1 2.5,0Z" style="opacity: 1; stroke-width: 0px; fill: rgb(179, 59, 66); fill-opacity: 1;"/><path class="point" transform="translate(702.89,114.13)" d="M2.5,0A2.5,2.5 0 1,1 0,-2.5A2.5,2.5 0 0,1 2.5,0Z" style="opacity: 1; stroke-width: 0px; fill: rgb(179, 59, 66); fill-opacity: 1;"/><path class="point" transform="translate(706.16,109.69)" d="M2.5,0A2.5,2.5 0 1,1 0,-2.5A2.5,2.5 0 0,1 2.5,0Z" style="opacity: 1; stroke-width: 0px; fill: rgb(179, 59, 66); fill-opacity: 1;"/><path class="point" transform="translate(731.93,116.62)" d="M2.5,0A2.5,2.5 0 1,1 0,-2.5A2.5,2.5 0 0,1 2.5,0Z" style="opacity: 1; stroke-width: 0px; fill: rgb(179, 59, 66); fill-opacity: 1;"/><path class="point" transform="translate(738.1,114.92)" d="M2.5,0A2.5,2.5 0 1,1 0,-2.5A2.5,2.5 0 0,1 2.5,0Z" style="opacity: 1; stroke-width: 0px; fill: rgb(179, 59, 66); fill-opacity: 1;"/><path class="point" transform="translate(739.55,109.42)" d="M2.5,0A2.5,2.5 0 1,1 0,-2.5A2.5,2.5 0 0,1 2.5,0Z" style="opacity: 1; stroke-width: 0px; fill: rgb(179, 59, 66); fill-opacity: 1;"/><path class="point" transform="translate(751.29,113.47)" d="M2.5,0A2.5,2.5 0 1,1 0,-2.5A2.5,2.5 0 0,1 2.5,0Z" style="opacity: 1; stroke-width: 0px; fill: rgb(179, 59, 66); fill-opacity: 1;"/><path class="point" transform="translate(774.88,115.2)" d="M2.5,0A2.5,2.5 0 1,1 0,-2.5A2.5,2.5 0 0,1 2.5,0Z" style="opacity: 1; stroke-width: 0px; fill: rgb(179, 59, 66); fill-opacity: 1;"/><path class="point" transform="translate(806.95,113.54)" d="M2.5,0A2.5,2.5 0 1,1 0,-2.5A2.5,2.5 0 0,1 2.5,0Z" style="opacity: 1; stroke-width: 0px; fill: rgb(179, 59, 66); fill-opacity: 1;"/><path class="point" transform="translate(823.28,112.72)" d="M2.5,0A2.5,2.5 0 1,1 0,-2.5A2.5,2.5 0 0,1 2.5,0Z" style="opacity: 1; stroke-width: 0px; fill: rgb(179, 59, 66); fill-opacity: 1;"/><path class="point" transform="translate(856.68,111.59)" d="M2.5,0A2.5,2.5 0 1,1 0,-2.5A2.5,2.5 0 0,1 2.5,0Z" style="opacity: 1; stroke-width: 0px; fill: rgb(179, 59, 66); fill-opacity: 1;"/><path class="point" transform="translate(904.6,112.41)" d="M2.5,0A2.5,2.5 0 1,1 0,-2.5A2.5,2.5 0 0,1 2.5,0Z" style="opacity: 1; stroke-width: 0px; fill: rgb(179, 59, 66); fill-opacity: 1;"/><path class="point" transform="translate(947.67,113.29)" d="M2.5,0A2.5,2.5 0 1,1 0,-2.5A2.5,2.5 0 0,1 2.5,0Z" style="opacity: 1; stroke-width: 0px; fill: rgb(179, 59, 66); fill-opacity: 1;"/><path class="point" transform="translate(1035.03,114.46)" d="M2.5,0A2.5,2.5 0 1,1 0,-2.5A2.5,2.5 0 0,1 2.5,0Z" style="opacity: 1; stroke-width: 0px; fill: rgb(179, 59, 66); fill-opacity: 1;"/></g></g><g class="trace violins" style="opacity: 1;"><path class="violin" d="M495.78,86.86L495.78,85.91Q507.63,85.36 513.55,84.92C519.47,84.48 525.4,83.96 531.31,83.26C537.24,82.56 543.17,81.72 549.08,80.72C555.02,79.72 560.94,78.53 566.85,77.24C572.79,75.94 578.71,74.45 584.62,72.95C590.55,71.44 596.46,69.78 602.38,68.21C608.3,66.65 614.21,65 620.15,63.56C626.06,62.12 631.98,60.71 637.92,59.56C643.83,58.42 649.75,57.42 655.69,56.67C661.6,55.92 667.52,55.39 673.45,55.05C679.37,54.71 685.3,54.61 691.22,54.6C697.14,54.59 703.07,54.78 708.99,55C714.91,55.22 720.83,55.54 726.75,55.9C732.67,56.26 738.6,56.67 744.52,57.16C750.45,57.65 756.37,58.18 762.29,58.85C768.22,59.52 774.15,60.29 780.06,61.19C785.99,62.09 791.91,63.14 797.82,64.23C803.75,65.33 809.67,66.59 815.59,67.77C821.51,68.95 827.43,70.23 833.36,71.32C839.28,72.41 845.2,73.48 851.13,74.32C857.04,75.16 862.96,75.84 868.89,76.35C874.81,76.86 880.73,77.15 886.66,77.36C892.58,77.57 898.51,77.58 904.43,77.6C910.35,77.62 916.27,77.51 922.19,77.48C928.11,77.45 934.04,77.4 939.96,77.45C945.88,77.5 951.81,77.6 957.73,77.78C963.65,77.96 969.58,78.22 975.5,78.53C981.42,78.84 987.34,79.24 993.26,79.64C999.18,80.04 1005.11,80.51 1011.03,80.95C1016.95,81.39 1022.88,81.86 1028.8,82.3C1034.72,82.73 1040.65,83.17 1046.57,83.56C1052.49,83.95 1058.41,84.32 1064.33,84.64C1070.25,84.96 1076.18,85.23 1082.1,85.47C1088.02,85.71 1093.95,85.91 1099.87,86.07Q1105.79,86.23 1117.63,86.44L1117.63,86.86" style="vector-effect: non-scaling-stroke; stroke-width: 2px; stroke: rgb(197, 53, 52); stroke-opacity: 1; fill: rgb(197, 53, 52); fill-opacity: 0.5;"/><g class="points"><path class="point" transform="translate(603.18,77.3)" d="M2.5,0A2.5,2.5 0 1,1 0,-2.5A2.5,2.5 0 0,1 2.5,0Z" style="opacity: 1; stroke-width: 0px; fill: rgb(197, 53, 52); fill-opacity: 1;"/><path class="point" transform="translate(613.35,84.18)" d="M2.5,0A2.5,2.5 0 1,1 0,-2.5A2.5,2.5 0 0,1 2.5,0Z" style="opacity: 1; stroke-width: 0px; fill: rgb(197, 53, 52); fill-opacity: 1;"/><path class="point" transform="translate(633.31,76.04)" d="M2.5,0A2.5,2.5 0 1,1 0,-2.5A2.5,2.5 0 0,1 2.5,0Z" style="opacity: 1; stroke-width: 0px; fill: rgb(197, 53, 52); fill-opacity: 1;"/><path class="point" transform="translate(633.56,85.48)" d="M2.5,0A2.5,2.5 0 1,1 0,-2.5A2.5,2.5 0 0,1 2.5,0Z" style="opacity: 1; stroke-width: 0px; fill: rgb(197, 53, 52); fill-opacity: 1;"/><path class="point" transform="translate(653.52,81.95)" d="M2.5,0A2.5,2.5 0 1,1 0,-2.5A2.5,2.5 0 0,1 2.5,0Z" style="opacity: 1; stroke-width: 0px; fill: rgb(197, 53, 52); fill-opacity: 1;"/><path class="point" transform="translate(655.58,77.02)" d="M2.5,0A2.5,2.5 0 1,1 0,-2.5A2.5,2.5 0 0,1 2.5,0Z" style="opacity: 1; stroke-width: 0px; fill: rgb(197, 53, 52); fill-opacity: 1;"/><path class="point" transform="translate(667.32,80.63)" d="M2.5,0A2.5,2.5 0 1,1 0,-2.5A2.5,2.5 0 0,1 2.5,0Z" style="opacity: 1; stroke-width: 0px; fill: rgb(197, 53, 52); fill-opacity: 1;"/><path class="point" transform="translate(686.07,78.67)" d="M2.5,0A2.5,2.5 0 1,1 0,-2.5A2.5,2.5 0 0,1 2.5,0Z" style="opacity: 1; stroke-width: 0px; fill: rgb(197, 53, 52); fill-opacity: 1;"/><path class="point" transform="translate(686.55,82.18)" d="M2.5,0A2.5,2.5 0 1,1 0,-2.5A2.5,2.5 0 0,1 2.5,0Z" style="opacity: 1; stroke-width: 0px; fill: rgb(197, 53, 52); fill-opacity: 1;"/><path class="point" transform="translate(689.82,84.57)" d="M2.5,0A2.5,2.5 0 1,1 0,-2.5A2.5,2.5 0 0,1 2.5,0Z" style="opacity: 1; stroke-width: 0px; fill: rgb(197, 53, 52); fill-opacity: 1;"/><path class="point" transform="translate(693.33,78.94)" d="M2.5,0A2.5,2.5 0 1,1 0,-2.5A2.5,2.5 0 0,1 2.5,0Z" style="opacity: 1; stroke-width: 0px; fill: rgb(197, 53, 52); fill-opacity: 1;"/><path class="point" transform="translate(717.29,82.28)" d="M2.5,0A2.5,2.5 0 1,1 0,-2.5A2.5,2.5 0 0,1 2.5,0Z" style="opacity: 1; stroke-width: 0px; fill: rgb(197, 53, 52); fill-opacity: 1;"/><path class="point" transform="translate(737.62,76.51)" d="M2.5,0A2.5,2.5 0 1,1 0,-2.5A2.5,2.5 0 0,1 2.5,0Z" style="opacity: 1; stroke-width: 0px; fill: rgb(197, 53, 52); fill-opacity: 1;"/><path class="point" transform="translate(755.04,86.11)" d="M2.5,0A2.5,2.5 0 1,1 0,-2.5A2.5,2.5 0 0,1 2.5,0Z" style="opacity: 1; stroke-width: 0px; fill: rgb(197, 53, 52); fill-opacity: 1;"/><path class="point" transform="translate(769.8,83.55)" d="M2.5,0A2.5,2.5 0 1,1 0,-2.5A2.5,2.5 0 0,1 2.5,0Z" style="opacity: 1; stroke-width: 0px; fill: rgb(197, 53, 52); fill-opacity: 1;"/><path class="point" transform="translate(779.48,76.68)" d="M2.5,0A2.5,2.5 0 1,1 0,-2.5A2.5,2.5 0 0,1 2.5,0Z" style="opacity: 1; stroke-width: 0px; fill: rgb(197, 53, 52); fill-opacity: 1;"/><path class="point" transform="translate(782.87,81.43)" d="M2.5,0A2.5,2.5 0 1,1 0,-2.5A2.5,2.5 0 0,1 2.5,0Z" style="opacity: 1; stroke-width: 0px; fill: rgb(197, 53, 52); fill-opacity: 1;"/><path class="point" transform="translate(785.29,84.02)" d="M2.5,0A2.5,2.5 0 1,1 0,-2.5A2.5,2.5 0 0,1 2.5,0Z" style="opacity: 1; stroke-width: 0px; fill: rgb(197, 53, 52); fill-opacity: 1;"/><path class="point" transform="translate(795.94,81.68)" d="M2.5,0A2.5,2.5 0 1,1 0,-2.5A2.5,2.5 0 0,1 2.5,0Z" style="opacity: 1; stroke-width: 0px; fill: rgb(197, 53, 52); fill-opacity: 1;"/><path class="point" transform="translate(817.23,80.49)" d="M2.5,0A2.5,2.5 0 1,1 0,-2.5A2.5,2.5 0 0,1 2.5,0Z" style="opacity: 1; stroke-width: 0px; fill: rgb(197, 53, 52); fill-opacity: 1;"/><path class="point" transform="translate(904.84,78.79)" d="M2.5,0A2.5,2.5 0 1,1 0,-2.5A2.5,2.5 0 0,1 2.5,0Z" style="opacity: 1; stroke-width: 0px; fill: rgb(197, 53, 52); fill-opacity: 1;"/><path class="point" transform="translate(943.44,80.03)" d="M2.5,0A2.5,2.5 0 1,1 0,-2.5A2.5,2.5 0 0,1 2.5,0Z" style="opacity: 1; stroke-width: 0px; fill: rgb(197, 53, 52); fill-opacity: 1;"/><path class="point" transform="translate(949.61,81.3)" d="M2.5,0A2.5,2.5 0 1,1 0,-2.5A2.5,2.5 0 0,1 2.5,0Z" style="opacity: 1; stroke-width: 0px; fill: rgb(197, 53, 52); fill-opacity: 1;"/><path class="point" transform="translate(1010.23,82.88)" d="M2.5,0A2.5,2.5 0 1,1 0,-2.5A2.5,2.5 0 0,1 2.5,0Z" style="opacity: 1; stroke-width: 0px; fill: rgb(197, 53, 52); fill-opacity: 1;"/></g></g><g class="trace violins" style="opacity: 1;"><path class="violin" d="M486.11,54.6L486.11,53.56Q499.33,52.98 505.94,52.51C512.56,52.04 519.17,51.48 525.78,50.75C532.4,50.02 539.02,49.16 545.62,48.14C552.24,47.12 558.85,45.92 565.45,44.64C572.07,43.35 578.68,41.89 585.29,40.43C591.91,38.97 598.51,37.38 605.12,35.89C611.73,34.4 618.34,32.86 624.96,31.5C631.56,30.14 638.17,28.82 644.79,27.72C651.39,26.62 658.01,25.65 664.63,24.88C671.23,24.11 677.85,23.52 684.47,23.1C691.08,22.68 697.69,22.45 704.3,22.35C710.91,22.25 717.53,22.33 724.14,22.52C730.75,22.71 737.36,23.06 743.97,23.51C750.59,23.97 757.2,24.55 763.81,25.25C770.43,25.95 777.04,26.78 783.65,27.69C790.27,28.6 796.87,29.64 803.48,30.72C810.1,31.8 816.71,32.99 823.32,34.17C829.93,35.35 836.54,36.61 843.15,37.79C849.76,38.97 856.37,40.17 862.99,41.24C869.59,42.31 876.2,43.35 882.82,44.23C889.43,45.11 896.04,45.9 902.66,46.54C909.27,47.18 915.88,47.69 922.5,48.08C929.11,48.47 935.72,48.72 942.33,48.89C948.94,49.06 955.56,49.09 962.17,49.12C968.78,49.15 975.39,49.08 982,49.06C988.61,49.04 995.23,48.97 1001.84,48.99C1008.45,49.01 1015.06,49.04 1021.67,49.15C1028.28,49.26 1034.9,49.44 1041.51,49.64C1048.12,49.85 1054.74,50.12 1061.35,50.38C1067.96,50.64 1074.57,50.94 1081.18,51.18C1087.79,51.42 1094.41,51.65 1101.02,51.82C1107.63,51.99 1114.24,52.11 1120.85,52.18C1127.46,52.25 1134.08,52.25 1140.69,52.23C1147.3,52.21 1153.92,52.13 1160.53,52.08C1167.14,52.03 1173.75,51.94 1180.36,51.91C1186.97,51.88 1193.59,51.86 1200.2,51.89C1206.81,51.92 1213.42,51.99 1220.03,52.09C1226.64,52.19 1233.26,52.34 1239.87,52.5C1246.48,52.65 1253.09,52.85 1259.7,53.02C1266.31,53.19 1272.93,53.37 1279.54,53.53C1286.15,53.68 1292.77,53.83 1299.38,53.95Q1305.99,54.07 1319.21,54.25L1319.21,54.6" style="vector-effect: non-scaling-stroke; stroke-width: 2px; stroke: rgb(215, 48, 39); stroke-opacity: 1; fill: rgb(215, 48, 39); fill-opacity: 0.5;"/><g class="points"><path class="point" transform="translate(606.69,45.32)" d="M2.5,0A2.5,2.5 0 1,1 0,-2.5A2.5,2.5 0 0,1 2.5,0Z" style="opacity: 1; stroke-width: 0px; fill: rgb(215, 48, 39); fill-opacity: 1;"/><path class="point" transform="translate(618.31,51.87)" d="M2.5,0A2.5,2.5 0 1,1 0,-2.5A2.5,2.5 0 0,1 2.5,0Z" style="opacity: 1; stroke-width: 0px; fill: rgb(215, 48, 39); fill-opacity: 1;"/><path class="point" transform="translate(622.42,43.38)" d="M2.5,0A2.5,2.5 0 1,1 0,-2.5A2.5,2.5 0 0,1 2.5,0Z" style="opacity: 1; stroke-width: 0px; fill: rgb(215, 48, 39); fill-opacity: 1;"/><path class="point" transform="translate(634.89,53.61)" d="M2.5,0A2.5,2.5 0 1,1 0,-2.5A2.5,2.5 0 0,1 2.5,0Z" style="opacity: 1; stroke-width: 0px; fill: rgb(215, 48, 39); fill-opacity: 1;"/><path class="point" transform="translate(668.89,49.5)" d="M2.5,0A2.5,2.5 0 1,1 0,-2.5A2.5,2.5 0 0,1 2.5,0Z" style="opacity: 1; stroke-width: 0px; fill: rgb(215, 48, 39); fill-opacity: 1;"/><path class="point" transform="translate(669.37,45.24)" d="M2.5,0A2.5,2.5 0 1,1 0,-2.5A2.5,2.5 0 0,1 2.5,0Z" style="opacity: 1; stroke-width: 0px; fill: rgb(215, 48, 39); fill-opacity: 1;"/><path class="point" transform="translate(673,48.37)" d="M2.5,0A2.5,2.5 0 1,1 0,-2.5A2.5,2.5 0 0,1 2.5,0Z" style="opacity: 1; stroke-width: 0px; fill: rgb(215, 48, 39); fill-opacity: 1;"/><path class="point" transform="translate(676.03,46.48)" d="M2.5,0A2.5,2.5 0 1,1 0,-2.5A2.5,2.5 0 0,1 2.5,0Z" style="opacity: 1; stroke-width: 0px; fill: rgb(215, 48, 39); fill-opacity: 1;"/><path class="point" transform="translate(678.81,49.92)" d="M2.5,0A2.5,2.5 0 1,1 0,-2.5A2.5,2.5 0 0,1 2.5,0Z" style="opacity: 1; stroke-width: 0px; fill: rgb(215, 48, 39); fill-opacity: 1;"/><path class="point" transform="translate(718.98,52.86)" d="M2.5,0A2.5,2.5 0 1,1 0,-2.5A2.5,2.5 0 0,1 2.5,0Z" style="opacity: 1; stroke-width: 0px; fill: rgb(215, 48, 39); fill-opacity: 1;"/><path class="point" transform="translate(728.78,46.57)" d="M2.5,0A2.5,2.5 0 1,1 0,-2.5A2.5,2.5 0 0,1 2.5,0Z" style="opacity: 1; stroke-width: 0px; fill: rgb(215, 48, 39); fill-opacity: 1;"/><path class="point" transform="translate(731.81,49.93)" d="M2.5,0A2.5,2.5 0 1,1 0,-2.5A2.5,2.5 0 0,1 2.5,0Z" style="opacity: 1; stroke-width: 0px; fill: rgb(215, 48, 39); fill-opacity: 1;"/><path class="point" transform="translate(734.95,44.86)" d="M2.5,0A2.5,2.5 0 1,1 0,-2.5A2.5,2.5 0 0,1 2.5,0Z" style="opacity: 1; stroke-width: 0px; fill: rgb(215, 48, 39); fill-opacity: 1;"/><path class="point" transform="translate(756.73,53.22)" d="M2.5,0A2.5,2.5 0 1,1 0,-2.5A2.5,2.5 0 0,1 2.5,0Z" style="opacity: 1; stroke-width: 0px; fill: rgb(215, 48, 39); fill-opacity: 1;"/><path class="point" transform="translate(759.88,51.59)" d="M2.5,0A2.5,2.5 0 1,1 0,-2.5A2.5,2.5 0 0,1 2.5,0Z" style="opacity: 1; stroke-width: 0px; fill: rgb(215, 48, 39); fill-opacity: 1;"/><path class="point" transform="translate(775.85,43.93)" d="M2.5,0A2.5,2.5 0 1,1 0,-2.5A2.5,2.5 0 0,1 2.5,0Z" style="opacity: 1; stroke-width: 0px; fill: rgb(215, 48, 39); fill-opacity: 1;"/><path class="point" transform="translate(802.23,49.09)" d="M2.5,0A2.5,2.5 0 1,1 0,-2.5A2.5,2.5 0 0,1 2.5,0Z" style="opacity: 1; stroke-width: 0px; fill: rgb(215, 48, 39); fill-opacity: 1;"/><path class="point" transform="translate(815.06,51.2)" d="M2.5,0A2.5,2.5 0 1,1 0,-2.5A2.5,2.5 0 0,1 2.5,0Z" style="opacity: 1; stroke-width: 0px; fill: rgb(215, 48, 39); fill-opacity: 1;"/><path class="point" transform="translate(817.36,49.12)" d="M2.5,0A2.5,2.5 0 1,1 0,-2.5A2.5,2.5 0 0,1 2.5,0Z" style="opacity: 1; stroke-width: 0px; fill: rgb(215, 48, 39); fill-opacity: 1;"/><path class="point" transform="translate(825.46,48.21)" d="M2.5,0A2.5,2.5 0 1,1 0,-2.5A2.5,2.5 0 0,1 2.5,0Z" style="opacity: 1; stroke-width: 0px; fill: rgb(215, 48, 39); fill-opacity: 1;"/><path class="point" transform="translate(893.46,46.96)" d="M2.5,0A2.5,2.5 0 1,1 0,-2.5A2.5,2.5 0 0,1 2.5,0Z" style="opacity: 1; stroke-width: 0px; fill: rgb(215, 48, 39); fill-opacity: 1;"/><path class="point" transform="translate(1001.4,47.87)" d="M2.5,0A2.5,2.5 0 1,1 0,-2.5A2.5,2.5 0 0,1 2.5,0Z" style="opacity: 1; stroke-width: 0px; fill: rgb(215, 48, 39); fill-opacity: 1;"/><path class="point" transform="translate(1032.37,48.84)" d="M2.5,0A2.5,2.5 0 1,1 0,-2.5A2.5,2.5 0 0,1 2.5,0Z" style="opacity: 1; stroke-width: 0px; fill: rgb(215, 48, 39); fill-opacity: 1;"/><path class="point" transform="translate(1198.63,50.01)" d="M2.5,0A2.5,2.5 0 1,1 0,-2.5A2.5,2.5 0 0,1 2.5,0Z" style="opacity: 1; stroke-width: 0px; fill: rgb(215, 48, 39); fill-opacity: 1;"/></g></g></g></g><g class="overplot"/><path class="xlines-above crisp" d="M0,0" style="fill: none;"/><path class="ylines-above crisp" d="M0,0" style="fill: none;"/><g class="overlines-above"/><g class="xaxislayer-above"><g class="xtick"><text text-anchor="middle" x="0" y="460" transform="translate(231,0)" style="font-family: 'Open Sans', verdana, arial, sans-serif; font-size: 12px; fill: rgb(42, 63, 95); fill-opacity: 1; white-space: pre;">20</text></g><g class="xtick"><text text-anchor="middle" x="0" y="460" transform="translate(473,0)" style="font-family: 'Open Sans', verdana, arial, sans-serif; font-size: 12px; fill: rgb(42, 63, 95); fill-opacity: 1; white-space: pre;">10</text></g><g class="xtick"><text text-anchor="middle" x="0" y="460" transform="translate(715,0)" style="font-family: 'Open Sans', verdana, arial, sans-serif; font-size: 12px; fill: rgb(42, 63, 95); fill-opacity: 1; white-space: pre;">0</text></g><g class="xtick"><text text-anchor="middle" x="0" y="460" transform="translate(957,0)" style="font-family: 'Open Sans', verdana, arial, sans-serif; font-size: 12px; fill: rgb(42, 63, 95); fill-opacity: 1; white-space: pre;">10</text></g><g class="xtick"><text text-anchor="middle" x="0" y="460" transform="translate(1199,0)" style="font-family: 'Open Sans', verdana, arial, sans-serif; font-size: 12px; fill: rgb(42, 63, 95); fill-opacity: 1; white-space: pre;">20</text></g></g><g class="yaxislayer-above"><g class="ytick"><text text-anchor="end" x="109" y="4.199999999999999" transform="translate(0,427.15)" style="font-family: 'Open Sans', verdana, arial, sans-serif; font-size: 12px; fill: rgb(42, 63, 95); fill-opacity: 1; white-space: pre;">Sample 80-1_H3</text></g><g class="ytick"><text text-anchor="end" x="109" y="4.199999999999999" transform="translate(0,394.9)" style="font-family: 'Open Sans', verdana, arial, sans-serif; font-size: 12px; fill: rgb(42, 63, 95); fill-opacity: 1; white-space: pre;">Sample 4-2_B2</text></g><g class="ytick"><text text-anchor="end" x="109" y="4.199999999999999" transform="translate(0,362.64)" style="font-family: 'Open Sans', verdana, arial, sans-serif; font-size: 12px; fill: rgb(42, 63, 95); fill-opacity: 1; white-space: pre;">Sample 117-2_C4</text></g><g class="ytick"><text text-anchor="end" x="109" y="4.199999999999999" transform="translate(0,330.39)" style="font-family: 'Open Sans', verdana, arial, sans-serif; font-size: 12px; fill: rgb(42, 63, 95); fill-opacity: 1; white-space: pre;">Sample 11-1_A3</text></g><g class="ytick"><text text-anchor="end" x="109" y="4.199999999999999" transform="translate(0,298.13)" style="font-family: 'Open Sans', verdana, arial, sans-serif; font-size: 12px; fill: rgb(42, 63, 95); fill-opacity: 1; white-space: pre;">Sample 4-1_B2</text></g><g class="ytick"><text text-anchor="end" x="109" y="4.199999999999999" transform="translate(0,265.88)" style="font-family: 'Open Sans', verdana, arial, sans-serif; font-size: 12px; fill: rgb(42, 63, 95); fill-opacity: 1; white-space: pre;">Sample 69-1_F3</text></g><g class="ytick"><text text-anchor="end" x="109" y="4.199999999999999" transform="translate(0,233.62)" style="font-family: 'Open Sans', verdana, arial, sans-serif; font-size: 12px; fill: rgb(42, 63, 95); fill-opacity: 1; white-space: pre;">Sample 7-2_F2</text></g><g class="ytick"><text text-anchor="end" x="109" y="4.199999999999999" transform="translate(0,201.37)" style="font-family: 'Open Sans', verdana, arial, sans-serif; font-size: 12px; fill: rgb(42, 63, 95); fill-opacity: 1; white-space: pre;">Sample 7-1_E2</text></g><g class="ytick"><text text-anchor="end" x="109" y="4.199999999999999" transform="translate(0,169.11)" style="font-family: 'Open Sans', verdana, arial, sans-serif; font-size: 12px; fill: rgb(42, 63, 95); fill-opacity: 1; white-space: pre;">Sample 134-2_A5</text></g><g class="ytick"><text text-anchor="end" x="109" y="4.199999999999999" transform="translate(0,136.86)" style="font-family: 'Open Sans', verdana, arial, sans-serif; font-size: 12px; fill: rgb(42, 63, 95); fill-opacity: 1; white-space: pre;">Sample 131-1_F4</text></g><g class="ytick"><text text-anchor="end" x="109" y="4.199999999999999" transform="translate(0,104.6)" style="font-family: 'Open Sans', verdana, arial, sans-serif; font-size: 12px; fill: rgb(42, 63, 95); fill-opacity: 1; white-space: pre;">Sample 134-1_H4</text></g></g><g class="overaxes-above"/></g></g><g class="polarlayer"/><g class="ternarylayer"/><g class="geolayer"/><g class="funnelarealayer"/><g class="pielayer"/><g class="treemaplayer"/><g class="sunburstlayer"/><g class="glimages"/><defs id="topdefs-648ecf"><g class="clips"/></defs><g class="layer-above"><g class="imagelayer"/><g class="shapelayer"/></g><g class="infolayer"><g class="g-gtitle"/><g class="g-xtitle"><text class="xtitle" x="715" y="487.8" text-anchor="middle" style="font-family: 'Open Sans', verdana, arial, sans-serif; font-size: 14px; fill: rgb(42, 63, 95); opacity: 1; font-weight: normal; white-space: pre;">CpG median log likelihood ratio</text></g><g class="g-ytitle"/><g class="annotation" data-index="0" style="opacity: 1;"><g class="annotation-text-g" transform="rotate(0,715,35.17999999999998)"><g class="cursor-pointer" transform="translate(683, 26)"><rect class="bg" x="0.5" y="0.5" width="63" height="17" style="stroke-width: 1px; stroke: rgb(0, 0, 0); stroke-opacity: 0; fill: rgb(0, 0, 0); fill-opacity: 0;"/><text class="annotation-text" text-anchor="middle" x="32.03125" y="13" style="font-family: 'Open Sans', verdana, arial, sans-serif; font-size: 12px; fill: rgb(100, 100, 100); fill-opacity: 1; white-space: pre;">Ambiguous</text></g></g></g><g class="annotation" data-index="1" style="opacity: 1;"><g class="annotation-text-g" transform="rotate(0,400.4,35.17999999999998)"><g class="cursor-pointer" transform="translate(361, 26)"><rect class="bg" x="0.5" y="0.5" width="77" height="17" style="stroke-width: 1px; stroke: rgb(0, 0, 0); stroke-opacity: 0; fill: rgb(0, 0, 0); fill-opacity: 0;"/><text class="annotation-text" text-anchor="middle" x="39.03125" y="13" style="font-family: 'Open Sans', verdana, arial, sans-serif; font-size: 12px; fill: rgb(33, 102, 172); fill-opacity: 1; white-space: pre;">Unmethylated</text></g></g></g><g class="annotation" data-index="2" style="opacity: 1;"><g class="annotation-text-g" transform="rotate(0,1029.6,35.17999999999998)"><g class="cursor-pointer" transform="translate(998, 26)"><rect class="bg" x="0.5" y="0.5" width="62" height="17" style="stroke-width: 1px; stroke: rgb(0, 0, 0); stroke-opacity: 0; fill: rgb(0, 0, 0); fill-opacity: 0;"/><text class="annotation-text" text-anchor="middle" x="31.359375" y="13" style="font-family: 'Open Sans', verdana, arial, sans-serif; font-size: 12px; fill: rgb(215, 48, 39); fill-opacity: 1; white-space: pre;">Methylated</text></g></g></g></g></svg>