<svg class="main-svg" xmlns="http://www.w3.org/2000/svg" xmlns:xlink="http://www.w3.org/1999/xlink" width="1400" height="500" style="" viewBox="0 0 1400 500"><rect x="0" y="0" width="1400" height="500" style="fill: rgb(255, 255, 255); fill-opacity: 1;"/><defs id="defs-87e577"><g class="clips"><clipPath id="clip87e577xyplot" class="plotclip"><rect width="1210" height="397"/></clipPath><clipPath class="axesclip" id="clip87e577x"><rect x="110" y="0" width="1210" height="500"/></clipPath><clipPath class="axesclip" id="clip87e577y"><rect x="0" y="50" width="1400" height="397"/></clipPath><clipPath class="axesclip" id="clip87e577xy"><rect x="110" y="50" width="1210" height="397"/></clipPath></g><g class="gradients"/></defs><g class="bglayer"><rect class="bg" x="110" y="50" width="1210" height="397" style="fill: rgb(0, 0, 0); fill-opacity: 0; stroke-width: 0;"/></g><g class="layer-below"><g class="imagelayer"/><g class="shapelayer"><path data-index="0" fill-rule="evenodd" d="M715,447H790.63V50H715Z" clip-path="url('#clip87e577x')" style="opacity: 0.25; stroke: rgb(0, 0, 0); stroke-opacity: 0; fill: rgb(100, 100, 100); fill-opacity: 1; stroke-width: 0px;"/></g></g><g class="cartesianlayer"><g class="subplot xy"><g class="layer-subplot"><g class="shapelayer"/><g class="imagelayer"/></g><g class="gridlayer"><g class="x"/><g class="y"><path class="ygrid crisp" transform="translate(0,427.15)" d="M110,0h1210" style="stroke: rgb(211, 211, 211); stroke-opacity: 1; stroke-width: 1px;"/><path class="ygrid crisp" transform="translate(0,397.58)" d="M110,0h1210" style="stroke: rgb(211, 211, 211); stroke-opacity: 1; stroke-width: 1px;"/><path class="ygrid crisp" transform="translate(0,368.02)" d="M110,0h1210" style="stroke: rgb(211, 211, 211); stroke-opacity: 1; stroke-width: 1px;"/><path class="ygrid crisp" transform="translate(0,338.45)" d="M110,0h1210" style="stroke: rgb(211, 211, 211); stroke-opacity: 1; stroke-width: 1px;"/><path class="ygrid crisp" transform="translate(0,308.88)" d="M110,0h1210" style="stroke: rgb(211, 211, 211); stroke-opacity: 1; stroke-width: 1px;"/><path class="ygrid crisp" transform="translate(0,279.32)" d="M110,0h1210" style="stroke: rgb(211, 211, 211); stroke-opacity: 1; stroke-width: 1px;"/><path class="ygrid crisp" transform="translate(0,249.75)" d="M110,0h1210" style="stroke: rgb(211, 211, 211); stroke-opacity: 1; stroke-width: 1px;"/><path class="ygrid crisp" transform="translate(0,220.18)" d="M110,0h1210" style="stroke: rgb(211, 211, 211); stroke-opacity: 1; stroke-width: 1px;"/><path class="ygrid crisp" transform="translate(0,190.62)" d="M110,0h1210" style="stroke: rgb(211, 211, 211); stroke-opacity: 1; stroke-width: 1px;"/><path class="ygrid crisp" transform="translate(0,161.05)" d="M110,0h1210" style="stroke: rgb(211, 211, 211); stroke-opacity: 1; stroke-width: 1px;"/><path class="ygrid crisp" transform="translate(0,131.48000000000002)" d="M110,0h1210" style="stroke: rgb(211, 211, 211); stroke-opacity: 1; stroke-width: 1px;"/><path class="ygrid crisp" transform="translate(0,101.92)" d="M110,0h1210" style="stroke: rgb(211, 211, 211); stroke-opacity: 1; stroke-width: 1px;"/></g></g><g class="zerolinelayer"/><path class="xlines-below"/><path class="ylines-below"/><g class="overlines-below"/><g class="xaxislayer-below"/><g class="yaxislayer-below"/><g class="overaxes-below"/><g class="plot" transform="translate(110, 50)" clip-path="url('#clip87e577xyplot')"><g class="violinlayer mlayer"><g class="trace violins" style="opacity: 1;"><path class="violin" d="M-151.86,377.15L-151.86,376.78Q-131.75,376.58 -121.69,376.43C-111.63,376.28 -101.58,376.11 -91.52,375.89C-81.46,375.67 -71.41,375.41 -61.35,375.13C-51.29,374.85 -41.24,374.52 -31.18,374.19C-21.12,373.86 -11.07,373.5 -1.01,373.14C9.05,372.78 19.1,372.41 29.16,372.05C39.22,371.69 49.27,371.34 59.33,370.98C69.39,370.62 79.44,370.28 89.5,369.91C99.56,369.54 109.61,369.16 119.67,368.75C129.73,368.33 139.78,367.9 149.84,367.42C159.9,366.94 169.95,366.42 180.01,365.89C190.07,365.36 200.12,364.78 210.18,364.22C220.24,363.65 230.29,363.07 240.35,362.5C250.41,361.94 260.46,361.38 270.52,360.83C280.58,360.28 290.63,359.75 300.69,359.2C310.75,358.65 320.8,358.12 330.86,357.55C340.92,356.98 350.97,356.4 361.03,355.8C371.09,355.2 381.14,354.56 391.2,353.93C401.26,353.29 411.31,352.63 421.37,351.99C431.43,351.35 441.48,350.68 451.54,350.1C461.6,349.52 471.65,348.93 481.71,348.51C491.76,348.09 501.82,347.71 511.88,347.58C521.94,347.45 532,347.46 542.05,347.75C552.11,348.04 562.17,348.57 572.22,349.35C582.29,350.14 592.35,351.23 602.39,352.46C612.46,353.7 622.51,355.23 632.56,356.76C642.62,358.29 652.67,360.03 662.73,361.62C672.78,363.21 682.83,364.86 692.9,366.29C702.95,367.72 713,369.07 723.07,370.21C733.12,371.35 743.18,372.31 753.24,373.11C763.29,373.91 773.35,374.51 783.41,375.01Q793.46,375.51 813.58,376.12L813.58,377.15" style="vector-effect: non-scaling-stroke; stroke-width: 2px; stroke: rgb(33, 102, 172); stroke-opacity: 1; fill: rgb(33, 102, 172); fill-opacity: 0.5;"/><g class="points"><path class="point" transform="translate(31.57,369.81)" d="M2.5,0A2.5,2.5 0 1,1 0,-2.5A2.5,2.5 0 0,1 2.5,0Z" style="opacity: 1; stroke-width: 0px; fill: rgb(33, 102, 172); fill-opacity: 1;"/><path class="point" transform="translate(83.94,372.98)" d="M2.5,0A2.5,2.5 0 1,1 0,-2.5A2.5,2.5 0 0,1 2.5,0Z" style="opacity: 1; stroke-width: 0px; fill: rgb(33, 102, 172); fill-opacity: 1;"/><path class="point" transform="translate(163.73,369.02)" d="M2.5,0A2.5,2.5 0 1,1 0,-2.5A2.5,2.5 0 0,1 2.5,0Z" style="opacity: 1; stroke-width: 0px; fill: rgb(33, 102, 172); fill-opacity: 1;"/><path class="point" transform="translate(237.84,373.74)" d="M2.5,0A2.5,2.5 0 1,1 0,-2.5A2.5,2.5 0 0,1 2.5,0Z" style="opacity: 1; stroke-width: 0px; fill: rgb(33, 102, 172); fill-opacity: 1;"/><path class="point" transform="translate(244.84,371.94)" d="M2.5,0A2.5,2.5 0 1,1 0,-2.5A2.5,2.5 0 0,1 2.5,0Z" style="opacity: 1; stroke-width: 0px; fill: rgb(33, 102, 172); fill-opacity: 1;"/><path class="point" transform="translate(253.72,369.67)" d="M2.5,0A2.5,2.5 0 1,1 0,-2.5A2.5,2.5 0 0,1 2.5,0Z" style="opacity: 1; stroke-width: 0px; fill: rgb(33, 102, 172); fill-opacity: 1;"/><path class="point" transform="translate(301.74,371.35)" d="M2.5,0A2.5,2.5 0 1,1 0,-2.5A2.5,2.5 0 0,1 2.5,0Z" style="opacity: 1; stroke-width: 0px; fill: rgb(33, 102, 172); fill-opacity: 1;"/><path class="point" transform="translate(320.27,370.21)" d="M2.5,0A2.5,2.5 0 1,1 0,-2.5A2.5,2.5 0 0,1 2.5,0Z" style="opacity: 1; stroke-width: 0px; fill: rgb(33, 102, 172); fill-opacity: 1;"/><path class="point" transform="translate(340.69,372.53)" d="M2.5,0A2.5,2.5 0 1,1 0,-2.5A2.5,2.5 0 0,1 2.5,0Z" style="opacity: 1; stroke-width: 0px; fill: rgb(33, 102, 172); fill-opacity: 1;"/><path class="point" transform="translate(409.7,374.23)" d="M2.5,0A2.5,2.5 0 1,1 0,-2.5A2.5,2.5 0 0,1 2.5,0Z" style="opacity: 1; stroke-width: 0px; fill: rgb(33, 102, 172); fill-opacity: 1;"/><path class="point" transform="translate(410.64,370.23)" d="M2.5,0A2.5,2.5 0 1,1 0,-2.5A2.5,2.5 0 0,1 2.5,0Z" style="opacity: 1; stroke-width: 0px; fill: rgb(33, 102, 172); fill-opacity: 1;"/><path class="point" transform="translate(420.66,372.5)" d="M2.5,0A2.5,2.5 0 1,1 0,-2.5A2.5,2.5 0 0,1 2.5,0Z" style="opacity: 1; stroke-width: 0px; fill: rgb(33, 102, 172); fill-opacity: 1;"/><path class="point" transform="translate(434.84,368.74)" d="M2.5,0A2.5,2.5 0 1,1 0,-2.5A2.5,2.5 0 0,1 2.5,0Z" style="opacity: 1; stroke-width: 0px; fill: rgb(33, 102, 172); fill-opacity: 1;"/><path class="point" transform="translate(444.3,375.12)" d="M2.5,0A2.5,2.5 0 1,1 0,-2.5A2.5,2.5 0 0,1 2.5,0Z" style="opacity: 1; stroke-width: 0px; fill: rgb(33, 102, 172); fill-opacity: 1;"/><path class="point" transform="translate(446.94,374.02)" d="M2.5,0A2.5,2.5 0 1,1 0,-2.5A2.5,2.5 0 0,1 2.5,0Z" style="opacity: 1; stroke-width: 0px; fill: rgb(33, 102, 172); fill-opacity: 1;"/><path class="point" transform="translate(491.56,367)" d="M2.5,0A2.5,2.5 0 1,1 0,-2.5A2.5,2.5 0 0,1 2.5,0Z" style="opacity: 1; stroke-width: 0px; fill: rgb(33, 102, 172); fill-opacity: 1;"/><path class="point" transform="translate(532.21,372.43)" d="M2.5,0A2.5,2.5 0 1,1 0,-2.5A2.5,2.5 0 0,1 2.5,0Z" style="opacity: 1; stroke-width: 0px; fill: rgb(33, 102, 172); fill-opacity: 1;"/><path class="point" transform="translate(538.07,375.36)" d="M2.5,0A2.5,2.5 0 1,1 0,-2.5A2.5,2.5 0 0,1 2.5,0Z" style="opacity: 1; stroke-width: 0px; fill: rgb(33, 102, 172); fill-opacity: 1;"/><path class="point" transform="translate(552.82,372.82)" d="M2.5,0A2.5,2.5 0 1,1 0,-2.5A2.5,2.5 0 0,1 2.5,0Z" style="opacity: 1; stroke-width: 0px; fill: rgb(33, 102, 172); fill-opacity: 1;"/><path class="point" transform="translate(556.22,371.34)" d="M2.5,0A2.5,2.5 0 1,1 0,-2.5A2.5,2.5 0 0,1 2.5,0Z" style="opacity: 1; stroke-width: 0px; fill: rgb(33, 102, 172); fill-opacity: 1;"/><path class="point" transform="translate(557.73,368.76)" d="M2.5,0A2.5,2.5 0 1,1 0,-2.5A2.5,2.5 0 0,1 2.5,0Z" style="opacity: 1; stroke-width: 0px; fill: rgb(33, 102, 172); fill-opacity: 1;"/><path class="point" transform="translate(570.59,370.58)" d="M2.5,0A2.5,2.5 0 1,1 0,-2.5A2.5,2.5 0 0,1 2.5,0Z" style="opacity: 1; stroke-width: 0px; fill: rgb(33, 102, 172); fill-opacity: 1;"/><path class="point" transform="translate(581.56,372.86)" d="M2.5,0A2.5,2.5 0 1,1 0,-2.5A2.5,2.5 0 0,1 2.5,0Z" style="opacity: 1; stroke-width: 0px; fill: rgb(33, 102, 172); fill-opacity: 1;"/><path class="point" transform="translate(591.95,376.18)" d="M2.5,0A2.5,2.5 0 1,1 0,-2.5A2.5,2.5 0 0,1 2.5,0Z" style="opacity: 1; stroke-width: 0px; fill: rgb(33, 102, 172); fill-opacity: 1;"/><path class="point" transform="translate(601.98,371.25)" d="M2.5,0A2.5,2.5 0 1,1 0,-2.5A2.5,2.5 0 0,1 2.5,0Z" style="opacity: 1; stroke-width: 0px; fill: rgb(33, 102, 172); fill-opacity: 1;"/><path class="point" transform="translate(602.92,372.78)" d="M2.5,0A2.5,2.5 0 1,1 0,-2.5A2.5,2.5 0 0,1 2.5,0Z" style="opacity: 1; stroke-width: 0px; fill: rgb(33, 102, 172); fill-opacity: 1;"/><path class="point" transform="translate(630.15,368.76)" d="M2.5,0A2.5,2.5 0 1,1 0,-2.5A2.5,2.5 0 0,1 2.5,0Z" style="opacity: 1; stroke-width: 0px; fill: rgb(33, 102, 172); fill-opacity: 1;"/></g></g><g class="trace violins" style="opacity: 1;"><path class="violin" d="M97.87,347.58L97.87,347.16Q112.6,346.93 119.97,346.75C127.34,346.57 134.7,346.36 142.07,346.1C149.44,345.84 156.8,345.53 164.17,345.18C171.54,344.83 178.9,344.42 186.27,344.01C193.63,343.6 201,343.14 208.36,342.72C215.73,342.29 223.09,341.85 230.46,341.46C237.83,341.08 245.19,340.71 252.56,340.41C259.93,340.11 267.29,339.85 274.66,339.64C282.03,339.43 289.39,339.29 296.76,339.16C304.12,339.03 311.49,338.95 318.85,338.85C326.22,338.75 333.58,338.69 340.95,338.57C348.32,338.45 355.68,338.34 363.05,338.15C370.42,337.96 377.78,337.73 385.15,337.42C392.52,337.11 399.89,336.74 407.25,336.28C414.62,335.81 421.98,335.26 429.34,334.63C436.71,333.99 444.08,333.26 451.44,332.47C458.81,331.68 466.18,330.79 473.54,329.89C480.91,328.99 488.27,328.01 495.64,327.07C503.01,326.13 510.37,325.13 517.74,324.23C525.1,323.33 532.46,322.42 539.83,321.65C547.19,320.88 554.56,320.15 561.93,319.59C569.29,319.03 576.66,318.56 584.03,318.3C591.39,318.04 598.76,317.93 606.13,318.02C613.5,318.11 620.87,318.4 628.23,318.87C635.6,319.34 642.97,320.04 650.33,320.86C657.7,321.69 665.06,322.73 672.42,323.82C679.79,324.91 687.16,326.18 694.52,327.42C701.89,328.66 709.25,330 716.62,331.25C723.98,332.5 731.35,333.75 738.72,334.9C746.08,336.04 753.45,337.14 760.82,338.12C768.18,339.1 775.54,339.99 782.91,340.78C790.27,341.57 797.64,342.25 805.01,342.86C812.37,343.47 819.74,343.98 827.11,344.44C834.47,344.89 841.84,345.26 849.21,345.59C856.58,345.91 863.94,346.17 871.31,346.39C878.67,346.61 886.04,346.78 893.4,346.92Q900.77,347.06 915.5,347.24L915.5,347.58" style="vector-effect: non-scaling-stroke; stroke-width: 2px; stroke: rgb(50, 97, 160); stroke-opacity: 1; fill: rgb(50, 97, 160); fill-opacity: 0.5;"/><g class="points"><path class="point" transform="translate(233.3,340.24)" d="M2.5,0A2.5,2.5 0 1,1 0,-2.5A2.5,2.5 0 0,1 2.5,0Z" style="opacity: 1; stroke-width: 0px; fill: rgb(50, 97, 160); fill-opacity: 1;"/><path class="point" transform="translate(269.98,343.43)" d="M2.5,0A2.5,2.5 0 1,1 0,-2.5A2.5,2.5 0 0,1 2.5,0Z" style="opacity: 1; stroke-width: 0px; fill: rgb(50, 97, 160); fill-opacity: 1;"/><path class="point" transform="translate(286.62,339.44)" d="M2.5,0A2.5,2.5 0 1,1 0,-2.5A2.5,2.5 0 0,1 2.5,0Z" style="opacity: 1; stroke-width: 0px; fill: rgb(50, 97, 160); fill-opacity: 1;"/><path class="point" transform="translate(363,344.23)" d="M2.5,0A2.5,2.5 0 1,1 0,-2.5A2.5,2.5 0 0,1 2.5,0Z" style="opacity: 1; stroke-width: 0px; fill: rgb(50, 97, 160); fill-opacity: 1;"/><path class="point" transform="translate(376.23,342.43)" d="M2.5,0A2.5,2.5 0 1,1 0,-2.5A2.5,2.5 0 0,1 2.5,0Z" style="opacity: 1; stroke-width: 0px; fill: rgb(50, 97, 160); fill-opacity: 1;"/><path class="point" transform="translate(435.6,339.99)" d="M2.5,0A2.5,2.5 0 1,1 0,-2.5A2.5,2.5 0 0,1 2.5,0Z" style="opacity: 1; stroke-width: 0px; fill: rgb(50, 97, 160); fill-opacity: 1;"/><path class="point" transform="translate(474.17,341.79)" d="M2.5,0A2.5,2.5 0 1,1 0,-2.5A2.5,2.5 0 0,1 2.5,0Z" style="opacity: 1; stroke-width: 0px; fill: rgb(50, 97, 160); fill-opacity: 1;"/><path class="point" transform="translate(491.94,340.7)" d="M2.5,0A2.5,2.5 0 1,1 0,-2.5A2.5,2.5 0 0,1 2.5,0Z" style="opacity: 1; stroke-width: 0px; fill: rgb(50, 97, 160); fill-opacity: 1;"/><path class="point" transform="translate(501.02,342.87)" d="M2.5,0A2.5,2.5 0 1,1 0,-2.5A2.5,2.5 0 0,1 2.5,0Z" style="opacity: 1; stroke-width: 0px; fill: rgb(50, 97, 160); fill-opacity: 1;"/><path class="point" transform="translate(521.43,344.48)" d="M2.5,0A2.5,2.5 0 1,1 0,-2.5A2.5,2.5 0 0,1 2.5,0Z" style="opacity: 1; stroke-width: 0px; fill: rgb(50, 97, 160); fill-opacity: 1;"/><path class="point" transform="translate(532.4,340.47)" d="M2.5,0A2.5,2.5 0 1,1 0,-2.5A2.5,2.5 0 0,1 2.5,0Z" style="opacity: 1; stroke-width: 0px; fill: rgb(50, 97, 160); fill-opacity: 1;"/><path class="point" transform="translate(550.17,343.28)" d="M2.5,0A2.5,2.5 0 1,1 0,-2.5A2.5,2.5 0 0,1 2.5,0Z" style="opacity: 1; stroke-width: 0px; fill: rgb(50, 97, 160); fill-opacity: 1;"/><path class="point" transform="translate(561.89,338.48)" d="M2.5,0A2.5,2.5 0 1,1 0,-2.5A2.5,2.5 0 0,1 2.5,0Z" style="opacity: 1; stroke-width: 0px; fill: rgb(50, 97, 160); fill-opacity: 1;"/><path class="point" transform="translate(579.67,346.41)" d="M2.5,0A2.5,2.5 0 1,1 0,-2.5A2.5,2.5 0 0,1 2.5,0Z" style="opacity: 1; stroke-width: 0px; fill: rgb(50, 97, 160); fill-opacity: 1;"/><path class="point" transform="translate(583.45,344.61)" d="M2.5,0A2.5,2.5 0 1,1 0,-2.5A2.5,2.5 0 0,1 2.5,0Z" style="opacity: 1; stroke-width: 0px; fill: rgb(50, 97, 160); fill-opacity: 1;"/><path class="point" transform="translate(587.98,337.11)" d="M2.5,0A2.5,2.5 0 1,1 0,-2.5A2.5,2.5 0 0,1 2.5,0Z" style="opacity: 1; stroke-width: 0px; fill: rgb(50, 97, 160); fill-opacity: 1;"/><path class="point" transform="translate(601.98,343)" d="M2.5,0A2.5,2.5 0 1,1 0,-2.5A2.5,2.5 0 0,1 2.5,0Z" style="opacity: 1; stroke-width: 0px; fill: rgb(50, 97, 160); fill-opacity: 1;"/><path class="point" transform="translate(612.94,346.44)" d="M2.5,0A2.5,2.5 0 1,1 0,-2.5A2.5,2.5 0 0,1 2.5,0Z" style="opacity: 1; stroke-width: 0px; fill: rgb(50, 97, 160); fill-opacity: 1;"/><path class="point" transform="translate(629.58,343.62)" d="M2.5,0A2.5,2.5 0 1,1 0,-2.5A2.5,2.5 0 0,1 2.5,0Z" style="opacity: 1; stroke-width: 0px; fill: rgb(50, 97, 160); fill-opacity: 1;"/><path class="point" transform="translate(639.41,341.78)" d="M2.5,0A2.5,2.5 0 1,1 0,-2.5A2.5,2.5 0 0,1 2.5,0Z" style="opacity: 1; stroke-width: 0px; fill: rgb(50, 97, 160); fill-opacity: 1;"/><path class="point" transform="translate(647.35,339.45)" d="M2.5,0A2.5,2.5 0 1,1 0,-2.5A2.5,2.5 0 0,1 2.5,0Z" style="opacity: 1; stroke-width: 0px; fill: rgb(50, 97, 160); fill-opacity: 1;"/><path class="point" transform="translate(658.69,341.21)" d="M2.5,0A2.5,2.5 0 1,1 0,-2.5A2.5,2.5 0 0,1 2.5,0Z" style="opacity: 1; stroke-width: 0px; fill: rgb(50, 97, 160); fill-opacity: 1;"/><path class="point" transform="translate(660.96,342.81)" d="M2.5,0A2.5,2.5 0 1,1 0,-2.5A2.5,2.5 0 0,1 2.5,0Z" style="opacity: 1; stroke-width: 0px; fill: rgb(50, 97, 160); fill-opacity: 1;"/><path class="point" transform="translate(667.01,345.04)" d="M2.5,0A2.5,2.5 0 1,1 0,-2.5A2.5,2.5 0 0,1 2.5,0Z" style="opacity: 1; stroke-width: 0px; fill: rgb(50, 97, 160); fill-opacity: 1;"/><path class="point" transform="translate(701.04,341.68)" d="M2.5,0A2.5,2.5 0 1,1 0,-2.5A2.5,2.5 0 0,1 2.5,0Z" style="opacity: 1; stroke-width: 0px; fill: rgb(50, 97, 160); fill-opacity: 1;"/><path class="point" transform="translate(713.52,342.76)" d="M2.5,0A2.5,2.5 0 1,1 0,-2.5A2.5,2.5 0 0,1 2.5,0Z" style="opacity: 1; stroke-width: 0px; fill: rgb(50, 97, 160); fill-opacity: 1;"/><path class="point" transform="translate(780.07,340.02)" d="M2.5,0A2.5,2.5 0 1,1 0,-2.5A2.5,2.5 0 0,1 2.5,0Z" style="opacity: 1; stroke-width: 0px; fill: rgb(50, 97, 160); fill-opacity: 1;"/></g></g><g class="trace violins" style="opacity: 1;"><path class="violin" d="M134.89,318.02L134.89,317.67Q145.17,317.49 150.31,317.36C155.45,317.23 160.59,317.06 165.73,316.87C170.87,316.68 176.02,316.46 181.16,316.22C186.3,315.98 191.44,315.71 196.58,315.45C201.72,315.19 206.86,314.9 212,314.65C217.14,314.41 222.28,314.17 227.42,313.98C232.56,313.79 237.7,313.63 242.84,313.52C247.98,313.41 253.13,313.36 258.27,313.34C263.41,313.32 268.55,313.36 273.69,313.41C278.83,313.46 283.97,313.56 289.11,313.67C294.25,313.78 299.39,313.93 304.53,314.08C309.67,314.23 314.82,314.4 319.96,314.58C325.1,314.76 330.24,314.95 335.38,315.14C340.52,315.33 345.66,315.55 350.8,315.74C355.94,315.93 361.08,316.13 366.22,316.28C371.36,316.43 376.51,316.58 381.65,316.65C386.79,316.72 391.93,316.77 397.07,316.73C402.21,316.69 407.35,316.58 412.49,316.38C417.63,316.17 422.77,315.89 427.91,315.5C433.06,315.11 438.2,314.61 443.34,314.02C448.49,313.43 453.63,312.73 458.76,311.97C463.91,311.21 469.04,310.34 474.18,309.44C479.32,308.54 484.46,307.57 489.6,306.58C494.75,305.59 499.89,304.54 505.03,303.48C510.17,302.42 515.31,301.31 520.45,300.2C525.59,299.09 530.73,297.93 535.87,296.82C541.01,295.71 546.14,294.56 551.29,293.55C556.42,292.54 561.57,291.53 566.72,290.76C571.85,289.99 576.99,289.32 582.14,288.94C587.27,288.56 592.42,288.38 597.56,288.45C602.7,288.52 607.85,288.87 612.98,289.37C618.13,289.87 623.28,290.65 628.41,291.46C633.56,292.28 638.69,293.28 643.83,294.26C648.97,295.24 654.11,296.32 659.25,297.32C664.39,298.32 669.53,299.33 674.67,300.28C679.81,301.23 684.95,302.15 690.1,303.01C695.24,303.87 700.38,304.68 705.52,305.46C710.66,306.23 715.8,306.97 720.94,307.66C726.08,308.35 731.22,309 736.36,309.6C741.5,310.2 746.64,310.76 751.79,311.26C756.93,311.76 762.07,312.2 767.21,312.6C772.35,313 777.49,313.35 782.63,313.67C787.77,313.99 792.91,314.27 798.05,314.54C803.19,314.81 808.34,315.05 813.48,315.29C818.62,315.53 823.76,315.75 828.9,315.96C834.04,316.17 839.18,316.38 844.32,316.57C849.46,316.76 854.6,316.93 859.74,317.08C864.88,317.23 870.02,317.35 875.16,317.46Q880.3,317.57 890.59,317.72L890.59,318.02" style="vector-effect: non-scaling-stroke; stroke-width: 2px; stroke: rgb(66, 92, 148); stroke-opacity: 1; fill: rgb(66, 92, 148); fill-opacity: 0.5;"/><g class="points"><path class="point" transform="translate(227.63,311.14)" d="M2.5,0A2.5,2.5 0 1,1 0,-2.5A2.5,2.5 0 0,1 2.5,0Z" style="opacity: 1; stroke-width: 0px; fill: rgb(66, 92, 148); fill-opacity: 1;"/><path class="point" transform="translate(262.04,313.38)" d="M2.5,0A2.5,2.5 0 1,1 0,-2.5A2.5,2.5 0 0,1 2.5,0Z" style="opacity: 1; stroke-width: 0px; fill: rgb(66, 92, 148); fill-opacity: 1;"/><path class="point" transform="translate(324.05,310.53)" d="M2.5,0A2.5,2.5 0 1,1 0,-2.5A2.5,2.5 0 0,1 2.5,0Z" style="opacity: 1; stroke-width: 0px; fill: rgb(66, 92, 148); fill-opacity: 1;"/><path class="point" transform="translate(492.7,313.92)" d="M2.5,0A2.5,2.5 0 1,1 0,-2.5A2.5,2.5 0 0,1 2.5,0Z" style="opacity: 1; stroke-width: 0px; fill: rgb(66, 92, 148); fill-opacity: 1;"/><path class="point" transform="translate(502.53,312.66)" d="M2.5,0A2.5,2.5 0 1,1 0,-2.5A2.5,2.5 0 0,1 2.5,0Z" style="opacity: 1; stroke-width: 0px; fill: rgb(66, 92, 148); fill-opacity: 1;"/><path class="point" transform="translate(508.2,310.86)" d="M2.5,0A2.5,2.5 0 1,1 0,-2.5A2.5,2.5 0 0,1 2.5,0Z" style="opacity: 1; stroke-width: 0px; fill: rgb(66, 92, 148); fill-opacity: 1;"/><path class="point" transform="translate(518.79,312.2)" d="M2.5,0A2.5,2.5 0 1,1 0,-2.5A2.5,2.5 0 0,1 2.5,0Z" style="opacity: 1; stroke-width: 0px; fill: rgb(66, 92, 148); fill-opacity: 1;"/><path class="point" transform="translate(556.6,311.31)" d="M2.5,0A2.5,2.5 0 1,1 0,-2.5A2.5,2.5 0 0,1 2.5,0Z" style="opacity: 1; stroke-width: 0px; fill: rgb(66, 92, 148); fill-opacity: 1;"/><path class="point" transform="translate(564.16,313.55)" d="M2.5,0A2.5,2.5 0 1,1 0,-2.5A2.5,2.5 0 0,1 2.5,0Z" style="opacity: 1; stroke-width: 0px; fill: rgb(66, 92, 148); fill-opacity: 1;"/><path class="point" transform="translate(574.56,315.56)" d="M2.5,0A2.5,2.5 0 1,1 0,-2.5A2.5,2.5 0 0,1 2.5,0Z" style="opacity: 1; stroke-width: 0px; fill: rgb(66, 92, 148); fill-opacity: 1;"/><path class="point" transform="translate(575.51,310.91)" d="M2.5,0A2.5,2.5 0 1,1 0,-2.5A2.5,2.5 0 0,1 2.5,0Z" style="opacity: 1; stroke-width: 0px; fill: rgb(66, 92, 148); fill-opacity: 1;"/><path class="point" transform="translate(581.56,313.63)" d="M2.5,0A2.5,2.5 0 1,1 0,-2.5A2.5,2.5 0 0,1 2.5,0Z" style="opacity: 1; stroke-width: 0px; fill: rgb(66, 92, 148); fill-opacity: 1;"/><path class="point" transform="translate(586.47,308.35)" d="M2.5,0A2.5,2.5 0 1,1 0,-2.5A2.5,2.5 0 0,1 2.5,0Z" style="opacity: 1; stroke-width: 0px; fill: rgb(66, 92, 148); fill-opacity: 1;"/><path class="point" transform="translate(586.85,317.73)" d="M2.5,0A2.5,2.5 0 1,1 0,-2.5A2.5,2.5 0 0,1 2.5,0Z" style="opacity: 1; stroke-width: 0px; fill: rgb(66, 92, 148); fill-opacity: 1;"/><path class="point" transform="translate(590.06,315.43)" d="M2.5,0A2.5,2.5 0 1,1 0,-2.5A2.5,2.5 0 0,1 2.5,0Z" style="opacity: 1; stroke-width: 0px; fill: rgb(66, 92, 148); fill-opacity: 1;"/><path class="point" transform="translate(605,307.44)" d="M2.5,0A2.5,2.5 0 1,1 0,-2.5A2.5,2.5 0 0,1 2.5,0Z" style="opacity: 1; stroke-width: 0px; fill: rgb(66, 92, 148); fill-opacity: 1;"/><path class="point" transform="translate(609.16,313.39)" d="M2.5,0A2.5,2.5 0 1,1 0,-2.5A2.5,2.5 0 0,1 2.5,0Z" style="opacity: 1; stroke-width: 0px; fill: rgb(66, 92, 148); fill-opacity: 1;"/><path class="point" transform="translate(612.18,316)" d="M2.5,0A2.5,2.5 0 1,1 0,-2.5A2.5,2.5 0 0,1 2.5,0Z" style="opacity: 1; stroke-width: 0px; fill: rgb(66, 92, 148); fill-opacity: 1;"/><path class="point" transform="translate(622.39,313.58)" d="M2.5,0A2.5,2.5 0 1,1 0,-2.5A2.5,2.5 0 0,1 2.5,0Z" style="opacity: 1; stroke-width: 0px; fill: rgb(66, 92, 148); fill-opacity: 1;"/><path class="point" transform="translate(633.36,312.19)" d="M2.5,0A2.5,2.5 0 1,1 0,-2.5A2.5,2.5 0 0,1 2.5,0Z" style="opacity: 1; stroke-width: 0px; fill: rgb(66, 92, 148); fill-opacity: 1;"/><path class="point" transform="translate(645.46,310.31)" d="M2.5,0A2.5,2.5 0 1,1 0,-2.5A2.5,2.5 0 0,1 2.5,0Z" style="opacity: 1; stroke-width: 0px; fill: rgb(66, 92, 148); fill-opacity: 1;"/><path class="point" transform="translate(655.29,311.75)" d="M2.5,0A2.5,2.5 0 1,1 0,-2.5A2.5,2.5 0 0,1 2.5,0Z" style="opacity: 1; stroke-width: 0px; fill: rgb(66, 92, 148); fill-opacity: 1;"/><path class="point" transform="translate(681,312.97)" d="M2.5,0A2.5,2.5 0 1,1 0,-2.5A2.5,2.5 0 0,1 2.5,0Z" style="opacity: 1; stroke-width: 0px; fill: rgb(66, 92, 148); fill-opacity: 1;"/><path class="point" transform="translate(683.84,314.59)" d="M2.5,0A2.5,2.5 0 1,1 0,-2.5A2.5,2.5 0 0,1 2.5,0Z" style="opacity: 1; stroke-width: 0px; fill: rgb(66, 92, 148); fill-opacity: 1;"/><path class="point" transform="translate(713.9,312.11)" d="M2.5,0A2.5,2.5 0 1,1 0,-2.5A2.5,2.5 0 0,1 2.5,0Z" style="opacity: 1; stroke-width: 0px; fill: rgb(66, 92, 148); fill-opacity: 1;"/><path class="point" transform="translate(727.32,312.91)" d="M2.5,0A2.5,2.5 0 1,1 0,-2.5A2.5,2.5 0 0,1 2.5,0Z" style="opacity: 1; stroke-width: 0px; fill: rgb(66, 92, 148); fill-opacity: 1;"/><path class="point" transform="translate(797.84,310.89)" d="M2.5,0A2.5,2.5 0 1,1 0,-2.5A2.5,2.5 0 0,1 2.5,0Z" style="opacity: 1; stroke-width: 0px; fill: rgb(66, 92, 148); fill-opacity: 1;"/></g></g><g class="trace violins" style="opacity: 1;"><path class="violin" d="M292.25,288.45L292.25,288.11Q302.31,287.94 307.34,287.82C312.37,287.7 317.4,287.56 322.43,287.39C327.46,287.23 332.48,287.03 337.51,286.83C342.54,286.63 347.57,286.41 352.6,286.2C357.63,285.99 362.66,285.77 367.69,285.57C372.72,285.37 377.75,285.17 382.78,284.99C387.81,284.81 392.83,284.66 397.86,284.5C402.89,284.34 407.92,284.2 412.95,284.04C417.98,283.88 423.01,283.73 428.04,283.55C433.07,283.37 438.09,283.19 443.12,282.96C448.15,282.73 453.18,282.48 458.21,282.19C463.24,281.9 468.27,281.59 473.3,281.23C478.33,280.87 483.36,280.48 488.39,280.05C493.42,279.61 498.45,279.15 503.47,278.62C508.5,278.09 513.54,277.53 518.56,276.86C523.6,276.19 528.63,275.46 533.65,274.62C538.68,273.78 543.71,272.84 548.73,271.84C553.77,270.83 558.79,269.69 563.82,268.58C568.85,267.47 573.87,266.25 578.91,265.17C583.93,264.09 588.96,262.99 594,262.11C599.02,261.24 604.04,260.46 609.08,259.92C614.1,259.38 619.14,259.03 624.17,258.88C629.2,258.73 634.23,258.82 639.26,259.02C644.29,259.22 649.33,259.64 654.35,260.11C659.38,260.58 664.41,261.21 669.43,261.86C674.46,262.51 679.49,263.26 684.52,264.02C689.55,264.78 694.58,265.61 699.61,266.43C704.64,267.25 709.66,268.12 714.69,268.96C719.72,269.8 724.75,270.67 729.78,271.49C734.81,272.31 739.84,273.14 744.87,273.9C749.9,274.66 754.93,275.4 759.96,276.04C764.98,276.68 770.01,277.26 775.04,277.73C780.06,278.2 785.1,278.57 790.13,278.86C795.16,279.15 800.19,279.31 805.22,279.45C810.25,279.59 815.27,279.62 820.3,279.71C825.33,279.8 830.36,279.85 835.39,279.99C840.42,280.14 845.45,280.31 850.48,280.58C855.51,280.85 860.54,281.22 865.57,281.62C870.6,282.03 875.62,282.53 880.65,283.01C885.68,283.49 890.71,284.04 895.74,284.52C900.77,285 905.8,285.49 910.83,285.89C915.86,286.29 920.89,286.65 925.92,286.94Q930.95,287.23 941,287.65L941,288.45" style="vector-effect: non-scaling-stroke; stroke-width: 2px; stroke: rgb(83, 87, 136); stroke-opacity: 1; fill: rgb(83, 87, 136); fill-opacity: 0.5;"/><g class="points"><path class="point" transform="translate(383.23,281.19)" d="M2.5,0A2.5,2.5 0 1,1 0,-2.5A2.5,2.5 0 0,1 2.5,0Z" style="opacity: 1; stroke-width: 0px; fill: rgb(83, 87, 136); fill-opacity: 1;"/><path class="point" transform="translate(448.46,284.33)" d="M2.5,0A2.5,2.5 0 1,1 0,-2.5A2.5,2.5 0 0,1 2.5,0Z" style="opacity: 1; stroke-width: 0px; fill: rgb(83, 87, 136); fill-opacity: 1;"/><path class="point" transform="translate(498.75,280.21)" d="M2.5,0A2.5,2.5 0 1,1 0,-2.5A2.5,2.5 0 0,1 2.5,0Z" style="opacity: 1; stroke-width: 0px; fill: rgb(83, 87, 136); fill-opacity: 1;"/><path class="point" transform="translate(525.4,285.22)" d="M2.5,0A2.5,2.5 0 1,1 0,-2.5A2.5,2.5 0 0,1 2.5,0Z" style="opacity: 1; stroke-width: 0px; fill: rgb(83, 87, 136); fill-opacity: 1;"/><path class="point" transform="translate(535.8,283.36)" d="M2.5,0A2.5,2.5 0 1,1 0,-2.5A2.5,2.5 0 0,1 2.5,0Z" style="opacity: 1; stroke-width: 0px; fill: rgb(83, 87, 136); fill-opacity: 1;"/><path class="point" transform="translate(587.8,280.72)" d="M2.5,0A2.5,2.5 0 1,1 0,-2.5A2.5,2.5 0 0,1 2.5,0Z" style="opacity: 1; stroke-width: 0px; fill: rgb(83, 87, 136); fill-opacity: 1;"/><path class="point" transform="translate(590.44,282.69)" d="M2.5,0A2.5,2.5 0 1,1 0,-2.5A2.5,2.5 0 0,1 2.5,0Z" style="opacity: 1; stroke-width: 0px; fill: rgb(83, 87, 136); fill-opacity: 1;"/><path class="point" transform="translate(596.68,281.2)" d="M2.5,0A2.5,2.5 0 1,1 0,-2.5A2.5,2.5 0 0,1 2.5,0Z" style="opacity: 1; stroke-width: 0px; fill: rgb(83, 87, 136); fill-opacity: 1;"/><path class="point" transform="translate(601.6,284.13)" d="M2.5,0A2.5,2.5 0 1,1 0,-2.5A2.5,2.5 0 0,1 2.5,0Z" style="opacity: 1; stroke-width: 0px; fill: rgb(83, 87, 136); fill-opacity: 1;"/><path class="point" transform="translate(601.6,286.36)" d="M2.5,0A2.5,2.5 0 1,1 0,-2.5A2.5,2.5 0 0,1 2.5,0Z" style="opacity: 1; stroke-width: 0px; fill: rgb(83, 87, 136); fill-opacity: 1;"/><path class="point" transform="translate(611.81,280.96)" d="M2.5,0A2.5,2.5 0 1,1 0,-2.5A2.5,2.5 0 0,1 2.5,0Z" style="opacity: 1; stroke-width: 0px; fill: rgb(83, 87, 136); fill-opacity: 1;"/><path class="point" transform="translate(619.18,284.42)" d="M2.5,0A2.5,2.5 0 1,1 0,-2.5A2.5,2.5 0 0,1 2.5,0Z" style="opacity: 1; stroke-width: 0px; fill: rgb(83, 87, 136); fill-opacity: 1;"/><path class="point" transform="translate(627.12,278.82)" d="M2.5,0A2.5,2.5 0 1,1 0,-2.5A2.5,2.5 0 0,1 2.5,0Z" style="opacity: 1; stroke-width: 0px; fill: rgb(83, 87, 136); fill-opacity: 1;"/><path class="point" transform="translate(635.44,288.22)" d="M2.5,0A2.5,2.5 0 1,1 0,-2.5A2.5,2.5 0 0,1 2.5,0Z" style="opacity: 1; stroke-width: 0px; fill: rgb(83, 87, 136); fill-opacity: 1;"/><path class="point" transform="translate(636.57,285.72)" d="M2.5,0A2.5,2.5 0 1,1 0,-2.5A2.5,2.5 0 0,1 2.5,0Z" style="opacity: 1; stroke-width: 0px; fill: rgb(83, 87, 136); fill-opacity: 1;"/><path class="point" transform="translate(666.26,277.81)" d="M2.5,0A2.5,2.5 0 1,1 0,-2.5A2.5,2.5 0 0,1 2.5,0Z" style="opacity: 1; stroke-width: 0px; fill: rgb(83, 87, 136); fill-opacity: 1;"/><path class="point" transform="translate(674.58,283.74)" d="M2.5,0A2.5,2.5 0 1,1 0,-2.5A2.5,2.5 0 0,1 2.5,0Z" style="opacity: 1; stroke-width: 0px; fill: rgb(83, 87, 136); fill-opacity: 1;"/><path class="point" transform="translate(676.47,286.72)" d="M2.5,0A2.5,2.5 0 1,1 0,-2.5A2.5,2.5 0 0,1 2.5,0Z" style="opacity: 1; stroke-width: 0px; fill: rgb(83, 87, 136); fill-opacity: 1;"/><path class="point" transform="translate(682.14,284.08)" d="M2.5,0A2.5,2.5 0 1,1 0,-2.5A2.5,2.5 0 0,1 2.5,0Z" style="opacity: 1; stroke-width: 0px; fill: rgb(83, 87, 136); fill-opacity: 1;"/><path class="point" transform="translate(691.97,282.62)" d="M2.5,0A2.5,2.5 0 1,1 0,-2.5A2.5,2.5 0 0,1 2.5,0Z" style="opacity: 1; stroke-width: 0px; fill: rgb(83, 87, 136); fill-opacity: 1;"/><path class="point" transform="translate(708.04,280.79)" d="M2.5,0A2.5,2.5 0 1,1 0,-2.5A2.5,2.5 0 0,1 2.5,0Z" style="opacity: 1; stroke-width: 0px; fill: rgb(83, 87, 136); fill-opacity: 1;"/><path class="point" transform="translate(738.86,282.1)" d="M2.5,0A2.5,2.5 0 1,1 0,-2.5A2.5,2.5 0 0,1 2.5,0Z" style="opacity: 1; stroke-width: 0px; fill: rgb(83, 87, 136); fill-opacity: 1;"/><path class="point" transform="translate(742.64,283.6)" d="M2.5,0A2.5,2.5 0 1,1 0,-2.5A2.5,2.5 0 0,1 2.5,0Z" style="opacity: 1; stroke-width: 0px; fill: rgb(83, 87, 136); fill-opacity: 1;"/><path class="point" transform="translate(760.79,285.56)" d="M2.5,0A2.5,2.5 0 1,1 0,-2.5A2.5,2.5 0 0,1 2.5,0Z" style="opacity: 1; stroke-width: 0px; fill: rgb(83, 87, 136); fill-opacity: 1;"/><path class="point" transform="translate(833.2,282.55)" d="M2.5,0A2.5,2.5 0 1,1 0,-2.5A2.5,2.5 0 0,1 2.5,0Z" style="opacity: 1; stroke-width: 0px; fill: rgb(83, 87, 136); fill-opacity: 1;"/><path class="point" transform="translate(848.51,283.53)" d="M2.5,0A2.5,2.5 0 1,1 0,-2.5A2.5,2.5 0 0,1 2.5,0Z" style="opacity: 1; stroke-width: 0px; fill: rgb(83, 87, 136); fill-opacity: 1;"/><path class="point" transform="translate(850.03,280.9)" d="M2.5,0A2.5,2.5 0 1,1 0,-2.5A2.5,2.5 0 0,1 2.5,0Z" style="opacity: 1; stroke-width: 0px; fill: rgb(83, 87, 136); fill-opacity: 1;"/></g></g><g class="trace violins" style="opacity: 1;"><path class="violin" d="M437.08,258.88L437.08,258.48Q449.2,258.26 455.26,258.08C461.32,257.9 467.39,257.7 473.45,257.42C479.51,257.14 485.57,256.81 491.63,256.39C497.7,255.97 503.76,255.48 509.82,254.88C515.89,254.28 521.95,253.61 528,252.81C534.07,252.01 540.14,251.09 546.19,250.07C552.26,249.04 558.32,247.89 564.37,246.66C570.44,245.43 576.49,244.05 582.55,242.7C588.62,241.35 594.67,239.89 600.74,238.55C606.8,237.22 612.85,235.84 618.92,234.69C624.97,233.55 631.03,232.48 637.11,231.68C643.16,230.88 649.22,230.27 655.29,229.88C661.35,229.49 667.42,229.34 673.48,229.32C679.54,229.3 685.6,229.5 691.66,229.75C697.72,230 703.78,230.4 709.84,230.81C715.9,231.22 721.97,231.7 728.03,232.2C734.09,232.7 740.15,233.24 746.21,233.83C752.27,234.42 758.34,235.03 764.4,235.72C770.46,236.41 776.52,237.16 782.58,237.95C788.65,238.74 794.71,239.6 800.77,240.45C806.83,241.31 812.89,242.23 818.95,243.08C825.01,243.93 831.07,244.8 837.13,245.57C843.19,246.34 849.25,247.08 855.32,247.72C861.38,248.36 867.44,248.91 873.5,249.39C879.56,249.87 885.63,250.26 891.69,250.62C897.75,250.98 903.81,251.26 909.87,251.54C915.93,251.82 922,252.05 928.06,252.32C934.12,252.58 940.18,252.84 946.24,253.13C952.3,253.42 958.36,253.72 964.42,254.04C970.48,254.36 976.55,254.7 982.61,255.03C988.67,255.36 994.73,255.72 1000.79,256.04C1006.85,256.36 1012.92,256.67 1018.98,256.94C1025.04,257.21 1031.1,257.46 1037.16,257.67C1043.22,257.88 1049.29,258.05 1055.35,258.19Q1061.41,258.33 1073.53,258.52L1073.53,258.88" style="vector-effect: non-scaling-stroke; stroke-width: 2px; stroke: rgb(99, 82, 124); stroke-opacity: 1; fill: rgb(99, 82, 124); fill-opacity: 0.5;"/><g class="points"><path class="point" transform="translate(547.9,251.1)" d="M2.5,0A2.5,2.5 0 1,1 0,-2.5A2.5,2.5 0 0,1 2.5,0Z" style="opacity: 1; stroke-width: 0px; fill: rgb(99, 82, 124); fill-opacity: 1;"/><path class="point" transform="translate(578.91,255.44)" d="M2.5,0A2.5,2.5 0 1,1 0,-2.5A2.5,2.5 0 0,1 2.5,0Z" style="opacity: 1; stroke-width: 0px; fill: rgb(99, 82, 124); fill-opacity: 1;"/><path class="point" transform="translate(627.88,249.75)" d="M2.5,0A2.5,2.5 0 1,1 0,-2.5A2.5,2.5 0 0,1 2.5,0Z" style="opacity: 1; stroke-width: 0px; fill: rgb(99, 82, 124); fill-opacity: 1;"/><path class="point" transform="translate(629.2,256.42)" d="M2.5,0A2.5,2.5 0 1,1 0,-2.5A2.5,2.5 0 0,1 2.5,0Z" style="opacity: 1; stroke-width: 0px; fill: rgb(99, 82, 124); fill-opacity: 1;"/><path class="point" transform="translate(633.36,254.03)" d="M2.5,0A2.5,2.5 0 1,1 0,-2.5A2.5,2.5 0 0,1 2.5,0Z" style="opacity: 1; stroke-width: 0px; fill: rgb(99, 82, 124); fill-opacity: 1;"/><path class="point" transform="translate(635.25,250.66)" d="M2.5,0A2.5,2.5 0 1,1 0,-2.5A2.5,2.5 0 0,1 2.5,0Z" style="opacity: 1; stroke-width: 0px; fill: rgb(99, 82, 124); fill-opacity: 1;"/><path class="point" transform="translate(638.09,253.15)" d="M2.5,0A2.5,2.5 0 1,1 0,-2.5A2.5,2.5 0 0,1 2.5,0Z" style="opacity: 1; stroke-width: 0px; fill: rgb(99, 82, 124); fill-opacity: 1;"/><path class="point" transform="translate(639.79,251.26)" d="M2.5,0A2.5,2.5 0 1,1 0,-2.5A2.5,2.5 0 0,1 2.5,0Z" style="opacity: 1; stroke-width: 0px; fill: rgb(99, 82, 124); fill-opacity: 1;"/><path class="point" transform="translate(656.8,254.74)" d="M2.5,0A2.5,2.5 0 1,1 0,-2.5A2.5,2.5 0 0,1 2.5,0Z" style="opacity: 1; stroke-width: 0px; fill: rgb(99, 82, 124); fill-opacity: 1;"/><path class="point" transform="translate(657.94,256.78)" d="M2.5,0A2.5,2.5 0 1,1 0,-2.5A2.5,2.5 0 0,1 2.5,0Z" style="opacity: 1; stroke-width: 0px; fill: rgb(99, 82, 124); fill-opacity: 1;"/><path class="point" transform="translate(664.74,251.64)" d="M2.5,0A2.5,2.5 0 1,1 0,-2.5A2.5,2.5 0 0,1 2.5,0Z" style="opacity: 1; stroke-width: 0px; fill: rgb(99, 82, 124); fill-opacity: 1;"/><path class="point" transform="translate(677.22,254.46)" d="M2.5,0A2.5,2.5 0 1,1 0,-2.5A2.5,2.5 0 0,1 2.5,0Z" style="opacity: 1; stroke-width: 0px; fill: rgb(99, 82, 124); fill-opacity: 1;"/><path class="point" transform="translate(692.54,250.12)" d="M2.5,0A2.5,2.5 0 1,1 0,-2.5A2.5,2.5 0 0,1 2.5,0Z" style="opacity: 1; stroke-width: 0px; fill: rgb(99, 82, 124); fill-opacity: 1;"/><path class="point" transform="translate(702.93,257.44)" d="M2.5,0A2.5,2.5 0 1,1 0,-2.5A2.5,2.5 0 0,1 2.5,0Z" style="opacity: 1; stroke-width: 0px; fill: rgb(99, 82, 124); fill-opacity: 1;"/><path class="point" transform="translate(716.93,255.54)" d="M2.5,0A2.5,2.5 0 1,1 0,-2.5A2.5,2.5 0 0,1 2.5,0Z" style="opacity: 1; stroke-width: 0px; fill: rgb(99, 82, 124); fill-opacity: 1;"/><path class="point" transform="translate(726.76,248.98)" d="M2.5,0A2.5,2.5 0 1,1 0,-2.5A2.5,2.5 0 0,1 2.5,0Z" style="opacity: 1; stroke-width: 0px; fill: rgb(99, 82, 124); fill-opacity: 1;"/><path class="point" transform="translate(748.69,254.09)" d="M2.5,0A2.5,2.5 0 1,1 0,-2.5A2.5,2.5 0 0,1 2.5,0Z" style="opacity: 1; stroke-width: 0px; fill: rgb(99, 82, 124); fill-opacity: 1;"/><path class="point" transform="translate(751.71,256.57)" d="M2.5,0A2.5,2.5 0 1,1 0,-2.5A2.5,2.5 0 0,1 2.5,0Z" style="opacity: 1; stroke-width: 0px; fill: rgb(99, 82, 124); fill-opacity: 1;"/><path class="point" transform="translate(764.19,254.37)" d="M2.5,0A2.5,2.5 0 1,1 0,-2.5A2.5,2.5 0 0,1 2.5,0Z" style="opacity: 1; stroke-width: 0px; fill: rgb(99, 82, 124); fill-opacity: 1;"/><path class="point" transform="translate(772.13,253.05)" d="M2.5,0A2.5,2.5 0 1,1 0,-2.5A2.5,2.5 0 0,1 2.5,0Z" style="opacity: 1; stroke-width: 0px; fill: rgb(99, 82, 124); fill-opacity: 1;"/><path class="point" transform="translate(775.91,251.45)" d="M2.5,0A2.5,2.5 0 1,1 0,-2.5A2.5,2.5 0 0,1 2.5,0Z" style="opacity: 1; stroke-width: 0px; fill: rgb(99, 82, 124); fill-opacity: 1;"/><path class="point" transform="translate(790.85,252.61)" d="M2.5,0A2.5,2.5 0 1,1 0,-2.5A2.5,2.5 0 0,1 2.5,0Z" style="opacity: 1; stroke-width: 0px; fill: rgb(99, 82, 124); fill-opacity: 1;"/><path class="point" transform="translate(821.29,253.85)" d="M2.5,0A2.5,2.5 0 1,1 0,-2.5A2.5,2.5 0 0,1 2.5,0Z" style="opacity: 1; stroke-width: 0px; fill: rgb(99, 82, 124); fill-opacity: 1;"/><path class="point" transform="translate(828.47,255.49)" d="M2.5,0A2.5,2.5 0 1,1 0,-2.5A2.5,2.5 0 0,1 2.5,0Z" style="opacity: 1; stroke-width: 0px; fill: rgb(99, 82, 124); fill-opacity: 1;"/><path class="point" transform="translate(883.68,252.98)" d="M2.5,0A2.5,2.5 0 1,1 0,-2.5A2.5,2.5 0 0,1 2.5,0Z" style="opacity: 1; stroke-width: 0px; fill: rgb(99, 82, 124); fill-opacity: 1;"/><path class="point" transform="translate(925.65,253.76)" d="M2.5,0A2.5,2.5 0 1,1 0,-2.5A2.5,2.5 0 0,1 2.5,0Z" style="opacity: 1; stroke-width: 0px; fill: rgb(99, 82, 124); fill-opacity: 1;"/><path class="point" transform="translate(962.71,251.78)" d="M2.5,0A2.5,2.5 0 1,1 0,-2.5A2.5,2.5 0 0,1 2.5,0Z" style="opacity: 1; stroke-width: 0px; fill: rgb(99, 82, 124); fill-opacity: 1;"/></g></g><g class="trace violins" style="opacity: 1;"><path class="violin" d="M514.09,229.32L514.09,228.54Q526.29,228.09 532.39,227.73C538.5,227.37 544.6,226.93 550.7,226.36C556.81,225.78 562.92,225.1 569.01,224.28C575.12,223.46 581.23,222.49 587.32,221.43C593.43,220.36 599.54,219.14 605.63,217.88C611.74,216.62 617.83,215.23 623.93,213.87C630.03,212.51 636.13,211.06 642.24,209.72C648.34,208.38 654.44,207.03 660.55,205.85C666.64,204.68 672.74,203.56 678.86,202.67C684.95,201.79 691.06,201.03 697.17,200.54C703.26,200.05 709.37,199.78 715.47,199.75C721.57,199.72 727.68,199.97 733.78,200.39C739.89,200.81 745.99,201.5 752.09,202.26C758.2,203.02 764.3,204 770.4,204.93C776.51,205.86 782.61,206.91 788.71,207.86C794.81,208.81 800.9,209.76 807.01,210.61C813.11,211.46 819.21,212.25 825.32,212.97C831.42,213.69 837.52,214.33 843.63,214.94C849.73,215.55 855.84,216.09 861.94,216.62C868.04,217.15 874.15,217.64 880.25,218.1C886.35,218.55 892.45,218.97 898.55,219.35C904.65,219.73 910.76,220.06 916.86,220.36C922.96,220.66 929.07,220.9 935.17,221.14C941.27,221.38 947.38,221.57 953.48,221.79C959.58,222.01 965.68,222.2 971.78,222.45C977.88,222.7 983.99,222.97 990.09,223.28C996.19,223.59 1002.3,223.94 1008.4,224.3C1014.5,224.66 1020.61,225.06 1026.71,225.44C1032.81,225.82 1038.92,226.21 1045.02,226.56C1051.12,226.91 1057.22,227.24 1063.32,227.53C1069.42,227.81 1075.53,228.06 1081.63,228.27Q1087.73,228.47 1099.94,228.76L1099.94,229.32" style="vector-effect: non-scaling-stroke; stroke-width: 2px; stroke: rgb(116, 77, 112); stroke-opacity: 1; fill: rgb(116, 77, 112); fill-opacity: 0.5;"/><g class="points"><path class="point" transform="translate(625.61,221.07)" d="M2.5,0A2.5,2.5 0 1,1 0,-2.5A2.5,2.5 0 0,1 2.5,0Z" style="opacity: 1; stroke-width: 0px; fill: rgb(116, 77, 112); fill-opacity: 1;"/><path class="point" transform="translate(636.57,226.13)" d="M2.5,0A2.5,2.5 0 1,1 0,-2.5A2.5,2.5 0 0,1 2.5,0Z" style="opacity: 1; stroke-width: 0px; fill: rgb(116, 77, 112); fill-opacity: 1;"/><path class="point" transform="translate(648.3,220.23)" d="M2.5,0A2.5,2.5 0 1,1 0,-2.5A2.5,2.5 0 0,1 2.5,0Z" style="opacity: 1; stroke-width: 0px; fill: rgb(116, 77, 112); fill-opacity: 1;"/><path class="point" transform="translate(653.78,227.01)" d="M2.5,0A2.5,2.5 0 1,1 0,-2.5A2.5,2.5 0 0,1 2.5,0Z" style="opacity: 1; stroke-width: 0px; fill: rgb(116, 77, 112); fill-opacity: 1;"/><path class="point" transform="translate(654.53,224.48)" d="M2.5,0A2.5,2.5 0 1,1 0,-2.5A2.5,2.5 0 0,1 2.5,0Z" style="opacity: 1; stroke-width: 0px; fill: rgb(116, 77, 112); fill-opacity: 1;"/><path class="point" transform="translate(671.55,221.02)" d="M2.5,0A2.5,2.5 0 1,1 0,-2.5A2.5,2.5 0 0,1 2.5,0Z" style="opacity: 1; stroke-width: 0px; fill: rgb(116, 77, 112); fill-opacity: 1;"/><path class="point" transform="translate(686.11,223.58)" d="M2.5,0A2.5,2.5 0 1,1 0,-2.5A2.5,2.5 0 0,1 2.5,0Z" style="opacity: 1; stroke-width: 0px; fill: rgb(116, 77, 112); fill-opacity: 1;"/><path class="point" transform="translate(702.93,222)" d="M2.5,0A2.5,2.5 0 1,1 0,-2.5A2.5,2.5 0 0,1 2.5,0Z" style="opacity: 1; stroke-width: 0px; fill: rgb(116, 77, 112); fill-opacity: 1;"/><path class="point" transform="translate(707.09,224.91)" d="M2.5,0A2.5,2.5 0 1,1 0,-2.5A2.5,2.5 0 0,1 2.5,0Z" style="opacity: 1; stroke-width: 0px; fill: rgb(116, 77, 112); fill-opacity: 1;"/><path class="point" transform="translate(712.77,226.79)" d="M2.5,0A2.5,2.5 0 1,1 0,-2.5A2.5,2.5 0 0,1 2.5,0Z" style="opacity: 1; stroke-width: 0px; fill: rgb(116, 77, 112); fill-opacity: 1;"/><path class="point" transform="translate(715.22,222.06)" d="M2.5,0A2.5,2.5 0 1,1 0,-2.5A2.5,2.5 0 0,1 2.5,0Z" style="opacity: 1; stroke-width: 0px; fill: rgb(116, 77, 112); fill-opacity: 1;"/><path class="point" transform="translate(719.19,225.19)" d="M2.5,0A2.5,2.5 0 1,1 0,-2.5A2.5,2.5 0 0,1 2.5,0Z" style="opacity: 1; stroke-width: 0px; fill: rgb(116, 77, 112); fill-opacity: 1;"/><path class="point" transform="translate(727.13,219.65)" d="M2.5,0A2.5,2.5 0 1,1 0,-2.5A2.5,2.5 0 0,1 2.5,0Z" style="opacity: 1; stroke-width: 0px; fill: rgb(116, 77, 112); fill-opacity: 1;"/><path class="point" transform="translate(736.97,228.87)" d="M2.5,0A2.5,2.5 0 1,1 0,-2.5A2.5,2.5 0 0,1 2.5,0Z" style="opacity: 1; stroke-width: 0px; fill: rgb(116, 77, 112); fill-opacity: 1;"/><path class="point" transform="translate(741.13,226.03)" d="M2.5,0A2.5,2.5 0 1,1 0,-2.5A2.5,2.5 0 0,1 2.5,0Z" style="opacity: 1; stroke-width: 0px; fill: rgb(116, 77, 112); fill-opacity: 1;"/><path class="point" transform="translate(744.53,219.81)" d="M2.5,0A2.5,2.5 0 1,1 0,-2.5A2.5,2.5 0 0,1 2.5,0Z" style="opacity: 1; stroke-width: 0px; fill: rgb(116, 77, 112); fill-opacity: 1;"/><path class="point" transform="translate(748.69,224.39)" d="M2.5,0A2.5,2.5 0 1,1 0,-2.5A2.5,2.5 0 0,1 2.5,0Z" style="opacity: 1; stroke-width: 0px; fill: rgb(116, 77, 112); fill-opacity: 1;"/><path class="point" transform="translate(755.87,226.67)" d="M2.5,0A2.5,2.5 0 1,1 0,-2.5A2.5,2.5 0 0,1 2.5,0Z" style="opacity: 1; stroke-width: 0px; fill: rgb(116, 77, 112); fill-opacity: 1;"/><path class="point" transform="translate(765.7,224.71)" d="M2.5,0A2.5,2.5 0 1,1 0,-2.5A2.5,2.5 0 0,1 2.5,0Z" style="opacity: 1; stroke-width: 0px; fill: rgb(116, 77, 112); fill-opacity: 1;"/><path class="point" transform="translate(802.38,223.48)" d="M2.5,0A2.5,2.5 0 1,1 0,-2.5A2.5,2.5 0 0,1 2.5,0Z" style="opacity: 1; stroke-width: 0px; fill: rgb(116, 77, 112); fill-opacity: 1;"/><path class="point" transform="translate(827.34,222.04)" d="M2.5,0A2.5,2.5 0 1,1 0,-2.5A2.5,2.5 0 0,1 2.5,0Z" style="opacity: 1; stroke-width: 0px; fill: rgb(116, 77, 112); fill-opacity: 1;"/><path class="point" transform="translate(838.68,223.09)" d="M2.5,0A2.5,2.5 0 1,1 0,-2.5A2.5,2.5 0 0,1 2.5,0Z" style="opacity: 1; stroke-width: 0px; fill: rgb(116, 77, 112); fill-opacity: 1;"/><path class="point" transform="translate(854.94,224.2)" d="M2.5,0A2.5,2.5 0 1,1 0,-2.5A2.5,2.5 0 0,1 2.5,0Z" style="opacity: 1; stroke-width: 0px; fill: rgb(116, 77, 112); fill-opacity: 1;"/><path class="point" transform="translate(855.7,225.69)" d="M2.5,0A2.5,2.5 0 1,1 0,-2.5A2.5,2.5 0 0,1 2.5,0Z" style="opacity: 1; stroke-width: 0px; fill: rgb(116, 77, 112); fill-opacity: 1;"/><path class="point" transform="translate(898.05,223.41)" d="M2.5,0A2.5,2.5 0 1,1 0,-2.5A2.5,2.5 0 0,1 2.5,0Z" style="opacity: 1; stroke-width: 0px; fill: rgb(116, 77, 112); fill-opacity: 1;"/><path class="point" transform="translate(945.69,224.23)" d="M2.5,0A2.5,2.5 0 1,1 0,-2.5A2.5,2.5 0 0,1 2.5,0Z" style="opacity: 1; stroke-width: 0px; fill: rgb(116, 77, 112); fill-opacity: 1;"/><path class="point" transform="translate(987.66,222.14)" d="M2.5,0A2.5,2.5 0 1,1 0,-2.5A2.5,2.5 0 0,1 2.5,0Z" style="opacity: 1; stroke-width: 0px; fill: rgb(116, 77, 112); fill-opacity: 1;"/><path class="point" transform="translate(988.42,223.64)" d="M2.5,0A2.5,2.5 0 1,1 0,-2.5A2.5,2.5 0 0,1 2.5,0Z" style="opacity: 1; stroke-width: 0px; fill: rgb(116, 77, 112); fill-opacity: 1;"/></g></g><g class="trace violins" style="opacity: 1;"><path class="violin" d="M459.41,199.75L459.41,199.4Q468,199.22 472.3,199.1C476.6,198.98 480.89,198.84 485.19,198.68C489.49,198.52 493.79,198.34 498.09,198.16C502.39,197.98 506.68,197.78 510.98,197.6C515.28,197.42 519.57,197.24 523.87,197.08C528.17,196.92 532.46,196.78 536.76,196.64C541.06,196.5 545.35,196.39 549.65,196.23C553.95,196.07 558.25,195.93 562.55,195.69C566.85,195.45 571.15,195.18 575.44,194.79C579.74,194.39 584.04,193.93 588.33,193.32C592.63,192.71 596.93,191.98 601.22,191.14C605.53,190.3 609.82,189.32 614.11,188.29C618.42,187.25 622.71,186.08 627.01,184.93C631.31,183.78 635.6,182.53 639.9,181.38C644.19,180.23 648.48,179.05 652.79,178.03C657.08,177.01 661.37,176.05 665.68,175.26C669.97,174.47 674.26,173.81 678.57,173.27C682.86,172.73 687.17,172.37 691.47,172.04C695.76,171.71 700.06,171.51 704.36,171.29C708.66,171.07 712.95,170.91 717.25,170.74C721.55,170.57 725.84,170.38 730.14,170.29C734.44,170.2 738.74,170.09 743.04,170.18C747.34,170.27 751.64,170.44 755.93,170.85C760.24,171.26 764.54,171.87 768.82,172.66C773.13,173.46 777.43,174.51 781.71,175.64C786.02,176.78 790.31,178.15 794.6,179.46C798.91,180.78 803.19,182.23 807.5,183.54C811.79,184.85 816.08,186.17 820.39,187.32C824.67,188.46 828.97,189.52 833.28,190.42C837.56,191.31 841.86,192.06 846.17,192.7C850.46,193.33 854.76,193.83 859.06,194.24C863.35,194.65 867.66,194.93 871.96,195.18C876.26,195.43 880.55,195.59 884.85,195.74C889.15,195.89 893.44,195.99 897.74,196.1C902.04,196.21 906.33,196.29 910.63,196.38C914.93,196.47 919.22,196.56 923.52,196.63C927.82,196.7 932.12,196.76 936.42,196.8C940.72,196.84 945.01,196.86 949.31,196.87C953.61,196.88 957.9,196.86 962.2,196.85C966.5,196.84 970.79,196.82 975.09,196.83C979.39,196.84 983.69,196.86 987.99,196.92C992.29,196.98 996.58,197.07 1000.88,197.18C1005.18,197.3 1009.47,197.45 1013.77,197.61C1018.07,197.77 1022.36,197.96 1026.66,198.13C1030.96,198.3 1035.25,198.49 1039.55,198.65C1043.85,198.81 1048.15,198.95 1052.45,199.07C1056.75,199.19 1061.04,199.29 1065.34,199.37C1069.64,199.45 1073.93,199.51 1078.23,199.55C1082.53,199.59 1086.82,199.62 1091.12,199.63C1095.42,199.64 1099.71,199.64 1104.01,199.63C1108.31,199.62 1112.61,199.6 1116.91,199.55C1121.21,199.51 1125.5,199.44 1129.8,199.36C1134.1,199.28 1138.39,199.17 1142.69,199.05C1146.99,198.93 1151.28,198.78 1155.58,198.63C1159.88,198.47 1164.17,198.29 1168.47,198.12C1172.77,197.95 1177.07,197.77 1181.37,197.63C1185.67,197.49 1189.96,197.35 1194.26,197.27C1198.56,197.19 1202.85,197.14 1207.15,197.15C1211.45,197.16 1215.74,197.22 1220.04,197.31C1224.34,197.4 1228.63,197.54 1232.93,197.69C1237.23,197.84 1241.53,198.02 1245.83,198.19C1250.13,198.36 1254.42,198.54 1258.72,198.69C1263.02,198.84 1267.31,198.99 1271.61,199.11Q1275.91,199.23 1284.5,199.4L1284.5,199.75" style="vector-effect: non-scaling-stroke; stroke-width: 2px; stroke: rgb(132, 73, 99); stroke-opacity: 1; fill: rgb(132, 73, 99); fill-opacity: 0.5;"/><g class="points"><path class="point" transform="translate(537.69,192.18)" d="M2.5,0A2.5,2.5 0 1,1 0,-2.5A2.5,2.5 0 0,1 2.5,0Z" style="opacity: 1; stroke-width: 0px; fill: rgb(132, 73, 99); fill-opacity: 1;"/><path class="point" transform="translate(615.97,196)" d="M2.5,0A2.5,2.5 0 1,1 0,-2.5A2.5,2.5 0 0,1 2.5,0Z" style="opacity: 1; stroke-width: 0px; fill: rgb(132, 73, 99); fill-opacity: 1;"/><path class="point" transform="translate(635.25,191.03)" d="M2.5,0A2.5,2.5 0 1,1 0,-2.5A2.5,2.5 0 0,1 2.5,0Z" style="opacity: 1; stroke-width: 0px; fill: rgb(132, 73, 99); fill-opacity: 1;"/><path class="point" transform="translate(650.19,197.08)" d="M2.5,0A2.5,2.5 0 1,1 0,-2.5A2.5,2.5 0 0,1 2.5,0Z" style="opacity: 1; stroke-width: 0px; fill: rgb(132, 73, 99); fill-opacity: 1;"/><path class="point" transform="translate(663.61,194.81)" d="M2.5,0A2.5,2.5 0 1,1 0,-2.5A2.5,2.5 0 0,1 2.5,0Z" style="opacity: 1; stroke-width: 0px; fill: rgb(132, 73, 99); fill-opacity: 1;"/><path class="point" transform="translate(670.79,191.69)" d="M2.5,0A2.5,2.5 0 1,1 0,-2.5A2.5,2.5 0 0,1 2.5,0Z" style="opacity: 1; stroke-width: 0px; fill: rgb(132, 73, 99); fill-opacity: 1;"/><path class="point" transform="translate(678.36,194.04)" d="M2.5,0A2.5,2.5 0 1,1 0,-2.5A2.5,2.5 0 0,1 2.5,0Z" style="opacity: 1; stroke-width: 0px; fill: rgb(132, 73, 99); fill-opacity: 1;"/><path class="point" transform="translate(682.52,192.41)" d="M2.5,0A2.5,2.5 0 1,1 0,-2.5A2.5,2.5 0 0,1 2.5,0Z" style="opacity: 1; stroke-width: 0px; fill: rgb(132, 73, 99); fill-opacity: 1;"/><path class="point" transform="translate(685.16,195.51)" d="M2.5,0A2.5,2.5 0 1,1 0,-2.5A2.5,2.5 0 0,1 2.5,0Z" style="opacity: 1; stroke-width: 0px; fill: rgb(132, 73, 99); fill-opacity: 1;"/><path class="point" transform="translate(694.24,197.92)" d="M2.5,0A2.5,2.5 0 1,1 0,-2.5A2.5,2.5 0 0,1 2.5,0Z" style="opacity: 1; stroke-width: 0px; fill: rgb(132, 73, 99); fill-opacity: 1;"/><path class="point" transform="translate(699.91,192.29)" d="M2.5,0A2.5,2.5 0 1,1 0,-2.5A2.5,2.5 0 0,1 2.5,0Z" style="opacity: 1; stroke-width: 0px; fill: rgb(132, 73, 99); fill-opacity: 1;"/><path class="point" transform="translate(709.36,195.78)" d="M2.5,0A2.5,2.5 0 1,1 0,-2.5A2.5,2.5 0 0,1 2.5,0Z" style="opacity: 1; stroke-width: 0px; fill: rgb(132, 73, 99); fill-opacity: 1;"/><path class="point" transform="translate(747.74,190.13)" d="M2.5,0A2.5,2.5 0 1,1 0,-2.5A2.5,2.5 0 0,1 2.5,0Z" style="opacity: 1; stroke-width: 0px; fill: rgb(132, 73, 99); fill-opacity: 1;"/><path class="point" transform="translate(748.31,199.52)" d="M2.5,0A2.5,2.5 0 1,1 0,-2.5A2.5,2.5 0 0,1 2.5,0Z" style="opacity: 1; stroke-width: 0px; fill: rgb(132, 73, 99); fill-opacity: 1;"/><path class="point" transform="translate(750.77,197.21)" d="M2.5,0A2.5,2.5 0 1,1 0,-2.5A2.5,2.5 0 0,1 2.5,0Z" style="opacity: 1; stroke-width: 0px; fill: rgb(132, 73, 99); fill-opacity: 1;"/><path class="point" transform="translate(751.33,188.81)" d="M2.5,0A2.5,2.5 0 1,1 0,-2.5A2.5,2.5 0 0,1 2.5,0Z" style="opacity: 1; stroke-width: 0px; fill: rgb(132, 73, 99); fill-opacity: 1;"/><path class="point" transform="translate(755.87,195.23)" d="M2.5,0A2.5,2.5 0 1,1 0,-2.5A2.5,2.5 0 0,1 2.5,0Z" style="opacity: 1; stroke-width: 0px; fill: rgb(132, 73, 99); fill-opacity: 1;"/><path class="point" transform="translate(761.92,198.62)" d="M2.5,0A2.5,2.5 0 1,1 0,-2.5A2.5,2.5 0 0,1 2.5,0Z" style="opacity: 1; stroke-width: 0px; fill: rgb(132, 73, 99); fill-opacity: 1;"/><path class="point" transform="translate(764.57,195.22)" d="M2.5,0A2.5,2.5 0 1,1 0,-2.5A2.5,2.5 0 0,1 2.5,0Z" style="opacity: 1; stroke-width: 0px; fill: rgb(132, 73, 99); fill-opacity: 1;"/><path class="point" transform="translate(774.02,193.91)" d="M2.5,0A2.5,2.5 0 1,1 0,-2.5A2.5,2.5 0 0,1 2.5,0Z" style="opacity: 1; stroke-width: 0px; fill: rgb(132, 73, 99); fill-opacity: 1;"/><path class="point" transform="translate(783.85,192.74)" d="M2.5,0A2.5,2.5 0 1,1 0,-2.5A2.5,2.5 0 0,1 2.5,0Z" style="opacity: 1; stroke-width: 0px; fill: rgb(132, 73, 99); fill-opacity: 1;"/><path class="point" transform="translate(796.9,193.58)" d="M2.5,0A2.5,2.5 0 1,1 0,-2.5A2.5,2.5 0 0,1 2.5,0Z" style="opacity: 1; stroke-width: 0px; fill: rgb(132, 73, 99); fill-opacity: 1;"/><path class="point" transform="translate(834.9,194.46)" d="M2.5,0A2.5,2.5 0 1,1 0,-2.5A2.5,2.5 0 0,1 2.5,0Z" style="opacity: 1; stroke-width: 0px; fill: rgb(132, 73, 99); fill-opacity: 1;"/><path class="point" transform="translate(902.21,195.57)" d="M2.5,0A2.5,2.5 0 1,1 0,-2.5A2.5,2.5 0 0,1 2.5,0Z" style="opacity: 1; stroke-width: 0px; fill: rgb(132, 73, 99); fill-opacity: 1;"/><path class="point" transform="translate(988.23,193.84)" d="M2.5,0A2.5,2.5 0 1,1 0,-2.5A2.5,2.5 0 0,1 2.5,0Z" style="opacity: 1; stroke-width: 0px; fill: rgb(132, 73, 99); fill-opacity: 1;"/><path class="point" transform="translate(1206.22,194.36)" d="M2.5,0A2.5,2.5 0 1,1 0,-2.5A2.5,2.5 0 0,1 2.5,0Z" style="opacity: 1; stroke-width: 0px; fill: rgb(132, 73, 99); fill-opacity: 1;"/></g></g><g class="trace violins" style="opacity: 1;"><path class="violin" d="M524.47,170.18L524.47,169.48Q535.58,169.11 541.13,168.81C546.69,168.51 552.25,168.16 557.8,167.69C563.36,167.22 568.91,166.66 574.46,165.98C580.02,165.3 585.58,164.5 591.12,163.59C596.68,162.67 602.24,161.62 607.78,160.49C613.34,159.36 618.89,158.08 624.44,156.79C630,155.5 635.55,154.09 641.1,152.75C646.66,151.41 652.21,150 657.77,148.74C663.32,147.49 668.86,146.25 674.43,145.22C679.97,144.2 685.53,143.29 691.09,142.59C696.63,141.9 702.19,141.38 707.75,141.05C713.3,140.72 718.86,140.61 724.41,140.62C729.96,140.63 735.52,140.83 741.07,141.11C746.63,141.39 752.19,141.82 757.74,142.28C763.3,142.74 768.85,143.3 774.4,143.87C779.96,144.44 785.51,145.07 791.06,145.71C796.61,146.35 802.17,147.02 807.72,147.7C813.27,148.39 818.83,149.08 824.38,149.82C829.94,150.56 835.49,151.32 841.04,152.13C846.6,152.94 852.16,153.78 857.71,154.66C863.27,155.54 868.82,156.47 874.37,157.39C879.92,158.31 885.47,159.28 891.03,160.17C896.58,161.06 902.13,161.97 907.69,162.75C913.24,163.53 918.79,164.27 924.35,164.86C929.9,165.45 935.45,165.94 941.01,166.3C946.56,166.66 952.12,166.89 957.68,167.03C963.23,167.17 968.79,167.18 974.34,167.16C979.89,167.14 985.45,167 991,166.89C996.55,166.78 1002.11,166.6 1007.66,166.49C1013.21,166.38 1018.77,166.26 1024.32,166.21C1029.87,166.16 1035.43,166.14 1040.98,166.19C1046.54,166.24 1052.09,166.34 1057.65,166.49C1063.2,166.63 1068.76,166.85 1074.31,167.06C1079.86,167.27 1085.42,167.53 1090.97,167.77C1096.52,168.01 1102.08,168.26 1107.63,168.48C1113.18,168.7 1118.74,168.91 1124.29,169.09C1129.84,169.27 1135.4,169.42 1140.95,169.55Q1146.51,169.68 1157.62,169.85L1157.62,170.18" style="vector-effect: non-scaling-stroke; stroke-width: 2px; stroke: rgb(149, 68, 87); stroke-opacity: 1; fill: rgb(149, 68, 87); fill-opacity: 0.5;"/><g class="points"><path class="point" transform="translate(627.12,161.98)" d="M2.5,0A2.5,2.5 0 1,1 0,-2.5A2.5,2.5 0 0,1 2.5,0Z" style="opacity: 1; stroke-width: 0px; fill: rgb(149, 68, 87); fill-opacity: 1;"/><path class="point" transform="translate(628.82,167.32)" d="M2.5,0A2.5,2.5 0 1,1 0,-2.5A2.5,2.5 0 0,1 2.5,0Z" style="opacity: 1; stroke-width: 0px; fill: rgb(149, 68, 87); fill-opacity: 1;"/><path class="point" transform="translate(668.53,160.33)" d="M2.5,0A2.5,2.5 0 1,1 0,-2.5A2.5,2.5 0 0,1 2.5,0Z" style="opacity: 1; stroke-width: 0px; fill: rgb(149, 68, 87); fill-opacity: 1;"/><path class="point" transform="translate(674.95,168.82)" d="M2.5,0A2.5,2.5 0 1,1 0,-2.5A2.5,2.5 0 0,1 2.5,0Z" style="opacity: 1; stroke-width: 0px; fill: rgb(149, 68, 87); fill-opacity: 1;"/><path class="point" transform="translate(679.11,165.57)" d="M2.5,0A2.5,2.5 0 1,1 0,-2.5A2.5,2.5 0 0,1 2.5,0Z" style="opacity: 1; stroke-width: 0px; fill: rgb(149, 68, 87); fill-opacity: 1;"/><path class="point" transform="translate(691.97,161.39)" d="M2.5,0A2.5,2.5 0 1,1 0,-2.5A2.5,2.5 0 0,1 2.5,0Z" style="opacity: 1; stroke-width: 0px; fill: rgb(149, 68, 87); fill-opacity: 1;"/><path class="point" transform="translate(693.48,164.45)" d="M2.5,0A2.5,2.5 0 1,1 0,-2.5A2.5,2.5 0 0,1 2.5,0Z" style="opacity: 1; stroke-width: 0px; fill: rgb(149, 68, 87); fill-opacity: 1;"/><path class="point" transform="translate(695.75,162.56)" d="M2.5,0A2.5,2.5 0 1,1 0,-2.5A2.5,2.5 0 0,1 2.5,0Z" style="opacity: 1; stroke-width: 0px; fill: rgb(149, 68, 87); fill-opacity: 1;"/><path class="point" transform="translate(696.88,166.11)" d="M2.5,0A2.5,2.5 0 1,1 0,-2.5A2.5,2.5 0 0,1 2.5,0Z" style="opacity: 1; stroke-width: 0px; fill: rgb(149, 68, 87); fill-opacity: 1;"/><path class="point" transform="translate(708.23,168.27)" d="M2.5,0A2.5,2.5 0 1,1 0,-2.5A2.5,2.5 0 0,1 2.5,0Z" style="opacity: 1; stroke-width: 0px; fill: rgb(149, 68, 87); fill-opacity: 1;"/><path class="point" transform="translate(710.88,162.7)" d="M2.5,0A2.5,2.5 0 1,1 0,-2.5A2.5,2.5 0 0,1 2.5,0Z" style="opacity: 1; stroke-width: 0px; fill: rgb(149, 68, 87); fill-opacity: 1;"/><path class="point" transform="translate(737.34,166.14)" d="M2.5,0A2.5,2.5 0 1,1 0,-2.5A2.5,2.5 0 0,1 2.5,0Z" style="opacity: 1; stroke-width: 0px; fill: rgb(149, 68, 87); fill-opacity: 1;"/><path class="point" transform="translate(740.75,160.86)" d="M2.5,0A2.5,2.5 0 1,1 0,-2.5A2.5,2.5 0 0,1 2.5,0Z" style="opacity: 1; stroke-width: 0px; fill: rgb(149, 68, 87); fill-opacity: 1;"/><path class="point" transform="translate(750.58,168.98)" d="M2.5,0A2.5,2.5 0 1,1 0,-2.5A2.5,2.5 0 0,1 2.5,0Z" style="opacity: 1; stroke-width: 0px; fill: rgb(149, 68, 87); fill-opacity: 1;"/><path class="point" transform="translate(763.81,167.22)" d="M2.5,0A2.5,2.5 0 1,1 0,-2.5A2.5,2.5 0 0,1 2.5,0Z" style="opacity: 1; stroke-width: 0px; fill: rgb(149, 68, 87); fill-opacity: 1;"/><path class="point" transform="translate(765.33,160.12)" d="M2.5,0A2.5,2.5 0 1,1 0,-2.5A2.5,2.5 0 0,1 2.5,0Z" style="opacity: 1; stroke-width: 0px; fill: rgb(149, 68, 87); fill-opacity: 1;"/><path class="point" transform="translate(771.94,165.45)" d="M2.5,0A2.5,2.5 0 1,1 0,-2.5A2.5,2.5 0 0,1 2.5,0Z" style="opacity: 1; stroke-width: 0px; fill: rgb(149, 68, 87); fill-opacity: 1;"/><path class="point" transform="translate(783.1,168.31)" d="M2.5,0A2.5,2.5 0 1,1 0,-2.5A2.5,2.5 0 0,1 2.5,0Z" style="opacity: 1; stroke-width: 0px; fill: rgb(149, 68, 87); fill-opacity: 1;"/><path class="point" transform="translate(804.84,165.82)" d="M2.5,0A2.5,2.5 0 1,1 0,-2.5A2.5,2.5 0 0,1 2.5,0Z" style="opacity: 1; stroke-width: 0px; fill: rgb(149, 68, 87); fill-opacity: 1;"/><path class="point" transform="translate(805.41,164.37)" d="M2.5,0A2.5,2.5 0 1,1 0,-2.5A2.5,2.5 0 0,1 2.5,0Z" style="opacity: 1; stroke-width: 0px; fill: rgb(149, 68, 87); fill-opacity: 1;"/><path class="point" transform="translate(825.45,162.84)" d="M2.5,0A2.5,2.5 0 1,1 0,-2.5A2.5,2.5 0 0,1 2.5,0Z" style="opacity: 1; stroke-width: 0px; fill: rgb(149, 68, 87); fill-opacity: 1;"/><path class="point" transform="translate(850.78,163.94)" d="M2.5,0A2.5,2.5 0 1,1 0,-2.5A2.5,2.5 0 0,1 2.5,0Z" style="opacity: 1; stroke-width: 0px; fill: rgb(149, 68, 87); fill-opacity: 1;"/><path class="point" transform="translate(854.94,165.09)" d="M2.5,0A2.5,2.5 0 1,1 0,-2.5A2.5,2.5 0 0,1 2.5,0Z" style="opacity: 1; stroke-width: 0px; fill: rgb(149, 68, 87); fill-opacity: 1;"/><path class="point" transform="translate(865.15,166.65)" d="M2.5,0A2.5,2.5 0 1,1 0,-2.5A2.5,2.5 0 0,1 2.5,0Z" style="opacity: 1; stroke-width: 0px; fill: rgb(149, 68, 87); fill-opacity: 1;"/><path class="point" transform="translate(874.23,164.28)" d="M2.5,0A2.5,2.5 0 1,1 0,-2.5A2.5,2.5 0 0,1 2.5,0Z" style="opacity: 1; stroke-width: 0px; fill: rgb(149, 68, 87); fill-opacity: 1;"/><path class="point" transform="translate(1016.02,165.02)" d="M2.5,0A2.5,2.5 0 1,1 0,-2.5A2.5,2.5 0 0,1 2.5,0Z" style="opacity: 1; stroke-width: 0px; fill: rgb(149, 68, 87); fill-opacity: 1;"/><path class="point" transform="translate(1054.97,163.11)" d="M2.5,0A2.5,2.5 0 1,1 0,-2.5A2.5,2.5 0 0,1 2.5,0Z" style="opacity: 1; stroke-width: 0px; fill: rgb(149, 68, 87); fill-opacity: 1;"/></g></g><g class="trace violins" style="opacity: 1;"><path class="violin" d="M457.66,140.62L457.66,140.27Q467.37,140.1 472.23,139.98C477.08,139.86 481.94,139.71 486.79,139.55C491.65,139.39 496.5,139.21 501.36,139.01C506.22,138.81 511.07,138.59 515.93,138.37C520.78,138.15 525.64,137.92 530.49,137.67C535.35,137.42 540.21,137.18 545.06,136.88C549.92,136.58 554.77,136.28 559.62,135.89C564.48,135.5 569.34,135.07 574.19,134.54C579.05,134.01 583.9,133.4 588.75,132.7C593.61,132 598.47,131.18 603.32,130.33C608.18,129.48 613.03,128.52 617.88,127.59C622.74,126.66 627.59,125.67 632.45,124.74C637.3,123.82 642.16,122.89 647.02,122.04C651.87,121.19 656.72,120.4 661.58,119.66C666.43,118.93 671.29,118.26 676.15,117.63C681,117.01 685.85,116.44 690.71,115.91C695.56,115.38 700.42,114.89 705.28,114.43C710.13,113.97 714.98,113.55 719.84,113.16C724.69,112.77 729.55,112.4 734.41,112.09C739.26,111.78 744.11,111.49 748.97,111.32C753.82,111.15 758.68,111.02 763.54,111.05C768.4,111.08 773.26,111.21 778.11,111.51C782.97,111.81 787.82,112.28 792.67,112.87C797.53,113.47 802.39,114.25 807.24,115.08C812.1,115.91 816.95,116.9 821.8,117.83C826.66,118.76 831.51,119.77 836.37,120.66C841.22,121.55 846.07,122.41 850.93,123.15C855.78,123.89 860.64,124.54 865.5,125.11C870.35,125.68 875.21,126.13 880.07,126.58C884.92,127.03 889.78,127.39 894.63,127.79C899.49,128.19 904.35,128.56 909.2,128.99C914.06,129.42 918.91,129.86 923.76,130.36C928.62,130.86 933.48,131.42 938.33,131.98C943.19,132.55 948.04,133.16 952.89,133.75C957.75,134.34 962.6,134.96 967.46,135.52C972.31,136.08 977.16,136.64 982.02,137.12C986.87,137.6 991.73,138.04 996.59,138.41C1001.44,138.78 1006.3,139.09 1011.16,139.35Q1016.01,139.61 1025.72,139.95L1025.72,140.62" style="vector-effect: non-scaling-stroke; stroke-width: 2px; stroke: rgb(165, 63, 75); stroke-opacity: 1; fill: rgb(165, 63, 75); fill-opacity: 0.5;"/><g class="points"><path class="point" transform="translate(547.34,132.99)" d="M2.5,0A2.5,2.5 0 1,1 0,-2.5A2.5,2.5 0 0,1 2.5,0Z" style="opacity: 1; stroke-width: 0px; fill: rgb(165, 63, 75); fill-opacity: 1;"/><path class="point" transform="translate(633.36,136.82)" d="M2.5,0A2.5,2.5 0 1,1 0,-2.5A2.5,2.5 0 0,1 2.5,0Z" style="opacity: 1; stroke-width: 0px; fill: rgb(165, 63, 75); fill-opacity: 1;"/><path class="point" transform="translate(639.03,131.92)" d="M2.5,0A2.5,2.5 0 1,1 0,-2.5A2.5,2.5 0 0,1 2.5,0Z" style="opacity: 1; stroke-width: 0px; fill: rgb(165, 63, 75); fill-opacity: 1;"/><path class="point" transform="translate(641.3,137.91)" d="M2.5,0A2.5,2.5 0 1,1 0,-2.5A2.5,2.5 0 0,1 2.5,0Z" style="opacity: 1; stroke-width: 0px; fill: rgb(165, 63, 75); fill-opacity: 1;"/><path class="point" transform="translate(646.4,135.64)" d="M2.5,0A2.5,2.5 0 1,1 0,-2.5A2.5,2.5 0 0,1 2.5,0Z" style="opacity: 1; stroke-width: 0px; fill: rgb(165, 63, 75); fill-opacity: 1;"/><path class="point" transform="translate(673.63,132.64)" d="M2.5,0A2.5,2.5 0 1,1 0,-2.5A2.5,2.5 0 0,1 2.5,0Z" style="opacity: 1; stroke-width: 0px; fill: rgb(165, 63, 75); fill-opacity: 1;"/><path class="point" transform="translate(697.26,134.9)" d="M2.5,0A2.5,2.5 0 1,1 0,-2.5A2.5,2.5 0 0,1 2.5,0Z" style="opacity: 1; stroke-width: 0px; fill: rgb(165, 63, 75); fill-opacity: 1;"/><path class="point" transform="translate(697.64,133.24)" d="M2.5,0A2.5,2.5 0 1,1 0,-2.5A2.5,2.5 0 0,1 2.5,0Z" style="opacity: 1; stroke-width: 0px; fill: rgb(165, 63, 75); fill-opacity: 1;"/><path class="point" transform="translate(701.42,136.25)" d="M2.5,0A2.5,2.5 0 1,1 0,-2.5A2.5,2.5 0 0,1 2.5,0Z" style="opacity: 1; stroke-width: 0px; fill: rgb(165, 63, 75); fill-opacity: 1;"/><path class="point" transform="translate(717.68,138.11)" d="M2.5,0A2.5,2.5 0 1,1 0,-2.5A2.5,2.5 0 0,1 2.5,0Z" style="opacity: 1; stroke-width: 0px; fill: rgb(165, 63, 75); fill-opacity: 1;"/><path class="point" transform="translate(725.62,133.35)" d="M2.5,0A2.5,2.5 0 1,1 0,-2.5A2.5,2.5 0 0,1 2.5,0Z" style="opacity: 1; stroke-width: 0px; fill: rgb(165, 63, 75); fill-opacity: 1;"/><path class="point" transform="translate(732.62,136.54)" d="M2.5,0A2.5,2.5 0 1,1 0,-2.5A2.5,2.5 0 0,1 2.5,0Z" style="opacity: 1; stroke-width: 0px; fill: rgb(165, 63, 75); fill-opacity: 1;"/><path class="point" transform="translate(747.18,131.31)" d="M2.5,0A2.5,2.5 0 1,1 0,-2.5A2.5,2.5 0 0,1 2.5,0Z" style="opacity: 1; stroke-width: 0px; fill: rgb(165, 63, 75); fill-opacity: 1;"/><path class="point" transform="translate(759.46,140.02)" d="M2.5,0A2.5,2.5 0 1,1 0,-2.5A2.5,2.5 0 0,1 2.5,0Z" style="opacity: 1; stroke-width: 0px; fill: rgb(165, 63, 75); fill-opacity: 1;"/><path class="point" transform="translate(774.59,138.12)" d="M2.5,0A2.5,2.5 0 1,1 0,-2.5A2.5,2.5 0 0,1 2.5,0Z" style="opacity: 1; stroke-width: 0px; fill: rgb(165, 63, 75); fill-opacity: 1;"/><path class="point" transform="translate(781.58,129.68)" d="M2.5,0A2.5,2.5 0 1,1 0,-2.5A2.5,2.5 0 0,1 2.5,0Z" style="opacity: 1; stroke-width: 0px; fill: rgb(165, 63, 75); fill-opacity: 1;"/><path class="point" transform="translate(786.12,136.09)" d="M2.5,0A2.5,2.5 0 1,1 0,-2.5A2.5,2.5 0 0,1 2.5,0Z" style="opacity: 1; stroke-width: 0px; fill: rgb(165, 63, 75); fill-opacity: 1;"/><path class="point" transform="translate(794.06,138.8)" d="M2.5,0A2.5,2.5 0 1,1 0,-2.5A2.5,2.5 0 0,1 2.5,0Z" style="opacity: 1; stroke-width: 0px; fill: rgb(165, 63, 75); fill-opacity: 1;"/><path class="point" transform="translate(794.06,136.31)" d="M2.5,0A2.5,2.5 0 1,1 0,-2.5A2.5,2.5 0 0,1 2.5,0Z" style="opacity: 1; stroke-width: 0px; fill: rgb(165, 63, 75); fill-opacity: 1;"/><path class="point" transform="translate(796.71,134.81)" d="M2.5,0A2.5,2.5 0 1,1 0,-2.5A2.5,2.5 0 0,1 2.5,0Z" style="opacity: 1; stroke-width: 0px; fill: rgb(165, 63, 75); fill-opacity: 1;"/><path class="point" transform="translate(811.46,132.77)" d="M2.5,0A2.5,2.5 0 1,1 0,-2.5A2.5,2.5 0 0,1 2.5,0Z" style="opacity: 1; stroke-width: 0px; fill: rgb(165, 63, 75); fill-opacity: 1;"/><path class="point" transform="translate(822.8,134.23)" d="M2.5,0A2.5,2.5 0 1,1 0,-2.5A2.5,2.5 0 0,1 2.5,0Z" style="opacity: 1; stroke-width: 0px; fill: rgb(165, 63, 75); fill-opacity: 1;"/><path class="point" transform="translate(868.55,135.88)" d="M2.5,0A2.5,2.5 0 1,1 0,-2.5A2.5,2.5 0 0,1 2.5,0Z" style="opacity: 1; stroke-width: 0px; fill: rgb(165, 63, 75); fill-opacity: 1;"/><path class="point" transform="translate(877.06,138)" d="M2.5,0A2.5,2.5 0 1,1 0,-2.5A2.5,2.5 0 0,1 2.5,0Z" style="opacity: 1; stroke-width: 0px; fill: rgb(165, 63, 75); fill-opacity: 1;"/><path class="point" transform="translate(893.89,134.71)" d="M2.5,0A2.5,2.5 0 1,1 0,-2.5A2.5,2.5 0 0,1 2.5,0Z" style="opacity: 1; stroke-width: 0px; fill: rgb(165, 63, 75); fill-opacity: 1;"/><path class="point" transform="translate(930.57,135.77)" d="M2.5,0A2.5,2.5 0 1,1 0,-2.5A2.5,2.5 0 0,1 2.5,0Z" style="opacity: 1; stroke-width: 0px; fill: rgb(165, 63, 75); fill-opacity: 1;"/><path class="point" transform="translate(936.05,133.08)" d="M2.5,0A2.5,2.5 0 1,1 0,-2.5A2.5,2.5 0 0,1 2.5,0Z" style="opacity: 1; stroke-width: 0px; fill: rgb(165, 63, 75); fill-opacity: 1;"/></g></g><g class="trace violins" style="opacity: 1;"><path class="violin" d="M512.32,111.05L512.32,110.02Q525.7,109.45 532.38,109.01C539.07,108.57 545.75,108.04 552.43,107.38C559.12,106.72 565.81,105.94 572.49,105.04C579.18,104.14 585.86,103.1 592.54,102C599.23,100.9 605.92,99.67 612.6,98.46C619.29,97.25 625.96,95.95 632.65,94.72C639.33,93.49 646.02,92.24 652.71,91.1C659.39,89.96 666.07,88.85 672.76,87.86C679.44,86.87 686.13,85.95 692.82,85.16C699.5,84.37 706.18,83.67 712.87,83.12C719.55,82.57 726.24,82.13 732.93,81.86C739.61,81.59 746.3,81.45 752.98,81.48C759.66,81.51 766.35,81.71 773.03,82.03C779.72,82.35 786.41,82.85 793.09,83.41C799.78,83.97 806.46,84.68 813.14,85.39C819.83,86.1 826.51,86.91 833.2,87.66C839.88,88.41 846.56,89.2 853.25,89.91C859.93,90.62 866.62,91.31 873.31,91.93C879.99,92.55 886.67,93.11 893.36,93.63C900.04,94.15 906.73,94.6 913.42,95.05C920.1,95.5 926.79,95.89 933.47,96.31C940.16,96.73 946.84,97.12 953.53,97.56C960.21,98 966.9,98.44 973.58,98.93C980.27,99.42 986.96,99.96 993.64,100.52C1000.33,101.08 1007.01,101.7 1013.69,102.3C1020.37,102.91 1027.06,103.54 1033.74,104.15C1040.43,104.76 1047.11,105.38 1053.8,105.94C1060.48,106.5 1067.16,107.04 1073.85,107.51C1080.53,107.98 1087.22,108.4 1093.91,108.76C1100.59,109.12 1107.27,109.42 1113.96,109.68C1120.64,109.94 1127.33,110.13 1134.02,110.3Q1140.7,110.46 1154.07,110.67L1154.07,111.05" style="vector-effect: non-scaling-stroke; stroke-width: 2px; stroke: rgb(182, 58, 63); stroke-opacity: 1; fill: rgb(182, 58, 63); fill-opacity: 0.5;"/><g class="points"><path class="point" transform="translate(634.49,102.39)" d="M2.5,0A2.5,2.5 0 1,1 0,-2.5A2.5,2.5 0 0,1 2.5,0Z" style="opacity: 1; stroke-width: 0px; fill: rgb(182, 58, 63); fill-opacity: 1;"/><path class="point" transform="translate(644.14,108.33)" d="M2.5,0A2.5,2.5 0 1,1 0,-2.5A2.5,2.5 0 0,1 2.5,0Z" style="opacity: 1; stroke-width: 0px; fill: rgb(182, 58, 63); fill-opacity: 1;"/><path class="point" transform="translate(644.51,101.1)" d="M2.5,0A2.5,2.5 0 1,1 0,-2.5A2.5,2.5 0 0,1 2.5,0Z" style="opacity: 1; stroke-width: 0px; fill: rgb(182, 58, 63); fill-opacity: 1;"/><path class="point" transform="translate(647.73,109.64)" d="M2.5,0A2.5,2.5 0 1,1 0,-2.5A2.5,2.5 0 0,1 2.5,0Z" style="opacity: 1; stroke-width: 0px; fill: rgb(182, 58, 63); fill-opacity: 1;"/><path class="point" transform="translate(676.84,106.4)" d="M2.5,0A2.5,2.5 0 1,1 0,-2.5A2.5,2.5 0 0,1 2.5,0Z" style="opacity: 1; stroke-width: 0px; fill: rgb(182, 58, 63); fill-opacity: 1;"/><path class="point" transform="translate(688.57,102.41)" d="M2.5,0A2.5,2.5 0 1,1 0,-2.5A2.5,2.5 0 0,1 2.5,0Z" style="opacity: 1; stroke-width: 0px; fill: rgb(182, 58, 63); fill-opacity: 1;"/><path class="point" transform="translate(706.72,105.33)" d="M2.5,0A2.5,2.5 0 1,1 0,-2.5A2.5,2.5 0 0,1 2.5,0Z" style="opacity: 1; stroke-width: 0px; fill: rgb(182, 58, 63); fill-opacity: 1;"/><path class="point" transform="translate(712.77,103.71)" d="M2.5,0A2.5,2.5 0 1,1 0,-2.5A2.5,2.5 0 0,1 2.5,0Z" style="opacity: 1; stroke-width: 0px; fill: rgb(182, 58, 63); fill-opacity: 1;"/><path class="point" transform="translate(719.95,106.73)" d="M2.5,0A2.5,2.5 0 1,1 0,-2.5A2.5,2.5 0 0,1 2.5,0Z" style="opacity: 1; stroke-width: 0px; fill: rgb(182, 58, 63); fill-opacity: 1;"/><path class="point" transform="translate(737.34,109.28)" d="M2.5,0A2.5,2.5 0 1,1 0,-2.5A2.5,2.5 0 0,1 2.5,0Z" style="opacity: 1; stroke-width: 0px; fill: rgb(182, 58, 63); fill-opacity: 1;"/><path class="point" transform="translate(746.8,103.68)" d="M2.5,0A2.5,2.5 0 1,1 0,-2.5A2.5,2.5 0 0,1 2.5,0Z" style="opacity: 1; stroke-width: 0px; fill: rgb(182, 58, 63); fill-opacity: 1;"/><path class="point" transform="translate(758.9,107.08)" d="M2.5,0A2.5,2.5 0 1,1 0,-2.5A2.5,2.5 0 0,1 2.5,0Z" style="opacity: 1; stroke-width: 0px; fill: rgb(182, 58, 63); fill-opacity: 1;"/><path class="point" transform="translate(768.73,101.59)" d="M2.5,0A2.5,2.5 0 1,1 0,-2.5A2.5,2.5 0 0,1 2.5,0Z" style="opacity: 1; stroke-width: 0px; fill: rgb(182, 58, 63); fill-opacity: 1;"/><path class="point" transform="translate(769.86,110.36)" d="M2.5,0A2.5,2.5 0 1,1 0,-2.5A2.5,2.5 0 0,1 2.5,0Z" style="opacity: 1; stroke-width: 0px; fill: rgb(182, 58, 63); fill-opacity: 1;"/><path class="point" transform="translate(771.56,108.09)" d="M2.5,0A2.5,2.5 0 1,1 0,-2.5A2.5,2.5 0 0,1 2.5,0Z" style="opacity: 1; stroke-width: 0px; fill: rgb(182, 58, 63); fill-opacity: 1;"/><path class="point" transform="translate(791.04,100.48)" d="M2.5,0A2.5,2.5 0 1,1 0,-2.5A2.5,2.5 0 0,1 2.5,0Z" style="opacity: 1; stroke-width: 0px; fill: rgb(182, 58, 63); fill-opacity: 1;"/><path class="point" transform="translate(793.31,106.35)" d="M2.5,0A2.5,2.5 0 1,1 0,-2.5A2.5,2.5 0 0,1 2.5,0Z" style="opacity: 1; stroke-width: 0px; fill: rgb(182, 58, 63); fill-opacity: 1;"/><path class="point" transform="translate(809.75,109.36)" d="M2.5,0A2.5,2.5 0 1,1 0,-2.5A2.5,2.5 0 0,1 2.5,0Z" style="opacity: 1; stroke-width: 0px; fill: rgb(182, 58, 63); fill-opacity: 1;"/><path class="point" transform="translate(825.07,106.6)" d="M2.5,0A2.5,2.5 0 1,1 0,-2.5A2.5,2.5 0 0,1 2.5,0Z" style="opacity: 1; stroke-width: 0px; fill: rgb(182, 58, 63); fill-opacity: 1;"/><path class="point" transform="translate(853.81,105.22)" d="M2.5,0A2.5,2.5 0 1,1 0,-2.5A2.5,2.5 0 0,1 2.5,0Z" style="opacity: 1; stroke-width: 0px; fill: rgb(182, 58, 63); fill-opacity: 1;"/><path class="point" transform="translate(856.08,103.31)" d="M2.5,0A2.5,2.5 0 1,1 0,-2.5A2.5,2.5 0 0,1 2.5,0Z" style="opacity: 1; stroke-width: 0px; fill: rgb(182, 58, 63); fill-opacity: 1;"/><path class="point" transform="translate(888.97,104.69)" d="M2.5,0A2.5,2.5 0 1,1 0,-2.5A2.5,2.5 0 0,1 2.5,0Z" style="opacity: 1; stroke-width: 0px; fill: rgb(182, 58, 63); fill-opacity: 1;"/><path class="point" transform="translate(893.51,106.18)" d="M2.5,0A2.5,2.5 0 1,1 0,-2.5A2.5,2.5 0 0,1 2.5,0Z" style="opacity: 1; stroke-width: 0px; fill: rgb(182, 58, 63); fill-opacity: 1;"/><path class="point" transform="translate(923.38,108.17)" d="M2.5,0A2.5,2.5 0 1,1 0,-2.5A2.5,2.5 0 0,1 2.5,0Z" style="opacity: 1; stroke-width: 0px; fill: rgb(182, 58, 63); fill-opacity: 1;"/><path class="point" transform="translate(960.44,105.15)" d="M2.5,0A2.5,2.5 0 1,1 0,-2.5A2.5,2.5 0 0,1 2.5,0Z" style="opacity: 1; stroke-width: 0px; fill: rgb(182, 58, 63); fill-opacity: 1;"/><path class="point" transform="translate(974.81,106.15)" d="M2.5,0A2.5,2.5 0 1,1 0,-2.5A2.5,2.5 0 0,1 2.5,0Z" style="opacity: 1; stroke-width: 0px; fill: rgb(182, 58, 63); fill-opacity: 1;"/><path class="point" transform="translate(980.48,103.48)" d="M2.5,0A2.5,2.5 0 1,1 0,-2.5A2.5,2.5 0 0,1 2.5,0Z" style="opacity: 1; stroke-width: 0px; fill: rgb(182, 58, 63); fill-opacity: 1;"/><path class="point" transform="translate(1031.9,105.43)" d="M2.5,0A2.5,2.5 0 1,1 0,-2.5A2.5,2.5 0 0,1 2.5,0Z" style="opacity: 1; stroke-width: 0px; fill: rgb(182, 58, 63); fill-opacity: 1;"/></g></g><g class="trace violins" style="opacity: 1;"><path class="violin" d="M359.09,81.48L359.09,81.11Q376.3,80.91 384.9,80.77C393.5,80.63 402.1,80.46 410.7,80.25C419.3,80.04 427.91,79.8 436.51,79.52C445.11,79.24 453.72,78.93 462.32,78.59C470.92,78.25 479.52,77.87 488.12,77.47C496.72,77.07 505.33,76.64 513.93,76.17C522.53,75.69 531.13,75.2 539.73,74.62C548.33,74.04 556.94,73.42 565.54,72.7C574.15,71.98 582.75,71.19 591.35,70.31C599.96,69.43 608.55,68.44 617.15,67.41C625.76,66.38 634.36,65.24 642.96,64.15C651.56,63.06 660.16,61.89 668.77,60.85C677.37,59.81 685.96,58.78 694.57,57.9C703.17,57.02 711.77,56.23 720.38,55.57C728.98,54.91 737.58,54.4 746.18,53.95C754.78,53.51 763.39,53.18 771.99,52.9C780.59,52.62 789.2,52.41 797.8,52.25C806.4,52.09 815,51.97 823.6,51.92C832.2,51.87 840.81,51.86 849.41,51.98C858.01,52.1 866.62,52.29 875.22,52.62C883.82,52.96 892.42,53.41 901.02,53.99C909.63,54.57 918.23,55.3 926.83,56.1C935.44,56.9 944.03,57.85 952.63,58.8C961.24,59.75 969.84,60.79 978.44,61.79C987.04,62.78 995.65,63.81 1004.25,64.77C1012.85,65.72 1021.45,66.65 1030.05,67.52C1038.65,68.38 1047.25,69.19 1055.86,69.96C1064.46,70.72 1073.07,71.43 1081.67,72.11C1090.27,72.79 1098.87,73.44 1107.47,74.06C1116.07,74.68 1124.68,75.28 1133.28,75.84C1141.88,76.4 1150.48,76.94 1159.08,77.43C1167.68,77.92 1176.29,78.37 1184.89,78.77C1193.49,79.17 1202.1,79.51 1210.7,79.81C1219.3,80.1 1227.9,80.34 1236.5,80.54Q1245.1,80.74 1262.31,80.99L1262.31,81.48" style="vector-effect: non-scaling-stroke; stroke-width: 2px; stroke: rgb(198, 53, 51); stroke-opacity: 1; fill: rgb(198, 53, 51); fill-opacity: 0.5;"/><g class="points"><path class="point" transform="translate(516.9,73.72)" d="M2.5,0A2.5,2.5 0 1,1 0,-2.5A2.5,2.5 0 0,1 2.5,0Z" style="opacity: 1; stroke-width: 0px; fill: rgb(198, 53, 51); fill-opacity: 1;"/><path class="point" transform="translate(585.72,77.87)" d="M2.5,0A2.5,2.5 0 1,1 0,-2.5A2.5,2.5 0 0,1 2.5,0Z" style="opacity: 1; stroke-width: 0px; fill: rgb(198, 53, 51); fill-opacity: 1;"/><path class="point" transform="translate(664.37,72.55)" d="M2.5,0A2.5,2.5 0 1,1 0,-2.5A2.5,2.5 0 0,1 2.5,0Z" style="opacity: 1; stroke-width: 0px; fill: rgb(198, 53, 51); fill-opacity: 1;"/><path class="point" transform="translate(677.22,78.97)" d="M2.5,0A2.5,2.5 0 1,1 0,-2.5A2.5,2.5 0 0,1 2.5,0Z" style="opacity: 1; stroke-width: 0px; fill: rgb(198, 53, 51); fill-opacity: 1;"/><path class="point" transform="translate(695.18,76.61)" d="M2.5,0A2.5,2.5 0 1,1 0,-2.5A2.5,2.5 0 0,1 2.5,0Z" style="opacity: 1; stroke-width: 0px; fill: rgb(198, 53, 51); fill-opacity: 1;"/><path class="point" transform="translate(696.51,73.36)" d="M2.5,0A2.5,2.5 0 1,1 0,-2.5A2.5,2.5 0 0,1 2.5,0Z" style="opacity: 1; stroke-width: 0px; fill: rgb(198, 53, 51); fill-opacity: 1;"/><path class="point" transform="translate(725.62,75.73)" d="M2.5,0A2.5,2.5 0 1,1 0,-2.5A2.5,2.5 0 0,1 2.5,0Z" style="opacity: 1; stroke-width: 0px; fill: rgb(198, 53, 51); fill-opacity: 1;"/><path class="point" transform="translate(726.38,74.04)" d="M2.5,0A2.5,2.5 0 1,1 0,-2.5A2.5,2.5 0 0,1 2.5,0Z" style="opacity: 1; stroke-width: 0px; fill: rgb(198, 53, 51); fill-opacity: 1;"/><path class="point" transform="translate(741.5,77.29)" d="M2.5,0A2.5,2.5 0 1,1 0,-2.5A2.5,2.5 0 0,1 2.5,0Z" style="opacity: 1; stroke-width: 0px; fill: rgb(198, 53, 51); fill-opacity: 1;"/><path class="point" transform="translate(748.69,79.61)" d="M2.5,0A2.5,2.5 0 1,1 0,-2.5A2.5,2.5 0 0,1 2.5,0Z" style="opacity: 1; stroke-width: 0px; fill: rgb(198, 53, 51); fill-opacity: 1;"/><path class="point" transform="translate(772.51,74.13)" d="M2.5,0A2.5,2.5 0 1,1 0,-2.5A2.5,2.5 0 0,1 2.5,0Z" style="opacity: 1; stroke-width: 0px; fill: rgb(198, 53, 51); fill-opacity: 1;"/><path class="point" transform="translate(825.83,77.38)" d="M2.5,0A2.5,2.5 0 1,1 0,-2.5A2.5,2.5 0 0,1 2.5,0Z" style="opacity: 1; stroke-width: 0px; fill: rgb(198, 53, 51); fill-opacity: 1;"/><path class="point" transform="translate(827.72,72.32)" d="M2.5,0A2.5,2.5 0 1,1 0,-2.5A2.5,2.5 0 0,1 2.5,0Z" style="opacity: 1; stroke-width: 0px; fill: rgb(198, 53, 51); fill-opacity: 1;"/><path class="point" transform="translate(834.33,80.72)" d="M2.5,0A2.5,2.5 0 1,1 0,-2.5A2.5,2.5 0 0,1 2.5,0Z" style="opacity: 1; stroke-width: 0px; fill: rgb(198, 53, 51); fill-opacity: 1;"/><path class="point" transform="translate(845.11,78.56)" d="M2.5,0A2.5,2.5 0 1,1 0,-2.5A2.5,2.5 0 0,1 2.5,0Z" style="opacity: 1; stroke-width: 0px; fill: rgb(198, 53, 51); fill-opacity: 1;"/><path class="point" transform="translate(854.18,70.92)" d="M2.5,0A2.5,2.5 0 1,1 0,-2.5A2.5,2.5 0 0,1 2.5,0Z" style="opacity: 1; stroke-width: 0px; fill: rgb(198, 53, 51); fill-opacity: 1;"/><path class="point" transform="translate(876.12,77.05)" d="M2.5,0A2.5,2.5 0 1,1 0,-2.5A2.5,2.5 0 0,1 2.5,0Z" style="opacity: 1; stroke-width: 0px; fill: rgb(198, 53, 51); fill-opacity: 1;"/><path class="point" transform="translate(899.94,80.47)" d="M2.5,0A2.5,2.5 0 1,1 0,-2.5A2.5,2.5 0 0,1 2.5,0Z" style="opacity: 1; stroke-width: 0px; fill: rgb(198, 53, 51); fill-opacity: 1;"/><path class="point" transform="translate(904.1,77.23)" d="M2.5,0A2.5,2.5 0 1,1 0,-2.5A2.5,2.5 0 0,1 2.5,0Z" style="opacity: 1; stroke-width: 0px; fill: rgb(198, 53, 51); fill-opacity: 1;"/><path class="point" transform="translate(918.47,75.67)" d="M2.5,0A2.5,2.5 0 1,1 0,-2.5A2.5,2.5 0 0,1 2.5,0Z" style="opacity: 1; stroke-width: 0px; fill: rgb(198, 53, 51); fill-opacity: 1;"/><path class="point" transform="translate(937.37,73.65)" d="M2.5,0A2.5,2.5 0 1,1 0,-2.5A2.5,2.5 0 0,1 2.5,0Z" style="opacity: 1; stroke-width: 0px; fill: rgb(198, 53, 51); fill-opacity: 1;"/><path class="point" transform="translate(955.9,75.1)" d="M2.5,0A2.5,2.5 0 1,1 0,-2.5A2.5,2.5 0 0,1 2.5,0Z" style="opacity: 1; stroke-width: 0px; fill: rgb(198, 53, 51); fill-opacity: 1;"/><path class="point" transform="translate(967.24,76.76)" d="M2.5,0A2.5,2.5 0 1,1 0,-2.5A2.5,2.5 0 0,1 2.5,0Z" style="opacity: 1; stroke-width: 0px; fill: rgb(198, 53, 51); fill-opacity: 1;"/><path class="point" transform="translate(1015.64,78.9)" d="M2.5,0A2.5,2.5 0 1,1 0,-2.5A2.5,2.5 0 0,1 2.5,0Z" style="opacity: 1; stroke-width: 0px; fill: rgb(198, 53, 51); fill-opacity: 1;"/><path class="point" transform="translate(1071.98,75.58)" d="M2.5,0A2.5,2.5 0 1,1 0,-2.5A2.5,2.5 0 0,1 2.5,0Z" style="opacity: 1; stroke-width: 0px; fill: rgb(198, 53, 51); fill-opacity: 1;"/><path class="point" transform="translate(1104.5,76.65)" d="M2.5,0A2.5,2.5 0 1,1 0,-2.5A2.5,2.5 0 0,1 2.5,0Z" style="opacity: 1; stroke-width: 0px; fill: rgb(198, 53, 51); fill-opacity: 1;"/></g></g><g class="trace violins" style="opacity: 1;"><path class="violin" d="M502.02,51.92L502.02,51.17Q516.13,50.75 523.18,50.41C530.24,50.07 537.3,49.66 544.35,49.11C551.41,48.56 558.47,47.91 565.52,47.12C572.58,46.33 579.63,45.38 586.68,44.35C593.74,43.31 600.8,42.12 607.85,40.91C614.91,39.7 621.95,38.34 629.01,37.08C636.06,35.82 643.12,34.49 650.18,33.35C657.23,32.22 664.28,31.12 671.34,30.26C678.39,29.4 685.45,28.69 692.51,28.19C699.56,27.69 706.61,27.43 713.67,27.27C720.72,27.11 727.78,27.18 734.84,27.23C741.89,27.28 748.95,27.5 756,27.58C763.06,27.66 770.11,27.78 777.17,27.73C784.23,27.68 791.29,27.55 798.34,27.29C805.4,27.03 812.45,26.61 819.5,26.17C826.56,25.73 833.61,25.15 840.67,24.65C847.72,24.15 854.77,23.57 861.83,23.19C868.88,22.81 875.94,22.46 883,22.35C890.05,22.24 897.11,22.28 904.16,22.54C911.22,22.8 918.28,23.28 925.33,23.93C932.39,24.58 939.44,25.47 946.49,26.43C953.55,27.39 960.61,28.55 967.66,29.69C974.72,30.84 981.77,32.11 988.82,33.3C995.88,34.5 1002.93,35.72 1009.99,36.86C1017.04,38 1024.1,39.1 1031.16,40.12C1038.21,41.14 1045.26,42.08 1052.32,42.96C1059.37,43.83 1066.43,44.64 1073.49,45.37C1080.54,46.1 1087.59,46.76 1094.65,47.35C1101.7,47.94 1108.76,48.46 1115.82,48.92C1122.87,49.37 1129.92,49.75 1136.98,50.08C1144.03,50.41 1151.09,50.66 1158.15,50.88Q1165.2,51.1 1179.31,51.38L1179.31,51.92" style="vector-effect: non-scaling-stroke; stroke-width: 2px; stroke: rgb(215, 48, 39); stroke-opacity: 1; fill: rgb(215, 48, 39); fill-opacity: 0.5;"/><g class="points"><path class="point" transform="translate(632.98,43.37)" d="M2.5,0A2.5,2.5 0 1,1 0,-2.5A2.5,2.5 0 0,1 2.5,0Z" style="opacity: 1; stroke-width: 0px; fill: rgb(215, 48, 39); fill-opacity: 1;"/><path class="point" transform="translate(652.83,49.38)" d="M2.5,0A2.5,2.5 0 1,1 0,-2.5A2.5,2.5 0 0,1 2.5,0Z" style="opacity: 1; stroke-width: 0px; fill: rgb(215, 48, 39); fill-opacity: 1;"/><path class="point" transform="translate(668.34,41.56)" d="M2.5,0A2.5,2.5 0 1,1 0,-2.5A2.5,2.5 0 0,1 2.5,0Z" style="opacity: 1; stroke-width: 0px; fill: rgb(215, 48, 39); fill-opacity: 1;"/><path class="point" transform="translate(689.32,50.39)" d="M2.5,0A2.5,2.5 0 1,1 0,-2.5A2.5,2.5 0 0,1 2.5,0Z" style="opacity: 1; stroke-width: 0px; fill: rgb(215, 48, 39); fill-opacity: 1;"/><path class="point" transform="translate(694.99,47.3)" d="M2.5,0A2.5,2.5 0 1,1 0,-2.5A2.5,2.5 0 0,1 2.5,0Z" style="opacity: 1; stroke-width: 0px; fill: rgb(215, 48, 39); fill-opacity: 1;"/><path class="point" transform="translate(702.93,43.46)" d="M2.5,0A2.5,2.5 0 1,1 0,-2.5A2.5,2.5 0 0,1 2.5,0Z" style="opacity: 1; stroke-width: 0px; fill: rgb(215, 48, 39); fill-opacity: 1;"/><path class="point" transform="translate(710.12,46.18)" d="M2.5,0A2.5,2.5 0 1,1 0,-2.5A2.5,2.5 0 0,1 2.5,0Z" style="opacity: 1; stroke-width: 0px; fill: rgb(215, 48, 39); fill-opacity: 1;"/><path class="point" transform="translate(710.12,44.64)" d="M2.5,0A2.5,2.5 0 1,1 0,-2.5A2.5,2.5 0 0,1 2.5,0Z" style="opacity: 1; stroke-width: 0px; fill: rgb(215, 48, 39); fill-opacity: 1;"/><path class="point" transform="translate(740.56,47.53)" d="M2.5,0A2.5,2.5 0 1,1 0,-2.5A2.5,2.5 0 0,1 2.5,0Z" style="opacity: 1; stroke-width: 0px; fill: rgb(215, 48, 39); fill-opacity: 1;"/><path class="point" transform="translate(750.2,49.45)" d="M2.5,0A2.5,2.5 0 1,1 0,-2.5A2.5,2.5 0 0,1 2.5,0Z" style="opacity: 1; stroke-width: 0px; fill: rgb(215, 48, 39); fill-opacity: 1;"/><path class="point" transform="translate(786.5,44.73)" d="M2.5,0A2.5,2.5 0 1,1 0,-2.5A2.5,2.5 0 0,1 2.5,0Z" style="opacity: 1; stroke-width: 0px; fill: rgb(215, 48, 39); fill-opacity: 1;"/><path class="point" transform="translate(819.21,47.48)" d="M2.5,0A2.5,2.5 0 1,1 0,-2.5A2.5,2.5 0 0,1 2.5,0Z" style="opacity: 1; stroke-width: 0px; fill: rgb(215, 48, 39); fill-opacity: 1;"/><path class="point" transform="translate(830.74,43.18)" d="M2.5,0A2.5,2.5 0 1,1 0,-2.5A2.5,2.5 0 0,1 2.5,0Z" style="opacity: 1; stroke-width: 0px; fill: rgb(215, 48, 39); fill-opacity: 1;"/><path class="point" transform="translate(848.13,50.65)" d="M2.5,0A2.5,2.5 0 1,1 0,-2.5A2.5,2.5 0 0,1 2.5,0Z" style="opacity: 1; stroke-width: 0px; fill: rgb(215, 48, 39); fill-opacity: 1;"/><path class="point" transform="translate(858.72,48.73)" d="M2.5,0A2.5,2.5 0 1,1 0,-2.5A2.5,2.5 0 0,1 2.5,0Z" style="opacity: 1; stroke-width: 0px; fill: rgb(215, 48, 39); fill-opacity: 1;"/><path class="point" transform="translate(862.31,41.52)" d="M2.5,0A2.5,2.5 0 1,1 0,-2.5A2.5,2.5 0 0,1 2.5,0Z" style="opacity: 1; stroke-width: 0px; fill: rgb(215, 48, 39); fill-opacity: 1;"/><path class="point" transform="translate(890.11,47.43)" d="M2.5,0A2.5,2.5 0 1,1 0,-2.5A2.5,2.5 0 0,1 2.5,0Z" style="opacity: 1; stroke-width: 0px; fill: rgb(215, 48, 39); fill-opacity: 1;"/><path class="point" transform="translate(892.38,50.75)" d="M2.5,0A2.5,2.5 0 1,1 0,-2.5A2.5,2.5 0 0,1 2.5,0Z" style="opacity: 1; stroke-width: 0px; fill: rgb(215, 48, 39); fill-opacity: 1;"/><path class="point" transform="translate(898.99,47.96)" d="M2.5,0A2.5,2.5 0 1,1 0,-2.5A2.5,2.5 0 0,1 2.5,0Z" style="opacity: 1; stroke-width: 0px; fill: rgb(215, 48, 39); fill-opacity: 1;"/><path class="point" transform="translate(913.17,46.13)" d="M2.5,0A2.5,2.5 0 1,1 0,-2.5A2.5,2.5 0 0,1 2.5,0Z" style="opacity: 1; stroke-width: 0px; fill: rgb(215, 48, 39); fill-opacity: 1;"/><path class="point" transform="translate(927.54,43.9)" d="M2.5,0A2.5,2.5 0 1,1 0,-2.5A2.5,2.5 0 0,1 2.5,0Z" style="opacity: 1; stroke-width: 0px; fill: rgb(215, 48, 39); fill-opacity: 1;"/><path class="point" transform="translate(930.75,45.47)" d="M2.5,0A2.5,2.5 0 1,1 0,-2.5A2.5,2.5 0 0,1 2.5,0Z" style="opacity: 1; stroke-width: 0px; fill: rgb(215, 48, 39); fill-opacity: 1;"/><path class="point" transform="translate(949.09,47.29)" d="M2.5,0A2.5,2.5 0 1,1 0,-2.5A2.5,2.5 0 0,1 2.5,0Z" style="opacity: 1; stroke-width: 0px; fill: rgb(215, 48, 39); fill-opacity: 1;"/><path class="point" transform="translate(951.55,49.68)" d="M2.5,0A2.5,2.5 0 1,1 0,-2.5A2.5,2.5 0 0,1 2.5,0Z" style="opacity: 1; stroke-width: 0px; fill: rgb(215, 48, 39); fill-opacity: 1;"/><path class="point" transform="translate(968.57,46.02)" d="M2.5,0A2.5,2.5 0 1,1 0,-2.5A2.5,2.5 0 0,1 2.5,0Z" style="opacity: 1; stroke-width: 0px; fill: rgb(215, 48, 39); fill-opacity: 1;"/><path class="point" transform="translate(1027.74,47.24)" d="M2.5,0A2.5,2.5 0 1,1 0,-2.5A2.5,2.5 0 0,1 2.5,0Z" style="opacity: 1; stroke-width: 0px; fill: rgb(215, 48, 39); fill-opacity: 1;"/><path class="point" transform="translate(1048.35,44.18)" d="M2.5,0A2.5,2.5 0 1,1 0,-2.5A2.5,2.5 0 0,1 2.5,0Z" style="opacity: 1; stroke-width: 0px; fill: rgb(215, 48, 39); fill-opacity: 1;"/></g></g></g></g><g class="overplot"/><path class="xlines-above crisp" d="M0,0" style="fill: none;"/><path class="ylines-above crisp" d="M0,0" style="fill: none;"/><g class="overlines-above"/><g class="xaxislayer-above"><g class="xtick"><text text-anchor="middle" x="0" y="460" transform="translate(185.63,0)" style="font-family: 'Open Sans', verdana, arial, sans-serif; font-size: 12px; fill: rgb(42, 63, 95); fill-opacity: 1; white-space: pre;">15</text></g><g class="xtick"><text text-anchor="middle" x="0" y="460" transform="translate(374.69,0)" style="font-family: 'Open Sans', verdana, arial, sans-serif; font-size: 12px; fill: rgb(42, 63, 95); fill-opacity: 1; white-space: pre;">10</text></g><g class="xtick"><text text-anchor="middle" x="0" y="460" transform="translate(563.75,0)" style="font-family: 'Open Sans', verdana, arial, sans-serif; font-size: 12px; fill: rgb(42, 63, 95); fill-opacity: 1; white-space: pre;">5</text></g><g class="xtick"><text text-anchor="middle" x="0" y="460" transform="translate(752.81,0)" style="font-family: 'Open Sans', verdana, arial, sans-serif; font-size: 12px; fill: rgb(42, 63, 95); fill-opacity: 1; white-space: pre;">0</text></g><g class="xtick"><text text-anchor="middle" x="0" y="460" transform="translate(941.88,0)" style="font-family: 'Open Sans', verdana, arial, sans-serif; font-size: 12px; fill: rgb(42, 63, 95); fill-opacity: 1; white-space: pre;">5</text></g><g class="xtick"><text text-anchor="middle" x="0" y="460" transform="translate(1130.94,0)" style="font-family: 'Open Sans', verdana, arial, sans-serif; font-size: 12px; fill: rgb(42, 63, 95); fill-opacity: 1; white-space: pre;">10</text></g><g class="xtick"><text text-anchor="middle" x="0" y="460" transform="translate(1320,0)" style="font-family: 'Open Sans', verdana, arial, sans-serif; font-size: 12px; fill: rgb(42, 63, 95); fill-opacity: 1; white-space: pre;">15</text></g></g><g class="yaxislayer-above"><g class="ytick"><text text-anchor="end" x="109" y="4.199999999999999" transform="translate(0,427.15)" style="font-family: 'Open Sans', verdana, arial, sans-serif; font-size: 12px; fill: rgb(42, 63, 95); fill-opacity: 1; white-space: pre;">Sample 134-1_H4</text></g><g class="ytick"><text text-anchor="end" x="109" y="4.199999999999999" transform="translate(0,397.58)" style="font-family: 'Open Sans', verdana, arial, sans-serif; font-size: 12px; fill: rgb(42, 63, 95); fill-opacity: 1; white-space: pre;">Sample 79-2_G3</text></g><g class="ytick"><text text-anchor="end" x="109" y="4.199999999999999" transform="translate(0,368.02)" style="font-family: 'Open Sans', verdana, arial, sans-serif; font-size: 12px; fill: rgb(42, 63, 95); fill-opacity: 1; white-space: pre;">Sample 7-1_E2</text></g><g class="ytick"><text text-anchor="end" x="109" y="4.199999999999999" transform="translate(0,338.45)" style="font-family: 'Open Sans', verdana, arial, sans-serif; font-size: 12px; fill: rgb(42, 63, 95); fill-opacity: 1; white-space: pre;">Sample 4-1_B2</text></g><g class="ytick"><text text-anchor="end" x="109" y="4.199999999999999" transform="translate(0,308.88)" style="font-family: 'Open Sans', verdana, arial, sans-serif; font-size: 12px; fill: rgb(42, 63, 95); fill-opacity: 1; white-space: pre;">Sample 134-2_A5</text></g><g class="ytick"><text text-anchor="end" x="109" y="4.199999999999999" transform="translate(0,279.32)" style="font-family: 'Open Sans', verdana, arial, sans-serif; font-size: 12px; fill: rgb(42, 63, 95); fill-opacity: 1; white-space: pre;">Sample 131-1_F4</text></g><g class="ytick"><text text-anchor="end" x="109" y="4.199999999999999" transform="translate(0,249.75)" style="font-family: 'Open Sans', verdana, arial, sans-serif; font-size: 12px; fill: rgb(42, 63, 95); fill-opacity: 1; white-space: pre;">Sample 69-1_F3</text></g><g class="ytick"><text text-anchor="end" x="109" y="4.199999999999999" transform="translate(0,220.18)" style="font-family: 'Open Sans', verdana, arial, sans-serif; font-size: 12px; fill: rgb(42, 63, 95); fill-opacity: 1; white-space: pre;">Sample 7-2_F2</text></g><g class="ytick"><text text-anchor="end" x="109" y="4.199999999999999" transform="translate(0,190.62)" style="font-family: 'Open Sans', verdana, arial, sans-serif; font-size: 12px; fill: rgb(42, 63, 95); fill-opacity: 1; white-space: pre;">Sample 11-1_A3</text></g><g class="ytick"><text text-anchor="end" x="109" y="4.199999999999999" transform="translate(0,161.05)" style="font-family: 'Open Sans', verdana, arial, sans-serif; font-size: 12px; fill: rgb(42, 63, 95); fill-opacity: 1; white-space: pre;">Sample 4-2_B2</text></g><g class="ytick"><text text-anchor="end" x="109" y="4.199999999999999" transform="translate(0,131.48000000000002)" style="font-family: 'Open Sans', verdana, arial, sans-serif; font-size: 12px; fill: rgb(42, 63, 95); fill-opacity: 1; white-space: pre;">Sample 80-1_H3</text></g><g class="ytick"><text text-anchor="end" x="109" y="4.199999999999999" transform="translate(0,101.92)" style="font-family: 'Open Sans', verdana, arial, sans-serif; font-size: 12px; fill: rgb(42, 63, 95); fill-opacity: 1; white-space: pre;">Sample 117-2_C4</text></g></g><g class="overaxes-above"/></g></g><g class="polarlayer"/><g class="ternarylayer"/><g class="geolayer"/><g class="funnelarealayer"/><g class="pielayer"/><g class="treemaplayer"/><g class="sunburstlayer"/><g class="glimages"/><defs id="topdefs-87e577"><g class="clips"/></defs><g class="layer-above"><g class="imagelayer"/><g class="shapelayer"/></g><g class="infolayer"><g class="g-gtitle"/><g class="g-xtitle"><text class="xtitle" x="715" y="487.8" text-anchor="middle" style="font-family: 'Open Sans', verdana, arial, sans-serif; font-size: 14px; fill: rgb(42, 63, 95); opacity: 1; font-weight: normal; white-space: pre;">CpG median log likelihood ratio</text></g><g class="g-ytitle"/><g class="annotation" data-index="0" style="opacity: 1;"><g class="annotation-text-g" transform="rotate(0,752.81,35.17999999999998)"><g class="cursor-pointer" transform="translate(721, 26)"><rect class="bg" x="0.5" y="0.5" width="63" height="17" style="stroke-width: 1px; stroke: rgb(0, 0, 0); stroke-opacity: 0; fill: rgb(0, 0, 0); fill-opacity: 0;"/><text class="annotation-text" text-anchor="middle" x="32.03125" y="13" style="font-family: 'Open Sans', verdana, arial, sans-serif; font-size: 12px; fill: rgb(100, 100, 100); fill-opacity: 1; white-space: pre;">Ambiguous</text></g></g></g><g class="annotation" data-index="1" style="opacity: 1;"><g class="annotation-text-g" transform="rotate(0,412.5,35.17999999999998)"><g class="cursor-pointer" transform="translate(374, 26)"><rect class="bg" x="0.5" y="0.5" width="77" height="17" style="stroke-width: 1px; stroke: rgb(0, 0, 0); stroke-opacity: 0; fill: rgb(0, 0, 0); fill-opacity: 0;"/><text class="annotation-text" text-anchor="middle" x="39.03125" y="13" style="font-family: 'Open Sans', verdana, arial, sans-serif; font-size: 12px; fill: rgb(33, 102, 172); fill-opacity: 1; white-space: pre;">Unmethylated</text></g></g></g><g class="annotation" data-index="2" style="opacity: 1;"><g class="annotation-text-g" transform="rotate(0,1055.31,35.17999999999998)"><g class="cursor-pointer" transform="translate(1024, 26)"><rect class="bg" x="0.5" y="0.5" width="62" height="17" style="stroke-width: 1px; stroke: rgb(0, 0, 0); stroke-opacity: 0; fill: rgb(0, 0, 0); fill-opacity: 0;"/><text class="annotation-text" text-anchor="middle" x="31.359375" y="13" style="font-family: 'Open Sans', verdana, arial, sans-serif; font-size: 12px; fill: rgb(215, 48, 39); fill-opacity: 1; white-space: pre;">Methylated</text></g></g></g></g></svg>