<svg class="main-svg" xmlns="http://www.w3.org/2000/svg" xmlns:xlink="http://www.w3.org/1999/xlink" width="1400" height="500" style="" viewBox="0 0 1400 500"><rect x="0" y="0" width="1400" height="500" style="fill: rgb(255, 255, 255); fill-opacity: 1;"/><defs id="defs-45b40a"><g class="clips"><clipPath id="clip45b40axyplot" class="plotclip"><rect width="1210" height="397"/></clipPath><clipPath class="axesclip" id="clip45b40ax"><rect x="110" y="0" width="1210" height="500"/></clipPath><clipPath class="axesclip" id="clip45b40ay"><rect x="0" y="50" width="1400" height="397"/></clipPath><clipPath class="axesclip" id="clip45b40axy"><rect x="110" y="50" width="1210" height="397"/></clipPath></g><g class="gradients"/></defs><g class="bglayer"><rect class="bg" x="110" y="50" width="1210" height="397" style="fill: rgb(0, 0, 0); fill-opacity: 0; stroke-width: 0;"/></g><g class="layer-below"><g class="imagelayer"/><g class="shapelayer"><path data-index="0" fill-rule="evenodd" d="M758.21,447H844.64V50H758.21Z" clip-path="url('#clip45b40ax')" style="opacity: 0.25; stroke: rgb(0, 0, 0); stroke-opacity: 0; fill: rgb(100, 100, 100); fill-opacity: 1; stroke-width: 0px;"/></g></g><g class="cartesianlayer"><g class="subplot xy"><g class="layer-subplot"><g class="shapelayer"/><g class="imagelayer"/></g><g class="gridlayer"><g class="x"/><g class="y"><path class="ygrid crisp" transform="translate(0,427.15)" d="M110,0h1210" style="stroke: rgb(211, 211, 211); stroke-opacity: 1; stroke-width: 1px;"/><path class="ygrid crisp" transform="translate(0,394.9)" d="M110,0h1210" style="stroke: rgb(211, 211, 211); stroke-opacity: 1; stroke-width: 1px;"/><path class="ygrid crisp" transform="translate(0,362.64)" d="M110,0h1210" style="stroke: rgb(211, 211, 211); stroke-opacity: 1; stroke-width: 1px;"/><path class="ygrid crisp" transform="translate(0,330.39)" d="M110,0h1210" style="stroke: rgb(211, 211, 211); stroke-opacity: 1; stroke-width: 1px;"/><path class="ygrid crisp" transform="translate(0,298.13)" d="M110,0h1210" style="stroke: rgb(211, 211, 211); stroke-opacity: 1; stroke-width: 1px;"/><path class="ygrid crisp" transform="translate(0,265.88)" d="M110,0h1210" style="stroke: rgb(211, 211, 211); stroke-opacity: 1; stroke-width: 1px;"/><path class="ygrid crisp" transform="translate(0,233.62)" d="M110,0h1210" style="stroke: rgb(211, 211, 211); stroke-opacity: 1; stroke-width: 1px;"/><path class="ygrid crisp" transform="translate(0,201.37)" d="M110,0h1210" style="stroke: rgb(211, 211, 211); stroke-opacity: 1; stroke-width: 1px;"/><path class="ygrid crisp" transform="translate(0,169.11)" d="M110,0h1210" style="stroke: rgb(211, 211, 211); stroke-opacity: 1; stroke-width: 1px;"/><path class="ygrid crisp" transform="translate(0,136.86)" d="M110,0h1210" style="stroke: rgb(211, 211, 211); stroke-opacity: 1; stroke-width: 1px;"/><path class="ygrid crisp" transform="translate(0,104.6)" d="M110,0h1210" style="stroke: rgb(211, 211, 211); stroke-opacity: 1; stroke-width: 1px;"/></g></g><g class="zerolinelayer"/><path class="xlines-below"/><path class="ylines-below"/><g class="overlines-below"/><g class="xaxislayer-below"/><g class="yaxislayer-below"/><g class="overaxes-below"/><g class="plot" transform="translate(110, 50)" clip-path="url('#clip45b40axyplot')"><g class="violinlayer mlayer"><g class="trace violins" style="opacity: 1;"><path class="violin" d="M-131.94,377.15L-131.94,376.82Q-115.52,376.66 -107.31,376.55C-99.1,376.44 -90.89,376.3 -82.68,376.15C-74.47,376 -66.26,375.83 -58.05,375.66C-49.84,375.49 -41.63,375.3 -33.42,375.13C-25.21,374.96 -17,374.79 -8.79,374.64C-0.58,374.49 7.63,374.35 15.84,374.24C24.05,374.13 32.25,374.05 40.46,373.96C48.67,373.87 56.88,373.8 65.09,373.72C73.3,373.63 81.51,373.56 89.72,373.45C97.93,373.34 106.14,373.22 114.35,373.06C122.56,372.9 130.77,372.72 138.98,372.51C147.19,372.3 155.4,372.05 163.61,371.79C171.82,371.53 180.03,371.23 188.24,370.93C196.45,370.63 204.66,370.3 212.87,369.97C221.08,369.64 229.29,369.3 237.5,368.94C245.71,368.58 253.91,368.23 262.12,367.83C270.33,367.43 278.54,367.03 286.75,366.55C294.96,366.07 303.17,365.56 311.38,364.95C319.59,364.33 327.8,363.65 336.01,362.86C344.22,362.07 352.43,361.16 360.64,360.19C368.85,359.22 377.06,358.1 385.27,357.02C393.48,355.94 401.69,354.76 409.9,353.69C418.11,352.63 426.31,351.54 434.53,350.63C442.73,349.72 450.95,348.9 459.16,348.23C467.36,347.56 475.57,347.04 483.78,346.61C491.99,346.18 500.2,345.91 508.41,345.66C516.62,345.41 524.83,345.25 533.04,345.12C541.25,344.99 549.46,344.9 557.67,344.9C565.88,344.9 574.09,344.92 582.3,345.13C590.51,345.34 598.73,345.64 606.93,346.17C615.15,346.7 623.36,347.41 631.56,348.32C639.78,349.24 647.99,350.4 656.19,351.66C664.41,352.92 672.61,354.41 680.81,355.87C689.02,357.33 697.23,358.95 705.44,360.42C713.65,361.89 721.85,363.39 730.07,364.71C738.27,366.03 746.48,367.26 754.7,368.32C762.9,369.38 771.11,370.3 779.33,371.08C787.53,371.86 795.75,372.48 803.96,372.99C812.17,373.5 820.38,373.86 828.59,374.15C836.8,374.44 845.01,374.6 853.22,374.72C861.43,374.84 869.64,374.85 877.85,374.86C886.06,374.87 894.26,374.8 902.47,374.77C910.68,374.73 918.89,374.67 927.1,374.65C935.31,374.63 943.52,374.63 951.73,374.66C959.94,374.69 968.15,374.76 976.36,374.86C984.57,374.96 992.78,375.1 1000.99,375.24C1009.2,375.38 1017.41,375.55 1025.62,375.71C1033.83,375.86 1042.04,376.03 1050.25,376.17C1058.46,376.31 1066.67,376.44 1074.88,376.55Q1083.09,376.66 1099.5,376.82L1099.5,377.15" style="vector-effect: non-scaling-stroke; stroke-width: 2px; stroke: rgb(33, 102, 172); stroke-opacity: 1; fill: rgb(33, 102, 172); fill-opacity: 0.5;"/><g class="points"><path class="point" transform="translate(18.58,369.43)" d="M2.5,0A2.5,2.5 0 1,1 0,-2.5A2.5,2.5 0 0,1 2.5,0Z" style="opacity: 1; stroke-width: 0px; fill: rgb(33, 102, 172); fill-opacity: 1;"/><path class="point" transform="translate(153.41,372.25)" d="M2.5,0A2.5,2.5 0 1,1 0,-2.5A2.5,2.5 0 0,1 2.5,0Z" style="opacity: 1; stroke-width: 0px; fill: rgb(33, 102, 172); fill-opacity: 1;"/><path class="point" transform="translate(242,368.68)" d="M2.5,0A2.5,2.5 0 1,1 0,-2.5A2.5,2.5 0 0,1 2.5,0Z" style="opacity: 1; stroke-width: 0px; fill: rgb(33, 102, 172); fill-opacity: 1;"/><path class="point" transform="translate(272.25,373.05)" d="M2.5,0A2.5,2.5 0 1,1 0,-2.5A2.5,2.5 0 0,1 2.5,0Z" style="opacity: 1; stroke-width: 0px; fill: rgb(33, 102, 172); fill-opacity: 1;"/><path class="point" transform="translate(329.73,371.42)" d="M2.5,0A2.5,2.5 0 1,1 0,-2.5A2.5,2.5 0 0,1 2.5,0Z" style="opacity: 1; stroke-width: 0px; fill: rgb(33, 102, 172); fill-opacity: 1;"/><path class="point" transform="translate(353.49,369.1)" d="M2.5,0A2.5,2.5 0 1,1 0,-2.5A2.5,2.5 0 0,1 2.5,0Z" style="opacity: 1; stroke-width: 0px; fill: rgb(33, 102, 172); fill-opacity: 1;"/><path class="point" transform="translate(427.82,370.83)" d="M2.5,0A2.5,2.5 0 1,1 0,-2.5A2.5,2.5 0 0,1 2.5,0Z" style="opacity: 1; stroke-width: 0px; fill: rgb(33, 102, 172); fill-opacity: 1;"/><path class="point" transform="translate(434.09,369.47)" d="M2.5,0A2.5,2.5 0 1,1 0,-2.5A2.5,2.5 0 0,1 2.5,0Z" style="opacity: 1; stroke-width: 0px; fill: rgb(33, 102, 172); fill-opacity: 1;"/><path class="point" transform="translate(437.54,372.07)" d="M2.5,0A2.5,2.5 0 1,1 0,-2.5A2.5,2.5 0 0,1 2.5,0Z" style="opacity: 1; stroke-width: 0px; fill: rgb(33, 102, 172); fill-opacity: 1;"/><path class="point" transform="translate(445.97,374.25)" d="M2.5,0A2.5,2.5 0 1,1 0,-2.5A2.5,2.5 0 0,1 2.5,0Z" style="opacity: 1; stroke-width: 0px; fill: rgb(33, 102, 172); fill-opacity: 1;"/><path class="point" transform="translate(453.97,369.38)" d="M2.5,0A2.5,2.5 0 1,1 0,-2.5A2.5,2.5 0 0,1 2.5,0Z" style="opacity: 1; stroke-width: 0px; fill: rgb(33, 102, 172); fill-opacity: 1;"/><path class="point" transform="translate(460.66,372.6)" d="M2.5,0A2.5,2.5 0 1,1 0,-2.5A2.5,2.5 0 0,1 2.5,0Z" style="opacity: 1; stroke-width: 0px; fill: rgb(33, 102, 172); fill-opacity: 1;"/><path class="point" transform="translate(464.99,367.22)" d="M2.5,0A2.5,2.5 0 1,1 0,-2.5A2.5,2.5 0 0,1 2.5,0Z" style="opacity: 1; stroke-width: 0px; fill: rgb(33, 102, 172); fill-opacity: 1;"/><path class="point" transform="translate(491.35,376.08)" d="M2.5,0A2.5,2.5 0 1,1 0,-2.5A2.5,2.5 0 0,1 2.5,0Z" style="opacity: 1; stroke-width: 0px; fill: rgb(33, 102, 172); fill-opacity: 1;"/><path class="point" transform="translate(501.72,373.83)" d="M2.5,0A2.5,2.5 0 1,1 0,-2.5A2.5,2.5 0 0,1 2.5,0Z" style="opacity: 1; stroke-width: 0px; fill: rgb(33, 102, 172); fill-opacity: 1;"/><path class="point" transform="translate(518.57,366.28)" d="M2.5,0A2.5,2.5 0 1,1 0,-2.5A2.5,2.5 0 0,1 2.5,0Z" style="opacity: 1; stroke-width: 0px; fill: rgb(33, 102, 172); fill-opacity: 1;"/><path class="point" transform="translate(548.61,371.97)" d="M2.5,0A2.5,2.5 0 1,1 0,-2.5A2.5,2.5 0 0,1 2.5,0Z" style="opacity: 1; stroke-width: 0px; fill: rgb(33, 102, 172); fill-opacity: 1;"/><path class="point" transform="translate(568.27,375.03)" d="M2.5,0A2.5,2.5 0 1,1 0,-2.5A2.5,2.5 0 0,1 2.5,0Z" style="opacity: 1; stroke-width: 0px; fill: rgb(33, 102, 172); fill-opacity: 1;"/><path class="point" transform="translate(569.56,372.52)" d="M2.5,0A2.5,2.5 0 1,1 0,-2.5A2.5,2.5 0 0,1 2.5,0Z" style="opacity: 1; stroke-width: 0px; fill: rgb(33, 102, 172); fill-opacity: 1;"/><path class="point" transform="translate(583.83,370.82)" d="M2.5,0A2.5,2.5 0 1,1 0,-2.5A2.5,2.5 0 0,1 2.5,0Z" style="opacity: 1; stroke-width: 0px; fill: rgb(33, 102, 172); fill-opacity: 1;"/><path class="point" transform="translate(615.59,368.18)" d="M2.5,0A2.5,2.5 0 1,1 0,-2.5A2.5,2.5 0 0,1 2.5,0Z" style="opacity: 1; stroke-width: 0px; fill: rgb(33, 102, 172); fill-opacity: 1;"/><path class="point" transform="translate(618.4,370.02)" d="M2.5,0A2.5,2.5 0 1,1 0,-2.5A2.5,2.5 0 0,1 2.5,0Z" style="opacity: 1; stroke-width: 0px; fill: rgb(33, 102, 172); fill-opacity: 1;"/><path class="point" transform="translate(623.37,372.52)" d="M2.5,0A2.5,2.5 0 1,1 0,-2.5A2.5,2.5 0 0,1 2.5,0Z" style="opacity: 1; stroke-width: 0px; fill: rgb(33, 102, 172); fill-opacity: 1;"/><path class="point" transform="translate(624.23,374.63)" d="M2.5,0A2.5,2.5 0 1,1 0,-2.5A2.5,2.5 0 0,1 2.5,0Z" style="opacity: 1; stroke-width: 0px; fill: rgb(33, 102, 172); fill-opacity: 1;"/><path class="point" transform="translate(638.49,370.71)" d="M2.5,0A2.5,2.5 0 1,1 0,-2.5A2.5,2.5 0 0,1 2.5,0Z" style="opacity: 1; stroke-width: 0px; fill: rgb(33, 102, 172); fill-opacity: 1;"/><path class="point" transform="translate(647.13,371.66)" d="M2.5,0A2.5,2.5 0 1,1 0,-2.5A2.5,2.5 0 0,1 2.5,0Z" style="opacity: 1; stroke-width: 0px; fill: rgb(33, 102, 172); fill-opacity: 1;"/><path class="point" transform="translate(657.29,369.24)" d="M2.5,0A2.5,2.5 0 1,1 0,-2.5A2.5,2.5 0 0,1 2.5,0Z" style="opacity: 1; stroke-width: 0px; fill: rgb(33, 102, 172); fill-opacity: 1;"/><path class="point" transform="translate(665.28,370.96)" d="M2.5,0A2.5,2.5 0 1,1 0,-2.5A2.5,2.5 0 0,1 2.5,0Z" style="opacity: 1; stroke-width: 0px; fill: rgb(33, 102, 172); fill-opacity: 1;"/><path class="point" transform="translate(752.14,372.49)" d="M2.5,0A2.5,2.5 0 1,1 0,-2.5A2.5,2.5 0 0,1 2.5,0Z" style="opacity: 1; stroke-width: 0px; fill: rgb(33, 102, 172); fill-opacity: 1;"/><path class="point" transform="translate(948.99,373.08)" d="M2.5,0A2.5,2.5 0 1,1 0,-2.5A2.5,2.5 0 0,1 2.5,0Z" style="opacity: 1; stroke-width: 0px; fill: rgb(33, 102, 172); fill-opacity: 1;"/></g></g><g class="trace violins" style="opacity: 1;"><path class="violin" d="M0.38,344.9L0.38,344.58Q12.13,344.41 18.01,344.3C23.89,344.18 29.76,344.05 35.64,343.89C41.52,343.73 47.39,343.55 53.27,343.35C59.15,343.15 65.02,342.93 70.9,342.71C76.77,342.5 82.65,342.27 88.52,342.06C94.4,341.85 100.27,341.64 106.15,341.45C112.03,341.27 117.9,341.1 123.78,340.95C129.66,340.81 135.53,340.68 141.41,340.58C147.29,340.48 153.16,340.41 159.04,340.36C164.91,340.31 170.79,340.27 176.66,340.26C182.54,340.25 188.41,340.27 194.29,340.31C200.17,340.35 206.04,340.41 211.92,340.49C217.8,340.57 223.67,340.68 229.55,340.77C235.43,340.86 241.3,340.97 247.18,341.04C253.05,341.11 258.93,341.19 264.8,341.2C270.68,341.21 276.55,341.18 282.43,341.09C288.31,341 294.18,340.85 300.06,340.63C305.94,340.41 311.82,340.12 317.69,339.78C323.57,339.44 329.45,339.02 335.32,338.57C341.2,338.12 347.07,337.62 352.94,337.09C358.82,336.56 364.69,336 370.57,335.41C376.45,334.82 382.33,334.21 388.2,333.54C394.08,332.87 399.96,332.18 405.83,331.41C411.71,330.63 417.59,329.81 423.46,328.89C429.34,327.97 435.21,326.96 441.08,325.9C446.96,324.84 452.83,323.67 458.71,322.53C464.59,321.39 470.46,320.16 476.34,319.07C482.21,317.98 488.08,316.88 493.97,315.99C499.83,315.11 505.71,314.31 511.59,313.75C517.46,313.19 523.34,312.81 529.22,312.64C535.09,312.47 540.98,312.52 546.85,312.71C552.73,312.9 558.61,313.31 564.48,313.8C570.36,314.29 576.24,314.95 582.11,315.66C587.99,316.37 593.86,317.19 599.73,318.06C605.61,318.93 611.49,319.88 617.36,320.88C623.24,321.88 629.12,322.95 634.99,324.04C640.87,325.13 646.74,326.29 652.62,327.41C658.5,328.54 664.37,329.7 670.25,330.79C676.12,331.88 681.99,332.97 687.87,333.96C693.74,334.95 699.62,335.88 705.5,336.72C711.37,337.55 717.25,338.3 723.13,338.97C729,339.64 734.88,340.21 740.76,340.73C746.63,341.25 752.51,341.68 758.39,342.07C764.26,342.46 770.13,342.77 776.01,343.06C781.88,343.34 787.76,343.58 793.64,343.78C799.52,343.98 805.39,344.13 811.27,344.26Q817.15,344.39 828.9,344.56L828.9,344.9" style="vector-effect: non-scaling-stroke; stroke-width: 2px; stroke: rgb(51, 97, 159); stroke-opacity: 1; fill: rgb(51, 97, 159); fill-opacity: 0.5;"/><g class="points"><path class="point" transform="translate(107.6,337.28)" d="M2.5,0A2.5,2.5 0 1,1 0,-2.5A2.5,2.5 0 0,1 2.5,0Z" style="opacity: 1; stroke-width: 0px; fill: rgb(51, 97, 159); fill-opacity: 1;"/><path class="point" transform="translate(173.72,339.98)" d="M2.5,0A2.5,2.5 0 1,1 0,-2.5A2.5,2.5 0 0,1 2.5,0Z" style="opacity: 1; stroke-width: 0px; fill: rgb(51, 97, 159); fill-opacity: 1;"/><path class="point" transform="translate(231.63,336.58)" d="M2.5,0A2.5,2.5 0 1,1 0,-2.5A2.5,2.5 0 0,1 2.5,0Z" style="opacity: 1; stroke-width: 0px; fill: rgb(51, 97, 159); fill-opacity: 1;"/><path class="point" transform="translate(335.78,340.59)" d="M2.5,0A2.5,2.5 0 1,1 0,-2.5A2.5,2.5 0 0,1 2.5,0Z" style="opacity: 1; stroke-width: 0px; fill: rgb(51, 97, 159); fill-opacity: 1;"/><path class="point" transform="translate(388.93,339.11)" d="M2.5,0A2.5,2.5 0 1,1 0,-2.5A2.5,2.5 0 0,1 2.5,0Z" style="opacity: 1; stroke-width: 0px; fill: rgb(51, 97, 159); fill-opacity: 1;"/><path class="point" transform="translate(399.95,337)" d="M2.5,0A2.5,2.5 0 1,1 0,-2.5A2.5,2.5 0 0,1 2.5,0Z" style="opacity: 1; stroke-width: 0px; fill: rgb(51, 97, 159); fill-opacity: 1;"/><path class="point" transform="translate(410.97,338.56)" d="M2.5,0A2.5,2.5 0 1,1 0,-2.5A2.5,2.5 0 0,1 2.5,0Z" style="opacity: 1; stroke-width: 0px; fill: rgb(51, 97, 159); fill-opacity: 1;"/><path class="point" transform="translate(465.42,337.48)" d="M2.5,0A2.5,2.5 0 1,1 0,-2.5A2.5,2.5 0 0,1 2.5,0Z" style="opacity: 1; stroke-width: 0px; fill: rgb(51, 97, 159); fill-opacity: 1;"/><path class="point" transform="translate(474.06,339.73)" d="M2.5,0A2.5,2.5 0 1,1 0,-2.5A2.5,2.5 0 0,1 2.5,0Z" style="opacity: 1; stroke-width: 0px; fill: rgb(51, 97, 159); fill-opacity: 1;"/><path class="point" transform="translate(475.36,341.94)" d="M2.5,0A2.5,2.5 0 1,1 0,-2.5A2.5,2.5 0 0,1 2.5,0Z" style="opacity: 1; stroke-width: 0px; fill: rgb(51, 97, 159); fill-opacity: 1;"/><path class="point" transform="translate(496.1,337.17)" d="M2.5,0A2.5,2.5 0 1,1 0,-2.5A2.5,2.5 0 0,1 2.5,0Z" style="opacity: 1; stroke-width: 0px; fill: rgb(51, 97, 159); fill-opacity: 1;"/><path class="point" transform="translate(497.18,340.05)" d="M2.5,0A2.5,2.5 0 1,1 0,-2.5A2.5,2.5 0 0,1 2.5,0Z" style="opacity: 1; stroke-width: 0px; fill: rgb(51, 97, 159); fill-opacity: 1;"/><path class="point" transform="translate(499.56,334.59)" d="M2.5,0A2.5,2.5 0 1,1 0,-2.5A2.5,2.5 0 0,1 2.5,0Z" style="opacity: 1; stroke-width: 0px; fill: rgb(51, 97, 159); fill-opacity: 1;"/><path class="point" transform="translate(518.14,344.56)" d="M2.5,0A2.5,2.5 0 1,1 0,-2.5A2.5,2.5 0 0,1 2.5,0Z" style="opacity: 1; stroke-width: 0px; fill: rgb(51, 97, 159); fill-opacity: 1;"/><path class="point" transform="translate(518.57,342.06)" d="M2.5,0A2.5,2.5 0 1,1 0,-2.5A2.5,2.5 0 0,1 2.5,0Z" style="opacity: 1; stroke-width: 0px; fill: rgb(51, 97, 159); fill-opacity: 1;"/><path class="point" transform="translate(529.38,332.74)" d="M2.5,0A2.5,2.5 0 1,1 0,-2.5A2.5,2.5 0 0,1 2.5,0Z" style="opacity: 1; stroke-width: 0px; fill: rgb(51, 97, 159); fill-opacity: 1;"/><path class="point" transform="translate(534.56,339.97)" d="M2.5,0A2.5,2.5 0 1,1 0,-2.5A2.5,2.5 0 0,1 2.5,0Z" style="opacity: 1; stroke-width: 0px; fill: rgb(51, 97, 159); fill-opacity: 1;"/><path class="point" transform="translate(545.36,343.09)" d="M2.5,0A2.5,2.5 0 1,1 0,-2.5A2.5,2.5 0 0,1 2.5,0Z" style="opacity: 1; stroke-width: 0px; fill: rgb(51, 97, 159); fill-opacity: 1;"/><path class="point" transform="translate(548.82,340.42)" d="M2.5,0A2.5,2.5 0 1,1 0,-2.5A2.5,2.5 0 0,1 2.5,0Z" style="opacity: 1; stroke-width: 0px; fill: rgb(51, 97, 159); fill-opacity: 1;"/><path class="point" transform="translate(550.98,338.56)" d="M2.5,0A2.5,2.5 0 1,1 0,-2.5A2.5,2.5 0 0,1 2.5,0Z" style="opacity: 1; stroke-width: 0px; fill: rgb(51, 97, 159); fill-opacity: 1;"/><path class="point" transform="translate(566.97,335.98)" d="M2.5,0A2.5,2.5 0 1,1 0,-2.5A2.5,2.5 0 0,1 2.5,0Z" style="opacity: 1; stroke-width: 0px; fill: rgb(51, 97, 159); fill-opacity: 1;"/><path class="point" transform="translate(576.48,337.85)" d="M2.5,0A2.5,2.5 0 1,1 0,-2.5A2.5,2.5 0 0,1 2.5,0Z" style="opacity: 1; stroke-width: 0px; fill: rgb(51, 97, 159); fill-opacity: 1;"/><path class="point" transform="translate(600.25,339.96)" d="M2.5,0A2.5,2.5 0 1,1 0,-2.5A2.5,2.5 0 0,1 2.5,0Z" style="opacity: 1; stroke-width: 0px; fill: rgb(51, 97, 159); fill-opacity: 1;"/><path class="point" transform="translate(600.68,342.87)" d="M2.5,0A2.5,2.5 0 1,1 0,-2.5A2.5,2.5 0 0,1 2.5,0Z" style="opacity: 1; stroke-width: 0px; fill: rgb(51, 97, 159); fill-opacity: 1;"/><path class="point" transform="translate(613.64,338.46)" d="M2.5,0A2.5,2.5 0 1,1 0,-2.5A2.5,2.5 0 0,1 2.5,0Z" style="opacity: 1; stroke-width: 0px; fill: rgb(51, 97, 159); fill-opacity: 1;"/><path class="point" transform="translate(627.9,339.66)" d="M2.5,0A2.5,2.5 0 1,1 0,-2.5A2.5,2.5 0 0,1 2.5,0Z" style="opacity: 1; stroke-width: 0px; fill: rgb(51, 97, 159); fill-opacity: 1;"/><path class="point" transform="translate(636.11,336.57)" d="M2.5,0A2.5,2.5 0 1,1 0,-2.5A2.5,2.5 0 0,1 2.5,0Z" style="opacity: 1; stroke-width: 0px; fill: rgb(51, 97, 159); fill-opacity: 1;"/><path class="point" transform="translate(647.78,338.81)" d="M2.5,0A2.5,2.5 0 1,1 0,-2.5A2.5,2.5 0 0,1 2.5,0Z" style="opacity: 1; stroke-width: 0px; fill: rgb(51, 97, 159); fill-opacity: 1;"/><path class="point" transform="translate(653.83,340.95)" d="M2.5,0A2.5,2.5 0 1,1 0,-2.5A2.5,2.5 0 0,1 2.5,0Z" style="opacity: 1; stroke-width: 0px; fill: rgb(51, 97, 159); fill-opacity: 1;"/><path class="point" transform="translate(721.68,341.89)" d="M2.5,0A2.5,2.5 0 1,1 0,-2.5A2.5,2.5 0 0,1 2.5,0Z" style="opacity: 1; stroke-width: 0px; fill: rgb(51, 97, 159); fill-opacity: 1;"/></g></g><g class="trace violins" style="opacity: 1;"><path class="violin" d="M-96.51,312.64L-96.51,312.35Q-80.98,312.2 -73.22,312.09C-65.46,311.98 -57.7,311.85 -49.94,311.69C-42.18,311.53 -34.41,311.35 -26.65,311.14C-18.89,310.94 -11.13,310.7 -3.37,310.46C4.39,310.22 12.16,309.96 19.92,309.7C27.68,309.44 35.45,309.17 43.21,308.92C50.97,308.67 58.73,308.42 66.49,308.22C74.25,308.02 82.02,307.83 89.78,307.7C97.54,307.58 105.3,307.49 113.06,307.47C120.82,307.45 128.59,307.5 136.35,307.59C144.11,307.68 151.88,307.85 159.64,308.02C167.4,308.19 175.16,308.43 182.92,308.62C190.68,308.81 198.45,309.04 206.21,309.16C213.97,309.28 221.73,309.39 229.49,309.36C237.25,309.33 245.02,309.24 252.78,309C260.54,308.76 268.3,308.4 276.06,307.92C283.83,307.43 291.59,306.81 299.35,306.09C307.12,305.37 314.88,304.51 322.64,303.61C330.41,302.71 338.16,301.68 345.92,300.67C353.68,299.66 361.45,298.59 369.21,297.57C376.97,296.56 384.73,295.53 392.49,294.58C400.25,293.63 408.01,292.72 415.78,291.86C423.54,291 431.31,290.21 439.07,289.43C446.83,288.65 454.59,287.93 462.35,287.2C470.11,286.47 477.88,285.74 485.64,285.03C493.4,284.32 501.16,283.59 508.92,282.96C516.68,282.33 524.44,281.69 532.21,281.26C539.97,280.83 547.73,280.46 555.49,280.39C563.25,280.32 571.02,280.43 578.78,280.85C586.55,281.27 594.32,281.98 602.07,282.92C609.85,283.86 617.6,285.15 625.35,286.51C633.13,287.88 640.88,289.53 648.64,291.11C656.41,292.69 664.15,294.44 671.92,296.01C679.68,297.58 687.43,299.15 695.21,300.51C702.96,301.87 710.73,303.11 718.5,304.18C726.25,305.25 734.01,306.14 741.78,306.92C749.54,307.69 757.3,308.29 765.07,308.83C772.83,309.37 780.59,309.78 788.35,310.15C796.11,310.52 803.88,310.8 811.64,311.05C819.4,311.3 827.16,311.5 834.92,311.67C842.68,311.84 850.45,311.98 858.21,312.09Q865.97,312.2 881.5,312.35L881.5,312.64" style="vector-effect: non-scaling-stroke; stroke-width: 2px; stroke: rgb(69, 91, 145); stroke-opacity: 1; fill: rgb(69, 91, 145); fill-opacity: 0.5;"/><g class="points"><path class="point" transform="translate(45.59,305.1)" d="M2.5,0A2.5,2.5 0 1,1 0,-2.5A2.5,2.5 0 0,1 2.5,0Z" style="opacity: 1; stroke-width: 0px; fill: rgb(69, 91, 145); fill-opacity: 1;"/><path class="point" transform="translate(136.34,307.61)" d="M2.5,0A2.5,2.5 0 1,1 0,-2.5A2.5,2.5 0 0,1 2.5,0Z" style="opacity: 1; stroke-width: 0px; fill: rgb(69, 91, 145); fill-opacity: 1;"/><path class="point" transform="translate(139.58,304.35)" d="M2.5,0A2.5,2.5 0 1,1 0,-2.5A2.5,2.5 0 0,1 2.5,0Z" style="opacity: 1; stroke-width: 0px; fill: rgb(69, 91, 145); fill-opacity: 1;"/><path class="point" transform="translate(328.43,308.33)" d="M2.5,0A2.5,2.5 0 1,1 0,-2.5A2.5,2.5 0 0,1 2.5,0Z" style="opacity: 1; stroke-width: 0px; fill: rgb(69, 91, 145); fill-opacity: 1;"/><path class="point" transform="translate(382.01,306.83)" d="M2.5,0A2.5,2.5 0 1,1 0,-2.5A2.5,2.5 0 0,1 2.5,0Z" style="opacity: 1; stroke-width: 0px; fill: rgb(69, 91, 145); fill-opacity: 1;"/><path class="point" transform="translate(384.61,304.76)" d="M2.5,0A2.5,2.5 0 1,1 0,-2.5A2.5,2.5 0 0,1 2.5,0Z" style="opacity: 1; stroke-width: 0px; fill: rgb(69, 91, 145); fill-opacity: 1;"/><path class="point" transform="translate(406.65,306.3)" d="M2.5,0A2.5,2.5 0 1,1 0,-2.5A2.5,2.5 0 0,1 2.5,0Z" style="opacity: 1; stroke-width: 0px; fill: rgb(69, 91, 145); fill-opacity: 1;"/><path class="point" transform="translate(418.1,305.35)" d="M2.5,0A2.5,2.5 0 1,1 0,-2.5A2.5,2.5 0 0,1 2.5,0Z" style="opacity: 1; stroke-width: 0px; fill: rgb(69, 91, 145); fill-opacity: 1;"/><path class="point" transform="translate(419.61,307.49)" d="M2.5,0A2.5,2.5 0 1,1 0,-2.5A2.5,2.5 0 0,1 2.5,0Z" style="opacity: 1; stroke-width: 0px; fill: rgb(69, 91, 145); fill-opacity: 1;"/><path class="point" transform="translate(445.32,309.56)" d="M2.5,0A2.5,2.5 0 1,1 0,-2.5A2.5,2.5 0 0,1 2.5,0Z" style="opacity: 1; stroke-width: 0px; fill: rgb(69, 91, 145); fill-opacity: 1;"/><path class="point" transform="translate(448.56,305)" d="M2.5,0A2.5,2.5 0 1,1 0,-2.5A2.5,2.5 0 0,1 2.5,0Z" style="opacity: 1; stroke-width: 0px; fill: rgb(69, 91, 145); fill-opacity: 1;"/><path class="point" transform="translate(477.09,307.74)" d="M2.5,0A2.5,2.5 0 1,1 0,-2.5A2.5,2.5 0 0,1 2.5,0Z" style="opacity: 1; stroke-width: 0px; fill: rgb(69, 91, 145); fill-opacity: 1;"/><path class="point" transform="translate(492.64,303.18)" d="M2.5,0A2.5,2.5 0 1,1 0,-2.5A2.5,2.5 0 0,1 2.5,0Z" style="opacity: 1; stroke-width: 0px; fill: rgb(69, 91, 145); fill-opacity: 1;"/><path class="point" transform="translate(509.06,310.75)" d="M2.5,0A2.5,2.5 0 1,1 0,-2.5A2.5,2.5 0 0,1 2.5,0Z" style="opacity: 1; stroke-width: 0px; fill: rgb(69, 91, 145); fill-opacity: 1;"/><path class="point" transform="translate(523.76,308.96)" d="M2.5,0A2.5,2.5 0 1,1 0,-2.5A2.5,2.5 0 0,1 2.5,0Z" style="opacity: 1; stroke-width: 0px; fill: rgb(69, 91, 145); fill-opacity: 1;"/><path class="point" transform="translate(535.21,301.99)" d="M2.5,0A2.5,2.5 0 1,1 0,-2.5A2.5,2.5 0 0,1 2.5,0Z" style="opacity: 1; stroke-width: 0px; fill: rgb(69, 91, 145); fill-opacity: 1;"/><path class="point" transform="translate(541.04,307.5)" d="M2.5,0A2.5,2.5 0 1,1 0,-2.5A2.5,2.5 0 0,1 2.5,0Z" style="opacity: 1; stroke-width: 0px; fill: rgb(69, 91, 145); fill-opacity: 1;"/><path class="point" transform="translate(550.98,310.79)" d="M2.5,0A2.5,2.5 0 1,1 0,-2.5A2.5,2.5 0 0,1 2.5,0Z" style="opacity: 1; stroke-width: 0px; fill: rgb(69, 91, 145); fill-opacity: 1;"/><path class="point" transform="translate(556.17,308.03)" d="M2.5,0A2.5,2.5 0 1,1 0,-2.5A2.5,2.5 0 0,1 2.5,0Z" style="opacity: 1; stroke-width: 0px; fill: rgb(69, 91, 145); fill-opacity: 1;"/><path class="point" transform="translate(576.05,306.32)" d="M2.5,0A2.5,2.5 0 1,1 0,-2.5A2.5,2.5 0 0,1 2.5,0Z" style="opacity: 1; stroke-width: 0px; fill: rgb(69, 91, 145); fill-opacity: 1;"/><path class="point" transform="translate(581.23,303.49)" d="M2.5,0A2.5,2.5 0 1,1 0,-2.5A2.5,2.5 0 0,1 2.5,0Z" style="opacity: 1; stroke-width: 0px; fill: rgb(69, 91, 145); fill-opacity: 1;"/><path class="point" transform="translate(587.5,305.5)" d="M2.5,0A2.5,2.5 0 1,1 0,-2.5A2.5,2.5 0 0,1 2.5,0Z" style="opacity: 1; stroke-width: 0px; fill: rgb(69, 91, 145); fill-opacity: 1;"/><path class="point" transform="translate(596.79,308.01)" d="M2.5,0A2.5,2.5 0 1,1 0,-2.5A2.5,2.5 0 0,1 2.5,0Z" style="opacity: 1; stroke-width: 0px; fill: rgb(69, 91, 145); fill-opacity: 1;"/><path class="point" transform="translate(605.86,311.5)" d="M2.5,0A2.5,2.5 0 1,1 0,-2.5A2.5,2.5 0 0,1 2.5,0Z" style="opacity: 1; stroke-width: 0px; fill: rgb(69, 91, 145); fill-opacity: 1;"/><path class="point" transform="translate(610.83,306.2)" d="M2.5,0A2.5,2.5 0 1,1 0,-2.5A2.5,2.5 0 0,1 2.5,0Z" style="opacity: 1; stroke-width: 0px; fill: rgb(69, 91, 145); fill-opacity: 1;"/><path class="point" transform="translate(618.4,307.4)" d="M2.5,0A2.5,2.5 0 1,1 0,-2.5A2.5,2.5 0 0,1 2.5,0Z" style="opacity: 1; stroke-width: 0px; fill: rgb(69, 91, 145); fill-opacity: 1;"/><path class="point" transform="translate(618.83,304.34)" d="M2.5,0A2.5,2.5 0 1,1 0,-2.5A2.5,2.5 0 0,1 2.5,0Z" style="opacity: 1; stroke-width: 0px; fill: rgb(69, 91, 145); fill-opacity: 1;"/><path class="point" transform="translate(622.93,306.53)" d="M2.5,0A2.5,2.5 0 1,1 0,-2.5A2.5,2.5 0 0,1 2.5,0Z" style="opacity: 1; stroke-width: 0px; fill: rgb(69, 91, 145); fill-opacity: 1;"/><path class="point" transform="translate(630.5,308.59)" d="M2.5,0A2.5,2.5 0 1,1 0,-2.5A2.5,2.5 0 0,1 2.5,0Z" style="opacity: 1; stroke-width: 0px; fill: rgb(69, 91, 145); fill-opacity: 1;"/><path class="point" transform="translate(739.4,309.37)" d="M2.5,0A2.5,2.5 0 1,1 0,-2.5A2.5,2.5 0 0,1 2.5,0Z" style="opacity: 1; stroke-width: 0px; fill: rgb(69, 91, 145); fill-opacity: 1;"/></g></g><g class="trace violins" style="opacity: 1;"><path class="violin" d="M-85.99,280.39L-85.99,279.99Q-70.2,279.78 -62.31,279.63C-54.42,279.48 -46.53,279.29 -38.64,279.08C-30.75,278.87 -22.85,278.62 -14.96,278.36C-7.07,278.1 0.82,277.8 8.71,277.53C16.6,277.26 24.5,276.97 32.39,276.74C40.28,276.51 48.17,276.28 56.06,276.13C63.95,275.98 71.85,275.88 79.74,275.84C87.63,275.8 95.52,275.82 103.41,275.87C111.3,275.92 119.2,276.02 127.09,276.12C134.98,276.21 142.87,276.35 150.76,276.44C158.65,276.53 166.55,276.62 174.44,276.66C182.33,276.7 190.22,276.72 198.11,276.7C206,276.68 213.89,276.62 221.78,276.52C229.67,276.42 237.57,276.3 245.46,276.12C253.35,275.95 261.24,275.75 269.13,275.47C277.02,275.19 284.92,274.88 292.81,274.46C300.7,274.04 308.59,273.55 316.48,272.93C324.38,272.31 332.27,271.58 340.16,270.72C348.06,269.86 355.95,268.86 363.83,267.76C371.73,266.66 379.62,265.4 387.51,264.12C395.41,262.84 403.29,261.42 411.18,260.08C419.07,258.74 426.96,257.32 434.86,256.07C442.74,254.82 450.63,253.6 458.53,252.59C466.41,251.58 474.31,250.69 482.21,250.01C490.09,249.33 497.99,248.84 505.88,248.53C513.77,248.22 521.67,248.11 529.56,248.13C537.45,248.15 545.34,248.36 553.23,248.64C561.12,248.92 569.02,249.34 576.91,249.81C584.8,250.28 592.69,250.85 600.58,251.44C608.47,252.03 616.37,252.68 624.26,253.37C632.15,254.06 640.04,254.8 647.93,255.59C655.83,256.38 663.72,257.22 671.61,258.12C679.5,259.02 687.39,260 695.28,261.01C703.18,262.02 711.07,263.12 718.96,264.2C726.85,265.29 734.74,266.43 742.63,267.52C750.52,268.6 758.41,269.7 766.31,270.71C774.2,271.71 782.08,272.69 789.98,273.55C797.87,274.41 805.76,275.18 813.66,275.85C821.55,276.52 829.44,277.09 837.33,277.58C845.22,278.07 853.12,278.45 861.01,278.77C868.9,279.09 876.79,279.32 884.68,279.52Q892.57,279.72 908.36,279.96L908.36,280.39" style="vector-effect: non-scaling-stroke; stroke-width: 2px; stroke: rgb(88, 86, 132); stroke-opacity: 1; fill: rgb(88, 86, 132); fill-opacity: 0.5;"/><g class="points"><path class="point" transform="translate(59.2,272.69)" d="M2.5,0A2.5,2.5 0 1,1 0,-2.5A2.5,2.5 0 0,1 2.5,0Z" style="opacity: 1; stroke-width: 0px; fill: rgb(88, 86, 132); fill-opacity: 1;"/><path class="point" transform="translate(95.5,275.56)" d="M2.5,0A2.5,2.5 0 1,1 0,-2.5A2.5,2.5 0 0,1 2.5,0Z" style="opacity: 1; stroke-width: 0px; fill: rgb(88, 86, 132); fill-opacity: 1;"/><path class="point" transform="translate(234.01,271.81)" d="M2.5,0A2.5,2.5 0 1,1 0,-2.5A2.5,2.5 0 0,1 2.5,0Z" style="opacity: 1; stroke-width: 0px; fill: rgb(88, 86, 132); fill-opacity: 1;"/><path class="point" transform="translate(328.43,276.38)" d="M2.5,0A2.5,2.5 0 1,1 0,-2.5A2.5,2.5 0 0,1 2.5,0Z" style="opacity: 1; stroke-width: 0px; fill: rgb(88, 86, 132); fill-opacity: 1;"/><path class="point" transform="translate(393.03,274.68)" d="M2.5,0A2.5,2.5 0 1,1 0,-2.5A2.5,2.5 0 0,1 2.5,0Z" style="opacity: 1; stroke-width: 0px; fill: rgb(88, 86, 132); fill-opacity: 1;"/><path class="point" transform="translate(424.15,272.26)" d="M2.5,0A2.5,2.5 0 1,1 0,-2.5A2.5,2.5 0 0,1 2.5,0Z" style="opacity: 1; stroke-width: 0px; fill: rgb(88, 86, 132); fill-opacity: 1;"/><path class="point" transform="translate(447.27,274.06)" d="M2.5,0A2.5,2.5 0 1,1 0,-2.5A2.5,2.5 0 0,1 2.5,0Z" style="opacity: 1; stroke-width: 0px; fill: rgb(88, 86, 132); fill-opacity: 1;"/><path class="point" transform="translate(451.37,272.77)" d="M2.5,0A2.5,2.5 0 1,1 0,-2.5A2.5,2.5 0 0,1 2.5,0Z" style="opacity: 1; stroke-width: 0px; fill: rgb(88, 86, 132); fill-opacity: 1;"/><path class="point" transform="translate(459.8,275.51)" d="M2.5,0A2.5,2.5 0 1,1 0,-2.5A2.5,2.5 0 0,1 2.5,0Z" style="opacity: 1; stroke-width: 0px; fill: rgb(88, 86, 132); fill-opacity: 1;"/><path class="point" transform="translate(469.52,277.96)" d="M2.5,0A2.5,2.5 0 1,1 0,-2.5A2.5,2.5 0 0,1 2.5,0Z" style="opacity: 1; stroke-width: 0px; fill: rgb(88, 86, 132); fill-opacity: 1;"/><path class="point" transform="translate(470.82,272.32)" d="M2.5,0A2.5,2.5 0 1,1 0,-2.5A2.5,2.5 0 0,1 2.5,0Z" style="opacity: 1; stroke-width: 0px; fill: rgb(88, 86, 132); fill-opacity: 1;"/><path class="point" transform="translate(487.03,276.06)" d="M2.5,0A2.5,2.5 0 1,1 0,-2.5A2.5,2.5 0 0,1 2.5,0Z" style="opacity: 1; stroke-width: 0px; fill: rgb(88, 86, 132); fill-opacity: 1;"/><path class="point" transform="translate(491.99,270.04)" d="M2.5,0A2.5,2.5 0 1,1 0,-2.5A2.5,2.5 0 0,1 2.5,0Z" style="opacity: 1; stroke-width: 0px; fill: rgb(88, 86, 132); fill-opacity: 1;"/><path class="point" transform="translate(501.72,280.1)" d="M2.5,0A2.5,2.5 0 1,1 0,-2.5A2.5,2.5 0 0,1 2.5,0Z" style="opacity: 1; stroke-width: 0px; fill: rgb(88, 86, 132); fill-opacity: 1;"/><path class="point" transform="translate(532.18,277.67)" d="M2.5,0A2.5,2.5 0 1,1 0,-2.5A2.5,2.5 0 0,1 2.5,0Z" style="opacity: 1; stroke-width: 0px; fill: rgb(88, 86, 132); fill-opacity: 1;"/><path class="point" transform="translate(538.88,268.72)" d="M2.5,0A2.5,2.5 0 1,1 0,-2.5A2.5,2.5 0 0,1 2.5,0Z" style="opacity: 1; stroke-width: 0px; fill: rgb(88, 86, 132); fill-opacity: 1;"/><path class="point" transform="translate(548.39,275.48)" d="M2.5,0A2.5,2.5 0 1,1 0,-2.5A2.5,2.5 0 0,1 2.5,0Z" style="opacity: 1; stroke-width: 0px; fill: rgb(88, 86, 132); fill-opacity: 1;"/><path class="point" transform="translate(562.65,278.6)" d="M2.5,0A2.5,2.5 0 1,1 0,-2.5A2.5,2.5 0 0,1 2.5,0Z" style="opacity: 1; stroke-width: 0px; fill: rgb(88, 86, 132); fill-opacity: 1;"/><path class="point" transform="translate(564.38,275.75)" d="M2.5,0A2.5,2.5 0 1,1 0,-2.5A2.5,2.5 0 0,1 2.5,0Z" style="opacity: 1; stroke-width: 0px; fill: rgb(88, 86, 132); fill-opacity: 1;"/><path class="point" transform="translate(570.43,274.06)" d="M2.5,0A2.5,2.5 0 1,1 0,-2.5A2.5,2.5 0 0,1 2.5,0Z" style="opacity: 1; stroke-width: 0px; fill: rgb(88, 86, 132); fill-opacity: 1;"/><path class="point" transform="translate(591.6,271.49)" d="M2.5,0A2.5,2.5 0 1,1 0,-2.5A2.5,2.5 0 0,1 2.5,0Z" style="opacity: 1; stroke-width: 0px; fill: rgb(88, 86, 132); fill-opacity: 1;"/><path class="point" transform="translate(597.01,273.33)" d="M2.5,0A2.5,2.5 0 1,1 0,-2.5A2.5,2.5 0 0,1 2.5,0Z" style="opacity: 1; stroke-width: 0px; fill: rgb(88, 86, 132); fill-opacity: 1;"/><path class="point" transform="translate(633.95,275.5)" d="M2.5,0A2.5,2.5 0 1,1 0,-2.5A2.5,2.5 0 0,1 2.5,0Z" style="opacity: 1; stroke-width: 0px; fill: rgb(88, 86, 132); fill-opacity: 1;"/><path class="point" transform="translate(641.08,278.53)" d="M2.5,0A2.5,2.5 0 1,1 0,-2.5A2.5,2.5 0 0,1 2.5,0Z" style="opacity: 1; stroke-width: 0px; fill: rgb(88, 86, 132); fill-opacity: 1;"/><path class="point" transform="translate(655.78,273.95)" d="M2.5,0A2.5,2.5 0 1,1 0,-2.5A2.5,2.5 0 0,1 2.5,0Z" style="opacity: 1; stroke-width: 0px; fill: rgb(88, 86, 132); fill-opacity: 1;"/><path class="point" transform="translate(681.06,275.31)" d="M2.5,0A2.5,2.5 0 1,1 0,-2.5A2.5,2.5 0 0,1 2.5,0Z" style="opacity: 1; stroke-width: 0px; fill: rgb(88, 86, 132); fill-opacity: 1;"/><path class="point" transform="translate(688.4,271.84)" d="M2.5,0A2.5,2.5 0 1,1 0,-2.5A2.5,2.5 0 0,1 2.5,0Z" style="opacity: 1; stroke-width: 0px; fill: rgb(88, 86, 132); fill-opacity: 1;"/><path class="point" transform="translate(699.21,274.36)" d="M2.5,0A2.5,2.5 0 1,1 0,-2.5A2.5,2.5 0 0,1 2.5,0Z" style="opacity: 1; stroke-width: 0px; fill: rgb(88, 86, 132); fill-opacity: 1;"/><path class="point" transform="translate(703.53,276.91)" d="M2.5,0A2.5,2.5 0 1,1 0,-2.5A2.5,2.5 0 0,1 2.5,0Z" style="opacity: 1; stroke-width: 0px; fill: rgb(88, 86, 132); fill-opacity: 1;"/><path class="point" transform="translate(763.16,278.06)" d="M2.5,0A2.5,2.5 0 1,1 0,-2.5A2.5,2.5 0 0,1 2.5,0Z" style="opacity: 1; stroke-width: 0px; fill: rgb(88, 86, 132); fill-opacity: 1;"/></g></g><g class="trace violins" style="opacity: 1;"><path class="violin" d="M315.9,248.13L315.9,247.82Q327.05,247.66 332.62,247.56C338.19,247.45 343.77,247.33 349.34,247.19C354.91,247.05 360.48,246.89 366.05,246.73C371.62,246.57 377.2,246.4 382.77,246.24C388.34,246.08 393.92,245.93 399.49,245.79C405.06,245.65 410.63,245.53 416.2,245.39C421.77,245.25 427.35,245.13 432.92,244.94C438.49,244.75 444.07,244.56 449.64,244.24C455.21,243.92 460.79,243.55 466.35,243.02C471.93,242.49 477.51,241.83 483.07,241.04C488.65,240.25 494.23,239.3 499.79,238.29C505.37,237.28 510.93,236.1 516.5,234.96C522.08,233.82 527.64,232.59 533.22,231.46C538.79,230.33 544.36,229.19 549.94,228.17C555.5,227.16 561.07,226.22 566.65,225.37C572.22,224.52 577.79,223.79 583.37,223.09C588.94,222.4 594.52,221.79 600.09,221.2C605.66,220.61 611.23,220.07 616.8,219.55C622.37,219.03 627.94,218.52 633.52,218.07C639.09,217.62 644.67,217.19 650.24,216.85C655.81,216.51 661.38,216.21 666.95,216.05C672.52,215.89 678.1,215.8 683.67,215.88C689.24,215.96 694.82,216.16 700.39,216.53C705.97,216.9 711.55,217.43 717.11,218.11C722.69,218.79 728.26,219.66 733.82,220.6C739.4,221.55 744.97,222.66 750.54,223.79C756.12,224.92 761.69,226.18 767.26,227.38C772.83,228.58 778.4,229.84 783.97,231.01C789.54,232.18 795.11,233.34 800.69,234.4C806.26,235.46 811.83,236.46 817.41,237.38C822.97,238.3 828.54,239.13 834.12,239.9C839.69,240.67 845.26,241.35 850.84,241.98C856.41,242.61 861.99,243.17 867.56,243.68C873.13,244.19 878.7,244.64 884.27,245.05C889.84,245.46 895.42,245.81 900.99,246.12C906.56,246.43 912.14,246.68 917.71,246.9C923.28,247.12 928.85,247.3 934.42,247.44Q939.99,247.59 951.14,247.77L951.14,248.13" style="vector-effect: non-scaling-stroke; stroke-width: 2px; stroke: rgb(106, 80, 119); stroke-opacity: 1; fill: rgb(106, 80, 119); fill-opacity: 0.5;"/><g class="points"><path class="point" transform="translate(417.02,240.02)" d="M2.5,0A2.5,2.5 0 1,1 0,-2.5A2.5,2.5 0 0,1 2.5,0Z" style="opacity: 1; stroke-width: 0px; fill: rgb(106, 80, 119); fill-opacity: 1;"/><path class="point" transform="translate(535.42,243.91)" d="M2.5,0A2.5,2.5 0 1,1 0,-2.5A2.5,2.5 0 0,1 2.5,0Z" style="opacity: 1; stroke-width: 0px; fill: rgb(106, 80, 119); fill-opacity: 1;"/><path class="point" transform="translate(536.72,238.88)" d="M2.5,0A2.5,2.5 0 1,1 0,-2.5A2.5,2.5 0 0,1 2.5,0Z" style="opacity: 1; stroke-width: 0px; fill: rgb(106, 80, 119); fill-opacity: 1;"/><path class="point" transform="translate(549.69,244.67)" d="M2.5,0A2.5,2.5 0 1,1 0,-2.5A2.5,2.5 0 0,1 2.5,0Z" style="opacity: 1; stroke-width: 0px; fill: rgb(106, 80, 119); fill-opacity: 1;"/><path class="point" transform="translate(558.33,242.6)" d="M2.5,0A2.5,2.5 0 1,1 0,-2.5A2.5,2.5 0 0,1 2.5,0Z" style="opacity: 1; stroke-width: 0px; fill: rgb(106, 80, 119); fill-opacity: 1;"/><path class="point" transform="translate(566.32,239.69)" d="M2.5,0A2.5,2.5 0 1,1 0,-2.5A2.5,2.5 0 0,1 2.5,0Z" style="opacity: 1; stroke-width: 0px; fill: rgb(106, 80, 119); fill-opacity: 1;"/><path class="point" transform="translate(567.84,241.89)" d="M2.5,0A2.5,2.5 0 1,1 0,-2.5A2.5,2.5 0 0,1 2.5,0Z" style="opacity: 1; stroke-width: 0px; fill: rgb(106, 80, 119); fill-opacity: 1;"/><path class="point" transform="translate(581.66,240.07)" d="M2.5,0A2.5,2.5 0 1,1 0,-2.5A2.5,2.5 0 0,1 2.5,0Z" style="opacity: 1; stroke-width: 0px; fill: rgb(106, 80, 119); fill-opacity: 1;"/><path class="point" transform="translate(613.64,243.44)" d="M2.5,0A2.5,2.5 0 1,1 0,-2.5A2.5,2.5 0 0,1 2.5,0Z" style="opacity: 1; stroke-width: 0px; fill: rgb(106, 80, 119); fill-opacity: 1;"/><path class="point" transform="translate(615.16,245.73)" d="M2.5,0A2.5,2.5 0 1,1 0,-2.5A2.5,2.5 0 0,1 2.5,0Z" style="opacity: 1; stroke-width: 0px; fill: rgb(106, 80, 119); fill-opacity: 1;"/><path class="point" transform="translate(631.79,240.16)" d="M2.5,0A2.5,2.5 0 1,1 0,-2.5A2.5,2.5 0 0,1 2.5,0Z" style="opacity: 1; stroke-width: 0px; fill: rgb(106, 80, 119); fill-opacity: 1;"/><path class="point" transform="translate(634.39,243.37)" d="M2.5,0A2.5,2.5 0 1,1 0,-2.5A2.5,2.5 0 0,1 2.5,0Z" style="opacity: 1; stroke-width: 0px; fill: rgb(106, 80, 119); fill-opacity: 1;"/><path class="point" transform="translate(636.11,238.24)" d="M2.5,0A2.5,2.5 0 1,1 0,-2.5A2.5,2.5 0 0,1 2.5,0Z" style="opacity: 1; stroke-width: 0px; fill: rgb(106, 80, 119); fill-opacity: 1;"/><path class="point" transform="translate(650.38,247.64)" d="M2.5,0A2.5,2.5 0 1,1 0,-2.5A2.5,2.5 0 0,1 2.5,0Z" style="opacity: 1; stroke-width: 0px; fill: rgb(106, 80, 119); fill-opacity: 1;"/><path class="point" transform="translate(659.02,245.1)" d="M2.5,0A2.5,2.5 0 1,1 0,-2.5A2.5,2.5 0 0,1 2.5,0Z" style="opacity: 1; stroke-width: 0px; fill: rgb(106, 80, 119); fill-opacity: 1;"/><path class="point" transform="translate(660.75,236.16)" d="M2.5,0A2.5,2.5 0 1,1 0,-2.5A2.5,2.5 0 0,1 2.5,0Z" style="opacity: 1; stroke-width: 0px; fill: rgb(106, 80, 119); fill-opacity: 1;"/><path class="point" transform="translate(684.95,243.21)" d="M2.5,0A2.5,2.5 0 1,1 0,-2.5A2.5,2.5 0 0,1 2.5,0Z" style="opacity: 1; stroke-width: 0px; fill: rgb(106, 80, 119); fill-opacity: 1;"/><path class="point" transform="translate(685.81,246.92)" d="M2.5,0A2.5,2.5 0 1,1 0,-2.5A2.5,2.5 0 0,1 2.5,0Z" style="opacity: 1; stroke-width: 0px; fill: rgb(106, 80, 119); fill-opacity: 1;"/><path class="point" transform="translate(695.75,243.7)" d="M2.5,0A2.5,2.5 0 1,1 0,-2.5A2.5,2.5 0 0,1 2.5,0Z" style="opacity: 1; stroke-width: 0px; fill: rgb(106, 80, 119); fill-opacity: 1;"/><path class="point" transform="translate(703.1,241.82)" d="M2.5,0A2.5,2.5 0 1,1 0,-2.5A2.5,2.5 0 0,1 2.5,0Z" style="opacity: 1; stroke-width: 0px; fill: rgb(106, 80, 119); fill-opacity: 1;"/><path class="point" transform="translate(710.88,239.11)" d="M2.5,0A2.5,2.5 0 1,1 0,-2.5A2.5,2.5 0 0,1 2.5,0Z" style="opacity: 1; stroke-width: 0px; fill: rgb(106, 80, 119); fill-opacity: 1;"/><path class="point" transform="translate(717.36,240.98)" d="M2.5,0A2.5,2.5 0 1,1 0,-2.5A2.5,2.5 0 0,1 2.5,0Z" style="opacity: 1; stroke-width: 0px; fill: rgb(106, 80, 119); fill-opacity: 1;"/><path class="point" transform="translate(718.65,243.28)" d="M2.5,0A2.5,2.5 0 1,1 0,-2.5A2.5,2.5 0 0,1 2.5,0Z" style="opacity: 1; stroke-width: 0px; fill: rgb(106, 80, 119); fill-opacity: 1;"/><path class="point" transform="translate(732.7,246.11)" d="M2.5,0A2.5,2.5 0 1,1 0,-2.5A2.5,2.5 0 0,1 2.5,0Z" style="opacity: 1; stroke-width: 0px; fill: rgb(106, 80, 119); fill-opacity: 1;"/><path class="point" transform="translate(732.91,241.69)" d="M2.5,0A2.5,2.5 0 1,1 0,-2.5A2.5,2.5 0 0,1 2.5,0Z" style="opacity: 1; stroke-width: 0px; fill: rgb(106, 80, 119); fill-opacity: 1;"/><path class="point" transform="translate(754.74,242.98)" d="M2.5,0A2.5,2.5 0 1,1 0,-2.5A2.5,2.5 0 0,1 2.5,0Z" style="opacity: 1; stroke-width: 0px; fill: rgb(106, 80, 119); fill-opacity: 1;"/><path class="point" transform="translate(763.16,239.68)" d="M2.5,0A2.5,2.5 0 1,1 0,-2.5A2.5,2.5 0 0,1 2.5,0Z" style="opacity: 1; stroke-width: 0px; fill: rgb(106, 80, 119); fill-opacity: 1;"/><path class="point" transform="translate(781.1,242.04)" d="M2.5,0A2.5,2.5 0 1,1 0,-2.5A2.5,2.5 0 0,1 2.5,0Z" style="opacity: 1; stroke-width: 0px; fill: rgb(106, 80, 119); fill-opacity: 1;"/><path class="point" transform="translate(805.08,244.28)" d="M2.5,0A2.5,2.5 0 1,1 0,-2.5A2.5,2.5 0 0,1 2.5,0Z" style="opacity: 1; stroke-width: 0px; fill: rgb(106, 80, 119); fill-opacity: 1;"/><path class="point" transform="translate(850.03,245.06)" d="M2.5,0A2.5,2.5 0 1,1 0,-2.5A2.5,2.5 0 0,1 2.5,0Z" style="opacity: 1; stroke-width: 0px; fill: rgb(106, 80, 119); fill-opacity: 1;"/></g></g><g class="trace violins" style="opacity: 1;"><path class="violin" d="M200.51,215.88L200.51,215.57Q214.68,215.41 221.77,215.31C228.86,215.2 235.95,215.08 243.04,214.94C250.13,214.8 257.21,214.63 264.3,214.46C271.39,214.29 278.47,214.11 285.56,213.94C292.65,213.77 299.73,213.59 306.82,213.44C313.91,213.29 320.99,213.15 328.08,213.03C335.17,212.91 342.25,212.82 349.34,212.74C356.43,212.66 363.51,212.6 370.6,212.54C377.69,212.48 384.78,212.43 391.87,212.37C398.96,212.31 406.04,212.25 413.13,212.16C420.22,212.07 427.3,211.97 434.39,211.82C441.48,211.66 448.56,211.49 455.65,211.23C462.74,210.97 469.83,210.66 476.91,210.26C484,209.86 491.09,209.39 498.17,208.83C505.26,208.27 512.35,207.62 519.44,206.91C526.53,206.19 533.62,205.39 540.7,204.54C547.79,203.69 554.88,202.76 561.96,201.81C569.05,200.86 576.13,199.85 583.22,198.83C590.31,197.81 597.39,196.75 604.48,195.71C611.57,194.68 618.65,193.62 625.74,192.62C632.82,191.63 639.91,190.63 647,189.74C654.08,188.85 661.18,188.01 668.27,187.29C675.35,186.57 682.44,185.94 689.53,185.43C696.61,184.92 703.7,184.52 710.79,184.22C717.87,183.92 724.96,183.72 732.05,183.62C739.14,183.52 746.22,183.51 753.31,183.62C760.4,183.73 767.49,183.93 774.57,184.28C781.66,184.63 788.76,185.1 795.84,185.74C802.93,186.38 810.02,187.18 817.1,188.12C824.2,189.06 831.28,190.19 838.36,191.38C845.46,192.57 852.54,193.93 859.62,195.26C866.71,196.59 873.79,198.02 880.88,199.36C887.96,200.69 895.05,202.05 902.14,203.27C909.22,204.49 916.31,205.66 923.4,206.7C930.48,207.74 937.57,208.68 944.67,209.51C951.75,210.34 958.84,211.04 965.93,211.67C973.01,212.29 980.1,212.81 987.19,213.26C994.27,213.71 1001.36,214.05 1008.45,214.35C1015.54,214.65 1022.62,214.86 1029.71,215.05Q1036.8,215.23 1050.97,215.46L1050.97,215.88" style="vector-effect: non-scaling-stroke; stroke-width: 2px; stroke: rgb(124, 75, 106); stroke-opacity: 1; fill: rgb(124, 75, 106); fill-opacity: 0.5;"/><g class="points"><path class="point" transform="translate(329.73,208.12)" d="M2.5,0A2.5,2.5 0 1,1 0,-2.5A2.5,2.5 0 0,1 2.5,0Z" style="opacity: 1; stroke-width: 0px; fill: rgb(124, 75, 106); fill-opacity: 1;"/><path class="point" transform="translate(433.44,211.14)" d="M2.5,0A2.5,2.5 0 1,1 0,-2.5A2.5,2.5 0 0,1 2.5,0Z" style="opacity: 1; stroke-width: 0px; fill: rgb(124, 75, 106); fill-opacity: 1;"/><path class="point" transform="translate(543.85,207.19)" d="M2.5,0A2.5,2.5 0 1,1 0,-2.5A2.5,2.5 0 0,1 2.5,0Z" style="opacity: 1; stroke-width: 0px; fill: rgb(124, 75, 106); fill-opacity: 1;"/><path class="point" transform="translate(555.74,212.01)" d="M2.5,0A2.5,2.5 0 1,1 0,-2.5A2.5,2.5 0 0,1 2.5,0Z" style="opacity: 1; stroke-width: 0px; fill: rgb(124, 75, 106); fill-opacity: 1;"/><path class="point" transform="translate(576.05,210.18)" d="M2.5,0A2.5,2.5 0 1,1 0,-2.5A2.5,2.5 0 0,1 2.5,0Z" style="opacity: 1; stroke-width: 0px; fill: rgb(124, 75, 106); fill-opacity: 1;"/><path class="point" transform="translate(617.53,207.73)" d="M2.5,0A2.5,2.5 0 1,1 0,-2.5A2.5,2.5 0 0,1 2.5,0Z" style="opacity: 1; stroke-width: 0px; fill: rgb(124, 75, 106); fill-opacity: 1;"/><path class="point" transform="translate(630.06,209.57)" d="M2.5,0A2.5,2.5 0 1,1 0,-2.5A2.5,2.5 0 0,1 2.5,0Z" style="opacity: 1; stroke-width: 0px; fill: rgb(124, 75, 106); fill-opacity: 1;"/><path class="point" transform="translate(635.68,207.97)" d="M2.5,0A2.5,2.5 0 1,1 0,-2.5A2.5,2.5 0 0,1 2.5,0Z" style="opacity: 1; stroke-width: 0px; fill: rgb(124, 75, 106); fill-opacity: 1;"/><path class="point" transform="translate(642.16,210.97)" d="M2.5,0A2.5,2.5 0 1,1 0,-2.5A2.5,2.5 0 0,1 2.5,0Z" style="opacity: 1; stroke-width: 0px; fill: rgb(124, 75, 106); fill-opacity: 1;"/><path class="point" transform="translate(679.11,213.21)" d="M2.5,0A2.5,2.5 0 1,1 0,-2.5A2.5,2.5 0 0,1 2.5,0Z" style="opacity: 1; stroke-width: 0px; fill: rgb(124, 75, 106); fill-opacity: 1;"/><path class="point" transform="translate(679.33,207.78)" d="M2.5,0A2.5,2.5 0 1,1 0,-2.5A2.5,2.5 0 0,1 2.5,0Z" style="opacity: 1; stroke-width: 0px; fill: rgb(124, 75, 106); fill-opacity: 1;"/><path class="point" transform="translate(686.46,211.46)" d="M2.5,0A2.5,2.5 0 1,1 0,-2.5A2.5,2.5 0 0,1 2.5,0Z" style="opacity: 1; stroke-width: 0px; fill: rgb(124, 75, 106); fill-opacity: 1;"/><path class="point" transform="translate(687.76,205.75)" d="M2.5,0A2.5,2.5 0 1,1 0,-2.5A2.5,2.5 0 0,1 2.5,0Z" style="opacity: 1; stroke-width: 0px; fill: rgb(124, 75, 106); fill-opacity: 1;"/><path class="point" transform="translate(711.31,214.68)" d="M2.5,0A2.5,2.5 0 1,1 0,-2.5A2.5,2.5 0 0,1 2.5,0Z" style="opacity: 1; stroke-width: 0px; fill: rgb(124, 75, 106); fill-opacity: 1;"/><path class="point" transform="translate(712.17,212.71)" d="M2.5,0A2.5,2.5 0 1,1 0,-2.5A2.5,2.5 0 0,1 2.5,0Z" style="opacity: 1; stroke-width: 0px; fill: rgb(124, 75, 106); fill-opacity: 1;"/><path class="point" transform="translate(712.82,204.43)" d="M2.5,0A2.5,2.5 0 1,1 0,-2.5A2.5,2.5 0 0,1 2.5,0Z" style="opacity: 1; stroke-width: 0px; fill: rgb(124, 75, 106); fill-opacity: 1;"/><path class="point" transform="translate(725.57,210.87)" d="M2.5,0A2.5,2.5 0 1,1 0,-2.5A2.5,2.5 0 0,1 2.5,0Z" style="opacity: 1; stroke-width: 0px; fill: rgb(124, 75, 106); fill-opacity: 1;"/><path class="point" transform="translate(743.93,214.35)" d="M2.5,0A2.5,2.5 0 1,1 0,-2.5A2.5,2.5 0 0,1 2.5,0Z" style="opacity: 1; stroke-width: 0px; fill: rgb(124, 75, 106); fill-opacity: 1;"/><path class="point" transform="translate(767.05,211.56)" d="M2.5,0A2.5,2.5 0 1,1 0,-2.5A2.5,2.5 0 0,1 2.5,0Z" style="opacity: 1; stroke-width: 0px; fill: rgb(124, 75, 106); fill-opacity: 1;"/><path class="point" transform="translate(791.9,209.55)" d="M2.5,0A2.5,2.5 0 1,1 0,-2.5A2.5,2.5 0 0,1 2.5,0Z" style="opacity: 1; stroke-width: 0px; fill: rgb(124, 75, 106); fill-opacity: 1;"/><path class="point" transform="translate(792.98,206.91)" d="M2.5,0A2.5,2.5 0 1,1 0,-2.5A2.5,2.5 0 0,1 2.5,0Z" style="opacity: 1; stroke-width: 0px; fill: rgb(124, 75, 106); fill-opacity: 1;"/><path class="point" transform="translate(796.44,208.8)" d="M2.5,0A2.5,2.5 0 1,1 0,-2.5A2.5,2.5 0 0,1 2.5,0Z" style="opacity: 1; stroke-width: 0px; fill: rgb(124, 75, 106); fill-opacity: 1;"/><path class="point" transform="translate(798.17,211.12)" d="M2.5,0A2.5,2.5 0 1,1 0,-2.5A2.5,2.5 0 0,1 2.5,0Z" style="opacity: 1; stroke-width: 0px; fill: rgb(124, 75, 106); fill-opacity: 1;"/><path class="point" transform="translate(798.6,214.11)" d="M2.5,0A2.5,2.5 0 1,1 0,-2.5A2.5,2.5 0 0,1 2.5,0Z" style="opacity: 1; stroke-width: 0px; fill: rgb(124, 75, 106); fill-opacity: 1;"/><path class="point" transform="translate(812.86,209.44)" d="M2.5,0A2.5,2.5 0 1,1 0,-2.5A2.5,2.5 0 0,1 2.5,0Z" style="opacity: 1; stroke-width: 0px; fill: rgb(124, 75, 106); fill-opacity: 1;"/><path class="point" transform="translate(828.85,210.9)" d="M2.5,0A2.5,2.5 0 1,1 0,-2.5A2.5,2.5 0 0,1 2.5,0Z" style="opacity: 1; stroke-width: 0px; fill: rgb(124, 75, 106); fill-opacity: 1;"/><path class="point" transform="translate(838.57,207.18)" d="M2.5,0A2.5,2.5 0 1,1 0,-2.5A2.5,2.5 0 0,1 2.5,0Z" style="opacity: 1; stroke-width: 0px; fill: rgb(124, 75, 106); fill-opacity: 1;"/><path class="point" transform="translate(844.84,209.83)" d="M2.5,0A2.5,2.5 0 1,1 0,-2.5A2.5,2.5 0 0,1 2.5,0Z" style="opacity: 1; stroke-width: 0px; fill: rgb(124, 75, 106); fill-opacity: 1;"/><path class="point" transform="translate(882.65,212.18)" d="M2.5,0A2.5,2.5 0 1,1 0,-2.5A2.5,2.5 0 0,1 2.5,0Z" style="opacity: 1; stroke-width: 0px; fill: rgb(124, 75, 106); fill-opacity: 1;"/><path class="point" transform="translate(921.76,213.24)" d="M2.5,0A2.5,2.5 0 1,1 0,-2.5A2.5,2.5 0 0,1 2.5,0Z" style="opacity: 1; stroke-width: 0px; fill: rgb(124, 75, 106); fill-opacity: 1;"/></g></g><g class="trace violins" style="opacity: 1;"><path class="violin" d="M442.6,183.62L442.6,183.24Q455.13,183.04 461.4,182.89C467.66,182.74 473.93,182.56 480.19,182.34C486.45,182.12 492.72,181.86 498.98,181.55C505.25,181.24 511.52,180.89 517.78,180.5C524.05,180.11 530.31,179.68 536.57,179.19C542.84,178.7 549.11,178.18 555.37,177.58C561.64,176.97 567.9,176.32 574.16,175.56C580.43,174.79 586.69,173.95 592.95,172.99C599.22,172.02 605.49,170.94 611.75,169.76C618.02,168.58 624.28,167.23 630.54,165.89C636.81,164.54 643.07,163.06 649.34,161.69C655.6,160.32 661.86,158.88 668.13,157.65C674.38,156.43 680.64,155.26 686.92,154.35C693.17,153.45 699.45,152.72 705.72,152.22C711.98,151.72 718.24,151.49 724.51,151.37C730.77,151.25 737.05,151.39 743.31,151.52C749.58,151.65 755.84,151.95 762.1,152.18C768.36,152.41 774.63,152.69 780.89,152.92C787.16,153.15 793.42,153.34 799.69,153.56C805.95,153.78 812.22,153.94 818.48,154.24C824.75,154.54 831.02,154.85 837.28,155.37C843.55,155.89 849.82,156.53 856.07,157.36C862.34,158.19 868.61,159.22 874.86,160.35C881.14,161.49 887.4,162.85 893.66,164.18C899.93,165.51 906.18,166.99 912.45,168.34C918.71,169.68 924.97,171.06 931.25,172.25C937.5,173.43 943.76,174.53 950.04,175.44C956.29,176.34 962.57,177.08 968.84,177.69C975.1,178.29 981.36,178.72 987.63,179.07C993.89,179.42 1000.15,179.63 1006.42,179.81C1012.68,179.99 1018.95,180.08 1025.22,180.16C1031.48,180.24 1037.75,180.27 1044.01,180.31C1050.28,180.35 1056.54,180.37 1062.81,180.4C1069.07,180.43 1075.34,180.45 1081.6,180.48C1087.86,180.52 1094.13,180.55 1100.39,180.61C1106.66,180.67 1112.92,180.75 1119.19,180.85C1125.45,180.95 1131.72,181.07 1137.98,181.21C1144.25,181.35 1150.51,181.52 1156.78,181.69C1163.04,181.85 1169.31,182.04 1175.57,182.2C1181.83,182.36 1188.1,182.53 1194.36,182.67C1200.63,182.81 1206.89,182.93 1213.16,183.04Q1219.42,183.15 1231.95,183.31L1231.95,183.62" style="vector-effect: non-scaling-stroke; stroke-width: 2px; stroke: rgb(142, 70, 92); stroke-opacity: 1; fill: rgb(142, 70, 92); fill-opacity: 0.5;"/><g class="points"><path class="point" transform="translate(557.9,175.34)" d="M2.5,0A2.5,2.5 0 1,1 0,-2.5A2.5,2.5 0 0,1 2.5,0Z" style="opacity: 1; stroke-width: 0px; fill: rgb(142, 70, 92); fill-opacity: 1;"/><path class="point" transform="translate(597.87,179.61)" d="M2.5,0A2.5,2.5 0 1,1 0,-2.5A2.5,2.5 0 0,1 2.5,0Z" style="opacity: 1; stroke-width: 0px; fill: rgb(142, 70, 92); fill-opacity: 1;"/><path class="point" transform="translate(656.43,174.14)" d="M2.5,0A2.5,2.5 0 1,1 0,-2.5A2.5,2.5 0 0,1 2.5,0Z" style="opacity: 1; stroke-width: 0px; fill: rgb(142, 70, 92); fill-opacity: 1;"/><path class="point" transform="translate(663.99,180.6)" d="M2.5,0A2.5,2.5 0 1,1 0,-2.5A2.5,2.5 0 0,1 2.5,0Z" style="opacity: 1; stroke-width: 0px; fill: rgb(142, 70, 92); fill-opacity: 1;"/><path class="point" transform="translate(673.71,178.23)" d="M2.5,0A2.5,2.5 0 1,1 0,-2.5A2.5,2.5 0 0,1 2.5,0Z" style="opacity: 1; stroke-width: 0px; fill: rgb(142, 70, 92); fill-opacity: 1;"/><path class="point" transform="translate(681.06,174.83)" d="M2.5,0A2.5,2.5 0 1,1 0,-2.5A2.5,2.5 0 0,1 2.5,0Z" style="opacity: 1; stroke-width: 0px; fill: rgb(142, 70, 92); fill-opacity: 1;"/><path class="point" transform="translate(684.08,177.35)" d="M2.5,0A2.5,2.5 0 1,1 0,-2.5A2.5,2.5 0 0,1 2.5,0Z" style="opacity: 1; stroke-width: 0px; fill: rgb(142, 70, 92); fill-opacity: 1;"/><path class="point" transform="translate(698.99,175.32)" d="M2.5,0A2.5,2.5 0 1,1 0,-2.5A2.5,2.5 0 0,1 2.5,0Z" style="opacity: 1; stroke-width: 0px; fill: rgb(142, 70, 92); fill-opacity: 1;"/><path class="point" transform="translate(707.85,179.2)" d="M2.5,0A2.5,2.5 0 1,1 0,-2.5A2.5,2.5 0 0,1 2.5,0Z" style="opacity: 1; stroke-width: 0px; fill: rgb(142, 70, 92); fill-opacity: 1;"/><path class="point" transform="translate(709.15,181.9)" d="M2.5,0A2.5,2.5 0 1,1 0,-2.5A2.5,2.5 0 0,1 2.5,0Z" style="opacity: 1; stroke-width: 0px; fill: rgb(142, 70, 92); fill-opacity: 1;"/><path class="point" transform="translate(713.25,175.54)" d="M2.5,0A2.5,2.5 0 1,1 0,-2.5A2.5,2.5 0 0,1 2.5,0Z" style="opacity: 1; stroke-width: 0px; fill: rgb(142, 70, 92); fill-opacity: 1;"/><path class="point" transform="translate(731.62,178.92)" d="M2.5,0A2.5,2.5 0 1,1 0,-2.5A2.5,2.5 0 0,1 2.5,0Z" style="opacity: 1; stroke-width: 0px; fill: rgb(142, 70, 92); fill-opacity: 1;"/><path class="point" transform="translate(732.05,173.69)" d="M2.5,0A2.5,2.5 0 1,1 0,-2.5A2.5,2.5 0 0,1 2.5,0Z" style="opacity: 1; stroke-width: 0px; fill: rgb(142, 70, 92); fill-opacity: 1;"/><path class="point" transform="translate(740.48,182.49)" d="M2.5,0A2.5,2.5 0 1,1 0,-2.5A2.5,2.5 0 0,1 2.5,0Z" style="opacity: 1; stroke-width: 0px; fill: rgb(142, 70, 92); fill-opacity: 1;"/><path class="point" transform="translate(747.82,180.18)" d="M2.5,0A2.5,2.5 0 1,1 0,-2.5A2.5,2.5 0 0,1 2.5,0Z" style="opacity: 1; stroke-width: 0px; fill: rgb(142, 70, 92); fill-opacity: 1;"/><path class="point" transform="translate(763.81,172.81)" d="M2.5,0A2.5,2.5 0 1,1 0,-2.5A2.5,2.5 0 0,1 2.5,0Z" style="opacity: 1; stroke-width: 0px; fill: rgb(142, 70, 92); fill-opacity: 1;"/><path class="point" transform="translate(792.98,178.49)" d="M2.5,0A2.5,2.5 0 1,1 0,-2.5A2.5,2.5 0 0,1 2.5,0Z" style="opacity: 1; stroke-width: 0px; fill: rgb(142, 70, 92); fill-opacity: 1;"/><path class="point" transform="translate(801.41,181.68)" d="M2.5,0A2.5,2.5 0 1,1 0,-2.5A2.5,2.5 0 0,1 2.5,0Z" style="opacity: 1; stroke-width: 0px; fill: rgb(142, 70, 92); fill-opacity: 1;"/><path class="point" transform="translate(811.13,178.87)" d="M2.5,0A2.5,2.5 0 1,1 0,-2.5A2.5,2.5 0 0,1 2.5,0Z" style="opacity: 1; stroke-width: 0px; fill: rgb(142, 70, 92); fill-opacity: 1;"/><path class="point" transform="translate(823.23,177.28)" d="M2.5,0A2.5,2.5 0 1,1 0,-2.5A2.5,2.5 0 0,1 2.5,0Z" style="opacity: 1; stroke-width: 0px; fill: rgb(142, 70, 92); fill-opacity: 1;"/><path class="point" transform="translate(840.09,174.79)" d="M2.5,0A2.5,2.5 0 1,1 0,-2.5A2.5,2.5 0 0,1 2.5,0Z" style="opacity: 1; stroke-width: 0px; fill: rgb(142, 70, 92); fill-opacity: 1;"/><path class="point" transform="translate(843.54,176.51)" d="M2.5,0A2.5,2.5 0 1,1 0,-2.5A2.5,2.5 0 0,1 2.5,0Z" style="opacity: 1; stroke-width: 0px; fill: rgb(142, 70, 92); fill-opacity: 1;"/><path class="point" transform="translate(843.98,178.8)" d="M2.5,0A2.5,2.5 0 1,1 0,-2.5A2.5,2.5 0 0,1 2.5,0Z" style="opacity: 1; stroke-width: 0px; fill: rgb(142, 70, 92); fill-opacity: 1;"/><path class="point" transform="translate(857.8,180.43)" d="M2.5,0A2.5,2.5 0 1,1 0,-2.5A2.5,2.5 0 0,1 2.5,0Z" style="opacity: 1; stroke-width: 0px; fill: rgb(142, 70, 92); fill-opacity: 1;"/><path class="point" transform="translate(873.36,177.18)" d="M2.5,0A2.5,2.5 0 1,1 0,-2.5A2.5,2.5 0 0,1 2.5,0Z" style="opacity: 1; stroke-width: 0px; fill: rgb(142, 70, 92); fill-opacity: 1;"/><path class="point" transform="translate(874.01,178.1)" d="M2.5,0A2.5,2.5 0 1,1 0,-2.5A2.5,2.5 0 0,1 2.5,0Z" style="opacity: 1; stroke-width: 0px; fill: rgb(142, 70, 92); fill-opacity: 1;"/><path class="point" transform="translate(881.14,175.77)" d="M2.5,0A2.5,2.5 0 1,1 0,-2.5A2.5,2.5 0 0,1 2.5,0Z" style="opacity: 1; stroke-width: 0px; fill: rgb(142, 70, 92); fill-opacity: 1;"/><path class="point" transform="translate(894.54,177.42)" d="M2.5,0A2.5,2.5 0 1,1 0,-2.5A2.5,2.5 0 0,1 2.5,0Z" style="opacity: 1; stroke-width: 0px; fill: rgb(142, 70, 92); fill-opacity: 1;"/><path class="point" transform="translate(1014.67,178.92)" d="M2.5,0A2.5,2.5 0 1,1 0,-2.5A2.5,2.5 0 0,1 2.5,0Z" style="opacity: 1; stroke-width: 0px; fill: rgb(142, 70, 92); fill-opacity: 1;"/><path class="point" transform="translate(1116.66,179.52)" d="M2.5,0A2.5,2.5 0 1,1 0,-2.5A2.5,2.5 0 0,1 2.5,0Z" style="opacity: 1; stroke-width: 0px; fill: rgb(142, 70, 92); fill-opacity: 1;"/></g></g><g class="trace violins" style="opacity: 1;"><path class="violin" d="M407.53,151.37L407.53,150.96Q419.06,150.75 424.83,150.59C430.6,150.43 436.36,150.24 442.13,150.02C447.9,149.8 453.66,149.54 459.43,149.27C465.2,149 470.96,148.7 476.73,148.42C482.5,148.14 488.27,147.85 494.04,147.6C499.81,147.35 505.57,147.12 511.34,146.93C517.11,146.74 522.87,146.6 528.64,146.46C534.41,146.32 540.17,146.24 545.94,146.09C551.71,145.94 557.47,145.8 563.24,145.56C569.01,145.32 574.78,145.04 580.54,144.63C586.31,144.22 592.08,143.71 597.84,143.11C603.61,142.51 609.38,141.78 615.14,141.01C620.91,140.24 626.68,139.37 632.44,138.51C638.21,137.65 643.97,136.73 649.74,135.84C655.51,134.95 661.27,134.05 667.04,133.18C672.81,132.31 678.58,131.47 684.35,130.63C690.12,129.79 695.88,128.97 701.65,128.15C707.42,127.33 713.18,126.51 718.95,125.72C724.72,124.93 730.48,124.13 736.25,123.4C742.01,122.67 747.78,121.94 753.55,121.34C759.31,120.74 765.08,120.18 770.85,119.81C776.61,119.44 782.38,119.16 788.15,119.11C793.92,119.06 799.69,119.17 805.45,119.51C811.22,119.85 817,120.39 822.75,121.14C828.53,121.89 834.3,122.89 840.05,124C845.83,125.12 851.59,126.47 857.35,127.84C863.13,129.22 868.89,130.77 874.66,132.25C880.43,133.73 886.18,135.31 891.96,136.72C897.72,138.13 903.48,139.52 909.26,140.72C915.01,141.91 920.78,143 926.56,143.9C932.31,144.8 938.09,145.53 943.86,146.13C949.62,146.73 955.39,147.13 961.16,147.49C966.92,147.85 972.69,148.06 978.46,148.27C984.23,148.48 989.99,148.6 995.76,148.75C1001.53,148.9 1007.29,149.01 1013.06,149.15C1018.83,149.29 1024.59,149.44 1030.36,149.59C1036.13,149.74 1041.89,149.9 1047.66,150.05C1053.43,150.2 1059.2,150.36 1064.97,150.49C1070.74,150.62 1076.5,150.74 1082.27,150.84Q1088.04,150.94 1099.57,151.08L1099.57,151.37" style="vector-effect: non-scaling-stroke; stroke-width: 2px; stroke: rgb(160, 64, 79); stroke-opacity: 1; fill: rgb(160, 64, 79); fill-opacity: 0.5;"/><g class="points"><path class="point" transform="translate(511.66,143.33)" d="M2.5,0A2.5,2.5 0 1,1 0,-2.5A2.5,2.5 0 0,1 2.5,0Z" style="opacity: 1; stroke-width: 0px; fill: rgb(160, 64, 79); fill-opacity: 1;"/><path class="point" transform="translate(532.83,146.84)" d="M2.5,0A2.5,2.5 0 1,1 0,-2.5A2.5,2.5 0 0,1 2.5,0Z" style="opacity: 1; stroke-width: 0px; fill: rgb(160, 64, 79); fill-opacity: 1;"/><path class="point" transform="translate(626.82,142.4)" d="M2.5,0A2.5,2.5 0 1,1 0,-2.5A2.5,2.5 0 0,1 2.5,0Z" style="opacity: 1; stroke-width: 0px; fill: rgb(160, 64, 79); fill-opacity: 1;"/><path class="point" transform="translate(650.38,147.77)" d="M2.5,0A2.5,2.5 0 1,1 0,-2.5A2.5,2.5 0 0,1 2.5,0Z" style="opacity: 1; stroke-width: 0px; fill: rgb(160, 64, 79); fill-opacity: 1;"/><path class="point" transform="translate(651.24,145.78)" d="M2.5,0A2.5,2.5 0 1,1 0,-2.5A2.5,2.5 0 0,1 2.5,0Z" style="opacity: 1; stroke-width: 0px; fill: rgb(160, 64, 79); fill-opacity: 1;"/><path class="point" transform="translate(659.88,143.08)" d="M2.5,0A2.5,2.5 0 1,1 0,-2.5A2.5,2.5 0 0,1 2.5,0Z" style="opacity: 1; stroke-width: 0px; fill: rgb(160, 64, 79); fill-opacity: 1;"/><path class="point" transform="translate(694.45,145.05)" d="M2.5,0A2.5,2.5 0 1,1 0,-2.5A2.5,2.5 0 0,1 2.5,0Z" style="opacity: 1; stroke-width: 0px; fill: rgb(160, 64, 79); fill-opacity: 1;"/><path class="point" transform="translate(694.89,143.57)" d="M2.5,0A2.5,2.5 0 1,1 0,-2.5A2.5,2.5 0 0,1 2.5,0Z" style="opacity: 1; stroke-width: 0px; fill: rgb(160, 64, 79); fill-opacity: 1;"/><path class="point" transform="translate(706.34,146.54)" d="M2.5,0A2.5,2.5 0 1,1 0,-2.5A2.5,2.5 0 0,1 2.5,0Z" style="opacity: 1; stroke-width: 0px; fill: rgb(160, 64, 79); fill-opacity: 1;"/><path class="point" transform="translate(715.41,148.5)" d="M2.5,0A2.5,2.5 0 1,1 0,-2.5A2.5,2.5 0 0,1 2.5,0Z" style="opacity: 1; stroke-width: 0px; fill: rgb(160, 64, 79); fill-opacity: 1;"/><path class="point" transform="translate(736.59,143.59)" d="M2.5,0A2.5,2.5 0 1,1 0,-2.5A2.5,2.5 0 0,1 2.5,0Z" style="opacity: 1; stroke-width: 0px; fill: rgb(160, 64, 79); fill-opacity: 1;"/><path class="point" transform="translate(750.2,146.74)" d="M2.5,0A2.5,2.5 0 1,1 0,-2.5A2.5,2.5 0 0,1 2.5,0Z" style="opacity: 1; stroke-width: 0px; fill: rgb(160, 64, 79); fill-opacity: 1;"/><path class="point" transform="translate(754.95,141.49)" d="M2.5,0A2.5,2.5 0 1,1 0,-2.5A2.5,2.5 0 0,1 2.5,0Z" style="opacity: 1; stroke-width: 0px; fill: rgb(160, 64, 79); fill-opacity: 1;"/><path class="point" transform="translate(757.11,150.17)" d="M2.5,0A2.5,2.5 0 1,1 0,-2.5A2.5,2.5 0 0,1 2.5,0Z" style="opacity: 1; stroke-width: 0px; fill: rgb(160, 64, 79); fill-opacity: 1;"/><path class="point" transform="translate(767.27,148.08)" d="M2.5,0A2.5,2.5 0 1,1 0,-2.5A2.5,2.5 0 0,1 2.5,0Z" style="opacity: 1; stroke-width: 0px; fill: rgb(160, 64, 79); fill-opacity: 1;"/><path class="point" transform="translate(771.38,139.42)" d="M2.5,0A2.5,2.5 0 1,1 0,-2.5A2.5,2.5 0 0,1 2.5,0Z" style="opacity: 1; stroke-width: 0px; fill: rgb(160, 64, 79); fill-opacity: 1;"/><path class="point" transform="translate(784.34,146.44)" d="M2.5,0A2.5,2.5 0 1,1 0,-2.5A2.5,2.5 0 0,1 2.5,0Z" style="opacity: 1; stroke-width: 0px; fill: rgb(160, 64, 79); fill-opacity: 1;"/><path class="point" transform="translate(789.74,150.28)" d="M2.5,0A2.5,2.5 0 1,1 0,-2.5A2.5,2.5 0 0,1 2.5,0Z" style="opacity: 1; stroke-width: 0px; fill: rgb(160, 64, 79); fill-opacity: 1;"/><path class="point" transform="translate(801.63,146.92)" d="M2.5,0A2.5,2.5 0 1,1 0,-2.5A2.5,2.5 0 0,1 2.5,0Z" style="opacity: 1; stroke-width: 0px; fill: rgb(160, 64, 79); fill-opacity: 1;"/><path class="point" transform="translate(808.11,145.06)" d="M2.5,0A2.5,2.5 0 1,1 0,-2.5A2.5,2.5 0 0,1 2.5,0Z" style="opacity: 1; stroke-width: 0px; fill: rgb(160, 64, 79); fill-opacity: 1;"/><path class="point" transform="translate(808.32,142.31)" d="M2.5,0A2.5,2.5 0 1,1 0,-2.5A2.5,2.5 0 0,1 2.5,0Z" style="opacity: 1; stroke-width: 0px; fill: rgb(160, 64, 79); fill-opacity: 1;"/><path class="point" transform="translate(825.39,144.26)" d="M2.5,0A2.5,2.5 0 1,1 0,-2.5A2.5,2.5 0 0,1 2.5,0Z" style="opacity: 1; stroke-width: 0px; fill: rgb(160, 64, 79); fill-opacity: 1;"/><path class="point" transform="translate(825.83,146.55)" d="M2.5,0A2.5,2.5 0 1,1 0,-2.5A2.5,2.5 0 0,1 2.5,0Z" style="opacity: 1; stroke-width: 0px; fill: rgb(160, 64, 79); fill-opacity: 1;"/><path class="point" transform="translate(832.74,149.96)" d="M2.5,0A2.5,2.5 0 1,1 0,-2.5A2.5,2.5 0 0,1 2.5,0Z" style="opacity: 1; stroke-width: 0px; fill: rgb(160, 64, 79); fill-opacity: 1;"/><path class="point" transform="translate(833.82,144.93)" d="M2.5,0A2.5,2.5 0 1,1 0,-2.5A2.5,2.5 0 0,1 2.5,0Z" style="opacity: 1; stroke-width: 0px; fill: rgb(160, 64, 79); fill-opacity: 1;"/><path class="point" transform="translate(853.91,145.98)" d="M2.5,0A2.5,2.5 0 1,1 0,-2.5A2.5,2.5 0 0,1 2.5,0Z" style="opacity: 1; stroke-width: 0px; fill: rgb(160, 64, 79); fill-opacity: 1;"/><path class="point" transform="translate(863.21,143.24)" d="M2.5,0A2.5,2.5 0 1,1 0,-2.5A2.5,2.5 0 0,1 2.5,0Z" style="opacity: 1; stroke-width: 0px; fill: rgb(160, 64, 79); fill-opacity: 1;"/><path class="point" transform="translate(872.28,145.22)" d="M2.5,0A2.5,2.5 0 1,1 0,-2.5A2.5,2.5 0 0,1 2.5,0Z" style="opacity: 1; stroke-width: 0px; fill: rgb(160, 64, 79); fill-opacity: 1;"/><path class="point" transform="translate(877.68,147.01)" d="M2.5,0A2.5,2.5 0 1,1 0,-2.5A2.5,2.5 0 0,1 2.5,0Z" style="opacity: 1; stroke-width: 0px; fill: rgb(160, 64, 79); fill-opacity: 1;"/><path class="point" transform="translate(995.44,147.65)" d="M2.5,0A2.5,2.5 0 1,1 0,-2.5A2.5,2.5 0 0,1 2.5,0Z" style="opacity: 1; stroke-width: 0px; fill: rgb(160, 64, 79); fill-opacity: 1;"/></g></g><g class="trace violins" style="opacity: 1;"><path class="violin" d="M425.88,119.11L425.88,118.71Q437.69,118.5 443.6,118.35C449.5,118.2 455.41,118.01 461.31,117.79C467.22,117.57 473.12,117.32 479.03,117.05C484.94,116.78 490.84,116.46 496.75,116.16C502.66,115.86 508.56,115.54 514.47,115.26C520.38,114.98 526.28,114.71 532.19,114.46C538.09,114.22 544,114.01 549.9,113.79C555.81,113.57 561.71,113.39 567.62,113.14C573.53,112.88 579.44,112.65 585.34,112.26C591.25,111.87 597.16,111.42 603.06,110.78C608.97,110.14 614.88,109.37 620.77,108.44C626.69,107.51 632.59,106.38 638.49,105.2C644.41,104.02 650.31,102.66 656.21,101.36C662.12,100.06 668.02,98.65 673.93,97.39C679.83,96.14 685.73,94.89 691.65,93.83C697.54,92.77 703.45,91.83 709.36,91.04C715.26,90.25 721.17,89.63 727.08,89.11C732.98,88.59 738.89,88.22 744.8,87.9C750.7,87.58 756.61,87.37 762.52,87.2C768.42,87.03 774.33,86.91 780.23,86.86C786.14,86.81 792.04,86.8 797.95,86.91C803.86,87.02 809.77,87.2 815.67,87.54C821.58,87.88 827.49,88.34 833.39,88.97C839.3,89.6 845.22,90.4 851.11,91.33C857.03,92.26 862.92,93.38 868.82,94.55C874.73,95.72 880.64,97.06 886.54,98.34C892.45,99.63 898.35,101.01 904.26,102.26C910.16,103.51 916.06,104.76 921.98,105.82C927.87,106.88 933.78,107.85 939.69,108.63C945.59,109.4 951.5,110.01 957.41,110.48C963.31,110.95 969.22,111.22 975.13,111.43C981.03,111.64 986.94,111.69 992.85,111.76C998.76,111.83 1004.66,111.8 1010.57,111.85C1016.47,111.9 1022.38,111.94 1028.28,112.07C1034.19,112.2 1040.09,112.38 1046,112.62C1051.91,112.86 1057.81,113.19 1063.72,113.53C1069.63,113.87 1075.53,114.28 1081.44,114.67C1087.34,115.06 1093.25,115.48 1099.15,115.85C1105.06,116.22 1110.96,116.59 1116.87,116.91C1122.78,117.23 1128.68,117.51 1134.59,117.75C1140.5,117.99 1146.4,118.18 1152.31,118.34Q1158.21,118.5 1170.02,118.72L1170.02,119.11" style="vector-effect: non-scaling-stroke; stroke-width: 2px; stroke: rgb(179, 59, 66); stroke-opacity: 1; fill: rgb(179, 59, 66); fill-opacity: 0.5;"/><g class="points"><path class="point" transform="translate(534.13,110.88)" d="M2.5,0A2.5,2.5 0 1,1 0,-2.5A2.5,2.5 0 0,1 2.5,0Z" style="opacity: 1; stroke-width: 0px; fill: rgb(179, 59, 66); fill-opacity: 1;"/><path class="point" transform="translate(568.7,115)" d="M2.5,0A2.5,2.5 0 1,1 0,-2.5A2.5,2.5 0 0,1 2.5,0Z" style="opacity: 1; stroke-width: 0px; fill: rgb(179, 59, 66); fill-opacity: 1;"/><path class="point" transform="translate(669.82,109.79)" d="M2.5,0A2.5,2.5 0 1,1 0,-2.5A2.5,2.5 0 0,1 2.5,0Z" style="opacity: 1; stroke-width: 0px; fill: rgb(179, 59, 66); fill-opacity: 1;"/><path class="point" transform="translate(679.54,116)" d="M2.5,0A2.5,2.5 0 1,1 0,-2.5A2.5,2.5 0 0,1 2.5,0Z" style="opacity: 1; stroke-width: 0px; fill: rgb(179, 59, 66); fill-opacity: 1;"/><path class="point" transform="translate(682.79,113.67)" d="M2.5,0A2.5,2.5 0 1,1 0,-2.5A2.5,2.5 0 0,1 2.5,0Z" style="opacity: 1; stroke-width: 0px; fill: rgb(179, 59, 66); fill-opacity: 1;"/><path class="point" transform="translate(683.87,110.48)" d="M2.5,0A2.5,2.5 0 1,1 0,-2.5A2.5,2.5 0 0,1 2.5,0Z" style="opacity: 1; stroke-width: 0px; fill: rgb(179, 59, 66); fill-opacity: 1;"/><path class="point" transform="translate(691.21,112.82)" d="M2.5,0A2.5,2.5 0 1,1 0,-2.5A2.5,2.5 0 0,1 2.5,0Z" style="opacity: 1; stroke-width: 0px; fill: rgb(179, 59, 66); fill-opacity: 1;"/><path class="point" transform="translate(714.33,110.84)" d="M2.5,0A2.5,2.5 0 1,1 0,-2.5A2.5,2.5 0 0,1 2.5,0Z" style="opacity: 1; stroke-width: 0px; fill: rgb(179, 59, 66); fill-opacity: 1;"/><path class="point" transform="translate(715.63,114.71)" d="M2.5,0A2.5,2.5 0 1,1 0,-2.5A2.5,2.5 0 0,1 2.5,0Z" style="opacity: 1; stroke-width: 0px; fill: rgb(179, 59, 66); fill-opacity: 1;"/><path class="point" transform="translate(724.27,116.99)" d="M2.5,0A2.5,2.5 0 1,1 0,-2.5A2.5,2.5 0 0,1 2.5,0Z" style="opacity: 1; stroke-width: 0px; fill: rgb(179, 59, 66); fill-opacity: 1;"/><path class="point" transform="translate(738.75,111.08)" d="M2.5,0A2.5,2.5 0 1,1 0,-2.5A2.5,2.5 0 0,1 2.5,0Z" style="opacity: 1; stroke-width: 0px; fill: rgb(179, 59, 66); fill-opacity: 1;"/><path class="point" transform="translate(756.25,114.41)" d="M2.5,0A2.5,2.5 0 1,1 0,-2.5A2.5,2.5 0 0,1 2.5,0Z" style="opacity: 1; stroke-width: 0px; fill: rgb(179, 59, 66); fill-opacity: 1;"/><path class="point" transform="translate(758.84,108.96)" d="M2.5,0A2.5,2.5 0 1,1 0,-2.5A2.5,2.5 0 0,1 2.5,0Z" style="opacity: 1; stroke-width: 0px; fill: rgb(179, 59, 66); fill-opacity: 1;"/><path class="point" transform="translate(764.89,118.23)" d="M2.5,0A2.5,2.5 0 1,1 0,-2.5A2.5,2.5 0 0,1 2.5,0Z" style="opacity: 1; stroke-width: 0px; fill: rgb(179, 59, 66); fill-opacity: 1;"/><path class="point" transform="translate(783.69,116.07)" d="M2.5,0A2.5,2.5 0 1,1 0,-2.5A2.5,2.5 0 0,1 2.5,0Z" style="opacity: 1; stroke-width: 0px; fill: rgb(179, 59, 66); fill-opacity: 1;"/><path class="point" transform="translate(783.91,107.1)" d="M2.5,0A2.5,2.5 0 1,1 0,-2.5A2.5,2.5 0 0,1 2.5,0Z" style="opacity: 1; stroke-width: 0px; fill: rgb(179, 59, 66); fill-opacity: 1;"/><path class="point" transform="translate(816.32,114.2)" d="M2.5,0A2.5,2.5 0 1,1 0,-2.5A2.5,2.5 0 0,1 2.5,0Z" style="opacity: 1; stroke-width: 0px; fill: rgb(179, 59, 66); fill-opacity: 1;"/><path class="point" transform="translate(817.83,117.99)" d="M2.5,0A2.5,2.5 0 1,1 0,-2.5A2.5,2.5 0 0,1 2.5,0Z" style="opacity: 1; stroke-width: 0px; fill: rgb(179, 59, 66); fill-opacity: 1;"/><path class="point" transform="translate(823.45,114.71)" d="M2.5,0A2.5,2.5 0 1,1 0,-2.5A2.5,2.5 0 0,1 2.5,0Z" style="opacity: 1; stroke-width: 0px; fill: rgb(179, 59, 66); fill-opacity: 1;"/><path class="point" transform="translate(825.61,112.79)" d="M2.5,0A2.5,2.5 0 1,1 0,-2.5A2.5,2.5 0 0,1 2.5,0Z" style="opacity: 1; stroke-width: 0px; fill: rgb(179, 59, 66); fill-opacity: 1;"/><path class="point" transform="translate(827.99,110.16)" d="M2.5,0A2.5,2.5 0 1,1 0,-2.5A2.5,2.5 0 0,1 2.5,0Z" style="opacity: 1; stroke-width: 0px; fill: rgb(179, 59, 66); fill-opacity: 1;"/><path class="point" transform="translate(849.59,111.95)" d="M2.5,0A2.5,2.5 0 1,1 0,-2.5A2.5,2.5 0 0,1 2.5,0Z" style="opacity: 1; stroke-width: 0px; fill: rgb(179, 59, 66); fill-opacity: 1;"/><path class="point" transform="translate(850.46,113.86)" d="M2.5,0A2.5,2.5 0 1,1 0,-2.5A2.5,2.5 0 0,1 2.5,0Z" style="opacity: 1; stroke-width: 0px; fill: rgb(179, 59, 66); fill-opacity: 1;"/><path class="point" transform="translate(856.51,116.26)" d="M2.5,0A2.5,2.5 0 1,1 0,-2.5A2.5,2.5 0 0,1 2.5,0Z" style="opacity: 1; stroke-width: 0px; fill: rgb(179, 59, 66); fill-opacity: 1;"/><path class="point" transform="translate(883.73,112.67)" d="M2.5,0A2.5,2.5 0 1,1 0,-2.5A2.5,2.5 0 0,1 2.5,0Z" style="opacity: 1; stroke-width: 0px; fill: rgb(179, 59, 66); fill-opacity: 1;"/><path class="point" transform="translate(897.99,113.74)" d="M2.5,0A2.5,2.5 0 1,1 0,-2.5A2.5,2.5 0 0,1 2.5,0Z" style="opacity: 1; stroke-width: 0px; fill: rgb(179, 59, 66); fill-opacity: 1;"/><path class="point" transform="translate(901.02,110.97)" d="M2.5,0A2.5,2.5 0 1,1 0,-2.5A2.5,2.5 0 0,1 2.5,0Z" style="opacity: 1; stroke-width: 0px; fill: rgb(179, 59, 66); fill-opacity: 1;"/><path class="point" transform="translate(1011.86,112.97)" d="M2.5,0A2.5,2.5 0 1,1 0,-2.5A2.5,2.5 0 0,1 2.5,0Z" style="opacity: 1; stroke-width: 0px; fill: rgb(179, 59, 66); fill-opacity: 1;"/><path class="point" transform="translate(1013.38,114.76)" d="M2.5,0A2.5,2.5 0 1,1 0,-2.5A2.5,2.5 0 0,1 2.5,0Z" style="opacity: 1; stroke-width: 0px; fill: rgb(179, 59, 66); fill-opacity: 1;"/><path class="point" transform="translate(1061.78,115.6)" d="M2.5,0A2.5,2.5 0 1,1 0,-2.5A2.5,2.5 0 0,1 2.5,0Z" style="opacity: 1; stroke-width: 0px; fill: rgb(179, 59, 66); fill-opacity: 1;"/></g></g><g class="trace violins" style="opacity: 1;"><path class="violin" d="M508.33,86.86L508.33,86.47Q519.28,86.26 524.75,86.1C530.23,85.94 535.71,85.74 541.18,85.49C546.66,85.23 552.13,84.95 557.6,84.57C563.08,84.19 568.56,83.75 574.03,83.23C579.51,82.7 584.98,82.11 590.45,81.42C595.93,80.73 601.41,79.96 606.88,79.09C612.36,78.22 617.83,77.25 623.3,76.22C628.78,75.19 634.26,74.06 639.73,72.92C645.21,71.78 650.68,70.57 656.16,69.4C661.63,68.23 667.1,67.02 672.58,65.92C678.05,64.82 683.53,63.75 689.01,62.8C694.48,61.86 699.95,60.99 705.43,60.24C710.9,59.49 716.38,58.85 721.86,58.28C727.33,57.71 732.8,57.26 738.28,56.83C743.75,56.41 749.23,56.04 754.71,55.73C760.18,55.42 765.65,55.14 771.13,54.95C776.6,54.76 782.08,54.6 787.56,54.6C793.03,54.6 798.51,54.68 803.98,54.95C809.46,55.22 814.94,55.63 820.41,56.2C825.89,56.77 831.36,57.54 836.83,58.38C842.31,59.22 847.79,60.26 853.26,61.26C858.74,62.26 864.21,63.37 869.69,64.39C875.16,65.41 880.63,66.44 886.11,67.37C891.58,68.3 897.06,69.17 902.54,69.98C908.01,70.79 913.48,71.52 918.96,72.25C924.43,72.98 929.91,73.65 935.39,74.35C940.86,75.05 946.34,75.74 951.81,76.43C957.29,77.12 962.76,77.82 968.24,78.47C973.71,79.12 979.18,79.77 984.66,80.32C990.13,80.87 995.61,81.38 1001.09,81.78C1006.56,82.18 1012.03,82.49 1017.51,82.74C1022.98,82.98 1028.46,83.13 1033.94,83.25C1039.41,83.36 1044.89,83.39 1050.36,83.43C1055.84,83.47 1061.31,83.46 1066.79,83.46C1072.27,83.46 1077.74,83.45 1083.22,83.45C1088.69,83.45 1094.17,83.44 1099.64,83.45C1105.12,83.46 1110.59,83.48 1116.07,83.51C1121.54,83.54 1127.02,83.58 1132.49,83.64C1137.97,83.71 1143.44,83.79 1148.92,83.9C1154.39,84.01 1159.87,84.15 1165.34,84.3C1170.82,84.45 1176.29,84.62 1181.77,84.8C1187.24,84.97 1192.72,85.18 1198.19,85.35C1203.67,85.53 1209.14,85.7 1214.62,85.85C1220.09,86 1225.57,86.14 1231.04,86.25Q1236.52,86.36 1247.47,86.53L1247.47,86.86" style="vector-effect: non-scaling-stroke; stroke-width: 2px; stroke: rgb(197, 53, 52); stroke-opacity: 1; fill: rgb(197, 53, 52); fill-opacity: 0.5;"/><g class="points"><path class="point" transform="translate(608.67,78.37)" d="M2.5,0A2.5,2.5 0 1,1 0,-2.5A2.5,2.5 0 0,1 2.5,0Z" style="opacity: 1; stroke-width: 0px; fill: rgb(197, 53, 52); fill-opacity: 1;"/><path class="point" transform="translate(661.83,83.07)" d="M2.5,0A2.5,2.5 0 1,1 0,-2.5A2.5,2.5 0 0,1 2.5,0Z" style="opacity: 1; stroke-width: 0px; fill: rgb(197, 53, 52); fill-opacity: 1;"/><path class="point" transform="translate(665.28,77)" d="M2.5,0A2.5,2.5 0 1,1 0,-2.5A2.5,2.5 0 0,1 2.5,0Z" style="opacity: 1; stroke-width: 0px; fill: rgb(197, 53, 52); fill-opacity: 1;"/><path class="point" transform="translate(678.46,84.25)" d="M2.5,0A2.5,2.5 0 1,1 0,-2.5A2.5,2.5 0 0,1 2.5,0Z" style="opacity: 1; stroke-width: 0px; fill: rgb(197, 53, 52); fill-opacity: 1;"/><path class="point" transform="translate(685.16,81.59)" d="M2.5,0A2.5,2.5 0 1,1 0,-2.5A2.5,2.5 0 0,1 2.5,0Z" style="opacity: 1; stroke-width: 0px; fill: rgb(197, 53, 52); fill-opacity: 1;"/><path class="point" transform="translate(708.07,77.9)" d="M2.5,0A2.5,2.5 0 1,1 0,-2.5A2.5,2.5 0 0,1 2.5,0Z" style="opacity: 1; stroke-width: 0px; fill: rgb(197, 53, 52); fill-opacity: 1;"/><path class="point" transform="translate(714.12,80.61)" d="M2.5,0A2.5,2.5 0 1,1 0,-2.5A2.5,2.5 0 0,1 2.5,0Z" style="opacity: 1; stroke-width: 0px; fill: rgb(197, 53, 52); fill-opacity: 1;"/><path class="point" transform="translate(719.52,78.85)" d="M2.5,0A2.5,2.5 0 1,1 0,-2.5A2.5,2.5 0 0,1 2.5,0Z" style="opacity: 1; stroke-width: 0px; fill: rgb(197, 53, 52); fill-opacity: 1;"/><path class="point" transform="translate(727.3,82.07)" d="M2.5,0A2.5,2.5 0 1,1 0,-2.5A2.5,2.5 0 0,1 2.5,0Z" style="opacity: 1; stroke-width: 0px; fill: rgb(197, 53, 52); fill-opacity: 1;"/><path class="point" transform="translate(728.16,84.3)" d="M2.5,0A2.5,2.5 0 1,1 0,-2.5A2.5,2.5 0 0,1 2.5,0Z" style="opacity: 1; stroke-width: 0px; fill: rgb(197, 53, 52); fill-opacity: 1;"/><path class="point" transform="translate(742.64,78.86)" d="M2.5,0A2.5,2.5 0 1,1 0,-2.5A2.5,2.5 0 0,1 2.5,0Z" style="opacity: 1; stroke-width: 0px; fill: rgb(197, 53, 52); fill-opacity: 1;"/><path class="point" transform="translate(764.03,82.32)" d="M2.5,0A2.5,2.5 0 1,1 0,-2.5A2.5,2.5 0 0,1 2.5,0Z" style="opacity: 1; stroke-width: 0px; fill: rgb(197, 53, 52); fill-opacity: 1;"/><path class="point" transform="translate(770.73,76.7)" d="M2.5,0A2.5,2.5 0 1,1 0,-2.5A2.5,2.5 0 0,1 2.5,0Z" style="opacity: 1; stroke-width: 0px; fill: rgb(197, 53, 52); fill-opacity: 1;"/><path class="point" transform="translate(790.61,86.01)" d="M2.5,0A2.5,2.5 0 1,1 0,-2.5A2.5,2.5 0 0,1 2.5,0Z" style="opacity: 1; stroke-width: 0px; fill: rgb(197, 53, 52); fill-opacity: 1;"/><path class="point" transform="translate(793.41,83.51)" d="M2.5,0A2.5,2.5 0 1,1 0,-2.5A2.5,2.5 0 0,1 2.5,0Z" style="opacity: 1; stroke-width: 0px; fill: rgb(197, 53, 52); fill-opacity: 1;"/><path class="point" transform="translate(799.03,75.36)" d="M2.5,0A2.5,2.5 0 1,1 0,-2.5A2.5,2.5 0 0,1 2.5,0Z" style="opacity: 1; stroke-width: 0px; fill: rgb(197, 53, 52); fill-opacity: 1;"/><path class="point" transform="translate(805.08,81.96)" d="M2.5,0A2.5,2.5 0 1,1 0,-2.5A2.5,2.5 0 0,1 2.5,0Z" style="opacity: 1; stroke-width: 0px; fill: rgb(197, 53, 52); fill-opacity: 1;"/><path class="point" transform="translate(808.97,85.89)" d="M2.5,0A2.5,2.5 0 1,1 0,-2.5A2.5,2.5 0 0,1 2.5,0Z" style="opacity: 1; stroke-width: 0px; fill: rgb(197, 53, 52); fill-opacity: 1;"/><path class="point" transform="translate(819.56,82.54)" d="M2.5,0A2.5,2.5 0 1,1 0,-2.5A2.5,2.5 0 0,1 2.5,0Z" style="opacity: 1; stroke-width: 0px; fill: rgb(197, 53, 52); fill-opacity: 1;"/><path class="point" transform="translate(834.25,80.52)" d="M2.5,0A2.5,2.5 0 1,1 0,-2.5A2.5,2.5 0 0,1 2.5,0Z" style="opacity: 1; stroke-width: 0px; fill: rgb(197, 53, 52); fill-opacity: 1;"/><path class="point" transform="translate(836.63,78.22)" d="M2.5,0A2.5,2.5 0 1,1 0,-2.5A2.5,2.5 0 0,1 2.5,0Z" style="opacity: 1; stroke-width: 0px; fill: rgb(197, 53, 52); fill-opacity: 1;"/><path class="point" transform="translate(843.98,79.87)" d="M2.5,0A2.5,2.5 0 1,1 0,-2.5A2.5,2.5 0 0,1 2.5,0Z" style="opacity: 1; stroke-width: 0px; fill: rgb(197, 53, 52); fill-opacity: 1;"/><path class="point" transform="translate(845.7,81.73)" d="M2.5,0A2.5,2.5 0 1,1 0,-2.5A2.5,2.5 0 0,1 2.5,0Z" style="opacity: 1; stroke-width: 0px; fill: rgb(197, 53, 52); fill-opacity: 1;"/><path class="point" transform="translate(864.07,83.39)" d="M2.5,0A2.5,2.5 0 1,1 0,-2.5A2.5,2.5 0 0,1 2.5,0Z" style="opacity: 1; stroke-width: 0px; fill: rgb(197, 53, 52); fill-opacity: 1;"/><path class="point" transform="translate(908.36,80.42)" d="M2.5,0A2.5,2.5 0 1,1 0,-2.5A2.5,2.5 0 0,1 2.5,0Z" style="opacity: 1; stroke-width: 0px; fill: rgb(197, 53, 52); fill-opacity: 1;"/><path class="point" transform="translate(927.81,81.28)" d="M2.5,0A2.5,2.5 0 1,1 0,-2.5A2.5,2.5 0 0,1 2.5,0Z" style="opacity: 1; stroke-width: 0px; fill: rgb(197, 53, 52); fill-opacity: 1;"/><path class="point" transform="translate(934.73,79.09)" d="M2.5,0A2.5,2.5 0 1,1 0,-2.5A2.5,2.5 0 0,1 2.5,0Z" style="opacity: 1; stroke-width: 0px; fill: rgb(197, 53, 52); fill-opacity: 1;"/><path class="point" transform="translate(947.91,80.64)" d="M2.5,0A2.5,2.5 0 1,1 0,-2.5A2.5,2.5 0 0,1 2.5,0Z" style="opacity: 1; stroke-width: 0px; fill: rgb(197, 53, 52); fill-opacity: 1;"/><path class="point" transform="translate(1060.26,82.07)" d="M2.5,0A2.5,2.5 0 1,1 0,-2.5A2.5,2.5 0 0,1 2.5,0Z" style="opacity: 1; stroke-width: 0px; fill: rgb(197, 53, 52); fill-opacity: 1;"/><path class="point" transform="translate(1147.12,82.77)" d="M2.5,0A2.5,2.5 0 1,1 0,-2.5A2.5,2.5 0 0,1 2.5,0Z" style="opacity: 1; stroke-width: 0px; fill: rgb(197, 53, 52); fill-opacity: 1;"/></g></g><g class="trace violins" style="opacity: 1;"><path class="violin" d="M486.53,54.6L486.53,54.28Q496.41,54.11 501.35,54C506.29,53.88 511.23,53.75 516.17,53.59C521.11,53.43 526.06,53.24 531,53.05C535.94,52.86 540.88,52.65 545.82,52.43C550.76,52.21 555.7,51.98 560.64,51.75C565.58,51.52 570.53,51.29 575.47,51.04C580.41,50.79 585.35,50.54 590.29,50.25C595.23,49.96 600.17,49.65 605.11,49.28C610.05,48.91 615,48.49 619.94,48.02C624.88,47.54 629.82,47.01 634.76,46.43C639.7,45.84 644.64,45.18 649.58,44.51C654.52,43.83 659.47,43.11 664.41,42.38C669.35,41.65 674.29,40.89 679.23,40.14C684.17,39.39 689.11,38.63 694.05,37.9C698.99,37.17 703.94,36.44 708.88,35.75C713.82,35.06 718.76,34.39 723.7,33.76C728.64,33.13 733.58,32.53 738.52,31.96C743.46,31.39 748.41,30.86 753.35,30.32C758.29,29.79 763.23,29.29 768.17,28.75C773.11,28.21 778.05,27.66 782.99,27.09C787.93,26.51 792.88,25.88 797.82,25.3C802.76,24.72 807.7,24.08 812.64,23.6C817.58,23.12 822.52,22.64 827.46,22.43C832.4,22.22 837.35,22.13 842.29,22.35C847.24,22.57 852.19,23.04 857.11,23.74C862.07,24.45 867.01,25.47 871.93,26.59C876.89,27.72 881.83,29.13 886.76,30.5C891.71,31.87 896.64,33.41 901.58,34.81C906.52,36.21 911.45,37.63 916.4,38.9C921.33,40.16 926.28,41.34 931.23,42.4C936.16,43.45 941.1,44.38 946.05,45.22C950.98,46.06 955.92,46.77 960.87,47.45C965.81,48.12 970.75,48.71 975.7,49.27C980.64,49.82 985.58,50.32 990.52,50.78C995.46,51.24 1000.4,51.64 1005.34,52.01C1010.28,52.37 1015.23,52.7 1020.17,52.97C1025.11,53.24 1030.05,53.46 1034.99,53.65C1039.93,53.84 1044.87,53.98 1049.81,54.09C1054.75,54.2 1059.7,54.27 1064.64,54.33C1069.58,54.39 1074.52,54.42 1079.46,54.43C1084.4,54.44 1089.34,54.43 1094.28,54.4C1099.22,54.37 1104.17,54.32 1109.11,54.25C1114.05,54.18 1118.99,54.1 1123.93,53.99C1128.87,53.88 1133.81,53.75 1138.75,53.61C1143.69,53.47 1148.64,53.3 1153.58,53.15C1158.52,53 1163.46,52.83 1168.4,52.7C1173.34,52.57 1178.29,52.43 1183.23,52.36C1188.17,52.29 1193.11,52.25 1198.05,52.25C1202.99,52.25 1207.93,52.3 1212.87,52.38C1217.81,52.46 1222.76,52.6 1227.7,52.73C1232.64,52.86 1237.58,53.03 1242.52,53.18C1247.46,53.33 1252.4,53.5 1257.34,53.64C1262.28,53.78 1267.23,53.91 1272.17,54.02Q1277.11,54.13 1286.99,54.29L1286.99,54.6" style="vector-effect: non-scaling-stroke; stroke-width: 2px; stroke: rgb(215, 48, 39); stroke-opacity: 1; fill: rgb(215, 48, 39); fill-opacity: 0.5;"/><g class="points"><path class="point" transform="translate(576.05,46.68)" d="M2.5,0A2.5,2.5 0 1,1 0,-2.5A2.5,2.5 0 0,1 2.5,0Z" style="opacity: 1; stroke-width: 0px; fill: rgb(215, 48, 39); fill-opacity: 1;"/><path class="point" transform="translate(642.38,50.07)" d="M2.5,0A2.5,2.5 0 1,1 0,-2.5A2.5,2.5 0 0,1 2.5,0Z" style="opacity: 1; stroke-width: 0px; fill: rgb(215, 48, 39); fill-opacity: 1;"/><path class="point" transform="translate(673.93,45.71)" d="M2.5,0A2.5,2.5 0 1,1 0,-2.5A2.5,2.5 0 0,1 2.5,0Z" style="opacity: 1; stroke-width: 0px; fill: rgb(215, 48, 39); fill-opacity: 1;"/><path class="point" transform="translate(684.95,50.97)" d="M2.5,0A2.5,2.5 0 1,1 0,-2.5A2.5,2.5 0 0,1 2.5,0Z" style="opacity: 1; stroke-width: 0px; fill: rgb(215, 48, 39); fill-opacity: 1;"/><path class="point" transform="translate(691,49.02)" d="M2.5,0A2.5,2.5 0 1,1 0,-2.5A2.5,2.5 0 0,1 2.5,0Z" style="opacity: 1; stroke-width: 0px; fill: rgb(215, 48, 39); fill-opacity: 1;"/><path class="point" transform="translate(722.54,46.31)" d="M2.5,0A2.5,2.5 0 1,1 0,-2.5A2.5,2.5 0 0,1 2.5,0Z" style="opacity: 1; stroke-width: 0px; fill: rgb(215, 48, 39); fill-opacity: 1;"/><path class="point" transform="translate(733.56,48.31)" d="M2.5,0A2.5,2.5 0 1,1 0,-2.5A2.5,2.5 0 0,1 2.5,0Z" style="opacity: 1; stroke-width: 0px; fill: rgb(215, 48, 39); fill-opacity: 1;"/><path class="point" transform="translate(742.64,46.85)" d="M2.5,0A2.5,2.5 0 1,1 0,-2.5A2.5,2.5 0 0,1 2.5,0Z" style="opacity: 1; stroke-width: 0px; fill: rgb(215, 48, 39); fill-opacity: 1;"/><path class="point" transform="translate(746.96,49.58)" d="M2.5,0A2.5,2.5 0 1,1 0,-2.5A2.5,2.5 0 0,1 2.5,0Z" style="opacity: 1; stroke-width: 0px; fill: rgb(215, 48, 39); fill-opacity: 1;"/><path class="point" transform="translate(749.12,51.52)" d="M2.5,0A2.5,2.5 0 1,1 0,-2.5A2.5,2.5 0 0,1 2.5,0Z" style="opacity: 1; stroke-width: 0px; fill: rgb(215, 48, 39); fill-opacity: 1;"/><path class="point" transform="translate(768.35,46.93)" d="M2.5,0A2.5,2.5 0 1,1 0,-2.5A2.5,2.5 0 0,1 2.5,0Z" style="opacity: 1; stroke-width: 0px; fill: rgb(215, 48, 39); fill-opacity: 1;"/><path class="point" transform="translate(780.23,49.73)" d="M2.5,0A2.5,2.5 0 1,1 0,-2.5A2.5,2.5 0 0,1 2.5,0Z" style="opacity: 1; stroke-width: 0px; fill: rgb(215, 48, 39); fill-opacity: 1;"/><path class="point" transform="translate(790.82,45.03)" d="M2.5,0A2.5,2.5 0 1,1 0,-2.5A2.5,2.5 0 0,1 2.5,0Z" style="opacity: 1; stroke-width: 0px; fill: rgb(215, 48, 39); fill-opacity: 1;"/><path class="point" transform="translate(802.49,52.97)" d="M2.5,0A2.5,2.5 0 1,1 0,-2.5A2.5,2.5 0 0,1 2.5,0Z" style="opacity: 1; stroke-width: 0px; fill: rgb(215, 48, 39); fill-opacity: 1;"/><path class="point" transform="translate(802.92,51.04)" d="M2.5,0A2.5,2.5 0 1,1 0,-2.5A2.5,2.5 0 0,1 2.5,0Z" style="opacity: 1; stroke-width: 0px; fill: rgb(215, 48, 39); fill-opacity: 1;"/><path class="point" transform="translate(835.55,43.37)" d="M2.5,0A2.5,2.5 0 1,1 0,-2.5A2.5,2.5 0 0,1 2.5,0Z" style="opacity: 1; stroke-width: 0px; fill: rgb(215, 48, 39); fill-opacity: 1;"/><path class="point" transform="translate(837.28,49.6)" d="M2.5,0A2.5,2.5 0 1,1 0,-2.5A2.5,2.5 0 0,1 2.5,0Z" style="opacity: 1; stroke-width: 0px; fill: rgb(215, 48, 39); fill-opacity: 1;"/><path class="point" transform="translate(840.3,53.36)" d="M2.5,0A2.5,2.5 0 1,1 0,-2.5A2.5,2.5 0 0,1 2.5,0Z" style="opacity: 1; stroke-width: 0px; fill: rgb(215, 48, 39); fill-opacity: 1;"/><path class="point" transform="translate(843.54,50.17)" d="M2.5,0A2.5,2.5 0 1,1 0,-2.5A2.5,2.5 0 0,1 2.5,0Z" style="opacity: 1; stroke-width: 0px; fill: rgb(215, 48, 39); fill-opacity: 1;"/><path class="point" transform="translate(844.19,48.28)" d="M2.5,0A2.5,2.5 0 1,1 0,-2.5A2.5,2.5 0 0,1 2.5,0Z" style="opacity: 1; stroke-width: 0px; fill: rgb(215, 48, 39); fill-opacity: 1;"/><path class="point" transform="translate(849.16,45.27)" d="M2.5,0A2.5,2.5 0 1,1 0,-2.5A2.5,2.5 0 0,1 2.5,0Z" style="opacity: 1; stroke-width: 0px; fill: rgb(215, 48, 39); fill-opacity: 1;"/><path class="point" transform="translate(851.75,47.44)" d="M2.5,0A2.5,2.5 0 1,1 0,-2.5A2.5,2.5 0 0,1 2.5,0Z" style="opacity: 1; stroke-width: 0px; fill: rgb(215, 48, 39); fill-opacity: 1;"/><path class="point" transform="translate(855.21,49.55)" d="M2.5,0A2.5,2.5 0 1,1 0,-2.5A2.5,2.5 0 0,1 2.5,0Z" style="opacity: 1; stroke-width: 0px; fill: rgb(215, 48, 39); fill-opacity: 1;"/><path class="point" transform="translate(865.8,51.84)" d="M2.5,0A2.5,2.5 0 1,1 0,-2.5A2.5,2.5 0 0,1 2.5,0Z" style="opacity: 1; stroke-width: 0px; fill: rgb(215, 48, 39); fill-opacity: 1;"/><path class="point" transform="translate(868.18,48.16)" d="M2.5,0A2.5,2.5 0 1,1 0,-2.5A2.5,2.5 0 0,1 2.5,0Z" style="opacity: 1; stroke-width: 0px; fill: rgb(215, 48, 39); fill-opacity: 1;"/><path class="point" transform="translate(893.24,48.88)" d="M2.5,0A2.5,2.5 0 1,1 0,-2.5A2.5,2.5 0 0,1 2.5,0Z" style="opacity: 1; stroke-width: 0px; fill: rgb(215, 48, 39); fill-opacity: 1;"/><path class="point" transform="translate(894.1,47.06)" d="M2.5,0A2.5,2.5 0 1,1 0,-2.5A2.5,2.5 0 0,1 2.5,0Z" style="opacity: 1; stroke-width: 0px; fill: rgb(215, 48, 39); fill-opacity: 1;"/><path class="point" transform="translate(937.32,48.35)" d="M2.5,0A2.5,2.5 0 1,1 0,-2.5A2.5,2.5 0 0,1 2.5,0Z" style="opacity: 1; stroke-width: 0px; fill: rgb(215, 48, 39); fill-opacity: 1;"/><path class="point" transform="translate(964.98,49.51)" d="M2.5,0A2.5,2.5 0 1,1 0,-2.5A2.5,2.5 0 0,1 2.5,0Z" style="opacity: 1; stroke-width: 0px; fill: rgb(215, 48, 39); fill-opacity: 1;"/><path class="point" transform="translate(1197.47,49.92)" d="M2.5,0A2.5,2.5 0 1,1 0,-2.5A2.5,2.5 0 0,1 2.5,0Z" style="opacity: 1; stroke-width: 0px; fill: rgb(215, 48, 39); fill-opacity: 1;"/></g></g></g></g><g class="overplot"/><path class="xlines-above crisp" d="M0,0" style="fill: none;"/><path class="ylines-above crisp" d="M0,0" style="fill: none;"/><g class="overlines-above"/><g class="xaxislayer-above"><g class="xtick"><text text-anchor="middle" x="0" y="460" transform="translate(153.21,0)" style="font-family: 'Open Sans', verdana, arial, sans-serif; font-size: 12px; fill: rgb(42, 63, 95); fill-opacity: 1; white-space: pre;">15</text></g><g class="xtick"><text text-anchor="middle" x="0" y="460" transform="translate(369.29,0)" style="font-family: 'Open Sans', verdana, arial, sans-serif; font-size: 12px; fill: rgb(42, 63, 95); fill-opacity: 1; white-space: pre;">10</text></g><g class="xtick"><text text-anchor="middle" x="0" y="460" transform="translate(585.36,0)" style="font-family: 'Open Sans', verdana, arial, sans-serif; font-size: 12px; fill: rgb(42, 63, 95); fill-opacity: 1; white-space: pre;">5</text></g><g class="xtick"><text text-anchor="middle" x="0" y="460" transform="translate(801.43,0)" style="font-family: 'Open Sans', verdana, arial, sans-serif; font-size: 12px; fill: rgb(42, 63, 95); fill-opacity: 1; white-space: pre;">0</text></g><g class="xtick"><text text-anchor="middle" x="0" y="460" transform="translate(1017.5,0)" style="font-family: 'Open Sans', verdana, arial, sans-serif; font-size: 12px; fill: rgb(42, 63, 95); fill-opacity: 1; white-space: pre;">5</text></g><g class="xtick"><text text-anchor="middle" x="0" y="460" transform="translate(1233.57,0)" style="font-family: 'Open Sans', verdana, arial, sans-serif; font-size: 12px; fill: rgb(42, 63, 95); fill-opacity: 1; white-space: pre;">10</text></g></g><g class="yaxislayer-above"><g class="ytick"><text text-anchor="end" x="109" y="4.199999999999999" transform="translate(0,427.15)" style="font-family: 'Open Sans', verdana, arial, sans-serif; font-size: 12px; fill: rgb(42, 63, 95); fill-opacity: 1; white-space: pre;">Sample 4-2_B2</text></g><g class="ytick"><text text-anchor="end" x="109" y="4.199999999999999" transform="translate(0,394.9)" style="font-family: 'Open Sans', verdana, arial, sans-serif; font-size: 12px; fill: rgb(42, 63, 95); fill-opacity: 1; white-space: pre;">Sample 11-1_A3</text></g><g class="ytick"><text text-anchor="end" x="109" y="4.199999999999999" transform="translate(0,362.64)" style="font-family: 'Open Sans', verdana, arial, sans-serif; font-size: 12px; fill: rgb(42, 63, 95); fill-opacity: 1; white-space: pre;">Sample 7-2_F2</text></g><g class="ytick"><text text-anchor="end" x="109" y="4.199999999999999" transform="translate(0,330.39)" style="font-family: 'Open Sans', verdana, arial, sans-serif; font-size: 12px; fill: rgb(42, 63, 95); fill-opacity: 1; white-space: pre;">Sample 131-1_F4</text></g><g class="ytick"><text text-anchor="end" x="109" y="4.199999999999999" transform="translate(0,298.13)" style="font-family: 'Open Sans', verdana, arial, sans-serif; font-size: 12px; fill: rgb(42, 63, 95); fill-opacity: 1; white-space: pre;">Sample 69-1_F3</text></g><g class="ytick"><text text-anchor="end" x="109" y="4.199999999999999" transform="translate(0,265.88)" style="font-family: 'Open Sans', verdana, arial, sans-serif; font-size: 12px; fill: rgb(42, 63, 95); fill-opacity: 1; white-space: pre;">Sample 80-1_H3</text></g><g class="ytick"><text text-anchor="end" x="109" y="4.199999999999999" transform="translate(0,233.62)" style="font-family: 'Open Sans', verdana, arial, sans-serif; font-size: 12px; fill: rgb(42, 63, 95); fill-opacity: 1; white-space: pre;">Sample 79-2_G3</text></g><g class="ytick"><text text-anchor="end" x="109" y="4.199999999999999" transform="translate(0,201.37)" style="font-family: 'Open Sans', verdana, arial, sans-serif; font-size: 12px; fill: rgb(42, 63, 95); fill-opacity: 1; white-space: pre;">Sample 117-2_C4</text></g><g class="ytick"><text text-anchor="end" x="109" y="4.199999999999999" transform="translate(0,169.11)" style="font-family: 'Open Sans', verdana, arial, sans-serif; font-size: 12px; fill: rgb(42, 63, 95); fill-opacity: 1; white-space: pre;">Sample 134-1_H4</text></g><g class="ytick"><text text-anchor="end" x="109" y="4.199999999999999" transform="translate(0,136.86)" style="font-family: 'Open Sans', verdana, arial, sans-serif; font-size: 12px; fill: rgb(42, 63, 95); fill-opacity: 1; white-space: pre;">Sample 134-2_A5</text></g><g class="ytick"><text text-anchor="end" x="109" y="4.199999999999999" transform="translate(0,104.6)" style="font-family: 'Open Sans', verdana, arial, sans-serif; font-size: 12px; fill: rgb(42, 63, 95); fill-opacity: 1; white-space: pre;">Sample 7-1_E2</text></g></g><g class="overaxes-above"/></g></g><g class="polarlayer"/><g class="ternarylayer"/><g class="geolayer"/><g class="funnelarealayer"/><g class="pielayer"/><g class="treemaplayer"/><g class="sunburstlayer"/><g class="glimages"/><defs id="topdefs-45b40a"><g class="clips"/></defs><g class="layer-above"><g class="imagelayer"/><g class="shapelayer"/></g><g class="infolayer"><g class="g-gtitle"/><g class="g-xtitle"><text class="xtitle" x="715" y="487.8" text-anchor="middle" style="font-family: 'Open Sans', verdana, arial, sans-serif; font-size: 14px; fill: rgb(42, 63, 95); opacity: 1; font-weight: normal; white-space: pre;">CpG median log likelihood ratio</text></g><g class="g-ytitle"/><g class="annotation" data-index="0" style="opacity: 1;"><g class="annotation-text-g" transform="rotate(0,801.43,35.17999999999998)"><g class="cursor-pointer" transform="translate(769, 26)"><rect class="bg" x="0.5" y="0.5" width="63" height="17" style="stroke-width: 1px; stroke: rgb(0, 0, 0); stroke-opacity: 0; fill: rgb(0, 0, 0); fill-opacity: 0;"/><text class="annotation-text" text-anchor="middle" x="32.03125" y="13" style="font-family: 'Open Sans', verdana, arial, sans-serif; font-size: 12px; fill: rgb(100, 100, 100); fill-opacity: 1; white-space: pre;">Ambiguous</text></g></g></g><g class="annotation" data-index="1" style="opacity: 1;"><g class="annotation-text-g" transform="rotate(0,434.11,35.17999999999998)"><g class="cursor-pointer" transform="translate(395, 26)"><rect class="bg" x="0.5" y="0.5" width="77" height="17" style="stroke-width: 1px; stroke: rgb(0, 0, 0); stroke-opacity: 0; fill: rgb(0, 0, 0); fill-opacity: 0;"/><text class="annotation-text" text-anchor="middle" x="39.03125" y="13" style="font-family: 'Open Sans', verdana, arial, sans-serif; font-size: 12px; fill: rgb(33, 102, 172); fill-opacity: 1; white-space: pre;">Unmethylated</text></g></g></g><g class="annotation" data-index="2" style="opacity: 1;"><g class="annotation-text-g" transform="rotate(0,1082.3200000000002,35.17999999999998)"><g class="cursor-pointer" transform="translate(1051, 26)"><rect class="bg" x="0.5" y="0.5" width="62" height="17" style="stroke-width: 1px; stroke: rgb(0, 0, 0); stroke-opacity: 0; fill: rgb(0, 0, 0); fill-opacity: 0;"/><text class="annotation-text" text-anchor="middle" x="31.359375" y="13" style="font-family: 'Open Sans', verdana, arial, sans-serif; font-size: 12px; fill: rgb(215, 48, 39); fill-opacity: 1; white-space: pre;">Methylated</text></g></g></g></g></svg>