<svg class="main-svg" xmlns="http://www.w3.org/2000/svg" xmlns:xlink="http://www.w3.org/1999/xlink" width="1400" height="500" style="" viewBox="0 0 1400 500"><rect x="0" y="0" width="1400" height="500" style="fill: rgb(255, 255, 255); fill-opacity: 1;"/><defs id="defs-c86532"><g class="clips"><clipPath id="clipc86532xyplot" class="plotclip"><rect width="1210" height="397"/></clipPath><clipPath class="axesclip" id="clipc86532x"><rect x="110" y="0" width="1210" height="500"/></clipPath><clipPath class="axesclip" id="clipc86532y"><rect x="0" y="50" width="1400" height="397"/></clipPath><clipPath class="axesclip" id="clipc86532xy"><rect x="110" y="50" width="1210" height="397"/></clipPath></g><g class="gradients"/></defs><g class="bglayer"><rect class="bg" x="110" y="50" width="1210" height="397" style="fill: rgb(0, 0, 0); fill-opacity: 0; stroke-width: 0;"/></g><g class="layer-below"><g class="imagelayer"/><g class="shapelayer"><path data-index="0" fill-rule="evenodd" d="M752.04,447H801.43V50H752.04Z" clip-path="url('#clipc86532x')" style="opacity: 0.25; stroke: rgb(0, 0, 0); stroke-opacity: 0; fill: rgb(100, 100, 100); fill-opacity: 1; stroke-width: 0px;"/></g></g><g class="cartesianlayer"><g class="subplot xy"><g class="layer-subplot"><g class="shapelayer"/><g class="imagelayer"/></g><g class="gridlayer"><g class="x"/><g class="y"><path class="ygrid crisp" transform="translate(0,427.15)" d="M110,0h1210" style="stroke: rgb(211, 211, 211); stroke-opacity: 1; stroke-width: 1px;"/><path class="ygrid crisp" transform="translate(0,397.58)" d="M110,0h1210" style="stroke: rgb(211, 211, 211); stroke-opacity: 1; stroke-width: 1px;"/><path class="ygrid crisp" transform="translate(0,368.02)" d="M110,0h1210" style="stroke: rgb(211, 211, 211); stroke-opacity: 1; stroke-width: 1px;"/><path class="ygrid crisp" transform="translate(0,338.45)" d="M110,0h1210" style="stroke: rgb(211, 211, 211); stroke-opacity: 1; stroke-width: 1px;"/><path class="ygrid crisp" transform="translate(0,308.88)" d="M110,0h1210" style="stroke: rgb(211, 211, 211); stroke-opacity: 1; stroke-width: 1px;"/><path class="ygrid crisp" transform="translate(0,279.32)" d="M110,0h1210" style="stroke: rgb(211, 211, 211); stroke-opacity: 1; stroke-width: 1px;"/><path class="ygrid crisp" transform="translate(0,249.75)" d="M110,0h1210" style="stroke: rgb(211, 211, 211); stroke-opacity: 1; stroke-width: 1px;"/><path class="ygrid crisp" transform="translate(0,220.18)" d="M110,0h1210" style="stroke: rgb(211, 211, 211); stroke-opacity: 1; stroke-width: 1px;"/><path class="ygrid crisp" transform="translate(0,190.62)" d="M110,0h1210" style="stroke: rgb(211, 211, 211); stroke-opacity: 1; stroke-width: 1px;"/><path class="ygrid crisp" transform="translate(0,161.05)" d="M110,0h1210" style="stroke: rgb(211, 211, 211); stroke-opacity: 1; stroke-width: 1px;"/><path class="ygrid crisp" transform="translate(0,131.48000000000002)" d="M110,0h1210" style="stroke: rgb(211, 211, 211); stroke-opacity: 1; stroke-width: 1px;"/><path class="ygrid crisp" transform="translate(0,101.92)" d="M110,0h1210" style="stroke: rgb(211, 211, 211); stroke-opacity: 1; stroke-width: 1px;"/></g></g><g class="zerolinelayer"/><path class="xlines-below"/><path class="ylines-below"/><g class="overlines-below"/><g class="xaxislayer-below"/><g class="yaxislayer-below"/><g class="overaxes-below"/><g class="plot" transform="translate(110, 50)" clip-path="url('#clipc86532xyplot')"><g class="violinlayer mlayer"><g class="trace violins" style="opacity: 1;"><path class="violin" d="M-89.34,377.15L-89.34,376.89Q-78.44,376.76 -72.99,376.67C-67.54,376.58 -62.09,376.48 -56.64,376.37C-51.19,376.26 -45.74,376.12 -40.29,375.99C-34.84,375.87 -29.4,375.73 -23.95,375.62C-18.5,375.51 -13.05,375.41 -7.6,375.34C-2.15,375.28 3.3,375.23 8.75,375.23C14.2,375.23 19.65,375.26 25.1,375.32C30.55,375.38 36,375.49 41.45,375.59C46.9,375.7 52.35,375.83 57.8,375.95C63.25,376.07 68.7,376.21 74.15,376.32C79.6,376.43 85.05,376.54 90.5,376.62C95.95,376.7 101.4,376.76 106.85,376.8C112.3,376.84 117.75,376.86 123.2,376.86C128.65,376.86 134.1,376.83 139.55,376.78C145,376.73 150.45,376.65 155.9,376.55C161.35,376.45 166.8,376.32 172.25,376.18C177.7,376.03 183.15,375.86 188.6,375.68C194.05,375.5 199.49,375.29 204.94,375.1C210.39,374.91 215.84,374.71 221.29,374.53C226.74,374.36 232.19,374.18 237.64,374.05C243.09,373.92 248.54,373.81 253.99,373.74C259.44,373.67 264.89,373.63 270.34,373.62C275.79,373.61 281.24,373.64 286.69,373.66C292.14,373.68 297.59,373.73 303.04,373.76C308.49,373.79 313.94,373.83 319.39,373.82C324.84,373.81 330.29,373.79 335.74,373.72C341.19,373.65 346.64,373.55 352.09,373.4C357.54,373.25 362.99,373.05 368.44,372.83C373.89,372.6 379.34,372.34 384.79,372.05C390.24,371.76 395.69,371.42 401.14,371.07C406.59,370.72 412.04,370.34 417.49,369.93C422.94,369.51 428.38,369.08 433.83,368.58C439.28,368.08 444.73,367.55 450.18,366.93C455.63,366.3 461.09,365.62 466.53,364.83C471.99,364.04 477.44,363.15 482.88,362.19C488.34,361.22 493.78,360.14 499.23,359.04C504.68,357.94 510.13,356.72 515.58,355.59C521.03,354.46 526.47,353.27 531.93,352.26C537.37,351.25 542.82,350.26 548.28,349.52C553.72,348.79 559.17,348.17 564.63,347.85C570.07,347.53 575.53,347.41 580.98,347.58C586.43,347.75 591.9,348.21 597.33,348.89C602.8,349.58 608.25,350.57 613.68,351.69C619.15,352.82 624.59,354.23 630.03,355.65C635.49,357.07 640.93,358.69 646.38,360.21C651.83,361.73 657.26,363.35 662.72,364.78C668.16,366.21 673.6,367.6 679.07,368.8C684.51,369.99 689.96,371.06 695.42,371.96C700.86,372.86 706.31,373.59 711.77,374.2C717.21,374.81 722.67,375.24 728.12,375.61Q733.57,375.98 744.47,376.42L744.47,377.15" style="vector-effect: non-scaling-stroke; stroke-width: 2px; stroke: rgb(33, 102, 172); stroke-opacity: 1; fill: rgb(33, 102, 172); fill-opacity: 0.5;"/><g class="points"><path class="point" transform="translate(9.63,370.46)" d="M2.5,0A2.5,2.5 0 1,1 0,-2.5A2.5,2.5 0 0,1 2.5,0Z" style="opacity: 1; stroke-width: 0px; fill: rgb(33, 102, 172); fill-opacity: 1;"/><path class="point" transform="translate(236.07,372.27)" d="M2.5,0A2.5,2.5 0 1,1 0,-2.5A2.5,2.5 0 0,1 2.5,0Z" style="opacity: 1; stroke-width: 0px; fill: rgb(33, 102, 172); fill-opacity: 1;"/><path class="point" transform="translate(288.42,369.95)" d="M2.5,0A2.5,2.5 0 1,1 0,-2.5A2.5,2.5 0 0,1 2.5,0Z" style="opacity: 1; stroke-width: 0px; fill: rgb(33, 102, 172); fill-opacity: 1;"/><path class="point" transform="translate(375.35,372.72)" d="M2.5,0A2.5,2.5 0 1,1 0,-2.5A2.5,2.5 0 0,1 2.5,0Z" style="opacity: 1; stroke-width: 0px; fill: rgb(33, 102, 172); fill-opacity: 1;"/><path class="point" transform="translate(426.22,371.69)" d="M2.5,0A2.5,2.5 0 1,1 0,-2.5A2.5,2.5 0 0,1 2.5,0Z" style="opacity: 1; stroke-width: 0px; fill: rgb(33, 102, 172); fill-opacity: 1;"/><path class="point" transform="translate(454.12,370.21)" d="M2.5,0A2.5,2.5 0 1,1 0,-2.5A2.5,2.5 0 0,1 2.5,0Z" style="opacity: 1; stroke-width: 0px; fill: rgb(33, 102, 172); fill-opacity: 1;"/><path class="point" transform="translate(458.81,371.33)" d="M2.5,0A2.5,2.5 0 1,1 0,-2.5A2.5,2.5 0 0,1 2.5,0Z" style="opacity: 1; stroke-width: 0px; fill: rgb(33, 102, 172); fill-opacity: 1;"/><path class="point" transform="translate(514.13,370.42)" d="M2.5,0A2.5,2.5 0 1,1 0,-2.5A2.5,2.5 0 0,1 2.5,0Z" style="opacity: 1; stroke-width: 0px; fill: rgb(33, 102, 172); fill-opacity: 1;"/><path class="point" transform="translate(524.5,372.29)" d="M2.5,0A2.5,2.5 0 1,1 0,-2.5A2.5,2.5 0 0,1 2.5,0Z" style="opacity: 1; stroke-width: 0px; fill: rgb(33, 102, 172); fill-opacity: 1;"/><path class="point" transform="translate(529.31,374.05)" d="M2.5,0A2.5,2.5 0 1,1 0,-2.5A2.5,2.5 0 0,1 2.5,0Z" style="opacity: 1; stroke-width: 0px; fill: rgb(33, 102, 172); fill-opacity: 1;"/><path class="point" transform="translate(530.18,370.13)" d="M2.5,0A2.5,2.5 0 1,1 0,-2.5A2.5,2.5 0 0,1 2.5,0Z" style="opacity: 1; stroke-width: 0px; fill: rgb(33, 102, 172); fill-opacity: 1;"/><path class="point" transform="translate(530.42,372.6)" d="M2.5,0A2.5,2.5 0 1,1 0,-2.5A2.5,2.5 0 0,1 2.5,0Z" style="opacity: 1; stroke-width: 0px; fill: rgb(33, 102, 172); fill-opacity: 1;"/><path class="point" transform="translate(541.04,367.9)" d="M2.5,0A2.5,2.5 0 1,1 0,-2.5A2.5,2.5 0 0,1 2.5,0Z" style="opacity: 1; stroke-width: 0px; fill: rgb(33, 102, 172); fill-opacity: 1;"/><path class="point" transform="translate(558.08,376.53)" d="M2.5,0A2.5,2.5 0 1,1 0,-2.5A2.5,2.5 0 0,1 2.5,0Z" style="opacity: 1; stroke-width: 0px; fill: rgb(33, 102, 172); fill-opacity: 1;"/><path class="point" transform="translate(561.29,374.47)" d="M2.5,0A2.5,2.5 0 1,1 0,-2.5A2.5,2.5 0 0,1 2.5,0Z" style="opacity: 1; stroke-width: 0px; fill: rgb(33, 102, 172); fill-opacity: 1;"/><path class="point" transform="translate(568.95,366.34)" d="M2.5,0A2.5,2.5 0 1,1 0,-2.5A2.5,2.5 0 0,1 2.5,0Z" style="opacity: 1; stroke-width: 0px; fill: rgb(33, 102, 172); fill-opacity: 1;"/><path class="point" transform="translate(574.01,372.5)" d="M2.5,0A2.5,2.5 0 1,1 0,-2.5A2.5,2.5 0 0,1 2.5,0Z" style="opacity: 1; stroke-width: 0px; fill: rgb(33, 102, 172); fill-opacity: 1;"/><path class="point" transform="translate(585.99,375.74)" d="M2.5,0A2.5,2.5 0 1,1 0,-2.5A2.5,2.5 0 0,1 2.5,0Z" style="opacity: 1; stroke-width: 0px; fill: rgb(33, 102, 172); fill-opacity: 1;"/><path class="point" transform="translate(591.79,373.19)" d="M2.5,0A2.5,2.5 0 1,1 0,-2.5A2.5,2.5 0 0,1 2.5,0Z" style="opacity: 1; stroke-width: 0px; fill: rgb(33, 102, 172); fill-opacity: 1;"/><path class="point" transform="translate(593.02,371.36)" d="M2.5,0A2.5,2.5 0 1,1 0,-2.5A2.5,2.5 0 0,1 2.5,0Z" style="opacity: 1; stroke-width: 0px; fill: rgb(33, 102, 172); fill-opacity: 1;"/><path class="point" transform="translate(595,368.65)" d="M2.5,0A2.5,2.5 0 1,1 0,-2.5A2.5,2.5 0 0,1 2.5,0Z" style="opacity: 1; stroke-width: 0px; fill: rgb(33, 102, 172); fill-opacity: 1;"/><path class="point" transform="translate(608.21,370.65)" d="M2.5,0A2.5,2.5 0 1,1 0,-2.5A2.5,2.5 0 0,1 2.5,0Z" style="opacity: 1; stroke-width: 0px; fill: rgb(33, 102, 172); fill-opacity: 1;"/><path class="point" transform="translate(613.15,372.78)" d="M2.5,0A2.5,2.5 0 1,1 0,-2.5A2.5,2.5 0 0,1 2.5,0Z" style="opacity: 1; stroke-width: 0px; fill: rgb(33, 102, 172); fill-opacity: 1;"/><path class="point" transform="translate(614.88,375.78)" d="M2.5,0A2.5,2.5 0 1,1 0,-2.5A2.5,2.5 0 0,1 2.5,0Z" style="opacity: 1; stroke-width: 0px; fill: rgb(33, 102, 172); fill-opacity: 1;"/><path class="point" transform="translate(624.76,371.25)" d="M2.5,0A2.5,2.5 0 1,1 0,-2.5A2.5,2.5 0 0,1 2.5,0Z" style="opacity: 1; stroke-width: 0px; fill: rgb(33, 102, 172); fill-opacity: 1;"/><path class="point" transform="translate(628.95,372.66)" d="M2.5,0A2.5,2.5 0 1,1 0,-2.5A2.5,2.5 0 0,1 2.5,0Z" style="opacity: 1; stroke-width: 0px; fill: rgb(33, 102, 172); fill-opacity: 1;"/><path class="point" transform="translate(645.5,368.83)" d="M2.5,0A2.5,2.5 0 1,1 0,-2.5A2.5,2.5 0 0,1 2.5,0Z" style="opacity: 1; stroke-width: 0px; fill: rgb(33, 102, 172); fill-opacity: 1;"/></g></g><g class="trace violins" style="opacity: 1;"><path class="violin" d="M66.27,347.58L66.27,347.34Q78.14,347.23 84.08,347.15C90.01,347.07 95.95,346.97 101.88,346.86C107.82,346.75 113.75,346.63 119.69,346.51C125.63,346.39 131.56,346.25 137.5,346.14C143.43,346.03 149.37,345.92 155.3,345.83C161.24,345.74 167.17,345.67 173.11,345.62C179.05,345.57 184.98,345.54 190.92,345.51C196.85,345.49 202.79,345.49 208.72,345.47C214.66,345.45 220.59,345.44 226.53,345.41C232.47,345.38 238.4,345.35 244.34,345.29C250.27,345.24 256.21,345.16 262.14,345.08C268.08,345 274.01,344.9 279.95,344.81C285.89,344.71 291.82,344.62 297.76,344.51C303.69,344.41 309.63,344.29 315.56,344.18C321.5,344.06 327.43,343.95 333.37,343.82C339.31,343.69 345.24,343.55 351.18,343.38C357.11,343.21 363.05,343.02 368.98,342.81C374.92,342.6 380.85,342.36 386.79,342.1C392.73,341.84 398.66,341.56 404.6,341.25C410.53,340.95 416.47,340.62 422.4,340.27C428.34,339.92 434.27,339.56 440.21,339.16C446.15,338.76 452.09,338.34 458.02,337.85C463.96,337.36 469.89,336.85 475.82,336.23C481.76,335.61 487.7,334.92 493.63,334.11C499.57,333.3 505.51,332.37 511.44,331.35C517.38,330.33 523.31,329.15 529.24,327.98C535.18,326.81 541.11,325.49 547.05,324.32C552.98,323.15 558.91,321.91 564.86,320.96C570.78,320.02 576.71,319.13 582.66,318.64C588.58,318.15 594.54,317.89 600.47,318.02C606.41,318.15 612.36,318.65 618.28,319.42C624.23,320.2 630.17,321.39 636.08,322.69C642.04,324 647.96,325.66 653.89,327.26C659.84,328.87 665.76,330.68 671.7,332.32C677.63,333.95 683.55,335.62 689.5,337.06C695.42,338.49 701.36,339.83 707.31,340.95C713.23,342.06 719.17,343 725.12,343.77C731.04,344.54 736.98,345.1 742.92,345.58Q748.85,346.06 760.73,346.63L760.73,347.58" style="vector-effect: non-scaling-stroke; stroke-width: 2px; stroke: rgb(50, 97, 160); stroke-opacity: 1; fill: rgb(50, 97, 160); fill-opacity: 0.5;"/><g class="points"><path class="point" transform="translate(174.09,340.79)" d="M2.5,0A2.5,2.5 0 1,1 0,-2.5A2.5,2.5 0 0,1 2.5,0Z" style="opacity: 1; stroke-width: 0px; fill: rgb(50, 97, 160); fill-opacity: 1;"/><path class="point" transform="translate(285.46,342.85)" d="M2.5,0A2.5,2.5 0 1,1 0,-2.5A2.5,2.5 0 0,1 2.5,0Z" style="opacity: 1; stroke-width: 0px; fill: rgb(50, 97, 160); fill-opacity: 1;"/><path class="point" transform="translate(354.97,340.15)" d="M2.5,0A2.5,2.5 0 1,1 0,-2.5A2.5,2.5 0 0,1 2.5,0Z" style="opacity: 1; stroke-width: 0px; fill: rgb(50, 97, 160); fill-opacity: 1;"/><path class="point" transform="translate(417.94,343.31)" d="M2.5,0A2.5,2.5 0 1,1 0,-2.5A2.5,2.5 0 0,1 2.5,0Z" style="opacity: 1; stroke-width: 0px; fill: rgb(50, 97, 160); fill-opacity: 1;"/><path class="point" transform="translate(432.51,342.17)" d="M2.5,0A2.5,2.5 0 1,1 0,-2.5A2.5,2.5 0 0,1 2.5,0Z" style="opacity: 1; stroke-width: 0px; fill: rgb(50, 97, 160); fill-opacity: 1;"/><path class="point" transform="translate(482.52,340.55)" d="M2.5,0A2.5,2.5 0 1,1 0,-2.5A2.5,2.5 0 0,1 2.5,0Z" style="opacity: 1; stroke-width: 0px; fill: rgb(50, 97, 160); fill-opacity: 1;"/><path class="point" transform="translate(485.48,341.76)" d="M2.5,0A2.5,2.5 0 1,1 0,-2.5A2.5,2.5 0 0,1 2.5,0Z" style="opacity: 1; stroke-width: 0px; fill: rgb(50, 97, 160); fill-opacity: 1;"/><path class="point" transform="translate(495.36,340.84)" d="M2.5,0A2.5,2.5 0 1,1 0,-2.5A2.5,2.5 0 0,1 2.5,0Z" style="opacity: 1; stroke-width: 0px; fill: rgb(50, 97, 160); fill-opacity: 1;"/><path class="point" transform="translate(551.17,342.73)" d="M2.5,0A2.5,2.5 0 1,1 0,-2.5A2.5,2.5 0 0,1 2.5,0Z" style="opacity: 1; stroke-width: 0px; fill: rgb(50, 97, 160); fill-opacity: 1;"/><path class="point" transform="translate(558.08,344.18)" d="M2.5,0A2.5,2.5 0 1,1 0,-2.5A2.5,2.5 0 0,1 2.5,0Z" style="opacity: 1; stroke-width: 0px; fill: rgb(50, 97, 160); fill-opacity: 1;"/><path class="point" transform="translate(559.56,340.56)" d="M2.5,0A2.5,2.5 0 1,1 0,-2.5A2.5,2.5 0 0,1 2.5,0Z" style="opacity: 1; stroke-width: 0px; fill: rgb(50, 97, 160); fill-opacity: 1;"/><path class="point" transform="translate(571.79,342.98)" d="M2.5,0A2.5,2.5 0 1,1 0,-2.5A2.5,2.5 0 0,1 2.5,0Z" style="opacity: 1; stroke-width: 0px; fill: rgb(50, 97, 160); fill-opacity: 1;"/><path class="point" transform="translate(572.9,339.1)" d="M2.5,0A2.5,2.5 0 1,1 0,-2.5A2.5,2.5 0 0,1 2.5,0Z" style="opacity: 1; stroke-width: 0px; fill: rgb(50, 97, 160); fill-opacity: 1;"/><path class="point" transform="translate(576.73,347.16)" d="M2.5,0A2.5,2.5 0 1,1 0,-2.5A2.5,2.5 0 0,1 2.5,0Z" style="opacity: 1; stroke-width: 0px; fill: rgb(50, 97, 160); fill-opacity: 1;"/><path class="point" transform="translate(582.65,344.82)" d="M2.5,0A2.5,2.5 0 1,1 0,-2.5A2.5,2.5 0 0,1 2.5,0Z" style="opacity: 1; stroke-width: 0px; fill: rgb(50, 97, 160); fill-opacity: 1;"/><path class="point" transform="translate(585.49,336.96)" d="M2.5,0A2.5,2.5 0 1,1 0,-2.5A2.5,2.5 0 0,1 2.5,0Z" style="opacity: 1; stroke-width: 0px; fill: rgb(50, 97, 160); fill-opacity: 1;"/><path class="point" transform="translate(597.22,343.13)" d="M2.5,0A2.5,2.5 0 1,1 0,-2.5A2.5,2.5 0 0,1 2.5,0Z" style="opacity: 1; stroke-width: 0px; fill: rgb(50, 97, 160); fill-opacity: 1;"/><path class="point" transform="translate(603.02,346.68)" d="M2.5,0A2.5,2.5 0 1,1 0,-2.5A2.5,2.5 0 0,1 2.5,0Z" style="opacity: 1; stroke-width: 0px; fill: rgb(50, 97, 160); fill-opacity: 1;"/><path class="point" transform="translate(606.61,343.5)" d="M2.5,0A2.5,2.5 0 1,1 0,-2.5A2.5,2.5 0 0,1 2.5,0Z" style="opacity: 1; stroke-width: 0px; fill: rgb(50, 97, 160); fill-opacity: 1;"/><path class="point" transform="translate(617.47,341.79)" d="M2.5,0A2.5,2.5 0 1,1 0,-2.5A2.5,2.5 0 0,1 2.5,0Z" style="opacity: 1; stroke-width: 0px; fill: rgb(50, 97, 160); fill-opacity: 1;"/><path class="point" transform="translate(621.79,339.01)" d="M2.5,0A2.5,2.5 0 1,1 0,-2.5A2.5,2.5 0 0,1 2.5,0Z" style="opacity: 1; stroke-width: 0px; fill: rgb(50, 97, 160); fill-opacity: 1;"/><path class="point" transform="translate(624.01,341.04)" d="M2.5,0A2.5,2.5 0 1,1 0,-2.5A2.5,2.5 0 0,1 2.5,0Z" style="opacity: 1; stroke-width: 0px; fill: rgb(50, 97, 160); fill-opacity: 1;"/><path class="point" transform="translate(624.76,343.26)" d="M2.5,0A2.5,2.5 0 1,1 0,-2.5A2.5,2.5 0 0,1 2.5,0Z" style="opacity: 1; stroke-width: 0px; fill: rgb(50, 97, 160); fill-opacity: 1;"/><path class="point" transform="translate(634.14,346.29)" d="M2.5,0A2.5,2.5 0 1,1 0,-2.5A2.5,2.5 0 0,1 2.5,0Z" style="opacity: 1; stroke-width: 0px; fill: rgb(50, 97, 160); fill-opacity: 1;"/><path class="point" transform="translate(635,341.69)" d="M2.5,0A2.5,2.5 0 1,1 0,-2.5A2.5,2.5 0 0,1 2.5,0Z" style="opacity: 1; stroke-width: 0px; fill: rgb(50, 97, 160); fill-opacity: 1;"/><path class="point" transform="translate(635.99,343.38)" d="M2.5,0A2.5,2.5 0 1,1 0,-2.5A2.5,2.5 0 0,1 2.5,0Z" style="opacity: 1; stroke-width: 0px; fill: rgb(50, 97, 160); fill-opacity: 1;"/><path class="point" transform="translate(652.91,339.1)" d="M2.5,0A2.5,2.5 0 1,1 0,-2.5A2.5,2.5 0 0,1 2.5,0Z" style="opacity: 1; stroke-width: 0px; fill: rgb(50, 97, 160); fill-opacity: 1;"/></g></g><g class="trace violins" style="opacity: 1;"><path class="violin" d="M176.61,318.02L176.61,317.6Q185.33,317.39 189.69,317.23C194.05,317.07 198.4,316.87 202.76,316.66C207.12,316.44 211.48,316.19 215.84,315.94C220.2,315.69 224.56,315.39 228.92,315.14C233.28,314.89 237.64,314.63 242,314.44C246.36,314.25 250.71,314.09 255.07,314.01C259.43,313.93 263.79,313.92 268.15,313.96C272.51,314 276.87,314.13 281.23,314.27C285.59,314.41 289.94,314.62 294.3,314.79C298.66,314.96 303.02,315.16 307.38,315.29C311.74,315.42 316.1,315.54 320.46,315.57C324.82,315.6 329.18,315.57 333.54,315.49C337.9,315.41 342.25,315.25 346.61,315.07C350.97,314.89 355.33,314.65 359.69,314.43C364.05,314.21 368.41,313.95 372.77,313.74C377.13,313.53 381.48,313.33 385.84,313.17C390.2,313.01 394.56,312.89 398.92,312.78C403.28,312.68 407.64,312.61 412,312.54C416.36,312.47 420.72,312.42 425.08,312.34C429.44,312.26 433.79,312.18 438.15,312.06C442.51,311.93 446.87,311.79 451.23,311.59C455.59,311.39 459.95,311.14 464.31,310.84C468.67,310.54 473.03,310.18 477.38,309.77C481.74,309.35 486.1,308.88 490.46,308.35C494.82,307.82 499.18,307.24 503.54,306.61C507.9,305.98 512.26,305.3 516.62,304.58C520.98,303.86 525.34,303.1 529.69,302.29C534.05,301.48 538.41,300.62 542.77,299.72C547.13,298.82 551.49,297.85 555.85,296.88C560.21,295.91 564.56,294.87 568.92,293.91C573.28,292.95 577.63,291.94 582,291.14C586.35,290.35 590.71,289.58 595.08,289.13C599.43,288.68 603.8,288.39 608.16,288.45C612.52,288.51 616.89,288.85 621.23,289.47C625.61,290.09 629.98,291.08 634.31,292.19C638.7,293.31 643.05,294.76 647.39,296.19C651.76,297.63 656.1,299.28 660.46,300.81C664.82,302.34 669.17,303.94 673.54,305.36C677.89,306.77 682.24,308.14 686.62,309.32C690.96,310.49 695.32,311.54 699.69,312.44C704.03,313.33 708.4,314.06 712.77,314.68C717.12,315.3 721.49,315.75 725.85,316.15C730.21,316.54 734.57,316.81 738.93,317.05Q743.29,317.28 752,317.56L752,318.02" style="vector-effect: non-scaling-stroke; stroke-width: 2px; stroke: rgb(66, 92, 148); stroke-opacity: 1; fill: rgb(66, 92, 148); fill-opacity: 0.5;"/><g class="points"><path class="point" transform="translate(255.83,311.11)" d="M2.5,0A2.5,2.5 0 1,1 0,-2.5A2.5,2.5 0 0,1 2.5,0Z" style="opacity: 1; stroke-width: 0px; fill: rgb(66, 92, 148); fill-opacity: 1;"/><path class="point" transform="translate(268.55,313.31)" d="M2.5,0A2.5,2.5 0 1,1 0,-2.5A2.5,2.5 0 0,1 2.5,0Z" style="opacity: 1; stroke-width: 0px; fill: rgb(66, 92, 148); fill-opacity: 1;"/><path class="point" transform="translate(378.56,310.51)" d="M2.5,0A2.5,2.5 0 1,1 0,-2.5A2.5,2.5 0 0,1 2.5,0Z" style="opacity: 1; stroke-width: 0px; fill: rgb(66, 92, 148); fill-opacity: 1;"/><path class="point" transform="translate(396.58,313.94)" d="M2.5,0A2.5,2.5 0 1,1 0,-2.5A2.5,2.5 0 0,1 2.5,0Z" style="opacity: 1; stroke-width: 0px; fill: rgb(66, 92, 148); fill-opacity: 1;"/><path class="point" transform="translate(446.71,312.66)" d="M2.5,0A2.5,2.5 0 1,1 0,-2.5A2.5,2.5 0 0,1 2.5,0Z" style="opacity: 1; stroke-width: 0px; fill: rgb(66, 92, 148); fill-opacity: 1;"/><path class="point" transform="translate(474.25,310.92)" d="M2.5,0A2.5,2.5 0 1,1 0,-2.5A2.5,2.5 0 0,1 2.5,0Z" style="opacity: 1; stroke-width: 0px; fill: rgb(66, 92, 148); fill-opacity: 1;"/><path class="point" transform="translate(520.05,312.19)" d="M2.5,0A2.5,2.5 0 1,1 0,-2.5A2.5,2.5 0 0,1 2.5,0Z" style="opacity: 1; stroke-width: 0px; fill: rgb(66, 92, 148); fill-opacity: 1;"/><path class="point" transform="translate(520.55,311.29)" d="M2.5,0A2.5,2.5 0 1,1 0,-2.5A2.5,2.5 0 0,1 2.5,0Z" style="opacity: 1; stroke-width: 0px; fill: rgb(66, 92, 148); fill-opacity: 1;"/><path class="point" transform="translate(526.23,313.04)" d="M2.5,0A2.5,2.5 0 1,1 0,-2.5A2.5,2.5 0 0,1 2.5,0Z" style="opacity: 1; stroke-width: 0px; fill: rgb(66, 92, 148); fill-opacity: 1;"/><path class="point" transform="translate(540.55,314.48)" d="M2.5,0A2.5,2.5 0 1,1 0,-2.5A2.5,2.5 0 0,1 2.5,0Z" style="opacity: 1; stroke-width: 0px; fill: rgb(66, 92, 148); fill-opacity: 1;"/><path class="point" transform="translate(566.23,311.16)" d="M2.5,0A2.5,2.5 0 1,1 0,-2.5A2.5,2.5 0 0,1 2.5,0Z" style="opacity: 1; stroke-width: 0px; fill: rgb(66, 92, 148); fill-opacity: 1;"/><path class="point" transform="translate(566.72,313.49)" d="M2.5,0A2.5,2.5 0 1,1 0,-2.5A2.5,2.5 0 0,1 2.5,0Z" style="opacity: 1; stroke-width: 0px; fill: rgb(66, 92, 148); fill-opacity: 1;"/><path class="point" transform="translate(581.54,309.44)" d="M2.5,0A2.5,2.5 0 1,1 0,-2.5A2.5,2.5 0 0,1 2.5,0Z" style="opacity: 1; stroke-width: 0px; fill: rgb(66, 92, 148); fill-opacity: 1;"/><path class="point" transform="translate(582.41,316.2)" d="M2.5,0A2.5,2.5 0 1,1 0,-2.5A2.5,2.5 0 0,1 2.5,0Z" style="opacity: 1; stroke-width: 0px; fill: rgb(66, 92, 148); fill-opacity: 1;"/><path class="point" transform="translate(597.72,314.76)" d="M2.5,0A2.5,2.5 0 1,1 0,-2.5A2.5,2.5 0 0,1 2.5,0Z" style="opacity: 1; stroke-width: 0px; fill: rgb(66, 92, 148); fill-opacity: 1;"/><path class="point" transform="translate(602.16,307.22)" d="M2.5,0A2.5,2.5 0 1,1 0,-2.5A2.5,2.5 0 0,1 2.5,0Z" style="opacity: 1; stroke-width: 0px; fill: rgb(66, 92, 148); fill-opacity: 1;"/><path class="point" transform="translate(609.94,313.49)" d="M2.5,0A2.5,2.5 0 1,1 0,-2.5A2.5,2.5 0 0,1 2.5,0Z" style="opacity: 1; stroke-width: 0px; fill: rgb(66, 92, 148); fill-opacity: 1;"/><path class="point" transform="translate(610.68,317.14)" d="M2.5,0A2.5,2.5 0 1,1 0,-2.5A2.5,2.5 0 0,1 2.5,0Z" style="opacity: 1; stroke-width: 0px; fill: rgb(66, 92, 148); fill-opacity: 1;"/><path class="point" transform="translate(615.87,314.06)" d="M2.5,0A2.5,2.5 0 1,1 0,-2.5A2.5,2.5 0 0,1 2.5,0Z" style="opacity: 1; stroke-width: 0px; fill: rgb(66, 92, 148); fill-opacity: 1;"/><path class="point" transform="translate(615.87,312.23)" d="M2.5,0A2.5,2.5 0 1,1 0,-2.5A2.5,2.5 0 0,1 2.5,0Z" style="opacity: 1; stroke-width: 0px; fill: rgb(66, 92, 148); fill-opacity: 1;"/><path class="point" transform="translate(618.33,309.49)" d="M2.5,0A2.5,2.5 0 1,1 0,-2.5A2.5,2.5 0 0,1 2.5,0Z" style="opacity: 1; stroke-width: 0px; fill: rgb(66, 92, 148); fill-opacity: 1;"/><path class="point" transform="translate(618.83,311.54)" d="M2.5,0A2.5,2.5 0 1,1 0,-2.5A2.5,2.5 0 0,1 2.5,0Z" style="opacity: 1; stroke-width: 0px; fill: rgb(66, 92, 148); fill-opacity: 1;"/><path class="point" transform="translate(627.72,313.46)" d="M2.5,0A2.5,2.5 0 1,1 0,-2.5A2.5,2.5 0 0,1 2.5,0Z" style="opacity: 1; stroke-width: 0px; fill: rgb(66, 92, 148); fill-opacity: 1;"/><path class="point" transform="translate(627.84,316.05)" d="M2.5,0A2.5,2.5 0 1,1 0,-2.5A2.5,2.5 0 0,1 2.5,0Z" style="opacity: 1; stroke-width: 0px; fill: rgb(66, 92, 148); fill-opacity: 1;"/><path class="point" transform="translate(643.52,312.12)" d="M2.5,0A2.5,2.5 0 1,1 0,-2.5A2.5,2.5 0 0,1 2.5,0Z" style="opacity: 1; stroke-width: 0px; fill: rgb(66, 92, 148); fill-opacity: 1;"/><path class="point" transform="translate(649.2,313.33)" d="M2.5,0A2.5,2.5 0 1,1 0,-2.5A2.5,2.5 0 0,1 2.5,0Z" style="opacity: 1; stroke-width: 0px; fill: rgb(66, 92, 148); fill-opacity: 1;"/><path class="point" transform="translate(672.78,310.32)" d="M2.5,0A2.5,2.5 0 1,1 0,-2.5A2.5,2.5 0 0,1 2.5,0Z" style="opacity: 1; stroke-width: 0px; fill: rgb(66, 92, 148); fill-opacity: 1;"/></g></g><g class="trace violins" style="opacity: 1;"><path class="violin" d="M202.13,288.45L202.13,288.06Q211.97,287.85 216.89,287.7C221.81,287.55 226.72,287.36 231.64,287.14C236.56,286.92 241.48,286.65 246.4,286.36C251.32,286.07 256.24,285.73 261.16,285.4C266.08,285.07 271,284.7 275.92,284.36C280.84,284.02 285.75,283.66 290.67,283.35C295.59,283.04 300.51,282.74 305.43,282.49C310.35,282.24 315.27,282.02 320.19,281.85C325.11,281.68 330.03,281.54 334.95,281.46C339.87,281.38 344.78,281.33 349.7,281.34C354.62,281.35 359.54,281.4 364.46,281.5C369.38,281.6 374.3,281.75 379.22,281.93C384.14,282.1 389.05,282.34 393.97,282.55C398.89,282.76 403.81,283.01 408.73,283.2C413.65,283.38 418.57,283.58 423.49,283.66C428.41,283.74 433.33,283.77 438.25,283.69C443.17,283.61 448.09,283.45 453,283.16C457.92,282.87 462.85,282.47 467.76,281.97C472.69,281.47 477.61,280.86 482.52,280.16C487.45,279.46 492.37,278.64 497.28,277.76C502.2,276.88 507.12,275.89 512.03,274.86C516.96,273.83 521.87,272.71 526.79,271.58C531.71,270.45 536.63,269.23 541.55,268.08C546.47,266.93 551.37,265.72 556.3,264.66C561.21,263.6 566.13,262.54 571.06,261.7C575.97,260.87 580.89,260.11 585.82,259.64C590.73,259.17 595.66,258.87 600.58,258.88C605.5,258.89 610.43,259.17 615.33,259.69C620.26,260.22 625.19,261.05 630.09,262.04C635.03,263.03 639.95,264.32 644.85,265.64C649.79,266.97 654.69,268.52 659.61,269.99C664.53,271.46 669.43,273.04 674.36,274.48C679.27,275.91 684.19,277.34 689.12,278.59C694.03,279.83 698.95,280.98 703.88,281.97C708.78,282.95 713.7,283.79 718.63,284.5C723.54,285.21 728.46,285.75 733.39,286.22C738.3,286.68 743.23,287.01 748.15,287.29Q753.07,287.57 762.91,287.89L762.91,288.45" style="vector-effect: non-scaling-stroke; stroke-width: 2px; stroke: rgb(83, 87, 136); stroke-opacity: 1; fill: rgb(83, 87, 136); fill-opacity: 0.5;"/><g class="points"><path class="point" transform="translate(292.13,281.42)" d="M2.5,0A2.5,2.5 0 1,1 0,-2.5A2.5,2.5 0 0,1 2.5,0Z" style="opacity: 1; stroke-width: 0px; fill: rgb(83, 87, 136); fill-opacity: 1;"/><path class="point" transform="translate(309.66,283.93)" d="M2.5,0A2.5,2.5 0 1,1 0,-2.5A2.5,2.5 0 0,1 2.5,0Z" style="opacity: 1; stroke-width: 0px; fill: rgb(83, 87, 136); fill-opacity: 1;"/><path class="point" transform="translate(347.44,280.8)" d="M2.5,0A2.5,2.5 0 1,1 0,-2.5A2.5,2.5 0 0,1 2.5,0Z" style="opacity: 1; stroke-width: 0px; fill: rgb(83, 87, 136); fill-opacity: 1;"/><path class="point" transform="translate(379.3,284.55)" d="M2.5,0A2.5,2.5 0 1,1 0,-2.5A2.5,2.5 0 0,1 2.5,0Z" style="opacity: 1; stroke-width: 0px; fill: rgb(83, 87, 136); fill-opacity: 1;"/><path class="point" transform="translate(387.69,283.14)" d="M2.5,0A2.5,2.5 0 1,1 0,-2.5A2.5,2.5 0 0,1 2.5,0Z" style="opacity: 1; stroke-width: 0px; fill: rgb(83, 87, 136); fill-opacity: 1;"/><path class="point" transform="translate(477.83,281.19)" d="M2.5,0A2.5,2.5 0 1,1 0,-2.5A2.5,2.5 0 0,1 2.5,0Z" style="opacity: 1; stroke-width: 0px; fill: rgb(83, 87, 136); fill-opacity: 1;"/><path class="point" transform="translate(506.47,282.63)" d="M2.5,0A2.5,2.5 0 1,1 0,-2.5A2.5,2.5 0 0,1 2.5,0Z" style="opacity: 1; stroke-width: 0px; fill: rgb(83, 87, 136); fill-opacity: 1;"/><path class="point" transform="translate(532.65,281.75)" d="M2.5,0A2.5,2.5 0 1,1 0,-2.5A2.5,2.5 0 0,1 2.5,0Z" style="opacity: 1; stroke-width: 0px; fill: rgb(83, 87, 136); fill-opacity: 1;"/><path class="point" transform="translate(533.63,283.46)" d="M2.5,0A2.5,2.5 0 1,1 0,-2.5A2.5,2.5 0 0,1 2.5,0Z" style="opacity: 1; stroke-width: 0px; fill: rgb(83, 87, 136); fill-opacity: 1;"/><path class="point" transform="translate(552.9,284.7)" d="M2.5,0A2.5,2.5 0 1,1 0,-2.5A2.5,2.5 0 0,1 2.5,0Z" style="opacity: 1; stroke-width: 0px; fill: rgb(83, 87, 136); fill-opacity: 1;"/><path class="point" transform="translate(553.39,281.49)" d="M2.5,0A2.5,2.5 0 1,1 0,-2.5A2.5,2.5 0 0,1 2.5,0Z" style="opacity: 1; stroke-width: 0px; fill: rgb(83, 87, 136); fill-opacity: 1;"/><path class="point" transform="translate(574.13,283.95)" d="M2.5,0A2.5,2.5 0 1,1 0,-2.5A2.5,2.5 0 0,1 2.5,0Z" style="opacity: 1; stroke-width: 0px; fill: rgb(83, 87, 136); fill-opacity: 1;"/><path class="point" transform="translate(583.02,279.39)" d="M2.5,0A2.5,2.5 0 1,1 0,-2.5A2.5,2.5 0 0,1 2.5,0Z" style="opacity: 1; stroke-width: 0px; fill: rgb(83, 87, 136); fill-opacity: 1;"/><path class="point" transform="translate(583.27,287.23)" d="M2.5,0A2.5,2.5 0 1,1 0,-2.5A2.5,2.5 0 0,1 2.5,0Z" style="opacity: 1; stroke-width: 0px; fill: rgb(83, 87, 136); fill-opacity: 1;"/><path class="point" transform="translate(584.75,285.46)" d="M2.5,0A2.5,2.5 0 1,1 0,-2.5A2.5,2.5 0 0,1 2.5,0Z" style="opacity: 1; stroke-width: 0px; fill: rgb(83, 87, 136); fill-opacity: 1;"/><path class="point" transform="translate(588.95,278.2)" d="M2.5,0A2.5,2.5 0 1,1 0,-2.5A2.5,2.5 0 0,1 2.5,0Z" style="opacity: 1; stroke-width: 0px; fill: rgb(83, 87, 136); fill-opacity: 1;"/><path class="point" transform="translate(600.18,283.92)" d="M2.5,0A2.5,2.5 0 1,1 0,-2.5A2.5,2.5 0 0,1 2.5,0Z" style="opacity: 1; stroke-width: 0px; fill: rgb(83, 87, 136); fill-opacity: 1;"/><path class="point" transform="translate(602.53,287.61)" d="M2.5,0A2.5,2.5 0 1,1 0,-2.5A2.5,2.5 0 0,1 2.5,0Z" style="opacity: 1; stroke-width: 0px; fill: rgb(83, 87, 136); fill-opacity: 1;"/><path class="point" transform="translate(607.72,284.49)" d="M2.5,0A2.5,2.5 0 1,1 0,-2.5A2.5,2.5 0 0,1 2.5,0Z" style="opacity: 1; stroke-width: 0px; fill: rgb(83, 87, 136); fill-opacity: 1;"/><path class="point" transform="translate(620.31,282.66)" d="M2.5,0A2.5,2.5 0 1,1 0,-2.5A2.5,2.5 0 0,1 2.5,0Z" style="opacity: 1; stroke-width: 0px; fill: rgb(83, 87, 136); fill-opacity: 1;"/><path class="point" transform="translate(625,280.29)" d="M2.5,0A2.5,2.5 0 1,1 0,-2.5A2.5,2.5 0 0,1 2.5,0Z" style="opacity: 1; stroke-width: 0px; fill: rgb(83, 87, 136); fill-opacity: 1;"/><path class="point" transform="translate(630.43,282)" d="M2.5,0A2.5,2.5 0 1,1 0,-2.5A2.5,2.5 0 0,1 2.5,0Z" style="opacity: 1; stroke-width: 0px; fill: rgb(83, 87, 136); fill-opacity: 1;"/><path class="point" transform="translate(632.16,283.86)" d="M2.5,0A2.5,2.5 0 1,1 0,-2.5A2.5,2.5 0 0,1 2.5,0Z" style="opacity: 1; stroke-width: 0px; fill: rgb(83, 87, 136); fill-opacity: 1;"/><path class="point" transform="translate(632.41,286.38)" d="M2.5,0A2.5,2.5 0 1,1 0,-2.5A2.5,2.5 0 0,1 2.5,0Z" style="opacity: 1; stroke-width: 0px; fill: rgb(83, 87, 136); fill-opacity: 1;"/><path class="point" transform="translate(635.37,282.55)" d="M2.5,0A2.5,2.5 0 1,1 0,-2.5A2.5,2.5 0 0,1 2.5,0Z" style="opacity: 1; stroke-width: 0px; fill: rgb(83, 87, 136); fill-opacity: 1;"/><path class="point" transform="translate(657.6,283.89)" d="M2.5,0A2.5,2.5 0 1,1 0,-2.5A2.5,2.5 0 0,1 2.5,0Z" style="opacity: 1; stroke-width: 0px; fill: rgb(83, 87, 136); fill-opacity: 1;"/><path class="point" transform="translate(672.91,280.44)" d="M2.5,0A2.5,2.5 0 1,1 0,-2.5A2.5,2.5 0 0,1 2.5,0Z" style="opacity: 1; stroke-width: 0px; fill: rgb(83, 87, 136); fill-opacity: 1;"/></g></g><g class="trace violins" style="opacity: 1;"><path class="violin" d="M91.98,258.88L91.98,258.62Q102.75,258.48 108.14,258.39C113.53,258.3 118.91,258.19 124.3,258.07C129.69,257.95 135.08,257.82 140.47,257.68C145.86,257.54 151.24,257.38 156.63,257.25C162.02,257.12 167.4,256.99 172.79,256.88C178.18,256.77 183.56,256.68 188.95,256.6C194.34,256.52 199.73,256.46 205.12,256.41C210.51,256.36 215.89,256.33 221.28,256.28C226.67,256.23 232.05,256.18 237.44,256.12C242.83,256.05 248.22,255.98 253.61,255.89C259,255.81 264.38,255.7 269.77,255.61C275.16,255.52 280.54,255.43 285.93,255.37C291.32,255.31 296.71,255.25 302.1,255.24C307.49,255.23 312.87,255.25 318.26,255.3C323.65,255.35 329.03,255.44 334.42,255.52C339.81,255.6 345.2,255.72 350.59,255.79C355.98,255.86 361.36,255.95 366.75,255.95C372.14,255.95 377.52,255.91 382.91,255.77C388.3,255.63 393.69,255.42 399.08,255.11C404.47,254.79 409.86,254.38 415.24,253.88C420.63,253.38 426.02,252.78 431.4,252.13C436.79,251.48 442.18,250.73 447.57,249.99C452.96,249.25 458.34,248.45 463.73,247.68C469.12,246.91 474.5,246.14 479.89,245.39C485.28,244.65 490.66,243.92 496.05,243.21C501.44,242.5 506.83,241.82 512.22,241.12C517.61,240.42 523,239.73 528.38,238.99C533.77,238.25 539.15,237.47 544.54,236.66C549.93,235.85 555.32,234.97 560.71,234.15C566.1,233.33 571.48,232.43 576.87,231.72C582.25,231.01 587.63,230.3 593.03,229.9C598.41,229.5 603.81,229.23 609.2,229.32C614.59,229.41 619.99,229.77 625.36,230.42C630.76,231.08 636.16,232.1 641.52,233.26C646.93,234.43 652.31,235.95 657.69,237.45C663.09,238.96 668.46,240.7 673.85,242.29C679.23,243.88 684.61,245.55 690.01,247.01C695.38,248.47 700.77,249.86 706.18,251.05C711.55,252.23 716.94,253.27 722.34,254.13C727.71,254.99 733.11,255.65 738.5,256.22C743.88,256.78 749.28,257.18 754.67,257.52Q760.05,257.86 770.83,258.24L770.83,258.88" style="vector-effect: non-scaling-stroke; stroke-width: 2px; stroke: rgb(99, 82, 124); stroke-opacity: 1; fill: rgb(99, 82, 124); fill-opacity: 0.5;"/><g class="points"><path class="point" transform="translate(189.9,252.12)" d="M2.5,0A2.5,2.5 0 1,1 0,-2.5A2.5,2.5 0 0,1 2.5,0Z" style="opacity: 1; stroke-width: 0px; fill: rgb(99, 82, 124); fill-opacity: 1;"/><path class="point" transform="translate(284.47,254.08)" d="M2.5,0A2.5,2.5 0 1,1 0,-2.5A2.5,2.5 0 0,1 2.5,0Z" style="opacity: 1; stroke-width: 0px; fill: rgb(99, 82, 124); fill-opacity: 1;"/><path class="point" transform="translate(332.38,251.51)" d="M2.5,0A2.5,2.5 0 1,1 0,-2.5A2.5,2.5 0 0,1 2.5,0Z" style="opacity: 1; stroke-width: 0px; fill: rgb(99, 82, 124); fill-opacity: 1;"/><path class="point" transform="translate(448.69,254.62)" d="M2.5,0A2.5,2.5 0 1,1 0,-2.5A2.5,2.5 0 0,1 2.5,0Z" style="opacity: 1; stroke-width: 0px; fill: rgb(99, 82, 124); fill-opacity: 1;"/><path class="point" transform="translate(467.21,253.47)" d="M2.5,0A2.5,2.5 0 1,1 0,-2.5A2.5,2.5 0 0,1 2.5,0Z" style="opacity: 1; stroke-width: 0px; fill: rgb(99, 82, 124); fill-opacity: 1;"/><path class="point" transform="translate(487.21,251.86)" d="M2.5,0A2.5,2.5 0 1,1 0,-2.5A2.5,2.5 0 0,1 2.5,0Z" style="opacity: 1; stroke-width: 0px; fill: rgb(99, 82, 124); fill-opacity: 1;"/><path class="point" transform="translate(503.01,253.06)" d="M2.5,0A2.5,2.5 0 1,1 0,-2.5A2.5,2.5 0 0,1 2.5,0Z" style="opacity: 1; stroke-width: 0px; fill: rgb(99, 82, 124); fill-opacity: 1;"/><path class="point" transform="translate(504.25,252.24)" d="M2.5,0A2.5,2.5 0 1,1 0,-2.5A2.5,2.5 0 0,1 2.5,0Z" style="opacity: 1; stroke-width: 0px; fill: rgb(99, 82, 124); fill-opacity: 1;"/><path class="point" transform="translate(525.49,254.03)" d="M2.5,0A2.5,2.5 0 1,1 0,-2.5A2.5,2.5 0 0,1 2.5,0Z" style="opacity: 1; stroke-width: 0px; fill: rgb(99, 82, 124); fill-opacity: 1;"/><path class="point" transform="translate(533.39,255.57)" d="M2.5,0A2.5,2.5 0 1,1 0,-2.5A2.5,2.5 0 0,1 2.5,0Z" style="opacity: 1; stroke-width: 0px; fill: rgb(99, 82, 124); fill-opacity: 1;"/><path class="point" transform="translate(544.5,251.97)" d="M2.5,0A2.5,2.5 0 1,1 0,-2.5A2.5,2.5 0 0,1 2.5,0Z" style="opacity: 1; stroke-width: 0px; fill: rgb(99, 82, 124); fill-opacity: 1;"/><path class="point" transform="translate(562.77,254.25)" d="M2.5,0A2.5,2.5 0 1,1 0,-2.5A2.5,2.5 0 0,1 2.5,0Z" style="opacity: 1; stroke-width: 0px; fill: rgb(99, 82, 124); fill-opacity: 1;"/><path class="point" transform="translate(581.54,250.54)" d="M2.5,0A2.5,2.5 0 1,1 0,-2.5A2.5,2.5 0 0,1 2.5,0Z" style="opacity: 1; stroke-width: 0px; fill: rgb(99, 82, 124); fill-opacity: 1;"/><path class="point" transform="translate(592.28,257.13)" d="M2.5,0A2.5,2.5 0 1,1 0,-2.5A2.5,2.5 0 0,1 2.5,0Z" style="opacity: 1; stroke-width: 0px; fill: rgb(99, 82, 124); fill-opacity: 1;"/><path class="point" transform="translate(593.39,255.53)" d="M2.5,0A2.5,2.5 0 1,1 0,-2.5A2.5,2.5 0 0,1 2.5,0Z" style="opacity: 1; stroke-width: 0px; fill: rgb(99, 82, 124); fill-opacity: 1;"/><path class="point" transform="translate(600.56,249.08)" d="M2.5,0A2.5,2.5 0 1,1 0,-2.5A2.5,2.5 0 0,1 2.5,0Z" style="opacity: 1; stroke-width: 0px; fill: rgb(99, 82, 124); fill-opacity: 1;"/><path class="point" transform="translate(608.95,254.21)" d="M2.5,0A2.5,2.5 0 1,1 0,-2.5A2.5,2.5 0 0,1 2.5,0Z" style="opacity: 1; stroke-width: 0px; fill: rgb(99, 82, 124); fill-opacity: 1;"/><path class="point" transform="translate(612.9,257.67)" d="M2.5,0A2.5,2.5 0 1,1 0,-2.5A2.5,2.5 0 0,1 2.5,0Z" style="opacity: 1; stroke-width: 0px; fill: rgb(99, 82, 124); fill-opacity: 1;"/><path class="point" transform="translate(612.9,254.9)" d="M2.5,0A2.5,2.5 0 1,1 0,-2.5A2.5,2.5 0 0,1 2.5,0Z" style="opacity: 1; stroke-width: 0px; fill: rgb(99, 82, 124); fill-opacity: 1;"/><path class="point" transform="translate(614.63,253.1)" d="M2.5,0A2.5,2.5 0 1,1 0,-2.5A2.5,2.5 0 0,1 2.5,0Z" style="opacity: 1; stroke-width: 0px; fill: rgb(99, 82, 124); fill-opacity: 1;"/><path class="point" transform="translate(626.98,250.55)" d="M2.5,0A2.5,2.5 0 1,1 0,-2.5A2.5,2.5 0 0,1 2.5,0Z" style="opacity: 1; stroke-width: 0px; fill: rgb(99, 82, 124); fill-opacity: 1;"/><path class="point" transform="translate(627.47,252.42)" d="M2.5,0A2.5,2.5 0 1,1 0,-2.5A2.5,2.5 0 0,1 2.5,0Z" style="opacity: 1; stroke-width: 0px; fill: rgb(99, 82, 124); fill-opacity: 1;"/><path class="point" transform="translate(634.63,254.35)" d="M2.5,0A2.5,2.5 0 1,1 0,-2.5A2.5,2.5 0 0,1 2.5,0Z" style="opacity: 1; stroke-width: 0px; fill: rgb(99, 82, 124); fill-opacity: 1;"/><path class="point" transform="translate(638.95,256.82)" d="M2.5,0A2.5,2.5 0 1,1 0,-2.5A2.5,2.5 0 0,1 2.5,0Z" style="opacity: 1; stroke-width: 0px; fill: rgb(99, 82, 124); fill-opacity: 1;"/><path class="point" transform="translate(638.95,252.98)" d="M2.5,0A2.5,2.5 0 1,1 0,-2.5A2.5,2.5 0 0,1 2.5,0Z" style="opacity: 1; stroke-width: 0px; fill: rgb(99, 82, 124); fill-opacity: 1;"/><path class="point" transform="translate(655.62,254.3)" d="M2.5,0A2.5,2.5 0 1,1 0,-2.5A2.5,2.5 0 0,1 2.5,0Z" style="opacity: 1; stroke-width: 0px; fill: rgb(99, 82, 124); fill-opacity: 1;"/><path class="point" transform="translate(672.91,251.02)" d="M2.5,0A2.5,2.5 0 1,1 0,-2.5A2.5,2.5 0 0,1 2.5,0Z" style="opacity: 1; stroke-width: 0px; fill: rgb(99, 82, 124); fill-opacity: 1;"/></g></g><g class="trace violins" style="opacity: 1;"><path class="violin" d="M604.71,229.32L604.71,228.91Q610.14,228.69 612.85,228.52C615.56,228.35 618.28,228.14 620.99,227.89C623.71,227.63 626.43,227.33 629.14,226.99C631.86,226.64 634.57,226.25 637.28,225.82C640,225.39 642.71,224.91 645.42,224.41C648.14,223.9 650.85,223.37 653.56,222.79C656.28,222.21 658.99,221.6 661.7,220.91C664.42,220.22 667.14,219.49 669.84,218.64C672.57,217.78 675.29,216.84 677.99,215.79C680.72,214.72 683.43,213.51 686.13,212.27C688.86,211.02 691.55,209.61 694.27,208.31C696.98,207.01 699.67,205.61 702.41,204.45C705.1,203.31 707.81,202.19 710.55,201.41C713.23,200.64 715.96,200.05 718.69,199.77C721.39,199.5 724.13,199.53 726.84,199.75C729.56,199.97 732.28,200.5 734.98,201.1C737.71,201.7 740.42,202.53 743.12,203.36C745.84,204.19 748.55,205.15 751.26,206.09C753.98,207.04 756.69,208.04 759.4,209.04C762.12,210.04 764.83,211.08 767.54,212.09C770.26,213.11 772.97,214.15 775.69,215.13C778.4,216.1 781.1,217.08 783.83,217.93C786.53,218.77 789.24,219.57 791.97,220.21C794.67,220.85 797.39,221.38 800.11,221.77C802.81,222.15 805.53,222.38 808.25,222.52C810.96,222.66 813.68,222.64 816.39,222.6C819.11,222.56 821.82,222.39 824.54,222.27C827.25,222.15 829.97,221.96 832.68,221.86C835.39,221.76 838.11,221.67 840.82,221.68C843.53,221.69 846.25,221.77 848.96,221.94C851.68,222.11 854.39,222.37 857.1,222.69C859.82,223.01 862.53,223.42 865.24,223.84C867.96,224.26 870.67,224.75 873.39,225.19C876.1,225.63 878.81,226.09 881.53,226.48C884.24,226.87 886.95,227.24 889.67,227.55C892.38,227.86 895.09,228.11 897.81,228.32C900.52,228.53 903.24,228.68 905.95,228.81C908.66,228.94 911.38,229.01 914.09,229.08C916.81,229.15 919.52,229.19 922.24,229.22C924.95,229.25 927.67,229.27 930.38,229.28C933.09,229.29 935.81,229.29 938.52,229.29C941.23,229.29 943.95,229.3 946.66,229.29C949.37,229.28 952.09,229.27 954.8,229.25C957.51,229.23 960.23,229.2 962.94,229.16C965.66,229.12 968.37,229.06 971.09,228.99C973.8,228.92 976.52,228.84 979.23,228.73C981.94,228.62 984.66,228.49 987.37,228.35C990.08,228.21 992.8,228.06 995.51,227.91C998.22,227.77 1000.94,227.6 1003.65,227.48C1006.37,227.36 1009.08,227.24 1011.8,227.17C1014.51,227.1 1017.23,227.06 1019.94,227.06C1022.65,227.06 1025.37,227.12 1028.08,227.2C1030.79,227.28 1033.51,227.41 1036.22,227.54C1038.93,227.67 1041.65,227.83 1044.36,227.98C1047.07,228.12 1049.79,228.28 1052.5,228.41C1055.22,228.54 1057.93,228.67 1060.65,228.77C1063.36,228.87 1066.08,228.95 1068.79,229.01C1071.5,229.07 1074.22,229.12 1076.93,229.15C1079.64,229.18 1082.36,229.19 1085.07,229.19C1087.78,229.19 1090.5,229.17 1093.21,229.14C1095.92,229.11 1098.64,229.06 1101.35,228.99C1104.07,228.92 1106.78,228.84 1109.5,228.74C1112.21,228.64 1114.93,228.5 1117.64,228.37C1120.35,228.23 1123.07,228.08 1125.78,227.93C1128.49,227.79 1131.21,227.63 1133.92,227.5C1136.63,227.38 1139.35,227.25 1142.06,227.18C1144.77,227.11 1147.49,227.06 1150.2,227.06C1152.92,227.06 1155.63,227.11 1158.35,227.19C1161.06,227.27 1163.78,227.39 1166.49,227.52C1169.2,227.65 1171.92,227.81 1174.63,227.96C1177.34,228.1 1180.06,228.26 1182.77,228.39C1185.48,228.52 1188.2,228.66 1190.91,228.76Q1193.62,228.86 1199.05,229.01L1199.05,229.32" style="vector-effect: non-scaling-stroke; stroke-width: 2px; stroke: rgb(116, 77, 112); stroke-opacity: 1; fill: rgb(116, 77, 112); fill-opacity: 0.5;"/><g class="points"><path class="point" transform="translate(653.77,222.09)" d="M2.5,0A2.5,2.5 0 1,1 0,-2.5A2.5,2.5 0 0,1 2.5,0Z" style="opacity: 1; stroke-width: 0px; fill: rgb(116, 77, 112); fill-opacity: 1;"/><path class="point" transform="translate(668.22,225.14)" d="M2.5,0A2.5,2.5 0 1,1 0,-2.5A2.5,2.5 0 0,1 2.5,0Z" style="opacity: 1; stroke-width: 0px; fill: rgb(116, 77, 112); fill-opacity: 1;"/><path class="point" transform="translate(679.82,221.14)" d="M2.5,0A2.5,2.5 0 1,1 0,-2.5A2.5,2.5 0 0,1 2.5,0Z" style="opacity: 1; stroke-width: 0px; fill: rgb(116, 77, 112); fill-opacity: 1;"/><path class="point" transform="translate(706.49,226.03)" d="M2.5,0A2.5,2.5 0 1,1 0,-2.5A2.5,2.5 0 0,1 2.5,0Z" style="opacity: 1; stroke-width: 0px; fill: rgb(116, 77, 112); fill-opacity: 1;"/><path class="point" transform="translate(709.46,224.21)" d="M2.5,0A2.5,2.5 0 1,1 0,-2.5A2.5,2.5 0 0,1 2.5,0Z" style="opacity: 1; stroke-width: 0px; fill: rgb(116, 77, 112); fill-opacity: 1;"/><path class="point" transform="translate(711.06,221.66)" d="M2.5,0A2.5,2.5 0 1,1 0,-2.5A2.5,2.5 0 0,1 2.5,0Z" style="opacity: 1; stroke-width: 0px; fill: rgb(116, 77, 112); fill-opacity: 1;"/><path class="point" transform="translate(712.79,223.54)" d="M2.5,0A2.5,2.5 0 1,1 0,-2.5A2.5,2.5 0 0,1 2.5,0Z" style="opacity: 1; stroke-width: 0px; fill: rgb(116, 77, 112); fill-opacity: 1;"/><path class="point" transform="translate(713.9,222.26)" d="M2.5,0A2.5,2.5 0 1,1 0,-2.5A2.5,2.5 0 0,1 2.5,0Z" style="opacity: 1; stroke-width: 0px; fill: rgb(116, 77, 112); fill-opacity: 1;"/><path class="point" transform="translate(714.64,225.29)" d="M2.5,0A2.5,2.5 0 1,1 0,-2.5A2.5,2.5 0 0,1 2.5,0Z" style="opacity: 1; stroke-width: 0px; fill: rgb(116, 77, 112); fill-opacity: 1;"/><path class="point" transform="translate(715.63,226.87)" d="M2.5,0A2.5,2.5 0 1,1 0,-2.5A2.5,2.5 0 0,1 2.5,0Z" style="opacity: 1; stroke-width: 0px; fill: rgb(116, 77, 112); fill-opacity: 1;"/><path class="point" transform="translate(719.95,222.2)" d="M2.5,0A2.5,2.5 0 1,1 0,-2.5A2.5,2.5 0 0,1 2.5,0Z" style="opacity: 1; stroke-width: 0px; fill: rgb(116, 77, 112); fill-opacity: 1;"/><path class="point" transform="translate(721.43,224.77)" d="M2.5,0A2.5,2.5 0 1,1 0,-2.5A2.5,2.5 0 0,1 2.5,0Z" style="opacity: 1; stroke-width: 0px; fill: rgb(116, 77, 112); fill-opacity: 1;"/><path class="point" transform="translate(726.99,220.86)" d="M2.5,0A2.5,2.5 0 1,1 0,-2.5A2.5,2.5 0 0,1 2.5,0Z" style="opacity: 1; stroke-width: 0px; fill: rgb(116, 77, 112); fill-opacity: 1;"/><path class="point" transform="translate(727.48,227.11)" d="M2.5,0A2.5,2.5 0 1,1 0,-2.5A2.5,2.5 0 0,1 2.5,0Z" style="opacity: 1; stroke-width: 0px; fill: rgb(116, 77, 112); fill-opacity: 1;"/><path class="point" transform="translate(742.3,225.59)" d="M2.5,0A2.5,2.5 0 1,1 0,-2.5A2.5,2.5 0 0,1 2.5,0Z" style="opacity: 1; stroke-width: 0px; fill: rgb(116, 77, 112); fill-opacity: 1;"/><path class="point" transform="translate(746.99,220.19)" d="M2.5,0A2.5,2.5 0 1,1 0,-2.5A2.5,2.5 0 0,1 2.5,0Z" style="opacity: 1; stroke-width: 0px; fill: rgb(116, 77, 112); fill-opacity: 1;"/><path class="point" transform="translate(755.63,224.1)" d="M2.5,0A2.5,2.5 0 1,1 0,-2.5A2.5,2.5 0 0,1 2.5,0Z" style="opacity: 1; stroke-width: 0px; fill: rgb(116, 77, 112); fill-opacity: 1;"/><path class="point" transform="translate(759.34,225.61)" d="M2.5,0A2.5,2.5 0 1,1 0,-2.5A2.5,2.5 0 0,1 2.5,0Z" style="opacity: 1; stroke-width: 0px; fill: rgb(116, 77, 112); fill-opacity: 1;"/><path class="point" transform="translate(765.26,224.21)" d="M2.5,0A2.5,2.5 0 1,1 0,-2.5A2.5,2.5 0 0,1 2.5,0Z" style="opacity: 1; stroke-width: 0px; fill: rgb(116, 77, 112); fill-opacity: 1;"/><path class="point" transform="translate(766.99,223.46)" d="M2.5,0A2.5,2.5 0 1,1 0,-2.5A2.5,2.5 0 0,1 2.5,0Z" style="opacity: 1; stroke-width: 0px; fill: rgb(116, 77, 112); fill-opacity: 1;"/><path class="point" transform="translate(775.63,222.67)" d="M2.5,0A2.5,2.5 0 1,1 0,-2.5A2.5,2.5 0 0,1 2.5,0Z" style="opacity: 1; stroke-width: 0px; fill: rgb(116, 77, 112); fill-opacity: 1;"/><path class="point" transform="translate(815.27,223.25)" d="M2.5,0A2.5,2.5 0 1,1 0,-2.5A2.5,2.5 0 0,1 2.5,0Z" style="opacity: 1; stroke-width: 0px; fill: rgb(116, 77, 112); fill-opacity: 1;"/><path class="point" transform="translate(838.36,223.77)" d="M2.5,0A2.5,2.5 0 1,1 0,-2.5A2.5,2.5 0 0,1 2.5,0Z" style="opacity: 1; stroke-width: 0px; fill: rgb(116, 77, 112); fill-opacity: 1;"/><path class="point" transform="translate(849.47,224.44)" d="M2.5,0A2.5,2.5 0 1,1 0,-2.5A2.5,2.5 0 0,1 2.5,0Z" style="opacity: 1; stroke-width: 0px; fill: rgb(116, 77, 112); fill-opacity: 1;"/><path class="point" transform="translate(856.51,223.41)" d="M2.5,0A2.5,2.5 0 1,1 0,-2.5A2.5,2.5 0 0,1 2.5,0Z" style="opacity: 1; stroke-width: 0px; fill: rgb(116, 77, 112); fill-opacity: 1;"/><path class="point" transform="translate(1019.36,223.72)" d="M2.5,0A2.5,2.5 0 1,1 0,-2.5A2.5,2.5 0 0,1 2.5,0Z" style="opacity: 1; stroke-width: 0px; fill: rgb(116, 77, 112); fill-opacity: 1;"/><path class="point" transform="translate(1149.99,222.92)" d="M2.5,0A2.5,2.5 0 1,1 0,-2.5A2.5,2.5 0 0,1 2.5,0Z" style="opacity: 1; stroke-width: 0px; fill: rgb(116, 77, 112); fill-opacity: 1;"/></g></g><g class="trace violins" style="opacity: 1;"><path class="violin" d="M590.17,199.75L590.17,199.37Q596.63,199.16 599.86,198.98C603.09,198.8 606.33,198.6 609.56,198.31C612.8,198.02 616.03,197.68 619.26,197.24C622.5,196.8 625.73,196.28 628.95,195.65C632.19,195.01 635.43,194.28 638.65,193.42C641.9,192.55 645.14,191.56 648.35,190.47C651.6,189.36 654.82,188.11 658.04,186.81C661.29,185.5 664.51,184.05 667.74,182.64C670.98,181.23 674.19,179.71 677.44,178.34C680.66,176.99 683.87,175.6 687.13,174.48C690.34,173.37 693.57,172.35 696.83,171.63C700.04,170.92 703.29,170.41 706.53,170.18C709.75,169.95 713,170.01 716.22,170.23C719.46,170.45 722.7,170.97 725.92,171.53C729.16,172.1 732.39,172.87 735.62,173.62C738.86,174.37 742.08,175.24 745.31,176.05C748.54,176.86 751.77,177.7 755.01,178.5C758.24,179.3 761.48,180.08 764.71,180.85C767.94,181.62 771.17,182.37 774.4,183.12C777.63,183.87 780.87,184.62 784.1,185.37C787.33,186.12 790.57,186.89 793.8,187.63C797.03,188.37 800.26,189.11 803.49,189.81C806.72,190.51 809.95,191.2 813.19,191.81C816.42,192.42 819.65,192.99 822.89,193.49C826.12,193.99 829.35,194.42 832.58,194.79C835.81,195.16 839.04,195.45 842.28,195.72C845.51,195.98 848.75,196.18 851.98,196.38C855.21,196.58 858.44,196.73 861.67,196.9C864.9,197.07 868.14,197.23 871.37,197.39C874.6,197.56 877.84,197.72 881.07,197.89C884.3,198.06 887.53,198.23 890.76,198.39C893.99,198.55 897.23,198.7 900.46,198.83C903.69,198.96 906.93,199.09 910.16,199.18C913.39,199.27 916.62,199.34 919.85,199.39C923.08,199.44 926.32,199.47 929.55,199.47C932.78,199.47 936.02,199.46 939.25,199.41C942.48,199.36 945.71,199.3 948.94,199.2C952.17,199.1 955.41,198.96 958.64,198.81C961.87,198.65 965.11,198.47 968.34,198.27C971.57,198.07 974.8,197.84 978.03,197.62C981.26,197.4 984.5,197.15 987.73,196.94C990.96,196.73 994.2,196.52 997.43,196.36C1000.66,196.21 1003.89,196.07 1007.12,196.01C1010.35,195.95 1013.59,195.94 1016.82,195.98C1020.05,196.02 1023.29,196.12 1026.52,196.26C1029.75,196.4 1032.98,196.6 1036.21,196.8C1039.44,197 1042.68,197.25 1045.91,197.47C1049.14,197.69 1052.38,197.93 1055.61,198.14C1058.84,198.35 1062.07,198.55 1065.3,198.72C1068.53,198.89 1071.77,199.03 1075,199.15Q1078.23,199.27 1084.7,199.43L1084.7,199.75" style="vector-effect: non-scaling-stroke; stroke-width: 2px; stroke: rgb(132, 73, 99); stroke-opacity: 1; fill: rgb(132, 73, 99); fill-opacity: 0.5;"/><g class="points"><path class="point" transform="translate(649.08,191.9)" d="M2.5,0A2.5,2.5 0 1,1 0,-2.5A2.5,2.5 0 0,1 2.5,0Z" style="opacity: 1; stroke-width: 0px; fill: rgb(132, 73, 99); fill-opacity: 1;"/><path class="point" transform="translate(670.19,196.31)" d="M2.5,0A2.5,2.5 0 1,1 0,-2.5A2.5,2.5 0 0,1 2.5,0Z" style="opacity: 1; stroke-width: 0px; fill: rgb(132, 73, 99); fill-opacity: 1;"/><path class="point" transform="translate(677.11,190.67)" d="M2.5,0A2.5,2.5 0 1,1 0,-2.5A2.5,2.5 0 0,1 2.5,0Z" style="opacity: 1; stroke-width: 0px; fill: rgb(132, 73, 99); fill-opacity: 1;"/><path class="point" transform="translate(691.8,197.45)" d="M2.5,0A2.5,2.5 0 1,1 0,-2.5A2.5,2.5 0 0,1 2.5,0Z" style="opacity: 1; stroke-width: 0px; fill: rgb(132, 73, 99); fill-opacity: 1;"/><path class="point" transform="translate(692.05,194.94)" d="M2.5,0A2.5,2.5 0 1,1 0,-2.5A2.5,2.5 0 0,1 2.5,0Z" style="opacity: 1; stroke-width: 0px; fill: rgb(132, 73, 99); fill-opacity: 1;"/><path class="point" transform="translate(694.52,191.38)" d="M2.5,0A2.5,2.5 0 1,1 0,-2.5A2.5,2.5 0 0,1 2.5,0Z" style="opacity: 1; stroke-width: 0px; fill: rgb(132, 73, 99); fill-opacity: 1;"/><path class="point" transform="translate(699.58,194.05)" d="M2.5,0A2.5,2.5 0 1,1 0,-2.5A2.5,2.5 0 0,1 2.5,0Z" style="opacity: 1; stroke-width: 0px; fill: rgb(132, 73, 99); fill-opacity: 1;"/><path class="point" transform="translate(702.29,192.28)" d="M2.5,0A2.5,2.5 0 1,1 0,-2.5A2.5,2.5 0 0,1 2.5,0Z" style="opacity: 1; stroke-width: 0px; fill: rgb(132, 73, 99); fill-opacity: 1;"/><path class="point" transform="translate(704.76,195.72)" d="M2.5,0A2.5,2.5 0 1,1 0,-2.5A2.5,2.5 0 0,1 2.5,0Z" style="opacity: 1; stroke-width: 0px; fill: rgb(132, 73, 99); fill-opacity: 1;"/><path class="point" transform="translate(706,198.01)" d="M2.5,0A2.5,2.5 0 1,1 0,-2.5A2.5,2.5 0 0,1 2.5,0Z" style="opacity: 1; stroke-width: 0px; fill: rgb(132, 73, 99); fill-opacity: 1;"/><path class="point" transform="translate(707.23,192.32)" d="M2.5,0A2.5,2.5 0 1,1 0,-2.5A2.5,2.5 0 0,1 2.5,0Z" style="opacity: 1; stroke-width: 0px; fill: rgb(132, 73, 99); fill-opacity: 1;"/><path class="point" transform="translate(707.23,195.78)" d="M2.5,0A2.5,2.5 0 1,1 0,-2.5A2.5,2.5 0 0,1 2.5,0Z" style="opacity: 1; stroke-width: 0px; fill: rgb(132, 73, 99); fill-opacity: 1;"/><path class="point" transform="translate(721.31,190.71)" d="M2.5,0A2.5,2.5 0 1,1 0,-2.5A2.5,2.5 0 0,1 2.5,0Z" style="opacity: 1; stroke-width: 0px; fill: rgb(132, 73, 99); fill-opacity: 1;"/><path class="point" transform="translate(728.22,198.45)" d="M2.5,0A2.5,2.5 0 1,1 0,-2.5A2.5,2.5 0 0,1 2.5,0Z" style="opacity: 1; stroke-width: 0px; fill: rgb(132, 73, 99); fill-opacity: 1;"/><path class="point" transform="translate(731.19,196.47)" d="M2.5,0A2.5,2.5 0 1,1 0,-2.5A2.5,2.5 0 0,1 2.5,0Z" style="opacity: 1; stroke-width: 0px; fill: rgb(132, 73, 99); fill-opacity: 1;"/><path class="point" transform="translate(733.9,190)" d="M2.5,0A2.5,2.5 0 1,1 0,-2.5A2.5,2.5 0 0,1 2.5,0Z" style="opacity: 1; stroke-width: 0px; fill: rgb(132, 73, 99); fill-opacity: 1;"/><path class="point" transform="translate(735.88,194.88)" d="M2.5,0A2.5,2.5 0 1,1 0,-2.5A2.5,2.5 0 0,1 2.5,0Z" style="opacity: 1; stroke-width: 0px; fill: rgb(132, 73, 99); fill-opacity: 1;"/><path class="point" transform="translate(754.4,197.4)" d="M2.5,0A2.5,2.5 0 1,1 0,-2.5A2.5,2.5 0 0,1 2.5,0Z" style="opacity: 1; stroke-width: 0px; fill: rgb(132, 73, 99); fill-opacity: 1;"/><path class="point" transform="translate(761.31,195.12)" d="M2.5,0A2.5,2.5 0 1,1 0,-2.5A2.5,2.5 0 0,1 2.5,0Z" style="opacity: 1; stroke-width: 0px; fill: rgb(132, 73, 99); fill-opacity: 1;"/><path class="point" transform="translate(767.24,193.9)" d="M2.5,0A2.5,2.5 0 1,1 0,-2.5A2.5,2.5 0 0,1 2.5,0Z" style="opacity: 1; stroke-width: 0px; fill: rgb(132, 73, 99); fill-opacity: 1;"/><path class="point" transform="translate(774.65,192.85)" d="M2.5,0A2.5,2.5 0 1,1 0,-2.5A2.5,2.5 0 0,1 2.5,0Z" style="opacity: 1; stroke-width: 0px; fill: rgb(132, 73, 99); fill-opacity: 1;"/><path class="point" transform="translate(780.57,193.6)" d="M2.5,0A2.5,2.5 0 1,1 0,-2.5A2.5,2.5 0 0,1 2.5,0Z" style="opacity: 1; stroke-width: 0px; fill: rgb(132, 73, 99); fill-opacity: 1;"/><path class="point" transform="translate(795.14,194.42)" d="M2.5,0A2.5,2.5 0 1,1 0,-2.5A2.5,2.5 0 0,1 2.5,0Z" style="opacity: 1; stroke-width: 0px; fill: rgb(132, 73, 99); fill-opacity: 1;"/><path class="point" transform="translate(811.93,195.47)" d="M2.5,0A2.5,2.5 0 1,1 0,-2.5A2.5,2.5 0 0,1 2.5,0Z" style="opacity: 1; stroke-width: 0px; fill: rgb(132, 73, 99); fill-opacity: 1;"/><path class="point" transform="translate(861.82,193.84)" d="M2.5,0A2.5,2.5 0 1,1 0,-2.5A2.5,2.5 0 0,1 2.5,0Z" style="opacity: 1; stroke-width: 0px; fill: rgb(132, 73, 99); fill-opacity: 1;"/><path class="point" transform="translate(1000.23,194.35)" d="M2.5,0A2.5,2.5 0 1,1 0,-2.5A2.5,2.5 0 0,1 2.5,0Z" style="opacity: 1; stroke-width: 0px; fill: rgb(132, 73, 99); fill-opacity: 1;"/><path class="point" transform="translate(1025.78,193.09)" d="M2.5,0A2.5,2.5 0 1,1 0,-2.5A2.5,2.5 0 0,1 2.5,0Z" style="opacity: 1; stroke-width: 0px; fill: rgb(132, 73, 99); fill-opacity: 1;"/></g></g><g class="trace violins" style="opacity: 1;"><path class="violin" d="M580.82,170.18L580.82,168.72Q590.22,167.92 594.91,167.31C599.62,166.7 604.32,165.96 609,165.05C613.71,164.13 618.4,163.04 623.08,161.83C627.79,160.61 632.48,159.19 637.17,157.75C641.88,156.31 646.56,154.7 651.26,153.19C655.96,151.68 660.64,150.08 665.35,148.69C670.03,147.31 674.72,145.96 679.44,144.87C684.12,143.79 688.82,142.85 693.53,142.16C698.21,141.48 702.92,141.02 707.62,140.76C712.31,140.5 717.01,140.49 721.7,140.62C726.4,140.75 731.1,141.09 735.79,141.54C740.49,141.99 745.19,142.62 749.88,143.3C754.58,143.98 759.28,144.79 763.97,145.61C768.67,146.44 773.37,147.35 778.06,148.25C782.76,149.15 787.45,150.09 792.15,151C796.85,151.9 801.54,152.81 806.24,153.68C810.93,154.55 815.62,155.4 820.32,156.22C825.01,157.04 829.71,157.83 834.41,158.59C839.1,159.35 843.8,160.09 848.5,160.8C853.19,161.5 857.89,162.18 862.59,162.82C867.28,163.45 871.98,164.07 876.68,164.61C881.37,165.15 886.07,165.65 890.77,166.06C895.46,166.47 900.16,166.81 904.86,167.06C909.55,167.31 914.25,167.47 918.94,167.55C923.64,167.63 928.33,167.6 933.03,167.54C937.73,167.48 942.42,167.32 947.12,167.18C951.82,167.04 956.51,166.83 961.21,166.68C965.91,166.53 970.6,166.37 975.3,166.3C980,166.23 984.69,166.19 989.39,166.23C994.09,166.27 998.79,166.38 1003.48,166.53C1008.18,166.68 1012.87,166.92 1017.56,167.15C1022.26,167.38 1026.95,167.66 1031.65,167.91C1036.35,168.16 1041.04,168.42 1045.74,168.65C1050.44,168.87 1055.13,169.09 1059.83,169.26Q1064.53,169.43 1073.92,169.68L1073.92,170.18" style="vector-effect: non-scaling-stroke; stroke-width: 2px; stroke: rgb(149, 68, 87); stroke-opacity: 1; fill: rgb(149, 68, 87); fill-opacity: 0.5;"/><g class="points"><path class="point" transform="translate(666.98,161.34)" d="M2.5,0A2.5,2.5 0 1,1 0,-2.5A2.5,2.5 0 0,1 2.5,0Z" style="opacity: 1; stroke-width: 0px; fill: rgb(149, 68, 87); fill-opacity: 1;"/><path class="point" transform="translate(667.72,168.04)" d="M2.5,0A2.5,2.5 0 1,1 0,-2.5A2.5,2.5 0 0,1 2.5,0Z" style="opacity: 1; stroke-width: 0px; fill: rgb(149, 68, 87); fill-opacity: 1;"/><path class="point" transform="translate(671.8,160.89)" d="M2.5,0A2.5,2.5 0 1,1 0,-2.5A2.5,2.5 0 0,1 2.5,0Z" style="opacity: 1; stroke-width: 0px; fill: rgb(149, 68, 87); fill-opacity: 1;"/><path class="point" transform="translate(673.4,168.11)" d="M2.5,0A2.5,2.5 0 1,1 0,-2.5A2.5,2.5 0 0,1 2.5,0Z" style="opacity: 1; stroke-width: 0px; fill: rgb(149, 68, 87); fill-opacity: 1;"/><path class="point" transform="translate(678.59,165.43)" d="M2.5,0A2.5,2.5 0 1,1 0,-2.5A2.5,2.5 0 0,1 2.5,0Z" style="opacity: 1; stroke-width: 0px; fill: rgb(149, 68, 87); fill-opacity: 1;"/><path class="point" transform="translate(681.92,161.87)" d="M2.5,0A2.5,2.5 0 1,1 0,-2.5A2.5,2.5 0 0,1 2.5,0Z" style="opacity: 1; stroke-width: 0px; fill: rgb(149, 68, 87); fill-opacity: 1;"/><path class="point" transform="translate(683.28,164.43)" d="M2.5,0A2.5,2.5 0 1,1 0,-2.5A2.5,2.5 0 0,1 2.5,0Z" style="opacity: 1; stroke-width: 0px; fill: rgb(149, 68, 87); fill-opacity: 1;"/><path class="point" transform="translate(702.05,163.18)" d="M2.5,0A2.5,2.5 0 1,1 0,-2.5A2.5,2.5 0 0,1 2.5,0Z" style="opacity: 1; stroke-width: 0px; fill: rgb(149, 68, 87); fill-opacity: 1;"/><path class="point" transform="translate(703.78,165.47)" d="M2.5,0A2.5,2.5 0 1,1 0,-2.5A2.5,2.5 0 0,1 2.5,0Z" style="opacity: 1; stroke-width: 0px; fill: rgb(149, 68, 87); fill-opacity: 1;"/><path class="point" transform="translate(705.5,167.11)" d="M2.5,0A2.5,2.5 0 1,1 0,-2.5A2.5,2.5 0 0,1 2.5,0Z" style="opacity: 1; stroke-width: 0px; fill: rgb(149, 68, 87); fill-opacity: 1;"/><path class="point" transform="translate(712.29,163.23)" d="M2.5,0A2.5,2.5 0 1,1 0,-2.5A2.5,2.5 0 0,1 2.5,0Z" style="opacity: 1; stroke-width: 0px; fill: rgb(149, 68, 87); fill-opacity: 1;"/><path class="point" transform="translate(720.57,165.51)" d="M2.5,0A2.5,2.5 0 1,1 0,-2.5A2.5,2.5 0 0,1 2.5,0Z" style="opacity: 1; stroke-width: 0px; fill: rgb(149, 68, 87); fill-opacity: 1;"/><path class="point" transform="translate(739.33,161.72)" d="M2.5,0A2.5,2.5 0 1,1 0,-2.5A2.5,2.5 0 0,1 2.5,0Z" style="opacity: 1; stroke-width: 0px; fill: rgb(149, 68, 87); fill-opacity: 1;"/><path class="point" transform="translate(741.06,167.86)" d="M2.5,0A2.5,2.5 0 1,1 0,-2.5A2.5,2.5 0 0,1 2.5,0Z" style="opacity: 1; stroke-width: 0px; fill: rgb(149, 68, 87); fill-opacity: 1;"/><path class="point" transform="translate(742.05,166.39)" d="M2.5,0A2.5,2.5 0 1,1 0,-2.5A2.5,2.5 0 0,1 2.5,0Z" style="opacity: 1; stroke-width: 0px; fill: rgb(149, 68, 87); fill-opacity: 1;"/><path class="point" transform="translate(744.77,161.36)" d="M2.5,0A2.5,2.5 0 1,1 0,-2.5A2.5,2.5 0 0,1 2.5,0Z" style="opacity: 1; stroke-width: 0px; fill: rgb(149, 68, 87); fill-opacity: 1;"/><path class="point" transform="translate(750.45,165.12)" d="M2.5,0A2.5,2.5 0 1,1 0,-2.5A2.5,2.5 0 0,1 2.5,0Z" style="opacity: 1; stroke-width: 0px; fill: rgb(149, 68, 87); fill-opacity: 1;"/><path class="point" transform="translate(760.57,167.23)" d="M2.5,0A2.5,2.5 0 1,1 0,-2.5A2.5,2.5 0 0,1 2.5,0Z" style="opacity: 1; stroke-width: 0px; fill: rgb(149, 68, 87); fill-opacity: 1;"/><path class="point" transform="translate(773.66,165.27)" d="M2.5,0A2.5,2.5 0 1,1 0,-2.5A2.5,2.5 0 0,1 2.5,0Z" style="opacity: 1; stroke-width: 0px; fill: rgb(149, 68, 87); fill-opacity: 1;"/><path class="point" transform="translate(776.38,164.33)" d="M2.5,0A2.5,2.5 0 1,1 0,-2.5A2.5,2.5 0 0,1 2.5,0Z" style="opacity: 1; stroke-width: 0px; fill: rgb(149, 68, 87); fill-opacity: 1;"/><path class="point" transform="translate(799.96,163.38)" d="M2.5,0A2.5,2.5 0 1,1 0,-2.5A2.5,2.5 0 0,1 2.5,0Z" style="opacity: 1; stroke-width: 0px; fill: rgb(149, 68, 87); fill-opacity: 1;"/><path class="point" transform="translate(804.03,164.05)" d="M2.5,0A2.5,2.5 0 1,1 0,-2.5A2.5,2.5 0 0,1 2.5,0Z" style="opacity: 1; stroke-width: 0px; fill: rgb(149, 68, 87); fill-opacity: 1;"/><path class="point" transform="translate(819.34,164.82)" d="M2.5,0A2.5,2.5 0 1,1 0,-2.5A2.5,2.5 0 0,1 2.5,0Z" style="opacity: 1; stroke-width: 0px; fill: rgb(149, 68, 87); fill-opacity: 1;"/><path class="point" transform="translate(845.77,165.84)" d="M2.5,0A2.5,2.5 0 1,1 0,-2.5A2.5,2.5 0 0,1 2.5,0Z" style="opacity: 1; stroke-width: 0px; fill: rgb(149, 68, 87); fill-opacity: 1;"/><path class="point" transform="translate(859.84,164.28)" d="M2.5,0A2.5,2.5 0 1,1 0,-2.5A2.5,2.5 0 0,1 2.5,0Z" style="opacity: 1; stroke-width: 0px; fill: rgb(149, 68, 87); fill-opacity: 1;"/><path class="point" transform="translate(985.29,164.78)" d="M2.5,0A2.5,2.5 0 1,1 0,-2.5A2.5,2.5 0 0,1 2.5,0Z" style="opacity: 1; stroke-width: 0px; fill: rgb(149, 68, 87); fill-opacity: 1;"/><path class="point" transform="translate(987.76,163.52)" d="M2.5,0A2.5,2.5 0 1,1 0,-2.5A2.5,2.5 0 0,1 2.5,0Z" style="opacity: 1; stroke-width: 0px; fill: rgb(149, 68, 87); fill-opacity: 1;"/></g></g><g class="trace violins" style="opacity: 1;"><path class="violin" d="M583.53,140.62L583.53,139.63Q593.12,139.08 597.9,138.64C602.69,138.2 607.48,137.68 612.26,137C617.06,136.31 621.85,135.5 626.62,134.53C631.42,133.56 636.22,132.42 640.99,131.18C645.79,129.93 650.57,128.5 655.35,127.06C660.15,125.62 664.92,124.03 669.71,122.55C674.5,121.07 679.28,119.51 684.08,118.17C688.85,116.84 693.63,115.53 698.44,114.51C703.21,113.5 708.01,112.64 712.81,112.06C717.58,111.49 722.38,111.16 727.17,111.05C731.95,110.94 736.75,111.12 741.53,111.42C746.32,111.72 751.12,112.28 755.9,112.87C760.69,113.47 765.48,114.23 770.26,114.99C775.05,115.75 779.84,116.61 784.63,117.43C789.42,118.25 794.2,119.1 798.99,119.92C803.78,120.74 808.56,121.56 813.35,122.34C818.14,123.12 822.93,123.87 827.72,124.58C832.5,125.29 837.29,125.97 842.08,126.6C846.86,127.23 851.65,127.82 856.44,128.38C861.23,128.94 866.02,129.45 870.81,129.96C875.6,130.47 880.38,130.95 885.17,131.45C889.96,131.95 894.75,132.44 899.54,132.95C904.33,133.46 909.11,133.98 913.9,134.49C918.69,135 923.47,135.52 928.26,136C933.05,136.47 937.84,136.95 942.63,137.34C947.42,137.73 952.2,138.08 956.99,138.35C961.78,138.62 966.57,138.83 971.36,138.97C976.15,139.11 980.93,139.17 985.72,139.19C990.51,139.21 995.29,139.15 1000.08,139.09C1004.87,139.03 1009.66,138.92 1014.45,138.82C1019.24,138.72 1024.02,138.59 1028.81,138.49C1033.6,138.39 1038.38,138.3 1043.17,138.23C1047.96,138.16 1052.75,138.1 1057.54,138.06C1062.33,138.02 1067.11,138.01 1071.9,137.99C1076.69,137.97 1081.48,137.97 1086.27,137.97C1091.06,137.97 1095.84,137.98 1100.63,137.99C1105.42,138 1110.2,138.02 1114.99,138.06C1119.78,138.1 1124.57,138.16 1129.36,138.24C1134.15,138.32 1138.93,138.42 1143.72,138.53C1148.51,138.65 1153.3,138.79 1158.09,138.93C1162.88,139.07 1167.66,139.23 1172.45,139.37C1177.24,139.51 1182.02,139.66 1186.81,139.78C1191.6,139.9 1196.39,140.02 1201.18,140.11Q1205.97,140.2 1215.54,140.34L1215.54,140.62" style="vector-effect: non-scaling-stroke; stroke-width: 2px; stroke: rgb(165, 63, 75); stroke-opacity: 1; fill: rgb(165, 63, 75); fill-opacity: 0.5;"/><g class="points"><path class="point" transform="translate(671.55,132.16)" d="M2.5,0A2.5,2.5 0 1,1 0,-2.5A2.5,2.5 0 0,1 2.5,0Z" style="opacity: 1; stroke-width: 0px; fill: rgb(165, 63, 75); fill-opacity: 1;"/><path class="point" transform="translate(672.17,137.99)" d="M2.5,0A2.5,2.5 0 1,1 0,-2.5A2.5,2.5 0 0,1 2.5,0Z" style="opacity: 1; stroke-width: 0px; fill: rgb(165, 63, 75); fill-opacity: 1;"/><path class="point" transform="translate(678.96,130.58)" d="M2.5,0A2.5,2.5 0 1,1 0,-2.5A2.5,2.5 0 0,1 2.5,0Z" style="opacity: 1; stroke-width: 0px; fill: rgb(165, 63, 75); fill-opacity: 1;"/><path class="point" transform="translate(702.42,139.49)" d="M2.5,0A2.5,2.5 0 1,1 0,-2.5A2.5,2.5 0 0,1 2.5,0Z" style="opacity: 1; stroke-width: 0px; fill: rgb(165, 63, 75); fill-opacity: 1;"/><path class="point" transform="translate(705.75,136.09)" d="M2.5,0A2.5,2.5 0 1,1 0,-2.5A2.5,2.5 0 0,1 2.5,0Z" style="opacity: 1; stroke-width: 0px; fill: rgb(165, 63, 75); fill-opacity: 1;"/><path class="point" transform="translate(707.6,131.98)" d="M2.5,0A2.5,2.5 0 1,1 0,-2.5A2.5,2.5 0 0,1 2.5,0Z" style="opacity: 1; stroke-width: 0px; fill: rgb(165, 63, 75); fill-opacity: 1;"/><path class="point" transform="translate(710.44,134.9)" d="M2.5,0A2.5,2.5 0 1,1 0,-2.5A2.5,2.5 0 0,1 2.5,0Z" style="opacity: 1; stroke-width: 0px; fill: rgb(165, 63, 75); fill-opacity: 1;"/><path class="point" transform="translate(714.39,133.26)" d="M2.5,0A2.5,2.5 0 1,1 0,-2.5A2.5,2.5 0 0,1 2.5,0Z" style="opacity: 1; stroke-width: 0px; fill: rgb(165, 63, 75); fill-opacity: 1;"/><path class="point" transform="translate(714.76,136.56)" d="M2.5,0A2.5,2.5 0 1,1 0,-2.5A2.5,2.5 0 0,1 2.5,0Z" style="opacity: 1; stroke-width: 0px; fill: rgb(165, 63, 75); fill-opacity: 1;"/><path class="point" transform="translate(720.69,139.04)" d="M2.5,0A2.5,2.5 0 1,1 0,-2.5A2.5,2.5 0 0,1 2.5,0Z" style="opacity: 1; stroke-width: 0px; fill: rgb(165, 63, 75); fill-opacity: 1;"/><path class="point" transform="translate(735.63,133.24)" d="M2.5,0A2.5,2.5 0 1,1 0,-2.5A2.5,2.5 0 0,1 2.5,0Z" style="opacity: 1; stroke-width: 0px; fill: rgb(165, 63, 75); fill-opacity: 1;"/><path class="point" transform="translate(737.24,136.29)" d="M2.5,0A2.5,2.5 0 1,1 0,-2.5A2.5,2.5 0 0,1 2.5,0Z" style="opacity: 1; stroke-width: 0px; fill: rgb(165, 63, 75); fill-opacity: 1;"/><path class="point" transform="translate(748.59,131.64)" d="M2.5,0A2.5,2.5 0 1,1 0,-2.5A2.5,2.5 0 0,1 2.5,0Z" style="opacity: 1; stroke-width: 0px; fill: rgb(165, 63, 75); fill-opacity: 1;"/><path class="point" transform="translate(753.66,138.82)" d="M2.5,0A2.5,2.5 0 1,1 0,-2.5A2.5,2.5 0 0,1 2.5,0Z" style="opacity: 1; stroke-width: 0px; fill: rgb(165, 63, 75); fill-opacity: 1;"/><path class="point" transform="translate(755.14,137.21)" d="M2.5,0A2.5,2.5 0 1,1 0,-2.5A2.5,2.5 0 0,1 2.5,0Z" style="opacity: 1; stroke-width: 0px; fill: rgb(165, 63, 75); fill-opacity: 1;"/><path class="point" transform="translate(765.26,130.75)" d="M2.5,0A2.5,2.5 0 1,1 0,-2.5A2.5,2.5 0 0,1 2.5,0Z" style="opacity: 1; stroke-width: 0px; fill: rgb(165, 63, 75); fill-opacity: 1;"/><path class="point" transform="translate(784.4,135.79)" d="M2.5,0A2.5,2.5 0 1,1 0,-2.5A2.5,2.5 0 0,1 2.5,0Z" style="opacity: 1; stroke-width: 0px; fill: rgb(165, 63, 75); fill-opacity: 1;"/><path class="point" transform="translate(788.23,137.79)" d="M2.5,0A2.5,2.5 0 1,1 0,-2.5A2.5,2.5 0 0,1 2.5,0Z" style="opacity: 1; stroke-width: 0px; fill: rgb(165, 63, 75); fill-opacity: 1;"/><path class="point" transform="translate(811.32,135.9)" d="M2.5,0A2.5,2.5 0 1,1 0,-2.5A2.5,2.5 0 0,1 2.5,0Z" style="opacity: 1; stroke-width: 0px; fill: rgb(165, 63, 75); fill-opacity: 1;"/><path class="point" transform="translate(812.68,134.78)" d="M2.5,0A2.5,2.5 0 1,1 0,-2.5A2.5,2.5 0 0,1 2.5,0Z" style="opacity: 1; stroke-width: 0px; fill: rgb(165, 63, 75); fill-opacity: 1;"/><path class="point" transform="translate(822.18,133.59)" d="M2.5,0A2.5,2.5 0 1,1 0,-2.5A2.5,2.5 0 0,1 2.5,0Z" style="opacity: 1; stroke-width: 0px; fill: rgb(165, 63, 75); fill-opacity: 1;"/><path class="point" transform="translate(828.85,134.45)" d="M2.5,0A2.5,2.5 0 1,1 0,-2.5A2.5,2.5 0 0,1 2.5,0Z" style="opacity: 1; stroke-width: 0px; fill: rgb(165, 63, 75); fill-opacity: 1;"/><path class="point" transform="translate(882.31,135.31)" d="M2.5,0A2.5,2.5 0 1,1 0,-2.5A2.5,2.5 0 0,1 2.5,0Z" style="opacity: 1; stroke-width: 0px; fill: rgb(165, 63, 75); fill-opacity: 1;"/><path class="point" transform="translate(885.03,136.45)" d="M2.5,0A2.5,2.5 0 1,1 0,-2.5A2.5,2.5 0 0,1 2.5,0Z" style="opacity: 1; stroke-width: 0px; fill: rgb(165, 63, 75); fill-opacity: 1;"/><path class="point" transform="translate(900.34,134.71)" d="M2.5,0A2.5,2.5 0 1,1 0,-2.5A2.5,2.5 0 0,1 2.5,0Z" style="opacity: 1; stroke-width: 0px; fill: rgb(165, 63, 75); fill-opacity: 1;"/><path class="point" transform="translate(1045.29,135.24)" d="M2.5,0A2.5,2.5 0 1,1 0,-2.5A2.5,2.5 0 0,1 2.5,0Z" style="opacity: 1; stroke-width: 0px; fill: rgb(165, 63, 75); fill-opacity: 1;"/><path class="point" transform="translate(1127.52,133.91)" d="M2.5,0A2.5,2.5 0 1,1 0,-2.5A2.5,2.5 0 0,1 2.5,0Z" style="opacity: 1; stroke-width: 0px; fill: rgb(165, 63, 75); fill-opacity: 1;"/></g></g><g class="trace violins" style="opacity: 1;"><path class="violin" d="M547.28,111.05L547.28,110.5Q559.08,110.18 564.98,109.91C570.88,109.63 576.78,109.31 582.67,108.85C588.57,108.39 594.47,107.85 600.36,107.15C606.27,106.45 612.17,105.62 618.06,104.63C623.97,103.64 629.87,102.48 635.75,101.22C641.66,99.96 647.56,98.51 653.45,97.06C659.36,95.6 665.24,93.98 671.14,92.48C677.03,90.98 682.92,89.4 688.83,88.05C694.72,86.71 700.61,85.39 706.53,84.4C712.41,83.41 718.31,82.59 724.22,82.1C730.11,81.62 736.02,81.41 741.92,81.48C747.82,81.55 753.72,81.95 759.61,82.5C765.52,83.05 771.42,83.91 777.31,84.79C783.22,85.67 789.11,86.77 795,87.8C800.9,88.83 806.79,89.97 812.69,90.99C818.59,92.01 824.48,93.02 830.39,93.9C836.28,94.78 842.18,95.59 848.08,96.29C853.97,96.99 859.88,97.59 865.78,98.11C871.67,98.63 877.57,99.03 883.47,99.4C889.36,99.77 895.26,100.06 901.16,100.35C907.06,100.64 912.96,100.87 918.86,101.13C924.76,101.39 930.65,101.64 936.55,101.92C942.45,102.2 948.35,102.51 954.25,102.83C960.15,103.15 966.04,103.5 971.94,103.85C977.84,104.2 983.74,104.57 989.64,104.92C995.54,105.26 1001.43,105.61 1007.33,105.92C1013.23,106.23 1019.12,106.53 1025.02,106.8C1030.92,107.07 1036.82,107.31 1042.72,107.53C1048.62,107.75 1054.51,107.96 1060.41,108.14C1066.31,108.32 1072.21,108.49 1078.11,108.63C1084.01,108.77 1089.9,108.89 1095.8,108.98C1101.7,109.07 1107.6,109.12 1113.5,109.15C1119.4,109.18 1125.29,109.17 1131.19,109.16C1137.09,109.15 1142.98,109.1 1148.88,109.07C1154.78,109.04 1160.68,108.99 1166.58,108.98C1172.48,108.97 1178.37,108.96 1184.27,108.99C1190.17,109.02 1196.07,109.08 1201.97,109.16C1207.87,109.24 1213.76,109.36 1219.66,109.48C1225.56,109.6 1231.45,109.74 1237.35,109.87C1243.25,110 1249.15,110.13 1255.05,110.25C1260.95,110.36 1266.84,110.47 1272.74,110.56Q1278.64,110.65 1290.44,110.78L1290.44,111.05" style="vector-effect: non-scaling-stroke; stroke-width: 2px; stroke: rgb(182, 58, 63); stroke-opacity: 1; fill: rgb(182, 58, 63); fill-opacity: 0.5;"/><g class="points"><path class="point" transform="translate(655.13,102.97)" d="M2.5,0A2.5,2.5 0 1,1 0,-2.5A2.5,2.5 0 0,1 2.5,0Z" style="opacity: 1; stroke-width: 0px; fill: rgb(182, 58, 63); fill-opacity: 1;"/><path class="point" transform="translate(673.9,108.04)" d="M2.5,0A2.5,2.5 0 1,1 0,-2.5A2.5,2.5 0 0,1 2.5,0Z" style="opacity: 1; stroke-width: 0px; fill: rgb(182, 58, 63); fill-opacity: 1;"/><path class="point" transform="translate(699.33,101.5)" d="M2.5,0A2.5,2.5 0 1,1 0,-2.5A2.5,2.5 0 0,1 2.5,0Z" style="opacity: 1; stroke-width: 0px; fill: rgb(182, 58, 63); fill-opacity: 1;"/><path class="point" transform="translate(702.29,109.25)" d="M2.5,0A2.5,2.5 0 1,1 0,-2.5A2.5,2.5 0 0,1 2.5,0Z" style="opacity: 1; stroke-width: 0px; fill: rgb(182, 58, 63); fill-opacity: 1;"/><path class="point" transform="translate(703.53,106.4)" d="M2.5,0A2.5,2.5 0 1,1 0,-2.5A2.5,2.5 0 0,1 2.5,0Z" style="opacity: 1; stroke-width: 0px; fill: rgb(182, 58, 63); fill-opacity: 1;"/><path class="point" transform="translate(717.36,102.46)" d="M2.5,0A2.5,2.5 0 1,1 0,-2.5A2.5,2.5 0 0,1 2.5,0Z" style="opacity: 1; stroke-width: 0px; fill: rgb(182, 58, 63); fill-opacity: 1;"/><path class="point" transform="translate(717.97,105.34)" d="M2.5,0A2.5,2.5 0 1,1 0,-2.5A2.5,2.5 0 0,1 2.5,0Z" style="opacity: 1; stroke-width: 0px; fill: rgb(182, 58, 63); fill-opacity: 1;"/><path class="point" transform="translate(724.39,103.42)" d="M2.5,0A2.5,2.5 0 1,1 0,-2.5A2.5,2.5 0 0,1 2.5,0Z" style="opacity: 1; stroke-width: 0px; fill: rgb(182, 58, 63); fill-opacity: 1;"/><path class="point" transform="translate(728.72,107.02)" d="M2.5,0A2.5,2.5 0 1,1 0,-2.5A2.5,2.5 0 0,1 2.5,0Z" style="opacity: 1; stroke-width: 0px; fill: rgb(182, 58, 63); fill-opacity: 1;"/><path class="point" transform="translate(729.95,109.3)" d="M2.5,0A2.5,2.5 0 1,1 0,-2.5A2.5,2.5 0 0,1 2.5,0Z" style="opacity: 1; stroke-width: 0px; fill: rgb(182, 58, 63); fill-opacity: 1;"/><path class="point" transform="translate(738.84,103.57)" d="M2.5,0A2.5,2.5 0 1,1 0,-2.5A2.5,2.5 0 0,1 2.5,0Z" style="opacity: 1; stroke-width: 0px; fill: rgb(182, 58, 63); fill-opacity: 1;"/><path class="point" transform="translate(748.35,106.99)" d="M2.5,0A2.5,2.5 0 1,1 0,-2.5A2.5,2.5 0 0,1 2.5,0Z" style="opacity: 1; stroke-width: 0px; fill: rgb(182, 58, 63); fill-opacity: 1;"/><path class="point" transform="translate(761.68,101.65)" d="M2.5,0A2.5,2.5 0 1,1 0,-2.5A2.5,2.5 0 0,1 2.5,0Z" style="opacity: 1; stroke-width: 0px; fill: rgb(182, 58, 63); fill-opacity: 1;"/><path class="point" transform="translate(764.52,109.39)" d="M2.5,0A2.5,2.5 0 1,1 0,-2.5A2.5,2.5 0 0,1 2.5,0Z" style="opacity: 1; stroke-width: 0px; fill: rgb(182, 58, 63); fill-opacity: 1;"/><path class="point" transform="translate(770.94,107.66)" d="M2.5,0A2.5,2.5 0 1,1 0,-2.5A2.5,2.5 0 0,1 2.5,0Z" style="opacity: 1; stroke-width: 0px; fill: rgb(182, 58, 63); fill-opacity: 1;"/><path class="point" transform="translate(780.33,101.31)" d="M2.5,0A2.5,2.5 0 1,1 0,-2.5A2.5,2.5 0 0,1 2.5,0Z" style="opacity: 1; stroke-width: 0px; fill: rgb(182, 58, 63); fill-opacity: 1;"/><path class="point" transform="translate(786.75,106.07)" d="M2.5,0A2.5,2.5 0 1,1 0,-2.5A2.5,2.5 0 0,1 2.5,0Z" style="opacity: 1; stroke-width: 0px; fill: rgb(182, 58, 63); fill-opacity: 1;"/><path class="point" transform="translate(796.38,108.18)" d="M2.5,0A2.5,2.5 0 1,1 0,-2.5A2.5,2.5 0 0,1 2.5,0Z" style="opacity: 1; stroke-width: 0px; fill: rgb(182, 58, 63); fill-opacity: 1;"/><path class="point" transform="translate(842.56,106.32)" d="M2.5,0A2.5,2.5 0 1,1 0,-2.5A2.5,2.5 0 0,1 2.5,0Z" style="opacity: 1; stroke-width: 0px; fill: rgb(182, 58, 63); fill-opacity: 1;"/><path class="point" transform="translate(844.04,105.21)" d="M2.5,0A2.5,2.5 0 1,1 0,-2.5A2.5,2.5 0 0,1 2.5,0Z" style="opacity: 1; stroke-width: 0px; fill: rgb(182, 58, 63); fill-opacity: 1;"/><path class="point" transform="translate(855.15,103.85)" d="M2.5,0A2.5,2.5 0 1,1 0,-2.5A2.5,2.5 0 0,1 2.5,0Z" style="opacity: 1; stroke-width: 0px; fill: rgb(182, 58, 63); fill-opacity: 1;"/><path class="point" transform="translate(904.78,104.88)" d="M2.5,0A2.5,2.5 0 1,1 0,-2.5A2.5,2.5 0 0,1 2.5,0Z" style="opacity: 1; stroke-width: 0px; fill: rgb(182, 58, 63); fill-opacity: 1;"/><path class="point" transform="translate(935.03,105.77)" d="M2.5,0A2.5,2.5 0 1,1 0,-2.5A2.5,2.5 0 0,1 2.5,0Z" style="opacity: 1; stroke-width: 0px; fill: rgb(182, 58, 63); fill-opacity: 1;"/><path class="point" transform="translate(935.53,107.03)" d="M2.5,0A2.5,2.5 0 1,1 0,-2.5A2.5,2.5 0 0,1 2.5,0Z" style="opacity: 1; stroke-width: 0px; fill: rgb(182, 58, 63); fill-opacity: 1;"/><path class="point" transform="translate(972.94,105.14)" d="M2.5,0A2.5,2.5 0 1,1 0,-2.5A2.5,2.5 0 0,1 2.5,0Z" style="opacity: 1; stroke-width: 0px; fill: rgb(182, 58, 63); fill-opacity: 1;"/><path class="point" transform="translate(1048.01,105.72)" d="M2.5,0A2.5,2.5 0 1,1 0,-2.5A2.5,2.5 0 0,1 2.5,0Z" style="opacity: 1; stroke-width: 0px; fill: rgb(182, 58, 63); fill-opacity: 1;"/><path class="point" transform="translate(1182.59,104.22)" d="M2.5,0A2.5,2.5 0 1,1 0,-2.5A2.5,2.5 0 0,1 2.5,0Z" style="opacity: 1; stroke-width: 0px; fill: rgb(182, 58, 63); fill-opacity: 1;"/></g></g><g class="trace violins" style="opacity: 1;"><path class="violin" d="M502.09,81.48L502.09,81.19Q513.17,81.04 518.71,80.93C524.25,80.82 529.78,80.7 535.32,80.54C540.86,80.38 546.4,80.2 551.94,79.99C557.48,79.78 563.02,79.54 568.56,79.26C574.1,78.98 579.63,78.69 585.17,78.33C590.71,77.97 596.25,77.57 601.79,77.08C607.33,76.58 612.88,76.05 618.41,75.36C623.95,74.67 629.49,73.88 635.02,72.95C640.57,72.01 646.11,70.93 651.64,69.74C657.19,68.55 662.73,67.18 668.26,65.81C673.8,64.44 679.33,62.92 684.87,61.52C690.4,60.13 695.93,58.66 701.49,57.44C707.01,56.23 712.55,55.08 718.11,54.23C723.63,53.38 729.18,52.72 734.73,52.34C740.26,51.96 745.8,51.85 751.34,51.92C756.88,51.99 762.43,52.34 767.96,52.76C773.51,53.18 779.04,53.82 784.58,54.46C790.12,55.1 795.65,55.86 801.19,56.59C806.73,57.32 812.27,58.1 817.81,58.86C823.35,59.62 828.89,60.39 834.43,61.16C839.97,61.93 845.5,62.7 851.04,63.49C856.58,64.28 862.12,65.09 867.66,65.9C873.2,66.71 878.74,67.54 884.28,68.35C889.82,69.16 895.35,69.98 900.89,70.74C906.43,71.5 911.97,72.24 917.51,72.91C923.05,73.58 928.59,74.2 934.13,74.75C939.67,75.29 945.21,75.77 950.75,76.18C956.29,76.59 961.82,76.92 967.36,77.22C972.9,77.51 978.44,77.75 983.98,77.95C989.52,78.15 995.06,78.3 1000.6,78.42C1006.14,78.54 1011.67,78.62 1017.21,78.69C1022.75,78.76 1028.29,78.79 1033.83,78.82C1039.37,78.85 1044.91,78.86 1050.45,78.89C1055.99,78.91 1061.52,78.93 1067.06,78.97C1072.6,79.01 1078.14,79.06 1083.68,79.12C1089.22,79.18 1094.76,79.25 1100.3,79.31C1105.84,79.37 1111.37,79.44 1116.91,79.48C1122.45,79.52 1127.99,79.56 1133.53,79.57C1139.07,79.58 1144.61,79.56 1150.15,79.53C1155.69,79.5 1161.23,79.45 1166.77,79.41C1172.31,79.37 1177.84,79.32 1183.38,79.3C1188.92,79.28 1194.46,79.28 1200,79.31C1205.54,79.34 1211.08,79.4 1216.62,79.49C1222.16,79.57 1227.69,79.7 1233.23,79.82C1238.77,79.94 1244.31,80.09 1249.85,80.23C1255.39,80.37 1260.93,80.52 1266.47,80.64C1272.01,80.76 1277.54,80.88 1283.08,80.97Q1288.62,81.06 1299.7,81.2L1299.7,81.48" style="vector-effect: non-scaling-stroke; stroke-width: 2px; stroke: rgb(198, 53, 51); stroke-opacity: 1; fill: rgb(198, 53, 51); fill-opacity: 0.5;"/><g class="points"><path class="point" transform="translate(603.52,74.07)" d="M2.5,0A2.5,2.5 0 1,1 0,-2.5A2.5,2.5 0 0,1 2.5,0Z" style="opacity: 1; stroke-width: 0px; fill: rgb(198, 53, 51); fill-opacity: 1;"/><path class="point" transform="translate(668.71,77.54)" d="M2.5,0A2.5,2.5 0 1,1 0,-2.5A2.5,2.5 0 0,1 2.5,0Z" style="opacity: 1; stroke-width: 0px; fill: rgb(198, 53, 51); fill-opacity: 1;"/><path class="point" transform="translate(694.89,73.01)" d="M2.5,0A2.5,2.5 0 1,1 0,-2.5A2.5,2.5 0 0,1 2.5,0Z" style="opacity: 1; stroke-width: 0px; fill: rgb(198, 53, 51); fill-opacity: 1;"/><path class="point" transform="translate(712.42,78.5)" d="M2.5,0A2.5,2.5 0 1,1 0,-2.5A2.5,2.5 0 0,1 2.5,0Z" style="opacity: 1; stroke-width: 0px; fill: rgb(198, 53, 51); fill-opacity: 1;"/><path class="point" transform="translate(713.41,76.44)" d="M2.5,0A2.5,2.5 0 1,1 0,-2.5A2.5,2.5 0 0,1 2.5,0Z" style="opacity: 1; stroke-width: 0px; fill: rgb(198, 53, 51); fill-opacity: 1;"/><path class="point" transform="translate(716.37,73.62)" d="M2.5,0A2.5,2.5 0 1,1 0,-2.5A2.5,2.5 0 0,1 2.5,0Z" style="opacity: 1; stroke-width: 0px; fill: rgb(198, 53, 51); fill-opacity: 1;"/><path class="point" transform="translate(721.8,75.75)" d="M2.5,0A2.5,2.5 0 1,1 0,-2.5A2.5,2.5 0 0,1 2.5,0Z" style="opacity: 1; stroke-width: 0px; fill: rgb(198, 53, 51); fill-opacity: 1;"/><path class="point" transform="translate(723.53,74.07)" d="M2.5,0A2.5,2.5 0 1,1 0,-2.5A2.5,2.5 0 0,1 2.5,0Z" style="opacity: 1; stroke-width: 0px; fill: rgb(198, 53, 51); fill-opacity: 1;"/><path class="point" transform="translate(728.72,77.46)" d="M2.5,0A2.5,2.5 0 1,1 0,-2.5A2.5,2.5 0 0,1 2.5,0Z" style="opacity: 1; stroke-width: 0px; fill: rgb(198, 53, 51); fill-opacity: 1;"/><path class="point" transform="translate(738.1,79.48)" d="M2.5,0A2.5,2.5 0 1,1 0,-2.5A2.5,2.5 0 0,1 2.5,0Z" style="opacity: 1; stroke-width: 0px; fill: rgb(198, 53, 51); fill-opacity: 1;"/><path class="point" transform="translate(738.84,74.19)" d="M2.5,0A2.5,2.5 0 1,1 0,-2.5A2.5,2.5 0 0,1 2.5,0Z" style="opacity: 1; stroke-width: 0px; fill: rgb(198, 53, 51); fill-opacity: 1;"/><path class="point" transform="translate(751.43,77.19)" d="M2.5,0A2.5,2.5 0 1,1 0,-2.5A2.5,2.5 0 0,1 2.5,0Z" style="opacity: 1; stroke-width: 0px; fill: rgb(198, 53, 51); fill-opacity: 1;"/><path class="point" transform="translate(764.89,72.78)" d="M2.5,0A2.5,2.5 0 1,1 0,-2.5A2.5,2.5 0 0,1 2.5,0Z" style="opacity: 1; stroke-width: 0px; fill: rgb(198, 53, 51); fill-opacity: 1;"/><path class="point" transform="translate(766,79.96)" d="M2.5,0A2.5,2.5 0 1,1 0,-2.5A2.5,2.5 0 0,1 2.5,0Z" style="opacity: 1; stroke-width: 0px; fill: rgb(198, 53, 51); fill-opacity: 1;"/><path class="point" transform="translate(779.34,77.98)" d="M2.5,0A2.5,2.5 0 1,1 0,-2.5A2.5,2.5 0 0,1 2.5,0Z" style="opacity: 1; stroke-width: 0px; fill: rgb(198, 53, 51); fill-opacity: 1;"/><path class="point" transform="translate(787.12,71.9)" d="M2.5,0A2.5,2.5 0 1,1 0,-2.5A2.5,2.5 0 0,1 2.5,0Z" style="opacity: 1; stroke-width: 0px; fill: rgb(198, 53, 51); fill-opacity: 1;"/><path class="point" transform="translate(798.72,76.61)" d="M2.5,0A2.5,2.5 0 1,1 0,-2.5A2.5,2.5 0 0,1 2.5,0Z" style="opacity: 1; stroke-width: 0px; fill: rgb(198, 53, 51); fill-opacity: 1;"/><path class="point" transform="translate(820.58,78.94)" d="M2.5,0A2.5,2.5 0 1,1 0,-2.5A2.5,2.5 0 0,1 2.5,0Z" style="opacity: 1; stroke-width: 0px; fill: rgb(198, 53, 51); fill-opacity: 1;"/><path class="point" transform="translate(820.82,76.82)" d="M2.5,0A2.5,2.5 0 1,1 0,-2.5A2.5,2.5 0 0,1 2.5,0Z" style="opacity: 1; stroke-width: 0px; fill: rgb(198, 53, 51); fill-opacity: 1;"/><path class="point" transform="translate(846.01,75.64)" d="M2.5,0A2.5,2.5 0 1,1 0,-2.5A2.5,2.5 0 0,1 2.5,0Z" style="opacity: 1; stroke-width: 0px; fill: rgb(198, 53, 51); fill-opacity: 1;"/><path class="point" transform="translate(847.49,74.41)" d="M2.5,0A2.5,2.5 0 1,1 0,-2.5A2.5,2.5 0 0,1 2.5,0Z" style="opacity: 1; stroke-width: 0px; fill: rgb(198, 53, 51); fill-opacity: 1;"/><path class="point" transform="translate(860.21,75.33)" d="M2.5,0A2.5,2.5 0 1,1 0,-2.5A2.5,2.5 0 0,1 2.5,0Z" style="opacity: 1; stroke-width: 0px; fill: rgb(198, 53, 51); fill-opacity: 1;"/><path class="point" transform="translate(886.26,76.17)" d="M2.5,0A2.5,2.5 0 1,1 0,-2.5A2.5,2.5 0 0,1 2.5,0Z" style="opacity: 1; stroke-width: 0px; fill: rgb(198, 53, 51); fill-opacity: 1;"/><path class="point" transform="translate(896.02,77.24)" d="M2.5,0A2.5,2.5 0 1,1 0,-2.5A2.5,2.5 0 0,1 2.5,0Z" style="opacity: 1; stroke-width: 0px; fill: rgb(198, 53, 51); fill-opacity: 1;"/><path class="point" transform="translate(970.59,75.58)" d="M2.5,0A2.5,2.5 0 1,1 0,-2.5A2.5,2.5 0 0,1 2.5,0Z" style="opacity: 1; stroke-width: 0px; fill: rgb(198, 53, 51); fill-opacity: 1;"/><path class="point" transform="translate(1070.97,76.09)" d="M2.5,0A2.5,2.5 0 1,1 0,-2.5A2.5,2.5 0 0,1 2.5,0Z" style="opacity: 1; stroke-width: 0px; fill: rgb(198, 53, 51); fill-opacity: 1;"/><path class="point" transform="translate(1198.27,74.79)" d="M2.5,0A2.5,2.5 0 1,1 0,-2.5A2.5,2.5 0 0,1 2.5,0Z" style="opacity: 1; stroke-width: 0px; fill: rgb(198, 53, 51); fill-opacity: 1;"/></g></g><g class="trace violins" style="opacity: 1;"><path class="violin" d="M569.56,51.92L569.56,51.34Q578.41,51 582.84,50.72C587.27,50.44 591.71,50.11 596.13,49.64C600.56,49.17 604.99,48.62 609.41,47.92C613.85,47.21 618.28,46.37 622.69,45.4C627.13,44.42 631.56,43.29 635.97,42.08C640.41,40.86 644.84,39.47 649.26,38.09C653.69,36.71 658.11,35.2 662.54,33.81C666.96,32.42 671.38,30.98 675.82,29.74C680.23,28.51 684.65,27.33 689.1,26.38C693.51,25.44 697.95,24.65 702.39,24.05C706.81,23.45 711.24,23.07 715.67,22.79C720.09,22.51 724.52,22.41 728.95,22.35C733.38,22.29 737.81,22.34 742.24,22.42C746.67,22.5 751.09,22.63 755.52,22.82C759.95,23.01 764.38,23.23 768.8,23.57C773.23,23.91 777.66,24.33 782.08,24.88C786.52,25.43 790.95,26.11 795.37,26.88C799.81,27.66 804.23,28.59 808.65,29.54C813.08,30.49 817.5,31.55 821.93,32.56C826.36,33.57 830.79,34.63 835.22,35.6C839.64,36.56 844.07,37.5 848.5,38.35C852.92,39.2 857.35,39.98 861.78,40.7C866.2,41.42 870.63,42.07 875.06,42.68C879.49,43.29 883.92,43.84 888.35,44.38C892.78,44.92 897.2,45.42 901.63,45.9C906.06,46.38 910.48,46.84 914.91,47.27C919.34,47.7 923.76,48.11 928.19,48.48C932.62,48.85 937.05,49.19 941.48,49.48C945.91,49.77 950.33,50.02 954.76,50.21C959.19,50.4 963.61,50.55 968.04,50.63C972.47,50.71 976.9,50.74 981.33,50.71C985.76,50.68 990.18,50.59 994.61,50.47C999.04,50.35 1003.46,50.16 1007.89,49.97C1012.32,49.77 1016.74,49.52 1021.17,49.3C1025.6,49.07 1030.03,48.83 1034.46,48.62C1038.89,48.41 1043.31,48.2 1047.74,48.06C1052.17,47.92 1056.59,47.8 1061.02,47.76C1065.45,47.72 1069.87,47.73 1074.3,47.79C1078.73,47.85 1083.16,47.99 1087.59,48.15C1092.02,48.31 1096.44,48.53 1100.87,48.75C1105.3,48.97 1109.72,49.23 1114.15,49.47C1118.58,49.71 1123.01,49.97 1127.44,50.19C1131.87,50.41 1136.29,50.62 1140.72,50.8C1145.15,50.98 1149.57,51.13 1154,51.26Q1158.43,51.39 1167.28,51.57L1167.28,51.92" style="vector-effect: non-scaling-stroke; stroke-width: 2px; stroke: rgb(215, 48, 39); stroke-opacity: 1; fill: rgb(215, 48, 39); fill-opacity: 0.5;"/><g class="points"><path class="point" transform="translate(650.68,43.4)" d="M2.5,0A2.5,2.5 0 1,1 0,-2.5A2.5,2.5 0 0,1 2.5,0Z" style="opacity: 1; stroke-width: 0px; fill: rgb(215, 48, 39); fill-opacity: 1;"/><path class="point" transform="translate(673.65,49.43)" d="M2.5,0A2.5,2.5 0 1,1 0,-2.5A2.5,2.5 0 0,1 2.5,0Z" style="opacity: 1; stroke-width: 0px; fill: rgb(215, 48, 39); fill-opacity: 1;"/><path class="point" transform="translate(674.14,41.78)" d="M2.5,0A2.5,2.5 0 1,1 0,-2.5A2.5,2.5 0 0,1 2.5,0Z" style="opacity: 1; stroke-width: 0px; fill: rgb(215, 48, 39); fill-opacity: 1;"/><path class="point" transform="translate(692.42,50.83)" d="M2.5,0A2.5,2.5 0 1,1 0,-2.5A2.5,2.5 0 0,1 2.5,0Z" style="opacity: 1; stroke-width: 0px; fill: rgb(215, 48, 39); fill-opacity: 1;"/><path class="point" transform="translate(697.36,47.36)" d="M2.5,0A2.5,2.5 0 1,1 0,-2.5A2.5,2.5 0 0,1 2.5,0Z" style="opacity: 1; stroke-width: 0px; fill: rgb(215, 48, 39); fill-opacity: 1;"/><path class="point" transform="translate(697.85,43.13)" d="M2.5,0A2.5,2.5 0 1,1 0,-2.5A2.5,2.5 0 0,1 2.5,0Z" style="opacity: 1; stroke-width: 0px; fill: rgb(215, 48, 39); fill-opacity: 1;"/><path class="point" transform="translate(700.07,46.22)" d="M2.5,0A2.5,2.5 0 1,1 0,-2.5A2.5,2.5 0 0,1 2.5,0Z" style="opacity: 1; stroke-width: 0px; fill: rgb(215, 48, 39); fill-opacity: 1;"/><path class="point" transform="translate(706.74,44.35)" d="M2.5,0A2.5,2.5 0 1,1 0,-2.5A2.5,2.5 0 0,1 2.5,0Z" style="opacity: 1; stroke-width: 0px; fill: rgb(215, 48, 39); fill-opacity: 1;"/><path class="point" transform="translate(709.08,47.72)" d="M2.5,0A2.5,2.5 0 1,1 0,-2.5A2.5,2.5 0 0,1 2.5,0Z" style="opacity: 1; stroke-width: 0px; fill: rgb(215, 48, 39); fill-opacity: 1;"/><path class="point" transform="translate(720.81,50.05)" d="M2.5,0A2.5,2.5 0 1,1 0,-2.5A2.5,2.5 0 0,1 2.5,0Z" style="opacity: 1; stroke-width: 0px; fill: rgb(215, 48, 39); fill-opacity: 1;"/><path class="point" transform="translate(730.2,44.55)" d="M2.5,0A2.5,2.5 0 1,1 0,-2.5A2.5,2.5 0 0,1 2.5,0Z" style="opacity: 1; stroke-width: 0px; fill: rgb(215, 48, 39); fill-opacity: 1;"/><path class="point" transform="translate(741.56,47.79)" d="M2.5,0A2.5,2.5 0 1,1 0,-2.5A2.5,2.5 0 0,1 2.5,0Z" style="opacity: 1; stroke-width: 0px; fill: rgb(215, 48, 39); fill-opacity: 1;"/><path class="point" transform="translate(746.74,42.57)" d="M2.5,0A2.5,2.5 0 1,1 0,-2.5A2.5,2.5 0 0,1 2.5,0Z" style="opacity: 1; stroke-width: 0px; fill: rgb(215, 48, 39); fill-opacity: 1;"/><path class="point" transform="translate(774.89,51.25)" d="M2.5,0A2.5,2.5 0 1,1 0,-2.5A2.5,2.5 0 0,1 2.5,0Z" style="opacity: 1; stroke-width: 0px; fill: rgb(215, 48, 39); fill-opacity: 1;"/><path class="point" transform="translate(775.14,49.23)" d="M2.5,0A2.5,2.5 0 1,1 0,-2.5A2.5,2.5 0 0,1 2.5,0Z" style="opacity: 1; stroke-width: 0px; fill: rgb(215, 48, 39); fill-opacity: 1;"/><path class="point" transform="translate(777.86,40.95)" d="M2.5,0A2.5,2.5 0 1,1 0,-2.5A2.5,2.5 0 0,1 2.5,0Z" style="opacity: 1; stroke-width: 0px; fill: rgb(215, 48, 39); fill-opacity: 1;"/><path class="point" transform="translate(781.07,47.31)" d="M2.5,0A2.5,2.5 0 1,1 0,-2.5A2.5,2.5 0 0,1 2.5,0Z" style="opacity: 1; stroke-width: 0px; fill: rgb(215, 48, 39); fill-opacity: 1;"/><path class="point" transform="translate(787.49,50.03)" d="M2.5,0A2.5,2.5 0 1,1 0,-2.5A2.5,2.5 0 0,1 2.5,0Z" style="opacity: 1; stroke-width: 0px; fill: rgb(215, 48, 39); fill-opacity: 1;"/><path class="point" transform="translate(790.94,47.69)" d="M2.5,0A2.5,2.5 0 1,1 0,-2.5A2.5,2.5 0 0,1 2.5,0Z" style="opacity: 1; stroke-width: 0px; fill: rgb(215, 48, 39); fill-opacity: 1;"/><path class="point" transform="translate(797.37,46.09)" d="M2.5,0A2.5,2.5 0 1,1 0,-2.5A2.5,2.5 0 0,1 2.5,0Z" style="opacity: 1; stroke-width: 0px; fill: rgb(215, 48, 39); fill-opacity: 1;"/><path class="point" transform="translate(803.04,44.67)" d="M2.5,0A2.5,2.5 0 1,1 0,-2.5A2.5,2.5 0 0,1 2.5,0Z" style="opacity: 1; stroke-width: 0px; fill: rgb(215, 48, 39); fill-opacity: 1;"/><path class="point" transform="translate(828.73,45.69)" d="M2.5,0A2.5,2.5 0 1,1 0,-2.5A2.5,2.5 0 0,1 2.5,0Z" style="opacity: 1; stroke-width: 0px; fill: rgb(215, 48, 39); fill-opacity: 1;"/><path class="point" transform="translate(854.9,46.76)" d="M2.5,0A2.5,2.5 0 1,1 0,-2.5A2.5,2.5 0 0,1 2.5,0Z" style="opacity: 1; stroke-width: 0px; fill: rgb(215, 48, 39); fill-opacity: 1;"/><path class="point" transform="translate(866.26,48.12)" d="M2.5,0A2.5,2.5 0 1,1 0,-2.5A2.5,2.5 0 0,1 2.5,0Z" style="opacity: 1; stroke-width: 0px; fill: rgb(215, 48, 39); fill-opacity: 1;"/><path class="point" transform="translate(906.64,46.01)" d="M2.5,0A2.5,2.5 0 1,1 0,-2.5A2.5,2.5 0 0,1 2.5,0Z" style="opacity: 1; stroke-width: 0px; fill: rgb(215, 48, 39); fill-opacity: 1;"/><path class="point" transform="translate(1047.02,46.66)" d="M2.5,0A2.5,2.5 0 1,1 0,-2.5A2.5,2.5 0 0,1 2.5,0Z" style="opacity: 1; stroke-width: 0px; fill: rgb(215, 48, 39); fill-opacity: 1;"/><path class="point" transform="translate(1086.16,45)" d="M2.5,0A2.5,2.5 0 1,1 0,-2.5A2.5,2.5 0 0,1 2.5,0Z" style="opacity: 1; stroke-width: 0px; fill: rgb(215, 48, 39); fill-opacity: 1;"/></g></g></g></g><g class="overplot"/><path class="xlines-above crisp" d="M0,0" style="fill: none;"/><path class="ylines-above crisp" d="M0,0" style="fill: none;"/><g class="overlines-above"/><g class="xaxislayer-above"><g class="xtick"><text text-anchor="middle" x="0" y="460" transform="translate(159.39,0)" style="font-family: 'Open Sans', verdana, arial, sans-serif; font-size: 12px; fill: rgb(42, 63, 95); fill-opacity: 1; white-space: pre;">25</text></g><g class="xtick"><text text-anchor="middle" x="0" y="460" transform="translate(282.86,0)" style="font-family: 'Open Sans', verdana, arial, sans-serif; font-size: 12px; fill: rgb(42, 63, 95); fill-opacity: 1; white-space: pre;">20</text></g><g class="xtick"><text text-anchor="middle" x="0" y="460" transform="translate(406.33,0)" style="font-family: 'Open Sans', verdana, arial, sans-serif; font-size: 12px; fill: rgb(42, 63, 95); fill-opacity: 1; white-space: pre;">15</text></g><g class="xtick"><text text-anchor="middle" x="0" y="460" transform="translate(529.8,0)" style="font-family: 'Open Sans', verdana, arial, sans-serif; font-size: 12px; fill: rgb(42, 63, 95); fill-opacity: 1; white-space: pre;">10</text></g><g class="xtick"><text text-anchor="middle" x="0" y="460" transform="translate(653.27,0)" style="font-family: 'Open Sans', verdana, arial, sans-serif; font-size: 12px; fill: rgb(42, 63, 95); fill-opacity: 1; white-space: pre;">5</text></g><g class="xtick"><text text-anchor="middle" x="0" y="460" transform="translate(776.73,0)" style="font-family: 'Open Sans', verdana, arial, sans-serif; font-size: 12px; fill: rgb(42, 63, 95); fill-opacity: 1; white-space: pre;">0</text></g><g class="xtick"><text text-anchor="middle" x="0" y="460" transform="translate(900.2,0)" style="font-family: 'Open Sans', verdana, arial, sans-serif; font-size: 12px; fill: rgb(42, 63, 95); fill-opacity: 1; white-space: pre;">5</text></g><g class="xtick"><text text-anchor="middle" x="0" y="460" transform="translate(1023.67,0)" style="font-family: 'Open Sans', verdana, arial, sans-serif; font-size: 12px; fill: rgb(42, 63, 95); fill-opacity: 1; white-space: pre;">10</text></g><g class="xtick"><text text-anchor="middle" x="0" y="460" transform="translate(1147.14,0)" style="font-family: 'Open Sans', verdana, arial, sans-serif; font-size: 12px; fill: rgb(42, 63, 95); fill-opacity: 1; white-space: pre;">15</text></g><g class="xtick"><text text-anchor="middle" x="0" y="460" transform="translate(1270.61,0)" style="font-family: 'Open Sans', verdana, arial, sans-serif; font-size: 12px; fill: rgb(42, 63, 95); fill-opacity: 1; white-space: pre;">20</text></g></g><g class="yaxislayer-above"><g class="ytick"><text text-anchor="end" x="109" y="4.199999999999999" transform="translate(0,427.15)" style="font-family: 'Open Sans', verdana, arial, sans-serif; font-size: 12px; fill: rgb(42, 63, 95); fill-opacity: 1; white-space: pre;">Sample 134-1_H4</text></g><g class="ytick"><text text-anchor="end" x="109" y="4.199999999999999" transform="translate(0,397.58)" style="font-family: 'Open Sans', verdana, arial, sans-serif; font-size: 12px; fill: rgb(42, 63, 95); fill-opacity: 1; white-space: pre;">Sample 80-1_H3</text></g><g class="ytick"><text text-anchor="end" x="109" y="4.199999999999999" transform="translate(0,368.02)" style="font-family: 'Open Sans', verdana, arial, sans-serif; font-size: 12px; fill: rgb(42, 63, 95); fill-opacity: 1; white-space: pre;">Sample 134-2_A5</text></g><g class="ytick"><text text-anchor="end" x="109" y="4.199999999999999" transform="translate(0,338.45)" style="font-family: 'Open Sans', verdana, arial, sans-serif; font-size: 12px; fill: rgb(42, 63, 95); fill-opacity: 1; white-space: pre;">Sample 11-1_A3</text></g><g class="ytick"><text text-anchor="end" x="109" y="4.199999999999999" transform="translate(0,308.88)" style="font-family: 'Open Sans', verdana, arial, sans-serif; font-size: 12px; fill: rgb(42, 63, 95); fill-opacity: 1; white-space: pre;">Sample 4-1_B2</text></g><g class="ytick"><text text-anchor="end" x="109" y="4.199999999999999" transform="translate(0,279.32)" style="font-family: 'Open Sans', verdana, arial, sans-serif; font-size: 12px; fill: rgb(42, 63, 95); fill-opacity: 1; white-space: pre;">Sample 131-1_F4</text></g><g class="ytick"><text text-anchor="end" x="109" y="4.199999999999999" transform="translate(0,249.75)" style="font-family: 'Open Sans', verdana, arial, sans-serif; font-size: 12px; fill: rgb(42, 63, 95); fill-opacity: 1; white-space: pre;">Sample 79-2_G3</text></g><g class="ytick"><text text-anchor="end" x="109" y="4.199999999999999" transform="translate(0,220.18)" style="font-family: 'Open Sans', verdana, arial, sans-serif; font-size: 12px; fill: rgb(42, 63, 95); fill-opacity: 1; white-space: pre;">Sample 69-1_F3</text></g><g class="ytick"><text text-anchor="end" x="109" y="4.199999999999999" transform="translate(0,190.62)" style="font-family: 'Open Sans', verdana, arial, sans-serif; font-size: 12px; fill: rgb(42, 63, 95); fill-opacity: 1; white-space: pre;">Sample 7-1_E2</text></g><g class="ytick"><text text-anchor="end" x="109" y="4.199999999999999" transform="translate(0,161.05)" style="font-family: 'Open Sans', verdana, arial, sans-serif; font-size: 12px; fill: rgb(42, 63, 95); fill-opacity: 1; white-space: pre;">Sample 7-2_F2</text></g><g class="ytick"><text text-anchor="end" x="109" y="4.199999999999999" transform="translate(0,131.48000000000002)" style="font-family: 'Open Sans', verdana, arial, sans-serif; font-size: 12px; fill: rgb(42, 63, 95); fill-opacity: 1; white-space: pre;">Sample 117-2_C4</text></g><g class="ytick"><text text-anchor="end" x="109" y="4.199999999999999" transform="translate(0,101.92)" style="font-family: 'Open Sans', verdana, arial, sans-serif; font-size: 12px; fill: rgb(42, 63, 95); fill-opacity: 1; white-space: pre;">Sample 4-2_B2</text></g></g><g class="overaxes-above"/></g></g><g class="polarlayer"/><g class="ternarylayer"/><g class="geolayer"/><g class="funnelarealayer"/><g class="pielayer"/><g class="treemaplayer"/><g class="sunburstlayer"/><g class="glimages"/><defs id="topdefs-c86532"><g class="clips"/></defs><g class="layer-above"><g class="imagelayer"/><g class="shapelayer"/></g><g class="infolayer"><g class="g-gtitle"/><g class="g-xtitle"><text class="xtitle" x="715" y="487.8" text-anchor="middle" style="font-family: 'Open Sans', verdana, arial, sans-serif; font-size: 14px; fill: rgb(42, 63, 95); opacity: 1; font-weight: normal; white-space: pre;">CpG median log likelihood ratio</text></g><g class="g-ytitle"/><g class="annotation" data-index="0" style="opacity: 1;"><g class="annotation-text-g" transform="rotate(0,776.73,35.17999999999998)"><g class="cursor-pointer" transform="translate(745, 26)"><rect class="bg" x="0.5" y="0.5" width="63" height="17" style="stroke-width: 1px; stroke: rgb(0, 0, 0); stroke-opacity: 0; fill: rgb(0, 0, 0); fill-opacity: 0;"/><text class="annotation-text" text-anchor="middle" x="32.03125" y="13" style="font-family: 'Open Sans', verdana, arial, sans-serif; font-size: 12px; fill: rgb(100, 100, 100); fill-opacity: 1; white-space: pre;">Ambiguous</text></g></g></g><g class="annotation" data-index="1" style="opacity: 1;"><g class="annotation-text-g" transform="rotate(0,431.02,35.17999999999998)"><g class="cursor-pointer" transform="translate(392, 26)"><rect class="bg" x="0.5" y="0.5" width="77" height="17" style="stroke-width: 1px; stroke: rgb(0, 0, 0); stroke-opacity: 0; fill: rgb(0, 0, 0); fill-opacity: 0;"/><text class="annotation-text" text-anchor="middle" x="39.03125" y="13" style="font-family: 'Open Sans', verdana, arial, sans-serif; font-size: 12px; fill: rgb(33, 102, 172); fill-opacity: 1; white-space: pre;">Unmethylated</text></g></g></g><g class="annotation" data-index="2" style="opacity: 1;"><g class="annotation-text-g" transform="rotate(0,1060.71,35.17999999999998)"><g class="cursor-pointer" transform="translate(1029, 26)"><rect class="bg" x="0.5" y="0.5" width="62" height="17" style="stroke-width: 1px; stroke: rgb(0, 0, 0); stroke-opacity: 0; fill: rgb(0, 0, 0); fill-opacity: 0;"/><text class="annotation-text" text-anchor="middle" x="31.359375" y="13" style="font-family: 'Open Sans', verdana, arial, sans-serif; font-size: 12px; fill: rgb(215, 48, 39); fill-opacity: 1; white-space: pre;">Methylated</text></g></g></g></g></svg>