<svg class="main-svg" xmlns="http://www.w3.org/2000/svg" xmlns:xlink="http://www.w3.org/1999/xlink" width="1000" height="500" style="" viewBox="0 0 1000 500"><rect x="0" y="0" width="1000" height="500" style="fill: rgb(255, 255, 255); fill-opacity: 1;"/><defs id="defs-51ee30"><g class="clips"><clipPath id="clip51ee30xyplot" class="plotclip"><rect width="767" height="397"/></clipPath><clipPath class="axesclip" id="clip51ee30x"><rect x="80" y="0" width="767" height="500"/></clipPath><clipPath class="axesclip" id="clip51ee30y"><rect x="0" y="50" width="1000" height="397"/></clipPath><clipPath class="axesclip" id="clip51ee30xy"><rect x="80" y="50" width="767" height="397"/></clipPath></g><g class="gradients"/></defs><g class="bglayer"><rect class="bg" x="80" y="50" width="767" height="397" style="fill: rgb(0, 0, 0); fill-opacity: 0; stroke-width: 0;"/></g><g class="layer-below"><g class="imagelayer"/><g class="shapelayer"/></g><g class="cartesianlayer"><g class="subplot xy"><g class="layer-subplot"><g class="shapelayer"/><g class="imagelayer"/></g><g class="gridlayer"><g class="x"/><g class="y"><path class="ygrid crisp" transform="translate(0,401.15)" d="M80,0h767" style="stroke: rgb(211, 211, 211); stroke-opacity: 1; stroke-width: 1px;"/><path class="ygrid crisp" transform="translate(0,355.3)" d="M80,0h767" style="stroke: rgb(211, 211, 211); stroke-opacity: 1; stroke-width: 1px;"/><path class="ygrid crisp" transform="translate(0,309.45)" d="M80,0h767" style="stroke: rgb(211, 211, 211); stroke-opacity: 1; stroke-width: 1px;"/><path class="ygrid crisp" transform="translate(0,263.6)" d="M80,0h767" style="stroke: rgb(211, 211, 211); stroke-opacity: 1; stroke-width: 1px;"/><path class="ygrid crisp" transform="translate(0,217.75)" d="M80,0h767" style="stroke: rgb(211, 211, 211); stroke-opacity: 1; stroke-width: 1px;"/><path class="ygrid crisp" transform="translate(0,171.91)" d="M80,0h767" style="stroke: rgb(211, 211, 211); stroke-opacity: 1; stroke-width: 1px;"/><path class="ygrid crisp" transform="translate(0,126.06)" d="M80,0h767" style="stroke: rgb(211, 211, 211); stroke-opacity: 1; stroke-width: 1px;"/><path class="ygrid crisp" transform="translate(0,80.21000000000001)" d="M80,0h767" style="stroke: rgb(211, 211, 211); stroke-opacity: 1; stroke-width: 1px;"/></g></g><g class="zerolinelayer"><path class="xzl zl crisp" transform="translate(463.5,0)" d="M0,50v397" style="stroke: rgb(169, 169, 169); stroke-opacity: 1; stroke-width: 2px;"/><path class="yzl zl crisp" transform="translate(0,447)" d="M80,0h767" style="stroke: rgb(255, 255, 255); stroke-opacity: 1; stroke-width: 2px;"/></g><path class="xlines-below"/><path class="ylines-below"/><g class="overlines-below"/><g class="xaxislayer-below"/><g class="yaxislayer-below"/><g class="overaxes-below"/><g class="plot" transform="translate(80, 50)" clip-path="url('#clip51ee30xyplot')"><g class="scatterlayer mlayer"><g class="trace scatter tracedd9356" style="stroke-miterlimit: 2;"><g class="fills"><g><path class="js-fill" d="M767,397L0,397L0,381.88L16.14,382.97L16.91,383.13L23.06,383.84L23.82,383.77L34.58,382.8L35.35,382.88L43.81,383.16L44.58,383.12L49.95,383.45L50.72,383.64L59.18,385.81L59.95,385.72L68.4,384.65L69.17,384.78L74.55,385.12L75.32,384.91L80.7,382.13L81.46,381.77L85.31,381L86.08,381.05L96.84,382.98L97.6,383.19L110.67,387.55L111.44,387.55L116.05,386.66L116.82,386.37L126.81,382.91L127.58,382.8L142.18,381.75L142.95,381.85L149.1,383.73L149.86,384.06L156.01,386.19L156.78,386.25L160.62,385.61L161.39,385.31L169.85,382.33L170.62,382.32L176.76,382.09L177.53,381.8L181.37,379.14L182.14,378.48L185.99,376.04L186.75,375.91L189.06,376.43L189.83,376.88L197.51,382.4L198.28,382.48L201.36,381.56L202.13,381.08L212.12,374.27L212.88,374.05L219.03,373.36L219.8,373.3L225.95,373.24L226.72,373.46L229.79,375.25L230.56,375.91L240.55,385.77L241.32,386.14L245.16,386.92L245.93,386.96L259,387.16L259.77,386.91L265.15,384.1L265.91,383.62L271.29,380.95L272.06,380.75L280.52,378.69L281.28,378.17L289.74,372.29L290.51,372.17L294.35,372.59L295.12,372.78L305.11,375.78L305.88,376.2L312.79,379.73L313.56,379.78L315.87,379.15L316.64,378.68L321.25,374.4L322.02,373.69L325.09,371.97L325.86,371.93L328.17,372.9L328.93,373.58L332.78,378.69L333.55,379.83L337.39,384.36L338.16,384.88L341.23,385.58L342,385.46L347.38,383.31L348.15,382.99L354.3,381.22L355.06,381.13L363.52,380.59L364.29,379.98L365.82,377.49L366.59,375.32L368.13,368.17L368.9,362.73L371.2,335.81L371.97,322.5L375.05,244.4L375.81,219.27L381.19,45.8L381.96,31.93L383.5,19.85L384.27,22.18L385.81,43L386.57,60.5L390.42,185.53L391.19,211.6L395.03,312.41L395.8,325.35L398.1,351.63L398.87,357.09L401.18,367.23L401.94,369.26L405.02,374.34L405.79,375.24L411.94,380.7L412.7,381.26L419.62,385.34L420.39,385.58L423.46,385.68L424.23,385.45L428.08,383.12L428.84,382.51L434.22,379.14L434.99,378.91L451.9,375.85L452.67,375.9L456.51,377.17L457.28,377.58L462.66,380.13L463.43,380.17L465.73,379.44L466.5,378.92L474.19,372.06L474.96,371.91L477.26,372.55L478.03,373.11L481.1,376.7L481.87,377.83L488.79,387.54L489.56,388.15L491.86,388.99L492.63,388.91L494.94,387.71L495.71,387.04L502.62,380.98L503.39,380.75L506.47,380.92L507.23,381.15L513.38,382.55L514.15,382.54L521.84,382.72L522.61,382.92L527.98,385.28L528.75,385.72L537.98,390.59L538.74,390.72L541.82,390.33L542.59,389.97L545.66,387.46L546.43,386.57L555.65,374.36L556.42,373.94L558.73,373.78L559.49,374.08L563.34,377.17L564.11,377.87L567.95,380.28L568.72,380.47L572.56,380.35L573.33,380.25L578.71,380.14L579.48,380.21L588.7,382.01L589.47,382.29L594.08,383.49L594.85,383.46L597.92,382.21L598.69,381.62L603.3,376.61L604.07,375.75L607.14,373.18L607.91,372.86L610.22,372.91L610.99,373.24L614.06,375.9L614.83,376.79L620.98,383.36L621.75,383.86L624.82,384.83L625.59,384.84L629.43,383.74L630.2,383.31L633.27,380.77L634.04,379.9L637.89,374.06L638.65,372.65L644.8,362.63L645.57,362.01L647.88,361.6L648.65,361.98L650.95,364.6L651.72,365.9L657.1,377.71L657.87,379.36L661.71,385.83L662.48,386.72L665.55,389L666.32,389.31L670.16,389.83L670.93,389.78L675.54,388.7L676.31,388.4L686.3,384.51L687.07,384.42L694.76,383.28L695.53,382.94L703.98,378.95L704.75,379.02L707.82,380.32L708.59,380.84L714.74,384.37L715.51,384.52L720.12,384.34L720.89,384.25L727.04,384.42L727.8,384.55L734.72,386.7L735.49,387.02L741.64,388.87L742.41,388.91L747.02,388.08L747.79,387.81L761.62,382.74L762.39,382.69L767,382.67" style="fill: rgb(215, 48, 39); fill-opacity: 0.5; stroke-width: 0;"/></g></g><g class="errorbars"/><g class="lines"><path class="js-line" d="M0,381.88L16.14,382.97L16.91,383.13L23.06,383.84L23.82,383.77L34.58,382.8L35.35,382.88L43.81,383.16L44.58,383.12L49.95,383.45L50.72,383.64L59.18,385.81L59.95,385.72L68.4,384.65L69.17,384.78L74.55,385.12L75.32,384.91L80.7,382.13L81.46,381.77L85.31,381L86.08,381.05L96.84,382.98L97.6,383.19L110.67,387.55L111.44,387.55L116.05,386.66L116.82,386.37L126.81,382.91L127.58,382.8L142.18,381.75L142.95,381.85L149.1,383.73L149.86,384.06L156.01,386.19L156.78,386.25L160.62,385.61L161.39,385.31L169.85,382.33L170.62,382.32L176.76,382.09L177.53,381.8L181.37,379.14L182.14,378.48L185.99,376.04L186.75,375.91L189.06,376.43L189.83,376.88L197.51,382.4L198.28,382.48L201.36,381.56L202.13,381.08L212.12,374.27L212.88,374.05L219.03,373.36L219.8,373.3L225.95,373.24L226.72,373.46L229.79,375.25L230.56,375.91L240.55,385.77L241.32,386.14L245.16,386.92L245.93,386.96L259,387.16L259.77,386.91L265.15,384.1L265.91,383.62L271.29,380.95L272.06,380.75L280.52,378.69L281.28,378.17L289.74,372.29L290.51,372.17L294.35,372.59L295.12,372.78L305.11,375.78L305.88,376.2L312.79,379.73L313.56,379.78L315.87,379.15L316.64,378.68L321.25,374.4L322.02,373.69L325.09,371.97L325.86,371.93L328.17,372.9L328.93,373.58L332.78,378.69L333.55,379.83L337.39,384.36L338.16,384.88L341.23,385.58L342,385.46L347.38,383.31L348.15,382.99L354.3,381.22L355.06,381.13L363.52,380.59L364.29,379.98L365.82,377.49L366.59,375.32L368.13,368.17L368.9,362.73L371.2,335.81L371.97,322.5L375.05,244.4L375.81,219.27L381.19,45.8L381.96,31.93L383.5,19.85L384.27,22.18L385.81,43L386.57,60.5L390.42,185.53L391.19,211.6L395.03,312.41L395.8,325.35L398.1,351.63L398.87,357.09L401.18,367.23L401.94,369.26L405.02,374.34L405.79,375.24L411.94,380.7L412.7,381.26L419.62,385.34L420.39,385.58L423.46,385.68L424.23,385.45L428.08,383.12L428.84,382.51L434.22,379.14L434.99,378.91L451.9,375.85L452.67,375.9L456.51,377.17L457.28,377.58L462.66,380.13L463.43,380.17L465.73,379.44L466.5,378.92L474.19,372.06L474.96,371.91L477.26,372.55L478.03,373.11L481.1,376.7L481.87,377.83L488.79,387.54L489.56,388.15L491.86,388.99L492.63,388.91L494.94,387.71L495.71,387.04L502.62,380.98L503.39,380.75L506.47,380.92L507.23,381.15L513.38,382.55L514.15,382.54L521.84,382.72L522.61,382.92L527.98,385.28L528.75,385.72L537.98,390.59L538.74,390.72L541.82,390.33L542.59,389.97L545.66,387.46L546.43,386.57L555.65,374.36L556.42,373.94L558.73,373.78L559.49,374.08L563.34,377.17L564.11,377.87L567.95,380.28L568.72,380.47L572.56,380.35L573.33,380.25L578.71,380.14L579.48,380.21L588.7,382.01L589.47,382.29L594.08,383.49L594.85,383.46L597.92,382.21L598.69,381.62L603.3,376.61L604.07,375.75L607.14,373.18L607.91,372.86L610.22,372.91L610.99,373.24L614.06,375.9L614.83,376.79L620.98,383.36L621.75,383.86L624.82,384.83L625.59,384.84L629.43,383.74L630.2,383.31L633.27,380.77L634.04,379.9L637.89,374.06L638.65,372.65L644.8,362.63L645.57,362.01L647.88,361.6L648.65,361.98L650.95,364.6L651.72,365.9L657.1,377.71L657.87,379.36L661.71,385.83L662.48,386.72L665.55,389L666.32,389.31L670.16,389.83L670.93,389.78L675.54,388.7L676.31,388.4L686.3,384.51L687.07,384.42L694.76,383.28L695.53,382.94L703.98,378.95L704.75,379.02L707.82,380.32L708.59,380.84L714.74,384.37L715.51,384.52L720.12,384.34L720.89,384.25L727.04,384.42L727.8,384.55L734.72,386.7L735.49,387.02L741.64,388.87L742.41,388.91L747.02,388.08L747.79,387.81L761.62,382.74L762.39,382.69L767,382.67" style="vector-effect: non-scaling-stroke; fill: none; stroke: rgb(215, 48, 39); stroke-opacity: 0.5; stroke-width: 2px; opacity: 1;"/></g><g class="points"/><g class="text"/></g><g class="trace scatter trace60c8ee" style="stroke-miterlimit: 2;"><g class="fills"><g><path class="js-fill" d="M767,397L0,397L0,380.39L4.61,381.24L5.38,381.5L19.21,386.33L19.98,386.39L24.59,385.76L25.36,385.49L36.12,381.9L36.89,381.76L47.65,379L48.42,378.7L57.64,375.12L58.41,375.27L61.48,377.01L62.25,377.67L68.4,382.31L69.17,382.53L72.24,382.31L73.01,382.01L76.85,379.39L77.62,378.7L85.31,372.47L86.08,372.27L88.38,372.47L89.15,372.8L93.76,376.19L94.53,376.73L97.6,377.92L98.37,377.94L102.98,376.83L103.75,376.67L106.83,376.91L107.6,377.23L111.44,380.27L112.21,381.03L116.05,384.06L116.82,384.32L119.12,383.99L119.89,383.5L122.97,379.79L123.73,378.54L129.88,369.51L130.65,368.96L132.96,368.34L133.73,368.46L136.8,370.11L137.57,370.71L145.25,376.34L146.02,376.64L149.1,376.98L149.86,376.83L153.71,375.04L154.48,374.57L159.86,372L160.62,371.79L166,371.27L166.77,371.39L169.85,372.72L170.62,373.28L179.07,380.07L179.84,380.35L184.45,380.96L185.22,380.99L190.6,381.98L191.37,382.28L199.82,385.35L200.59,385.37L205.2,384.47L205.97,384.23L214.42,382.2L215.19,382.11L221.34,380.65L222.11,380.34L227.49,378.84L228.26,378.89L232.1,380.3L232.87,380.75L243.63,386.61L244.39,386.93L249.77,388.31L250.54,388.31L254.39,387.31L255.15,386.93L267.45,380.52L268.22,380.38L272.83,380.48L273.6,380.66L283.59,383.23L284.36,383.15L293.58,381.62L294.35,381.78L299.73,384L300.5,384.33L304.34,385.19L305.11,385.11L308.18,383.86L308.95,383.32L314.33,378.23L315.1,377.45L321.25,372.09L322.02,371.68L324.32,371.21L325.09,371.36L327.4,372.87L328.17,373.7L337.39,385.68L338.16,386.04L340.46,386.21L341.23,386L345.07,383.51L345.84,382.87L350.45,379.84L351.22,379.64L354.3,379.95L355.06,380.26L361.21,382.85L361.98,382.78L364.29,381.26L365.06,380.14L367.36,373.87L368.13,370.44L370.43,354.12L371.2,346.16L373.51,313L374.28,298.75L381.96,141.75L382.73,136L383.5,133.89L384.27,135.48L385.81,149.28L386.57,160.85L390.42,243.59L391.19,260.93L395.03,329.12L395.8,338.16L398.87,361.36L399.64,364.71L401.94,371.24L402.71,372.62L405.79,375.89L406.56,376.29L408.86,376.62L409.63,376.38L412.7,373.99L413.47,373.08L420.39,365.09L421.16,364.81L423.46,365.25L424.23,365.81L427.31,369.7L428.08,370.95L434.99,381.29L435.76,382.01L438.83,383.7L439.6,383.83L442.68,383.39L443.45,383.08L448.83,379.88L449.59,379.33L458.82,372.93L459.59,372.72L462.66,372.81L463.43,373.03L469.58,376.12L470.34,376.55L477.26,379.72L478.03,379.89L483.41,380.01L484.18,379.99L489.56,380.6L490.33,380.75L494.94,381.12L495.71,381.02L501.09,379.24L501.85,378.93L506.47,377.69L507.23,377.65L511.85,378.3L512.61,378.49L526.45,382.2L527.22,382.6L532.6,384.72L533.36,384.78L536.44,384.24L537.21,383.91L541.82,380.9L542.59,380.3L548.74,376.18L549.5,375.95L552.58,376.25L553.35,376.65L557.19,380.12L557.96,380.97L562.57,385.28L563.34,385.72L566.41,386.45L567.18,386.4L571.79,385.06L572.56,384.78L583.32,380.76L584.09,380.12L589.47,374.17L590.24,373.3L594.08,369.98L594.85,369.59L597.92,368.96L598.69,369.01L603.3,370.32L604.07,370.63L619.44,376.25L620.21,376.29L624.05,375.58L624.82,375.35L629.43,374.7L630.2,374.8L644.03,378.28L644.8,378.64L650.95,380.85L651.72,380.8L654.79,379.64L655.56,379.15L664.02,373.65L664.78,373.45L668.63,373.56L669.4,373.77L677.85,375.9L678.62,375.81L687.07,374.38L687.84,374.67L690.91,376.93L691.68,377.73L699.37,385.48L700.14,385.87L703.21,386.39L703.98,386.29L707.82,384.78L708.59,384.36L717.81,379.94L718.58,379.67L723.96,378.43L724.73,378.45L727.8,379.39L728.57,379.83L735.49,383.76L736.26,383.79L739.33,382.71L740.1,382.2L747.79,377.46L748.56,377.27L753.17,377.11L753.93,377.2L767,379.28" style="fill: rgb(33, 102, 172); fill-opacity: 0.5; stroke-width: 0;"/></g></g><g class="errorbars"/><g class="lines"><path class="js-line" d="M0,380.39L4.61,381.24L5.38,381.5L19.21,386.33L19.98,386.39L24.59,385.76L25.36,385.49L36.12,381.9L36.89,381.76L47.65,379L48.42,378.7L57.64,375.12L58.41,375.27L61.48,377.01L62.25,377.67L68.4,382.31L69.17,382.53L72.24,382.31L73.01,382.01L76.85,379.39L77.62,378.7L85.31,372.47L86.08,372.27L88.38,372.47L89.15,372.8L93.76,376.19L94.53,376.73L97.6,377.92L98.37,377.94L102.98,376.83L103.75,376.67L106.83,376.91L107.6,377.23L111.44,380.27L112.21,381.03L116.05,384.06L116.82,384.32L119.12,383.99L119.89,383.5L122.97,379.79L123.73,378.54L129.88,369.51L130.65,368.96L132.96,368.34L133.73,368.46L136.8,370.11L137.57,370.71L145.25,376.34L146.02,376.64L149.1,376.98L149.86,376.83L153.71,375.04L154.48,374.57L159.86,372L160.62,371.79L166,371.27L166.77,371.39L169.85,372.72L170.62,373.28L179.07,380.07L179.84,380.35L184.45,380.96L185.22,380.99L190.6,381.98L191.37,382.28L199.82,385.35L200.59,385.37L205.2,384.47L205.97,384.23L214.42,382.2L215.19,382.11L221.34,380.65L222.11,380.34L227.49,378.84L228.26,378.89L232.1,380.3L232.87,380.75L243.63,386.61L244.39,386.93L249.77,388.31L250.54,388.31L254.39,387.31L255.15,386.93L267.45,380.52L268.22,380.38L272.83,380.48L273.6,380.66L283.59,383.23L284.36,383.15L293.58,381.62L294.35,381.78L299.73,384L300.5,384.33L304.34,385.19L305.11,385.11L308.18,383.86L308.95,383.32L314.33,378.23L315.1,377.45L321.25,372.09L322.02,371.68L324.32,371.21L325.09,371.36L327.4,372.87L328.17,373.7L337.39,385.68L338.16,386.04L340.46,386.21L341.23,386L345.07,383.51L345.84,382.87L350.45,379.84L351.22,379.64L354.3,379.95L355.06,380.26L361.21,382.85L361.98,382.78L364.29,381.26L365.06,380.14L367.36,373.87L368.13,370.44L370.43,354.12L371.2,346.16L373.51,313L374.28,298.75L381.96,141.75L382.73,136L383.5,133.89L384.27,135.48L385.81,149.28L386.57,160.85L390.42,243.59L391.19,260.93L395.03,329.12L395.8,338.16L398.87,361.36L399.64,364.71L401.94,371.24L402.71,372.62L405.79,375.89L406.56,376.29L408.86,376.62L409.63,376.38L412.7,373.99L413.47,373.08L420.39,365.09L421.16,364.81L423.46,365.25L424.23,365.81L427.31,369.7L428.08,370.95L434.99,381.29L435.76,382.01L438.83,383.7L439.6,383.83L442.68,383.39L443.45,383.08L448.83,379.88L449.59,379.33L458.82,372.93L459.59,372.72L462.66,372.81L463.43,373.03L469.58,376.12L470.34,376.55L477.26,379.72L478.03,379.89L483.41,380.01L484.18,379.99L489.56,380.6L490.33,380.75L494.94,381.12L495.71,381.02L501.09,379.24L501.85,378.93L506.47,377.69L507.23,377.65L511.85,378.3L512.61,378.49L526.45,382.2L527.22,382.6L532.6,384.72L533.36,384.78L536.44,384.24L537.21,383.91L541.82,380.9L542.59,380.3L548.74,376.18L549.5,375.95L552.58,376.25L553.35,376.65L557.19,380.12L557.96,380.97L562.57,385.28L563.34,385.72L566.41,386.45L567.18,386.4L571.79,385.06L572.56,384.78L583.32,380.76L584.09,380.12L589.47,374.17L590.24,373.3L594.08,369.98L594.85,369.59L597.92,368.96L598.69,369.01L603.3,370.32L604.07,370.63L619.44,376.25L620.21,376.29L624.05,375.58L624.82,375.35L629.43,374.7L630.2,374.8L644.03,378.28L644.8,378.64L650.95,380.85L651.72,380.8L654.79,379.64L655.56,379.15L664.02,373.65L664.78,373.45L668.63,373.56L669.4,373.77L677.85,375.9L678.62,375.81L687.07,374.38L687.84,374.67L690.91,376.93L691.68,377.73L699.37,385.48L700.14,385.87L703.21,386.39L703.98,386.29L707.82,384.78L708.59,384.36L717.81,379.94L718.58,379.67L723.96,378.43L724.73,378.45L727.8,379.39L728.57,379.83L735.49,383.76L736.26,383.79L739.33,382.71L740.1,382.2L747.79,377.46L748.56,377.27L753.17,377.11L753.93,377.2L767,379.28" style="vector-effect: non-scaling-stroke; fill: none; stroke: rgb(33, 102, 172); stroke-opacity: 0.5; stroke-width: 2px; opacity: 1;"/></g><g class="points"/><g class="text"/></g></g></g><g class="overplot"/><path class="xlines-above crisp" d="M0,0" style="fill: none;"/><path class="ylines-above crisp" d="M0,0" style="fill: none;"/><g class="overlines-above"/><g class="xaxislayer-above"><g class="xtick"><text text-anchor="middle" x="0" y="460" transform="translate(156.39,0)" style="font-family: 'Open Sans', verdana, arial, sans-serif; font-size: 12px; fill: rgb(42, 63, 95); fill-opacity: 1; white-space: pre;">−800</text></g><g class="xtick"><text text-anchor="middle" x="0" y="460" transform="translate(233.17,0)" style="font-family: 'Open Sans', verdana, arial, sans-serif; font-size: 12px; fill: rgb(42, 63, 95); fill-opacity: 1; white-space: pre;">−600</text></g><g class="xtick"><text text-anchor="middle" x="0" y="460" transform="translate(309.95,0)" style="font-family: 'Open Sans', verdana, arial, sans-serif; font-size: 12px; fill: rgb(42, 63, 95); fill-opacity: 1; white-space: pre;">−400</text></g><g class="xtick"><text text-anchor="middle" x="0" y="460" transform="translate(386.72,0)" style="font-family: 'Open Sans', verdana, arial, sans-serif; font-size: 12px; fill: rgb(42, 63, 95); fill-opacity: 1; white-space: pre;">−200</text></g><g class="xtick"><text text-anchor="middle" x="0" y="460" transform="translate(463.5,0)" style="font-family: 'Open Sans', verdana, arial, sans-serif; font-size: 12px; fill: rgb(42, 63, 95); fill-opacity: 1; white-space: pre;">0</text></g><g class="xtick"><text text-anchor="middle" x="0" y="460" transform="translate(540.28,0)" style="font-family: 'Open Sans', verdana, arial, sans-serif; font-size: 12px; fill: rgb(42, 63, 95); fill-opacity: 1; white-space: pre;">200</text></g><g class="xtick"><text text-anchor="middle" x="0" y="460" transform="translate(617.05,0)" style="font-family: 'Open Sans', verdana, arial, sans-serif; font-size: 12px; fill: rgb(42, 63, 95); fill-opacity: 1; white-space: pre;">400</text></g><g class="xtick"><text text-anchor="middle" x="0" y="460" transform="translate(693.83,0)" style="font-family: 'Open Sans', verdana, arial, sans-serif; font-size: 12px; fill: rgb(42, 63, 95); fill-opacity: 1; white-space: pre;">600</text></g><g class="xtick"><text text-anchor="middle" x="0" y="460" transform="translate(770.61,0)" style="font-family: 'Open Sans', verdana, arial, sans-serif; font-size: 12px; fill: rgb(42, 63, 95); fill-opacity: 1; white-space: pre;">800</text></g></g><g class="yaxislayer-above"><g class="ytick"><text text-anchor="end" x="79" y="4.199999999999999" transform="translate(0,447)" style="font-family: 'Open Sans', verdana, arial, sans-serif; font-size: 12px; fill: rgb(42, 63, 95); fill-opacity: 1; white-space: pre;">0</text></g><g class="ytick"><text text-anchor="end" x="79" y="4.199999999999999" transform="translate(0,401.15)" style="font-family: 'Open Sans', verdana, arial, sans-serif; font-size: 12px; fill: rgb(42, 63, 95); fill-opacity: 1; white-space: pre;">0.002</text></g><g class="ytick"><text text-anchor="end" x="79" y="4.199999999999999" transform="translate(0,355.3)" style="font-family: 'Open Sans', verdana, arial, sans-serif; font-size: 12px; fill: rgb(42, 63, 95); fill-opacity: 1; white-space: pre;">0.004</text></g><g class="ytick"><text text-anchor="end" x="79" y="4.199999999999999" transform="translate(0,309.45)" style="font-family: 'Open Sans', verdana, arial, sans-serif; font-size: 12px; fill: rgb(42, 63, 95); fill-opacity: 1; white-space: pre;">0.006</text></g><g class="ytick"><text text-anchor="end" x="79" y="4.199999999999999" transform="translate(0,263.6)" style="font-family: 'Open Sans', verdana, arial, sans-serif; font-size: 12px; fill: rgb(42, 63, 95); fill-opacity: 1; white-space: pre;">0.008</text></g><g class="ytick"><text text-anchor="end" x="79" y="4.199999999999999" transform="translate(0,217.75)" style="font-family: 'Open Sans', verdana, arial, sans-serif; font-size: 12px; fill: rgb(42, 63, 95); fill-opacity: 1; white-space: pre;">0.01</text></g><g class="ytick"><text text-anchor="end" x="79" y="4.199999999999999" transform="translate(0,171.91)" style="font-family: 'Open Sans', verdana, arial, sans-serif; font-size: 12px; fill: rgb(42, 63, 95); fill-opacity: 1; white-space: pre;">0.012</text></g><g class="ytick"><text text-anchor="end" x="79" y="4.199999999999999" transform="translate(0,126.06)" style="font-family: 'Open Sans', verdana, arial, sans-serif; font-size: 12px; fill: rgb(42, 63, 95); fill-opacity: 1; white-space: pre;">0.014</text></g><g class="ytick"><text text-anchor="end" x="79" y="4.199999999999999" transform="translate(0,80.21000000000001)" style="font-family: 'Open Sans', verdana, arial, sans-serif; font-size: 12px; fill: rgb(42, 63, 95); fill-opacity: 1; white-space: pre;">0.016</text></g></g><g class="overaxes-above"/></g></g><g class="polarlayer"/><g class="ternarylayer"/><g class="geolayer"/><g class="funnelarealayer"/><g class="pielayer"/><g class="treemaplayer"/><g class="sunburstlayer"/><g class="glimages"/><defs id="topdefs-51ee30"><g class="clips"/><clipPath id="legend51ee30"><rect width="126" height="79" x="0" y="0"/></clipPath></defs><g class="layer-above"><g class="imagelayer"/><g class="shapelayer"/></g><g class="infolayer"><g class="legend" pointer-events="all" transform="translate(862.34, 50)"><rect class="bg" shape-rendering="crispEdges" width="126" height="79" x="0" y="0" style="stroke: rgb(68, 68, 68); stroke-opacity: 1; fill: rgb(255, 255, 255); fill-opacity: 1; stroke-width: 0px;"/><g class="scrollbox" transform="translate(0, 0)" clip-path="url('#legend51ee30')"><g class="groups"><g class="traces" transform="translate(0, 22.1)" style="opacity: 1;"><text class="legendtext user-select-none" text-anchor="start" x="40" y="-3.1200000000000006" style="font-family: 'Open Sans', verdana, arial, sans-serif; font-size: 12px; fill: rgb(42, 63, 95); fill-opacity: 1; white-space: pre;"><tspan class="line" dy="0em" x="40" y="-3.1200000000000006">Significant</tspan><tspan class="line" dy="1.3em" x="40" y="-3.1200000000000006">n=4359</tspan></text><g class="layers"><g class="legendfill"><path class="js-fill" d="M5,-2h30v6h-30z" style="stroke-width: 0; fill: rgb(215, 48, 39); fill-opacity: 0.5;"/></g><g class="legendlines"><path class="js-line" d="M5,-2h30" style="fill: none; stroke: rgb(215, 48, 39); stroke-opacity: 0.5; stroke-width: 2px;"/></g><g class="legendsymbols"><g class="legendpoints"/></g></g><rect class="legendtoggle" pointer-events="all" x="0" y="-17.1" width="120.046875" height="34.2" style="cursor: pointer; fill: rgb(0, 0, 0); fill-opacity: 0;"/></g><g class="traces" transform="translate(0, 56.300000000000004)" style="opacity: 1;"><text class="legendtext user-select-none" text-anchor="start" x="40" y="-3.1200000000000006" style="font-family: 'Open Sans', verdana, arial, sans-serif; font-size: 12px; fill: rgb(42, 63, 95); fill-opacity: 1; white-space: pre;"><tspan class="line" dy="0em" x="40" y="-3.1200000000000006">Non-significant</tspan><tspan class="line" dy="1.3em" x="40" y="-3.1200000000000006">n=8727</tspan></text><g class="layers"><g class="legendfill"><path class="js-fill" d="M5,-2h30v6h-30z" style="stroke-width: 0; fill: rgb(33, 102, 172); fill-opacity: 0.5;"/></g><g class="legendlines"><path class="js-line" d="M5,-2h30" style="fill: none; stroke: rgb(33, 102, 172); stroke-opacity: 0.5; stroke-width: 2px;"/></g><g class="legendsymbols"><g class="legendpoints"/></g></g><rect class="legendtoggle" pointer-events="all" x="0" y="-17.1" width="120.046875" height="34.2" style="cursor: pointer; fill: rgb(0, 0, 0); fill-opacity: 0;"/></g></g></g><rect class="scrollbar" rx="20" ry="3" width="0" height="0" x="0" y="0" style="fill: rgb(128, 139, 164); fill-opacity: 1;"/></g><g class="g-gtitle"/><g class="g-xtitle"><text class="xtitle" x="463.5" y="487.8" text-anchor="middle" style="font-family: 'Open Sans', verdana, arial, sans-serif; font-size: 14px; fill: rgb(42, 63, 95); opacity: 1; font-weight: normal; white-space: pre;">Distance to closest TSS</text></g><g class="g-ytitle"><text class="ytitle" transform="rotate(-90,24.168750000000003,248.5)" x="24.168750000000003" y="248.5" text-anchor="middle" style="font-family: 'Open Sans', verdana, arial, sans-serif; font-size: 14px; fill: rgb(42, 63, 95); opacity: 1; font-weight: normal; white-space: pre;">CpG Islands density</text></g></g></svg>