<svg class="main-svg" xmlns="http://www.w3.org/2000/svg" xmlns:xlink="http://www.w3.org/1999/xlink" width="800" height="500" style="" viewBox="0 0 800 500"><rect x="0" y="0" width="800" height="500" style="fill: rgb(255, 255, 255); fill-opacity: 1;"/><defs id="defs-08104d"><g class="clips"><clipPath id="clip08104dxyplot" class="plotclip"><rect width="608" height="395"/></clipPath><clipPath class="axesclip" id="clip08104dx"><rect x="112" y="0" width="608" height="500"/></clipPath><clipPath class="axesclip" id="clip08104dy"><rect x="0" y="50" width="800" height="395"/></clipPath><clipPath class="axesclip" id="clip08104dxy"><rect x="112" y="50" width="608" height="395"/></clipPath></g><g class="gradients"/></defs><g class="bglayer"><rect class="bg" x="112" y="50" width="608" height="395" style="fill: rgb(0, 0, 0); fill-opacity: 0; stroke-width: 0;"/></g><g class="layer-below"><g class="imagelayer"/><g class="shapelayer"><path data-index="0" fill-rule="evenodd" d="M459.43,445H478.73V50H459.43Z" clip-path="url('#clip08104dx')" style="opacity: 0.25; stroke: rgb(0, 0, 0); stroke-opacity: 0; fill: rgb(100, 100, 100); fill-opacity: 1; stroke-width: 0px;"/></g></g><g class="cartesianlayer"><g class="subplot xy"><g class="layer-subplot"><g class="shapelayer"/><g class="imagelayer"/></g><g class="gridlayer"><g class="x"/><g class="y"><path class="ygrid crisp" transform="translate(0,425.25)" d="M112,0h608" style="stroke: rgb(211, 211, 211); stroke-opacity: 1; stroke-width: 1px;"/><path class="ygrid crisp" transform="translate(0,395.83)" d="M112,0h608" style="stroke: rgb(211, 211, 211); stroke-opacity: 1; stroke-width: 1px;"/><path class="ygrid crisp" transform="translate(0,366.42)" d="M112,0h608" style="stroke: rgb(211, 211, 211); stroke-opacity: 1; stroke-width: 1px;"/><path class="ygrid crisp" transform="translate(0,337)" d="M112,0h608" style="stroke: rgb(211, 211, 211); stroke-opacity: 1; stroke-width: 1px;"/><path class="ygrid crisp" transform="translate(0,307.58)" d="M112,0h608" style="stroke: rgb(211, 211, 211); stroke-opacity: 1; stroke-width: 1px;"/><path class="ygrid crisp" transform="translate(0,278.16999999999996)" d="M112,0h608" style="stroke: rgb(211, 211, 211); stroke-opacity: 1; stroke-width: 1px;"/><path class="ygrid crisp" transform="translate(0,248.75)" d="M112,0h608" style="stroke: rgb(211, 211, 211); stroke-opacity: 1; stroke-width: 1px;"/><path class="ygrid crisp" transform="translate(0,219.33)" d="M112,0h608" style="stroke: rgb(211, 211, 211); stroke-opacity: 1; stroke-width: 1px;"/><path class="ygrid crisp" transform="translate(0,189.92)" d="M112,0h608" style="stroke: rgb(211, 211, 211); stroke-opacity: 1; stroke-width: 1px;"/><path class="ygrid crisp" transform="translate(0,160.5)" d="M112,0h608" style="stroke: rgb(211, 211, 211); stroke-opacity: 1; stroke-width: 1px;"/><path class="ygrid crisp" transform="translate(0,131.07999999999998)" d="M112,0h608" style="stroke: rgb(211, 211, 211); stroke-opacity: 1; stroke-width: 1px;"/><path class="ygrid crisp" transform="translate(0,101.67)" d="M112,0h608" style="stroke: rgb(211, 211, 211); stroke-opacity: 1; stroke-width: 1px;"/></g></g><g class="zerolinelayer"/><path class="xlines-below"/><path class="ylines-below"/><g class="overlines-below"/><g class="xaxislayer-below"/><g class="yaxislayer-below"/><g class="overaxes-below"/><g class="plot" transform="translate(112, 50)" clip-path="url('#clip08104dxyplot')"><g class="violinlayer mlayer"><g class="trace violins" style="opacity: 1;"><path class="violin" d="M-18.31,375.25L-18.31,374.9Q-15.09,374.73 -13.48,374.61C-11.87,374.49 -10.27,374.35 -8.66,374.2C-7.05,374.05 -5.44,373.87 -3.83,373.7C-2.22,373.53 -0.62,373.35 0.99,373.2C2.6,373.05 4.21,372.91 5.82,372.82C7.43,372.73 9.04,372.67 10.65,372.66C12.26,372.65 13.86,372.7 15.47,372.78C17.08,372.86 18.69,372.99 20.3,373.13C21.91,373.27 23.51,373.45 25.12,373.62C26.73,373.79 28.34,373.97 29.95,374.13C31.56,374.29 33.16,374.44 34.77,374.56C36.38,374.68 37.99,374.78 39.6,374.86C41.21,374.94 42.81,375.01 44.42,375.06C46.03,375.11 47.64,375.13 49.25,375.16C50.86,375.19 52.46,375.21 54.07,375.22C55.68,375.23 57.29,375.23 58.9,375.24C60.51,375.24 62.11,375.25 63.72,375.25C65.33,375.25 66.94,375.25 68.55,375.25C70.16,375.25 71.76,375.25 73.37,375.25C74.98,375.25 76.59,375.25 78.2,375.25C79.81,375.25 81.41,375.25 83.02,375.25C84.63,375.25 86.24,375.25 87.85,375.25C89.46,375.25 91.06,375.25 92.67,375.25C94.28,375.25 95.89,375.25 97.5,375.25C99.11,375.25 100.71,375.25 102.32,375.25C103.93,375.25 105.54,375.25 107.15,375.25C108.76,375.25 110.37,375.25 111.98,375.25C113.59,375.25 115.19,375.25 116.8,375.25C118.41,375.25 120.02,375.25 121.63,375.25C123.24,375.25 124.84,375.25 126.45,375.25C128.06,375.25 129.67,375.25 131.28,375.25C132.89,375.25 134.49,375.25 136.1,375.25C137.71,375.25 139.32,375.25 140.93,375.25C142.54,375.25 144.14,375.25 145.75,375.25C147.36,375.25 148.97,375.25 150.58,375.25C152.19,375.25 153.79,375.25 155.4,375.25C157.01,375.25 158.62,375.25 160.23,375.25C161.84,375.25 163.44,375.24 165.05,375.24C166.66,375.23 168.27,375.23 169.88,375.22C171.49,375.21 173.09,375.2 174.7,375.18C176.31,375.16 177.92,375.13 179.53,375.09C181.14,375.05 182.74,375 184.35,374.92C185.96,374.84 187.57,374.75 189.18,374.63C190.79,374.52 192.39,374.38 194,374.23C195.61,374.08 197.22,373.91 198.83,373.74C200.44,373.57 202.05,373.38 203.66,373.23C205.27,373.08 206.87,372.94 208.48,372.84C210.09,372.75 211.7,372.68 213.31,372.66C214.92,372.64 216.52,372.68 218.13,372.74C219.74,372.8 221.35,372.92 222.96,373.03C224.57,373.14 226.17,373.29 227.78,373.39C229.39,373.49 231,373.61 232.61,373.65C234.22,373.69 235.82,373.7 237.43,373.61C239.04,373.52 240.66,373.37 242.26,373.13C243.87,372.89 245.48,372.55 247.08,372.15C248.7,371.75 250.31,371.24 251.91,370.72C253.53,370.19 255.12,369.58 256.73,368.99C258.34,368.4 259.95,367.77 261.56,367.19C263.16,366.61 264.77,366.04 266.38,365.52C267.98,365 269.6,364.53 271.21,364.05C272.82,363.57 274.43,363.14 276.03,362.64C277.64,362.14 279.26,361.65 280.86,361.06C282.48,360.46 284.09,359.81 285.68,359.07C287.31,358.31 288.92,357.45 290.51,356.55C292.13,355.63 293.73,354.6 295.33,353.61C296.94,352.61 298.53,351.54 300.16,350.59C301.76,349.66 303.35,348.7 304.99,347.98C306.57,347.28 308.18,346.65 309.81,346.29C311.4,345.94 313.03,345.77 314.64,345.83C316.25,345.89 317.87,346.22 319.46,346.66C321.09,347.11 322.7,347.81 324.29,348.53C325.92,349.27 327.51,350.17 329.11,351.05C330.73,351.94 332.33,352.91 333.94,353.86C335.55,354.82 337.15,355.79 338.76,356.77C340.37,357.75 341.98,358.74 343.59,359.73C345.2,360.72 346.8,361.73 348.41,362.72C350.02,363.71 351.62,364.72 353.24,365.67C354.84,366.61 356.44,367.55 358.06,368.4C359.66,369.24 361.26,370.04 362.89,370.73C364.48,371.41 366.09,372.01 367.71,372.51C369.31,373.01 370.92,373.41 372.54,373.74Q374.14,374.07 377.36,374.49L377.36,375.25" style="vector-effect: non-scaling-stroke; stroke-width: 2px; stroke: rgb(33, 102, 172); stroke-opacity: 1; fill: rgb(33, 102, 172); fill-opacity: 0.5;"/><g class="points"><path class="point" transform="translate(11,368.75)" d="M2.5,0A2.5,2.5 0 1,1 0,-2.5A2.5,2.5 0 0,1 2.5,0Z" style="opacity: 1; stroke-width: 0px; fill: rgb(33, 102, 172); fill-opacity: 1;"/><path class="point" transform="translate(214.01,370.2)" d="M2.5,0A2.5,2.5 0 1,1 0,-2.5A2.5,2.5 0 0,1 2.5,0Z" style="opacity: 1; stroke-width: 0px; fill: rgb(33, 102, 172); fill-opacity: 1;"/><path class="point" transform="translate(265.4,368.29)" d="M2.5,0A2.5,2.5 0 1,1 0,-2.5A2.5,2.5 0 0,1 2.5,0Z" style="opacity: 1; stroke-width: 0px; fill: rgb(33, 102, 172); fill-opacity: 1;"/><path class="point" transform="translate(266.94,370.61)" d="M2.5,0A2.5,2.5 0 1,1 0,-2.5A2.5,2.5 0 0,1 2.5,0Z" style="opacity: 1; stroke-width: 0px; fill: rgb(33, 102, 172); fill-opacity: 1;"/><path class="point" transform="translate(272.44,369.75)" d="M2.5,0A2.5,2.5 0 1,1 0,-2.5A2.5,2.5 0 0,1 2.5,0Z" style="opacity: 1; stroke-width: 0px; fill: rgb(33, 102, 172); fill-opacity: 1;"/><path class="point" transform="translate(288.66,368.51)" d="M2.5,0A2.5,2.5 0 1,1 0,-2.5A2.5,2.5 0 0,1 2.5,0Z" style="opacity: 1; stroke-width: 0px; fill: rgb(33, 102, 172); fill-opacity: 1;"/><path class="point" transform="translate(288.9,369.47)" d="M2.5,0A2.5,2.5 0 1,1 0,-2.5A2.5,2.5 0 0,1 2.5,0Z" style="opacity: 1; stroke-width: 0px; fill: rgb(33, 102, 172); fill-opacity: 1;"/><path class="point" transform="translate(297.63,368.18)" d="M2.5,0A2.5,2.5 0 1,1 0,-2.5A2.5,2.5 0 0,1 2.5,0Z" style="opacity: 1; stroke-width: 0px; fill: rgb(33, 102, 172); fill-opacity: 1;"/><path class="point" transform="translate(304.14,370.66)" d="M2.5,0A2.5,2.5 0 1,1 0,-2.5A2.5,2.5 0 0,1 2.5,0Z" style="opacity: 1; stroke-width: 0px; fill: rgb(33, 102, 172); fill-opacity: 1;"/><path class="point" transform="translate(305.83,372.45)" d="M2.5,0A2.5,2.5 0 1,1 0,-2.5A2.5,2.5 0 0,1 2.5,0Z" style="opacity: 1; stroke-width: 0px; fill: rgb(33, 102, 172); fill-opacity: 1;"/><path class="point" transform="translate(306.22,367.97)" d="M2.5,0A2.5,2.5 0 1,1 0,-2.5A2.5,2.5 0 0,1 2.5,0Z" style="opacity: 1; stroke-width: 0px; fill: rgb(33, 102, 172); fill-opacity: 1;"/><path class="point" transform="translate(309.4,370.99)" d="M2.5,0A2.5,2.5 0 1,1 0,-2.5A2.5,2.5 0 0,1 2.5,0Z" style="opacity: 1; stroke-width: 0px; fill: rgb(33, 102, 172); fill-opacity: 1;"/><path class="point" transform="translate(312.78,365.93)" d="M2.5,0A2.5,2.5 0 1,1 0,-2.5A2.5,2.5 0 0,1 2.5,0Z" style="opacity: 1; stroke-width: 0px; fill: rgb(33, 102, 172); fill-opacity: 1;"/><path class="point" transform="translate(315.29,375.09)" d="M2.5,0A2.5,2.5 0 1,1 0,-2.5A2.5,2.5 0 0,1 2.5,0Z" style="opacity: 1; stroke-width: 0px; fill: rgb(33, 102, 172); fill-opacity: 1;"/><path class="point" transform="translate(317.22,372.21)" d="M2.5,0A2.5,2.5 0 1,1 0,-2.5A2.5,2.5 0 0,1 2.5,0Z" style="opacity: 1; stroke-width: 0px; fill: rgb(33, 102, 172); fill-opacity: 1;"/><path class="point" transform="translate(317.66,365.18)" d="M2.5,0A2.5,2.5 0 1,1 0,-2.5A2.5,2.5 0 0,1 2.5,0Z" style="opacity: 1; stroke-width: 0px; fill: rgb(33, 102, 172); fill-opacity: 1;"/><path class="point" transform="translate(321.27,370.57)" d="M2.5,0A2.5,2.5 0 1,1 0,-2.5A2.5,2.5 0 0,1 2.5,0Z" style="opacity: 1; stroke-width: 0px; fill: rgb(33, 102, 172); fill-opacity: 1;"/><path class="point" transform="translate(324.46,373.43)" d="M2.5,0A2.5,2.5 0 1,1 0,-2.5A2.5,2.5 0 0,1 2.5,0Z" style="opacity: 1; stroke-width: 0px; fill: rgb(33, 102, 172); fill-opacity: 1;"/><path class="point" transform="translate(326.97,370.91)" d="M2.5,0A2.5,2.5 0 1,1 0,-2.5A2.5,2.5 0 0,1 2.5,0Z" style="opacity: 1; stroke-width: 0px; fill: rgb(33, 102, 172); fill-opacity: 1;"/><path class="point" transform="translate(338.5,369.46)" d="M2.5,0A2.5,2.5 0 1,1 0,-2.5A2.5,2.5 0 0,1 2.5,0Z" style="opacity: 1; stroke-width: 0px; fill: rgb(33, 102, 172); fill-opacity: 1;"/><path class="point" transform="translate(341.54,367.45)" d="M2.5,0A2.5,2.5 0 1,1 0,-2.5A2.5,2.5 0 0,1 2.5,0Z" style="opacity: 1; stroke-width: 0px; fill: rgb(33, 102, 172); fill-opacity: 1;"/><path class="point" transform="translate(343.76,368.9)" d="M2.5,0A2.5,2.5 0 1,1 0,-2.5A2.5,2.5 0 0,1 2.5,0Z" style="opacity: 1; stroke-width: 0px; fill: rgb(33, 102, 172); fill-opacity: 1;"/><path class="point" transform="translate(348.06,370.52)" d="M2.5,0A2.5,2.5 0 1,1 0,-2.5A2.5,2.5 0 0,1 2.5,0Z" style="opacity: 1; stroke-width: 0px; fill: rgb(33, 102, 172); fill-opacity: 1;"/></g></g><g class="trace violins" style="opacity: 1;"><path class="violin" d="M-13.95,345.83L-13.95,345.49Q-10.33,345.32 -8.52,345.21C-6.71,345.09 -4.9,344.95 -3.09,344.8C-1.28,344.65 0.53,344.47 2.34,344.31C4.15,344.15 5.96,343.96 7.77,343.82C9.58,343.68 11.39,343.54 13.2,343.46C15.01,343.38 16.82,343.32 18.63,343.32C20.44,343.32 22.25,343.37 24.06,343.45C25.87,343.53 27.68,343.67 29.49,343.81C31.3,343.95 33.12,344.13 34.93,344.29C36.74,344.45 38.55,344.64 40.36,344.79C42.17,344.94 43.98,345.08 45.79,345.2C47.6,345.32 49.41,345.41 51.22,345.49C53.03,345.57 54.84,345.61 56.65,345.66C58.46,345.7 60.27,345.74 62.08,345.76C63.89,345.78 65.7,345.79 67.51,345.8C69.32,345.81 71.13,345.81 72.94,345.82C74.75,345.82 76.56,345.83 78.37,345.83C80.18,345.83 82,345.83 83.81,345.83C85.62,345.83 87.43,345.83 89.24,345.83C91.05,345.83 92.86,345.83 94.67,345.83C96.48,345.83 98.29,345.83 100.1,345.83C101.91,345.83 103.72,345.83 105.53,345.83C107.34,345.83 109.15,345.83 110.96,345.83C112.77,345.83 114.58,345.83 116.39,345.83C118.2,345.83 120.01,345.83 121.82,345.83C123.63,345.83 125.44,345.83 127.25,345.83C129.06,345.83 130.88,345.83 132.69,345.83C134.5,345.83 136.31,345.83 138.12,345.83C139.93,345.83 141.74,345.83 143.55,345.83C145.36,345.83 147.17,345.83 148.98,345.83C150.79,345.83 152.6,345.83 154.41,345.83C156.22,345.83 158.03,345.83 159.84,345.82C161.65,345.81 163.46,345.81 165.27,345.79C167.08,345.77 168.89,345.75 170.7,345.72C172.51,345.68 174.33,345.64 176.14,345.58C177.95,345.52 179.76,345.45 181.57,345.35C183.38,345.25 185.19,345.13 187,344.99C188.81,344.85 190.62,344.69 192.43,344.52C194.24,344.35 196.05,344.15 197.86,343.97C199.67,343.79 201.48,343.6 203.29,343.44C205.1,343.28 206.91,343.12 208.72,342.99C210.53,342.86 212.34,342.76 214.15,342.66C215.96,342.56 217.77,342.48 219.58,342.38C221.39,342.28 223.21,342.19 225.02,342.05C226.83,341.91 228.64,341.75 230.45,341.56C232.26,341.37 234.07,341.13 235.88,340.89C237.69,340.65 239.5,340.37 241.31,340.11C243.12,339.85 244.93,339.58 246.74,339.35C248.55,339.12 250.36,338.92 252.17,338.75C253.98,338.58 255.79,338.47 257.6,338.35C259.41,338.23 261.22,338.17 263.03,338.03C264.84,337.89 266.65,337.78 268.46,337.53C270.28,337.28 272.1,336.99 273.9,336.55C275.72,336.11 277.54,335.54 279.33,334.87C281.16,334.19 282.97,333.36 284.76,332.49C286.59,331.61 288.39,330.6 290.19,329.61C292.01,328.61 293.81,327.55 295.62,326.54C297.43,325.54 299.23,324.51 301.05,323.57C302.85,322.64 304.66,321.72 306.48,320.9C308.28,320.09 310.08,319.31 311.91,318.67C313.7,318.04 315.51,317.47 317.34,317.09C319.14,316.72 320.97,316.44 322.78,316.42C324.59,316.4 326.42,316.56 328.21,316.95C330.04,317.35 331.87,318.03 333.64,318.85C335.49,319.71 337.29,320.85 339.07,322.03C340.92,323.26 342.7,324.7 344.5,326.11C346.32,327.54 348.11,329.09 349.93,330.54C351.73,331.98 353.53,333.45 355.36,334.77C357.15,336.06 358.95,337.31 360.79,338.4C362.57,339.45 364.38,340.4 366.22,341.2C368.01,341.98 369.83,342.62 371.66,343.16C373.46,343.69 375.27,344.09 377.09,344.42Q378.89,344.75 382.52,345.15L382.52,345.83" style="vector-effect: non-scaling-stroke; stroke-width: 2px; stroke: rgb(50, 97, 160); stroke-opacity: 1; fill: rgb(50, 97, 160); fill-opacity: 0.5;"/><g class="points"><path class="point" transform="translate(18.72,339.27)" d="M2.5,0A2.5,2.5 0 1,1 0,-2.5A2.5,2.5 0 0,1 2.5,0Z" style="opacity: 1; stroke-width: 0px; fill: rgb(50, 97, 160); fill-opacity: 1;"/><path class="point" transform="translate(211.3,340.86)" d="M2.5,0A2.5,2.5 0 1,1 0,-2.5A2.5,2.5 0 0,1 2.5,0Z" style="opacity: 1; stroke-width: 0px; fill: rgb(50, 97, 160); fill-opacity: 1;"/><path class="point" transform="translate(242.04,338.76)" d="M2.5,0A2.5,2.5 0 1,1 0,-2.5A2.5,2.5 0 0,1 2.5,0Z" style="opacity: 1; stroke-width: 0px; fill: rgb(50, 97, 160); fill-opacity: 1;"/><path class="point" transform="translate(257.15,341.33)" d="M2.5,0A2.5,2.5 0 1,1 0,-2.5A2.5,2.5 0 0,1 2.5,0Z" style="opacity: 1; stroke-width: 0px; fill: rgb(50, 97, 160); fill-opacity: 1;"/><path class="point" transform="translate(262.21,340.37)" d="M2.5,0A2.5,2.5 0 1,1 0,-2.5A2.5,2.5 0 0,1 2.5,0Z" style="opacity: 1; stroke-width: 0px; fill: rgb(50, 97, 160); fill-opacity: 1;"/><path class="point" transform="translate(290.3,339.01)" d="M2.5,0A2.5,2.5 0 1,1 0,-2.5A2.5,2.5 0 0,1 2.5,0Z" style="opacity: 1; stroke-width: 0px; fill: rgb(50, 97, 160); fill-opacity: 1;"/><path class="point" transform="translate(291.65,340.06)" d="M2.5,0A2.5,2.5 0 1,1 0,-2.5A2.5,2.5 0 0,1 2.5,0Z" style="opacity: 1; stroke-width: 0px; fill: rgb(50, 97, 160); fill-opacity: 1;"/><path class="point" transform="translate(297.15,338.95)" d="M2.5,0A2.5,2.5 0 1,1 0,-2.5A2.5,2.5 0 0,1 2.5,0Z" style="opacity: 1; stroke-width: 0px; fill: rgb(50, 97, 160); fill-opacity: 1;"/><path class="point" transform="translate(301.2,341.17)" d="M2.5,0A2.5,2.5 0 1,1 0,-2.5A2.5,2.5 0 0,1 2.5,0Z" style="opacity: 1; stroke-width: 0px; fill: rgb(50, 97, 160); fill-opacity: 1;"/><path class="point" transform="translate(304.39,342.82)" d="M2.5,0A2.5,2.5 0 1,1 0,-2.5A2.5,2.5 0 0,1 2.5,0Z" style="opacity: 1; stroke-width: 0px; fill: rgb(50, 97, 160); fill-opacity: 1;"/><path class="point" transform="translate(309.4,338.62)" d="M2.5,0A2.5,2.5 0 1,1 0,-2.5A2.5,2.5 0 0,1 2.5,0Z" style="opacity: 1; stroke-width: 0px; fill: rgb(50, 97, 160); fill-opacity: 1;"/><path class="point" transform="translate(310.66,341.61)" d="M2.5,0A2.5,2.5 0 1,1 0,-2.5A2.5,2.5 0 0,1 2.5,0Z" style="opacity: 1; stroke-width: 0px; fill: rgb(50, 97, 160); fill-opacity: 1;"/><path class="point" transform="translate(320.7,336.57)" d="M2.5,0A2.5,2.5 0 1,1 0,-2.5A2.5,2.5 0 0,1 2.5,0Z" style="opacity: 1; stroke-width: 0px; fill: rgb(50, 97, 160); fill-opacity: 1;"/><path class="point" transform="translate(321.47,345.19)" d="M2.5,0A2.5,2.5 0 1,1 0,-2.5A2.5,2.5 0 0,1 2.5,0Z" style="opacity: 1; stroke-width: 0px; fill: rgb(50, 97, 160); fill-opacity: 1;"/><path class="point" transform="translate(323.11,343.1)" d="M2.5,0A2.5,2.5 0 1,1 0,-2.5A2.5,2.5 0 0,1 2.5,0Z" style="opacity: 1; stroke-width: 0px; fill: rgb(50, 97, 160); fill-opacity: 1;"/><path class="point" transform="translate(327.84,334.75)" d="M2.5,0A2.5,2.5 0 1,1 0,-2.5A2.5,2.5 0 0,1 2.5,0Z" style="opacity: 1; stroke-width: 0px; fill: rgb(50, 97, 160); fill-opacity: 1;"/><path class="point" transform="translate(328.22,341.25)" d="M2.5,0A2.5,2.5 0 1,1 0,-2.5A2.5,2.5 0 0,1 2.5,0Z" style="opacity: 1; stroke-width: 0px; fill: rgb(50, 97, 160); fill-opacity: 1;"/><path class="point" transform="translate(330.06,344.81)" d="M2.5,0A2.5,2.5 0 1,1 0,-2.5A2.5,2.5 0 0,1 2.5,0Z" style="opacity: 1; stroke-width: 0px; fill: rgb(50, 97, 160); fill-opacity: 1;"/><path class="point" transform="translate(333.43,341.75)" d="M2.5,0A2.5,2.5 0 1,1 0,-2.5A2.5,2.5 0 0,1 2.5,0Z" style="opacity: 1; stroke-width: 0px; fill: rgb(50, 97, 160); fill-opacity: 1;"/><path class="point" transform="translate(335.94,340.06)" d="M2.5,0A2.5,2.5 0 1,1 0,-2.5A2.5,2.5 0 0,1 2.5,0Z" style="opacity: 1; stroke-width: 0px; fill: rgb(50, 97, 160); fill-opacity: 1;"/><path class="point" transform="translate(336.43,337.5)" d="M2.5,0A2.5,2.5 0 1,1 0,-2.5A2.5,2.5 0 0,1 2.5,0Z" style="opacity: 1; stroke-width: 0px; fill: rgb(50, 97, 160); fill-opacity: 1;"/><path class="point" transform="translate(345.21,339.38)" d="M2.5,0A2.5,2.5 0 1,1 0,-2.5A2.5,2.5 0 0,1 2.5,0Z" style="opacity: 1; stroke-width: 0px; fill: rgb(50, 97, 160); fill-opacity: 1;"/><path class="point" transform="translate(349.84,341.32)" d="M2.5,0A2.5,2.5 0 1,1 0,-2.5A2.5,2.5 0 0,1 2.5,0Z" style="opacity: 1; stroke-width: 0px; fill: rgb(50, 97, 160); fill-opacity: 1;"/></g></g><g class="trace violins" style="opacity: 1;"><path class="violin" d="M-40.35,316.42L-40.35,316.12Q-35.53,315.98 -33.12,315.88C-30.71,315.78 -28.31,315.66 -25.9,315.53C-23.49,315.4 -21.08,315.25 -18.67,315.11C-16.26,314.97 -13.86,314.81 -11.45,314.69C-9.04,314.57 -6.64,314.44 -4.23,314.37C-1.82,314.3 0.59,314.25 3,314.25C5.41,314.25 7.81,314.29 10.22,314.36C12.63,314.43 15.03,314.55 17.44,314.67C19.85,314.79 22.26,314.95 24.67,315.09C27.08,315.23 29.48,315.38 31.89,315.51C34.3,315.64 36.7,315.77 39.11,315.87C41.52,315.97 43.93,316.05 46.34,316.12C48.75,316.19 51.15,316.23 53.56,316.27C55.97,316.31 58.37,316.33 60.78,316.35C63.19,316.37 65.6,316.38 68.01,316.39C70.42,316.4 72.82,316.41 75.23,316.41C77.64,316.41 80.04,316.41 82.45,316.41C84.86,316.41 87.27,316.42 89.68,316.42C92.09,316.42 94.49,316.42 96.9,316.42C99.31,316.42 101.72,316.42 104.13,316.42C106.54,316.42 108.94,316.41 111.35,316.41C113.76,316.41 116.16,316.41 118.57,316.41C120.98,316.41 123.39,316.41 125.8,316.4C128.21,316.39 130.61,316.38 133.02,316.36C135.43,316.34 137.83,316.32 140.24,316.29C142.65,316.26 145.06,316.22 147.47,316.16C149.88,316.1 152.28,316.02 154.69,315.93C157.1,315.83 159.5,315.72 161.91,315.59C164.32,315.46 166.73,315.31 169.14,315.16C171.55,315.01 173.95,314.84 176.36,314.69C178.77,314.54 181.17,314.38 183.58,314.25C185.99,314.12 188.4,314 190.81,313.9C193.22,313.8 195.62,313.72 198.03,313.64C200.44,313.56 202.85,313.5 205.26,313.41C207.67,313.32 210.07,313.23 212.48,313.09C214.89,312.95 217.29,312.79 219.7,312.58C222.11,312.36 224.52,312.1 226.93,311.8C229.34,311.5 231.75,311.14 234.15,310.76C236.56,310.38 238.96,309.95 241.37,309.51C243.78,309.07 246.19,308.61 248.6,308.13C251.01,307.65 253.42,307.16 255.82,306.65C258.23,306.14 260.64,305.62 263.04,305.05C265.45,304.48 267.87,303.89 270.27,303.23C272.68,302.57 275.09,301.86 277.49,301.07C279.91,300.27 282.31,299.4 284.71,298.47C287.13,297.53 289.54,296.5 291.94,295.48C294.35,294.46 296.74,293.33 299.16,292.33C301.56,291.33 303.95,290.28 306.38,289.47C308.77,288.67 311.18,287.9 313.61,287.49C316,287.09 318.43,286.86 320.83,287C323.25,287.14 325.69,287.62 328.06,288.35C330.51,289.1 332.92,290.27 335.28,291.51C337.73,292.8 340.11,294.41 342.5,295.97C344.93,297.56 347.31,299.35 349.73,300.98C352.13,302.6 354.51,304.27 356.95,305.73C359.33,307.16 361.73,308.52 364.17,309.66C366.55,310.77 368.97,311.72 371.4,312.51C373.78,313.28 376.2,313.88 378.62,314.37Q381.01,314.85 385.84,315.44L385.84,316.42" style="vector-effect: non-scaling-stroke; stroke-width: 2px; stroke: rgb(66, 92, 148); stroke-opacity: 1; fill: rgb(66, 92, 148); fill-opacity: 0.5;"/><g class="points"><path class="point" transform="translate(3.14,309.89)" d="M2.5,0A2.5,2.5 0 1,1 0,-2.5A2.5,2.5 0 0,1 2.5,0Z" style="opacity: 1; stroke-width: 0px; fill: rgb(66, 92, 148); fill-opacity: 1;"/><path class="point" transform="translate(192.29,311.38)" d="M2.5,0A2.5,2.5 0 1,1 0,-2.5A2.5,2.5 0 0,1 2.5,0Z" style="opacity: 1; stroke-width: 0px; fill: rgb(66, 92, 148); fill-opacity: 1;"/><path class="point" transform="translate(233.45,309.44)" d="M2.5,0A2.5,2.5 0 1,1 0,-2.5A2.5,2.5 0 0,1 2.5,0Z" style="opacity: 1; stroke-width: 0px; fill: rgb(66, 92, 148); fill-opacity: 1;"/><path class="point" transform="translate(257.72,311.81)" d="M2.5,0A2.5,2.5 0 1,1 0,-2.5A2.5,2.5 0 0,1 2.5,0Z" style="opacity: 1; stroke-width: 0px; fill: rgb(66, 92, 148); fill-opacity: 1;"/><path class="point" transform="translate(258.21,310.93)" d="M2.5,0A2.5,2.5 0 1,1 0,-2.5A2.5,2.5 0 0,1 2.5,0Z" style="opacity: 1; stroke-width: 0px; fill: rgb(66, 92, 148); fill-opacity: 1;"/><path class="point" transform="translate(271.81,309.67)" d="M2.5,0A2.5,2.5 0 1,1 0,-2.5A2.5,2.5 0 0,1 2.5,0Z" style="opacity: 1; stroke-width: 0px; fill: rgb(66, 92, 148); fill-opacity: 1;"/><path class="point" transform="translate(283.54,310.63)" d="M2.5,0A2.5,2.5 0 1,1 0,-2.5A2.5,2.5 0 0,1 2.5,0Z" style="opacity: 1; stroke-width: 0px; fill: rgb(66, 92, 148); fill-opacity: 1;"/><path class="point" transform="translate(295.12,309.61)" d="M2.5,0A2.5,2.5 0 1,1 0,-2.5A2.5,2.5 0 0,1 2.5,0Z" style="opacity: 1; stroke-width: 0px; fill: rgb(66, 92, 148); fill-opacity: 1;"/><path class="point" transform="translate(295.65,311.73)" d="M2.5,0A2.5,2.5 0 1,1 0,-2.5A2.5,2.5 0 0,1 2.5,0Z" style="opacity: 1; stroke-width: 0px; fill: rgb(66, 92, 148); fill-opacity: 1;"/><path class="point" transform="translate(297.92,313.15)" d="M2.5,0A2.5,2.5 0 1,1 0,-2.5A2.5,2.5 0 0,1 2.5,0Z" style="opacity: 1; stroke-width: 0px; fill: rgb(66, 92, 148); fill-opacity: 1;"/><path class="point" transform="translate(307.18,309.48)" d="M2.5,0A2.5,2.5 0 1,1 0,-2.5A2.5,2.5 0 0,1 2.5,0Z" style="opacity: 1; stroke-width: 0px; fill: rgb(66, 92, 148); fill-opacity: 1;"/><path class="point" transform="translate(313.41,311.99)" d="M2.5,0A2.5,2.5 0 1,1 0,-2.5A2.5,2.5 0 0,1 2.5,0Z" style="opacity: 1; stroke-width: 0px; fill: rgb(66, 92, 148); fill-opacity: 1;"/><path class="point" transform="translate(314.57,307.29)" d="M2.5,0A2.5,2.5 0 1,1 0,-2.5A2.5,2.5 0 0,1 2.5,0Z" style="opacity: 1; stroke-width: 0px; fill: rgb(66, 92, 148); fill-opacity: 1;"/><path class="point" transform="translate(317.13,315.44)" d="M2.5,0A2.5,2.5 0 1,1 0,-2.5A2.5,2.5 0 0,1 2.5,0Z" style="opacity: 1; stroke-width: 0px; fill: rgb(66, 92, 148); fill-opacity: 1;"/><path class="point" transform="translate(323.21,313.44)" d="M2.5,0A2.5,2.5 0 1,1 0,-2.5A2.5,2.5 0 0,1 2.5,0Z" style="opacity: 1; stroke-width: 0px; fill: rgb(66, 92, 148); fill-opacity: 1;"/><path class="point" transform="translate(324.75,305.48)" d="M2.5,0A2.5,2.5 0 1,1 0,-2.5A2.5,2.5 0 0,1 2.5,0Z" style="opacity: 1; stroke-width: 0px; fill: rgb(66, 92, 148); fill-opacity: 1;"/><path class="point" transform="translate(325.91,311.96)" d="M2.5,0A2.5,2.5 0 1,1 0,-2.5A2.5,2.5 0 0,1 2.5,0Z" style="opacity: 1; stroke-width: 0px; fill: rgb(66, 92, 148); fill-opacity: 1;"/><path class="point" transform="translate(326.82,315.22)" d="M2.5,0A2.5,2.5 0 1,1 0,-2.5A2.5,2.5 0 0,1 2.5,0Z" style="opacity: 1; stroke-width: 0px; fill: rgb(66, 92, 148); fill-opacity: 1;"/><path class="point" transform="translate(328.22,312.33)" d="M2.5,0A2.5,2.5 0 1,1 0,-2.5A2.5,2.5 0 0,1 2.5,0Z" style="opacity: 1; stroke-width: 0px; fill: rgb(66, 92, 148); fill-opacity: 1;"/><path class="point" transform="translate(330.83,310.66)" d="M2.5,0A2.5,2.5 0 1,1 0,-2.5A2.5,2.5 0 0,1 2.5,0Z" style="opacity: 1; stroke-width: 0px; fill: rgb(66, 92, 148); fill-opacity: 1;"/><path class="point" transform="translate(332.61,307.95)" d="M2.5,0A2.5,2.5 0 1,1 0,-2.5A2.5,2.5 0 0,1 2.5,0Z" style="opacity: 1; stroke-width: 0px; fill: rgb(66, 92, 148); fill-opacity: 1;"/><path class="point" transform="translate(338.84,309.92)" d="M2.5,0A2.5,2.5 0 1,1 0,-2.5A2.5,2.5 0 0,1 2.5,0Z" style="opacity: 1; stroke-width: 0px; fill: rgb(66, 92, 148); fill-opacity: 1;"/><path class="point" transform="translate(342.36,311.99)" d="M2.5,0A2.5,2.5 0 1,1 0,-2.5A2.5,2.5 0 0,1 2.5,0Z" style="opacity: 1; stroke-width: 0px; fill: rgb(66, 92, 148); fill-opacity: 1;"/></g></g><g class="trace violins" style="opacity: 1;"><path class="violin" d="M19.17,287L19.17,286.67Q22.79,286.51 24.6,286.4C26.41,286.29 28.23,286.16 30.04,286.02C31.85,285.88 33.66,285.7 35.47,285.55C37.28,285.39 39.1,285.23 40.91,285.09C42.72,284.96 44.53,284.82 46.34,284.74C48.15,284.66 49.97,284.6 51.78,284.6C53.59,284.6 55.4,284.64 57.21,284.71C59.02,284.78 60.84,284.92 62.65,285.05C64.46,285.18 66.27,285.36 68.08,285.51C69.89,285.67 71.71,285.84 73.52,285.98C75.33,286.12 77.14,286.26 78.95,286.37C80.76,286.48 82.58,286.58 84.39,286.66C86.2,286.74 88.01,286.79 89.82,286.83C91.63,286.87 93.45,286.9 95.26,286.92C97.07,286.94 98.88,286.96 100.69,286.97C102.5,286.98 104.32,286.98 106.13,286.99C107.94,286.99 109.75,287 111.56,287C113.37,287 115.18,287 116.99,287C118.8,287 120.62,287 122.43,287C124.24,287 126.05,287 127.86,287C129.67,287 131.49,287 133.3,287C135.11,287 136.92,287 138.73,287C140.54,287 142.36,287 144.17,287C145.98,287 147.79,287 149.6,287C151.41,287 153.23,287 155.04,287C156.85,287 158.66,287 160.47,287C162.28,287 164.1,287 165.91,287C167.72,287 169.53,287 171.34,287C173.15,287 174.97,287 176.78,287C178.59,287 180.4,286.99 182.21,286.99C184.02,286.99 185.84,286.99 187.65,286.98C189.46,286.97 191.27,286.96 193.08,286.94C194.89,286.92 196.71,286.89 198.52,286.84C200.33,286.79 202.14,286.74 203.95,286.65C205.76,286.56 207.58,286.45 209.39,286.3C211.2,286.15 213.01,285.96 214.82,285.74C216.63,285.52 218.45,285.25 220.26,284.97C222.07,284.69 223.88,284.36 225.69,284.05C227.5,283.74 229.32,283.41 231.13,283.13C232.94,282.85 234.75,282.58 236.56,282.39C238.37,282.2 240.19,282.06 242,281.98C243.81,281.9 245.62,281.9 247.43,281.89C249.24,281.88 251.05,281.95 252.86,281.93C254.67,281.91 256.49,281.92 258.3,281.79C260.11,281.66 261.93,281.46 263.73,281.12C265.55,280.77 267.38,280.3 269.17,279.71C271,279.11 272.81,278.34 274.6,277.54C276.43,276.72 278.23,275.76 280.04,274.83C281.86,273.9 283.65,272.88 285.47,271.96C287.27,271.04 289.08,270.13 290.91,269.31C292.71,268.51 294.52,267.78 296.34,267.1C298.14,266.43 299.96,265.85 301.78,265.25C303.59,264.65 305.4,264.11 307.21,263.51C309.03,262.91 310.84,262.27 312.65,261.64C314.46,261.01 316.26,260.3 318.08,259.71C319.88,259.13 321.69,258.5 323.52,258.14C325.32,257.79 327.14,257.51 328.95,257.58C330.77,257.65 332.62,257.99 334.39,258.59C336.25,259.22 338.06,260.23 339.82,261.34C341.69,262.51 343.48,264.02 345.26,265.5C347.1,267.03 348.88,268.77 350.69,270.39C352.5,272.01 354.29,273.7 356.13,275.22C357.91,276.69 359.71,278.13 361.56,279.36C363.33,280.54 365.15,281.6 367,282.48C368.78,283.33 370.6,284.01 372.43,284.57Q374.22,285.12 377.86,285.81L377.86,287" style="vector-effect: non-scaling-stroke; stroke-width: 2px; stroke: rgb(83, 87, 136); stroke-opacity: 1; fill: rgb(83, 87, 136); fill-opacity: 0.5;"/><g class="points"><path class="point" transform="translate(52.02,280.48)" d="M2.5,0A2.5,2.5 0 1,1 0,-2.5A2.5,2.5 0 0,1 2.5,0Z" style="opacity: 1; stroke-width: 0px; fill: rgb(83, 87, 136); fill-opacity: 1;"/><path class="point" transform="translate(238.95,281.97)" d="M2.5,0A2.5,2.5 0 1,1 0,-2.5A2.5,2.5 0 0,1 2.5,0Z" style="opacity: 1; stroke-width: 0px; fill: rgb(83, 87, 136); fill-opacity: 1;"/><path class="point" transform="translate(245.03,280.01)" d="M2.5,0A2.5,2.5 0 1,1 0,-2.5A2.5,2.5 0 0,1 2.5,0Z" style="opacity: 1; stroke-width: 0px; fill: rgb(83, 87, 136); fill-opacity: 1;"/><path class="point" transform="translate(278.14,282.41)" d="M2.5,0A2.5,2.5 0 1,1 0,-2.5A2.5,2.5 0 0,1 2.5,0Z" style="opacity: 1; stroke-width: 0px; fill: rgb(83, 87, 136); fill-opacity: 1;"/><path class="point" transform="translate(291.45,281.52)" d="M2.5,0A2.5,2.5 0 1,1 0,-2.5A2.5,2.5 0 0,1 2.5,0Z" style="opacity: 1; stroke-width: 0px; fill: rgb(83, 87, 136); fill-opacity: 1;"/><path class="point" transform="translate(292.52,280.25)" d="M2.5,0A2.5,2.5 0 1,1 0,-2.5A2.5,2.5 0 0,1 2.5,0Z" style="opacity: 1; stroke-width: 0px; fill: rgb(83, 87, 136); fill-opacity: 1;"/><path class="point" transform="translate(294.78,281.23)" d="M2.5,0A2.5,2.5 0 1,1 0,-2.5A2.5,2.5 0 0,1 2.5,0Z" style="opacity: 1; stroke-width: 0px; fill: rgb(83, 87, 136); fill-opacity: 1;"/><path class="point" transform="translate(298.4,280.24)" d="M2.5,0A2.5,2.5 0 1,1 0,-2.5A2.5,2.5 0 0,1 2.5,0Z" style="opacity: 1; stroke-width: 0px; fill: rgb(83, 87, 136); fill-opacity: 1;"/><path class="point" transform="translate(299.17,282.36)" d="M2.5,0A2.5,2.5 0 1,1 0,-2.5A2.5,2.5 0 0,1 2.5,0Z" style="opacity: 1; stroke-width: 0px; fill: rgb(83, 87, 136); fill-opacity: 1;"/><path class="point" transform="translate(300.53,284.36)" d="M2.5,0A2.5,2.5 0 1,1 0,-2.5A2.5,2.5 0 0,1 2.5,0Z" style="opacity: 1; stroke-width: 0px; fill: rgb(83, 87, 136); fill-opacity: 1;"/><path class="point" transform="translate(318.48,279.93)" d="M2.5,0A2.5,2.5 0 1,1 0,-2.5A2.5,2.5 0 0,1 2.5,0Z" style="opacity: 1; stroke-width: 0px; fill: rgb(83, 87, 136); fill-opacity: 1;"/><path class="point" transform="translate(319.44,282.62)" d="M2.5,0A2.5,2.5 0 1,1 0,-2.5A2.5,2.5 0 0,1 2.5,0Z" style="opacity: 1; stroke-width: 0px; fill: rgb(83, 87, 136); fill-opacity: 1;"/><path class="point" transform="translate(323.54,278.23)" d="M2.5,0A2.5,2.5 0 1,1 0,-2.5A2.5,2.5 0 0,1 2.5,0Z" style="opacity: 1; stroke-width: 0px; fill: rgb(83, 87, 136); fill-opacity: 1;"/><path class="point" transform="translate(325.81,285.31)" d="M2.5,0A2.5,2.5 0 1,1 0,-2.5A2.5,2.5 0 0,1 2.5,0Z" style="opacity: 1; stroke-width: 0px; fill: rgb(83, 87, 136); fill-opacity: 1;"/><path class="point" transform="translate(328.32,283.6)" d="M2.5,0A2.5,2.5 0 1,1 0,-2.5A2.5,2.5 0 0,1 2.5,0Z" style="opacity: 1; stroke-width: 0px; fill: rgb(83, 87, 136); fill-opacity: 1;"/><path class="point" transform="translate(329.19,276.12)" d="M2.5,0A2.5,2.5 0 1,1 0,-2.5A2.5,2.5 0 0,1 2.5,0Z" style="opacity: 1; stroke-width: 0px; fill: rgb(83, 87, 136); fill-opacity: 1;"/><path class="point" transform="translate(329.57,282.56)" d="M2.5,0A2.5,2.5 0 1,1 0,-2.5A2.5,2.5 0 0,1 2.5,0Z" style="opacity: 1; stroke-width: 0px; fill: rgb(83, 87, 136); fill-opacity: 1;"/><path class="point" transform="translate(333.15,286.1)" d="M2.5,0A2.5,2.5 0 1,1 0,-2.5A2.5,2.5 0 0,1 2.5,0Z" style="opacity: 1; stroke-width: 0px; fill: rgb(83, 87, 136); fill-opacity: 1;"/><path class="point" transform="translate(338.07,283.04)" d="M2.5,0A2.5,2.5 0 1,1 0,-2.5A2.5,2.5 0 0,1 2.5,0Z" style="opacity: 1; stroke-width: 0px; fill: rgb(83, 87, 136); fill-opacity: 1;"/><path class="point" transform="translate(339.61,281.24)" d="M2.5,0A2.5,2.5 0 1,1 0,-2.5A2.5,2.5 0 0,1 2.5,0Z" style="opacity: 1; stroke-width: 0px; fill: rgb(83, 87, 136); fill-opacity: 1;"/><path class="point" transform="translate(341.11,278.57)" d="M2.5,0A2.5,2.5 0 1,1 0,-2.5A2.5,2.5 0 0,1 2.5,0Z" style="opacity: 1; stroke-width: 0px; fill: rgb(83, 87, 136); fill-opacity: 1;"/><path class="point" transform="translate(341.25,280.53)" d="M2.5,0A2.5,2.5 0 1,1 0,-2.5A2.5,2.5 0 0,1 2.5,0Z" style="opacity: 1; stroke-width: 0px; fill: rgb(83, 87, 136); fill-opacity: 1;"/><path class="point" transform="translate(345.02,282.67)" d="M2.5,0A2.5,2.5 0 1,1 0,-2.5A2.5,2.5 0 0,1 2.5,0Z" style="opacity: 1; stroke-width: 0px; fill: rgb(83, 87, 136); fill-opacity: 1;"/></g></g><g class="trace violins" style="opacity: 1;"><path class="violin" d="M85.08,257.58L85.08,257.27Q88.25,257.11 89.83,257C91.41,256.89 93,256.76 94.58,256.62C96.16,256.48 97.75,256.32 99.33,256.17C100.91,256.02 102.5,255.84 104.08,255.71C105.66,255.58 107.25,255.45 108.83,255.37C110.41,255.29 111.99,255.23 113.57,255.23C115.15,255.23 116.74,255.28 118.32,255.35C119.9,255.43 121.49,255.55 123.07,255.68C124.65,255.81 126.24,255.98 127.82,256.13C129.4,256.28 130.99,256.45 132.57,256.59C134.15,256.73 135.74,256.87 137.32,256.98C138.9,257.09 140.48,257.18 142.06,257.25C143.64,257.32 145.23,257.38 146.81,257.42C148.39,257.46 149.98,257.49 151.56,257.51C153.14,257.53 154.73,257.54 156.31,257.55C157.89,257.56 159.48,257.56 161.06,257.57C162.64,257.57 164.23,257.58 165.81,257.58C167.39,257.58 168.98,257.58 170.56,257.58C172.14,257.58 173.72,257.58 175.3,257.58C176.88,257.58 178.47,257.58 180.05,257.58C181.63,257.58 183.22,257.58 184.8,257.58C186.38,257.58 187.97,257.58 189.55,257.58C191.13,257.58 192.72,257.58 194.3,257.58C195.88,257.58 197.47,257.57 199.05,257.56C200.63,257.55 202.21,257.55 203.79,257.53C205.37,257.51 206.96,257.49 208.54,257.46C210.12,257.42 211.71,257.38 213.29,257.32C214.87,257.26 216.46,257.18 218.04,257.08C219.62,256.98 221.21,256.86 222.79,256.73C224.37,256.59 225.96,256.43 227.54,256.27C229.12,256.11 230.7,255.92 232.28,255.75C233.86,255.58 235.45,255.4 237.03,255.24C238.61,255.08 240.2,254.94 241.78,254.8C243.36,254.67 244.95,254.56 246.53,254.43C248.11,254.3 249.7,254.18 251.28,254.04C252.86,253.89 254.45,253.75 256.03,253.56C257.61,253.37 259.2,253.16 260.78,252.92C262.36,252.68 263.94,252.41 265.52,252.14C267.1,251.87 268.69,251.58 270.27,251.3C271.85,251.02 273.44,250.75 275.02,250.47C276.6,250.19 278.19,249.94 279.77,249.64C281.36,249.34 282.94,249.06 284.52,248.69C286.11,248.32 287.7,247.92 289.27,247.41C290.86,246.89 292.45,246.29 294.01,245.59C295.61,244.87 297.2,244.03 298.76,243.12C300.37,242.19 301.94,241.13 303.51,240.06C305.11,238.98 306.67,237.78 308.26,236.66C309.84,235.54 311.41,234.37 313.01,233.34C314.57,232.34 316.15,231.34 317.76,230.57C319.31,229.83 320.89,229.16 322.5,228.76C324.06,228.37 325.67,228.15 327.25,228.17C328.83,228.19 330.44,228.45 332,228.89C333.61,229.35 335.2,230.09 336.75,230.92C338.37,231.79 339.95,232.9 341.5,234.04C343.11,235.22 344.68,236.59 346.25,237.92C347.85,239.28 349.41,240.73 351,242.11C352.57,243.47 354.14,244.87 355.74,246.14C357.3,247.38 358.88,248.58 360.49,249.64C362.05,250.67 363.63,251.62 365.24,252.43C366.8,253.21 368.39,253.88 369.99,254.45C371.56,255 373.15,255.44 374.74,255.81C376.31,256.17 377.9,256.43 379.49,256.65Q381.07,256.87 384.23,257.13L384.23,257.58" style="vector-effect: non-scaling-stroke; stroke-width: 2px; stroke: rgb(99, 82, 124); stroke-opacity: 1; fill: rgb(99, 82, 124); fill-opacity: 0.5;"/><g class="points"><path class="point" transform="translate(113.73,250.97)" d="M2.5,0A2.5,2.5 0 1,1 0,-2.5A2.5,2.5 0 0,1 2.5,0Z" style="opacity: 1; stroke-width: 0px; fill: rgb(99, 82, 124); fill-opacity: 1;"/><path class="point" transform="translate(243.3,252.64)" d="M2.5,0A2.5,2.5 0 1,1 0,-2.5A2.5,2.5 0 0,1 2.5,0Z" style="opacity: 1; stroke-width: 0px; fill: rgb(99, 82, 124); fill-opacity: 1;"/><path class="point" transform="translate(270.99,250.46)" d="M2.5,0A2.5,2.5 0 1,1 0,-2.5A2.5,2.5 0 0,1 2.5,0Z" style="opacity: 1; stroke-width: 0px; fill: rgb(99, 82, 124); fill-opacity: 1;"/><path class="point" transform="translate(275.63,253.14)" d="M2.5,0A2.5,2.5 0 1,1 0,-2.5A2.5,2.5 0 0,1 2.5,0Z" style="opacity: 1; stroke-width: 0px; fill: rgb(99, 82, 124); fill-opacity: 1;"/><path class="point" transform="translate(291.79,252.14)" d="M2.5,0A2.5,2.5 0 1,1 0,-2.5A2.5,2.5 0 0,1 2.5,0Z" style="opacity: 1; stroke-width: 0px; fill: rgb(99, 82, 124); fill-opacity: 1;"/><path class="point" transform="translate(296.13,250.71)" d="M2.5,0A2.5,2.5 0 1,1 0,-2.5A2.5,2.5 0 0,1 2.5,0Z" style="opacity: 1; stroke-width: 0px; fill: rgb(99, 82, 124); fill-opacity: 1;"/><path class="point" transform="translate(312.15,251.81)" d="M2.5,0A2.5,2.5 0 1,1 0,-2.5A2.5,2.5 0 0,1 2.5,0Z" style="opacity: 1; stroke-width: 0px; fill: rgb(99, 82, 124); fill-opacity: 1;"/><path class="point" transform="translate(312.88,250.61)" d="M2.5,0A2.5,2.5 0 1,1 0,-2.5A2.5,2.5 0 0,1 2.5,0Z" style="opacity: 1; stroke-width: 0px; fill: rgb(99, 82, 124); fill-opacity: 1;"/><path class="point" transform="translate(314.33,252.89)" d="M2.5,0A2.5,2.5 0 1,1 0,-2.5A2.5,2.5 0 0,1 2.5,0Z" style="opacity: 1; stroke-width: 0px; fill: rgb(99, 82, 124); fill-opacity: 1;"/><path class="point" transform="translate(315.39,254.87)" d="M2.5,0A2.5,2.5 0 1,1 0,-2.5A2.5,2.5 0 0,1 2.5,0Z" style="opacity: 1; stroke-width: 0px; fill: rgb(99, 82, 124); fill-opacity: 1;"/><path class="point" transform="translate(316.16,250.48)" d="M2.5,0A2.5,2.5 0 1,1 0,-2.5A2.5,2.5 0 0,1 2.5,0Z" style="opacity: 1; stroke-width: 0px; fill: rgb(99, 82, 124); fill-opacity: 1;"/><path class="point" transform="translate(319.63,253.64)" d="M2.5,0A2.5,2.5 0 1,1 0,-2.5A2.5,2.5 0 0,1 2.5,0Z" style="opacity: 1; stroke-width: 0px; fill: rgb(99, 82, 124); fill-opacity: 1;"/><path class="point" transform="translate(322.05,248.04)" d="M2.5,0A2.5,2.5 0 1,1 0,-2.5A2.5,2.5 0 0,1 2.5,0Z" style="opacity: 1; stroke-width: 0px; fill: rgb(99, 82, 124); fill-opacity: 1;"/><path class="point" transform="translate(327.64,256.94)" d="M2.5,0A2.5,2.5 0 1,1 0,-2.5A2.5,2.5 0 0,1 2.5,0Z" style="opacity: 1; stroke-width: 0px; fill: rgb(99, 82, 124); fill-opacity: 1;"/><path class="point" transform="translate(330.73,254.7)" d="M2.5,0A2.5,2.5 0 1,1 0,-2.5A2.5,2.5 0 0,1 2.5,0Z" style="opacity: 1; stroke-width: 0px; fill: rgb(99, 82, 124); fill-opacity: 1;"/><path class="point" transform="translate(330.93,247.05)" d="M2.5,0A2.5,2.5 0 1,1 0,-2.5A2.5,2.5 0 0,1 2.5,0Z" style="opacity: 1; stroke-width: 0px; fill: rgb(99, 82, 124); fill-opacity: 1;"/><path class="point" transform="translate(333.15,253.11)" d="M2.5,0A2.5,2.5 0 1,1 0,-2.5A2.5,2.5 0 0,1 2.5,0Z" style="opacity: 1; stroke-width: 0px; fill: rgb(99, 82, 124); fill-opacity: 1;"/><path class="point" transform="translate(334.69,255.7)" d="M2.5,0A2.5,2.5 0 1,1 0,-2.5A2.5,2.5 0 0,1 2.5,0Z" style="opacity: 1; stroke-width: 0px; fill: rgb(99, 82, 124); fill-opacity: 1;"/><path class="point" transform="translate(339.42,253.3)" d="M2.5,0A2.5,2.5 0 1,1 0,-2.5A2.5,2.5 0 0,1 2.5,0Z" style="opacity: 1; stroke-width: 0px; fill: rgb(99, 82, 124); fill-opacity: 1;"/><path class="point" transform="translate(342.36,251.8)" d="M2.5,0A2.5,2.5 0 1,1 0,-2.5A2.5,2.5 0 0,1 2.5,0Z" style="opacity: 1; stroke-width: 0px; fill: rgb(99, 82, 124); fill-opacity: 1;"/><path class="point" transform="translate(342.41,249.66)" d="M2.5,0A2.5,2.5 0 1,1 0,-2.5A2.5,2.5 0 0,1 2.5,0Z" style="opacity: 1; stroke-width: 0px; fill: rgb(99, 82, 124); fill-opacity: 1;"/><path class="point" transform="translate(342.6,251.21)" d="M2.5,0A2.5,2.5 0 1,1 0,-2.5A2.5,2.5 0 0,1 2.5,0Z" style="opacity: 1; stroke-width: 0px; fill: rgb(99, 82, 124); fill-opacity: 1;"/><path class="point" transform="translate(355.58,252.88)" d="M2.5,0A2.5,2.5 0 1,1 0,-2.5A2.5,2.5 0 0,1 2.5,0Z" style="opacity: 1; stroke-width: 0px; fill: rgb(99, 82, 124); fill-opacity: 1;"/></g></g><g class="trace violins" style="opacity: 1;"><path class="violin" d="M-2.71,228.17L-2.71,227.89Q2.11,227.75 4.52,227.66C6.93,227.57 9.34,227.45 11.75,227.33C14.16,227.21 16.57,227.06 18.98,226.93C21.39,226.8 23.8,226.65 26.21,226.53C28.62,226.41 31.03,226.3 33.44,226.23C35.85,226.16 38.26,226.11 40.67,226.1C43.08,226.09 45.49,226.13 47.9,226.19C50.31,226.25 52.73,226.36 55.14,226.47C57.55,226.58 59.96,226.72 62.37,226.85C64.78,226.98 67.19,227.13 69.6,227.26C72.01,227.38 74.42,227.5 76.83,227.6C79.24,227.7 81.65,227.78 84.06,227.85C86.47,227.92 88.88,227.97 91.29,228.01C93.7,228.05 96.11,228.08 98.52,228.1C100.93,228.12 103.35,228.13 105.76,228.14C108.17,228.15 110.58,228.16 112.99,228.16C115.4,228.16 117.81,228.16 120.22,228.16C122.63,228.16 125.04,228.17 127.45,228.17C129.86,228.17 132.27,228.17 134.68,228.17C137.09,228.17 139.5,228.17 141.91,228.17C144.32,228.17 146.73,228.16 149.14,228.16C151.55,228.16 153.97,228.16 156.38,228.16C158.79,228.16 161.2,228.16 163.61,228.15C166.02,228.14 168.43,228.13 170.84,228.11C173.25,228.09 175.66,228.07 178.07,228.02C180.48,227.97 182.89,227.92 185.3,227.82C187.71,227.72 190.12,227.62 192.53,227.44C194.94,227.26 197.35,227.04 199.76,226.76C202.18,226.47 204.59,226.13 207,225.73C209.42,225.33 211.82,224.84 214.23,224.34C216.64,223.84 219.05,223.26 221.46,222.73C223.87,222.2 226.27,221.62 228.69,221.15C231.09,220.68 233.5,220.23 235.92,219.9C238.32,219.57 240.74,219.34 243.15,219.19C245.56,219.04 247.97,219.01 250.38,219C252.79,218.99 255.21,219.1 257.62,219.12C260.03,219.14 262.44,219.22 264.85,219.15C267.26,219.08 269.68,218.97 272.08,218.69C274.5,218.41 276.92,218.01 279.31,217.46C281.74,216.9 284.15,216.17 286.54,215.33C288.97,214.47 291.38,213.43 293.77,212.34C296.2,211.23 298.6,209.95 301,208.71C303.42,207.46 305.81,206.08 308.24,204.86C310.64,203.65 313.03,202.39 315.47,201.43C317.85,200.5 320.26,199.61 322.7,199.17C325.08,198.74 327.54,198.54 329.93,198.75C332.36,198.97 334.8,199.62 337.16,200.49C339.62,201.4 342.02,202.77 344.39,204.17C346.85,205.62 349.22,207.41 351.62,209.09C354.04,210.79 356.43,212.65 358.86,214.32C361.25,215.96 363.64,217.6 366.09,219.01C368.46,220.37 370.87,221.63 373.32,222.66C375.7,223.67 378.12,224.49 380.55,225.16Q382.94,225.82 387.78,226.68L387.78,228.17" style="vector-effect: non-scaling-stroke; stroke-width: 2px; stroke: rgb(116, 77, 112); stroke-opacity: 1; fill: rgb(116, 77, 112); fill-opacity: 0.5;"/><g class="points"><path class="point" transform="translate(41.35,221.73)" d="M2.5,0A2.5,2.5 0 1,1 0,-2.5A2.5,2.5 0 0,1 2.5,0Z" style="opacity: 1; stroke-width: 0px; fill: rgb(116, 77, 112); fill-opacity: 1;"/><path class="point" transform="translate(235.09,223)" d="M2.5,0A2.5,2.5 0 1,1 0,-2.5A2.5,2.5 0 0,1 2.5,0Z" style="opacity: 1; stroke-width: 0px; fill: rgb(116, 77, 112); fill-opacity: 1;"/><path class="point" transform="translate(241.99,221.34)" d="M2.5,0A2.5,2.5 0 1,1 0,-2.5A2.5,2.5 0 0,1 2.5,0Z" style="opacity: 1; stroke-width: 0px; fill: rgb(116, 77, 112); fill-opacity: 1;"/><path class="point" transform="translate(242.33,223.37)" d="M2.5,0A2.5,2.5 0 1,1 0,-2.5A2.5,2.5 0 0,1 2.5,0Z" style="opacity: 1; stroke-width: 0px; fill: rgb(116, 77, 112); fill-opacity: 1;"/><path class="point" transform="translate(248.6,222.61)" d="M2.5,0A2.5,2.5 0 1,1 0,-2.5A2.5,2.5 0 0,1 2.5,0Z" style="opacity: 1; stroke-width: 0px; fill: rgb(116, 77, 112); fill-opacity: 1;"/><path class="point" transform="translate(277.36,221.55)" d="M2.5,0A2.5,2.5 0 1,1 0,-2.5A2.5,2.5 0 0,1 2.5,0Z" style="opacity: 1; stroke-width: 0px; fill: rgb(116, 77, 112); fill-opacity: 1;"/><path class="point" transform="translate(294.78,222.38)" d="M2.5,0A2.5,2.5 0 1,1 0,-2.5A2.5,2.5 0 0,1 2.5,0Z" style="opacity: 1; stroke-width: 0px; fill: rgb(116, 77, 112); fill-opacity: 1;"/><path class="point" transform="translate(299.27,221.52)" d="M2.5,0A2.5,2.5 0 1,1 0,-2.5A2.5,2.5 0 0,1 2.5,0Z" style="opacity: 1; stroke-width: 0px; fill: rgb(116, 77, 112); fill-opacity: 1;"/><path class="point" transform="translate(303.03,223.08)" d="M2.5,0A2.5,2.5 0 1,1 0,-2.5A2.5,2.5 0 0,1 2.5,0Z" style="opacity: 1; stroke-width: 0px; fill: rgb(116, 77, 112); fill-opacity: 1;"/><path class="point" transform="translate(316.4,224.16)" d="M2.5,0A2.5,2.5 0 1,1 0,-2.5A2.5,2.5 0 0,1 2.5,0Z" style="opacity: 1; stroke-width: 0px; fill: rgb(116, 77, 112); fill-opacity: 1;"/><path class="point" transform="translate(319.83,221.45)" d="M2.5,0A2.5,2.5 0 1,1 0,-2.5A2.5,2.5 0 0,1 2.5,0Z" style="opacity: 1; stroke-width: 0px; fill: rgb(116, 77, 112); fill-opacity: 1;"/><path class="point" transform="translate(320.55,223.51)" d="M2.5,0A2.5,2.5 0 1,1 0,-2.5A2.5,2.5 0 0,1 2.5,0Z" style="opacity: 1; stroke-width: 0px; fill: rgb(116, 77, 112); fill-opacity: 1;"/><path class="point" transform="translate(320.99,219.8)" d="M2.5,0A2.5,2.5 0 1,1 0,-2.5A2.5,2.5 0 0,1 2.5,0Z" style="opacity: 1; stroke-width: 0px; fill: rgb(116, 77, 112); fill-opacity: 1;"/><path class="point" transform="translate(329.62,226.31)" d="M2.5,0A2.5,2.5 0 1,1 0,-2.5A2.5,2.5 0 0,1 2.5,0Z" style="opacity: 1; stroke-width: 0px; fill: rgb(116, 77, 112); fill-opacity: 1;"/><path class="point" transform="translate(331.22,225.21)" d="M2.5,0A2.5,2.5 0 1,1 0,-2.5A2.5,2.5 0 0,1 2.5,0Z" style="opacity: 1; stroke-width: 0px; fill: rgb(116, 77, 112); fill-opacity: 1;"/><path class="point" transform="translate(332.37,217.57)" d="M2.5,0A2.5,2.5 0 1,1 0,-2.5A2.5,2.5 0 0,1 2.5,0Z" style="opacity: 1; stroke-width: 0px; fill: rgb(116, 77, 112); fill-opacity: 1;"/><path class="point" transform="translate(333.58,223.52)" d="M2.5,0A2.5,2.5 0 1,1 0,-2.5A2.5,2.5 0 0,1 2.5,0Z" style="opacity: 1; stroke-width: 0px; fill: rgb(116, 77, 112); fill-opacity: 1;"/><path class="point" transform="translate(334.5,226.47)" d="M2.5,0A2.5,2.5 0 1,1 0,-2.5A2.5,2.5 0 0,1 2.5,0Z" style="opacity: 1; stroke-width: 0px; fill: rgb(116, 77, 112); fill-opacity: 1;"/><path class="point" transform="translate(334.64,224.23)" d="M2.5,0A2.5,2.5 0 1,1 0,-2.5A2.5,2.5 0 0,1 2.5,0Z" style="opacity: 1; stroke-width: 0px; fill: rgb(116, 77, 112); fill-opacity: 1;"/><path class="point" transform="translate(337.49,222.41)" d="M2.5,0A2.5,2.5 0 1,1 0,-2.5A2.5,2.5 0 0,1 2.5,0Z" style="opacity: 1; stroke-width: 0px; fill: rgb(116, 77, 112); fill-opacity: 1;"/><path class="point" transform="translate(338.84,219.68)" d="M2.5,0A2.5,2.5 0 1,1 0,-2.5A2.5,2.5 0 0,1 2.5,0Z" style="opacity: 1; stroke-width: 0px; fill: rgb(116, 77, 112); fill-opacity: 1;"/><path class="point" transform="translate(342.65,221.65)" d="M2.5,0A2.5,2.5 0 1,1 0,-2.5A2.5,2.5 0 0,1 2.5,0Z" style="opacity: 1; stroke-width: 0px; fill: rgb(116, 77, 112); fill-opacity: 1;"/><path class="point" transform="translate(343.71,223.81)" d="M2.5,0A2.5,2.5 0 1,1 0,-2.5A2.5,2.5 0 0,1 2.5,0Z" style="opacity: 1; stroke-width: 0px; fill: rgb(116, 77, 112); fill-opacity: 1;"/></g></g><g class="trace violins" style="opacity: 1;"><path class="violin" d="M-8.87,198.75L-8.87,198.45Q-5.59,198.29 -3.95,198.19C-2.31,198.09 -0.66,197.96 0.98,197.83C2.62,197.7 4.27,197.54 5.91,197.4C7.55,197.26 9.19,197.1 10.83,196.97C12.47,196.84 14.12,196.72 15.76,196.64C17.4,196.57 19.05,196.52 20.69,196.52C22.33,196.52 23.97,196.57 25.61,196.64C27.25,196.71 28.9,196.84 30.54,196.96C32.18,197.09 33.83,197.25 35.47,197.39C37.11,197.53 38.75,197.69 40.39,197.82C42.03,197.95 43.68,198.09 45.32,198.19C46.96,198.29 48.61,198.37 50.25,198.44C51.89,198.51 53.53,198.56 55.17,198.6C56.81,198.64 58.46,198.66 60.1,198.68C61.74,198.7 63.39,198.71 65.03,198.72C66.67,198.73 68.31,198.74 69.95,198.74C71.59,198.75 73.24,198.75 74.88,198.75C76.52,198.75 78.17,198.75 79.81,198.75C81.45,198.75 83.09,198.75 84.73,198.75C86.37,198.75 88.02,198.75 89.66,198.75C91.3,198.75 92.95,198.75 94.59,198.75C96.23,198.75 97.87,198.75 99.51,198.75C101.15,198.75 102.8,198.75 104.44,198.75C106.08,198.75 107.73,198.75 109.37,198.75C111.01,198.75 112.65,198.75 114.29,198.75C115.93,198.75 117.58,198.75 119.22,198.75C120.86,198.75 122.51,198.75 124.15,198.75C125.79,198.75 127.43,198.75 129.07,198.75C130.71,198.75 132.36,198.75 134,198.75C135.64,198.75 137.29,198.75 138.93,198.75C140.57,198.75 142.21,198.75 143.85,198.75C145.49,198.75 147.14,198.75 148.78,198.75C150.42,198.75 152.07,198.75 153.71,198.75C155.35,198.75 156.99,198.75 158.63,198.75C160.27,198.75 161.92,198.75 163.56,198.75C165.2,198.75 166.85,198.75 168.49,198.75C170.13,198.75 171.77,198.74 173.41,198.74C175.05,198.73 176.7,198.73 178.34,198.72C179.98,198.71 181.63,198.69 183.27,198.66C184.91,198.63 186.55,198.59 188.19,198.53C189.83,198.47 191.48,198.39 193.12,198.28C194.76,198.17 196.41,198.03 198.05,197.85C199.69,197.67 201.33,197.45 202.97,197.21C204.61,196.97 206.26,196.67 207.9,196.39C209.54,196.1 211.19,195.77 212.83,195.5C214.47,195.23 216.11,194.94 217.75,194.75C219.39,194.56 221.04,194.4 222.68,194.34C224.32,194.28 225.97,194.3 227.61,194.39C229.25,194.48 230.89,194.68 232.53,194.89C234.18,195.11 235.82,195.4 237.46,195.68C239.1,195.96 240.75,196.28 242.39,196.55C244.03,196.82 245.67,197.09 247.31,197.3C248.95,197.51 250.59,197.68 252.24,197.79C253.88,197.9 255.53,197.95 257.17,197.94C258.81,197.93 260.45,197.86 262.09,197.71C263.74,197.56 265.38,197.34 267.02,197.05C268.67,196.75 270.32,196.38 271.95,195.93C273.6,195.47 275.24,194.92 276.87,194.33C278.52,193.73 280.16,193.05 281.8,192.36C283.45,191.67 285.09,190.91 286.73,190.18C288.37,189.45 290,188.7 291.65,188C293.29,187.3 294.93,186.63 296.58,185.98C298.22,185.33 299.87,184.74 301.51,184.11C303.15,183.48 304.8,182.89 306.43,182.21C308.08,181.52 309.73,180.8 311.36,179.99C313.02,179.16 314.66,178.23 316.29,177.27C317.94,176.3 319.56,175.19 321.21,174.19C322.84,173.2 324.46,172.11 326.14,171.31C327.75,170.54 329.4,169.77 331.07,169.44C332.68,169.13 334.38,169.04 335.99,169.33C337.66,169.63 339.34,170.41 340.92,171.31C342.63,172.29 344.25,173.7 345.85,175.09C347.54,176.56 349.14,178.31 350.77,179.95C352.42,181.61 354.03,183.38 355.7,184.99C357.32,186.55 358.95,188.11 360.63,189.47C362.23,190.77 363.87,191.98 365.55,192.99C367.16,193.96 368.81,194.78 370.48,195.46C372.1,196.12 373.75,196.61 375.41,197.02Q377.04,197.42 380.33,197.92L380.33,198.75" style="vector-effect: non-scaling-stroke; stroke-width: 2px; stroke: rgb(132, 73, 99); stroke-opacity: 1; fill: rgb(132, 73, 99); fill-opacity: 0.5;"/><g class="points"><path class="point" transform="translate(20.75,192.41)" d="M2.5,0A2.5,2.5 0 1,1 0,-2.5A2.5,2.5 0 0,1 2.5,0Z" style="opacity: 1; stroke-width: 0px; fill: rgb(132, 73, 99); fill-opacity: 1;"/><path class="point" transform="translate(223.56,193.47)" d="M2.5,0A2.5,2.5 0 1,1 0,-2.5A2.5,2.5 0 0,1 2.5,0Z" style="opacity: 1; stroke-width: 0px; fill: rgb(132, 73, 99); fill-opacity: 1;"/><path class="point" transform="translate(225.64,192.08)" d="M2.5,0A2.5,2.5 0 1,1 0,-2.5A2.5,2.5 0 0,1 2.5,0Z" style="opacity: 1; stroke-width: 0px; fill: rgb(132, 73, 99); fill-opacity: 1;"/><path class="point" transform="translate(290.1,193.78)" d="M2.5,0A2.5,2.5 0 1,1 0,-2.5A2.5,2.5 0 0,1 2.5,0Z" style="opacity: 1; stroke-width: 0px; fill: rgb(132, 73, 99); fill-opacity: 1;"/><path class="point" transform="translate(290.97,193.14)" d="M2.5,0A2.5,2.5 0 1,1 0,-2.5A2.5,2.5 0 0,1 2.5,0Z" style="opacity: 1; stroke-width: 0px; fill: rgb(132, 73, 99); fill-opacity: 1;"/><path class="point" transform="translate(300.72,192.25)" d="M2.5,0A2.5,2.5 0 1,1 0,-2.5A2.5,2.5 0 0,1 2.5,0Z" style="opacity: 1; stroke-width: 0px; fill: rgb(132, 73, 99); fill-opacity: 1;"/><path class="point" transform="translate(303.32,192.94)" d="M2.5,0A2.5,2.5 0 1,1 0,-2.5A2.5,2.5 0 0,1 2.5,0Z" style="opacity: 1; stroke-width: 0px; fill: rgb(132, 73, 99); fill-opacity: 1;"/><path class="point" transform="translate(308.25,192.28)" d="M2.5,0A2.5,2.5 0 1,1 0,-2.5A2.5,2.5 0 0,1 2.5,0Z" style="opacity: 1; stroke-width: 0px; fill: rgb(132, 73, 99); fill-opacity: 1;"/><path class="point" transform="translate(310.85,193.86)" d="M2.5,0A2.5,2.5 0 1,1 0,-2.5A2.5,2.5 0 0,1 2.5,0Z" style="opacity: 1; stroke-width: 0px; fill: rgb(132, 73, 99); fill-opacity: 1;"/><path class="point" transform="translate(323.21,195.16)" d="M2.5,0A2.5,2.5 0 1,1 0,-2.5A2.5,2.5 0 0,1 2.5,0Z" style="opacity: 1; stroke-width: 0px; fill: rgb(132, 73, 99); fill-opacity: 1;"/><path class="point" transform="translate(328.32,191.94)" d="M2.5,0A2.5,2.5 0 1,1 0,-2.5A2.5,2.5 0 0,1 2.5,0Z" style="opacity: 1; stroke-width: 0px; fill: rgb(132, 73, 99); fill-opacity: 1;"/><path class="point" transform="translate(330.25,194.05)" d="M2.5,0A2.5,2.5 0 1,1 0,-2.5A2.5,2.5 0 0,1 2.5,0Z" style="opacity: 1; stroke-width: 0px; fill: rgb(132, 73, 99); fill-opacity: 1;"/><path class="point" transform="translate(330.83,190.42)" d="M2.5,0A2.5,2.5 0 1,1 0,-2.5A2.5,2.5 0 0,1 2.5,0Z" style="opacity: 1; stroke-width: 0px; fill: rgb(132, 73, 99); fill-opacity: 1;"/><path class="point" transform="translate(333.63,196.72)" d="M2.5,0A2.5,2.5 0 1,1 0,-2.5A2.5,2.5 0 0,1 2.5,0Z" style="opacity: 1; stroke-width: 0px; fill: rgb(132, 73, 99); fill-opacity: 1;"/><path class="point" transform="translate(334.35,195.91)" d="M2.5,0A2.5,2.5 0 1,1 0,-2.5A2.5,2.5 0 0,1 2.5,0Z" style="opacity: 1; stroke-width: 0px; fill: rgb(132, 73, 99); fill-opacity: 1;"/><path class="point" transform="translate(335.85,187.66)" d="M2.5,0A2.5,2.5 0 1,1 0,-2.5A2.5,2.5 0 0,1 2.5,0Z" style="opacity: 1; stroke-width: 0px; fill: rgb(132, 73, 99); fill-opacity: 1;"/><path class="point" transform="translate(336.33,194.05)" d="M2.5,0A2.5,2.5 0 1,1 0,-2.5A2.5,2.5 0 0,1 2.5,0Z" style="opacity: 1; stroke-width: 0px; fill: rgb(132, 73, 99); fill-opacity: 1;"/><path class="point" transform="translate(336.81,196.83)" d="M2.5,0A2.5,2.5 0 1,1 0,-2.5A2.5,2.5 0 0,1 2.5,0Z" style="opacity: 1; stroke-width: 0px; fill: rgb(132, 73, 99); fill-opacity: 1;"/><path class="point" transform="translate(337.87,194.43)" d="M2.5,0A2.5,2.5 0 1,1 0,-2.5A2.5,2.5 0 0,1 2.5,0Z" style="opacity: 1; stroke-width: 0px; fill: rgb(132, 73, 99); fill-opacity: 1;"/><path class="point" transform="translate(338.5,192.96)" d="M2.5,0A2.5,2.5 0 1,1 0,-2.5A2.5,2.5 0 0,1 2.5,0Z" style="opacity: 1; stroke-width: 0px; fill: rgb(132, 73, 99); fill-opacity: 1;"/><path class="point" transform="translate(340.58,190.86)" d="M2.5,0A2.5,2.5 0 1,1 0,-2.5A2.5,2.5 0 0,1 2.5,0Z" style="opacity: 1; stroke-width: 0px; fill: rgb(132, 73, 99); fill-opacity: 1;"/><path class="point" transform="translate(349.46,192.4)" d="M2.5,0A2.5,2.5 0 1,1 0,-2.5A2.5,2.5 0 0,1 2.5,0Z" style="opacity: 1; stroke-width: 0px; fill: rgb(132, 73, 99); fill-opacity: 1;"/><path class="point" transform="translate(350.71,193.97)" d="M2.5,0A2.5,2.5 0 1,1 0,-2.5A2.5,2.5 0 0,1 2.5,0Z" style="opacity: 1; stroke-width: 0px; fill: rgb(132, 73, 99); fill-opacity: 1;"/></g></g><g class="trace violins" style="opacity: 1;"><path class="violin" d="M146.75,169.33L146.75,168.98Q148.12,168.8 148.8,168.68C149.49,168.56 150.17,168.41 150.85,168.26C151.53,168.1 152.21,167.92 152.89,167.75C153.57,167.58 154.25,167.39 154.94,167.24C155.62,167.09 156.3,166.94 156.99,166.85C157.67,166.76 158.36,166.71 159.04,166.71C159.72,166.71 160.4,166.76 161.08,166.84C161.76,166.92 162.45,167.06 163.13,167.21C163.82,167.36 164.5,167.55 165.18,167.72C165.86,167.89 166.54,168.07 167.22,168.23C167.9,168.39 168.58,168.54 169.27,168.66C169.95,168.78 170.64,168.88 171.32,168.96C172,169.04 172.69,169.1 173.37,169.15C174.05,169.2 174.73,169.23 175.41,169.25C176.09,169.28 176.78,169.29 177.46,169.3C178.14,169.31 178.83,169.31 179.51,169.32C180.19,169.32 180.88,169.33 181.56,169.33C182.24,169.33 182.92,169.33 183.6,169.33C184.28,169.33 184.97,169.33 185.65,169.33C186.33,169.33 187.02,169.33 187.7,169.33C188.38,169.33 189.07,169.33 189.75,169.33C190.43,169.33 191.11,169.33 191.79,169.33C192.47,169.33 193.16,169.33 193.84,169.33C194.52,169.33 195.21,169.33 195.89,169.33C196.57,169.33 197.26,169.33 197.94,169.33C198.62,169.33 199.3,169.33 199.98,169.33C200.66,169.33 201.35,169.33 202.03,169.33C202.71,169.33 203.4,169.33 204.08,169.33C204.76,169.33 205.45,169.33 206.13,169.33C206.81,169.33 207.49,169.33 208.17,169.33C208.85,169.33 209.54,169.33 210.22,169.33C210.9,169.33 211.59,169.33 212.27,169.33C212.95,169.33 213.64,169.33 214.32,169.33C215,169.33 215.68,169.33 216.36,169.33C217.04,169.33 217.73,169.33 218.41,169.33C219.09,169.33 219.78,169.33 220.46,169.33C221.14,169.33 221.82,169.33 222.5,169.33C223.18,169.33 223.87,169.33 224.55,169.33C225.23,169.33 225.92,169.33 226.6,169.32C227.28,169.31 227.97,169.31 228.65,169.29C229.33,169.28 230.01,169.26 230.69,169.23C231.37,169.2 232.06,169.16 232.74,169.1C233.42,169.04 234.11,168.97 234.79,168.87C235.47,168.77 236.16,168.66 236.84,168.52C237.52,168.38 238.2,168.21 238.88,168.05C239.56,167.88 240.25,167.7 240.93,167.53C241.61,167.37 242.29,167.19 242.98,167.06C243.66,166.93 244.35,166.81 245.03,166.76C245.71,166.71 246.39,166.7 247.07,166.73C247.75,166.76 248.44,166.86 249.12,166.97C249.81,167.08 250.49,167.25 251.17,167.41C251.85,167.57 252.54,167.76 253.22,167.93C253.9,168.1 254.58,168.28 255.26,168.42C255.94,168.56 256.63,168.69 257.31,168.79C257.99,168.89 258.68,168.97 259.36,169.03C260.04,169.09 260.73,169.13 261.41,169.14C262.09,169.15 262.77,169.14 263.45,169.12C264.13,169.1 264.82,169.06 265.5,168.99C266.18,168.92 266.87,168.83 267.55,168.72C268.24,168.61 268.92,168.47 269.6,168.32C270.28,168.17 270.96,167.99 271.64,167.82C272.32,167.65 273,167.46 273.69,167.31C274.37,167.16 275.05,167 275.74,166.9C276.42,166.8 277.1,166.73 277.78,166.71C278.46,166.69 279.15,166.73 279.83,166.8C280.52,166.87 281.2,167.01 281.88,167.15C282.57,167.29 283.25,167.47 283.93,167.64C284.61,167.81 285.29,168 285.97,168.16C286.65,168.32 287.33,168.47 288.02,168.6C288.7,168.73 289.39,168.84 290.07,168.93C290.75,169.02 291.44,169.08 292.12,169.13C292.8,169.18 293.48,169.2 294.16,169.22C294.84,169.24 295.53,169.25 296.21,169.25C296.89,169.25 297.58,169.23 298.26,169.2C298.94,169.17 299.63,169.13 300.31,169.07C300.99,169.01 301.67,168.93 302.35,168.83C303.03,168.73 303.72,168.61 304.4,168.47C305.09,168.33 305.77,168.15 306.45,167.98C307.13,167.81 307.82,167.61 308.5,167.43C309.18,167.25 309.86,167.07 310.54,166.91C311.22,166.76 311.91,166.62 312.59,166.5C313.27,166.38 313.96,166.3 314.64,166.2C315.32,166.1 316.01,166.03 316.69,165.9C317.37,165.77 318.06,165.63 318.73,165.4C319.42,165.16 320.12,164.87 320.78,164.49C321.48,164.09 322.17,163.58 322.83,163.02C323.54,162.42 324.22,161.72 324.88,160.99C325.58,160.22 326.25,159.35 326.92,158.48C327.62,157.57 328.3,156.6 328.97,155.62C329.66,154.61 330.34,153.57 331.02,152.52C331.71,151.46 332.38,150.37 333.06,149.3C333.74,148.23 334.41,147.14 335.11,146.11C335.78,145.12 336.45,144.1 337.16,143.23C337.82,142.43 338.48,141.61 339.21,141.04C339.85,140.54 340.55,140.07 341.25,139.92C341.91,139.78 342.65,139.85 343.3,140.09C344.02,140.35 344.71,140.94 345.35,141.55C346.08,142.24 346.74,143.17 347.4,144.08C348.11,145.07 348.77,146.19 349.44,147.3C350.13,148.45 350.81,149.66 351.49,150.84C352.17,152.02 352.85,153.22 353.54,154.36C354.21,155.47 354.89,156.57 355.59,157.59C356.25,158.55 356.92,159.48 357.63,160.31C358.29,161.08 358.97,161.79 359.68,162.41C360.34,162.98 361.03,163.48 361.73,163.91C362.4,164.32 363.09,164.65 363.78,164.95C364.45,165.24 365.14,165.47 365.82,165.71C366.5,165.95 367.19,166.16 367.87,166.38C368.55,166.6 369.24,166.82 369.92,167.03C370.6,167.24 371.29,167.46 371.97,167.66C372.65,167.86 373.33,168.06 374.01,168.23C374.69,168.4 375.37,168.55 376.06,168.67Q376.74,168.79 378.11,168.97L378.11,169.33" style="vector-effect: non-scaling-stroke; stroke-width: 2px; stroke: rgb(149, 68, 87); stroke-opacity: 1; fill: rgb(149, 68, 87); fill-opacity: 0.5;"/><g class="points"><path class="point" transform="translate(159.09,162.95)" d="M2.5,0A2.5,2.5 0 1,1 0,-2.5A2.5,2.5 0 0,1 2.5,0Z" style="opacity: 1; stroke-width: 0px; fill: rgb(149, 68, 87); fill-opacity: 1;"/><path class="point" transform="translate(246.29,164.11)" d="M2.5,0A2.5,2.5 0 1,1 0,-2.5A2.5,2.5 0 0,1 2.5,0Z" style="opacity: 1; stroke-width: 0px; fill: rgb(149, 68, 87); fill-opacity: 1;"/><path class="point" transform="translate(278.14,162.59)" d="M2.5,0A2.5,2.5 0 1,1 0,-2.5A2.5,2.5 0 0,1 2.5,0Z" style="opacity: 1; stroke-width: 0px; fill: rgb(149, 68, 87); fill-opacity: 1;"/><path class="point" transform="translate(313.6,164.45)" d="M2.5,0A2.5,2.5 0 1,1 0,-2.5A2.5,2.5 0 0,1 2.5,0Z" style="opacity: 1; stroke-width: 0px; fill: rgb(149, 68, 87); fill-opacity: 1;"/><path class="point" transform="translate(327.74,163.76)" d="M2.5,0A2.5,2.5 0 1,1 0,-2.5A2.5,2.5 0 0,1 2.5,0Z" style="opacity: 1; stroke-width: 0px; fill: rgb(149, 68, 87); fill-opacity: 1;"/><path class="point" transform="translate(328.85,162.76)" d="M2.5,0A2.5,2.5 0 1,1 0,-2.5A2.5,2.5 0 0,1 2.5,0Z" style="opacity: 1; stroke-width: 0px; fill: rgb(149, 68, 87); fill-opacity: 1;"/><path class="point" transform="translate(331.31,163.52)" d="M2.5,0A2.5,2.5 0 1,1 0,-2.5A2.5,2.5 0 0,1 2.5,0Z" style="opacity: 1; stroke-width: 0px; fill: rgb(149, 68, 87); fill-opacity: 1;"/><path class="point" transform="translate(335.22,162.81)" d="M2.5,0A2.5,2.5 0 1,1 0,-2.5A2.5,2.5 0 0,1 2.5,0Z" style="opacity: 1; stroke-width: 0px; fill: rgb(149, 68, 87); fill-opacity: 1;"/><path class="point" transform="translate(337.34,164.48)" d="M2.5,0A2.5,2.5 0 1,1 0,-2.5A2.5,2.5 0 0,1 2.5,0Z" style="opacity: 1; stroke-width: 0px; fill: rgb(149, 68, 87); fill-opacity: 1;"/><path class="point" transform="translate(338.41,166.66)" d="M2.5,0A2.5,2.5 0 1,1 0,-2.5A2.5,2.5 0 0,1 2.5,0Z" style="opacity: 1; stroke-width: 0px; fill: rgb(149, 68, 87); fill-opacity: 1;"/><path class="point" transform="translate(338.45,162.24)" d="M2.5,0A2.5,2.5 0 1,1 0,-2.5A2.5,2.5 0 0,1 2.5,0Z" style="opacity: 1; stroke-width: 0px; fill: rgb(149, 68, 87); fill-opacity: 1;"/><path class="point" transform="translate(338.65,165.08)" d="M2.5,0A2.5,2.5 0 1,1 0,-2.5A2.5,2.5 0 0,1 2.5,0Z" style="opacity: 1; stroke-width: 0px; fill: rgb(149, 68, 87); fill-opacity: 1;"/><path class="point" transform="translate(342.6,159.72)" d="M2.5,0A2.5,2.5 0 1,1 0,-2.5A2.5,2.5 0 0,1 2.5,0Z" style="opacity: 1; stroke-width: 0px; fill: rgb(149, 68, 87); fill-opacity: 1;"/><path class="point" transform="translate(343.52,168.32)" d="M2.5,0A2.5,2.5 0 1,1 0,-2.5A2.5,2.5 0 0,1 2.5,0Z" style="opacity: 1; stroke-width: 0px; fill: rgb(149, 68, 87); fill-opacity: 1;"/><path class="point" transform="translate(344,166.35)" d="M2.5,0A2.5,2.5 0 1,1 0,-2.5A2.5,2.5 0 0,1 2.5,0Z" style="opacity: 1; stroke-width: 0px; fill: rgb(149, 68, 87); fill-opacity: 1;"/><path class="point" transform="translate(344,159.09)" d="M2.5,0A2.5,2.5 0 1,1 0,-2.5A2.5,2.5 0 0,1 2.5,0Z" style="opacity: 1; stroke-width: 0px; fill: rgb(149, 68, 87); fill-opacity: 1;"/><path class="point" transform="translate(344,164.54)" d="M2.5,0A2.5,2.5 0 1,1 0,-2.5A2.5,2.5 0 0,1 2.5,0Z" style="opacity: 1; stroke-width: 0px; fill: rgb(149, 68, 87); fill-opacity: 1;"/><path class="point" transform="translate(344.24,166.6)" d="M2.5,0A2.5,2.5 0 1,1 0,-2.5A2.5,2.5 0 0,1 2.5,0Z" style="opacity: 1; stroke-width: 0px; fill: rgb(149, 68, 87); fill-opacity: 1;"/><path class="point" transform="translate(349.84,164.63)" d="M2.5,0A2.5,2.5 0 1,1 0,-2.5A2.5,2.5 0 0,1 2.5,0Z" style="opacity: 1; stroke-width: 0px; fill: rgb(149, 68, 87); fill-opacity: 1;"/><path class="point" transform="translate(350.81,163.52)" d="M2.5,0A2.5,2.5 0 1,1 0,-2.5A2.5,2.5 0 0,1 2.5,0Z" style="opacity: 1; stroke-width: 0px; fill: rgb(149, 68, 87); fill-opacity: 1;"/><path class="point" transform="translate(351.34,162.02)" d="M2.5,0A2.5,2.5 0 1,1 0,-2.5A2.5,2.5 0 0,1 2.5,0Z" style="opacity: 1; stroke-width: 0px; fill: rgb(149, 68, 87); fill-opacity: 1;"/><path class="point" transform="translate(355.05,163.12)" d="M2.5,0A2.5,2.5 0 1,1 0,-2.5A2.5,2.5 0 0,1 2.5,0Z" style="opacity: 1; stroke-width: 0px; fill: rgb(149, 68, 87); fill-opacity: 1;"/><path class="point" transform="translate(365.77,164.21)" d="M2.5,0A2.5,2.5 0 1,1 0,-2.5A2.5,2.5 0 0,1 2.5,0Z" style="opacity: 1; stroke-width: 0px; fill: rgb(149, 68, 87); fill-opacity: 1;"/></g></g><g class="trace violins" style="opacity: 1;"><path class="violin" d="M333.85,139.92L333.85,139.33Q336.6,138.99 337.96,138.72C339.34,138.44 340.72,138.12 342.08,137.68C343.47,137.23 344.84,136.69 346.19,136.05C347.58,135.39 348.96,134.61 350.31,133.75C351.71,132.85 353.07,131.82 354.42,130.75C355.82,129.64 357.18,128.41 358.54,127.18C359.93,125.92 361.28,124.57 362.65,123.26C364.02,121.94 365.38,120.58 366.77,119.3C368.13,118.05 369.48,116.78 370.88,115.67C372.22,114.61 373.59,113.57 375,112.78C376.33,112.03 377.71,111.36 379.11,110.98C380.46,110.62 381.86,110.44 383.23,110.5C384.61,110.56 386,110.91 387.34,111.36C388.74,111.83 390.11,112.56 391.46,113.32C392.86,114.1 394.22,115.07 395.58,116C396.96,116.95 398.32,117.99 399.69,118.97C401.06,119.95 402.43,120.96 403.81,121.9C405.17,122.83 406.54,123.73 407.92,124.58C409.28,125.42 410.66,126.22 412.04,126.98C413.4,127.73 414.77,128.43 416.15,129.12C417.52,129.8 418.89,130.45 420.27,131.08C421.64,131.71 423,132.32 424.38,132.9C425.75,133.47 427.12,134.04 428.5,134.54C429.86,135.04 431.23,135.51 432.61,135.91C433.97,136.3 435.35,136.66 436.73,136.92C438.09,137.18 439.47,137.36 440.84,137.49C442.21,137.62 443.59,137.66 444.96,137.68C446.33,137.7 447.7,137.64 449.07,137.6C450.44,137.56 451.82,137.49 453.19,137.46C454.56,137.43 455.93,137.39 457.3,137.41C458.67,137.43 460.05,137.48 461.42,137.56C462.79,137.64 464.16,137.77 465.53,137.9C466.9,138.03 468.28,138.2 469.65,138.35C471.02,138.5 472.39,138.66 473.76,138.78C475.13,138.9 476.51,139.02 477.88,139.09C479.25,139.16 480.62,139.2 481.99,139.2C483.36,139.2 484.74,139.17 486.11,139.1C487.48,139.03 488.85,138.91 490.22,138.78C491.59,138.65 492.97,138.48 494.34,138.31C495.71,138.14 497.08,137.94 498.45,137.76C499.82,137.58 501.2,137.41 502.57,137.25C503.94,137.1 505.31,136.95 506.68,136.83C508.05,136.72 509.43,136.63 510.8,136.56C512.17,136.49 513.54,136.45 514.91,136.43C516.28,136.41 517.66,136.42 519.03,136.44C520.4,136.46 521.77,136.5 523.14,136.57C524.51,136.64 525.89,136.74 527.26,136.86C528.63,136.98 530,137.12 531.37,137.28C532.74,137.44 534.12,137.64 535.49,137.82C536.86,138 538.23,138.2 539.6,138.38C540.97,138.56 542.35,138.75 543.72,138.9C545.09,139.05 546.46,139.19 547.83,139.3Q549.2,139.41 551.95,139.58L551.95,139.92" style="vector-effect: non-scaling-stroke; stroke-width: 2px; stroke: rgb(165, 63, 75); stroke-opacity: 1; fill: rgb(165, 63, 75); fill-opacity: 0.5;"/><g class="points"><path class="point" transform="translate(358.82,131.79)" d="M2.5,0A2.5,2.5 0 1,1 0,-2.5A2.5,2.5 0 0,1 2.5,0Z" style="opacity: 1; stroke-width: 0px; fill: rgb(165, 63, 75); fill-opacity: 1;"/><path class="point" transform="translate(364.75,136.95)" d="M2.5,0A2.5,2.5 0 1,1 0,-2.5A2.5,2.5 0 0,1 2.5,0Z" style="opacity: 1; stroke-width: 0px; fill: rgb(165, 63, 75); fill-opacity: 1;"/><path class="point" transform="translate(367.07,130.62)" d="M2.5,0A2.5,2.5 0 1,1 0,-2.5A2.5,2.5 0 0,1 2.5,0Z" style="opacity: 1; stroke-width: 0px; fill: rgb(165, 63, 75); fill-opacity: 1;"/><path class="point" transform="translate(369.96,137.99)" d="M2.5,0A2.5,2.5 0 1,1 0,-2.5A2.5,2.5 0 0,1 2.5,0Z" style="opacity: 1; stroke-width: 0px; fill: rgb(165, 63, 75); fill-opacity: 1;"/><path class="point" transform="translate(373.39,135.21)" d="M2.5,0A2.5,2.5 0 1,1 0,-2.5A2.5,2.5 0 0,1 2.5,0Z" style="opacity: 1; stroke-width: 0px; fill: rgb(165, 63, 75); fill-opacity: 1;"/><path class="point" transform="translate(376.33,131.44)" d="M2.5,0A2.5,2.5 0 1,1 0,-2.5A2.5,2.5 0 0,1 2.5,0Z" style="opacity: 1; stroke-width: 0px; fill: rgb(165, 63, 75); fill-opacity: 1;"/><path class="point" transform="translate(377.64,134.24)" d="M2.5,0A2.5,2.5 0 1,1 0,-2.5A2.5,2.5 0 0,1 2.5,0Z" style="opacity: 1; stroke-width: 0px; fill: rgb(165, 63, 75); fill-opacity: 1;"/><path class="point" transform="translate(382.56,132.42)" d="M2.5,0A2.5,2.5 0 1,1 0,-2.5A2.5,2.5 0 0,1 2.5,0Z" style="opacity: 1; stroke-width: 0px; fill: rgb(165, 63, 75); fill-opacity: 1;"/><path class="point" transform="translate(382.85,135.91)" d="M2.5,0A2.5,2.5 0 1,1 0,-2.5A2.5,2.5 0 0,1 2.5,0Z" style="opacity: 1; stroke-width: 0px; fill: rgb(165, 63, 75); fill-opacity: 1;"/><path class="point" transform="translate(384.49,137.72)" d="M2.5,0A2.5,2.5 0 1,1 0,-2.5A2.5,2.5 0 0,1 2.5,0Z" style="opacity: 1; stroke-width: 0px; fill: rgb(165, 63, 75); fill-opacity: 1;"/><path class="point" transform="translate(385.69,132.64)" d="M2.5,0A2.5,2.5 0 1,1 0,-2.5A2.5,2.5 0 0,1 2.5,0Z" style="opacity: 1; stroke-width: 0px; fill: rgb(165, 63, 75); fill-opacity: 1;"/><path class="point" transform="translate(385.84,135.76)" d="M2.5,0A2.5,2.5 0 1,1 0,-2.5A2.5,2.5 0 0,1 2.5,0Z" style="opacity: 1; stroke-width: 0px; fill: rgb(165, 63, 75); fill-opacity: 1;"/><path class="point" transform="translate(388.35,130.82)" d="M2.5,0A2.5,2.5 0 1,1 0,-2.5A2.5,2.5 0 0,1 2.5,0Z" style="opacity: 1; stroke-width: 0px; fill: rgb(165, 63, 75); fill-opacity: 1;"/><path class="point" transform="translate(388.93,138.22)" d="M2.5,0A2.5,2.5 0 1,1 0,-2.5A2.5,2.5 0 0,1 2.5,0Z" style="opacity: 1; stroke-width: 0px; fill: rgb(165, 63, 75); fill-opacity: 1;"/><path class="point" transform="translate(399.35,136.43)" d="M2.5,0A2.5,2.5 0 1,1 0,-2.5A2.5,2.5 0 0,1 2.5,0Z" style="opacity: 1; stroke-width: 0px; fill: rgb(165, 63, 75); fill-opacity: 1;"/><path class="point" transform="translate(400.51,131.36)" d="M2.5,0A2.5,2.5 0 1,1 0,-2.5A2.5,2.5 0 0,1 2.5,0Z" style="opacity: 1; stroke-width: 0px; fill: rgb(165, 63, 75); fill-opacity: 1;"/><path class="point" transform="translate(401.47,134.62)" d="M2.5,0A2.5,2.5 0 1,1 0,-2.5A2.5,2.5 0 0,1 2.5,0Z" style="opacity: 1; stroke-width: 0px; fill: rgb(165, 63, 75); fill-opacity: 1;"/><path class="point" transform="translate(408.08,135.9)" d="M2.5,0A2.5,2.5 0 1,1 0,-2.5A2.5,2.5 0 0,1 2.5,0Z" style="opacity: 1; stroke-width: 0px; fill: rgb(165, 63, 75); fill-opacity: 1;"/><path class="point" transform="translate(418.36,134.72)" d="M2.5,0A2.5,2.5 0 1,1 0,-2.5A2.5,2.5 0 0,1 2.5,0Z" style="opacity: 1; stroke-width: 0px; fill: rgb(165, 63, 75); fill-opacity: 1;"/><path class="point" transform="translate(422.61,134.08)" d="M2.5,0A2.5,2.5 0 1,1 0,-2.5A2.5,2.5 0 0,1 2.5,0Z" style="opacity: 1; stroke-width: 0px; fill: rgb(165, 63, 75); fill-opacity: 1;"/><path class="point" transform="translate(457.64,133.18)" d="M2.5,0A2.5,2.5 0 1,1 0,-2.5A2.5,2.5 0 0,1 2.5,0Z" style="opacity: 1; stroke-width: 0px; fill: rgb(165, 63, 75); fill-opacity: 1;"/><path class="point" transform="translate(506.67,133.84)" d="M2.5,0A2.5,2.5 0 1,1 0,-2.5A2.5,2.5 0 0,1 2.5,0Z" style="opacity: 1; stroke-width: 0px; fill: rgb(165, 63, 75); fill-opacity: 1;"/><path class="point" transform="translate(526.98,134.5)" d="M2.5,0A2.5,2.5 0 1,1 0,-2.5A2.5,2.5 0 0,1 2.5,0Z" style="opacity: 1; stroke-width: 0px; fill: rgb(165, 63, 75); fill-opacity: 1;"/></g></g><g class="trace violins" style="opacity: 1;"><path class="violin" d="M331.78,110.5L331.78,109.75Q335.02,109.3 336.63,108.92C338.26,108.54 339.89,108.07 341.48,107.46C343.12,106.83 344.75,106.07 346.33,105.18C347.98,104.25 349.6,103.14 351.18,101.96C352.83,100.73 354.43,99.31 356.02,97.9C357.66,96.45 359.25,94.86 360.87,93.35C362.48,91.85 364.07,90.27 365.72,88.87C367.31,87.52 368.91,86.17 370.57,85.08C372.15,84.04 373.76,83.09 375.42,82.43C377,81.8 378.64,81.36 380.27,81.14C381.87,80.92 383.51,80.94 385.12,81.08C386.74,81.22 388.37,81.59 389.97,82C391.6,82.42 393.22,82.99 394.82,83.59C396.45,84.2 398.07,84.91 399.67,85.65C401.3,86.4 402.92,87.22 404.52,88.09C406.15,88.97 407.76,89.92 409.36,90.91C410.99,91.92 412.6,93 414.21,94.09C415.83,95.19 417.44,96.35 419.06,97.48C420.68,98.6 422.28,99.77 423.91,100.84C425.51,101.89 427.12,102.94 428.76,103.86C430.36,104.76 431.97,105.6 433.61,106.3C435.21,106.98 436.83,107.56 438.46,108.03C440.06,108.49 441.69,108.83 443.31,109.08C444.92,109.33 446.54,109.47 448.16,109.54C449.77,109.61 451.39,109.59 453.01,109.51C454.63,109.43 456.25,109.27 457.86,109.07C459.48,108.87 461.09,108.59 462.7,108.31C464.32,108.02 465.93,107.68 467.55,107.36C469.17,107.04 470.78,106.68 472.4,106.38C474.01,106.08 475.63,105.79 477.25,105.58C478.86,105.37 480.48,105.21 482.1,105.13C483.71,105.05 485.33,105.04 486.95,105.08C488.57,105.12 490.18,105.23 491.8,105.35C493.42,105.47 495.03,105.65 496.65,105.82C498.27,106 499.88,106.2 501.5,106.4C503.12,106.6 504.73,106.81 506.35,107.02C507.97,107.23 509.58,107.44 511.2,107.66C512.82,107.88 514.43,108.11 516.05,108.32C517.66,108.53 519.28,108.75 520.89,108.94C522.51,109.13 524.12,109.32 525.74,109.48C527.36,109.64 528.97,109.77 530.59,109.89Q532.21,110 535.44,110.17L535.44,110.5" style="vector-effect: non-scaling-stroke; stroke-width: 2px; stroke: rgb(182, 58, 63); stroke-opacity: 1; fill: rgb(182, 58, 63); fill-opacity: 0.5;"/><g class="points"><path class="point" transform="translate(361.04,102.11)" d="M2.5,0A2.5,2.5 0 1,1 0,-2.5A2.5,2.5 0 0,1 2.5,0Z" style="opacity: 1; stroke-width: 0px; fill: rgb(182, 58, 63); fill-opacity: 1;"/><path class="point" transform="translate(367.98,107.83)" d="M2.5,0A2.5,2.5 0 1,1 0,-2.5A2.5,2.5 0 0,1 2.5,0Z" style="opacity: 1; stroke-width: 0px; fill: rgb(182, 58, 63); fill-opacity: 1;"/><path class="point" transform="translate(368.42,100.49)" d="M2.5,0A2.5,2.5 0 1,1 0,-2.5A2.5,2.5 0 0,1 2.5,0Z" style="opacity: 1; stroke-width: 0px; fill: rgb(182, 58, 63); fill-opacity: 1;"/><path class="point" transform="translate(369.43,109.42)" d="M2.5,0A2.5,2.5 0 1,1 0,-2.5A2.5,2.5 0 0,1 2.5,0Z" style="opacity: 1; stroke-width: 0px; fill: rgb(182, 58, 63); fill-opacity: 1;"/><path class="point" transform="translate(371.65,106.07)" d="M2.5,0A2.5,2.5 0 1,1 0,-2.5A2.5,2.5 0 0,1 2.5,0Z" style="opacity: 1; stroke-width: 0px; fill: rgb(182, 58, 63); fill-opacity: 1;"/><path class="point" transform="translate(376.77,102.02)" d="M2.5,0A2.5,2.5 0 1,1 0,-2.5A2.5,2.5 0 0,1 2.5,0Z" style="opacity: 1; stroke-width: 0px; fill: rgb(182, 58, 63); fill-opacity: 1;"/><path class="point" transform="translate(378.41,104.82)" d="M2.5,0A2.5,2.5 0 1,1 0,-2.5A2.5,2.5 0 0,1 2.5,0Z" style="opacity: 1; stroke-width: 0px; fill: rgb(182, 58, 63); fill-opacity: 1;"/><path class="point" transform="translate(379.18,102.99)" d="M2.5,0A2.5,2.5 0 1,1 0,-2.5A2.5,2.5 0 0,1 2.5,0Z" style="opacity: 1; stroke-width: 0px; fill: rgb(182, 58, 63); fill-opacity: 1;"/><path class="point" transform="translate(379.23,106.29)" d="M2.5,0A2.5,2.5 0 1,1 0,-2.5A2.5,2.5 0 0,1 2.5,0Z" style="opacity: 1; stroke-width: 0px; fill: rgb(182, 58, 63); fill-opacity: 1;"/><path class="point" transform="translate(380.14,108.52)" d="M2.5,0A2.5,2.5 0 1,1 0,-2.5A2.5,2.5 0 0,1 2.5,0Z" style="opacity: 1; stroke-width: 0px; fill: rgb(182, 58, 63); fill-opacity: 1;"/><path class="point" transform="translate(391.15,103.2)" d="M2.5,0A2.5,2.5 0 1,1 0,-2.5A2.5,2.5 0 0,1 2.5,0Z" style="opacity: 1; stroke-width: 0px; fill: rgb(182, 58, 63); fill-opacity: 1;"/><path class="point" transform="translate(391.63,106.2)" d="M2.5,0A2.5,2.5 0 1,1 0,-2.5A2.5,2.5 0 0,1 2.5,0Z" style="opacity: 1; stroke-width: 0px; fill: rgb(182, 58, 63); fill-opacity: 1;"/><path class="point" transform="translate(391.68,101.65)" d="M2.5,0A2.5,2.5 0 1,1 0,-2.5A2.5,2.5 0 0,1 2.5,0Z" style="opacity: 1; stroke-width: 0px; fill: rgb(182, 58, 63); fill-opacity: 1;"/><path class="point" transform="translate(396.07,109.1)" d="M2.5,0A2.5,2.5 0 1,1 0,-2.5A2.5,2.5 0 0,1 2.5,0Z" style="opacity: 1; stroke-width: 0px; fill: rgb(182, 58, 63); fill-opacity: 1;"/><path class="point" transform="translate(397.61,107.26)" d="M2.5,0A2.5,2.5 0 1,1 0,-2.5A2.5,2.5 0 0,1 2.5,0Z" style="opacity: 1; stroke-width: 0px; fill: rgb(182, 58, 63); fill-opacity: 1;"/><path class="point" transform="translate(402.92,102.08)" d="M2.5,0A2.5,2.5 0 1,1 0,-2.5A2.5,2.5 0 0,1 2.5,0Z" style="opacity: 1; stroke-width: 0px; fill: rgb(182, 58, 63); fill-opacity: 1;"/><path class="point" transform="translate(410.26,105.33)" d="M2.5,0A2.5,2.5 0 1,1 0,-2.5A2.5,2.5 0 0,1 2.5,0Z" style="opacity: 1; stroke-width: 0px; fill: rgb(182, 58, 63); fill-opacity: 1;"/><path class="point" transform="translate(412.67,106.79)" d="M2.5,0A2.5,2.5 0 1,1 0,-2.5A2.5,2.5 0 0,1 2.5,0Z" style="opacity: 1; stroke-width: 0px; fill: rgb(182, 58, 63); fill-opacity: 1;"/><path class="point" transform="translate(413.92,105.43)" d="M2.5,0A2.5,2.5 0 1,1 0,-2.5A2.5,2.5 0 0,1 2.5,0Z" style="opacity: 1; stroke-width: 0px; fill: rgb(182, 58, 63); fill-opacity: 1;"/><path class="point" transform="translate(415.47,104.67)" d="M2.5,0A2.5,2.5 0 1,1 0,-2.5A2.5,2.5 0 0,1 2.5,0Z" style="opacity: 1; stroke-width: 0px; fill: rgb(182, 58, 63); fill-opacity: 1;"/><path class="point" transform="translate(480.66,103.61)" d="M2.5,0A2.5,2.5 0 1,1 0,-2.5A2.5,2.5 0 0,1 2.5,0Z" style="opacity: 1; stroke-width: 0px; fill: rgb(182, 58, 63); fill-opacity: 1;"/><path class="point" transform="translate(481.96,104.38)" d="M2.5,0A2.5,2.5 0 1,1 0,-2.5A2.5,2.5 0 0,1 2.5,0Z" style="opacity: 1; stroke-width: 0px; fill: rgb(182, 58, 63); fill-opacity: 1;"/><path class="point" transform="translate(506.18,105.18)" d="M2.5,0A2.5,2.5 0 1,1 0,-2.5A2.5,2.5 0 0,1 2.5,0Z" style="opacity: 1; stroke-width: 0px; fill: rgb(182, 58, 63); fill-opacity: 1;"/></g></g><g class="trace violins" style="opacity: 1;"><path class="violin" d="M339.29,81.08L339.29,80.2Q341.96,79.68 343.28,79.28C344.63,78.87 345.97,78.37 347.28,77.74C348.64,77.09 349.97,76.3 351.27,75.42C352.63,74.5 353.95,73.42 355.26,72.3C356.62,71.14 357.94,69.83 359.26,68.55C360.6,67.25 361.91,65.85 363.25,64.54C364.57,63.25 365.88,61.92 367.24,60.74C368.55,59.6 369.88,58.5 371.24,57.56C372.54,56.66 373.87,55.85 375.23,55.17C376.54,54.52 377.87,53.99 379.22,53.54C380.54,53.09 381.88,52.75 383.22,52.46C384.54,52.17 385.88,51.93 387.21,51.8C388.54,51.67 389.87,51.58 391.2,51.67C392.54,51.76 393.89,51.94 395.2,52.34C396.56,52.75 397.9,53.37 399.19,54.13C400.57,54.94 401.89,56.02 403.18,57.14C404.55,58.33 405.86,59.73 407.18,61.09C408.53,62.48 409.83,64.01 411.17,65.42C412.49,66.8 413.79,68.22 415.16,69.46C416.46,70.64 417.79,71.77 419.16,72.69C420.45,73.56 421.79,74.31 423.15,74.89C424.45,75.44 425.8,75.83 427.14,76.13C428.46,76.42 429.8,76.56 431.14,76.68C432.47,76.8 433.8,76.82 435.13,76.86C436.46,76.9 437.79,76.88 439.12,76.9C440.45,76.92 441.79,76.92 443.12,76.96C444.45,77 445.78,77.06 447.11,77.13C448.44,77.2 449.77,77.29 451.1,77.39C452.43,77.49 453.77,77.61 455.1,77.72C456.43,77.83 457.76,77.95 459.09,78.03C460.42,78.11 461.76,78.18 463.09,78.22C464.42,78.26 465.75,78.27 467.08,78.27C468.41,78.27 469.74,78.23 471.07,78.22C472.4,78.21 473.74,78.18 475.07,78.2C476.4,78.22 477.73,78.25 479.06,78.32C480.39,78.39 481.72,78.5 483.05,78.63C484.38,78.76 485.72,78.94 487.05,79.11C488.38,79.28 489.71,79.48 491.04,79.65C492.37,79.82 493.7,80 495.03,80.15C496.36,80.3 497.7,80.42 499.03,80.53C500.36,80.64 501.69,80.73 503.02,80.8C504.35,80.87 505.68,80.91 507.01,80.95C508.34,80.99 509.68,81.01 511.01,81.03C512.34,81.05 513.67,81.05 515,81.06C516.33,81.07 517.66,81.08 518.99,81.08C520.32,81.08 521.66,81.08 522.99,81.08C524.32,81.08 525.65,81.08 526.98,81.08C528.31,81.08 529.64,81.08 530.97,81.08C532.3,81.08 533.64,81.08 534.97,81.08C536.3,81.08 537.63,81.08 538.96,81.08C540.29,81.08 541.62,81.08 542.95,81.08C544.28,81.08 545.62,81.08 546.95,81.08C548.28,81.08 549.61,81.08 550.94,81.08C552.27,81.08 553.6,81.08 554.93,81.08C556.26,81.08 557.6,81.08 558.93,81.08C560.26,81.08 561.59,81.08 562.92,81.08C564.25,81.08 565.58,81.07 566.91,81.07C568.24,81.06 569.58,81.06 570.91,81.05C572.24,81.04 573.57,81.03 574.9,81.01C576.23,80.99 577.56,80.96 578.89,80.91C580.22,80.86 581.56,80.81 582.89,80.73C584.22,80.65 585.55,80.55 586.88,80.43C588.21,80.31 589.54,80.16 590.87,80C592.2,79.84 593.54,79.66 594.87,79.49C596.2,79.32 597.53,79.13 598.86,78.98C600.19,78.83 601.52,78.69 602.85,78.6C604.18,78.51 605.52,78.46 606.85,78.46C608.18,78.46 609.51,78.51 610.84,78.6C612.17,78.69 613.5,78.83 614.83,78.98C616.16,79.13 617.5,79.32 618.83,79.49C620.16,79.66 621.49,79.84 622.82,80C624.15,80.16 625.49,80.31 626.82,80.43Q628.15,80.55 630.81,80.73L630.81,81.08" style="vector-effect: non-scaling-stroke; stroke-width: 2px; stroke: rgb(198, 53, 51); stroke-opacity: 1; fill: rgb(198, 53, 51); fill-opacity: 0.5;"/><g class="points"><path class="point" transform="translate(363.26,72.37)" d="M2.5,0A2.5,2.5 0 1,1 0,-2.5A2.5,2.5 0 0,1 2.5,0Z" style="opacity: 1; stroke-width: 0px; fill: rgb(198, 53, 51); fill-opacity: 1;"/><path class="point" transform="translate(365.28,78.71)" d="M2.5,0A2.5,2.5 0 1,1 0,-2.5A2.5,2.5 0 0,1 2.5,0Z" style="opacity: 1; stroke-width: 0px; fill: rgb(198, 53, 51); fill-opacity: 1;"/><path class="point" transform="translate(369.63,70.64)" d="M2.5,0A2.5,2.5 0 1,1 0,-2.5A2.5,2.5 0 0,1 2.5,0Z" style="opacity: 1; stroke-width: 0px; fill: rgb(198, 53, 51); fill-opacity: 1;"/><path class="point" transform="translate(370.59,79.68)" d="M2.5,0A2.5,2.5 0 1,1 0,-2.5A2.5,2.5 0 0,1 2.5,0Z" style="opacity: 1; stroke-width: 0px; fill: rgb(198, 53, 51); fill-opacity: 1;"/><path class="point" transform="translate(375.32,76.43)" d="M2.5,0A2.5,2.5 0 1,1 0,-2.5A2.5,2.5 0 0,1 2.5,0Z" style="opacity: 1; stroke-width: 0px; fill: rgb(198, 53, 51); fill-opacity: 1;"/><path class="point" transform="translate(375.61,72.44)" d="M2.5,0A2.5,2.5 0 1,1 0,-2.5A2.5,2.5 0 0,1 2.5,0Z" style="opacity: 1; stroke-width: 0px; fill: rgb(198, 53, 51); fill-opacity: 1;"/><path class="point" transform="translate(377.83,75.38)" d="M2.5,0A2.5,2.5 0 1,1 0,-2.5A2.5,2.5 0 0,1 2.5,0Z" style="opacity: 1; stroke-width: 0px; fill: rgb(198, 53, 51); fill-opacity: 1;"/><path class="point" transform="translate(378.12,73.69)" d="M2.5,0A2.5,2.5 0 1,1 0,-2.5A2.5,2.5 0 0,1 2.5,0Z" style="opacity: 1; stroke-width: 0px; fill: rgb(198, 53, 51); fill-opacity: 1;"/><path class="point" transform="translate(384.2,76.88)" d="M2.5,0A2.5,2.5 0 1,1 0,-2.5A2.5,2.5 0 0,1 2.5,0Z" style="opacity: 1; stroke-width: 0px; fill: rgb(198, 53, 51); fill-opacity: 1;"/><path class="point" transform="translate(389.7,79.44)" d="M2.5,0A2.5,2.5 0 1,1 0,-2.5A2.5,2.5 0 0,1 2.5,0Z" style="opacity: 1; stroke-width: 0px; fill: rgb(198, 53, 51); fill-opacity: 1;"/><path class="point" transform="translate(389.89,73.72)" d="M2.5,0A2.5,2.5 0 1,1 0,-2.5A2.5,2.5 0 0,1 2.5,0Z" style="opacity: 1; stroke-width: 0px; fill: rgb(198, 53, 51); fill-opacity: 1;"/><path class="point" transform="translate(395.44,76.94)" d="M2.5,0A2.5,2.5 0 1,1 0,-2.5A2.5,2.5 0 0,1 2.5,0Z" style="opacity: 1; stroke-width: 0px; fill: rgb(198, 53, 51); fill-opacity: 1;"/><path class="point" transform="translate(396.55,71.88)" d="M2.5,0A2.5,2.5 0 1,1 0,-2.5A2.5,2.5 0 0,1 2.5,0Z" style="opacity: 1; stroke-width: 0px; fill: rgb(198, 53, 51); fill-opacity: 1;"/><path class="point" transform="translate(397.03,80.64)" d="M2.5,0A2.5,2.5 0 1,1 0,-2.5A2.5,2.5 0 0,1 2.5,0Z" style="opacity: 1; stroke-width: 0px; fill: rgb(198, 53, 51); fill-opacity: 1;"/><path class="point" transform="translate(397.32,77.58)" d="M2.5,0A2.5,2.5 0 1,1 0,-2.5A2.5,2.5 0 0,1 2.5,0Z" style="opacity: 1; stroke-width: 0px; fill: rgb(198, 53, 51); fill-opacity: 1;"/><path class="point" transform="translate(399.64,72.12)" d="M2.5,0A2.5,2.5 0 1,1 0,-2.5A2.5,2.5 0 0,1 2.5,0Z" style="opacity: 1; stroke-width: 0px; fill: rgb(198, 53, 51); fill-opacity: 1;"/><path class="point" transform="translate(404.13,75.95)" d="M2.5,0A2.5,2.5 0 1,1 0,-2.5A2.5,2.5 0 0,1 2.5,0Z" style="opacity: 1; stroke-width: 0px; fill: rgb(198, 53, 51); fill-opacity: 1;"/><path class="point" transform="translate(404.95,76.8)" d="M2.5,0A2.5,2.5 0 1,1 0,-2.5A2.5,2.5 0 0,1 2.5,0Z" style="opacity: 1; stroke-width: 0px; fill: rgb(198, 53, 51); fill-opacity: 1;"/><path class="point" transform="translate(407.7,75.79)" d="M2.5,0A2.5,2.5 0 1,1 0,-2.5A2.5,2.5 0 0,1 2.5,0Z" style="opacity: 1; stroke-width: 0px; fill: rgb(198, 53, 51); fill-opacity: 1;"/><path class="point" transform="translate(433.03,75.24)" d="M2.5,0A2.5,2.5 0 1,1 0,-2.5A2.5,2.5 0 0,1 2.5,0Z" style="opacity: 1; stroke-width: 0px; fill: rgb(198, 53, 51); fill-opacity: 1;"/><path class="point" transform="translate(450.55,74.49)" d="M2.5,0A2.5,2.5 0 1,1 0,-2.5A2.5,2.5 0 0,1 2.5,0Z" style="opacity: 1; stroke-width: 0px; fill: rgb(198, 53, 51); fill-opacity: 1;"/><path class="point" transform="translate(477.81,75.04)" d="M2.5,0A2.5,2.5 0 1,1 0,-2.5A2.5,2.5 0 0,1 2.5,0Z" style="opacity: 1; stroke-width: 0px; fill: rgb(198, 53, 51); fill-opacity: 1;"/><path class="point" transform="translate(606.84,75.58)" d="M2.5,0A2.5,2.5 0 1,1 0,-2.5A2.5,2.5 0 0,1 2.5,0Z" style="opacity: 1; stroke-width: 0px; fill: rgb(198, 53, 51); fill-opacity: 1;"/></g></g><g class="trace violins" style="opacity: 1;"><path class="violin" d="M340.44,51.67L340.44,50.58Q343.91,49.97 345.63,49.49C347.38,49.01 349.12,48.42 350.83,47.69C352.59,46.94 354.32,46.04 356.02,45.02C357.79,43.96 359.51,42.72 361.21,41.42C362.97,40.08 364.68,38.58 366.4,37.09C368.14,35.58 369.85,33.94 371.59,32.41C373.31,30.9 375.01,29.33 376.78,27.99C378.47,26.71 380.19,25.43 381.97,24.5C383.65,23.62 385.4,22.85 387.16,22.48C388.86,22.12 390.64,22.05 392.35,22.25C394.1,22.46 395.85,23.05 397.55,23.74C399.32,24.46 401.04,25.51 402.74,26.54C404.5,27.6 406.2,28.86 407.93,30.04C409.66,31.23 411.38,32.5 413.12,33.66C414.84,34.8 416.56,35.94 418.31,36.95C420.02,37.94 421.75,38.87 423.5,39.69C425.21,40.49 426.94,41.2 428.69,41.81C430.4,42.41 432.14,42.91 433.88,43.34C435.6,43.76 437.34,44.09 439.08,44.37C440.81,44.65 442.54,44.85 444.27,45.04C446,45.23 447.73,45.37 449.46,45.52C451.19,45.67 452.92,45.8 454.65,45.94C456.38,46.08 458.11,46.23 459.84,46.38C461.57,46.53 463.3,46.67 465.03,46.82C466.76,46.97 468.49,47.12 470.22,47.26C471.95,47.4 473.68,47.53 475.41,47.65C477.14,47.77 478.87,47.88 480.6,47.97C482.33,48.06 484.07,48.13 485.8,48.2C487.53,48.27 489.26,48.32 490.99,48.37C492.72,48.42 494.45,48.45 496.18,48.49C497.91,48.53 499.64,48.57 501.37,48.61C503.1,48.66 504.83,48.71 506.56,48.76C508.29,48.81 510.02,48.87 511.75,48.92C513.48,48.97 515.21,49.02 516.94,49.05C518.67,49.08 520.4,49.09 522.13,49.1C523.86,49.11 525.6,49.1 527.33,49.1C529.06,49.1 530.79,49.08 532.52,49.1C534.25,49.12 535.98,49.14 537.71,49.2C539.44,49.26 541.17,49.35 542.9,49.45C544.63,49.56 546.36,49.69 548.09,49.83C549.82,49.97 551.55,50.15 553.28,50.3C555.01,50.45 556.74,50.6 558.47,50.74C560.2,50.87 561.93,51.01 563.66,51.11Q565.39,51.21 568.86,51.36L568.86,51.67" style="vector-effect: non-scaling-stroke; stroke-width: 2px; stroke: rgb(215, 48, 39); stroke-opacity: 1; fill: rgb(215, 48, 39); fill-opacity: 0.5;"/><g class="points"><path class="point" transform="translate(371.85,43.24)" d="M2.5,0A2.5,2.5 0 1,1 0,-2.5A2.5,2.5 0 0,1 2.5,0Z" style="opacity: 1; stroke-width: 0px; fill: rgb(215, 48, 39); fill-opacity: 1;"/><path class="point" transform="translate(372.71,49.02)" d="M2.5,0A2.5,2.5 0 1,1 0,-2.5A2.5,2.5 0 0,1 2.5,0Z" style="opacity: 1; stroke-width: 0px; fill: rgb(215, 48, 39); fill-opacity: 1;"/><path class="point" transform="translate(373.58,41.89)" d="M2.5,0A2.5,2.5 0 1,1 0,-2.5A2.5,2.5 0 0,1 2.5,0Z" style="opacity: 1; stroke-width: 0px; fill: rgb(215, 48, 39); fill-opacity: 1;"/><path class="point" transform="translate(381.45,50.23)" d="M2.5,0A2.5,2.5 0 1,1 0,-2.5A2.5,2.5 0 0,1 2.5,0Z" style="opacity: 1; stroke-width: 0px; fill: rgb(215, 48, 39); fill-opacity: 1;"/><path class="point" transform="translate(381.54,47.08)" d="M2.5,0A2.5,2.5 0 1,1 0,-2.5A2.5,2.5 0 0,1 2.5,0Z" style="opacity: 1; stroke-width: 0px; fill: rgb(215, 48, 39); fill-opacity: 1;"/><path class="point" transform="translate(385.36,42.96)" d="M2.5,0A2.5,2.5 0 1,1 0,-2.5A2.5,2.5 0 0,1 2.5,0Z" style="opacity: 1; stroke-width: 0px; fill: rgb(215, 48, 39); fill-opacity: 1;"/><path class="point" transform="translate(387.05,45.98)" d="M2.5,0A2.5,2.5 0 1,1 0,-2.5A2.5,2.5 0 0,1 2.5,0Z" style="opacity: 1; stroke-width: 0px; fill: rgb(215, 48, 39); fill-opacity: 1;"/><path class="point" transform="translate(389.89,44.3)" d="M2.5,0A2.5,2.5 0 1,1 0,-2.5A2.5,2.5 0 0,1 2.5,0Z" style="opacity: 1; stroke-width: 0px; fill: rgb(215, 48, 39); fill-opacity: 1;"/><path class="point" transform="translate(390.66,47.66)" d="M2.5,0A2.5,2.5 0 1,1 0,-2.5A2.5,2.5 0 0,1 2.5,0Z" style="opacity: 1; stroke-width: 0px; fill: rgb(215, 48, 39); fill-opacity: 1;"/><path class="point" transform="translate(392.93,49.83)" d="M2.5,0A2.5,2.5 0 1,1 0,-2.5A2.5,2.5 0 0,1 2.5,0Z" style="opacity: 1; stroke-width: 0px; fill: rgb(215, 48, 39); fill-opacity: 1;"/><path class="point" transform="translate(394.43,44.52)" d="M2.5,0A2.5,2.5 0 1,1 0,-2.5A2.5,2.5 0 0,1 2.5,0Z" style="opacity: 1; stroke-width: 0px; fill: rgb(215, 48, 39); fill-opacity: 1;"/><path class="point" transform="translate(395.97,47.24)" d="M2.5,0A2.5,2.5 0 1,1 0,-2.5A2.5,2.5 0 0,1 2.5,0Z" style="opacity: 1; stroke-width: 0px; fill: rgb(215, 48, 39); fill-opacity: 1;"/><path class="point" transform="translate(398.38,43.02)" d="M2.5,0A2.5,2.5 0 1,1 0,-2.5A2.5,2.5 0 0,1 2.5,0Z" style="opacity: 1; stroke-width: 0px; fill: rgb(215, 48, 39); fill-opacity: 1;"/><path class="point" transform="translate(400.27,49.13)" d="M2.5,0A2.5,2.5 0 1,1 0,-2.5A2.5,2.5 0 0,1 2.5,0Z" style="opacity: 1; stroke-width: 0px; fill: rgb(215, 48, 39); fill-opacity: 1;"/><path class="point" transform="translate(402.87,47.67)" d="M2.5,0A2.5,2.5 0 1,1 0,-2.5A2.5,2.5 0 0,1 2.5,0Z" style="opacity: 1; stroke-width: 0px; fill: rgb(215, 48, 39); fill-opacity: 1;"/><path class="point" transform="translate(414.36,43.29)" d="M2.5,0A2.5,2.5 0 1,1 0,-2.5A2.5,2.5 0 0,1 2.5,0Z" style="opacity: 1; stroke-width: 0px; fill: rgb(215, 48, 39); fill-opacity: 1;"/><path class="point" transform="translate(420.44,46.4)" d="M2.5,0A2.5,2.5 0 1,1 0,-2.5A2.5,2.5 0 0,1 2.5,0Z" style="opacity: 1; stroke-width: 0px; fill: rgb(215, 48, 39); fill-opacity: 1;"/><path class="point" transform="translate(424.15,47.64)" d="M2.5,0A2.5,2.5 0 1,1 0,-2.5A2.5,2.5 0 0,1 2.5,0Z" style="opacity: 1; stroke-width: 0px; fill: rgb(215, 48, 39); fill-opacity: 1;"/><path class="point" transform="translate(445.91,46.47)" d="M2.5,0A2.5,2.5 0 1,1 0,-2.5A2.5,2.5 0 0,1 2.5,0Z" style="opacity: 1; stroke-width: 0px; fill: rgb(215, 48, 39); fill-opacity: 1;"/><path class="point" transform="translate(454.46,45.83)" d="M2.5,0A2.5,2.5 0 1,1 0,-2.5A2.5,2.5 0 0,1 2.5,0Z" style="opacity: 1; stroke-width: 0px; fill: rgb(215, 48, 39); fill-opacity: 1;"/><path class="point" transform="translate(476.36,44.92)" d="M2.5,0A2.5,2.5 0 1,1 0,-2.5A2.5,2.5 0 0,1 2.5,0Z" style="opacity: 1; stroke-width: 0px; fill: rgb(215, 48, 39); fill-opacity: 1;"/><path class="point" transform="translate(503.72,45.58)" d="M2.5,0A2.5,2.5 0 1,1 0,-2.5A2.5,2.5 0 0,1 2.5,0Z" style="opacity: 1; stroke-width: 0px; fill: rgb(215, 48, 39); fill-opacity: 1;"/><path class="point" transform="translate(537.45,46.26)" d="M2.5,0A2.5,2.5 0 1,1 0,-2.5A2.5,2.5 0 0,1 2.5,0Z" style="opacity: 1; stroke-width: 0px; fill: rgb(215, 48, 39); fill-opacity: 1;"/></g></g></g></g><g class="overplot"/><path class="xlines-above crisp" d="M111,445.5H720" style="fill: none; stroke-width: 1px; stroke: rgb(255, 255, 255); stroke-opacity: 1;"/><path class="ylines-above crisp" d="M111.5,50V445" style="fill: none; stroke-width: 1px; stroke: rgb(255, 255, 255); stroke-opacity: 1;"/><g class="overlines-above"/><g class="xaxislayer-above"><g class="xtick"><text text-anchor="middle" x="0" y="460.4" transform="translate(179.56,0)" style="font-family: 'Open Sans', verdana, arial, sans-serif; font-size: 12px; fill: rgb(42, 63, 95); fill-opacity: 1; white-space: pre;">30</text></g><g class="xtick"><text text-anchor="middle" x="0" y="460.4" transform="translate(276.06,0)" style="font-family: 'Open Sans', verdana, arial, sans-serif; font-size: 12px; fill: rgb(42, 63, 95); fill-opacity: 1; white-space: pre;">20</text></g><g class="xtick"><text text-anchor="middle" x="0" y="460.4" transform="translate(372.57,0)" style="font-family: 'Open Sans', verdana, arial, sans-serif; font-size: 12px; fill: rgb(42, 63, 95); fill-opacity: 1; white-space: pre;">10</text></g><g class="xtick"><text text-anchor="middle" x="0" y="460.4" transform="translate(469.08,0)" style="font-family: 'Open Sans', verdana, arial, sans-serif; font-size: 12px; fill: rgb(42, 63, 95); fill-opacity: 1; white-space: pre;">0</text></g><g class="xtick"><text text-anchor="middle" x="0" y="460.4" transform="translate(565.5899999999999,0)" style="font-family: 'Open Sans', verdana, arial, sans-serif; font-size: 12px; fill: rgb(42, 63, 95); fill-opacity: 1; white-space: pre;">10</text></g><g class="xtick"><text text-anchor="middle" x="0" y="460.4" transform="translate(662.1,0)" style="font-family: 'Open Sans', verdana, arial, sans-serif; font-size: 12px; fill: rgb(42, 63, 95); fill-opacity: 1; white-space: pre;">20</text></g></g><g class="yaxislayer-above"><g class="ytick"><text text-anchor="end" x="108.6" y="4.199999999999999" transform="translate(0,425.25)" style="font-family: 'Open Sans', verdana, arial, sans-serif; font-size: 12px; fill: rgb(42, 63, 95); fill-opacity: 1; white-space: pre;">Sample 134-2_A5</text></g><g class="ytick"><text text-anchor="end" x="108.6" y="4.199999999999999" transform="translate(0,395.83)" style="font-family: 'Open Sans', verdana, arial, sans-serif; font-size: 12px; fill: rgb(42, 63, 95); fill-opacity: 1; white-space: pre;">Sample 4-1_B2</text></g><g class="ytick"><text text-anchor="end" x="108.6" y="4.199999999999999" transform="translate(0,366.42)" style="font-family: 'Open Sans', verdana, arial, sans-serif; font-size: 12px; fill: rgb(42, 63, 95); fill-opacity: 1; white-space: pre;">Sample 4-2_B2</text></g><g class="ytick"><text text-anchor="end" x="108.6" y="4.199999999999999" transform="translate(0,337)" style="font-family: 'Open Sans', verdana, arial, sans-serif; font-size: 12px; fill: rgb(42, 63, 95); fill-opacity: 1; white-space: pre;">Sample 7-2_F2</text></g><g class="ytick"><text text-anchor="end" x="108.6" y="4.199999999999999" transform="translate(0,307.58)" style="font-family: 'Open Sans', verdana, arial, sans-serif; font-size: 12px; fill: rgb(42, 63, 95); fill-opacity: 1; white-space: pre;">Sample 11-1_A3</text></g><g class="ytick"><text text-anchor="end" x="108.6" y="4.199999999999999" transform="translate(0,278.16999999999996)" style="font-family: 'Open Sans', verdana, arial, sans-serif; font-size: 12px; fill: rgb(42, 63, 95); fill-opacity: 1; white-space: pre;">Sample 131-1_F4</text></g><g class="ytick"><text text-anchor="end" x="108.6" y="4.199999999999999" transform="translate(0,248.75)" style="font-family: 'Open Sans', verdana, arial, sans-serif; font-size: 12px; fill: rgb(42, 63, 95); fill-opacity: 1; white-space: pre;">Sample 117-2_C4</text></g><g class="ytick"><text text-anchor="end" x="108.6" y="4.199999999999999" transform="translate(0,219.33)" style="font-family: 'Open Sans', verdana, arial, sans-serif; font-size: 12px; fill: rgb(42, 63, 95); fill-opacity: 1; white-space: pre;">Sample 80-1_H3</text></g><g class="ytick"><text text-anchor="end" x="108.6" y="4.199999999999999" transform="translate(0,189.92)" style="font-family: 'Open Sans', verdana, arial, sans-serif; font-size: 12px; fill: rgb(42, 63, 95); fill-opacity: 1; white-space: pre;">Sample 69-1_F3</text></g><g class="ytick"><text text-anchor="end" x="108.6" y="4.199999999999999" transform="translate(0,160.5)" style="font-family: 'Open Sans', verdana, arial, sans-serif; font-size: 12px; fill: rgb(42, 63, 95); fill-opacity: 1; white-space: pre;">Sample 79-2_G3</text></g><g class="ytick"><text text-anchor="end" x="108.6" y="4.199999999999999" transform="translate(0,131.07999999999998)" style="font-family: 'Open Sans', verdana, arial, sans-serif; font-size: 12px; fill: rgb(42, 63, 95); fill-opacity: 1; white-space: pre;">Sample 134-1_H4</text></g><g class="ytick"><text text-anchor="end" x="108.6" y="4.199999999999999" transform="translate(0,101.67)" style="font-family: 'Open Sans', verdana, arial, sans-serif; font-size: 12px; fill: rgb(42, 63, 95); fill-opacity: 1; white-space: pre;">Sample 7-1_E2</text></g></g><g class="overaxes-above"/></g></g><g class="polarlayer"/><g class="ternarylayer"/><g class="geolayer"/><g class="funnelarealayer"/><g class="pielayer"/><g class="treemaplayer"/><g class="sunburstlayer"/><g class="glimages"/><defs id="topdefs-08104d"><g class="clips"/></defs><g class="layer-above"><g class="imagelayer"/><g class="shapelayer"/></g><g class="infolayer"><g class="g-gtitle"/><g class="g-xtitle"><text class="xtitle" x="416" y="488.20625" text-anchor="middle" style="font-family: 'Open Sans', verdana, arial, sans-serif; font-size: 14px; fill: rgb(42, 63, 95); opacity: 1; font-weight: normal; white-space: pre;">CpG median log likelihood ratio</text></g><g class="g-ytitle"/><g class="annotation" data-index="0" style="opacity: 1;"><g class="annotation-text-g" transform="rotate(0,469.08,35.29999999999998)"><g class="cursor-pointer" transform="translate(437, 26)"><rect class="bg" x="0.5" y="0.5" width="63" height="17" style="stroke-width: 1px; stroke: rgb(0, 0, 0); stroke-opacity: 0; fill: rgb(0, 0, 0); fill-opacity: 0;"/><text class="annotation-text" text-anchor="middle" x="32.03125" y="13" style="font-family: 'Open Sans', verdana, arial, sans-serif; font-size: 12px; fill: rgb(100, 100, 100); fill-opacity: 1; white-space: pre;">Ambiguous</text></g></g></g><g class="annotation" data-index="1" style="opacity: 1;"><g class="annotation-text-g" transform="rotate(0,285.71000000000004,35.29999999999998)"><g class="cursor-pointer" transform="translate(247, 26)"><rect class="bg" x="0.5" y="0.5" width="77" height="17" style="stroke-width: 1px; stroke: rgb(0, 0, 0); stroke-opacity: 0; fill: rgb(0, 0, 0); fill-opacity: 0;"/><text class="annotation-text" text-anchor="middle" x="39.03125" y="13" style="font-family: 'Open Sans', verdana, arial, sans-serif; font-size: 12px; fill: rgb(33, 102, 172); fill-opacity: 1; white-space: pre;">Unmethylated</text></g></g></g><g class="annotation" data-index="2" style="opacity: 1;"><g class="annotation-text-g" transform="rotate(0,599.37,35.29999999999998)"><g class="cursor-pointer" transform="translate(568, 26)"><rect class="bg" x="0.5" y="0.5" width="62" height="17" style="stroke-width: 1px; stroke: rgb(0, 0, 0); stroke-opacity: 0; fill: rgb(0, 0, 0); fill-opacity: 0;"/><text class="annotation-text" text-anchor="middle" x="31.359375" y="13" style="font-family: 'Open Sans', verdana, arial, sans-serif; font-size: 12px; fill: rgb(215, 48, 39); fill-opacity: 1; white-space: pre;">Methylated</text></g></g></g></g></svg>