<svg class="main-svg" xmlns="http://www.w3.org/2000/svg" xmlns:xlink="http://www.w3.org/1999/xlink" width="800" height="500" style="" viewBox="0 0 800 500"><rect x="0" y="0" width="800" height="500" style="fill: rgb(255, 255, 255); fill-opacity: 1;"/><defs id="defs-51561d"><g class="clips"><clipPath id="clip51561dxyplot" class="plotclip"><rect width="608" height="395"/></clipPath><clipPath class="axesclip" id="clip51561dx"><rect x="112" y="0" width="608" height="500"/></clipPath><clipPath class="axesclip" id="clip51561dy"><rect x="0" y="50" width="800" height="395"/></clipPath><clipPath class="axesclip" id="clip51561dxy"><rect x="112" y="50" width="608" height="395"/></clipPath></g><g class="gradients"/></defs><g class="bglayer"><rect class="bg" x="112" y="50" width="608" height="395" style="fill: rgb(0, 0, 0); fill-opacity: 0; stroke-width: 0;"/></g><g class="layer-below"><g class="imagelayer"/><g class="shapelayer"><path data-index="0" fill-rule="evenodd" d="M436.27,445H476.8V50H436.27Z" clip-path="url('#clip51561dx')" style="opacity: 0.25; stroke: rgb(0, 0, 0); stroke-opacity: 0; fill: rgb(100, 100, 100); fill-opacity: 1; stroke-width: 0px;"/></g></g><g class="cartesianlayer"><g class="subplot xy"><g class="layer-subplot"><g class="shapelayer"/><g class="imagelayer"/></g><g class="gridlayer"><g class="x"/><g class="y"><path class="ygrid crisp" transform="translate(0,425.25)" d="M112,0h608" style="stroke: rgb(211, 211, 211); stroke-opacity: 1; stroke-width: 1px;"/><path class="ygrid crisp" transform="translate(0,393.16)" d="M112,0h608" style="stroke: rgb(211, 211, 211); stroke-opacity: 1; stroke-width: 1px;"/><path class="ygrid crisp" transform="translate(0,361.07)" d="M112,0h608" style="stroke: rgb(211, 211, 211); stroke-opacity: 1; stroke-width: 1px;"/><path class="ygrid crisp" transform="translate(0,328.98)" d="M112,0h608" style="stroke: rgb(211, 211, 211); stroke-opacity: 1; stroke-width: 1px;"/><path class="ygrid crisp" transform="translate(0,296.89)" d="M112,0h608" style="stroke: rgb(211, 211, 211); stroke-opacity: 1; stroke-width: 1px;"/><path class="ygrid crisp" transform="translate(0,264.8)" d="M112,0h608" style="stroke: rgb(211, 211, 211); stroke-opacity: 1; stroke-width: 1px;"/><path class="ygrid crisp" transform="translate(0,232.7)" d="M112,0h608" style="stroke: rgb(211, 211, 211); stroke-opacity: 1; stroke-width: 1px;"/><path class="ygrid crisp" transform="translate(0,200.61)" d="M112,0h608" style="stroke: rgb(211, 211, 211); stroke-opacity: 1; stroke-width: 1px;"/><path class="ygrid crisp" transform="translate(0,168.51999999999998)" d="M112,0h608" style="stroke: rgb(211, 211, 211); stroke-opacity: 1; stroke-width: 1px;"/><path class="ygrid crisp" transform="translate(0,136.43)" d="M112,0h608" style="stroke: rgb(211, 211, 211); stroke-opacity: 1; stroke-width: 1px;"/><path class="ygrid crisp" transform="translate(0,104.34)" d="M112,0h608" style="stroke: rgb(211, 211, 211); stroke-opacity: 1; stroke-width: 1px;"/></g></g><g class="zerolinelayer"/><path class="xlines-below"/><path class="ylines-below"/><g class="overlines-below"/><g class="xaxislayer-below"/><g class="yaxislayer-below"/><g class="overaxes-below"/><g class="plot" transform="translate(112, 50)" clip-path="url('#clip51561dxyplot')"><g class="violinlayer mlayer"><g class="trace violins" style="opacity: 1;"><path class="violin" d="M-16.3,375.25L-16.3,374.91Q-10.91,374.74 -8.22,374.63C-5.53,374.52 -2.83,374.38 -0.14,374.23C2.56,374.08 5.25,373.91 7.95,373.75C10.64,373.59 13.34,373.4 16.03,373.26C18.72,373.12 21.42,372.98 24.11,372.89C26.81,372.8 29.5,372.74 32.2,372.73C34.89,372.72 37.59,372.77 40.28,372.84C42.97,372.91 45.67,373.04 48.36,373.17C51.06,373.3 53.75,373.48 56.45,373.64C59.14,373.8 61.84,373.98 64.53,374.13C67.22,374.28 69.92,374.43 72.61,374.55C75.31,374.67 78,374.78 80.7,374.86C83.39,374.94 86.09,374.99 88.78,375.04C91.47,375.08 94.17,375.12 96.86,375.13C99.56,375.14 102.25,375.14 104.95,375.12C107.64,375.1 110.34,375.09 113.03,375.04C115.73,374.99 118.42,374.93 121.12,374.84C123.81,374.75 126.51,374.64 129.2,374.5C131.89,374.36 134.59,374.2 137.28,374C139.98,373.8 142.68,373.58 145.37,373.32C148.07,373.06 150.76,372.78 153.45,372.46C156.15,372.14 158.84,371.81 161.53,371.42C164.23,371.03 166.93,370.62 169.62,370.14C172.32,369.66 175.02,369.15 177.7,368.54C180.4,367.93 183.1,367.25 185.78,366.46C188.49,365.67 191.19,364.77 193.87,363.79C196.58,362.79 199.27,361.68 201.95,360.51C204.66,359.33 207.34,358.03 210.03,356.75C212.73,355.46 215.42,354.09 218.12,352.8C220.81,351.52 223.49,350.2 226.2,349.06C228.87,347.94 231.56,346.86 234.28,346.01C236.95,345.18 239.66,344.47 242.37,343.99C245.05,343.52 247.75,343.26 250.45,343.16C253.14,343.06 255.84,343.19 258.53,343.37C261.23,343.55 263.93,343.92 266.62,344.25C269.32,344.59 272.01,345 274.7,345.38C277.39,345.75 280.09,346.13 282.78,346.5C285.48,346.87 288.18,347.18 290.87,347.58C293.57,347.98 296.27,348.36 298.95,348.88C301.65,349.41 304.35,350 307.03,350.74C309.74,351.49 312.44,352.38 315.12,353.37C317.83,354.38 320.52,355.55 323.2,356.74C325.91,357.94 328.59,359.28 331.29,360.56C333.98,361.84 336.66,363.18 339.37,364.4C342.05,365.6 344.74,366.79 347.45,367.82C350.13,368.84 352.83,369.77 355.54,370.56C358.22,371.34 360.92,371.98 363.62,372.52C366.3,373.06 369,373.46 371.7,373.8Q374.39,374.14 379.79,374.54L379.79,375.25" style="vector-effect: non-scaling-stroke; stroke-width: 2px; stroke: rgb(33, 102, 172); stroke-opacity: 1; fill: rgb(33, 102, 172); fill-opacity: 0.5;"/><g class="points"><path class="point" transform="translate(33.03,367.9)" d="M2.5,0A2.5,2.5 0 1,1 0,-2.5A2.5,2.5 0 0,1 2.5,0Z" style="opacity: 1; stroke-width: 0px; fill: rgb(33, 102, 172); fill-opacity: 1;"/><path class="point" transform="translate(168.82,370.08)" d="M2.5,0A2.5,2.5 0 1,1 0,-2.5A2.5,2.5 0 0,1 2.5,0Z" style="opacity: 1; stroke-width: 0px; fill: rgb(33, 102, 172); fill-opacity: 1;"/><path class="point" transform="translate(201.65,367.2)" d="M2.5,0A2.5,2.5 0 1,1 0,-2.5A2.5,2.5 0 0,1 2.5,0Z" style="opacity: 1; stroke-width: 0px; fill: rgb(33, 102, 172); fill-opacity: 1;"/><path class="point" transform="translate(208.75,370.73)" d="M2.5,0A2.5,2.5 0 1,1 0,-2.5A2.5,2.5 0 0,1 2.5,0Z" style="opacity: 1; stroke-width: 0px; fill: rgb(33, 102, 172); fill-opacity: 1;"/><path class="point" transform="translate(218.47,369.41)" d="M2.5,0A2.5,2.5 0 1,1 0,-2.5A2.5,2.5 0 0,1 2.5,0Z" style="opacity: 1; stroke-width: 0px; fill: rgb(33, 102, 172); fill-opacity: 1;"/><path class="point" transform="translate(231.75,367.54)" d="M2.5,0A2.5,2.5 0 1,1 0,-2.5A2.5,2.5 0 0,1 2.5,0Z" style="opacity: 1; stroke-width: 0px; fill: rgb(33, 102, 172); fill-opacity: 1;"/><path class="point" transform="translate(233.37,368.98)" d="M2.5,0A2.5,2.5 0 1,1 0,-2.5A2.5,2.5 0 0,1 2.5,0Z" style="opacity: 1; stroke-width: 0px; fill: rgb(33, 102, 172); fill-opacity: 1;"/><path class="point" transform="translate(235.19,367.42)" d="M2.5,0A2.5,2.5 0 1,1 0,-2.5A2.5,2.5 0 0,1 2.5,0Z" style="opacity: 1; stroke-width: 0px; fill: rgb(33, 102, 172); fill-opacity: 1;"/><path class="point" transform="translate(236.31,370.41)" d="M2.5,0A2.5,2.5 0 1,1 0,-2.5A2.5,2.5 0 0,1 2.5,0Z" style="opacity: 1; stroke-width: 0px; fill: rgb(33, 102, 172); fill-opacity: 1;"/><path class="point" transform="translate(239.05,372.83)" d="M2.5,0A2.5,2.5 0 1,1 0,-2.5A2.5,2.5 0 0,1 2.5,0Z" style="opacity: 1; stroke-width: 0px; fill: rgb(33, 102, 172); fill-opacity: 1;"/><path class="point" transform="translate(244.62,367.15)" d="M2.5,0A2.5,2.5 0 1,1 0,-2.5A2.5,2.5 0 0,1 2.5,0Z" style="opacity: 1; stroke-width: 0px; fill: rgb(33, 102, 172); fill-opacity: 1;"/><path class="point" transform="translate(252.12,370.94)" d="M2.5,0A2.5,2.5 0 1,1 0,-2.5A2.5,2.5 0 0,1 2.5,0Z" style="opacity: 1; stroke-width: 0px; fill: rgb(33, 102, 172); fill-opacity: 1;"/><path class="point" transform="translate(255.46,365.58)" d="M2.5,0A2.5,2.5 0 1,1 0,-2.5A2.5,2.5 0 0,1 2.5,0Z" style="opacity: 1; stroke-width: 0px; fill: rgb(33, 102, 172); fill-opacity: 1;"/><path class="point" transform="translate(260.83,373.55)" d="M2.5,0A2.5,2.5 0 1,1 0,-2.5A2.5,2.5 0 0,1 2.5,0Z" style="opacity: 1; stroke-width: 0px; fill: rgb(33, 102, 172); fill-opacity: 1;"/><path class="point" transform="translate(261.64,371.65)" d="M2.5,0A2.5,2.5 0 1,1 0,-2.5A2.5,2.5 0 0,1 2.5,0Z" style="opacity: 1; stroke-width: 0px; fill: rgb(33, 102, 172); fill-opacity: 1;"/><path class="point" transform="translate(264.18,364.37)" d="M2.5,0A2.5,2.5 0 1,1 0,-2.5A2.5,2.5 0 0,1 2.5,0Z" style="opacity: 1; stroke-width: 0px; fill: rgb(33, 102, 172); fill-opacity: 1;"/><path class="point" transform="translate(264.48,370.06)" d="M2.5,0A2.5,2.5 0 1,1 0,-2.5A2.5,2.5 0 0,1 2.5,0Z" style="opacity: 1; stroke-width: 0px; fill: rgb(33, 102, 172); fill-opacity: 1;"/><path class="point" transform="translate(284.04,373.07)" d="M2.5,0A2.5,2.5 0 1,1 0,-2.5A2.5,2.5 0 0,1 2.5,0Z" style="opacity: 1; stroke-width: 0px; fill: rgb(33, 102, 172); fill-opacity: 1;"/><path class="point" transform="translate(290.93,370.52)" d="M2.5,0A2.5,2.5 0 1,1 0,-2.5A2.5,2.5 0 0,1 2.5,0Z" style="opacity: 1; stroke-width: 0px; fill: rgb(33, 102, 172); fill-opacity: 1;"/><path class="point" transform="translate(293.06,368.94)" d="M2.5,0A2.5,2.5 0 1,1 0,-2.5A2.5,2.5 0 0,1 2.5,0Z" style="opacity: 1; stroke-width: 0px; fill: rgb(33, 102, 172); fill-opacity: 1;"/><path class="point" transform="translate(295.08,366.69)" d="M2.5,0A2.5,2.5 0 1,1 0,-2.5A2.5,2.5 0 0,1 2.5,0Z" style="opacity: 1; stroke-width: 0px; fill: rgb(33, 102, 172); fill-opacity: 1;"/><path class="point" transform="translate(305.52,368.34)" d="M2.5,0A2.5,2.5 0 1,1 0,-2.5A2.5,2.5 0 0,1 2.5,0Z" style="opacity: 1; stroke-width: 0px; fill: rgb(33, 102, 172); fill-opacity: 1;"/><path class="point" transform="translate(308.05,370.24)" d="M2.5,0A2.5,2.5 0 1,1 0,-2.5A2.5,2.5 0 0,1 2.5,0Z" style="opacity: 1; stroke-width: 0px; fill: rgb(33, 102, 172); fill-opacity: 1;"/><path class="point" transform="translate(309.88,373.09)" d="M2.5,0A2.5,2.5 0 1,1 0,-2.5A2.5,2.5 0 0,1 2.5,0Z" style="opacity: 1; stroke-width: 0px; fill: rgb(33, 102, 172); fill-opacity: 1;"/><path class="point" transform="translate(316.46,368.85)" d="M2.5,0A2.5,2.5 0 1,1 0,-2.5A2.5,2.5 0 0,1 2.5,0Z" style="opacity: 1; stroke-width: 0px; fill: rgb(33, 102, 172); fill-opacity: 1;"/><path class="point" transform="translate(320.92,370.19)" d="M2.5,0A2.5,2.5 0 1,1 0,-2.5A2.5,2.5 0 0,1 2.5,0Z" style="opacity: 1; stroke-width: 0px; fill: rgb(33, 102, 172); fill-opacity: 1;"/><path class="point" transform="translate(330.45,366.47)" d="M2.5,0A2.5,2.5 0 1,1 0,-2.5A2.5,2.5 0 0,1 2.5,0Z" style="opacity: 1; stroke-width: 0px; fill: rgb(33, 102, 172); fill-opacity: 1;"/></g></g><g class="trace violins" style="opacity: 1;"><path class="violin" d="M-71.85,343.16L-71.85,342.88Q-63.51,342.74 -59.34,342.65C-55.17,342.56 -51.01,342.44 -46.84,342.32C-42.67,342.2 -38.5,342.05 -34.33,341.92C-30.16,341.79 -25.99,341.64 -21.82,341.52C-17.65,341.4 -13.49,341.29 -9.32,341.22C-5.15,341.15 -0.98,341.1 3.19,341.1C7.36,341.1 11.52,341.13 15.69,341.19C19.86,341.25 24.03,341.35 28.2,341.46C32.37,341.57 36.53,341.71 40.7,341.83C44.87,341.95 49.04,342.08 53.21,342.18C57.38,342.27 61.55,342.36 65.72,342.4C69.89,342.44 74.05,342.45 78.22,342.4C82.39,342.35 86.56,342.25 90.73,342.08C94.9,341.91 99.07,341.69 103.23,341.38C107.4,341.07 111.58,340.68 115.74,340.22C119.91,339.76 124.08,339.21 128.24,338.6C132.41,337.99 136.58,337.28 140.75,336.56C144.92,335.84 149.08,335.04 153.25,334.28C157.42,333.51 161.59,332.71 165.76,331.97C169.93,331.23 174.1,330.5 178.27,329.82C182.43,329.14 186.6,328.52 190.77,327.91C194.94,327.3 199.11,326.76 203.28,326.17C207.45,325.58 211.62,325.03 215.78,324.39C219.95,323.75 224.13,323.07 228.29,322.31C232.46,321.54 236.63,320.69 240.79,319.8C244.96,318.91 249.13,317.9 253.3,316.96C257.47,316.02 261.63,314.99 265.81,314.16C269.97,313.34 274.13,312.52 278.31,312C282.47,311.49 286.65,311.1 290.82,311.07C294.99,311.04 299.17,311.28 303.32,311.82C307.51,312.36 311.69,313.26 315.83,314.34C320.03,315.44 324.19,316.89 328.33,318.37C332.52,319.87 336.68,321.63 340.84,323.3C345.02,324.98 349.17,326.78 353.35,328.41C357.5,330.03 361.66,331.65 365.85,333.05C370,334.44 374.17,335.71 378.36,336.79C382.51,337.85 386.68,338.74 390.86,339.48C395.02,340.21 399.19,340.75 403.37,341.21Q407.53,341.67 415.87,342.22L415.87,343.16" style="vector-effect: non-scaling-stroke; stroke-width: 2px; stroke: rgb(51, 97, 159); stroke-opacity: 1; fill: rgb(51, 97, 159); fill-opacity: 0.5;"/><g class="points"><path class="point" transform="translate(4.05,335.68)" d="M2.5,0A2.5,2.5 0 1,1 0,-2.5A2.5,2.5 0 0,1 2.5,0Z" style="opacity: 1; stroke-width: 0px; fill: rgb(51, 97, 159); fill-opacity: 1;"/><path class="point" transform="translate(154.23,338.12)" d="M2.5,0A2.5,2.5 0 1,1 0,-2.5A2.5,2.5 0 0,1 2.5,0Z" style="opacity: 1; stroke-width: 0px; fill: rgb(51, 97, 159); fill-opacity: 1;"/><path class="point" transform="translate(173.38,334.95)" d="M2.5,0A2.5,2.5 0 1,1 0,-2.5A2.5,2.5 0 0,1 2.5,0Z" style="opacity: 1; stroke-width: 0px; fill: rgb(51, 97, 159); fill-opacity: 1;"/><path class="point" transform="translate(180.98,338.71)" d="M2.5,0A2.5,2.5 0 1,1 0,-2.5A2.5,2.5 0 0,1 2.5,0Z" style="opacity: 1; stroke-width: 0px; fill: rgb(51, 97, 159); fill-opacity: 1;"/><path class="point" transform="translate(193.75,337.34)" d="M2.5,0A2.5,2.5 0 1,1 0,-2.5A2.5,2.5 0 0,1 2.5,0Z" style="opacity: 1; stroke-width: 0px; fill: rgb(51, 97, 159); fill-opacity: 1;"/><path class="point" transform="translate(200.23,335.4)" d="M2.5,0A2.5,2.5 0 1,1 0,-2.5A2.5,2.5 0 0,1 2.5,0Z" style="opacity: 1; stroke-width: 0px; fill: rgb(51, 97, 159); fill-opacity: 1;"/><path class="point" transform="translate(213.81,336.89)" d="M2.5,0A2.5,2.5 0 1,1 0,-2.5A2.5,2.5 0 0,1 2.5,0Z" style="opacity: 1; stroke-width: 0px; fill: rgb(51, 97, 159); fill-opacity: 1;"/><path class="point" transform="translate(219.79,335.58)" d="M2.5,0A2.5,2.5 0 1,1 0,-2.5A2.5,2.5 0 0,1 2.5,0Z" style="opacity: 1; stroke-width: 0px; fill: rgb(51, 97, 159); fill-opacity: 1;"/><path class="point" transform="translate(245.23,338.03)" d="M2.5,0A2.5,2.5 0 1,1 0,-2.5A2.5,2.5 0 0,1 2.5,0Z" style="opacity: 1; stroke-width: 0px; fill: rgb(51, 97, 159); fill-opacity: 1;"/><path class="point" transform="translate(255.16,339.87)" d="M2.5,0A2.5,2.5 0 1,1 0,-2.5A2.5,2.5 0 0,1 2.5,0Z" style="opacity: 1; stroke-width: 0px; fill: rgb(51, 97, 159); fill-opacity: 1;"/><path class="point" transform="translate(255.36,335.59)" d="M2.5,0A2.5,2.5 0 1,1 0,-2.5A2.5,2.5 0 0,1 2.5,0Z" style="opacity: 1; stroke-width: 0px; fill: rgb(51, 97, 159); fill-opacity: 1;"/><path class="point" transform="translate(260.43,338.28)" d="M2.5,0A2.5,2.5 0 1,1 0,-2.5A2.5,2.5 0 0,1 2.5,0Z" style="opacity: 1; stroke-width: 0px; fill: rgb(51, 97, 159); fill-opacity: 1;"/><path class="point" transform="translate(275.83,333.78)" d="M2.5,0A2.5,2.5 0 1,1 0,-2.5A2.5,2.5 0 0,1 2.5,0Z" style="opacity: 1; stroke-width: 0px; fill: rgb(51, 97, 159); fill-opacity: 1;"/><path class="point" transform="translate(281.81,342.18)" d="M2.5,0A2.5,2.5 0 1,1 0,-2.5A2.5,2.5 0 0,1 2.5,0Z" style="opacity: 1; stroke-width: 0px; fill: rgb(51, 97, 159); fill-opacity: 1;"/><path class="point" transform="translate(283.53,340.32)" d="M2.5,0A2.5,2.5 0 1,1 0,-2.5A2.5,2.5 0 0,1 2.5,0Z" style="opacity: 1; stroke-width: 0px; fill: rgb(51, 97, 159); fill-opacity: 1;"/><path class="point" transform="translate(288.39,331.99)" d="M2.5,0A2.5,2.5 0 1,1 0,-2.5A2.5,2.5 0 0,1 2.5,0Z" style="opacity: 1; stroke-width: 0px; fill: rgb(51, 97, 159); fill-opacity: 1;"/><path class="point" transform="translate(289.21,338.12)" d="M2.5,0A2.5,2.5 0 1,1 0,-2.5A2.5,2.5 0 0,1 2.5,0Z" style="opacity: 1; stroke-width: 0px; fill: rgb(51, 97, 159); fill-opacity: 1;"/><path class="point" transform="translate(295.08,342.24)" d="M2.5,0A2.5,2.5 0 1,1 0,-2.5A2.5,2.5 0 0,1 2.5,0Z" style="opacity: 1; stroke-width: 0px; fill: rgb(51, 97, 159); fill-opacity: 1;"/><path class="point" transform="translate(297.72,338.86)" d="M2.5,0A2.5,2.5 0 1,1 0,-2.5A2.5,2.5 0 0,1 2.5,0Z" style="opacity: 1; stroke-width: 0px; fill: rgb(51, 97, 159); fill-opacity: 1;"/><path class="point" transform="translate(298.12,336.87)" d="M2.5,0A2.5,2.5 0 1,1 0,-2.5A2.5,2.5 0 0,1 2.5,0Z" style="opacity: 1; stroke-width: 0px; fill: rgb(51, 97, 159); fill-opacity: 1;"/><path class="point" transform="translate(312.31,333.94)" d="M2.5,0A2.5,2.5 0 1,1 0,-2.5A2.5,2.5 0 0,1 2.5,0Z" style="opacity: 1; stroke-width: 0px; fill: rgb(51, 97, 159); fill-opacity: 1;"/><path class="point" transform="translate(314.74,336.11)" d="M2.5,0A2.5,2.5 0 1,1 0,-2.5A2.5,2.5 0 0,1 2.5,0Z" style="opacity: 1; stroke-width: 0px; fill: rgb(51, 97, 159); fill-opacity: 1;"/><path class="point" transform="translate(315.75,338.36)" d="M2.5,0A2.5,2.5 0 1,1 0,-2.5A2.5,2.5 0 0,1 2.5,0Z" style="opacity: 1; stroke-width: 0px; fill: rgb(51, 97, 159); fill-opacity: 1;"/><path class="point" transform="translate(321.63,341.4)" d="M2.5,0A2.5,2.5 0 1,1 0,-2.5A2.5,2.5 0 0,1 2.5,0Z" style="opacity: 1; stroke-width: 0px; fill: rgb(51, 97, 159); fill-opacity: 1;"/><path class="point" transform="translate(329.13,336.76)" d="M2.5,0A2.5,2.5 0 1,1 0,-2.5A2.5,2.5 0 0,1 2.5,0Z" style="opacity: 1; stroke-width: 0px; fill: rgb(51, 97, 159); fill-opacity: 1;"/><path class="point" transform="translate(330.75,338.48)" d="M2.5,0A2.5,2.5 0 1,1 0,-2.5A2.5,2.5 0 0,1 2.5,0Z" style="opacity: 1; stroke-width: 0px; fill: rgb(51, 97, 159); fill-opacity: 1;"/><path class="point" transform="translate(339.97,334.09)" d="M2.5,0A2.5,2.5 0 1,1 0,-2.5A2.5,2.5 0 0,1 2.5,0Z" style="opacity: 1; stroke-width: 0px; fill: rgb(51, 97, 159); fill-opacity: 1;"/></g></g><g class="trace violins" style="opacity: 1;"><path class="violin" d="M130.59,311.07L130.59,310.75Q134.91,310.59 137.07,310.47C139.23,310.35 141.39,310.21 143.55,310.05C145.71,309.88 147.87,309.68 150.03,309.48C152.19,309.27 154.35,309.04 156.51,308.82C158.67,308.6 160.83,308.35 162.99,308.15C165.15,307.95 167.3,307.74 169.46,307.6C171.62,307.46 173.78,307.34 175.94,307.29C178.1,307.24 180.26,307.23 182.42,307.27C184.58,307.31 186.74,307.42 188.9,307.55C191.06,307.68 193.22,307.87 195.38,308.05C197.54,308.23 199.7,308.44 201.86,308.61C204.02,308.78 206.18,308.96 208.34,309.08C210.5,309.2 212.66,309.29 214.82,309.31C216.98,309.33 219.14,309.29 221.3,309.18C223.46,309.07 225.62,308.89 227.78,308.64C229.94,308.39 232.1,308.08 234.25,307.7C236.41,307.32 238.58,306.87 240.73,306.37C242.9,305.87 245.06,305.3 247.21,304.69C249.38,304.08 251.54,303.41 253.69,302.71C255.86,302 258.02,301.23 260.17,300.45C262.34,299.66 264.49,298.82 266.65,297.99C268.81,297.15 270.97,296.29 273.13,295.44C275.29,294.6 277.45,293.74 279.61,292.92C281.77,292.1 283.93,291.29 286.09,290.5C288.25,289.71 290.4,288.94 292.56,288.16C294.72,287.38 296.88,286.6 299.04,285.82C301.2,285.03 303.36,284.22 305.52,283.45C307.68,282.68 309.83,281.87 312,281.21C314.15,280.56 316.3,279.89 318.48,279.52C320.62,279.15 322.81,278.89 324.96,278.98C327.13,279.07 329.32,279.43 331.44,280.08C333.64,280.75 335.81,281.83 337.92,283.02C340.14,284.27 342.27,285.88 344.4,287.48C346.59,289.13 348.72,291.02 350.88,292.78C353.04,294.54 355.16,296.39 357.35,298.04C359.48,299.65 361.63,301.23 363.83,302.58C365.95,303.88 368.11,305.05 370.31,306.02C372.44,306.96 374.61,307.72 376.79,308.34Q378.93,308.95 383.27,309.72L383.27,311.07" style="vector-effect: non-scaling-stroke; stroke-width: 2px; stroke: rgb(69, 91, 145); stroke-opacity: 1; fill: rgb(69, 91, 145); fill-opacity: 0.5;"/><g class="points"><path class="point" transform="translate(170.34,303.8)" d="M2.5,0A2.5,2.5 0 1,1 0,-2.5A2.5,2.5 0 0,1 2.5,0Z" style="opacity: 1; stroke-width: 0px; fill: rgb(69, 91, 145); fill-opacity: 1;"/><path class="point" transform="translate(188.38,305.78)" d="M2.5,0A2.5,2.5 0 1,1 0,-2.5A2.5,2.5 0 0,1 2.5,0Z" style="opacity: 1; stroke-width: 0px; fill: rgb(69, 91, 145); fill-opacity: 1;"/><path class="point" transform="translate(248.17,303.17)" d="M2.5,0A2.5,2.5 0 1,1 0,-2.5A2.5,2.5 0 0,1 2.5,0Z" style="opacity: 1; stroke-width: 0px; fill: rgb(69, 91, 145); fill-opacity: 1;"/><path class="point" transform="translate(260.43,306.37)" d="M2.5,0A2.5,2.5 0 1,1 0,-2.5A2.5,2.5 0 0,1 2.5,0Z" style="opacity: 1; stroke-width: 0px; fill: rgb(69, 91, 145); fill-opacity: 1;"/><path class="point" transform="translate(274.41,305.16)" d="M2.5,0A2.5,2.5 0 1,1 0,-2.5A2.5,2.5 0 0,1 2.5,0Z" style="opacity: 1; stroke-width: 0px; fill: rgb(69, 91, 145); fill-opacity: 1;"/><path class="point" transform="translate(282.21,303.53)" d="M2.5,0A2.5,2.5 0 1,1 0,-2.5A2.5,2.5 0 0,1 2.5,0Z" style="opacity: 1; stroke-width: 0px; fill: rgb(69, 91, 145); fill-opacity: 1;"/><path class="point" transform="translate(283.63,304.73)" d="M2.5,0A2.5,2.5 0 1,1 0,-2.5A2.5,2.5 0 0,1 2.5,0Z" style="opacity: 1; stroke-width: 0px; fill: rgb(69, 91, 145); fill-opacity: 1;"/><path class="point" transform="translate(285.35,303.76)" d="M2.5,0A2.5,2.5 0 1,1 0,-2.5A2.5,2.5 0 0,1 2.5,0Z" style="opacity: 1; stroke-width: 0px; fill: rgb(69, 91, 145); fill-opacity: 1;"/><path class="point" transform="translate(285.96,305.71)" d="M2.5,0A2.5,2.5 0 1,1 0,-2.5A2.5,2.5 0 0,1 2.5,0Z" style="opacity: 1; stroke-width: 0px; fill: rgb(69, 91, 145); fill-opacity: 1;"/><path class="point" transform="translate(297.21,307.45)" d="M2.5,0A2.5,2.5 0 1,1 0,-2.5A2.5,2.5 0 0,1 2.5,0Z" style="opacity: 1; stroke-width: 0px; fill: rgb(69, 91, 145); fill-opacity: 1;"/><path class="point" transform="translate(300.86,303.63)" d="M2.5,0A2.5,2.5 0 1,1 0,-2.5A2.5,2.5 0 0,1 2.5,0Z" style="opacity: 1; stroke-width: 0px; fill: rgb(69, 91, 145); fill-opacity: 1;"/><path class="point" transform="translate(304.61,305.89)" d="M2.5,0A2.5,2.5 0 1,1 0,-2.5A2.5,2.5 0 0,1 2.5,0Z" style="opacity: 1; stroke-width: 0px; fill: rgb(69, 91, 145); fill-opacity: 1;"/><path class="point" transform="translate(310.79,302.22)" d="M2.5,0A2.5,2.5 0 1,1 0,-2.5A2.5,2.5 0 0,1 2.5,0Z" style="opacity: 1; stroke-width: 0px; fill: rgb(69, 91, 145); fill-opacity: 1;"/><path class="point" transform="translate(314.74,308.15)" d="M2.5,0A2.5,2.5 0 1,1 0,-2.5A2.5,2.5 0 0,1 2.5,0Z" style="opacity: 1; stroke-width: 0px; fill: rgb(69, 91, 145); fill-opacity: 1;"/><path class="point" transform="translate(315.05,307.02)" d="M2.5,0A2.5,2.5 0 1,1 0,-2.5A2.5,2.5 0 0,1 2.5,0Z" style="opacity: 1; stroke-width: 0px; fill: rgb(69, 91, 145); fill-opacity: 1;"/><path class="point" transform="translate(323.15,300.85)" d="M2.5,0A2.5,2.5 0 1,1 0,-2.5A2.5,2.5 0 0,1 2.5,0Z" style="opacity: 1; stroke-width: 0px; fill: rgb(69, 91, 145); fill-opacity: 1;"/><path class="point" transform="translate(325.58,305.79)" d="M2.5,0A2.5,2.5 0 1,1 0,-2.5A2.5,2.5 0 0,1 2.5,0Z" style="opacity: 1; stroke-width: 0px; fill: rgb(69, 91, 145); fill-opacity: 1;"/><path class="point" transform="translate(325.89,309.02)" d="M2.5,0A2.5,2.5 0 1,1 0,-2.5A2.5,2.5 0 0,1 2.5,0Z" style="opacity: 1; stroke-width: 0px; fill: rgb(69, 91, 145); fill-opacity: 1;"/><path class="point" transform="translate(331.97,306.45)" d="M2.5,0A2.5,2.5 0 1,1 0,-2.5A2.5,2.5 0 0,1 2.5,0Z" style="opacity: 1; stroke-width: 0px; fill: rgb(69, 91, 145); fill-opacity: 1;"/><path class="point" transform="translate(332.78,304.76)" d="M2.5,0A2.5,2.5 0 1,1 0,-2.5A2.5,2.5 0 0,1 2.5,0Z" style="opacity: 1; stroke-width: 0px; fill: rgb(69, 91, 145); fill-opacity: 1;"/><path class="point" transform="translate(333.08,302.22)" d="M2.5,0A2.5,2.5 0 1,1 0,-2.5A2.5,2.5 0 0,1 2.5,0Z" style="opacity: 1; stroke-width: 0px; fill: rgb(69, 91, 145); fill-opacity: 1;"/><path class="point" transform="translate(333.49,304.01)" d="M2.5,0A2.5,2.5 0 1,1 0,-2.5A2.5,2.5 0 0,1 2.5,0Z" style="opacity: 1; stroke-width: 0px; fill: rgb(69, 91, 145); fill-opacity: 1;"/><path class="point" transform="translate(333.69,306.2)" d="M2.5,0A2.5,2.5 0 1,1 0,-2.5A2.5,2.5 0 0,1 2.5,0Z" style="opacity: 1; stroke-width: 0px; fill: rgb(69, 91, 145); fill-opacity: 1;"/><path class="point" transform="translate(334.81,310.02)" d="M2.5,0A2.5,2.5 0 1,1 0,-2.5A2.5,2.5 0 0,1 2.5,0Z" style="opacity: 1; stroke-width: 0px; fill: rgb(69, 91, 145); fill-opacity: 1;"/><path class="point" transform="translate(336.33,304.67)" d="M2.5,0A2.5,2.5 0 1,1 0,-2.5A2.5,2.5 0 0,1 2.5,0Z" style="opacity: 1; stroke-width: 0px; fill: rgb(69, 91, 145); fill-opacity: 1;"/><path class="point" transform="translate(343.52,306.36)" d="M2.5,0A2.5,2.5 0 1,1 0,-2.5A2.5,2.5 0 0,1 2.5,0Z" style="opacity: 1; stroke-width: 0px; fill: rgb(69, 91, 145); fill-opacity: 1;"/><path class="point" transform="translate(343.52,302.11)" d="M2.5,0A2.5,2.5 0 1,1 0,-2.5A2.5,2.5 0 0,1 2.5,0Z" style="opacity: 1; stroke-width: 0px; fill: rgb(69, 91, 145); fill-opacity: 1;"/></g></g><g class="trace violins" style="opacity: 1;"><path class="violin" d="M275.23,278.98L275.23,278.53Q279.76,278.28 282.03,278.08C284.3,277.88 286.58,277.64 288.84,277.31C291.12,276.98 293.39,276.6 295.65,276.1C297.93,275.6 300.21,275.02 302.46,274.32C304.75,273.61 307.02,272.79 309.27,271.88C311.56,270.95 313.83,269.9 316.08,268.78C318.37,267.64 320.63,266.37 322.89,265.09C325.17,263.8 327.43,262.41 329.7,261.06C331.97,259.71 334.23,258.3 336.51,257C338.77,255.72 341.03,254.44 343.32,253.33C345.57,252.24 347.84,251.22 350.13,250.38C352.38,249.56 354.65,248.87 356.94,248.34C359.19,247.82 361.47,247.47 363.75,247.23C366.01,246.99 368.29,246.9 370.56,246.89C372.83,246.88 375.1,246.98 377.37,247.14C379.64,247.31 381.92,247.55 384.18,247.88C386.45,248.21 388.72,248.6 390.98,249.1C393.26,249.6 395.53,250.19 397.79,250.88C400.07,251.58 402.34,252.39 404.6,253.26C406.88,254.14 409.15,255.13 411.41,256.12C413.69,257.12 415.95,258.21 418.22,259.24C420.49,260.27 422.75,261.34 425.03,262.32C427.29,263.29 429.56,264.24 431.84,265.09C434.1,265.93 436.37,266.72 438.65,267.42C440.91,268.12 443.18,268.73 445.46,269.29C447.72,269.85 450,270.32 452.27,270.77C454.54,271.22 456.81,271.61 459.08,272C461.35,272.39 463.62,272.74 465.89,273.1C468.16,273.46 470.43,273.8 472.7,274.15C474.97,274.5 477.24,274.85 479.51,275.19C481.78,275.53 484.05,275.86 486.32,276.17C488.59,276.48 490.86,276.78 493.13,277.05C495.4,277.31 497.66,277.56 499.93,277.76C502.2,277.96 504.47,278.13 506.74,278.27Q509.01,278.41 513.55,278.61L513.55,278.98" style="vector-effect: non-scaling-stroke; stroke-width: 2px; stroke: rgb(88, 86, 132); stroke-opacity: 1; fill: rgb(88, 86, 132); fill-opacity: 0.5;"/><g class="points"><path class="point" transform="translate(316.57,270.21)" d="M2.5,0A2.5,2.5 0 1,1 0,-2.5A2.5,2.5 0 0,1 2.5,0Z" style="opacity: 1; stroke-width: 0px; fill: rgb(88, 86, 132); fill-opacity: 1;"/><path class="point" transform="translate(332.58,275.7)" d="M2.5,0A2.5,2.5 0 1,1 0,-2.5A2.5,2.5 0 0,1 2.5,0Z" style="opacity: 1; stroke-width: 0px; fill: rgb(88, 86, 132); fill-opacity: 1;"/><path class="point" transform="translate(337.44,268.83)" d="M2.5,0A2.5,2.5 0 1,1 0,-2.5A2.5,2.5 0 0,1 2.5,0Z" style="opacity: 1; stroke-width: 0px; fill: rgb(88, 86, 132); fill-opacity: 1;"/><path class="point" transform="translate(343.52,276.79)" d="M2.5,0A2.5,2.5 0 1,1 0,-2.5A2.5,2.5 0 0,1 2.5,0Z" style="opacity: 1; stroke-width: 0px; fill: rgb(88, 86, 132); fill-opacity: 1;"/><path class="point" transform="translate(343.52,273.79)" d="M2.5,0A2.5,2.5 0 1,1 0,-2.5A2.5,2.5 0 0,1 2.5,0Z" style="opacity: 1; stroke-width: 0px; fill: rgb(88, 86, 132); fill-opacity: 1;"/><path class="point" transform="translate(349.6,269.8)" d="M2.5,0A2.5,2.5 0 1,1 0,-2.5A2.5,2.5 0 0,1 2.5,0Z" style="opacity: 1; stroke-width: 0px; fill: rgb(88, 86, 132); fill-opacity: 1;"/><path class="point" transform="translate(350.01,272.79)" d="M2.5,0A2.5,2.5 0 1,1 0,-2.5A2.5,2.5 0 0,1 2.5,0Z" style="opacity: 1; stroke-width: 0px; fill: rgb(88, 86, 132); fill-opacity: 1;"/><path class="point" transform="translate(357.5,270.7)" d="M2.5,0A2.5,2.5 0 1,1 0,-2.5A2.5,2.5 0 0,1 2.5,0Z" style="opacity: 1; stroke-width: 0px; fill: rgb(88, 86, 132); fill-opacity: 1;"/><path class="point" transform="translate(359.73,274.52)" d="M2.5,0A2.5,2.5 0 1,1 0,-2.5A2.5,2.5 0 0,1 2.5,0Z" style="opacity: 1; stroke-width: 0px; fill: rgb(88, 86, 132); fill-opacity: 1;"/><path class="point" transform="translate(365,276.88)" d="M2.5,0A2.5,2.5 0 1,1 0,-2.5A2.5,2.5 0 0,1 2.5,0Z" style="opacity: 1; stroke-width: 0px; fill: rgb(88, 86, 132); fill-opacity: 1;"/><path class="point" transform="translate(365.61,271.01)" d="M2.5,0A2.5,2.5 0 1,1 0,-2.5A2.5,2.5 0 0,1 2.5,0Z" style="opacity: 1; stroke-width: 0px; fill: rgb(88, 86, 132); fill-opacity: 1;"/><path class="point" transform="translate(368.85,274.4)" d="M2.5,0A2.5,2.5 0 1,1 0,-2.5A2.5,2.5 0 0,1 2.5,0Z" style="opacity: 1; stroke-width: 0px; fill: rgb(88, 86, 132); fill-opacity: 1;"/><path class="point" transform="translate(370.27,268.76)" d="M2.5,0A2.5,2.5 0 1,1 0,-2.5A2.5,2.5 0 0,1 2.5,0Z" style="opacity: 1; stroke-width: 0px; fill: rgb(88, 86, 132); fill-opacity: 1;"/><path class="point" transform="translate(379.39,278.36)" d="M2.5,0A2.5,2.5 0 1,1 0,-2.5A2.5,2.5 0 0,1 2.5,0Z" style="opacity: 1; stroke-width: 0px; fill: rgb(88, 86, 132); fill-opacity: 1;"/><path class="point" transform="translate(382.43,276.23)" d="M2.5,0A2.5,2.5 0 1,1 0,-2.5A2.5,2.5 0 0,1 2.5,0Z" style="opacity: 1; stroke-width: 0px; fill: rgb(88, 86, 132); fill-opacity: 1;"/><path class="point" transform="translate(389.63,267.6)" d="M2.5,0A2.5,2.5 0 1,1 0,-2.5A2.5,2.5 0 0,1 2.5,0Z" style="opacity: 1; stroke-width: 0px; fill: rgb(88, 86, 132); fill-opacity: 1;"/><path class="point" transform="translate(393.38,274)" d="M2.5,0A2.5,2.5 0 1,1 0,-2.5A2.5,2.5 0 0,1 2.5,0Z" style="opacity: 1; stroke-width: 0px; fill: rgb(88, 86, 132); fill-opacity: 1;"/><path class="point" transform="translate(395.2,277.46)" d="M2.5,0A2.5,2.5 0 1,1 0,-2.5A2.5,2.5 0 0,1 2.5,0Z" style="opacity: 1; stroke-width: 0px; fill: rgb(88, 86, 132); fill-opacity: 1;"/><path class="point" transform="translate(397.83,274.3)" d="M2.5,0A2.5,2.5 0 1,1 0,-2.5A2.5,2.5 0 0,1 2.5,0Z" style="opacity: 1; stroke-width: 0px; fill: rgb(88, 86, 132); fill-opacity: 1;"/><path class="point" transform="translate(398.65,272.67)" d="M2.5,0A2.5,2.5 0 1,1 0,-2.5A2.5,2.5 0 0,1 2.5,0Z" style="opacity: 1; stroke-width: 0px; fill: rgb(88, 86, 132); fill-opacity: 1;"/><path class="point" transform="translate(408.58,270.48)" d="M2.5,0A2.5,2.5 0 1,1 0,-2.5A2.5,2.5 0 0,1 2.5,0Z" style="opacity: 1; stroke-width: 0px; fill: rgb(88, 86, 132); fill-opacity: 1;"/><path class="point" transform="translate(409.59,272.1)" d="M2.5,0A2.5,2.5 0 1,1 0,-2.5A2.5,2.5 0 0,1 2.5,0Z" style="opacity: 1; stroke-width: 0px; fill: rgb(88, 86, 132); fill-opacity: 1;"/><path class="point" transform="translate(411.82,273.68)" d="M2.5,0A2.5,2.5 0 1,1 0,-2.5A2.5,2.5 0 0,1 2.5,0Z" style="opacity: 1; stroke-width: 0px; fill: rgb(88, 86, 132); fill-opacity: 1;"/><path class="point" transform="translate(427.93,275.75)" d="M2.5,0A2.5,2.5 0 1,1 0,-2.5A2.5,2.5 0 0,1 2.5,0Z" style="opacity: 1; stroke-width: 0px; fill: rgb(88, 86, 132); fill-opacity: 1;"/><path class="point" transform="translate(434.52,272.57)" d="M2.5,0A2.5,2.5 0 1,1 0,-2.5A2.5,2.5 0 0,1 2.5,0Z" style="opacity: 1; stroke-width: 0px; fill: rgb(88, 86, 132); fill-opacity: 1;"/><path class="point" transform="translate(453.06,273.6)" d="M2.5,0A2.5,2.5 0 1,1 0,-2.5A2.5,2.5 0 0,1 2.5,0Z" style="opacity: 1; stroke-width: 0px; fill: rgb(88, 86, 132); fill-opacity: 1;"/><path class="point" transform="translate(472.21,271.03)" d="M2.5,0A2.5,2.5 0 1,1 0,-2.5A2.5,2.5 0 0,1 2.5,0Z" style="opacity: 1; stroke-width: 0px; fill: rgb(88, 86, 132); fill-opacity: 1;"/></g></g><g class="trace violins" style="opacity: 1;"><path class="violin" d="M294.29,246.89L294.29,246.11Q298.39,245.66 300.43,245.28C302.49,244.9 304.54,244.45 306.57,243.84C308.63,243.22 310.68,242.47 312.7,241.57C314.78,240.65 316.82,239.55 318.84,238.36C320.92,237.13 322.95,235.72 324.97,234.29C327.04,232.84 329.06,231.23 331.11,229.71C333.16,228.19 335.18,226.59 337.25,225.17C339.27,223.78 341.3,222.41 343.38,221.28C345.39,220.19 347.44,219.21 349.52,218.46C351.53,217.73 353.59,217.2 355.65,216.79C357.68,216.39 359.74,216.2 361.79,216.01C363.83,215.82 365.88,215.76 367.93,215.65C369.97,215.54 372.02,215.44 374.06,215.33C376.11,215.21 378.15,215.05 380.2,214.96C382.24,214.87 384.29,214.75 386.33,214.8C388.38,214.85 390.44,214.94 392.47,215.26C394.53,215.59 396.59,216.08 398.61,216.76C400.68,217.46 402.73,218.39 404.74,219.42C406.82,220.48 408.85,221.77 410.88,223.06C412.94,224.37 414.97,225.83 417.01,227.21C419.06,228.6 421.09,230.04 423.15,231.37C425.18,232.68 427.22,233.96 429.29,235.12C431.31,236.25 433.35,237.31 435.42,238.25C437.45,239.17 439.5,239.99 441.56,240.71C443.59,241.42 445.63,242.03 447.69,242.56C449.73,243.08 451.78,243.51 453.83,243.87C455.87,244.23 457.92,244.5 459.97,244.71C462.01,244.92 464.05,245.04 466.1,245.12C468.14,245.2 470.19,245.2 472.24,245.17C474.28,245.14 476.33,245.05 478.37,244.97C480.42,244.89 482.46,244.76 484.51,244.67C486.56,244.58 488.6,244.49 490.65,244.44C492.69,244.39 494.74,244.36 496.78,244.38C498.83,244.4 500.87,244.47 502.92,244.56C504.97,244.65 507.01,244.8 509.06,244.94C511.1,245.08 513.15,245.26 515.19,245.42C517.24,245.58 519.28,245.75 521.33,245.89C523.37,246.03 525.42,246.17 527.46,246.28Q529.51,246.39 533.6,246.55L533.6,246.89" style="vector-effect: non-scaling-stroke; stroke-width: 2px; stroke: rgb(106, 80, 119); stroke-opacity: 1; fill: rgb(106, 80, 119); fill-opacity: 0.5;"/><g class="points"><path class="point" transform="translate(332.07,237.5)" d="M2.5,0A2.5,2.5 0 1,1 0,-2.5A2.5,2.5 0 0,1 2.5,0Z" style="opacity: 1; stroke-width: 0px; fill: rgb(106, 80, 119); fill-opacity: 1;"/><path class="point" transform="translate(340.99,244.01)" d="M2.5,0A2.5,2.5 0 1,1 0,-2.5A2.5,2.5 0 0,1 2.5,0Z" style="opacity: 1; stroke-width: 0px; fill: rgb(106, 80, 119); fill-opacity: 1;"/><path class="point" transform="translate(342.2,235.9)" d="M2.5,0A2.5,2.5 0 1,1 0,-2.5A2.5,2.5 0 0,1 2.5,0Z" style="opacity: 1; stroke-width: 0px; fill: rgb(106, 80, 119); fill-opacity: 1;"/><path class="point" transform="translate(343.82,245.33)" d="M2.5,0A2.5,2.5 0 1,1 0,-2.5A2.5,2.5 0 0,1 2.5,0Z" style="opacity: 1; stroke-width: 0px; fill: rgb(106, 80, 119); fill-opacity: 1;"/><path class="point" transform="translate(347.78,241.94)" d="M2.5,0A2.5,2.5 0 1,1 0,-2.5A2.5,2.5 0 0,1 2.5,0Z" style="opacity: 1; stroke-width: 0px; fill: rgb(106, 80, 119); fill-opacity: 1;"/><path class="point" transform="translate(348.69,237.39)" d="M2.5,0A2.5,2.5 0 1,1 0,-2.5A2.5,2.5 0 0,1 2.5,0Z" style="opacity: 1; stroke-width: 0px; fill: rgb(106, 80, 119); fill-opacity: 1;"/><path class="point" transform="translate(353.15,240.67)" d="M2.5,0A2.5,2.5 0 1,1 0,-2.5A2.5,2.5 0 0,1 2.5,0Z" style="opacity: 1; stroke-width: 0px; fill: rgb(106, 80, 119); fill-opacity: 1;"/><path class="point" transform="translate(353.96,238.88)" d="M2.5,0A2.5,2.5 0 1,1 0,-2.5A2.5,2.5 0 0,1 2.5,0Z" style="opacity: 1; stroke-width: 0px; fill: rgb(106, 80, 119); fill-opacity: 1;"/><path class="point" transform="translate(358.31,242.22)" d="M2.5,0A2.5,2.5 0 1,1 0,-2.5A2.5,2.5 0 0,1 2.5,0Z" style="opacity: 1; stroke-width: 0px; fill: rgb(106, 80, 119); fill-opacity: 1;"/><path class="point" transform="translate(359.53,244.53)" d="M2.5,0A2.5,2.5 0 1,1 0,-2.5A2.5,2.5 0 0,1 2.5,0Z" style="opacity: 1; stroke-width: 0px; fill: rgb(106, 80, 119); fill-opacity: 1;"/><path class="point" transform="translate(363.69,239.07)" d="M2.5,0A2.5,2.5 0 1,1 0,-2.5A2.5,2.5 0 0,1 2.5,0Z" style="opacity: 1; stroke-width: 0px; fill: rgb(106, 80, 119); fill-opacity: 1;"/><path class="point" transform="translate(376.55,242.17)" d="M2.5,0A2.5,2.5 0 1,1 0,-2.5A2.5,2.5 0 0,1 2.5,0Z" style="opacity: 1; stroke-width: 0px; fill: rgb(106, 80, 119); fill-opacity: 1;"/><path class="point" transform="translate(378.18,237.24)" d="M2.5,0A2.5,2.5 0 1,1 0,-2.5A2.5,2.5 0 0,1 2.5,0Z" style="opacity: 1; stroke-width: 0px; fill: rgb(106, 80, 119); fill-opacity: 1;"/><path class="point" transform="translate(380,245.63)" d="M2.5,0A2.5,2.5 0 1,1 0,-2.5A2.5,2.5 0 0,1 2.5,0Z" style="opacity: 1; stroke-width: 0px; fill: rgb(106, 80, 119); fill-opacity: 1;"/><path class="point" transform="translate(383.04,243.49)" d="M2.5,0A2.5,2.5 0 1,1 0,-2.5A2.5,2.5 0 0,1 2.5,0Z" style="opacity: 1; stroke-width: 0px; fill: rgb(106, 80, 119); fill-opacity: 1;"/><path class="point" transform="translate(388.61,235.64)" d="M2.5,0A2.5,2.5 0 1,1 0,-2.5A2.5,2.5 0 0,1 2.5,0Z" style="opacity: 1; stroke-width: 0px; fill: rgb(106, 80, 119); fill-opacity: 1;"/><path class="point" transform="translate(393.58,242.08)" d="M2.5,0A2.5,2.5 0 1,1 0,-2.5A2.5,2.5 0 0,1 2.5,0Z" style="opacity: 1; stroke-width: 0px; fill: rgb(106, 80, 119); fill-opacity: 1;"/><path class="point" transform="translate(395.71,245.84)" d="M2.5,0A2.5,2.5 0 1,1 0,-2.5A2.5,2.5 0 0,1 2.5,0Z" style="opacity: 1; stroke-width: 0px; fill: rgb(106, 80, 119); fill-opacity: 1;"/><path class="point" transform="translate(396.92,242.35)" d="M2.5,0A2.5,2.5 0 1,1 0,-2.5A2.5,2.5 0 0,1 2.5,0Z" style="opacity: 1; stroke-width: 0px; fill: rgb(106, 80, 119); fill-opacity: 1;"/><path class="point" transform="translate(399.25,240.59)" d="M2.5,0A2.5,2.5 0 1,1 0,-2.5A2.5,2.5 0 0,1 2.5,0Z" style="opacity: 1; stroke-width: 0px; fill: rgb(106, 80, 119); fill-opacity: 1;"/><path class="point" transform="translate(400.06,238.37)" d="M2.5,0A2.5,2.5 0 1,1 0,-2.5A2.5,2.5 0 0,1 2.5,0Z" style="opacity: 1; stroke-width: 0px; fill: rgb(106, 80, 119); fill-opacity: 1;"/><path class="point" transform="translate(402.9,240.11)" d="M2.5,0A2.5,2.5 0 1,1 0,-2.5A2.5,2.5 0 0,1 2.5,0Z" style="opacity: 1; stroke-width: 0px; fill: rgb(106, 80, 119); fill-opacity: 1;"/><path class="point" transform="translate(405.84,241.35)" d="M2.5,0A2.5,2.5 0 1,1 0,-2.5A2.5,2.5 0 0,1 2.5,0Z" style="opacity: 1; stroke-width: 0px; fill: rgb(106, 80, 119); fill-opacity: 1;"/><path class="point" transform="translate(413.64,242.95)" d="M2.5,0A2.5,2.5 0 1,1 0,-2.5A2.5,2.5 0 0,1 2.5,0Z" style="opacity: 1; stroke-width: 0px; fill: rgb(106, 80, 119); fill-opacity: 1;"/><path class="point" transform="translate(419.11,240.48)" d="M2.5,0A2.5,2.5 0 1,1 0,-2.5A2.5,2.5 0 0,1 2.5,0Z" style="opacity: 1; stroke-width: 0px; fill: rgb(106, 80, 119); fill-opacity: 1;"/><path class="point" transform="translate(438.27,241.23)" d="M2.5,0A2.5,2.5 0 1,1 0,-2.5A2.5,2.5 0 0,1 2.5,0Z" style="opacity: 1; stroke-width: 0px; fill: rgb(106, 80, 119); fill-opacity: 1;"/><path class="point" transform="translate(495.82,239.34)" d="M2.5,0A2.5,2.5 0 1,1 0,-2.5A2.5,2.5 0 0,1 2.5,0Z" style="opacity: 1; stroke-width: 0px; fill: rgb(106, 80, 119); fill-opacity: 1;"/></g></g><g class="trace violins" style="opacity: 1;"><path class="violin" d="M319.9,214.8L319.9,213.87Q323.76,213.32 325.66,212.86C327.59,212.4 329.52,211.83 331.41,211.09C333.36,210.33 335.29,209.4 337.17,208.32C339.13,207.19 341.05,205.85 342.93,204.43C344.89,202.95 346.79,201.25 348.69,199.57C350.63,197.85 352.51,195.97 354.44,194.23C356.35,192.51 358.23,190.7 360.2,189.18C362.08,187.73 363.98,186.29 365.96,185.25C367.82,184.27 369.77,183.46 371.72,183.04C373.61,182.63 375.56,182.55 377.47,182.7C379.4,182.85 381.33,183.39 383.23,183.97C385.17,184.56 387.08,185.43 388.99,186.25C390.92,187.08 392.83,188.04 394.75,188.93C396.67,189.82 398.58,190.73 400.51,191.57C402.42,192.41 404.34,193.2 406.26,193.97C408.17,194.73 410.1,195.44 412.02,196.15C413.94,196.85 415.86,197.52 417.78,198.2C419.7,198.87 421.62,199.54 423.54,200.2C425.46,200.85 427.37,201.52 429.29,202.13C431.2,202.74 433.12,203.33 435.05,203.86C436.96,204.38 438.88,204.87 440.81,205.28C442.72,205.69 444.65,206.02 446.57,206.32C448.49,206.61 450.41,206.83 452.33,207.05C454.25,207.27 456.16,207.44 458.08,207.65C460,207.86 461.92,208.06 463.84,208.32C465.76,208.58 467.68,208.87 469.6,209.19C471.52,209.51 473.44,209.88 475.36,210.24C477.28,210.6 479.19,211 481.11,211.37C483.03,211.73 484.95,212.11 486.87,212.43C488.79,212.75 490.71,213.06 492.63,213.31C494.55,213.56 496.47,213.77 498.39,213.95Q500.31,214.12 504.15,214.36L504.15,214.8" style="vector-effect: non-scaling-stroke; stroke-width: 2px; stroke: rgb(124, 75, 106); stroke-opacity: 1; fill: rgb(124, 75, 106); fill-opacity: 0.5;"/><g class="points"><path class="point" transform="translate(354.87,205.93)" d="M2.5,0A2.5,2.5 0 1,1 0,-2.5A2.5,2.5 0 0,1 2.5,0Z" style="opacity: 1; stroke-width: 0px; fill: rgb(124, 75, 106); fill-opacity: 1;"/><path class="point" transform="translate(357.2,211.64)" d="M2.5,0A2.5,2.5 0 1,1 0,-2.5A2.5,2.5 0 0,1 2.5,0Z" style="opacity: 1; stroke-width: 0px; fill: rgb(124, 75, 106); fill-opacity: 1;"/><path class="point" transform="translate(366.02,204.12)" d="M2.5,0A2.5,2.5 0 1,1 0,-2.5A2.5,2.5 0 0,1 2.5,0Z" style="opacity: 1; stroke-width: 0px; fill: rgb(124, 75, 106); fill-opacity: 1;"/><path class="point" transform="translate(366.52,213.23)" d="M2.5,0A2.5,2.5 0 1,1 0,-2.5A2.5,2.5 0 0,1 2.5,0Z" style="opacity: 1; stroke-width: 0px; fill: rgb(124, 75, 106); fill-opacity: 1;"/><path class="point" transform="translate(367.13,209.79)" d="M2.5,0A2.5,2.5 0 1,1 0,-2.5A2.5,2.5 0 0,1 2.5,0Z" style="opacity: 1; stroke-width: 0px; fill: rgb(124, 75, 106); fill-opacity: 1;"/><path class="point" transform="translate(368.25,205.66)" d="M2.5,0A2.5,2.5 0 1,1 0,-2.5A2.5,2.5 0 0,1 2.5,0Z" style="opacity: 1; stroke-width: 0px; fill: rgb(124, 75, 106); fill-opacity: 1;"/><path class="point" transform="translate(368.45,208.57)" d="M2.5,0A2.5,2.5 0 1,1 0,-2.5A2.5,2.5 0 0,1 2.5,0Z" style="opacity: 1; stroke-width: 0px; fill: rgb(124, 75, 106); fill-opacity: 1;"/><path class="point" transform="translate(368.65,206.52)" d="M2.5,0A2.5,2.5 0 1,1 0,-2.5A2.5,2.5 0 0,1 2.5,0Z" style="opacity: 1; stroke-width: 0px; fill: rgb(124, 75, 106); fill-opacity: 1;"/><path class="point" transform="translate(369.26,210.24)" d="M2.5,0A2.5,2.5 0 1,1 0,-2.5A2.5,2.5 0 0,1 2.5,0Z" style="opacity: 1; stroke-width: 0px; fill: rgb(124, 75, 106); fill-opacity: 1;"/><path class="point" transform="translate(371.08,212.51)" d="M2.5,0A2.5,2.5 0 1,1 0,-2.5A2.5,2.5 0 0,1 2.5,0Z" style="opacity: 1; stroke-width: 0px; fill: rgb(124, 75, 106); fill-opacity: 1;"/><path class="point" transform="translate(377.06,207.08)" d="M2.5,0A2.5,2.5 0 1,1 0,-2.5A2.5,2.5 0 0,1 2.5,0Z" style="opacity: 1; stroke-width: 0px; fill: rgb(124, 75, 106); fill-opacity: 1;"/><path class="point" transform="translate(380.3,209.92)" d="M2.5,0A2.5,2.5 0 1,1 0,-2.5A2.5,2.5 0 0,1 2.5,0Z" style="opacity: 1; stroke-width: 0px; fill: rgb(124, 75, 106); fill-opacity: 1;"/><path class="point" transform="translate(380.41,205.63)" d="M2.5,0A2.5,2.5 0 1,1 0,-2.5A2.5,2.5 0 0,1 2.5,0Z" style="opacity: 1; stroke-width: 0px; fill: rgb(124, 75, 106); fill-opacity: 1;"/><path class="point" transform="translate(383.85,212.25)" d="M2.5,0A2.5,2.5 0 1,1 0,-2.5A2.5,2.5 0 0,1 2.5,0Z" style="opacity: 1; stroke-width: 0px; fill: rgb(124, 75, 106); fill-opacity: 1;"/><path class="point" transform="translate(385.78,210.72)" d="M2.5,0A2.5,2.5 0 1,1 0,-2.5A2.5,2.5 0 0,1 2.5,0Z" style="opacity: 1; stroke-width: 0px; fill: rgb(124, 75, 106); fill-opacity: 1;"/><path class="point" transform="translate(393.58,205.02)" d="M2.5,0A2.5,2.5 0 1,1 0,-2.5A2.5,2.5 0 0,1 2.5,0Z" style="opacity: 1; stroke-width: 0px; fill: rgb(124, 75, 106); fill-opacity: 1;"/><path class="point" transform="translate(395.3,209.34)" d="M2.5,0A2.5,2.5 0 1,1 0,-2.5A2.5,2.5 0 0,1 2.5,0Z" style="opacity: 1; stroke-width: 0px; fill: rgb(124, 75, 106); fill-opacity: 1;"/><path class="point" transform="translate(400.17,211.57)" d="M2.5,0A2.5,2.5 0 1,1 0,-2.5A2.5,2.5 0 0,1 2.5,0Z" style="opacity: 1; stroke-width: 0px; fill: rgb(124, 75, 106); fill-opacity: 1;"/><path class="point" transform="translate(406.75,209.55)" d="M2.5,0A2.5,2.5 0 1,1 0,-2.5A2.5,2.5 0 0,1 2.5,0Z" style="opacity: 1; stroke-width: 0px; fill: rgb(124, 75, 106); fill-opacity: 1;"/><path class="point" transform="translate(407.16,208.44)" d="M2.5,0A2.5,2.5 0 1,1 0,-2.5A2.5,2.5 0 0,1 2.5,0Z" style="opacity: 1; stroke-width: 0px; fill: rgb(124, 75, 106); fill-opacity: 1;"/><path class="point" transform="translate(418.3,207.06)" d="M2.5,0A2.5,2.5 0 1,1 0,-2.5A2.5,2.5 0 0,1 2.5,0Z" style="opacity: 1; stroke-width: 0px; fill: rgb(124, 75, 106); fill-opacity: 1;"/><path class="point" transform="translate(420.33,208.06)" d="M2.5,0A2.5,2.5 0 1,1 0,-2.5A2.5,2.5 0 0,1 2.5,0Z" style="opacity: 1; stroke-width: 0px; fill: rgb(124, 75, 106); fill-opacity: 1;"/><path class="point" transform="translate(423.27,209.16)" d="M2.5,0A2.5,2.5 0 1,1 0,-2.5A2.5,2.5 0 0,1 2.5,0Z" style="opacity: 1; stroke-width: 0px; fill: rgb(124, 75, 106); fill-opacity: 1;"/><path class="point" transform="translate(431.07,210.68)" d="M2.5,0A2.5,2.5 0 1,1 0,-2.5A2.5,2.5 0 0,1 2.5,0Z" style="opacity: 1; stroke-width: 0px; fill: rgb(124, 75, 106); fill-opacity: 1;"/><path class="point" transform="translate(450.22,208.38)" d="M2.5,0A2.5,2.5 0 1,1 0,-2.5A2.5,2.5 0 0,1 2.5,0Z" style="opacity: 1; stroke-width: 0px; fill: rgb(124, 75, 106); fill-opacity: 1;"/><path class="point" transform="translate(462.69,209.15)" d="M2.5,0A2.5,2.5 0 1,1 0,-2.5A2.5,2.5 0 0,1 2.5,0Z" style="opacity: 1; stroke-width: 0px; fill: rgb(124, 75, 106); fill-opacity: 1;"/><path class="point" transform="translate(469.17,207.23)" d="M2.5,0A2.5,2.5 0 1,1 0,-2.5A2.5,2.5 0 0,1 2.5,0Z" style="opacity: 1; stroke-width: 0px; fill: rgb(124, 75, 106); fill-opacity: 1;"/></g></g><g class="trace violins" style="opacity: 1;"><path class="violin" d="M258.95,182.7L258.95,181.95Q265.69,181.51 269.06,181.16C272.44,180.81 275.82,180.39 279.18,179.83C282.56,179.27 285.93,178.59 289.29,177.79C292.67,176.98 296.05,176.03 299.4,174.98C302.79,173.92 306.16,172.72 309.52,171.47C312.9,170.21 316.26,168.82 319.63,167.45C323,166.08 326.36,164.63 329.74,163.26C333.11,161.9 336.47,160.51 339.86,159.25C343.22,158 346.58,156.78 349.97,155.74C353.32,154.71 356.69,153.76 360.08,153.01C363.44,152.27 366.82,151.67 370.2,151.27C373.56,150.87 376.94,150.65 380.31,150.61C383.68,150.57 387.06,150.73 390.43,151.01C393.81,151.29 397.18,151.77 400.54,152.3C403.92,152.84 407.29,153.51 410.65,154.22C414.03,154.93 417.4,155.73 420.77,156.55C424.15,157.38 427.51,158.26 430.88,159.17C434.25,160.08 437.62,161.04 440.99,162C444.36,162.96 447.74,163.97 451.11,164.94C454.48,165.91 457.84,166.91 461.22,167.83C464.58,168.75 467.95,169.65 471.33,170.45C474.69,171.25 478.07,172 481.45,172.65C484.81,173.3 488.19,173.86 491.56,174.36C494.93,174.86 498.3,175.28 501.67,175.67C505.04,176.05 508.42,176.37 511.79,176.67C515.16,176.97 518.53,177.22 521.9,177.47C525.27,177.72 528.64,177.94 532.01,178.16C535.38,178.38 538.76,178.57 542.13,178.77C545.5,178.97 548.87,179.17 552.24,179.37C555.61,179.57 558.98,179.78 562.35,179.99C565.72,180.2 569.1,180.41 572.47,180.61C575.84,180.81 579.21,181.02 582.58,181.21C585.95,181.39 589.32,181.57 592.69,181.72C596.06,181.87 599.44,182.01 602.81,182.12Q606.18,182.23 612.92,182.39L612.92,182.7" style="vector-effect: non-scaling-stroke; stroke-width: 2px; stroke: rgb(142, 70, 92); stroke-opacity: 1; fill: rgb(142, 70, 92); fill-opacity: 0.5;"/><g class="points"><path class="point" transform="translate(320.42,173.51)" d="M2.5,0A2.5,2.5 0 1,1 0,-2.5A2.5,2.5 0 0,1 2.5,0Z" style="opacity: 1; stroke-width: 0px; fill: rgb(142, 70, 92); fill-opacity: 1;"/><path class="point" transform="translate(328.52,179.6)" d="M2.5,0A2.5,2.5 0 1,1 0,-2.5A2.5,2.5 0 0,1 2.5,0Z" style="opacity: 1; stroke-width: 0px; fill: rgb(142, 70, 92); fill-opacity: 1;"/><path class="point" transform="translate(335.62,171.97)" d="M2.5,0A2.5,2.5 0 1,1 0,-2.5A2.5,2.5 0 0,1 2.5,0Z" style="opacity: 1; stroke-width: 0px; fill: rgb(142, 70, 92); fill-opacity: 1;"/><path class="point" transform="translate(336.83,180.65)" d="M2.5,0A2.5,2.5 0 1,1 0,-2.5A2.5,2.5 0 0,1 2.5,0Z" style="opacity: 1; stroke-width: 0px; fill: rgb(142, 70, 92); fill-opacity: 1;"/><path class="point" transform="translate(350.61,177.63)" d="M2.5,0A2.5,2.5 0 1,1 0,-2.5A2.5,2.5 0 0,1 2.5,0Z" style="opacity: 1; stroke-width: 0px; fill: rgb(142, 70, 92); fill-opacity: 1;"/><path class="point" transform="translate(351.83,173.33)" d="M2.5,0A2.5,2.5 0 1,1 0,-2.5A2.5,2.5 0 0,1 2.5,0Z" style="opacity: 1; stroke-width: 0px; fill: rgb(142, 70, 92); fill-opacity: 1;"/><path class="point" transform="translate(360.34,176.5)" d="M2.5,0A2.5,2.5 0 1,1 0,-2.5A2.5,2.5 0 0,1 2.5,0Z" style="opacity: 1; stroke-width: 0px; fill: rgb(142, 70, 92); fill-opacity: 1;"/><path class="point" transform="translate(361.15,174.57)" d="M2.5,0A2.5,2.5 0 1,1 0,-2.5A2.5,2.5 0 0,1 2.5,0Z" style="opacity: 1; stroke-width: 0px; fill: rgb(142, 70, 92); fill-opacity: 1;"/><path class="point" transform="translate(374.73,178.14)" d="M2.5,0A2.5,2.5 0 1,1 0,-2.5A2.5,2.5 0 0,1 2.5,0Z" style="opacity: 1; stroke-width: 0px; fill: rgb(142, 70, 92); fill-opacity: 1;"/><path class="point" transform="translate(374.93,180.98)" d="M2.5,0A2.5,2.5 0 1,1 0,-2.5A2.5,2.5 0 0,1 2.5,0Z" style="opacity: 1; stroke-width: 0px; fill: rgb(142, 70, 92); fill-opacity: 1;"/><path class="point" transform="translate(377.37,174.61)" d="M2.5,0A2.5,2.5 0 1,1 0,-2.5A2.5,2.5 0 0,1 2.5,0Z" style="opacity: 1; stroke-width: 0px; fill: rgb(142, 70, 92); fill-opacity: 1;"/><path class="point" transform="translate(383.24,178.4)" d="M2.5,0A2.5,2.5 0 1,1 0,-2.5A2.5,2.5 0 0,1 2.5,0Z" style="opacity: 1; stroke-width: 0px; fill: rgb(142, 70, 92); fill-opacity: 1;"/><path class="point" transform="translate(386.89,172.56)" d="M2.5,0A2.5,2.5 0 1,1 0,-2.5A2.5,2.5 0 0,1 2.5,0Z" style="opacity: 1; stroke-width: 0px; fill: rgb(142, 70, 92); fill-opacity: 1;"/><path class="point" transform="translate(390.13,182.01)" d="M2.5,0A2.5,2.5 0 1,1 0,-2.5A2.5,2.5 0 0,1 2.5,0Z" style="opacity: 1; stroke-width: 0px; fill: rgb(142, 70, 92); fill-opacity: 1;"/><path class="point" transform="translate(394.59,179.66)" d="M2.5,0A2.5,2.5 0 1,1 0,-2.5A2.5,2.5 0 0,1 2.5,0Z" style="opacity: 1; stroke-width: 0px; fill: rgb(142, 70, 92); fill-opacity: 1;"/><path class="point" transform="translate(397.83,171.51)" d="M2.5,0A2.5,2.5 0 1,1 0,-2.5A2.5,2.5 0 0,1 2.5,0Z" style="opacity: 1; stroke-width: 0px; fill: rgb(142, 70, 92); fill-opacity: 1;"/><path class="point" transform="translate(404.12,177.62)" d="M2.5,0A2.5,2.5 0 1,1 0,-2.5A2.5,2.5 0 0,1 2.5,0Z" style="opacity: 1; stroke-width: 0px; fill: rgb(142, 70, 92); fill-opacity: 1;"/><path class="point" transform="translate(413.24,180.99)" d="M2.5,0A2.5,2.5 0 1,1 0,-2.5A2.5,2.5 0 0,1 2.5,0Z" style="opacity: 1; stroke-width: 0px; fill: rgb(142, 70, 92); fill-opacity: 1;"/><path class="point" transform="translate(426.82,178.14)" d="M2.5,0A2.5,2.5 0 1,1 0,-2.5A2.5,2.5 0 0,1 2.5,0Z" style="opacity: 1; stroke-width: 0px; fill: rgb(142, 70, 92); fill-opacity: 1;"/><path class="point" transform="translate(428.03,176.38)" d="M2.5,0A2.5,2.5 0 1,1 0,-2.5A2.5,2.5 0 0,1 2.5,0Z" style="opacity: 1; stroke-width: 0px; fill: rgb(142, 70, 92); fill-opacity: 1;"/><path class="point" transform="translate(439.18,174.45)" d="M2.5,0A2.5,2.5 0 1,1 0,-2.5A2.5,2.5 0 0,1 2.5,0Z" style="opacity: 1; stroke-width: 0px; fill: rgb(142, 70, 92); fill-opacity: 1;"/><path class="point" transform="translate(446.88,175.9)" d="M2.5,0A2.5,2.5 0 1,1 0,-2.5A2.5,2.5 0 0,1 2.5,0Z" style="opacity: 1; stroke-width: 0px; fill: rgb(142, 70, 92); fill-opacity: 1;"/><path class="point" transform="translate(446.88,177.25)" d="M2.5,0A2.5,2.5 0 1,1 0,-2.5A2.5,2.5 0 0,1 2.5,0Z" style="opacity: 1; stroke-width: 0px; fill: rgb(142, 70, 92); fill-opacity: 1;"/><path class="point" transform="translate(447.29,179.13)" d="M2.5,0A2.5,2.5 0 1,1 0,-2.5A2.5,2.5 0 0,1 2.5,0Z" style="opacity: 1; stroke-width: 0px; fill: rgb(142, 70, 92); fill-opacity: 1;"/><path class="point" transform="translate(490.05,176.3)" d="M2.5,0A2.5,2.5 0 1,1 0,-2.5A2.5,2.5 0 0,1 2.5,0Z" style="opacity: 1; stroke-width: 0px; fill: rgb(142, 70, 92); fill-opacity: 1;"/><path class="point" transform="translate(505.65,177.19)" d="M2.5,0A2.5,2.5 0 1,1 0,-2.5A2.5,2.5 0 0,1 2.5,0Z" style="opacity: 1; stroke-width: 0px; fill: rgb(142, 70, 92); fill-opacity: 1;"/><path class="point" transform="translate(551.46,174.92)" d="M2.5,0A2.5,2.5 0 1,1 0,-2.5A2.5,2.5 0 0,1 2.5,0Z" style="opacity: 1; stroke-width: 0px; fill: rgb(142, 70, 92); fill-opacity: 1;"/></g></g><g class="trace violins" style="opacity: 1;"><path class="violin" d="M312.32,150.61L312.32,149.59Q317.05,148.98 319.4,148.48C321.78,147.98 324.15,147.38 326.49,146.58C328.88,145.77 331.25,144.78 333.58,143.63C335.98,142.45 338.33,141.05 340.66,139.57C343.06,138.05 345.4,136.32 347.75,134.62C350.13,132.9 352.45,131.02 354.83,129.31C357.18,127.62 359.51,125.88 361.92,124.43C364.24,123.03 366.6,121.7 369.01,120.74C371.32,119.82 373.71,119.12 376.09,118.75C378.43,118.39 380.82,118.36 383.18,118.52C385.55,118.68 387.92,119.18 390.27,119.73C392.65,120.29 395,121.08 397.35,121.85C399.72,122.63 402.08,123.52 404.44,124.39C406.81,125.26 409.17,126.16 411.53,127.05C413.89,127.95 416.25,128.85 418.61,129.76C420.97,130.68 423.34,131.61 425.7,132.54C428.06,133.46 430.41,134.42 432.78,135.31C435.14,136.2 437.49,137.11 439.87,137.9C442.22,138.68 444.58,139.42 446.96,140.02C449.31,140.61 451.67,141.1 454.04,141.46C456.39,141.82 458.76,142.03 461.13,142.19C463.49,142.35 465.86,142.38 468.22,142.42C470.58,142.46 472.94,142.42 475.3,142.46C477.66,142.5 480.03,142.55 482.39,142.69C484.75,142.83 487.11,143.03 489.47,143.31C491.84,143.59 494.2,143.98 496.56,144.38C498.93,144.78 501.29,145.27 503.65,145.73C506.01,146.19 508.37,146.68 510.73,147.12C513.09,147.56 515.45,147.99 517.82,148.35C520.18,148.71 522.54,149.03 524.91,149.29Q527.27,149.55 531.99,149.91L531.99,150.61" style="vector-effect: non-scaling-stroke; stroke-width: 2px; stroke: rgb(160, 64, 79); stroke-opacity: 1; fill: rgb(160, 64, 79); fill-opacity: 0.5;"/><g class="points"><path class="point" transform="translate(355.68,141.12)" d="M2.5,0A2.5,2.5 0 1,1 0,-2.5A2.5,2.5 0 0,1 2.5,0Z" style="opacity: 1; stroke-width: 0px; fill: rgb(160, 64, 79); fill-opacity: 1;"/><path class="point" transform="translate(360.14,148.22)" d="M2.5,0A2.5,2.5 0 1,1 0,-2.5A2.5,2.5 0 0,1 2.5,0Z" style="opacity: 1; stroke-width: 0px; fill: rgb(160, 64, 79); fill-opacity: 1;"/><path class="point" transform="translate(365.41,139.23)" d="M2.5,0A2.5,2.5 0 1,1 0,-2.5A2.5,2.5 0 0,1 2.5,0Z" style="opacity: 1; stroke-width: 0px; fill: rgb(160, 64, 79); fill-opacity: 1;"/><path class="point" transform="translate(366.83,149.2)" d="M2.5,0A2.5,2.5 0 1,1 0,-2.5A2.5,2.5 0 0,1 2.5,0Z" style="opacity: 1; stroke-width: 0px; fill: rgb(160, 64, 79); fill-opacity: 1;"/><path class="point" transform="translate(368.04,145.71)" d="M2.5,0A2.5,2.5 0 1,1 0,-2.5A2.5,2.5 0 0,1 2.5,0Z" style="opacity: 1; stroke-width: 0px; fill: rgb(160, 64, 79); fill-opacity: 1;"/><path class="point" transform="translate(368.65,140.95)" d="M2.5,0A2.5,2.5 0 1,1 0,-2.5A2.5,2.5 0 0,1 2.5,0Z" style="opacity: 1; stroke-width: 0px; fill: rgb(160, 64, 79); fill-opacity: 1;"/><path class="point" transform="translate(369.46,144.42)" d="M2.5,0A2.5,2.5 0 1,1 0,-2.5A2.5,2.5 0 0,1 2.5,0Z" style="opacity: 1; stroke-width: 0px; fill: rgb(160, 64, 79); fill-opacity: 1;"/><path class="point" transform="translate(371.29,142.33)" d="M2.5,0A2.5,2.5 0 1,1 0,-2.5A2.5,2.5 0 0,1 2.5,0Z" style="opacity: 1; stroke-width: 0px; fill: rgb(160, 64, 79); fill-opacity: 1;"/><path class="point" transform="translate(376.55,146.19)" d="M2.5,0A2.5,2.5 0 1,1 0,-2.5A2.5,2.5 0 0,1 2.5,0Z" style="opacity: 1; stroke-width: 0px; fill: rgb(160, 64, 79); fill-opacity: 1;"/><path class="point" transform="translate(377.37,148.63)" d="M2.5,0A2.5,2.5 0 1,1 0,-2.5A2.5,2.5 0 0,1 2.5,0Z" style="opacity: 1; stroke-width: 0px; fill: rgb(160, 64, 79); fill-opacity: 1;"/><path class="point" transform="translate(379.59,142.77)" d="M2.5,0A2.5,2.5 0 1,1 0,-2.5A2.5,2.5 0 0,1 2.5,0Z" style="opacity: 1; stroke-width: 0px; fill: rgb(160, 64, 79); fill-opacity: 1;"/><path class="point" transform="translate(385.47,145.95)" d="M2.5,0A2.5,2.5 0 1,1 0,-2.5A2.5,2.5 0 0,1 2.5,0Z" style="opacity: 1; stroke-width: 0px; fill: rgb(160, 64, 79); fill-opacity: 1;"/><path class="point" transform="translate(387.6,141.14)" d="M2.5,0A2.5,2.5 0 1,1 0,-2.5A2.5,2.5 0 0,1 2.5,0Z" style="opacity: 1; stroke-width: 0px; fill: rgb(160, 64, 79); fill-opacity: 1;"/><path class="point" transform="translate(390.13,148.61)" d="M2.5,0A2.5,2.5 0 1,1 0,-2.5A2.5,2.5 0 0,1 2.5,0Z" style="opacity: 1; stroke-width: 0px; fill: rgb(160, 64, 79); fill-opacity: 1;"/><path class="point" transform="translate(392.97,146.8)" d="M2.5,0A2.5,2.5 0 1,1 0,-2.5A2.5,2.5 0 0,1 2.5,0Z" style="opacity: 1; stroke-width: 0px; fill: rgb(160, 64, 79); fill-opacity: 1;"/><path class="point" transform="translate(400.87,140.21)" d="M2.5,0A2.5,2.5 0 1,1 0,-2.5A2.5,2.5 0 0,1 2.5,0Z" style="opacity: 1; stroke-width: 0px; fill: rgb(160, 64, 79); fill-opacity: 1;"/><path class="point" transform="translate(401.69,145.39)" d="M2.5,0A2.5,2.5 0 1,1 0,-2.5A2.5,2.5 0 0,1 2.5,0Z" style="opacity: 1; stroke-width: 0px; fill: rgb(160, 64, 79); fill-opacity: 1;"/><path class="point" transform="translate(410.7,148.12)" d="M2.5,0A2.5,2.5 0 1,1 0,-2.5A2.5,2.5 0 0,1 2.5,0Z" style="opacity: 1; stroke-width: 0px; fill: rgb(160, 64, 79); fill-opacity: 1;"/><path class="point" transform="translate(420.94,145.37)" d="M2.5,0A2.5,2.5 0 1,1 0,-2.5A2.5,2.5 0 0,1 2.5,0Z" style="opacity: 1; stroke-width: 0px; fill: rgb(160, 64, 79); fill-opacity: 1;"/><path class="point" transform="translate(422.56,144.26)" d="M2.5,0A2.5,2.5 0 1,1 0,-2.5A2.5,2.5 0 0,1 2.5,0Z" style="opacity: 1; stroke-width: 0px; fill: rgb(160, 64, 79); fill-opacity: 1;"/><path class="point" transform="translate(424.59,142.74)" d="M2.5,0A2.5,2.5 0 1,1 0,-2.5A2.5,2.5 0 0,1 2.5,0Z" style="opacity: 1; stroke-width: 0px; fill: rgb(160, 64, 79); fill-opacity: 1;"/><path class="point" transform="translate(425.5,143.84)" d="M2.5,0A2.5,2.5 0 1,1 0,-2.5A2.5,2.5 0 0,1 2.5,0Z" style="opacity: 1; stroke-width: 0px; fill: rgb(160, 64, 79); fill-opacity: 1;"/><path class="point" transform="translate(431.38,145.11)" d="M2.5,0A2.5,2.5 0 1,1 0,-2.5A2.5,2.5 0 0,1 2.5,0Z" style="opacity: 1; stroke-width: 0px; fill: rgb(160, 64, 79); fill-opacity: 1;"/><path class="point" transform="translate(462.08,146.94)" d="M2.5,0A2.5,2.5 0 1,1 0,-2.5A2.5,2.5 0 0,1 2.5,0Z" style="opacity: 1; stroke-width: 0px; fill: rgb(160, 64, 79); fill-opacity: 1;"/><path class="point" transform="translate(481.13,144.2)" d="M2.5,0A2.5,2.5 0 1,1 0,-2.5A2.5,2.5 0 0,1 2.5,0Z" style="opacity: 1; stroke-width: 0px; fill: rgb(160, 64, 79); fill-opacity: 1;"/><path class="point" transform="translate(487.92,145.05)" d="M2.5,0A2.5,2.5 0 1,1 0,-2.5A2.5,2.5 0 0,1 2.5,0Z" style="opacity: 1; stroke-width: 0px; fill: rgb(160, 64, 79); fill-opacity: 1;"/><path class="point" transform="translate(488.63,142.94)" d="M2.5,0A2.5,2.5 0 1,1 0,-2.5A2.5,2.5 0 0,1 2.5,0Z" style="opacity: 1; stroke-width: 0px; fill: rgb(160, 64, 79); fill-opacity: 1;"/></g></g><g class="trace violins" style="opacity: 1;"><path class="violin" d="M305.82,118.52L305.82,117.47Q311.34,116.87 314.08,116.37C316.84,115.87 319.61,115.27 322.34,114.48C325.12,113.68 327.88,112.71 330.6,111.58C333.39,110.42 336.15,109.05 338.87,107.58C341.66,106.08 344.39,104.37 347.13,102.67C349.9,100.95 352.62,99.06 355.39,97.33C358.13,95.62 360.85,93.82 363.65,92.33C366.37,90.88 369.12,89.47 371.92,88.48C374.63,87.52 377.41,86.77 380.18,86.43C382.91,86.1 385.7,86.14 388.44,86.45C391.21,86.76 393.97,87.49 396.7,88.3C399.48,89.13 402.22,90.31 404.96,91.41C407.73,92.52 410.47,93.81 413.23,94.96C415.98,96.1 418.72,97.27 421.49,98.27C424.23,99.25 426.98,100.15 429.75,100.9C432.49,101.64 435.25,102.23 438.01,102.75C440.76,103.26 443.52,103.64 446.28,104C449.03,104.36 451.79,104.62 454.54,104.91C457.29,105.2 460.05,105.45 462.8,105.72C465.55,106 468.31,106.27 471.06,106.56C473.81,106.86 476.57,107.17 479.32,107.49C482.08,107.82 484.84,108.15 487.59,108.51C490.35,108.87 493.1,109.24 495.85,109.63C498.6,110.02 501.36,110.42 504.11,110.83C506.86,111.24 509.62,111.68 512.37,112.11C515.13,112.54 517.88,112.98 520.64,113.4C523.39,113.82 526.15,114.25 528.9,114.65C531.65,115.04 534.4,115.43 537.16,115.77C539.91,116.11 542.66,116.42 545.42,116.69C548.17,116.96 550.92,117.2 553.68,117.4C556.43,117.6 559.19,117.75 561.95,117.88Q564.7,118.01 570.21,118.19L570.21,118.52" style="vector-effect: non-scaling-stroke; stroke-width: 2px; stroke: rgb(179, 59, 66); stroke-opacity: 1; fill: rgb(179, 59, 66); fill-opacity: 0.5;"/><g class="points"><path class="point" transform="translate(356.39,109.34)" d="M2.5,0A2.5,2.5 0 1,1 0,-2.5A2.5,2.5 0 0,1 2.5,0Z" style="opacity: 1; stroke-width: 0px; fill: rgb(179, 59, 66); fill-opacity: 1;"/><path class="point" transform="translate(357.5,115.81)" d="M2.5,0A2.5,2.5 0 1,1 0,-2.5A2.5,2.5 0 0,1 2.5,0Z" style="opacity: 1; stroke-width: 0px; fill: rgb(179, 59, 66); fill-opacity: 1;"/><path class="point" transform="translate(366.62,107.43)" d="M2.5,0A2.5,2.5 0 1,1 0,-2.5A2.5,2.5 0 0,1 2.5,0Z" style="opacity: 1; stroke-width: 0px; fill: rgb(179, 59, 66); fill-opacity: 1;"/><path class="point" transform="translate(369.46,117.36)" d="M2.5,0A2.5,2.5 0 1,1 0,-2.5A2.5,2.5 0 0,1 2.5,0Z" style="opacity: 1; stroke-width: 0px; fill: rgb(179, 59, 66); fill-opacity: 1;"/><path class="point" transform="translate(373.31,113.54)" d="M2.5,0A2.5,2.5 0 1,1 0,-2.5A2.5,2.5 0 0,1 2.5,0Z" style="opacity: 1; stroke-width: 0px; fill: rgb(179, 59, 66); fill-opacity: 1;"/><path class="point" transform="translate(373.92,109.2)" d="M2.5,0A2.5,2.5 0 1,1 0,-2.5A2.5,2.5 0 0,1 2.5,0Z" style="opacity: 1; stroke-width: 0px; fill: rgb(179, 59, 66); fill-opacity: 1;"/><path class="point" transform="translate(374.02,112.31)" d="M2.5,0A2.5,2.5 0 1,1 0,-2.5A2.5,2.5 0 0,1 2.5,0Z" style="opacity: 1; stroke-width: 0px; fill: rgb(179, 59, 66); fill-opacity: 1;"/><path class="point" transform="translate(375.54,110.28)" d="M2.5,0A2.5,2.5 0 1,1 0,-2.5A2.5,2.5 0 0,1 2.5,0Z" style="opacity: 1; stroke-width: 0px; fill: rgb(179, 59, 66); fill-opacity: 1;"/><path class="point" transform="translate(376.96,114.04)" d="M2.5,0A2.5,2.5 0 1,1 0,-2.5A2.5,2.5 0 0,1 2.5,0Z" style="opacity: 1; stroke-width: 0px; fill: rgb(179, 59, 66); fill-opacity: 1;"/><path class="point" transform="translate(382.84,116.81)" d="M2.5,0A2.5,2.5 0 1,1 0,-2.5A2.5,2.5 0 0,1 2.5,0Z" style="opacity: 1; stroke-width: 0px; fill: rgb(179, 59, 66); fill-opacity: 1;"/><path class="point" transform="translate(388.92,110.52)" d="M2.5,0A2.5,2.5 0 1,1 0,-2.5A2.5,2.5 0 0,1 2.5,0Z" style="opacity: 1; stroke-width: 0px; fill: rgb(179, 59, 66); fill-opacity: 1;"/><path class="point" transform="translate(389.32,113.96)" d="M2.5,0A2.5,2.5 0 1,1 0,-2.5A2.5,2.5 0 0,1 2.5,0Z" style="opacity: 1; stroke-width: 0px; fill: rgb(179, 59, 66); fill-opacity: 1;"/><path class="point" transform="translate(391.75,108.61)" d="M2.5,0A2.5,2.5 0 1,1 0,-2.5A2.5,2.5 0 0,1 2.5,0Z" style="opacity: 1; stroke-width: 0px; fill: rgb(179, 59, 66); fill-opacity: 1;"/><path class="point" transform="translate(396.52,116.26)" d="M2.5,0A2.5,2.5 0 1,1 0,-2.5A2.5,2.5 0 0,1 2.5,0Z" style="opacity: 1; stroke-width: 0px; fill: rgb(179, 59, 66); fill-opacity: 1;"/><path class="point" transform="translate(397.43,114.5)" d="M2.5,0A2.5,2.5 0 1,1 0,-2.5A2.5,2.5 0 0,1 2.5,0Z" style="opacity: 1; stroke-width: 0px; fill: rgb(179, 59, 66); fill-opacity: 1;"/><path class="point" transform="translate(402.29,108.39)" d="M2.5,0A2.5,2.5 0 1,1 0,-2.5A2.5,2.5 0 0,1 2.5,0Z" style="opacity: 1; stroke-width: 0px; fill: rgb(179, 59, 66); fill-opacity: 1;"/><path class="point" transform="translate(405.13,113.09)" d="M2.5,0A2.5,2.5 0 1,1 0,-2.5A2.5,2.5 0 0,1 2.5,0Z" style="opacity: 1; stroke-width: 0px; fill: rgb(179, 59, 66); fill-opacity: 1;"/><path class="point" transform="translate(408.17,115.27)" d="M2.5,0A2.5,2.5 0 1,1 0,-2.5A2.5,2.5 0 0,1 2.5,0Z" style="opacity: 1; stroke-width: 0px; fill: rgb(179, 59, 66); fill-opacity: 1;"/><path class="point" transform="translate(431.38,113.3)" d="M2.5,0A2.5,2.5 0 1,1 0,-2.5A2.5,2.5 0 0,1 2.5,0Z" style="opacity: 1; stroke-width: 0px; fill: rgb(179, 59, 66); fill-opacity: 1;"/><path class="point" transform="translate(440.6,112.17)" d="M2.5,0A2.5,2.5 0 1,1 0,-2.5A2.5,2.5 0 0,1 2.5,0Z" style="opacity: 1; stroke-width: 0px; fill: rgb(179, 59, 66); fill-opacity: 1;"/><path class="point" transform="translate(445.26,110.65)" d="M2.5,0A2.5,2.5 0 1,1 0,-2.5A2.5,2.5 0 0,1 2.5,0Z" style="opacity: 1; stroke-width: 0px; fill: rgb(179, 59, 66); fill-opacity: 1;"/><path class="point" transform="translate(453.37,111.78)" d="M2.5,0A2.5,2.5 0 1,1 0,-2.5A2.5,2.5 0 0,1 2.5,0Z" style="opacity: 1; stroke-width: 0px; fill: rgb(179, 59, 66); fill-opacity: 1;"/><path class="point" transform="translate(464.92,112.9)" d="M2.5,0A2.5,2.5 0 1,1 0,-2.5A2.5,2.5 0 0,1 2.5,0Z" style="opacity: 1; stroke-width: 0px; fill: rgb(179, 59, 66); fill-opacity: 1;"/><path class="point" transform="translate(473.02,114.61)" d="M2.5,0A2.5,2.5 0 1,1 0,-2.5A2.5,2.5 0 0,1 2.5,0Z" style="opacity: 1; stroke-width: 0px; fill: rgb(179, 59, 66); fill-opacity: 1;"/><path class="point" transform="translate(490.96,112.11)" d="M2.5,0A2.5,2.5 0 1,1 0,-2.5A2.5,2.5 0 0,1 2.5,0Z" style="opacity: 1; stroke-width: 0px; fill: rgb(179, 59, 66); fill-opacity: 1;"/><path class="point" transform="translate(497.24,112.93)" d="M2.5,0A2.5,2.5 0 1,1 0,-2.5A2.5,2.5 0 0,1 2.5,0Z" style="opacity: 1; stroke-width: 0px; fill: rgb(179, 59, 66); fill-opacity: 1;"/><path class="point" transform="translate(519.64,110.83)" d="M2.5,0A2.5,2.5 0 1,1 0,-2.5A2.5,2.5 0 0,1 2.5,0Z" style="opacity: 1; stroke-width: 0px; fill: rgb(179, 59, 66); fill-opacity: 1;"/></g></g><g class="trace violins" style="opacity: 1;"><path class="violin" d="M269.43,86.43L269.43,86.12Q274.35,85.97 276.81,85.87C279.27,85.77 281.73,85.64 284.19,85.5C286.65,85.36 289.11,85.19 291.57,85.02C294.03,84.85 296.5,84.66 298.96,84.47C301.42,84.28 303.88,84.09 306.34,83.87C308.8,83.65 311.26,83.44 313.72,83.16C316.18,82.88 318.65,82.59 321.1,82.18C323.57,81.76 326.04,81.3 328.48,80.66C330.96,80.02 333.43,79.26 335.86,78.33C338.35,77.38 340.81,76.24 343.24,75C345.73,73.73 348.18,72.26 350.62,70.79C353.1,69.29 355.54,67.64 358.01,66.09C360.47,64.55 362.9,62.93 365.39,61.53C367.82,60.16 370.27,58.82 372.77,57.77C375.19,56.75 377.66,55.87 380.15,55.3C382.58,54.74 385.07,54.42 387.53,54.34C389.99,54.26 392.46,54.46 394.91,54.79C397.38,55.12 399.84,55.71 402.29,56.34C404.76,56.97 407.22,57.79 409.67,58.58C412.14,59.38 414.6,60.28 417.06,61.12C419.52,61.96 421.97,62.83 424.44,63.63C426.89,64.43 429.35,65.2 431.82,65.91C434.27,66.61 436.73,67.26 439.2,67.86C441.65,68.46 444.12,68.99 446.58,69.5C449.04,70.01 451.5,70.45 453.96,70.9C456.42,71.35 458.88,71.77 461.34,72.21C463.8,72.65 466.27,73.08 468.73,73.56C471.19,74.04 473.65,74.54 476.11,75.07C478.57,75.6 481.03,76.17 483.49,76.76C485.95,77.35 488.41,77.98 490.87,78.59C493.33,79.2 495.79,79.84 498.25,80.43C500.71,81.02 503.17,81.61 505.63,82.14C508.09,82.66 510.55,83.16 513.01,83.58C515.47,84 517.93,84.37 520.39,84.68C522.85,84.99 525.32,85.24 527.78,85.45Q530.24,85.66 535.16,85.93L535.16,86.43" style="vector-effect: non-scaling-stroke; stroke-width: 2px; stroke: rgb(197, 53, 52); stroke-opacity: 1; fill: rgb(197, 53, 52); fill-opacity: 0.5;"/><g class="points"><path class="point" transform="translate(314.94,78.36)" d="M2.5,0A2.5,2.5 0 1,1 0,-2.5A2.5,2.5 0 0,1 2.5,0Z" style="opacity: 1; stroke-width: 0px; fill: rgb(197, 53, 52); fill-opacity: 1;"/><path class="point" transform="translate(360.14,82.2)" d="M2.5,0A2.5,2.5 0 1,1 0,-2.5A2.5,2.5 0 0,1 2.5,0Z" style="opacity: 1; stroke-width: 0px; fill: rgb(197, 53, 52); fill-opacity: 1;"/><path class="point" transform="translate(366.83,77.3)" d="M2.5,0A2.5,2.5 0 1,1 0,-2.5A2.5,2.5 0 0,1 2.5,0Z" style="opacity: 1; stroke-width: 0px; fill: rgb(197, 53, 52); fill-opacity: 1;"/><path class="point" transform="translate(367.23,83.06)" d="M2.5,0A2.5,2.5 0 1,1 0,-2.5A2.5,2.5 0 0,1 2.5,0Z" style="opacity: 1; stroke-width: 0px; fill: rgb(197, 53, 52); fill-opacity: 1;"/><path class="point" transform="translate(367.43,80.95)" d="M2.5,0A2.5,2.5 0 1,1 0,-2.5A2.5,2.5 0 0,1 2.5,0Z" style="opacity: 1; stroke-width: 0px; fill: rgb(197, 53, 52); fill-opacity: 1;"/><path class="point" transform="translate(370.68,77.93)" d="M2.5,0A2.5,2.5 0 1,1 0,-2.5A2.5,2.5 0 0,1 2.5,0Z" style="opacity: 1; stroke-width: 0px; fill: rgb(197, 53, 52); fill-opacity: 1;"/><path class="point" transform="translate(372.3,80.23)" d="M2.5,0A2.5,2.5 0 1,1 0,-2.5A2.5,2.5 0 0,1 2.5,0Z" style="opacity: 1; stroke-width: 0px; fill: rgb(197, 53, 52); fill-opacity: 1;"/><path class="point" transform="translate(379.39,78.15)" d="M2.5,0A2.5,2.5 0 1,1 0,-2.5A2.5,2.5 0 0,1 2.5,0Z" style="opacity: 1; stroke-width: 0px; fill: rgb(197, 53, 52); fill-opacity: 1;"/><path class="point" transform="translate(384.46,81.92)" d="M2.5,0A2.5,2.5 0 1,1 0,-2.5A2.5,2.5 0 0,1 2.5,0Z" style="opacity: 1; stroke-width: 0px; fill: rgb(197, 53, 52); fill-opacity: 1;"/><path class="point" transform="translate(384.97,84.36)" d="M2.5,0A2.5,2.5 0 1,1 0,-2.5A2.5,2.5 0 0,1 2.5,0Z" style="opacity: 1; stroke-width: 0px; fill: rgb(197, 53, 52); fill-opacity: 1;"/><path class="point" transform="translate(386.69,78.54)" d="M2.5,0A2.5,2.5 0 1,1 0,-2.5A2.5,2.5 0 0,1 2.5,0Z" style="opacity: 1; stroke-width: 0px; fill: rgb(197, 53, 52); fill-opacity: 1;"/><path class="point" transform="translate(392.36,81.74)" d="M2.5,0A2.5,2.5 0 1,1 0,-2.5A2.5,2.5 0 0,1 2.5,0Z" style="opacity: 1; stroke-width: 0px; fill: rgb(197, 53, 52); fill-opacity: 1;"/><path class="point" transform="translate(394.19,76.37)" d="M2.5,0A2.5,2.5 0 1,1 0,-2.5A2.5,2.5 0 0,1 2.5,0Z" style="opacity: 1; stroke-width: 0px; fill: rgb(197, 53, 52); fill-opacity: 1;"/><path class="point" transform="translate(398.95,85.16)" d="M2.5,0A2.5,2.5 0 1,1 0,-2.5A2.5,2.5 0 0,1 2.5,0Z" style="opacity: 1; stroke-width: 0px; fill: rgb(197, 53, 52); fill-opacity: 1;"/><path class="point" transform="translate(399.46,83.05)" d="M2.5,0A2.5,2.5 0 1,1 0,-2.5A2.5,2.5 0 0,1 2.5,0Z" style="opacity: 1; stroke-width: 0px; fill: rgb(197, 53, 52); fill-opacity: 1;"/><path class="point" transform="translate(407.56,75.87)" d="M2.5,0A2.5,2.5 0 1,1 0,-2.5A2.5,2.5 0 0,1 2.5,0Z" style="opacity: 1; stroke-width: 0px; fill: rgb(197, 53, 52); fill-opacity: 1;"/><path class="point" transform="translate(413.03,81.23)" d="M2.5,0A2.5,2.5 0 1,1 0,-2.5A2.5,2.5 0 0,1 2.5,0Z" style="opacity: 1; stroke-width: 0px; fill: rgb(197, 53, 52); fill-opacity: 1;"/><path class="point" transform="translate(413.44,83.62)" d="M2.5,0A2.5,2.5 0 1,1 0,-2.5A2.5,2.5 0 0,1 2.5,0Z" style="opacity: 1; stroke-width: 0px; fill: rgb(197, 53, 52); fill-opacity: 1;"/><path class="point" transform="translate(424.79,81.45)" d="M2.5,0A2.5,2.5 0 1,1 0,-2.5A2.5,2.5 0 0,1 2.5,0Z" style="opacity: 1; stroke-width: 0px; fill: rgb(197, 53, 52); fill-opacity: 1;"/><path class="point" transform="translate(426.01,80.1)" d="M2.5,0A2.5,2.5 0 1,1 0,-2.5A2.5,2.5 0 0,1 2.5,0Z" style="opacity: 1; stroke-width: 0px; fill: rgb(197, 53, 52); fill-opacity: 1;"/><path class="point" transform="translate(438.17,78.26)" d="M2.5,0A2.5,2.5 0 1,1 0,-2.5A2.5,2.5 0 0,1 2.5,0Z" style="opacity: 1; stroke-width: 0px; fill: rgb(197, 53, 52); fill-opacity: 1;"/><path class="point" transform="translate(440.19,79.59)" d="M2.5,0A2.5,2.5 0 1,1 0,-2.5A2.5,2.5 0 0,1 2.5,0Z" style="opacity: 1; stroke-width: 0px; fill: rgb(197, 53, 52); fill-opacity: 1;"/><path class="point" transform="translate(458.03,81.04)" d="M2.5,0A2.5,2.5 0 1,1 0,-2.5A2.5,2.5 0 0,1 2.5,0Z" style="opacity: 1; stroke-width: 0px; fill: rgb(197, 53, 52); fill-opacity: 1;"/><path class="point" transform="translate(458.43,83.13)" d="M2.5,0A2.5,2.5 0 1,1 0,-2.5A2.5,2.5 0 0,1 2.5,0Z" style="opacity: 1; stroke-width: 0px; fill: rgb(197, 53, 52); fill-opacity: 1;"/><path class="point" transform="translate(468.16,80.02)" d="M2.5,0A2.5,2.5 0 1,1 0,-2.5A2.5,2.5 0 0,1 2.5,0Z" style="opacity: 1; stroke-width: 0px; fill: rgb(197, 53, 52); fill-opacity: 1;"/><path class="point" transform="translate(482.04,81.07)" d="M2.5,0A2.5,2.5 0 1,1 0,-2.5A2.5,2.5 0 0,1 2.5,0Z" style="opacity: 1; stroke-width: 0px; fill: rgb(197, 53, 52); fill-opacity: 1;"/><path class="point" transform="translate(489.64,78.44)" d="M2.5,0A2.5,2.5 0 1,1 0,-2.5A2.5,2.5 0 0,1 2.5,0Z" style="opacity: 1; stroke-width: 0px; fill: rgb(197, 53, 52); fill-opacity: 1;"/></g></g><g class="trace violins" style="opacity: 1;"><path class="violin" d="M268.46,54.34L268.46,53.68Q276.21,53.27 280.08,52.92C283.96,52.56 287.83,52.15 291.69,51.55C295.57,50.95 299.46,50.23 303.31,49.32C307.2,48.4 311.08,47.3 314.93,46.04C318.83,44.77 322.69,43.27 326.54,41.71C330.44,40.13 334.29,38.32 338.16,36.59C342.04,34.85 345.88,32.96 349.77,31.3C353.62,29.65 357.48,27.97 361.39,26.65C365.23,25.36 369.1,24.17 373,23.44C376.84,22.72 380.74,22.29 384.62,22.25C388.49,22.21 392.39,22.58 396.24,23.18C400.13,23.78 404,24.81 407.85,25.86C411.74,26.92 415.6,28.3 419.47,29.54C423.34,30.79 427.2,32.17 431.08,33.33C434.94,34.49 438.81,35.61 442.7,36.51C446.55,37.4 450.43,38.12 454.31,38.69C458.17,39.26 462.05,39.61 465.93,39.92C469.8,40.23 473.68,40.36 477.55,40.55C481.42,40.73 485.29,40.83 489.16,41.03C493.03,41.23 496.91,41.45 500.78,41.77C504.65,42.09 508.52,42.49 512.39,42.94C516.27,43.4 520.14,43.95 524.01,44.5C527.89,45.05 531.76,45.67 535.63,46.24C539.5,46.81 543.37,47.39 547.24,47.9C551.11,48.41 554.98,48.88 558.86,49.28C562.73,49.68 566.6,50.01 570.47,50.3C574.34,50.59 578.22,50.81 582.09,51.03C585.96,51.24 589.83,51.41 593.7,51.59C597.57,51.77 601.45,51.92 605.32,52.09C609.19,52.25 613.07,52.42 616.94,52.58C620.81,52.74 624.68,52.92 628.55,53.07C632.42,53.22 636.3,53.37 640.17,53.5C644.04,53.63 647.91,53.74 651.78,53.83Q655.65,53.93 663.4,54.07L663.4,54.34" style="vector-effect: non-scaling-stroke; stroke-width: 2px; stroke: rgb(215, 48, 39); stroke-opacity: 1; fill: rgb(215, 48, 39); fill-opacity: 0.5;"/><g class="points"><path class="point" transform="translate(338.86,45.43)" d="M2.5,0A2.5,2.5 0 1,1 0,-2.5A2.5,2.5 0 0,1 2.5,0Z" style="opacity: 1; stroke-width: 0px; fill: rgb(215, 48, 39); fill-opacity: 1;"/><path class="point" transform="translate(354.67,51.24)" d="M2.5,0A2.5,2.5 0 1,1 0,-2.5A2.5,2.5 0 0,1 2.5,0Z" style="opacity: 1; stroke-width: 0px; fill: rgb(215, 48, 39); fill-opacity: 1;"/><path class="point" transform="translate(361.56,43.87)" d="M2.5,0A2.5,2.5 0 1,1 0,-2.5A2.5,2.5 0 0,1 2.5,0Z" style="opacity: 1; stroke-width: 0px; fill: rgb(215, 48, 39); fill-opacity: 1;"/><path class="point" transform="translate(362.57,52.49)" d="M2.5,0A2.5,2.5 0 1,1 0,-2.5A2.5,2.5 0 0,1 2.5,0Z" style="opacity: 1; stroke-width: 0px; fill: rgb(215, 48, 39); fill-opacity: 1;"/><path class="point" transform="translate(363.99,49.25)" d="M2.5,0A2.5,2.5 0 1,1 0,-2.5A2.5,2.5 0 0,1 2.5,0Z" style="opacity: 1; stroke-width: 0px; fill: rgb(215, 48, 39); fill-opacity: 1;"/><path class="point" transform="translate(370.27,44.97)" d="M2.5,0A2.5,2.5 0 1,1 0,-2.5A2.5,2.5 0 0,1 2.5,0Z" style="opacity: 1; stroke-width: 0px; fill: rgb(215, 48, 39); fill-opacity: 1;"/><path class="point" transform="translate(371.08,48.15)" d="M2.5,0A2.5,2.5 0 1,1 0,-2.5A2.5,2.5 0 0,1 2.5,0Z" style="opacity: 1; stroke-width: 0px; fill: rgb(215, 48, 39); fill-opacity: 1;"/><path class="point" transform="translate(376.15,46.06)" d="M2.5,0A2.5,2.5 0 1,1 0,-2.5A2.5,2.5 0 0,1 2.5,0Z" style="opacity: 1; stroke-width: 0px; fill: rgb(215, 48, 39); fill-opacity: 1;"/><path class="point" transform="translate(378.78,49.83)" d="M2.5,0A2.5,2.5 0 1,1 0,-2.5A2.5,2.5 0 0,1 2.5,0Z" style="opacity: 1; stroke-width: 0px; fill: rgb(215, 48, 39); fill-opacity: 1;"/><path class="point" transform="translate(384.05,52.36)" d="M2.5,0A2.5,2.5 0 1,1 0,-2.5A2.5,2.5 0 0,1 2.5,0Z" style="opacity: 1; stroke-width: 0px; fill: rgb(215, 48, 39); fill-opacity: 1;"/><path class="point" transform="translate(384.86,46.23)" d="M2.5,0A2.5,2.5 0 1,1 0,-2.5A2.5,2.5 0 0,1 2.5,0Z" style="opacity: 1; stroke-width: 0px; fill: rgb(215, 48, 39); fill-opacity: 1;"/><path class="point" transform="translate(392.16,49.94)" d="M2.5,0A2.5,2.5 0 1,1 0,-2.5A2.5,2.5 0 0,1 2.5,0Z" style="opacity: 1; stroke-width: 0px; fill: rgb(215, 48, 39); fill-opacity: 1;"/><path class="point" transform="translate(396.82,43.9)" d="M2.5,0A2.5,2.5 0 1,1 0,-2.5A2.5,2.5 0 0,1 2.5,0Z" style="opacity: 1; stroke-width: 0px; fill: rgb(215, 48, 39); fill-opacity: 1;"/><path class="point" transform="translate(403.41,52.87)" d="M2.5,0A2.5,2.5 0 1,1 0,-2.5A2.5,2.5 0 0,1 2.5,0Z" style="opacity: 1; stroke-width: 0px; fill: rgb(215, 48, 39); fill-opacity: 1;"/><path class="point" transform="translate(403.61,50.45)" d="M2.5,0A2.5,2.5 0 1,1 0,-2.5A2.5,2.5 0 0,1 2.5,0Z" style="opacity: 1; stroke-width: 0px; fill: rgb(215, 48, 39); fill-opacity: 1;"/><path class="point" transform="translate(406.35,44.52)" d="M2.5,0A2.5,2.5 0 1,1 0,-2.5A2.5,2.5 0 0,1 2.5,0Z" style="opacity: 1; stroke-width: 0px; fill: rgb(215, 48, 39); fill-opacity: 1;"/><path class="point" transform="translate(409.79,48.91)" d="M2.5,0A2.5,2.5 0 1,1 0,-2.5A2.5,2.5 0 0,1 2.5,0Z" style="opacity: 1; stroke-width: 0px; fill: rgb(215, 48, 39); fill-opacity: 1;"/><path class="point" transform="translate(412.22,51.36)" d="M2.5,0A2.5,2.5 0 1,1 0,-2.5A2.5,2.5 0 0,1 2.5,0Z" style="opacity: 1; stroke-width: 0px; fill: rgb(215, 48, 39); fill-opacity: 1;"/><path class="point" transform="translate(434.92,49.16)" d="M2.5,0A2.5,2.5 0 1,1 0,-2.5A2.5,2.5 0 0,1 2.5,0Z" style="opacity: 1; stroke-width: 0px; fill: rgb(215, 48, 39); fill-opacity: 1;"/><path class="point" transform="translate(460.46,48)" d="M2.5,0A2.5,2.5 0 1,1 0,-2.5A2.5,2.5 0 0,1 2.5,0Z" style="opacity: 1; stroke-width: 0px; fill: rgb(215, 48, 39); fill-opacity: 1;"/><path class="point" transform="translate(482.95,46.39)" d="M2.5,0A2.5,2.5 0 1,1 0,-2.5A2.5,2.5 0 0,1 2.5,0Z" style="opacity: 1; stroke-width: 0px; fill: rgb(215, 48, 39); fill-opacity: 1;"/><path class="point" transform="translate(485.39,47.61)" d="M2.5,0A2.5,2.5 0 1,1 0,-2.5A2.5,2.5 0 0,1 2.5,0Z" style="opacity: 1; stroke-width: 0px; fill: rgb(215, 48, 39); fill-opacity: 1;"/><path class="point" transform="translate(487.51,48.68)" d="M2.5,0A2.5,2.5 0 1,1 0,-2.5A2.5,2.5 0 0,1 2.5,0Z" style="opacity: 1; stroke-width: 0px; fill: rgb(215, 48, 39); fill-opacity: 1;"/><path class="point" transform="translate(507.27,50.19)" d="M2.5,0A2.5,2.5 0 1,1 0,-2.5A2.5,2.5 0 0,1 2.5,0Z" style="opacity: 1; stroke-width: 0px; fill: rgb(215, 48, 39); fill-opacity: 1;"/><path class="point" transform="translate(513.76,47.93)" d="M2.5,0A2.5,2.5 0 1,1 0,-2.5A2.5,2.5 0 0,1 2.5,0Z" style="opacity: 1; stroke-width: 0px; fill: rgb(215, 48, 39); fill-opacity: 1;"/><path class="point" transform="translate(531.59,48.75)" d="M2.5,0A2.5,2.5 0 1,1 0,-2.5A2.5,2.5 0 0,1 2.5,0Z" style="opacity: 1; stroke-width: 0px; fill: rgb(215, 48, 39); fill-opacity: 1;"/><path class="point" transform="translate(593,46.71)" d="M2.5,0A2.5,2.5 0 1,1 0,-2.5A2.5,2.5 0 0,1 2.5,0Z" style="opacity: 1; stroke-width: 0px; fill: rgb(215, 48, 39); fill-opacity: 1;"/></g></g></g></g><g class="overplot"/><path class="xlines-above crisp" d="M111,445.5H720" style="fill: none; stroke-width: 1px; stroke: rgb(255, 255, 255); stroke-opacity: 1;"/><path class="ylines-above crisp" d="M111.5,50V445" style="fill: none; stroke-width: 1px; stroke: rgb(255, 255, 255); stroke-opacity: 1;"/><g class="overlines-above"/><g class="xaxislayer-above"><g class="xtick"><text text-anchor="middle" x="0" y="460.4" transform="translate(152.53,0)" style="font-family: 'Open Sans', verdana, arial, sans-serif; font-size: 12px; fill: rgb(42, 63, 95); fill-opacity: 1; white-space: pre;">15</text></g><g class="xtick"><text text-anchor="middle" x="0" y="460.4" transform="translate(253.87,0)" style="font-family: 'Open Sans', verdana, arial, sans-serif; font-size: 12px; fill: rgb(42, 63, 95); fill-opacity: 1; white-space: pre;">10</text></g><g class="xtick"><text text-anchor="middle" x="0" y="460.4" transform="translate(355.2,0)" style="font-family: 'Open Sans', verdana, arial, sans-serif; font-size: 12px; fill: rgb(42, 63, 95); fill-opacity: 1; white-space: pre;">5</text></g><g class="xtick"><text text-anchor="middle" x="0" y="460.4" transform="translate(456.53,0)" style="font-family: 'Open Sans', verdana, arial, sans-serif; font-size: 12px; fill: rgb(42, 63, 95); fill-opacity: 1; white-space: pre;">0</text></g><g class="xtick"><text text-anchor="middle" x="0" y="460.4" transform="translate(557.87,0)" style="font-family: 'Open Sans', verdana, arial, sans-serif; font-size: 12px; fill: rgb(42, 63, 95); fill-opacity: 1; white-space: pre;">5</text></g><g class="xtick"><text text-anchor="middle" x="0" y="460.4" transform="translate(659.2,0)" style="font-family: 'Open Sans', verdana, arial, sans-serif; font-size: 12px; fill: rgb(42, 63, 95); fill-opacity: 1; white-space: pre;">10</text></g></g><g class="yaxislayer-above"><g class="ytick"><text text-anchor="end" x="108.6" y="4.199999999999999" transform="translate(0,425.25)" style="font-family: 'Open Sans', verdana, arial, sans-serif; font-size: 12px; fill: rgb(42, 63, 95); fill-opacity: 1; white-space: pre;">Sample 4-1_B2</text></g><g class="ytick"><text text-anchor="end" x="108.6" y="4.199999999999999" transform="translate(0,393.16)" style="font-family: 'Open Sans', verdana, arial, sans-serif; font-size: 12px; fill: rgb(42, 63, 95); fill-opacity: 1; white-space: pre;">Sample 11-1_A3</text></g><g class="ytick"><text text-anchor="end" x="108.6" y="4.199999999999999" transform="translate(0,361.07)" style="font-family: 'Open Sans', verdana, arial, sans-serif; font-size: 12px; fill: rgb(42, 63, 95); fill-opacity: 1; white-space: pre;">Sample 4-2_B2</text></g><g class="ytick"><text text-anchor="end" x="108.6" y="4.199999999999999" transform="translate(0,328.98)" style="font-family: 'Open Sans', verdana, arial, sans-serif; font-size: 12px; fill: rgb(42, 63, 95); fill-opacity: 1; white-space: pre;">Sample 80-1_H3</text></g><g class="ytick"><text text-anchor="end" x="108.6" y="4.199999999999999" transform="translate(0,296.89)" style="font-family: 'Open Sans', verdana, arial, sans-serif; font-size: 12px; fill: rgb(42, 63, 95); fill-opacity: 1; white-space: pre;">Sample 131-1_F4</text></g><g class="ytick"><text text-anchor="end" x="108.6" y="4.199999999999999" transform="translate(0,264.8)" style="font-family: 'Open Sans', verdana, arial, sans-serif; font-size: 12px; fill: rgb(42, 63, 95); fill-opacity: 1; white-space: pre;">Sample 69-1_F3</text></g><g class="ytick"><text text-anchor="end" x="108.6" y="4.199999999999999" transform="translate(0,232.7)" style="font-family: 'Open Sans', verdana, arial, sans-serif; font-size: 12px; fill: rgb(42, 63, 95); fill-opacity: 1; white-space: pre;">Sample 134-2_A5</text></g><g class="ytick"><text text-anchor="end" x="108.6" y="4.199999999999999" transform="translate(0,200.61)" style="font-family: 'Open Sans', verdana, arial, sans-serif; font-size: 12px; fill: rgb(42, 63, 95); fill-opacity: 1; white-space: pre;">Sample 79-2_G3</text></g><g class="ytick"><text text-anchor="end" x="108.6" y="4.199999999999999" transform="translate(0,168.51999999999998)" style="font-family: 'Open Sans', verdana, arial, sans-serif; font-size: 12px; fill: rgb(42, 63, 95); fill-opacity: 1; white-space: pre;">Sample 134-1_H4</text></g><g class="ytick"><text text-anchor="end" x="108.6" y="4.199999999999999" transform="translate(0,136.43)" style="font-family: 'Open Sans', verdana, arial, sans-serif; font-size: 12px; fill: rgb(42, 63, 95); fill-opacity: 1; white-space: pre;">Sample 7-1_E2</text></g><g class="ytick"><text text-anchor="end" x="108.6" y="4.199999999999999" transform="translate(0,104.34)" style="font-family: 'Open Sans', verdana, arial, sans-serif; font-size: 12px; fill: rgb(42, 63, 95); fill-opacity: 1; white-space: pre;">Sample 117-2_C4</text></g></g><g class="overaxes-above"/></g></g><g class="polarlayer"/><g class="ternarylayer"/><g class="geolayer"/><g class="funnelarealayer"/><g class="pielayer"/><g class="treemaplayer"/><g class="sunburstlayer"/><g class="glimages"/><defs id="topdefs-51561d"><g class="clips"/></defs><g class="layer-above"><g class="imagelayer"/><g class="shapelayer"/></g><g class="infolayer"><g class="g-gtitle"/><g class="g-xtitle"><text class="xtitle" x="416" y="488.20625" text-anchor="middle" style="font-family: 'Open Sans', verdana, arial, sans-serif; font-size: 14px; fill: rgb(42, 63, 95); opacity: 1; font-weight: normal; white-space: pre;">CpG median log likelihood ratio</text></g><g class="g-ytitle"/><g class="annotation" data-index="0" style="opacity: 1;"><g class="annotation-text-g" transform="rotate(0,456.53,35.29999999999998)"><g class="cursor-pointer" transform="translate(425, 26)"><rect class="bg" x="0.5" y="0.5" width="63" height="17" style="stroke-width: 1px; stroke: rgb(0, 0, 0); stroke-opacity: 0; fill: rgb(0, 0, 0); fill-opacity: 0;"/><text class="annotation-text" text-anchor="middle" x="32.03125" y="13" style="font-family: 'Open Sans', verdana, arial, sans-serif; font-size: 12px; fill: rgb(100, 100, 100); fill-opacity: 1; white-space: pre;">Ambiguous</text></g></g></g><g class="annotation" data-index="1" style="opacity: 1;"><g class="annotation-text-g" transform="rotate(0,274.13,35.29999999999998)"><g class="cursor-pointer" transform="translate(235, 26)"><rect class="bg" x="0.5" y="0.5" width="77" height="17" style="stroke-width: 1px; stroke: rgb(0, 0, 0); stroke-opacity: 0; fill: rgb(0, 0, 0); fill-opacity: 0;"/><text class="annotation-text" text-anchor="middle" x="39.03125" y="13" style="font-family: 'Open Sans', verdana, arial, sans-serif; font-size: 12px; fill: rgb(33, 102, 172); fill-opacity: 1; white-space: pre;">Unmethylated</text></g></g></g><g class="annotation" data-index="2" style="opacity: 1;"><g class="annotation-text-g" transform="rotate(0,598.4,35.29999999999998)"><g class="cursor-pointer" transform="translate(567, 26)"><rect class="bg" x="0.5" y="0.5" width="62" height="17" style="stroke-width: 1px; stroke: rgb(0, 0, 0); stroke-opacity: 0; fill: rgb(0, 0, 0); fill-opacity: 0;"/><text class="annotation-text" text-anchor="middle" x="31.359375" y="13" style="font-family: 'Open Sans', verdana, arial, sans-serif; font-size: 12px; fill: rgb(215, 48, 39); fill-opacity: 1; white-space: pre;">Methylated</text></g></g></g></g></svg>