<svg class="main-svg" xmlns="http://www.w3.org/2000/svg" xmlns:xlink="http://www.w3.org/1999/xlink" width="800" height="500" style="" viewBox="0 0 800 500"><rect x="0" y="0" width="800" height="500" style="fill: rgb(255, 255, 255); fill-opacity: 1;"/><defs id="defs-8a59c0"><g class="clips"><clipPath id="clip8a59c0xyplot" class="plotclip"><rect width="608" height="395"/></clipPath><clipPath class="axesclip" id="clip8a59c0x"><rect x="112" y="0" width="608" height="500"/></clipPath><clipPath class="axesclip" id="clip8a59c0y"><rect x="0" y="50" width="800" height="395"/></clipPath><clipPath class="axesclip" id="clip8a59c0xy"><rect x="112" y="50" width="608" height="395"/></clipPath></g><g class="gradients"/></defs><g class="bglayer"><rect class="bg" x="112" y="50" width="608" height="395" style="fill: rgb(0, 0, 0); fill-opacity: 0; stroke-width: 0;"/></g><g class="layer-below"><g class="imagelayer"/><g class="shapelayer"><path data-index="0" fill-rule="evenodd" d="M425.21,445H462.06V50H425.21Z" clip-path="url('#clip8a59c0x')" style="opacity: 0.25; stroke: rgb(0, 0, 0); stroke-opacity: 0; fill: rgb(100, 100, 100); fill-opacity: 1; stroke-width: 0px;"/></g></g><g class="cartesianlayer"><g class="subplot xy"><g class="layer-subplot"><g class="shapelayer"/><g class="imagelayer"/></g><g class="gridlayer"><g class="x"/><g class="y"><path class="ygrid crisp" transform="translate(0,425.25)" d="M112,0h608" style="stroke: rgb(211, 211, 211); stroke-opacity: 1; stroke-width: 1px;"/><path class="ygrid crisp" transform="translate(0,395.83)" d="M112,0h608" style="stroke: rgb(211, 211, 211); stroke-opacity: 1; stroke-width: 1px;"/><path class="ygrid crisp" transform="translate(0,366.42)" d="M112,0h608" style="stroke: rgb(211, 211, 211); stroke-opacity: 1; stroke-width: 1px;"/><path class="ygrid crisp" transform="translate(0,337)" d="M112,0h608" style="stroke: rgb(211, 211, 211); stroke-opacity: 1; stroke-width: 1px;"/><path class="ygrid crisp" transform="translate(0,307.58)" d="M112,0h608" style="stroke: rgb(211, 211, 211); stroke-opacity: 1; stroke-width: 1px;"/><path class="ygrid crisp" transform="translate(0,278.16999999999996)" d="M112,0h608" style="stroke: rgb(211, 211, 211); stroke-opacity: 1; stroke-width: 1px;"/><path class="ygrid crisp" transform="translate(0,248.75)" d="M112,0h608" style="stroke: rgb(211, 211, 211); stroke-opacity: 1; stroke-width: 1px;"/><path class="ygrid crisp" transform="translate(0,219.33)" d="M112,0h608" style="stroke: rgb(211, 211, 211); stroke-opacity: 1; stroke-width: 1px;"/><path class="ygrid crisp" transform="translate(0,189.92)" d="M112,0h608" style="stroke: rgb(211, 211, 211); stroke-opacity: 1; stroke-width: 1px;"/><path class="ygrid crisp" transform="translate(0,160.5)" d="M112,0h608" style="stroke: rgb(211, 211, 211); stroke-opacity: 1; stroke-width: 1px;"/><path class="ygrid crisp" transform="translate(0,131.07999999999998)" d="M112,0h608" style="stroke: rgb(211, 211, 211); stroke-opacity: 1; stroke-width: 1px;"/><path class="ygrid crisp" transform="translate(0,101.67)" d="M112,0h608" style="stroke: rgb(211, 211, 211); stroke-opacity: 1; stroke-width: 1px;"/></g></g><g class="zerolinelayer"/><path class="xlines-below"/><path class="ylines-below"/><g class="overlines-below"/><g class="xaxislayer-below"/><g class="yaxislayer-below"/><g class="overaxes-below"/><g class="plot" transform="translate(112, 50)" clip-path="url('#clip8a59c0xyplot')"><g class="violinlayer mlayer"><g class="trace violins" style="opacity: 1;"><path class="violin" d="M91.49,375.25L91.49,374.86Q95.96,374.65 98.19,374.5C100.42,374.35 102.66,374.17 104.89,373.95C107.13,373.73 109.36,373.46 111.59,373.18C113.83,372.9 116.06,372.57 118.29,372.25C120.52,371.93 122.76,371.58 124.99,371.26C127.22,370.95 129.45,370.62 131.69,370.36C133.92,370.1 136.15,369.87 138.39,369.71C140.62,369.55 142.86,369.45 145.09,369.42C147.32,369.39 149.56,369.44 151.79,369.54C154.02,369.64 156.26,369.82 158.49,370.02C160.73,370.22 162.96,370.49 165.19,370.75C167.42,371.01 169.66,371.31 171.89,371.57C174.12,371.83 176.35,372.1 178.59,372.3C180.82,372.5 183.06,372.68 185.29,372.78C187.52,372.88 189.76,372.91 191.99,372.88C194.22,372.85 196.46,372.74 198.69,372.57C200.93,372.4 203.16,372.15 205.39,371.87C207.63,371.59 209.86,371.24 212.09,370.87C214.33,370.5 216.56,370.09 218.79,369.67C221.02,369.25 223.26,368.81 225.49,368.37C227.72,367.93 229.96,367.48 232.19,367.02C234.42,366.56 236.66,366.12 238.89,365.63C241.13,365.14 243.36,364.66 245.59,364.1C247.83,363.54 250.07,362.97 252.29,362.28C254.54,361.59 256.77,360.82 258.99,359.96C261.24,359.08 263.47,358.1 265.69,357.06C267.94,356.01 270.16,354.82 272.39,353.68C274.63,352.54 276.84,351.3 279.09,350.24C281.3,349.2 283.52,348.13 285.79,347.39C287.99,346.67 290.24,346.05 292.49,345.83C294.71,345.62 296.98,345.7 299.19,346.08C301.45,346.47 303.7,347.27 305.89,348.2C308.17,349.17 310.39,350.5 312.59,351.82C314.85,353.18 317.06,354.78 319.29,356.25C321.52,357.72 323.73,359.29 325.99,360.66C328.2,362 330.42,363.3 332.69,364.38C334.89,365.42 337.13,366.34 339.39,367.05C341.6,367.74 343.84,368.24 346.09,368.61C348.31,368.98 350.55,369.15 352.79,369.29C355.02,369.43 357.26,369.43 359.49,369.44C361.72,369.45 363.96,369.4 366.19,369.38C368.42,369.35 370.66,369.32 372.89,369.29C375.12,369.27 377.36,369.24 379.59,369.23C381.82,369.22 384.06,369.21 386.29,369.22C388.52,369.23 390.76,369.26 392.99,369.32C395.22,369.38 397.46,369.46 399.69,369.6C401.92,369.74 404.16,369.92 406.39,370.14C408.63,370.36 410.86,370.65 413.09,370.94C415.33,371.23 417.56,371.58 419.79,371.9C422.02,372.22 424.26,372.57 426.49,372.88C428.72,373.18 430.95,373.48 433.19,373.73C435.42,373.98 437.66,374.18 439.89,374.36Q442.12,374.54 446.59,374.79L446.59,375.25" style="vector-effect: non-scaling-stroke; stroke-width: 2px; stroke: rgb(33, 102, 172); stroke-opacity: 1; fill: rgb(33, 102, 172); fill-opacity: 0.5;"/><g class="points"><path class="point" transform="translate(132.19,368.43)" d="M2.5,0A2.5,2.5 0 1,1 0,-2.5A2.5,2.5 0 0,1 2.5,0Z" style="opacity: 1; stroke-width: 0px; fill: rgb(33, 102, 172); fill-opacity: 1;"/><path class="point" transform="translate(145.64,370.54)" d="M2.5,0A2.5,2.5 0 1,1 0,-2.5A2.5,2.5 0 0,1 2.5,0Z" style="opacity: 1; stroke-width: 0px; fill: rgb(33, 102, 172); fill-opacity: 1;"/><path class="point" transform="translate(162.96,367.86)" d="M2.5,0A2.5,2.5 0 1,1 0,-2.5A2.5,2.5 0 0,1 2.5,0Z" style="opacity: 1; stroke-width: 0px; fill: rgb(33, 102, 172); fill-opacity: 1;"/><path class="point" transform="translate(217.96,371.05)" d="M2.5,0A2.5,2.5 0 1,1 0,-2.5A2.5,2.5 0 0,1 2.5,0Z" style="opacity: 1; stroke-width: 0px; fill: rgb(33, 102, 172); fill-opacity: 1;"/><path class="point" transform="translate(238.96,369.87)" d="M2.5,0A2.5,2.5 0 1,1 0,-2.5A2.5,2.5 0 0,1 2.5,0Z" style="opacity: 1; stroke-width: 0px; fill: rgb(33, 102, 172); fill-opacity: 1;"/><path class="point" transform="translate(242.65,368.25)" d="M2.5,0A2.5,2.5 0 1,1 0,-2.5A2.5,2.5 0 0,1 2.5,0Z" style="opacity: 1; stroke-width: 0px; fill: rgb(33, 102, 172); fill-opacity: 1;"/><path class="point" transform="translate(259.41,369.45)" d="M2.5,0A2.5,2.5 0 1,1 0,-2.5A2.5,2.5 0 0,1 2.5,0Z" style="opacity: 1; stroke-width: 0px; fill: rgb(33, 102, 172); fill-opacity: 1;"/><path class="point" transform="translate(264.3,368.68)" d="M2.5,0A2.5,2.5 0 1,1 0,-2.5A2.5,2.5 0 0,1 2.5,0Z" style="opacity: 1; stroke-width: 0px; fill: rgb(33, 102, 172); fill-opacity: 1;"/><path class="point" transform="translate(275.81,370.35)" d="M2.5,0A2.5,2.5 0 1,1 0,-2.5A2.5,2.5 0 0,1 2.5,0Z" style="opacity: 1; stroke-width: 0px; fill: rgb(33, 102, 172); fill-opacity: 1;"/><path class="point" transform="translate(288.52,372.04)" d="M2.5,0A2.5,2.5 0 1,1 0,-2.5A2.5,2.5 0 0,1 2.5,0Z" style="opacity: 1; stroke-width: 0px; fill: rgb(33, 102, 172); fill-opacity: 1;"/><path class="point" transform="translate(288.89,368.4)" d="M2.5,0A2.5,2.5 0 1,1 0,-2.5A2.5,2.5 0 0,1 2.5,0Z" style="opacity: 1; stroke-width: 0px; fill: rgb(33, 102, 172); fill-opacity: 1;"/><path class="point" transform="translate(289.08,370.78)" d="M2.5,0A2.5,2.5 0 1,1 0,-2.5A2.5,2.5 0 0,1 2.5,0Z" style="opacity: 1; stroke-width: 0px; fill: rgb(33, 102, 172); fill-opacity: 1;"/><path class="point" transform="translate(289.63,366.72)" d="M2.5,0A2.5,2.5 0 1,1 0,-2.5A2.5,2.5 0 0,1 2.5,0Z" style="opacity: 1; stroke-width: 0px; fill: rgb(33, 102, 172); fill-opacity: 1;"/><path class="point" transform="translate(292.48,374)" d="M2.5,0A2.5,2.5 0 1,1 0,-2.5A2.5,2.5 0 0,1 2.5,0Z" style="opacity: 1; stroke-width: 0px; fill: rgb(33, 102, 172); fill-opacity: 1;"/><path class="point" transform="translate(292.58,372.77)" d="M2.5,0A2.5,2.5 0 1,1 0,-2.5A2.5,2.5 0 0,1 2.5,0Z" style="opacity: 1; stroke-width: 0px; fill: rgb(33, 102, 172); fill-opacity: 1;"/><path class="point" transform="translate(297.18,364.78)" d="M2.5,0A2.5,2.5 0 1,1 0,-2.5A2.5,2.5 0 0,1 2.5,0Z" style="opacity: 1; stroke-width: 0px; fill: rgb(33, 102, 172); fill-opacity: 1;"/><path class="point" transform="translate(298.29,370.61)" d="M2.5,0A2.5,2.5 0 1,1 0,-2.5A2.5,2.5 0 0,1 2.5,0Z" style="opacity: 1; stroke-width: 0px; fill: rgb(33, 102, 172); fill-opacity: 1;"/><path class="point" transform="translate(305.29,372.12)" d="M2.5,0A2.5,2.5 0 1,1 0,-2.5A2.5,2.5 0 0,1 2.5,0Z" style="opacity: 1; stroke-width: 0px; fill: rgb(33, 102, 172); fill-opacity: 1;"/><path class="point" transform="translate(307.41,370.37)" d="M2.5,0A2.5,2.5 0 1,1 0,-2.5A2.5,2.5 0 0,1 2.5,0Z" style="opacity: 1; stroke-width: 0px; fill: rgb(33, 102, 172); fill-opacity: 1;"/><path class="point" transform="translate(309.16,369.42)" d="M2.5,0A2.5,2.5 0 1,1 0,-2.5A2.5,2.5 0 0,1 2.5,0Z" style="opacity: 1; stroke-width: 0px; fill: rgb(33, 102, 172); fill-opacity: 1;"/><path class="point" transform="translate(315.52,368.21)" d="M2.5,0A2.5,2.5 0 1,1 0,-2.5A2.5,2.5 0 0,1 2.5,0Z" style="opacity: 1; stroke-width: 0px; fill: rgb(33, 102, 172); fill-opacity: 1;"/><path class="point" transform="translate(318,369.1)" d="M2.5,0A2.5,2.5 0 1,1 0,-2.5A2.5,2.5 0 0,1 2.5,0Z" style="opacity: 1; stroke-width: 0px; fill: rgb(33, 102, 172); fill-opacity: 1;"/><path class="point" transform="translate(358.81,370.04)" d="M2.5,0A2.5,2.5 0 1,1 0,-2.5A2.5,2.5 0 0,1 2.5,0Z" style="opacity: 1; stroke-width: 0px; fill: rgb(33, 102, 172); fill-opacity: 1;"/><path class="point" transform="translate(369.59,371.25)" d="M2.5,0A2.5,2.5 0 1,1 0,-2.5A2.5,2.5 0 0,1 2.5,0Z" style="opacity: 1; stroke-width: 0px; fill: rgb(33, 102, 172); fill-opacity: 1;"/><path class="point" transform="translate(398.7,369.37)" d="M2.5,0A2.5,2.5 0 1,1 0,-2.5A2.5,2.5 0 0,1 2.5,0Z" style="opacity: 1; stroke-width: 0px; fill: rgb(33, 102, 172); fill-opacity: 1;"/><path class="point" transform="translate(405.89,369.95)" d="M2.5,0A2.5,2.5 0 1,1 0,-2.5A2.5,2.5 0 0,1 2.5,0Z" style="opacity: 1; stroke-width: 0px; fill: rgb(33, 102, 172); fill-opacity: 1;"/></g></g><g class="trace violins" style="opacity: 1;"><path class="violin" d="M144.41,345.83L144.41,345.36Q148.88,345.1 151.11,344.89C153.34,344.68 155.57,344.43 157.8,344.1C160.03,343.77 162.27,343.38 164.49,342.92C166.73,342.45 168.96,341.9 171.19,341.31C173.43,340.72 175.65,340.04 177.88,339.38C180.11,338.72 182.33,337.99 184.57,337.36C186.79,336.73 189.02,336.09 191.26,335.6C193.48,335.11 195.72,334.67 197.96,334.42C200.18,334.17 202.42,334.06 204.65,334.07C206.88,334.08 209.11,334.27 211.34,334.5C213.58,334.73 215.81,335.12 218.04,335.44C220.27,335.77 222.5,336.18 224.73,336.45C226.96,336.72 229.19,336.98 231.42,337.06C233.65,337.14 235.88,337.13 238.11,336.96C240.35,336.79 242.59,336.46 244.81,336.01C247.05,335.56 249.29,334.94 251.5,334.24C253.75,333.53 255.97,332.69 258.19,331.8C260.44,330.9 262.67,329.9 264.89,328.89C267.13,327.88 269.35,326.78 271.58,325.73C273.81,324.67 276.03,323.57 278.27,322.56C280.49,321.56 282.71,320.54 284.96,319.69C287.17,318.86 289.41,318.05 291.66,317.5C293.87,316.96 296.11,316.54 298.35,316.42C300.57,316.3 302.83,316.41 305.04,316.75C307.29,317.1 309.54,317.76 311.74,318.53C314,319.32 316.22,320.38 318.43,321.44C320.68,322.52 322.89,323.77 325.12,324.94C327.35,326.11 329.57,327.34 331.81,328.46C334.03,329.57 336.26,330.65 338.51,331.63C340.73,332.6 342.96,333.48 345.2,334.3C347.42,335.11 349.65,335.83 351.89,336.52C354.11,337.2 356.35,337.82 358.59,338.4C360.82,338.98 363.05,339.52 365.28,340.02C367.51,340.52 369.73,340.98 371.97,341.39C374.2,341.8 376.43,342.17 378.67,342.47C380.9,342.77 383.13,343.02 385.36,343.2C387.59,343.38 389.82,343.49 392.05,343.56C394.28,343.63 396.51,343.62 398.74,343.61C400.97,343.6 403.21,343.53 405.44,343.48C407.67,343.44 409.9,343.36 412.13,343.34C414.36,343.32 416.59,343.3 418.82,343.33C421.05,343.36 423.29,343.43 425.52,343.53C427.75,343.63 429.98,343.77 432.21,343.91C434.44,344.05 436.67,344.22 438.9,344.38C441.13,344.54 443.36,344.71 445.59,344.85C447.82,344.99 450.06,345.12 452.29,345.23Q454.52,345.34 458.98,345.5L458.98,345.83" style="vector-effect: non-scaling-stroke; stroke-width: 2px; stroke: rgb(50, 97, 160); stroke-opacity: 1; fill: rgb(50, 97, 160); fill-opacity: 0.5;"/><g class="points"><path class="point" transform="translate(185.35,338.29)" d="M2.5,0A2.5,2.5 0 1,1 0,-2.5A2.5,2.5 0 0,1 2.5,0Z" style="opacity: 1; stroke-width: 0px; fill: rgb(50, 97, 160); fill-opacity: 1;"/><path class="point" transform="translate(200.09,341.88)" d="M2.5,0A2.5,2.5 0 1,1 0,-2.5A2.5,2.5 0 0,1 2.5,0Z" style="opacity: 1; stroke-width: 0px; fill: rgb(50, 97, 160); fill-opacity: 1;"/><path class="point" transform="translate(202.48,337.56)" d="M2.5,0A2.5,2.5 0 1,1 0,-2.5A2.5,2.5 0 0,1 2.5,0Z" style="opacity: 1; stroke-width: 0px; fill: rgb(50, 97, 160); fill-opacity: 1;"/><path class="point" transform="translate(207.64,342.66)" d="M2.5,0A2.5,2.5 0 1,1 0,-2.5A2.5,2.5 0 0,1 2.5,0Z" style="opacity: 1; stroke-width: 0px; fill: rgb(50, 97, 160); fill-opacity: 1;"/><path class="point" transform="translate(208.93,340.78)" d="M2.5,0A2.5,2.5 0 1,1 0,-2.5A2.5,2.5 0 0,1 2.5,0Z" style="opacity: 1; stroke-width: 0px; fill: rgb(50, 97, 160); fill-opacity: 1;"/><path class="point" transform="translate(240.71,338.12)" d="M2.5,0A2.5,2.5 0 1,1 0,-2.5A2.5,2.5 0 0,1 2.5,0Z" style="opacity: 1; stroke-width: 0px; fill: rgb(50, 97, 160); fill-opacity: 1;"/><path class="point" transform="translate(259.51,340.08)" d="M2.5,0A2.5,2.5 0 1,1 0,-2.5A2.5,2.5 0 0,1 2.5,0Z" style="opacity: 1; stroke-width: 0px; fill: rgb(50, 97, 160); fill-opacity: 1;"/><path class="point" transform="translate(268.81,338.96)" d="M2.5,0A2.5,2.5 0 1,1 0,-2.5A2.5,2.5 0 0,1 2.5,0Z" style="opacity: 1; stroke-width: 0px; fill: rgb(50, 97, 160); fill-opacity: 1;"/><path class="point" transform="translate(273.78,341.07)" d="M2.5,0A2.5,2.5 0 1,1 0,-2.5A2.5,2.5 0 0,1 2.5,0Z" style="opacity: 1; stroke-width: 0px; fill: rgb(50, 97, 160); fill-opacity: 1;"/><path class="point" transform="translate(276.36,342.51)" d="M2.5,0A2.5,2.5 0 1,1 0,-2.5A2.5,2.5 0 0,1 2.5,0Z" style="opacity: 1; stroke-width: 0px; fill: rgb(50, 97, 160); fill-opacity: 1;"/><path class="point" transform="translate(279.13,338.8)" d="M2.5,0A2.5,2.5 0 1,1 0,-2.5A2.5,2.5 0 0,1 2.5,0Z" style="opacity: 1; stroke-width: 0px; fill: rgb(50, 97, 160); fill-opacity: 1;"/><path class="point" transform="translate(290.18,341.65)" d="M2.5,0A2.5,2.5 0 1,1 0,-2.5A2.5,2.5 0 0,1 2.5,0Z" style="opacity: 1; stroke-width: 0px; fill: rgb(50, 97, 160); fill-opacity: 1;"/><path class="point" transform="translate(299.21,336.51)" d="M2.5,0A2.5,2.5 0 1,1 0,-2.5A2.5,2.5 0 0,1 2.5,0Z" style="opacity: 1; stroke-width: 0px; fill: rgb(50, 97, 160); fill-opacity: 1;"/><path class="point" transform="translate(299.21,345.56)" d="M2.5,0A2.5,2.5 0 1,1 0,-2.5A2.5,2.5 0 0,1 2.5,0Z" style="opacity: 1; stroke-width: 0px; fill: rgb(50, 97, 160); fill-opacity: 1;"/><path class="point" transform="translate(301.88,343.33)" d="M2.5,0A2.5,2.5 0 1,1 0,-2.5A2.5,2.5 0 0,1 2.5,0Z" style="opacity: 1; stroke-width: 0px; fill: rgb(50, 97, 160); fill-opacity: 1;"/><path class="point" transform="translate(302.07,335.18)" d="M2.5,0A2.5,2.5 0 1,1 0,-2.5A2.5,2.5 0 0,1 2.5,0Z" style="opacity: 1; stroke-width: 0px; fill: rgb(50, 97, 160); fill-opacity: 1;"/><path class="point" transform="translate(302.16,341.43)" d="M2.5,0A2.5,2.5 0 1,1 0,-2.5A2.5,2.5 0 0,1 2.5,0Z" style="opacity: 1; stroke-width: 0px; fill: rgb(50, 97, 160); fill-opacity: 1;"/><path class="point" transform="translate(307.41,344.41)" d="M2.5,0A2.5,2.5 0 1,1 0,-2.5A2.5,2.5 0 0,1 2.5,0Z" style="opacity: 1; stroke-width: 0px; fill: rgb(50, 97, 160); fill-opacity: 1;"/><path class="point" transform="translate(307.96,341.62)" d="M2.5,0A2.5,2.5 0 1,1 0,-2.5A2.5,2.5 0 0,1 2.5,0Z" style="opacity: 1; stroke-width: 0px; fill: rgb(50, 97, 160); fill-opacity: 1;"/><path class="point" transform="translate(309.53,340.04)" d="M2.5,0A2.5,2.5 0 1,1 0,-2.5A2.5,2.5 0 0,1 2.5,0Z" style="opacity: 1; stroke-width: 0px; fill: rgb(50, 97, 160); fill-opacity: 1;"/><path class="point" transform="translate(318.19,338.54)" d="M2.5,0A2.5,2.5 0 1,1 0,-2.5A2.5,2.5 0 0,1 2.5,0Z" style="opacity: 1; stroke-width: 0px; fill: rgb(50, 97, 160); fill-opacity: 1;"/><path class="point" transform="translate(322.98,339.62)" d="M2.5,0A2.5,2.5 0 1,1 0,-2.5A2.5,2.5 0 0,1 2.5,0Z" style="opacity: 1; stroke-width: 0px; fill: rgb(50, 97, 160); fill-opacity: 1;"/><path class="point" transform="translate(341.22,340.76)" d="M2.5,0A2.5,2.5 0 1,1 0,-2.5A2.5,2.5 0 0,1 2.5,0Z" style="opacity: 1; stroke-width: 0px; fill: rgb(50, 97, 160); fill-opacity: 1;"/><path class="point" transform="translate(343.43,342.2)" d="M2.5,0A2.5,2.5 0 1,1 0,-2.5A2.5,2.5 0 0,1 2.5,0Z" style="opacity: 1; stroke-width: 0px; fill: rgb(50, 97, 160); fill-opacity: 1;"/><path class="point" transform="translate(363.51,339.96)" d="M2.5,0A2.5,2.5 0 1,1 0,-2.5A2.5,2.5 0 0,1 2.5,0Z" style="opacity: 1; stroke-width: 0px; fill: rgb(50, 97, 160); fill-opacity: 1;"/><path class="point" transform="translate(418.05,340.65)" d="M2.5,0A2.5,2.5 0 1,1 0,-2.5A2.5,2.5 0 0,1 2.5,0Z" style="opacity: 1; stroke-width: 0px; fill: rgb(50, 97, 160); fill-opacity: 1;"/></g></g><g class="trace violins" style="opacity: 1;"><path class="violin" d="M-21.11,316.42L-21.11,316.11Q-14.2,315.96 -10.75,315.86C-7.29,315.76 -3.84,315.62 -0.38,315.49C3.08,315.36 6.53,315.2 9.99,315.06C13.45,314.91 16.9,314.75 20.36,314.62C23.82,314.49 27.27,314.37 30.73,314.29C34.19,314.21 37.64,314.16 41.1,314.16C44.55,314.16 48.01,314.2 51.46,314.27C54.92,314.34 58.37,314.47 61.83,314.59C65.29,314.72 68.74,314.88 72.2,315.02C75.66,315.17 79.11,315.32 82.57,315.46C86.03,315.59 89.48,315.72 92.94,315.83C96.4,315.93 99.85,316.02 103.31,316.09C106.77,316.16 110.22,316.21 113.68,316.25C117.13,316.29 120.59,316.3 124.04,316.31C127.5,316.32 130.95,316.31 134.41,316.28C137.87,316.25 141.32,316.21 144.78,316.12C148.24,316.03 151.7,315.94 155.15,315.75C158.61,315.56 162.07,315.35 165.52,315C168.98,314.65 172.44,314.24 175.89,313.66C179.35,313.08 182.81,312.38 186.25,311.53C189.72,310.67 193.18,309.65 196.62,308.52C200.1,307.38 203.54,306.05 206.99,304.72C210.46,303.38 213.9,301.89 217.36,300.52C220.81,299.15 224.25,297.72 227.73,296.49C231.17,295.27 234.62,294.11 238.1,293.18C241.54,292.26 245,291.51 248.47,290.91C251.91,290.32 255.37,289.95 258.83,289.6C262.28,289.26 265.74,289.07 269.2,288.84C272.66,288.61 276.11,288.42 279.57,288.2C283.03,287.98 286.48,287.72 289.94,287.52C293.4,287.32 296.85,287.06 300.31,287C303.77,286.94 307.23,286.91 310.68,287.13C314.14,287.35 317.6,287.74 321.04,288.35C324.51,288.97 327.98,289.84 331.41,290.83C334.89,291.83 338.34,293.1 341.78,294.35C345.25,295.61 348.69,297.04 352.15,298.38C355.61,299.72 359.05,301.11 362.52,302.37C365.96,303.62 369.42,304.83 372.89,305.89C376.33,306.94 379.79,307.89 383.26,308.73C386.7,309.56 390.16,310.27 393.62,310.9C397.07,311.53 400.53,312.05 403.99,312.52C407.44,312.99 410.9,313.38 414.36,313.74C417.81,314.1 421.27,314.39 424.73,314.66C428.19,314.92 431.64,315.14 435.1,315.33C438.56,315.52 442.01,315.66 445.47,315.79Q448.92,315.92 455.83,316.09L455.83,316.42" style="vector-effect: non-scaling-stroke; stroke-width: 2px; stroke: rgb(66, 92, 148); stroke-opacity: 1; fill: rgb(66, 92, 148); fill-opacity: 0.5;"/><g class="points"><path class="point" transform="translate(41.45,309.67)" d="M2.5,0A2.5,2.5 0 1,1 0,-2.5A2.5,2.5 0 0,1 2.5,0Z" style="opacity: 1; stroke-width: 0px; fill: rgb(66, 92, 148); fill-opacity: 1;"/><path class="point" transform="translate(220.91,311.68)" d="M2.5,0A2.5,2.5 0 1,1 0,-2.5A2.5,2.5 0 0,1 2.5,0Z" style="opacity: 1; stroke-width: 0px; fill: rgb(66, 92, 148); fill-opacity: 1;"/><path class="point" transform="translate(226.62,309.03)" d="M2.5,0A2.5,2.5 0 1,1 0,-2.5A2.5,2.5 0 0,1 2.5,0Z" style="opacity: 1; stroke-width: 0px; fill: rgb(66, 92, 148); fill-opacity: 1;"/><path class="point" transform="translate(238.96,312.28)" d="M2.5,0A2.5,2.5 0 1,1 0,-2.5A2.5,2.5 0 0,1 2.5,0Z" style="opacity: 1; stroke-width: 0px; fill: rgb(66, 92, 148); fill-opacity: 1;"/><path class="point" transform="translate(241.27,311.06)" d="M2.5,0A2.5,2.5 0 1,1 0,-2.5A2.5,2.5 0 0,1 2.5,0Z" style="opacity: 1; stroke-width: 0px; fill: rgb(66, 92, 148); fill-opacity: 1;"/><path class="point" transform="translate(243.94,309.37)" d="M2.5,0A2.5,2.5 0 1,1 0,-2.5A2.5,2.5 0 0,1 2.5,0Z" style="opacity: 1; stroke-width: 0px; fill: rgb(66, 92, 148); fill-opacity: 1;"/><path class="point" transform="translate(247.25,310.7)" d="M2.5,0A2.5,2.5 0 1,1 0,-2.5A2.5,2.5 0 0,1 2.5,0Z" style="opacity: 1; stroke-width: 0px; fill: rgb(66, 92, 148); fill-opacity: 1;"/><path class="point" transform="translate(247.44,309.41)" d="M2.5,0A2.5,2.5 0 1,1 0,-2.5A2.5,2.5 0 0,1 2.5,0Z" style="opacity: 1; stroke-width: 0px; fill: rgb(66, 92, 148); fill-opacity: 1;"/><path class="point" transform="translate(249.83,311.88)" d="M2.5,0A2.5,2.5 0 1,1 0,-2.5A2.5,2.5 0 0,1 2.5,0Z" style="opacity: 1; stroke-width: 0px; fill: rgb(66, 92, 148); fill-opacity: 1;"/><path class="point" transform="translate(258.49,313.64)" d="M2.5,0A2.5,2.5 0 1,1 0,-2.5A2.5,2.5 0 0,1 2.5,0Z" style="opacity: 1; stroke-width: 0px; fill: rgb(66, 92, 148); fill-opacity: 1;"/><path class="point" transform="translate(267.52,309.41)" d="M2.5,0A2.5,2.5 0 1,1 0,-2.5A2.5,2.5 0 0,1 2.5,0Z" style="opacity: 1; stroke-width: 0px; fill: rgb(66, 92, 148); fill-opacity: 1;"/><path class="point" transform="translate(275.72,311.94)" d="M2.5,0A2.5,2.5 0 1,1 0,-2.5A2.5,2.5 0 0,1 2.5,0Z" style="opacity: 1; stroke-width: 0px; fill: rgb(66, 92, 148); fill-opacity: 1;"/><path class="point" transform="translate(300.68,307.9)" d="M2.5,0A2.5,2.5 0 1,1 0,-2.5A2.5,2.5 0 0,1 2.5,0Z" style="opacity: 1; stroke-width: 0px; fill: rgb(66, 92, 148); fill-opacity: 1;"/><path class="point" transform="translate(300.87,314.58)" d="M2.5,0A2.5,2.5 0 1,1 0,-2.5A2.5,2.5 0 0,1 2.5,0Z" style="opacity: 1; stroke-width: 0px; fill: rgb(66, 92, 148); fill-opacity: 1;"/><path class="point" transform="translate(302.99,312.92)" d="M2.5,0A2.5,2.5 0 1,1 0,-2.5A2.5,2.5 0 0,1 2.5,0Z" style="opacity: 1; stroke-width: 0px; fill: rgb(66, 92, 148); fill-opacity: 1;"/><path class="point" transform="translate(306.4,306.78)" d="M2.5,0A2.5,2.5 0 1,1 0,-2.5A2.5,2.5 0 0,1 2.5,0Z" style="opacity: 1; stroke-width: 0px; fill: rgb(66, 92, 148); fill-opacity: 1;"/><path class="point" transform="translate(307.59,311.64)" d="M2.5,0A2.5,2.5 0 1,1 0,-2.5A2.5,2.5 0 0,1 2.5,0Z" style="opacity: 1; stroke-width: 0px; fill: rgb(66, 92, 148); fill-opacity: 1;"/><path class="point" transform="translate(311.74,315.58)" d="M2.5,0A2.5,2.5 0 1,1 0,-2.5A2.5,2.5 0 0,1 2.5,0Z" style="opacity: 1; stroke-width: 0px; fill: rgb(66, 92, 148); fill-opacity: 1;"/><path class="point" transform="translate(313.95,312.18)" d="M2.5,0A2.5,2.5 0 1,1 0,-2.5A2.5,2.5 0 0,1 2.5,0Z" style="opacity: 1; stroke-width: 0px; fill: rgb(66, 92, 148); fill-opacity: 1;"/><path class="point" transform="translate(323.71,310.63)" d="M2.5,0A2.5,2.5 0 1,1 0,-2.5A2.5,2.5 0 0,1 2.5,0Z" style="opacity: 1; stroke-width: 0px; fill: rgb(66, 92, 148); fill-opacity: 1;"/><path class="point" transform="translate(329.24,308.93)" d="M2.5,0A2.5,2.5 0 1,1 0,-2.5A2.5,2.5 0 0,1 2.5,0Z" style="opacity: 1; stroke-width: 0px; fill: rgb(66, 92, 148); fill-opacity: 1;"/><path class="point" transform="translate(332.37,310.15)" d="M2.5,0A2.5,2.5 0 1,1 0,-2.5A2.5,2.5 0 0,1 2.5,0Z" style="opacity: 1; stroke-width: 0px; fill: rgb(66, 92, 148); fill-opacity: 1;"/><path class="point" transform="translate(332.74,311.46)" d="M2.5,0A2.5,2.5 0 1,1 0,-2.5A2.5,2.5 0 0,1 2.5,0Z" style="opacity: 1; stroke-width: 0px; fill: rgb(66, 92, 148); fill-opacity: 1;"/><path class="point" transform="translate(345.36,313.15)" d="M2.5,0A2.5,2.5 0 1,1 0,-2.5A2.5,2.5 0 0,1 2.5,0Z" style="opacity: 1; stroke-width: 0px; fill: rgb(66, 92, 148); fill-opacity: 1;"/><path class="point" transform="translate(355.96,310.54)" d="M2.5,0A2.5,2.5 0 1,1 0,-2.5A2.5,2.5 0 0,1 2.5,0Z" style="opacity: 1; stroke-width: 0px; fill: rgb(66, 92, 148); fill-opacity: 1;"/><path class="point" transform="translate(393.27,311.39)" d="M2.5,0A2.5,2.5 0 1,1 0,-2.5A2.5,2.5 0 0,1 2.5,0Z" style="opacity: 1; stroke-width: 0px; fill: rgb(66, 92, 148); fill-opacity: 1;"/></g></g><g class="trace violins" style="opacity: 1;"><path class="violin" d="M-51.33,287L-51.33,286.71Q-44.04,286.57 -40.39,286.47C-36.74,286.37 -33.09,286.26 -29.44,286.13C-25.79,286.01 -22.15,285.86 -18.5,285.72C-14.85,285.58 -11.21,285.43 -7.56,285.31C-3.91,285.19 -0.26,285.07 3.39,285C7.04,284.93 10.68,284.89 14.33,284.89C17.98,284.89 21.62,284.92 25.27,284.99C28.92,285.06 32.57,285.18 36.22,285.3C39.87,285.42 43.51,285.56 47.16,285.7C50.81,285.84 54.45,285.99 58.1,286.12C61.75,286.25 65.39,286.37 69.04,286.46C72.69,286.56 76.34,286.63 79.99,286.69C83.64,286.75 87.28,286.8 90.93,286.82C94.58,286.84 98.22,286.85 101.87,286.84C105.52,286.83 109.17,286.81 112.82,286.76C116.47,286.71 120.11,286.65 123.76,286.55C127.41,286.45 131.05,286.32 134.7,286.15C138.35,285.98 142,285.77 145.65,285.52C149.3,285.26 152.95,284.97 156.59,284.62C160.24,284.27 163.89,283.88 167.53,283.43C171.18,282.98 174.83,282.48 178.48,281.94C182.13,281.4 185.78,280.8 189.42,280.17C193.07,279.54 196.71,278.85 200.36,278.15C204.01,277.45 207.66,276.71 211.31,275.97C214.96,275.23 218.6,274.45 222.25,273.69C225.9,272.92 229.54,272.15 233.19,271.38C236.84,270.61 240.49,269.84 244.14,269.06C247.79,268.27 251.44,267.49 255.08,266.67C258.73,265.85 262.37,264.99 266.02,264.15C269.67,263.3 273.32,262.4 276.97,261.6C280.61,260.8 284.25,259.96 287.91,259.33C291.55,258.71 295.19,258.13 298.85,257.84C302.49,257.55 306.16,257.43 309.8,257.58C313.45,257.73 317.11,258.16 320.74,258.75C324.4,259.35 328.05,260.24 331.68,261.17C335.34,262.11 338.99,263.26 342.63,264.37C346.28,265.48 349.92,266.7 353.57,267.83C357.21,268.96 360.86,270.09 364.51,271.15C368.15,272.2 371.8,273.21 375.46,274.17C379.1,275.12 382.75,276.03 386.4,276.89C390.04,277.75 393.69,278.57 397.34,279.34C400.98,280.11 404.63,280.84 408.28,281.5C411.92,282.16 415.58,282.77 419.23,283.31C422.87,283.85 426.52,284.32 430.17,284.72C433.81,285.12 437.46,285.44 441.11,285.71Q444.76,285.98 452.06,286.33L452.06,287" style="vector-effect: non-scaling-stroke; stroke-width: 2px; stroke: rgb(83, 87, 136); stroke-opacity: 1; fill: rgb(83, 87, 136); fill-opacity: 0.5;"/><g class="points"><path class="point" transform="translate(14.56,280.21)" d="M2.5,0A2.5,2.5 0 1,1 0,-2.5A2.5,2.5 0 0,1 2.5,0Z" style="opacity: 1; stroke-width: 0px; fill: rgb(83, 87, 136); fill-opacity: 1;"/><path class="point" transform="translate(185.9,282.32)" d="M2.5,0A2.5,2.5 0 1,1 0,-2.5A2.5,2.5 0 0,1 2.5,0Z" style="opacity: 1; stroke-width: 0px; fill: rgb(83, 87, 136); fill-opacity: 1;"/><path class="point" transform="translate(209.67,279.6)" d="M2.5,0A2.5,2.5 0 1,1 0,-2.5A2.5,2.5 0 0,1 2.5,0Z" style="opacity: 1; stroke-width: 0px; fill: rgb(83, 87, 136); fill-opacity: 1;"/><path class="point" transform="translate(235.65,282.87)" d="M2.5,0A2.5,2.5 0 1,1 0,-2.5A2.5,2.5 0 0,1 2.5,0Z" style="opacity: 1; stroke-width: 0px; fill: rgb(83, 87, 136); fill-opacity: 1;"/><path class="point" transform="translate(238.69,281.64)" d="M2.5,0A2.5,2.5 0 1,1 0,-2.5A2.5,2.5 0 0,1 2.5,0Z" style="opacity: 1; stroke-width: 0px; fill: rgb(83, 87, 136); fill-opacity: 1;"/><path class="point" transform="translate(238.87,279.95)" d="M2.5,0A2.5,2.5 0 1,1 0,-2.5A2.5,2.5 0 0,1 2.5,0Z" style="opacity: 1; stroke-width: 0px; fill: rgb(83, 87, 136); fill-opacity: 1;"/><path class="point" transform="translate(246.61,281.25)" d="M2.5,0A2.5,2.5 0 1,1 0,-2.5A2.5,2.5 0 0,1 2.5,0Z" style="opacity: 1; stroke-width: 0px; fill: rgb(83, 87, 136); fill-opacity: 1;"/><path class="point" transform="translate(265.12,279.99)" d="M2.5,0A2.5,2.5 0 1,1 0,-2.5A2.5,2.5 0 0,1 2.5,0Z" style="opacity: 1; stroke-width: 0px; fill: rgb(83, 87, 136); fill-opacity: 1;"/><path class="point" transform="translate(268.63,282.51)" d="M2.5,0A2.5,2.5 0 1,1 0,-2.5A2.5,2.5 0 0,1 2.5,0Z" style="opacity: 1; stroke-width: 0px; fill: rgb(83, 87, 136); fill-opacity: 1;"/><path class="point" transform="translate(287.51,284.36)" d="M2.5,0A2.5,2.5 0 1,1 0,-2.5A2.5,2.5 0 0,1 2.5,0Z" style="opacity: 1; stroke-width: 0px; fill: rgb(83, 87, 136); fill-opacity: 1;"/><path class="point" transform="translate(291.47,279.96)" d="M2.5,0A2.5,2.5 0 1,1 0,-2.5A2.5,2.5 0 0,1 2.5,0Z" style="opacity: 1; stroke-width: 0px; fill: rgb(83, 87, 136); fill-opacity: 1;"/><path class="point" transform="translate(292.39,282.61)" d="M2.5,0A2.5,2.5 0 1,1 0,-2.5A2.5,2.5 0 0,1 2.5,0Z" style="opacity: 1; stroke-width: 0px; fill: rgb(83, 87, 136); fill-opacity: 1;"/><path class="point" transform="translate(300.96,277.76)" d="M2.5,0A2.5,2.5 0 1,1 0,-2.5A2.5,2.5 0 0,1 2.5,0Z" style="opacity: 1; stroke-width: 0px; fill: rgb(83, 87, 136); fill-opacity: 1;"/><path class="point" transform="translate(307.32,286.39)" d="M2.5,0A2.5,2.5 0 1,1 0,-2.5A2.5,2.5 0 0,1 2.5,0Z" style="opacity: 1; stroke-width: 0px; fill: rgb(83, 87, 136); fill-opacity: 1;"/><path class="point" transform="translate(308.88,284.52)" d="M2.5,0A2.5,2.5 0 1,1 0,-2.5A2.5,2.5 0 0,1 2.5,0Z" style="opacity: 1; stroke-width: 0px; fill: rgb(83, 87, 136); fill-opacity: 1;"/><path class="point" transform="translate(312.01,275.93)" d="M2.5,0A2.5,2.5 0 1,1 0,-2.5A2.5,2.5 0 0,1 2.5,0Z" style="opacity: 1; stroke-width: 0px; fill: rgb(83, 87, 136); fill-opacity: 1;"/><path class="point" transform="translate(312.75,282.55)" d="M2.5,0A2.5,2.5 0 1,1 0,-2.5A2.5,2.5 0 0,1 2.5,0Z" style="opacity: 1; stroke-width: 0px; fill: rgb(83, 87, 136); fill-opacity: 1;"/><path class="point" transform="translate(314.04,285.23)" d="M2.5,0A2.5,2.5 0 1,1 0,-2.5A2.5,2.5 0 0,1 2.5,0Z" style="opacity: 1; stroke-width: 0px; fill: rgb(83, 87, 136); fill-opacity: 1;"/><path class="point" transform="translate(315.33,282.77)" d="M2.5,0A2.5,2.5 0 1,1 0,-2.5A2.5,2.5 0 0,1 2.5,0Z" style="opacity: 1; stroke-width: 0px; fill: rgb(83, 87, 136); fill-opacity: 1;"/><path class="point" transform="translate(327.12,281.21)" d="M2.5,0A2.5,2.5 0 1,1 0,-2.5A2.5,2.5 0 0,1 2.5,0Z" style="opacity: 1; stroke-width: 0px; fill: rgb(83, 87, 136); fill-opacity: 1;"/><path class="point" transform="translate(331.36,279.18)" d="M2.5,0A2.5,2.5 0 1,1 0,-2.5A2.5,2.5 0 0,1 2.5,0Z" style="opacity: 1; stroke-width: 0px; fill: rgb(83, 87, 136); fill-opacity: 1;"/><path class="point" transform="translate(334.49,280.66)" d="M2.5,0A2.5,2.5 0 1,1 0,-2.5A2.5,2.5 0 0,1 2.5,0Z" style="opacity: 1; stroke-width: 0px; fill: rgb(83, 87, 136); fill-opacity: 1;"/><path class="point" transform="translate(360.75,282.22)" d="M2.5,0A2.5,2.5 0 1,1 0,-2.5A2.5,2.5 0 0,1 2.5,0Z" style="opacity: 1; stroke-width: 0px; fill: rgb(83, 87, 136); fill-opacity: 1;"/><path class="point" transform="translate(362.13,284.19)" d="M2.5,0A2.5,2.5 0 1,1 0,-2.5A2.5,2.5 0 0,1 2.5,0Z" style="opacity: 1; stroke-width: 0px; fill: rgb(83, 87, 136); fill-opacity: 1;"/><path class="point" transform="translate(385.44,281.13)" d="M2.5,0A2.5,2.5 0 1,1 0,-2.5A2.5,2.5 0 0,1 2.5,0Z" style="opacity: 1; stroke-width: 0px; fill: rgb(83, 87, 136); fill-opacity: 1;"/><path class="point" transform="translate(386.17,282.15)" d="M2.5,0A2.5,2.5 0 1,1 0,-2.5A2.5,2.5 0 0,1 2.5,0Z" style="opacity: 1; stroke-width: 0px; fill: rgb(83, 87, 136); fill-opacity: 1;"/></g></g><g class="trace violins" style="opacity: 1;"><path class="violin" d="M97.93,257.58L97.93,257.27Q102.02,257.11 104.07,257C106.12,256.89 108.16,256.76 110.21,256.62C112.26,256.48 114.3,256.31 116.35,256.16C118.4,256.01 120.44,255.84 122.49,255.71C124.54,255.58 126.58,255.44 128.63,255.36C130.68,255.28 132.72,255.23 134.77,255.23C136.82,255.23 138.86,255.27 140.91,255.34C142.96,255.41 145,255.54 147.05,255.66C149.1,255.78 151.14,255.94 153.19,256.06C155.24,256.18 157.28,256.31 159.33,256.4C161.38,256.49 163.42,256.57 165.47,256.59C167.52,256.61 169.56,256.6 171.61,256.55C173.66,256.5 175.7,256.4 177.75,256.3C179.8,256.19 181.84,256.05 183.89,255.92C185.94,255.79 187.98,255.62 190.03,255.5C192.08,255.38 194.12,255.26 196.17,255.18C198.22,255.1 200.26,255.05 202.31,255.01C204.36,254.97 206.4,254.98 208.45,254.96C210.5,254.94 212.54,254.94 214.59,254.89C216.64,254.84 218.69,254.78 220.73,254.64C222.78,254.5 224.83,254.32 226.87,254.07C228.92,253.82 230.97,253.5 233.01,253.14C235.06,252.78 237.11,252.35 239.15,251.89C241.2,251.43 243.25,250.92 245.29,250.4C247.34,249.88 249.39,249.33 251.43,248.76C253.48,248.19 255.53,247.61 257.57,246.98C259.62,246.35 261.67,245.7 263.71,245C265.76,244.29 267.81,243.55 269.85,242.75C271.91,241.94 273.95,241.07 275.99,240.16C278.05,239.24 280.09,238.26 282.13,237.28C284.18,236.29 286.22,235.23 288.27,234.26C290.31,233.29 292.34,232.29 294.41,231.45C296.44,230.63 298.48,229.83 300.55,229.28C302.58,228.74 304.64,228.32 306.69,228.17C308.73,228.02 310.8,228.08 312.83,228.35C314.89,228.62 316.95,229.16 318.97,229.79C321.04,230.43 323.08,231.31 325.11,232.19C327.17,233.09 329.21,234.14 331.25,235.15C333.3,236.17 335.34,237.25 337.39,238.28C339.43,239.3 341.47,240.33 343.53,241.29C345.57,242.24 347.61,243.17 349.67,244C351.7,244.82 353.75,245.58 355.81,246.26C357.85,246.93 359.89,247.53 361.95,248.06C363.99,248.59 366.04,249.02 368.09,249.44C370.13,249.86 372.18,250.2 374.23,250.56C376.28,250.92 378.32,251.26 380.37,251.62C382.42,251.98 384.46,252.35 386.51,252.72C388.56,253.09 390.6,253.49 392.65,253.86C394.7,254.23 396.74,254.62 398.79,254.96C400.83,255.3 402.88,255.62 404.93,255.9C406.97,256.17 409.02,256.41 411.07,256.61Q413.11,256.8 417.21,257.07L417.21,257.58" style="vector-effect: non-scaling-stroke; stroke-width: 2px; stroke: rgb(99, 82, 124); stroke-opacity: 1; fill: rgb(99, 82, 124); fill-opacity: 0.5;"/><g class="points"><path class="point" transform="translate(134.87,250.75)" d="M2.5,0A2.5,2.5 0 1,1 0,-2.5A2.5,2.5 0 0,1 2.5,0Z" style="opacity: 1; stroke-width: 0px; fill: rgb(99, 82, 124); fill-opacity: 1;"/><path class="point" transform="translate(200.27,252.93)" d="M2.5,0A2.5,2.5 0 1,1 0,-2.5A2.5,2.5 0 0,1 2.5,0Z" style="opacity: 1; stroke-width: 0px; fill: rgb(99, 82, 124); fill-opacity: 1;"/><path class="point" transform="translate(244.12,250.1)" d="M2.5,0A2.5,2.5 0 1,1 0,-2.5A2.5,2.5 0 0,1 2.5,0Z" style="opacity: 1; stroke-width: 0px; fill: rgb(99, 82, 124); fill-opacity: 1;"/><path class="point" transform="translate(253.89,253.52)" d="M2.5,0A2.5,2.5 0 1,1 0,-2.5A2.5,2.5 0 0,1 2.5,0Z" style="opacity: 1; stroke-width: 0px; fill: rgb(99, 82, 124); fill-opacity: 1;"/><path class="point" transform="translate(268.44,252.26)" d="M2.5,0A2.5,2.5 0 1,1 0,-2.5A2.5,2.5 0 0,1 2.5,0Z" style="opacity: 1; stroke-width: 0px; fill: rgb(99, 82, 124); fill-opacity: 1;"/><path class="point" transform="translate(271.85,250.48)" d="M2.5,0A2.5,2.5 0 1,1 0,-2.5A2.5,2.5 0 0,1 2.5,0Z" style="opacity: 1; stroke-width: 0px; fill: rgb(99, 82, 124); fill-opacity: 1;"/><path class="point" transform="translate(283.36,251.81)" d="M2.5,0A2.5,2.5 0 1,1 0,-2.5A2.5,2.5 0 0,1 2.5,0Z" style="opacity: 1; stroke-width: 0px; fill: rgb(99, 82, 124); fill-opacity: 1;"/><path class="point" transform="translate(286.5,250.58)" d="M2.5,0A2.5,2.5 0 1,1 0,-2.5A2.5,2.5 0 0,1 2.5,0Z" style="opacity: 1; stroke-width: 0px; fill: rgb(99, 82, 124); fill-opacity: 1;"/><path class="point" transform="translate(292.76,253.03)" d="M2.5,0A2.5,2.5 0 1,1 0,-2.5A2.5,2.5 0 0,1 2.5,0Z" style="opacity: 1; stroke-width: 0px; fill: rgb(99, 82, 124); fill-opacity: 1;"/><path class="point" transform="translate(292.95,255.08)" d="M2.5,0A2.5,2.5 0 1,1 0,-2.5A2.5,2.5 0 0,1 2.5,0Z" style="opacity: 1; stroke-width: 0px; fill: rgb(99, 82, 124); fill-opacity: 1;"/><path class="point" transform="translate(304.74,250.42)" d="M2.5,0A2.5,2.5 0 1,1 0,-2.5A2.5,2.5 0 0,1 2.5,0Z" style="opacity: 1; stroke-width: 0px; fill: rgb(99, 82, 124); fill-opacity: 1;"/><path class="point" transform="translate(305.29,253.51)" d="M2.5,0A2.5,2.5 0 1,1 0,-2.5A2.5,2.5 0 0,1 2.5,0Z" style="opacity: 1; stroke-width: 0px; fill: rgb(99, 82, 124); fill-opacity: 1;"/><path class="point" transform="translate(305.47,248.26)" d="M2.5,0A2.5,2.5 0 1,1 0,-2.5A2.5,2.5 0 0,1 2.5,0Z" style="opacity: 1; stroke-width: 0px; fill: rgb(99, 82, 124); fill-opacity: 1;"/><path class="point" transform="translate(306.76,257.43)" d="M2.5,0A2.5,2.5 0 1,1 0,-2.5A2.5,2.5 0 0,1 2.5,0Z" style="opacity: 1; stroke-width: 0px; fill: rgb(99, 82, 124); fill-opacity: 1;"/><path class="point" transform="translate(311.74,254.64)" d="M2.5,0A2.5,2.5 0 1,1 0,-2.5A2.5,2.5 0 0,1 2.5,0Z" style="opacity: 1; stroke-width: 0px; fill: rgb(99, 82, 124); fill-opacity: 1;"/><path class="point" transform="translate(311.92,246.92)" d="M2.5,0A2.5,2.5 0 1,1 0,-2.5A2.5,2.5 0 0,1 2.5,0Z" style="opacity: 1; stroke-width: 0px; fill: rgb(99, 82, 124); fill-opacity: 1;"/><path class="point" transform="translate(313.58,253.06)" d="M2.5,0A2.5,2.5 0 1,1 0,-2.5A2.5,2.5 0 0,1 2.5,0Z" style="opacity: 1; stroke-width: 0px; fill: rgb(99, 82, 124); fill-opacity: 1;"/><path class="point" transform="translate(317.63,255.82)" d="M2.5,0A2.5,2.5 0 1,1 0,-2.5A2.5,2.5 0 0,1 2.5,0Z" style="opacity: 1; stroke-width: 0px; fill: rgb(99, 82, 124); fill-opacity: 1;"/><path class="point" transform="translate(319.29,253.22)" d="M2.5,0A2.5,2.5 0 1,1 0,-2.5A2.5,2.5 0 0,1 2.5,0Z" style="opacity: 1; stroke-width: 0px; fill: rgb(99, 82, 124); fill-opacity: 1;"/><path class="point" transform="translate(328.5,251.78)" d="M2.5,0A2.5,2.5 0 1,1 0,-2.5A2.5,2.5 0 0,1 2.5,0Z" style="opacity: 1; stroke-width: 0px; fill: rgb(99, 82, 124); fill-opacity: 1;"/><path class="point" transform="translate(336.24,250.05)" d="M2.5,0A2.5,2.5 0 1,1 0,-2.5A2.5,2.5 0 0,1 2.5,0Z" style="opacity: 1; stroke-width: 0px; fill: rgb(99, 82, 124); fill-opacity: 1;"/><path class="point" transform="translate(336.43,251.31)" d="M2.5,0A2.5,2.5 0 1,1 0,-2.5A2.5,2.5 0 0,1 2.5,0Z" style="opacity: 1; stroke-width: 0px; fill: rgb(99, 82, 124); fill-opacity: 1;"/><path class="point" transform="translate(345.27,252.67)" d="M2.5,0A2.5,2.5 0 1,1 0,-2.5A2.5,2.5 0 0,1 2.5,0Z" style="opacity: 1; stroke-width: 0px; fill: rgb(99, 82, 124); fill-opacity: 1;"/><path class="point" transform="translate(350.06,254.41)" d="M2.5,0A2.5,2.5 0 1,1 0,-2.5A2.5,2.5 0 0,1 2.5,0Z" style="opacity: 1; stroke-width: 0px; fill: rgb(99, 82, 124); fill-opacity: 1;"/><path class="point" transform="translate(375.67,251.71)" d="M2.5,0A2.5,2.5 0 1,1 0,-2.5A2.5,2.5 0 0,1 2.5,0Z" style="opacity: 1; stroke-width: 0px; fill: rgb(99, 82, 124); fill-opacity: 1;"/><path class="point" transform="translate(380.28,252.64)" d="M2.5,0A2.5,2.5 0 1,1 0,-2.5A2.5,2.5 0 0,1 2.5,0Z" style="opacity: 1; stroke-width: 0px; fill: rgb(99, 82, 124); fill-opacity: 1;"/></g></g><g class="trace violins" style="opacity: 1;"><path class="violin" d="M115.25,228.17L115.25,227.83Q119.68,227.67 121.89,227.56C124.11,227.45 126.32,227.32 128.54,227.17C130.75,227.03 132.97,226.85 135.18,226.69C137.4,226.53 139.61,226.36 141.83,226.22C144.05,226.08 146.26,225.94 148.48,225.86C150.69,225.78 152.91,225.73 155.12,225.72C157.34,225.71 159.55,225.76 161.77,225.83C163.98,225.9 166.2,226.03 168.41,226.16C170.63,226.29 172.84,226.46 175.06,226.6C177.28,226.74 179.49,226.91 181.71,227.02C183.92,227.13 186.14,227.24 188.35,227.28C190.57,227.32 192.79,227.33 195,227.26C197.22,227.19 199.43,227.08 201.64,226.87C203.86,226.66 206.08,226.38 208.29,226.02C210.51,225.65 212.73,225.2 214.94,224.68C217.16,224.16 219.37,223.53 221.58,222.9C223.8,222.26 226.01,221.54 228.23,220.86C230.45,220.18 232.66,219.46 234.88,218.81C237.09,218.16 239.3,217.53 241.52,216.95C243.73,216.37 245.95,215.86 248.17,215.33C250.38,214.81 252.6,214.34 254.81,213.8C257.03,213.26 259.25,212.73 261.46,212.11C263.68,211.48 265.9,210.8 268.11,210.06C270.33,209.31 272.54,208.47 274.75,207.63C276.97,206.79 279.18,205.87 281.4,205.03C283.61,204.19 285.81,203.33 288.04,202.59C290.24,201.86 292.46,201.16 294.69,200.6C296.89,200.05 299.11,199.58 301.34,199.27C303.55,198.96 305.77,198.77 307.98,198.75C310.2,198.73 312.42,198.85 314.63,199.14C316.86,199.43 319.07,199.92 321.27,200.52C323.51,201.13 325.72,201.94 327.92,202.81C330.16,203.69 332.36,204.75 334.57,205.79C336.79,206.84 338.99,208 341.21,209.08C343.42,210.16 345.63,211.25 347.86,212.25C350.06,213.23 352.27,214.18 354.5,215.02C356.7,215.85 358.92,216.59 361.15,217.25C363.36,217.91 365.58,218.47 367.8,218.99C370.01,219.51 372.22,219.95 374.44,220.37C376.65,220.79 378.87,221.14 381.09,221.51C383.3,221.87 385.52,222.22 387.73,222.56C389.95,222.9 392.16,223.23 394.38,223.56C396.6,223.89 398.81,224.23 401.03,224.55C403.24,224.87 405.45,225.19 407.67,225.49C409.88,225.78 412.1,226.07 414.32,226.32C416.54,226.57 418.75,226.79 420.97,226.99C423.18,227.18 425.39,227.35 427.61,227.49Q429.82,227.63 434.26,227.81L434.26,228.17" style="vector-effect: non-scaling-stroke; stroke-width: 2px; stroke: rgb(116, 77, 112); stroke-opacity: 1; fill: rgb(116, 77, 112); fill-opacity: 0.5;"/><g class="points"><path class="point" transform="translate(155.5,221.1)" d="M2.5,0A2.5,2.5 0 1,1 0,-2.5A2.5,2.5 0 0,1 2.5,0Z" style="opacity: 1; stroke-width: 0px; fill: rgb(116, 77, 112); fill-opacity: 1;"/><path class="point" transform="translate(239.15,223.85)" d="M2.5,0A2.5,2.5 0 1,1 0,-2.5A2.5,2.5 0 0,1 2.5,0Z" style="opacity: 1; stroke-width: 0px; fill: rgb(116, 77, 112); fill-opacity: 1;"/><path class="point" transform="translate(239.52,220.24)" d="M2.5,0A2.5,2.5 0 1,1 0,-2.5A2.5,2.5 0 0,1 2.5,0Z" style="opacity: 1; stroke-width: 0px; fill: rgb(116, 77, 112); fill-opacity: 1;"/><path class="point" transform="translate(248.36,224.59)" d="M2.5,0A2.5,2.5 0 1,1 0,-2.5A2.5,2.5 0 0,1 2.5,0Z" style="opacity: 1; stroke-width: 0px; fill: rgb(116, 77, 112); fill-opacity: 1;"/><path class="point" transform="translate(252.6,222.99)" d="M2.5,0A2.5,2.5 0 1,1 0,-2.5A2.5,2.5 0 0,1 2.5,0Z" style="opacity: 1; stroke-width: 0px; fill: rgb(116, 77, 112); fill-opacity: 1;"/><path class="point" transform="translate(274.71,220.7)" d="M2.5,0A2.5,2.5 0 1,1 0,-2.5A2.5,2.5 0 0,1 2.5,0Z" style="opacity: 1; stroke-width: 0px; fill: rgb(116, 77, 112); fill-opacity: 1;"/><path class="point" transform="translate(279.4,222.46)" d="M2.5,0A2.5,2.5 0 1,1 0,-2.5A2.5,2.5 0 0,1 2.5,0Z" style="opacity: 1; stroke-width: 0px; fill: rgb(116, 77, 112); fill-opacity: 1;"/><path class="point" transform="translate(280.32,221.03)" d="M2.5,0A2.5,2.5 0 1,1 0,-2.5A2.5,2.5 0 0,1 2.5,0Z" style="opacity: 1; stroke-width: 0px; fill: rgb(116, 77, 112); fill-opacity: 1;"/><path class="point" transform="translate(289.35,223.76)" d="M2.5,0A2.5,2.5 0 1,1 0,-2.5A2.5,2.5 0 0,1 2.5,0Z" style="opacity: 1; stroke-width: 0px; fill: rgb(116, 77, 112); fill-opacity: 1;"/><path class="point" transform="translate(290.55,225.77)" d="M2.5,0A2.5,2.5 0 1,1 0,-2.5A2.5,2.5 0 0,1 2.5,0Z" style="opacity: 1; stroke-width: 0px; fill: rgb(116, 77, 112); fill-opacity: 1;"/><path class="point" transform="translate(292.67,220.83)" d="M2.5,0A2.5,2.5 0 1,1 0,-2.5A2.5,2.5 0 0,1 2.5,0Z" style="opacity: 1; stroke-width: 0px; fill: rgb(116, 77, 112); fill-opacity: 1;"/><path class="point" transform="translate(293.68,224.18)" d="M2.5,0A2.5,2.5 0 1,1 0,-2.5A2.5,2.5 0 0,1 2.5,0Z" style="opacity: 1; stroke-width: 0px; fill: rgb(116, 77, 112); fill-opacity: 1;"/><path class="point" transform="translate(306.3,218.96)" d="M2.5,0A2.5,2.5 0 1,1 0,-2.5A2.5,2.5 0 0,1 2.5,0Z" style="opacity: 1; stroke-width: 0px; fill: rgb(116, 77, 112); fill-opacity: 1;"/><path class="point" transform="translate(306.76,227.99)" d="M2.5,0A2.5,2.5 0 1,1 0,-2.5A2.5,2.5 0 0,1 2.5,0Z" style="opacity: 1; stroke-width: 0px; fill: rgb(116, 77, 112); fill-opacity: 1;"/><path class="point" transform="translate(307.41,225.59)" d="M2.5,0A2.5,2.5 0 1,1 0,-2.5A2.5,2.5 0 0,1 2.5,0Z" style="opacity: 1; stroke-width: 0px; fill: rgb(116, 77, 112); fill-opacity: 1;"/><path class="point" transform="translate(316.8,217.08)" d="M2.5,0A2.5,2.5 0 1,1 0,-2.5A2.5,2.5 0 0,1 2.5,0Z" style="opacity: 1; stroke-width: 0px; fill: rgb(116, 77, 112); fill-opacity: 1;"/><path class="point" transform="translate(316.99,223.76)" d="M2.5,0A2.5,2.5 0 1,1 0,-2.5A2.5,2.5 0 0,1 2.5,0Z" style="opacity: 1; stroke-width: 0px; fill: rgb(116, 77, 112); fill-opacity: 1;"/><path class="point" transform="translate(325.46,226.87)" d="M2.5,0A2.5,2.5 0 1,1 0,-2.5A2.5,2.5 0 0,1 2.5,0Z" style="opacity: 1; stroke-width: 0px; fill: rgb(116, 77, 112); fill-opacity: 1;"/><path class="point" transform="translate(325.56,223.92)" d="M2.5,0A2.5,2.5 0 1,1 0,-2.5A2.5,2.5 0 0,1 2.5,0Z" style="opacity: 1; stroke-width: 0px; fill: rgb(116, 77, 112); fill-opacity: 1;"/><path class="point" transform="translate(328.6,222.38)" d="M2.5,0A2.5,2.5 0 1,1 0,-2.5A2.5,2.5 0 0,1 2.5,0Z" style="opacity: 1; stroke-width: 0px; fill: rgb(116, 77, 112); fill-opacity: 1;"/><path class="point" transform="translate(328.6,220.48)" d="M2.5,0A2.5,2.5 0 1,1 0,-2.5A2.5,2.5 0 0,1 2.5,0Z" style="opacity: 1; stroke-width: 0px; fill: rgb(116, 77, 112); fill-opacity: 1;"/><path class="point" transform="translate(329.7,221.86)" d="M2.5,0A2.5,2.5 0 1,1 0,-2.5A2.5,2.5 0 0,1 2.5,0Z" style="opacity: 1; stroke-width: 0px; fill: rgb(116, 77, 112); fill-opacity: 1;"/><path class="point" transform="translate(349.88,223.36)" d="M2.5,0A2.5,2.5 0 1,1 0,-2.5A2.5,2.5 0 0,1 2.5,0Z" style="opacity: 1; stroke-width: 0px; fill: rgb(116, 77, 112); fill-opacity: 1;"/><path class="point" transform="translate(357.52,225.26)" d="M2.5,0A2.5,2.5 0 1,1 0,-2.5A2.5,2.5 0 0,1 2.5,0Z" style="opacity: 1; stroke-width: 0px; fill: rgb(116, 77, 112); fill-opacity: 1;"/><path class="point" transform="translate(373.46,222.29)" d="M2.5,0A2.5,2.5 0 1,1 0,-2.5A2.5,2.5 0 0,1 2.5,0Z" style="opacity: 1; stroke-width: 0px; fill: rgb(116, 77, 112); fill-opacity: 1;"/><path class="point" transform="translate(394,223.18)" d="M2.5,0A2.5,2.5 0 1,1 0,-2.5A2.5,2.5 0 0,1 2.5,0Z" style="opacity: 1; stroke-width: 0px; fill: rgb(116, 77, 112); fill-opacity: 1;"/></g></g><g class="trace violins" style="opacity: 1;"><path class="violin" d="M120.34,198.75L120.34,198.47Q126.11,198.33 128.99,198.24C131.87,198.15 134.76,198.04 137.64,197.91C140.52,197.78 143.41,197.64 146.29,197.48C149.17,197.32 152.05,197.15 154.93,196.97C157.81,196.79 160.7,196.62 163.58,196.42C166.46,196.22 169.35,196.02 172.23,195.79C175.11,195.55 177.99,195.31 180.87,195.01C183.75,194.7 186.64,194.37 189.52,193.96C192.41,193.55 195.29,193.07 198.17,192.55C201.06,192.02 203.93,191.41 206.81,190.81C209.69,190.21 212.57,189.54 215.46,188.94C218.34,188.34 221.22,187.73 224.11,187.23C226.98,186.74 229.86,186.31 232.75,185.97C235.63,185.64 238.51,185.42 241.4,185.22C244.28,185.02 247.17,184.95 250.05,184.79C252.93,184.63 255.82,184.53 258.7,184.27C261.58,184.01 264.47,183.7 267.34,183.22C270.23,182.74 273.12,182.11 275.99,181.37C278.89,180.62 281.77,179.68 284.64,178.73C287.53,177.77 290.4,176.65 293.28,175.63C296.16,174.61 299.03,173.5 301.93,172.61C304.8,171.73 307.68,170.88 310.58,170.33C313.44,169.79 316.34,169.39 319.22,169.33C322.1,169.27 325.01,169.49 327.87,169.98C330.78,170.47 333.67,171.32 336.52,172.29C339.44,173.28 342.3,174.59 345.16,175.91C348.07,177.25 350.93,178.81 353.81,180.28C356.7,181.75 359.56,183.31 362.46,184.73C365.33,186.14 368.2,187.53 371.1,188.76C373.96,189.97 376.85,191.08 379.75,192.04C382.61,192.99 385.5,193.8 388.4,194.5C391.27,195.19 394.16,195.74 397.05,196.21C399.92,196.68 402.81,197.02 405.69,197.32C408.57,197.62 411.46,197.82 414.34,198Q417.22,198.18 422.99,198.38L422.99,198.75" style="vector-effect: non-scaling-stroke; stroke-width: 2px; stroke: rgb(132, 73, 99); stroke-opacity: 1; fill: rgb(132, 73, 99); fill-opacity: 0.5;"/><g class="points"><path class="point" transform="translate(173.56,191.48)" d="M2.5,0A2.5,2.5 0 1,1 0,-2.5A2.5,2.5 0 0,1 2.5,0Z" style="opacity: 1; stroke-width: 0px; fill: rgb(132, 73, 99); fill-opacity: 1;"/><path class="point" transform="translate(222.93,194.65)" d="M2.5,0A2.5,2.5 0 1,1 0,-2.5A2.5,2.5 0 0,1 2.5,0Z" style="opacity: 1; stroke-width: 0px; fill: rgb(132, 73, 99); fill-opacity: 1;"/><path class="point" transform="translate(225.7,190.86)" d="M2.5,0A2.5,2.5 0 1,1 0,-2.5A2.5,2.5 0 0,1 2.5,0Z" style="opacity: 1; stroke-width: 0px; fill: rgb(132, 73, 99); fill-opacity: 1;"/><path class="point" transform="translate(232.15,195.1)" d="M2.5,0A2.5,2.5 0 1,1 0,-2.5A2.5,2.5 0 0,1 2.5,0Z" style="opacity: 1; stroke-width: 0px; fill: rgb(132, 73, 99); fill-opacity: 1;"/><path class="point" transform="translate(239.42,193.54)" d="M2.5,0A2.5,2.5 0 1,1 0,-2.5A2.5,2.5 0 0,1 2.5,0Z" style="opacity: 1; stroke-width: 0px; fill: rgb(132, 73, 99); fill-opacity: 1;"/><path class="point" transform="translate(242.09,191.38)" d="M2.5,0A2.5,2.5 0 1,1 0,-2.5A2.5,2.5 0 0,1 2.5,0Z" style="opacity: 1; stroke-width: 0px; fill: rgb(132, 73, 99); fill-opacity: 1;"/><path class="point" transform="translate(249.28,193)" d="M2.5,0A2.5,2.5 0 1,1 0,-2.5A2.5,2.5 0 0,1 2.5,0Z" style="opacity: 1; stroke-width: 0px; fill: rgb(132, 73, 99); fill-opacity: 1;"/><path class="point" transform="translate(276.92,191.84)" d="M2.5,0A2.5,2.5 0 1,1 0,-2.5A2.5,2.5 0 0,1 2.5,0Z" style="opacity: 1; stroke-width: 0px; fill: rgb(132, 73, 99); fill-opacity: 1;"/><path class="point" transform="translate(286.96,193.97)" d="M2.5,0A2.5,2.5 0 1,1 0,-2.5A2.5,2.5 0 0,1 2.5,0Z" style="opacity: 1; stroke-width: 0px; fill: rgb(132, 73, 99); fill-opacity: 1;"/><path class="point" transform="translate(293.68,195.52)" d="M2.5,0A2.5,2.5 0 1,1 0,-2.5A2.5,2.5 0 0,1 2.5,0Z" style="opacity: 1; stroke-width: 0px; fill: rgb(132, 73, 99); fill-opacity: 1;"/><path class="point" transform="translate(297,191.91)" d="M2.5,0A2.5,2.5 0 1,1 0,-2.5A2.5,2.5 0 0,1 2.5,0Z" style="opacity: 1; stroke-width: 0px; fill: rgb(132, 73, 99); fill-opacity: 1;"/><path class="point" transform="translate(302.71,194.07)" d="M2.5,0A2.5,2.5 0 1,1 0,-2.5A2.5,2.5 0 0,1 2.5,0Z" style="opacity: 1; stroke-width: 0px; fill: rgb(132, 73, 99); fill-opacity: 1;"/><path class="point" transform="translate(304,189.99)" d="M2.5,0A2.5,2.5 0 1,1 0,-2.5A2.5,2.5 0 0,1 2.5,0Z" style="opacity: 1; stroke-width: 0px; fill: rgb(132, 73, 99); fill-opacity: 1;"/><path class="point" transform="translate(314.32,197.58)" d="M2.5,0A2.5,2.5 0 1,1 0,-2.5A2.5,2.5 0 0,1 2.5,0Z" style="opacity: 1; stroke-width: 0px; fill: rgb(132, 73, 99); fill-opacity: 1;"/><path class="point" transform="translate(314.69,195.91)" d="M2.5,0A2.5,2.5 0 1,1 0,-2.5A2.5,2.5 0 0,1 2.5,0Z" style="opacity: 1; stroke-width: 0px; fill: rgb(132, 73, 99); fill-opacity: 1;"/><path class="point" transform="translate(319.66,188.04)" d="M2.5,0A2.5,2.5 0 1,1 0,-2.5A2.5,2.5 0 0,1 2.5,0Z" style="opacity: 1; stroke-width: 0px; fill: rgb(132, 73, 99); fill-opacity: 1;"/><path class="point" transform="translate(322.98,194.2)" d="M2.5,0A2.5,2.5 0 1,1 0,-2.5A2.5,2.5 0 0,1 2.5,0Z" style="opacity: 1; stroke-width: 0px; fill: rgb(132, 73, 99); fill-opacity: 1;"/><path class="point" transform="translate(324.64,197.33)" d="M2.5,0A2.5,2.5 0 1,1 0,-2.5A2.5,2.5 0 0,1 2.5,0Z" style="opacity: 1; stroke-width: 0px; fill: rgb(132, 73, 99); fill-opacity: 1;"/><path class="point" transform="translate(329.06,194.81)" d="M2.5,0A2.5,2.5 0 1,1 0,-2.5A2.5,2.5 0 0,1 2.5,0Z" style="opacity: 1; stroke-width: 0px; fill: rgb(132, 73, 99); fill-opacity: 1;"/><path class="point" transform="translate(329.24,192.99)" d="M2.5,0A2.5,2.5 0 1,1 0,-2.5A2.5,2.5 0 0,1 2.5,0Z" style="opacity: 1; stroke-width: 0px; fill: rgb(132, 73, 99); fill-opacity: 1;"/><path class="point" transform="translate(330.16,190.87)" d="M2.5,0A2.5,2.5 0 1,1 0,-2.5A2.5,2.5 0 0,1 2.5,0Z" style="opacity: 1; stroke-width: 0px; fill: rgb(132, 73, 99); fill-opacity: 1;"/><path class="point" transform="translate(337.53,192.38)" d="M2.5,0A2.5,2.5 0 1,1 0,-2.5A2.5,2.5 0 0,1 2.5,0Z" style="opacity: 1; stroke-width: 0px; fill: rgb(132, 73, 99); fill-opacity: 1;"/><path class="point" transform="translate(340.48,194.05)" d="M2.5,0A2.5,2.5 0 1,1 0,-2.5A2.5,2.5 0 0,1 2.5,0Z" style="opacity: 1; stroke-width: 0px; fill: rgb(132, 73, 99); fill-opacity: 1;"/><path class="point" transform="translate(342.78,196.31)" d="M2.5,0A2.5,2.5 0 1,1 0,-2.5A2.5,2.5 0 0,1 2.5,0Z" style="opacity: 1; stroke-width: 0px; fill: rgb(132, 73, 99); fill-opacity: 1;"/><path class="point" transform="translate(345.27,192.88)" d="M2.5,0A2.5,2.5 0 1,1 0,-2.5A2.5,2.5 0 0,1 2.5,0Z" style="opacity: 1; stroke-width: 0px; fill: rgb(132, 73, 99); fill-opacity: 1;"/><path class="point" transform="translate(369.77,193.9)" d="M2.5,0A2.5,2.5 0 1,1 0,-2.5A2.5,2.5 0 0,1 2.5,0Z" style="opacity: 1; stroke-width: 0px; fill: rgb(132, 73, 99); fill-opacity: 1;"/></g></g><g class="trace violins" style="opacity: 1;"><path class="violin" d="M89.08,169.33L89.08,168.81Q94.69,168.55 97.49,168.38C100.29,168.2 103.09,167.99 105.89,167.76C108.69,167.53 111.5,167.26 114.3,167.01C117.1,166.76 119.91,166.48 122.71,166.26C125.51,166.04 128.31,165.82 131.11,165.68C133.91,165.54 136.72,165.45 139.52,165.44C142.32,165.43 145.13,165.49 147.93,165.59C150.73,165.69 153.53,165.88 156.33,166.06C159.13,166.24 161.94,166.48 164.74,166.66C167.54,166.84 170.35,167.04 173.15,167.15C175.95,167.26 178.75,167.33 181.55,167.3C184.35,167.27 187.16,167.17 189.96,166.98C192.77,166.79 195.57,166.5 198.37,166.15C201.18,165.8 203.97,165.35 206.77,164.9C209.58,164.45 212.38,163.92 215.18,163.43C217.98,162.94 220.78,162.42 223.59,161.96C226.39,161.5 229.19,161.07 231.99,160.68C234.79,160.29 237.6,159.97 240.4,159.64C243.2,159.31 246.01,159.04 248.81,158.71C251.61,158.38 254.41,158.08 257.21,157.66C260.02,157.24 262.83,156.78 265.62,156.18C268.44,155.57 271.24,154.86 274.03,154.02C276.85,153.17 279.64,152.17 282.43,151.12C285.25,150.06 288.04,148.83 290.84,147.67C293.64,146.51 296.43,145.24 299.25,144.18C302.03,143.14 304.82,142.06 307.65,141.35C310.43,140.65 313.25,140.09 316.06,139.92C318.85,139.75 321.69,139.89 324.47,140.33C327.29,140.77 330.11,141.62 332.87,142.59C335.71,143.59 338.5,144.93 341.28,146.27C344.11,147.63 346.89,149.2 349.69,150.68C352.49,152.16 355.27,153.72 358.09,155.13C360.88,156.52 363.67,157.88 366.5,159.09C369.28,160.28 372.09,161.37 374.91,162.32C377.69,163.26 380.5,164.07 383.31,164.78C386.1,165.48 388.91,166.05 391.72,166.54C394.52,167.03 397.32,167.41 400.13,167.73C402.93,168.05 405.73,168.27 408.53,168.47Q411.33,168.67 416.94,168.91L416.94,169.33" style="vector-effect: non-scaling-stroke; stroke-width: 2px; stroke: rgb(149, 68, 87); stroke-opacity: 1; fill: rgb(149, 68, 87); fill-opacity: 0.5;"/><g class="points"><path class="point" transform="translate(140.12,162.49)" d="M2.5,0A2.5,2.5 0 1,1 0,-2.5A2.5,2.5 0 0,1 2.5,0Z" style="opacity: 1; stroke-width: 0px; fill: rgb(149, 68, 87); fill-opacity: 1;"/><path class="point" transform="translate(140.3,164.69)" d="M2.5,0A2.5,2.5 0 1,1 0,-2.5A2.5,2.5 0 0,1 2.5,0Z" style="opacity: 1; stroke-width: 0px; fill: rgb(149, 68, 87); fill-opacity: 1;"/><path class="point" transform="translate(226.62,161.9)" d="M2.5,0A2.5,2.5 0 1,1 0,-2.5A2.5,2.5 0 0,1 2.5,0Z" style="opacity: 1; stroke-width: 0px; fill: rgb(149, 68, 87); fill-opacity: 1;"/><path class="point" transform="translate(231.59,165.21)" d="M2.5,0A2.5,2.5 0 1,1 0,-2.5A2.5,2.5 0 0,1 2.5,0Z" style="opacity: 1; stroke-width: 0px; fill: rgb(149, 68, 87); fill-opacity: 1;"/><path class="point" transform="translate(233.25,163.97)" d="M2.5,0A2.5,2.5 0 1,1 0,-2.5A2.5,2.5 0 0,1 2.5,0Z" style="opacity: 1; stroke-width: 0px; fill: rgb(149, 68, 87); fill-opacity: 1;"/><path class="point" transform="translate(255.27,162.3)" d="M2.5,0A2.5,2.5 0 1,1 0,-2.5A2.5,2.5 0 0,1 2.5,0Z" style="opacity: 1; stroke-width: 0px; fill: rgb(149, 68, 87); fill-opacity: 1;"/><path class="point" transform="translate(265.22,163.53)" d="M2.5,0A2.5,2.5 0 1,1 0,-2.5A2.5,2.5 0 0,1 2.5,0Z" style="opacity: 1; stroke-width: 0px; fill: rgb(149, 68, 87); fill-opacity: 1;"/><path class="point" transform="translate(278.57,162.57)" d="M2.5,0A2.5,2.5 0 1,1 0,-2.5A2.5,2.5 0 0,1 2.5,0Z" style="opacity: 1; stroke-width: 0px; fill: rgb(149, 68, 87); fill-opacity: 1;"/><path class="point" transform="translate(286.5,164.45)" d="M2.5,0A2.5,2.5 0 1,1 0,-2.5A2.5,2.5 0 0,1 2.5,0Z" style="opacity: 1; stroke-width: 0px; fill: rgb(149, 68, 87); fill-opacity: 1;"/><path class="point" transform="translate(301.88,165.73)" d="M2.5,0A2.5,2.5 0 1,1 0,-2.5A2.5,2.5 0 0,1 2.5,0Z" style="opacity: 1; stroke-width: 0px; fill: rgb(149, 68, 87); fill-opacity: 1;"/><path class="point" transform="translate(304.37,162.5)" d="M2.5,0A2.5,2.5 0 1,1 0,-2.5A2.5,2.5 0 0,1 2.5,0Z" style="opacity: 1; stroke-width: 0px; fill: rgb(149, 68, 87); fill-opacity: 1;"/><path class="point" transform="translate(304.92,164.69)" d="M2.5,0A2.5,2.5 0 1,1 0,-2.5A2.5,2.5 0 0,1 2.5,0Z" style="opacity: 1; stroke-width: 0px; fill: rgb(149, 68, 87); fill-opacity: 1;"/><path class="point" transform="translate(311.74,160.76)" d="M2.5,0A2.5,2.5 0 1,1 0,-2.5A2.5,2.5 0 0,1 2.5,0Z" style="opacity: 1; stroke-width: 0px; fill: rgb(149, 68, 87); fill-opacity: 1;"/><path class="point" transform="translate(312.01,167.93)" d="M2.5,0A2.5,2.5 0 1,1 0,-2.5A2.5,2.5 0 0,1 2.5,0Z" style="opacity: 1; stroke-width: 0px; fill: rgb(149, 68, 87); fill-opacity: 1;"/><path class="point" transform="translate(314.69,166.66)" d="M2.5,0A2.5,2.5 0 1,1 0,-2.5A2.5,2.5 0 0,1 2.5,0Z" style="opacity: 1; stroke-width: 0px; fill: rgb(149, 68, 87); fill-opacity: 1;"/><path class="point" transform="translate(318.37,158.41)" d="M2.5,0A2.5,2.5 0 1,1 0,-2.5A2.5,2.5 0 0,1 2.5,0Z" style="opacity: 1; stroke-width: 0px; fill: rgb(149, 68, 87); fill-opacity: 1;"/><path class="point" transform="translate(320.95,164.79)" d="M2.5,0A2.5,2.5 0 1,1 0,-2.5A2.5,2.5 0 0,1 2.5,0Z" style="opacity: 1; stroke-width: 0px; fill: rgb(149, 68, 87); fill-opacity: 1;"/><path class="point" transform="translate(322.42,168.5)" d="M2.5,0A2.5,2.5 0 1,1 0,-2.5A2.5,2.5 0 0,1 2.5,0Z" style="opacity: 1; stroke-width: 0px; fill: rgb(149, 68, 87); fill-opacity: 1;"/><path class="point" transform="translate(323.9,165.32)" d="M2.5,0A2.5,2.5 0 1,1 0,-2.5A2.5,2.5 0 0,1 2.5,0Z" style="opacity: 1; stroke-width: 0px; fill: rgb(149, 68, 87); fill-opacity: 1;"/><path class="point" transform="translate(327.58,163.54)" d="M2.5,0A2.5,2.5 0 1,1 0,-2.5A2.5,2.5 0 0,1 2.5,0Z" style="opacity: 1; stroke-width: 0px; fill: rgb(149, 68, 87); fill-opacity: 1;"/><path class="point" transform="translate(328.69,161.62)" d="M2.5,0A2.5,2.5 0 1,1 0,-2.5A2.5,2.5 0 0,1 2.5,0Z" style="opacity: 1; stroke-width: 0px; fill: rgb(149, 68, 87); fill-opacity: 1;"/><path class="point" transform="translate(332.56,163.01)" d="M2.5,0A2.5,2.5 0 1,1 0,-2.5A2.5,2.5 0 0,1 2.5,0Z" style="opacity: 1; stroke-width: 0px; fill: rgb(149, 68, 87); fill-opacity: 1;"/><path class="point" transform="translate(334.58,164.53)" d="M2.5,0A2.5,2.5 0 1,1 0,-2.5A2.5,2.5 0 0,1 2.5,0Z" style="opacity: 1; stroke-width: 0px; fill: rgb(149, 68, 87); fill-opacity: 1;"/><path class="point" transform="translate(336.61,166.48)" d="M2.5,0A2.5,2.5 0 1,1 0,-2.5A2.5,2.5 0 0,1 2.5,0Z" style="opacity: 1; stroke-width: 0px; fill: rgb(149, 68, 87); fill-opacity: 1;"/><path class="point" transform="translate(355.96,163.46)" d="M2.5,0A2.5,2.5 0 1,1 0,-2.5A2.5,2.5 0 0,1 2.5,0Z" style="opacity: 1; stroke-width: 0px; fill: rgb(149, 68, 87); fill-opacity: 1;"/><path class="point" transform="translate(365.91,164.4)" d="M2.5,0A2.5,2.5 0 1,1 0,-2.5A2.5,2.5 0 0,1 2.5,0Z" style="opacity: 1; stroke-width: 0px; fill: rgb(149, 68, 87); fill-opacity: 1;"/></g></g><g class="trace violins" style="opacity: 1;"><path class="violin" d="M289.27,139.92L289.27,139.26Q292.48,138.88 294.07,138.57C295.68,138.26 297.28,137.88 298.87,137.4C300.48,136.91 302.09,136.32 303.67,135.65C305.29,134.96 306.89,134.15 308.48,133.3C310.1,132.43 311.69,131.45 313.28,130.48C314.89,129.5 316.48,128.45 318.08,127.47C319.68,126.49 321.27,125.5 322.88,124.59C324.47,123.7 326.07,122.84 327.68,122.06C329.27,121.29 330.87,120.59 332.48,119.92C334.07,119.25 335.68,118.66 337.28,118.04C338.88,117.42 340.48,116.83 342.08,116.22C343.68,115.61 345.28,114.97 346.88,114.37C348.48,113.77 350.07,113.13 351.68,112.6C353.27,112.07 354.87,111.54 356.48,111.19C358.07,110.84 359.68,110.55 361.28,110.5C362.88,110.45 364.5,110.55 366.08,110.86C367.7,111.18 369.31,111.73 370.88,112.42C372.52,113.14 374.11,114.11 375.68,115.11C377.31,116.15 378.9,117.39 380.49,118.58C382.1,119.79 383.68,121.11 385.29,122.33C386.88,123.54 388.47,124.77 390.09,125.88C391.67,126.96 393.27,127.99 394.89,128.91C396.47,129.81 398.07,130.62 399.69,131.37C401.28,132.1 402.88,132.74 404.49,133.35C406.08,133.95 407.68,134.49 409.29,135C410.88,135.51 412.48,135.97 414.09,136.4C415.69,136.83 417.29,137.22 418.89,137.56C420.49,137.9 422.09,138.2 423.69,138.46C425.29,138.72 426.89,138.93 428.49,139.1C430.09,139.27 431.69,139.4 433.29,139.5C434.89,139.6 436.49,139.66 438.09,139.72C439.69,139.78 441.29,139.81 442.89,139.84C444.49,139.87 446.09,139.88 447.69,139.89C449.29,139.9 450.9,139.9 452.5,139.9C454.1,139.9 455.7,139.9 457.3,139.9C458.9,139.9 460.5,139.9 462.1,139.89C463.7,139.88 465.3,139.86 466.9,139.84C468.5,139.82 470.1,139.8 471.7,139.76C473.3,139.72 474.9,139.66 476.5,139.59C478.1,139.52 479.7,139.43 481.3,139.33C482.9,139.22 484.5,139.09 486.1,138.96C487.7,138.83 489.3,138.67 490.9,138.53C492.5,138.39 494.1,138.23 495.7,138.11C497.3,137.99 498.9,137.87 500.5,137.8C502.1,137.73 503.7,137.7 505.3,137.7C506.9,137.7 508.5,137.76 510.1,137.83C511.7,137.91 513.3,138.03 514.9,138.15C516.5,138.28 518.1,138.44 519.7,138.58C521.3,138.72 522.91,138.88 524.51,139.01C526.11,139.14 527.71,139.27 529.31,139.37Q530.91,139.47 534.11,139.62L534.11,139.92" style="vector-effect: non-scaling-stroke; stroke-width: 2px; stroke: rgb(165, 63, 75); stroke-opacity: 1; fill: rgb(165, 63, 75); fill-opacity: 0.5;"/><g class="points"><path class="point" transform="translate(318.37,131.63)" d="M2.5,0A2.5,2.5 0 1,1 0,-2.5A2.5,2.5 0 0,1 2.5,0Z" style="opacity: 1; stroke-width: 0px; fill: rgb(165, 63, 75); fill-opacity: 1;"/><path class="point" transform="translate(323.71,137.12)" d="M2.5,0A2.5,2.5 0 1,1 0,-2.5A2.5,2.5 0 0,1 2.5,0Z" style="opacity: 1; stroke-width: 0px; fill: rgb(165, 63, 75); fill-opacity: 1;"/><path class="point" transform="translate(326.11,130.8)" d="M2.5,0A2.5,2.5 0 1,1 0,-2.5A2.5,2.5 0 0,1 2.5,0Z" style="opacity: 1; stroke-width: 0px; fill: rgb(165, 63, 75); fill-opacity: 1;"/><path class="point" transform="translate(328.41,137.69)" d="M2.5,0A2.5,2.5 0 1,1 0,-2.5A2.5,2.5 0 0,1 2.5,0Z" style="opacity: 1; stroke-width: 0px; fill: rgb(165, 63, 75); fill-opacity: 1;"/><path class="point" transform="translate(329.06,135.16)" d="M2.5,0A2.5,2.5 0 1,1 0,-2.5A2.5,2.5 0 0,1 2.5,0Z" style="opacity: 1; stroke-width: 0px; fill: rgb(165, 63, 75); fill-opacity: 1;"/><path class="point" transform="translate(336.06,131.54)" d="M2.5,0A2.5,2.5 0 1,1 0,-2.5A2.5,2.5 0 0,1 2.5,0Z" style="opacity: 1; stroke-width: 0px; fill: rgb(165, 63, 75); fill-opacity: 1;"/><path class="point" transform="translate(337.81,134.22)" d="M2.5,0A2.5,2.5 0 1,1 0,-2.5A2.5,2.5 0 0,1 2.5,0Z" style="opacity: 1; stroke-width: 0px; fill: rgb(165, 63, 75); fill-opacity: 1;"/><path class="point" transform="translate(348.86,132.63)" d="M2.5,0A2.5,2.5 0 1,1 0,-2.5A2.5,2.5 0 0,1 2.5,0Z" style="opacity: 1; stroke-width: 0px; fill: rgb(165, 63, 75); fill-opacity: 1;"/><path class="point" transform="translate(350.8,135.53)" d="M2.5,0A2.5,2.5 0 1,1 0,-2.5A2.5,2.5 0 0,1 2.5,0Z" style="opacity: 1; stroke-width: 0px; fill: rgb(165, 63, 75); fill-opacity: 1;"/><path class="point" transform="translate(351.17,137.48)" d="M2.5,0A2.5,2.5 0 1,1 0,-2.5A2.5,2.5 0 0,1 2.5,0Z" style="opacity: 1; stroke-width: 0px; fill: rgb(165, 63, 75); fill-opacity: 1;"/><path class="point" transform="translate(352,132.66)" d="M2.5,0A2.5,2.5 0 1,1 0,-2.5A2.5,2.5 0 0,1 2.5,0Z" style="opacity: 1; stroke-width: 0px; fill: rgb(165, 63, 75); fill-opacity: 1;"/><path class="point" transform="translate(353.75,135.62)" d="M2.5,0A2.5,2.5 0 1,1 0,-2.5A2.5,2.5 0 0,1 2.5,0Z" style="opacity: 1; stroke-width: 0px; fill: rgb(165, 63, 75); fill-opacity: 1;"/><path class="point" transform="translate(358.63,130.39)" d="M2.5,0A2.5,2.5 0 1,1 0,-2.5A2.5,2.5 0 0,1 2.5,0Z" style="opacity: 1; stroke-width: 0px; fill: rgb(165, 63, 75); fill-opacity: 1;"/><path class="point" transform="translate(362.96,139.71)" d="M2.5,0A2.5,2.5 0 1,1 0,-2.5A2.5,2.5 0 0,1 2.5,0Z" style="opacity: 1; stroke-width: 0px; fill: rgb(165, 63, 75); fill-opacity: 1;"/><path class="point" transform="translate(363.42,137.42)" d="M2.5,0A2.5,2.5 0 1,1 0,-2.5A2.5,2.5 0 0,1 2.5,0Z" style="opacity: 1; stroke-width: 0px; fill: rgb(165, 63, 75); fill-opacity: 1;"/><path class="point" transform="translate(364.8,128.83)" d="M2.5,0A2.5,2.5 0 1,1 0,-2.5A2.5,2.5 0 0,1 2.5,0Z" style="opacity: 1; stroke-width: 0px; fill: rgb(165, 63, 75); fill-opacity: 1;"/><path class="point" transform="translate(370.6,135.39)" d="M2.5,0A2.5,2.5 0 1,1 0,-2.5A2.5,2.5 0 0,1 2.5,0Z" style="opacity: 1; stroke-width: 0px; fill: rgb(165, 63, 75); fill-opacity: 1;"/><path class="point" transform="translate(371.8,139.07)" d="M2.5,0A2.5,2.5 0 1,1 0,-2.5A2.5,2.5 0 0,1 2.5,0Z" style="opacity: 1; stroke-width: 0px; fill: rgb(165, 63, 75); fill-opacity: 1;"/><path class="point" transform="translate(373.09,135.55)" d="M2.5,0A2.5,2.5 0 1,1 0,-2.5A2.5,2.5 0 0,1 2.5,0Z" style="opacity: 1; stroke-width: 0px; fill: rgb(165, 63, 75); fill-opacity: 1;"/><path class="point" transform="translate(373.37,134.13)" d="M2.5,0A2.5,2.5 0 1,1 0,-2.5A2.5,2.5 0 0,1 2.5,0Z" style="opacity: 1; stroke-width: 0px; fill: rgb(165, 63, 75); fill-opacity: 1;"/><path class="point" transform="translate(373.92,132.99)" d="M2.5,0A2.5,2.5 0 1,1 0,-2.5A2.5,2.5 0 0,1 2.5,0Z" style="opacity: 1; stroke-width: 0px; fill: rgb(165, 63, 75); fill-opacity: 1;"/><path class="point" transform="translate(379.72,133.78)" d="M2.5,0A2.5,2.5 0 1,1 0,-2.5A2.5,2.5 0 0,1 2.5,0Z" style="opacity: 1; stroke-width: 0px; fill: rgb(165, 63, 75); fill-opacity: 1;"/><path class="point" transform="translate(380.64,134.64)" d="M2.5,0A2.5,2.5 0 1,1 0,-2.5A2.5,2.5 0 0,1 2.5,0Z" style="opacity: 1; stroke-width: 0px; fill: rgb(165, 63, 75); fill-opacity: 1;"/><path class="point" transform="translate(399.16,135.71)" d="M2.5,0A2.5,2.5 0 1,1 0,-2.5A2.5,2.5 0 0,1 2.5,0Z" style="opacity: 1; stroke-width: 0px; fill: rgb(165, 63, 75); fill-opacity: 1;"/><path class="point" transform="translate(403.4,134.04)" d="M2.5,0A2.5,2.5 0 1,1 0,-2.5A2.5,2.5 0 0,1 2.5,0Z" style="opacity: 1; stroke-width: 0px; fill: rgb(165, 63, 75); fill-opacity: 1;"/><path class="point" transform="translate(505.01,134.53)" d="M2.5,0A2.5,2.5 0 1,1 0,-2.5A2.5,2.5 0 0,1 2.5,0Z" style="opacity: 1; stroke-width: 0px; fill: rgb(165, 63, 75); fill-opacity: 1;"/></g></g><g class="trace violins" style="opacity: 1;"><path class="violin" d="M289.82,110.5L289.82,110.01Q293.38,109.74 295.15,109.52C296.93,109.3 298.7,109.04 300.47,108.69C302.25,108.34 304.04,107.92 305.8,107.4C307.59,106.87 309.36,106.25 311.12,105.54C312.91,104.81 314.69,103.98 316.45,103.07C318.25,102.14 320.01,101.09 321.77,100C323.56,98.89 325.33,97.67 327.09,96.46C328.88,95.23 330.64,93.92 332.42,92.67C334.19,91.42 335.95,90.13 337.74,88.96C339.5,87.81 341.27,86.65 343.07,85.68C344.82,84.74 346.59,83.86 348.39,83.18C350.14,82.52 351.93,82 353.72,81.65C355.48,81.31 357.26,81.14 359.04,81.08C360.81,81.02 362.59,81.13 364.36,81.29C366.14,81.45 367.92,81.73 369.69,82.03C371.47,82.34 373.24,82.7 375.01,83.12C376.79,83.54 378.58,84 380.34,84.56C382.13,85.13 383.9,85.76 385.66,86.5C387.46,87.26 389.24,88.13 390.99,89.08C392.79,90.05 394.55,91.15 396.31,92.27C398.1,93.4 399.85,94.65 401.63,95.83C403.4,97.01 405.17,98.24 406.96,99.34C408.72,100.42 410.48,101.49 412.28,102.38C414.03,103.25 415.81,104.03 417.61,104.64C419.36,105.24 421.15,105.7 422.93,106.04C424.69,106.38 426.47,106.57 428.25,106.7C430.02,106.83 431.8,106.84 433.58,106.84C435.35,106.84 437.13,106.78 438.9,106.72C440.68,106.66 442.45,106.58 444.23,106.5C446,106.42 447.78,106.34 449.55,106.26C451.33,106.17 453.1,106.09 454.88,105.99C456.65,105.89 458.43,105.79 460.2,105.68C461.97,105.56 463.75,105.43 465.52,105.3C467.3,105.16 469.07,105 470.85,104.87C472.62,104.74 474.4,104.59 476.17,104.5C477.95,104.41 479.72,104.32 481.5,104.31C483.27,104.3 485.05,104.35 486.82,104.46C488.6,104.57 490.38,104.76 492.15,105C493.93,105.24 495.7,105.57 497.47,105.9C499.25,106.23 501.02,106.63 502.79,106.99C504.57,107.35 506.34,107.74 508.12,108.07C509.89,108.4 511.66,108.72 513.44,108.98C515.21,109.24 516.99,109.46 518.77,109.64C520.54,109.82 522.32,109.94 524.09,110.05C525.86,110.15 527.64,110.22 529.41,110.27C531.19,110.32 532.96,110.33 534.74,110.33C536.51,110.33 538.29,110.32 540.06,110.28C541.84,110.24 543.61,110.18 545.39,110.1C547.16,110.02 548.94,109.92 550.71,109.8C552.49,109.68 554.26,109.53 556.04,109.38C557.81,109.23 559.59,109.05 561.36,108.88C563.13,108.72 564.9,108.53 566.68,108.39C568.45,108.25 570.23,108.12 572.01,108.05C573.78,107.98 575.56,107.93 577.33,107.94C579.11,107.95 580.89,108 582.66,108.09C584.44,108.18 586.21,108.32 587.98,108.47C589.76,108.62 591.53,108.8 593.31,108.97C595.08,109.13 596.86,109.31 598.63,109.46C600.4,109.61 602.18,109.76 603.95,109.87Q605.73,109.99 609.28,110.15L609.28,110.5" style="vector-effect: non-scaling-stroke; stroke-width: 2px; stroke: rgb(182, 58, 63); stroke-opacity: 1; fill: rgb(182, 58, 63); fill-opacity: 0.5;"/><g class="points"><path class="point" transform="translate(322.24,102.39)" d="M2.5,0A2.5,2.5 0 1,1 0,-2.5A2.5,2.5 0 0,1 2.5,0Z" style="opacity: 1; stroke-width: 0px; fill: rgb(182, 58, 63); fill-opacity: 1;"/><path class="point" transform="translate(334.22,107.34)" d="M2.5,0A2.5,2.5 0 1,1 0,-2.5A2.5,2.5 0 0,1 2.5,0Z" style="opacity: 1; stroke-width: 0px; fill: rgb(182, 58, 63); fill-opacity: 1;"/><path class="point" transform="translate(334.95,101.09)" d="M2.5,0A2.5,2.5 0 1,1 0,-2.5A2.5,2.5 0 0,1 2.5,0Z" style="opacity: 1; stroke-width: 0px; fill: rgb(182, 58, 63); fill-opacity: 1;"/><path class="point" transform="translate(343.98,108.71)" d="M2.5,0A2.5,2.5 0 1,1 0,-2.5A2.5,2.5 0 0,1 2.5,0Z" style="opacity: 1; stroke-width: 0px; fill: rgb(182, 58, 63); fill-opacity: 1;"/><path class="point" transform="translate(344.9,105.85)" d="M2.5,0A2.5,2.5 0 1,1 0,-2.5A2.5,2.5 0 0,1 2.5,0Z" style="opacity: 1; stroke-width: 0px; fill: rgb(182, 58, 63); fill-opacity: 1;"/><path class="point" transform="translate(347.85,102.16)" d="M2.5,0A2.5,2.5 0 1,1 0,-2.5A2.5,2.5 0 0,1 2.5,0Z" style="opacity: 1; stroke-width: 0px; fill: rgb(182, 58, 63); fill-opacity: 1;"/><path class="point" transform="translate(353.19,104.82)" d="M2.5,0A2.5,2.5 0 1,1 0,-2.5A2.5,2.5 0 0,1 2.5,0Z" style="opacity: 1; stroke-width: 0px; fill: rgb(182, 58, 63); fill-opacity: 1;"/><path class="point" transform="translate(354.11,103.08)" d="M2.5,0A2.5,2.5 0 1,1 0,-2.5A2.5,2.5 0 0,1 2.5,0Z" style="opacity: 1; stroke-width: 0px; fill: rgb(182, 58, 63); fill-opacity: 1;"/><path class="point" transform="translate(354.48,106.49)" d="M2.5,0A2.5,2.5 0 1,1 0,-2.5A2.5,2.5 0 0,1 2.5,0Z" style="opacity: 1; stroke-width: 0px; fill: rgb(182, 58, 63); fill-opacity: 1;"/><path class="point" transform="translate(356.14,108.34)" d="M2.5,0A2.5,2.5 0 1,1 0,-2.5A2.5,2.5 0 0,1 2.5,0Z" style="opacity: 1; stroke-width: 0px; fill: rgb(182, 58, 63); fill-opacity: 1;"/><path class="point" transform="translate(365.35,103.25)" d="M2.5,0A2.5,2.5 0 1,1 0,-2.5A2.5,2.5 0 0,1 2.5,0Z" style="opacity: 1; stroke-width: 0px; fill: rgb(182, 58, 63); fill-opacity: 1;"/><path class="point" transform="translate(366.27,106.33)" d="M2.5,0A2.5,2.5 0 1,1 0,-2.5A2.5,2.5 0 0,1 2.5,0Z" style="opacity: 1; stroke-width: 0px; fill: rgb(182, 58, 63); fill-opacity: 1;"/><path class="point" transform="translate(368.48,101.3)" d="M2.5,0A2.5,2.5 0 1,1 0,-2.5A2.5,2.5 0 0,1 2.5,0Z" style="opacity: 1; stroke-width: 0px; fill: rgb(182, 58, 63); fill-opacity: 1;"/><path class="point" transform="translate(371.25,109.56)" d="M2.5,0A2.5,2.5 0 1,1 0,-2.5A2.5,2.5 0 0,1 2.5,0Z" style="opacity: 1; stroke-width: 0px; fill: rgb(182, 58, 63); fill-opacity: 1;"/><path class="point" transform="translate(381.57,107.55)" d="M2.5,0A2.5,2.5 0 1,1 0,-2.5A2.5,2.5 0 0,1 2.5,0Z" style="opacity: 1; stroke-width: 0px; fill: rgb(182, 58, 63); fill-opacity: 1;"/><path class="point" transform="translate(383.96,100.16)" d="M2.5,0A2.5,2.5 0 1,1 0,-2.5A2.5,2.5 0 0,1 2.5,0Z" style="opacity: 1; stroke-width: 0px; fill: rgb(182, 58, 63); fill-opacity: 1;"/><path class="point" transform="translate(388.01,105.52)" d="M2.5,0A2.5,2.5 0 1,1 0,-2.5A2.5,2.5 0 0,1 2.5,0Z" style="opacity: 1; stroke-width: 0px; fill: rgb(182, 58, 63); fill-opacity: 1;"/><path class="point" transform="translate(388.57,107.32)" d="M2.5,0A2.5,2.5 0 1,1 0,-2.5A2.5,2.5 0 0,1 2.5,0Z" style="opacity: 1; stroke-width: 0px; fill: rgb(182, 58, 63); fill-opacity: 1;"/><path class="point" transform="translate(391.15,105.56)" d="M2.5,0A2.5,2.5 0 1,1 0,-2.5A2.5,2.5 0 0,1 2.5,0Z" style="opacity: 1; stroke-width: 0px; fill: rgb(182, 58, 63); fill-opacity: 1;"/><path class="point" transform="translate(392.8,104.68)" d="M2.5,0A2.5,2.5 0 1,1 0,-2.5A2.5,2.5 0 0,1 2.5,0Z" style="opacity: 1; stroke-width: 0px; fill: rgb(182, 58, 63); fill-opacity: 1;"/><path class="point" transform="translate(402.57,103.62)" d="M2.5,0A2.5,2.5 0 1,1 0,-2.5A2.5,2.5 0 0,1 2.5,0Z" style="opacity: 1; stroke-width: 0px; fill: rgb(182, 58, 63); fill-opacity: 1;"/><path class="point" transform="translate(439.23,104.38)" d="M2.5,0A2.5,2.5 0 1,1 0,-2.5A2.5,2.5 0 0,1 2.5,0Z" style="opacity: 1; stroke-width: 0px; fill: rgb(182, 58, 63); fill-opacity: 1;"/><path class="point" transform="translate(463.37,105.18)" d="M2.5,0A2.5,2.5 0 1,1 0,-2.5A2.5,2.5 0 0,1 2.5,0Z" style="opacity: 1; stroke-width: 0px; fill: rgb(182, 58, 63); fill-opacity: 1;"/><path class="point" transform="translate(486.95,106.19)" d="M2.5,0A2.5,2.5 0 1,1 0,-2.5A2.5,2.5 0 0,1 2.5,0Z" style="opacity: 1; stroke-width: 0px; fill: rgb(182, 58, 63); fill-opacity: 1;"/><path class="point" transform="translate(488.98,104.62)" d="M2.5,0A2.5,2.5 0 1,1 0,-2.5A2.5,2.5 0 0,1 2.5,0Z" style="opacity: 1; stroke-width: 0px; fill: rgb(182, 58, 63); fill-opacity: 1;"/><path class="point" transform="translate(576.86,105.1)" d="M2.5,0A2.5,2.5 0 1,1 0,-2.5A2.5,2.5 0 0,1 2.5,0Z" style="opacity: 1; stroke-width: 0px; fill: rgb(182, 58, 63); fill-opacity: 1;"/></g></g><g class="trace violins" style="opacity: 1;"><path class="violin" d="M277.74,81.08L277.74,80.08Q284.07,79.47 287.22,78.97C290.39,78.46 293.55,77.85 296.69,77.05C299.87,76.24 303.03,75.25 306.16,74.1C309.35,72.93 312.5,71.53 315.63,70.07C318.81,68.58 321.96,66.88 325.11,65.24C328.27,63.6 331.4,61.8 334.58,60.22C337.72,58.66 340.85,57.07 344.05,55.83C347.17,54.62 350.33,53.51 353.52,52.82C356.65,52.14 359.84,51.74 363,51.67C366.15,51.6 369.33,51.9 372.47,52.37C375.64,52.85 378.8,53.67 381.94,54.53C385.12,55.4 388.26,56.51 391.41,57.57C394.57,58.63 397.72,59.81 400.88,60.9C404.04,61.99 407.19,63.09 410.36,64.11C413.51,65.12 416.66,66.09 419.83,66.98C422.98,67.87 426.13,68.7 429.3,69.44C432.45,70.18 435.6,70.86 438.77,71.44C441.92,72.02 445.09,72.52 448.25,72.93C451.4,73.33 454.56,73.65 457.72,73.87C460.87,74.09 464.03,74.21 467.19,74.27C470.35,74.33 473.5,74.29 476.66,74.24C479.82,74.19 482.97,74.06 486.13,73.98C489.29,73.9 492.45,73.78 495.61,73.74C498.77,73.7 501.92,73.68 505.08,73.74C508.24,73.8 511.39,73.92 514.55,74.1C517.71,74.28 520.86,74.54 524.02,74.81C527.18,75.09 530.34,75.42 533.5,75.75C536.66,76.08 539.81,76.45 542.97,76.8C546.13,77.15 549.28,77.5 552.44,77.83C555.6,78.16 558.75,78.48 561.91,78.76C565.07,79.04 568.23,79.3 571.39,79.53C574.55,79.76 577.7,79.95 580.86,80.12C584.02,80.29 587.17,80.42 590.33,80.53Q593.49,80.64 599.8,80.8L599.8,81.08" style="vector-effect: non-scaling-stroke; stroke-width: 2px; stroke: rgb(198, 53, 51); stroke-opacity: 1; fill: rgb(198, 53, 51); fill-opacity: 0.5;"/><g class="points"><path class="point" transform="translate(334.58,72.28)" d="M2.5,0A2.5,2.5 0 1,1 0,-2.5A2.5,2.5 0 0,1 2.5,0Z" style="opacity: 1; stroke-width: 0px; fill: rgb(198, 53, 51); fill-opacity: 1;"/><path class="point" transform="translate(343.98,78.58)" d="M2.5,0A2.5,2.5 0 1,1 0,-2.5A2.5,2.5 0 0,1 2.5,0Z" style="opacity: 1; stroke-width: 0px; fill: rgb(198, 53, 51); fill-opacity: 1;"/><path class="point" transform="translate(344.9,70.95)" d="M2.5,0A2.5,2.5 0 1,1 0,-2.5A2.5,2.5 0 0,1 2.5,0Z" style="opacity: 1; stroke-width: 0px; fill: rgb(198, 53, 51); fill-opacity: 1;"/><path class="point" transform="translate(345.64,79.96)" d="M2.5,0A2.5,2.5 0 1,1 0,-2.5A2.5,2.5 0 0,1 2.5,0Z" style="opacity: 1; stroke-width: 0px; fill: rgb(198, 53, 51); fill-opacity: 1;"/><path class="point" transform="translate(346.01,76.65)" d="M2.5,0A2.5,2.5 0 1,1 0,-2.5A2.5,2.5 0 0,1 2.5,0Z" style="opacity: 1; stroke-width: 0px; fill: rgb(198, 53, 51); fill-opacity: 1;"/><path class="point" transform="translate(349.51,72.55)" d="M2.5,0A2.5,2.5 0 1,1 0,-2.5A2.5,2.5 0 0,1 2.5,0Z" style="opacity: 1; stroke-width: 0px; fill: rgb(198, 53, 51); fill-opacity: 1;"/><path class="point" transform="translate(354.67,75.41)" d="M2.5,0A2.5,2.5 0 1,1 0,-2.5A2.5,2.5 0 0,1 2.5,0Z" style="opacity: 1; stroke-width: 0px; fill: rgb(198, 53, 51); fill-opacity: 1;"/><path class="point" transform="translate(356.51,73.51)" d="M2.5,0A2.5,2.5 0 1,1 0,-2.5A2.5,2.5 0 0,1 2.5,0Z" style="opacity: 1; stroke-width: 0px; fill: rgb(198, 53, 51); fill-opacity: 1;"/><path class="point" transform="translate(358.35,77.02)" d="M2.5,0A2.5,2.5 0 1,1 0,-2.5A2.5,2.5 0 0,1 2.5,0Z" style="opacity: 1; stroke-width: 0px; fill: rgb(198, 53, 51); fill-opacity: 1;"/><path class="point" transform="translate(359.09,78.92)" d="M2.5,0A2.5,2.5 0 1,1 0,-2.5A2.5,2.5 0 0,1 2.5,0Z" style="opacity: 1; stroke-width: 0px; fill: rgb(198, 53, 51); fill-opacity: 1;"/><path class="point" transform="translate(371.62,73.85)" d="M2.5,0A2.5,2.5 0 1,1 0,-2.5A2.5,2.5 0 0,1 2.5,0Z" style="opacity: 1; stroke-width: 0px; fill: rgb(198, 53, 51); fill-opacity: 1;"/><path class="point" transform="translate(372.54,76.83)" d="M2.5,0A2.5,2.5 0 1,1 0,-2.5A2.5,2.5 0 0,1 2.5,0Z" style="opacity: 1; stroke-width: 0px; fill: rgb(198, 53, 51); fill-opacity: 1;"/><path class="point" transform="translate(372.54,72.5)" d="M2.5,0A2.5,2.5 0 1,1 0,-2.5A2.5,2.5 0 0,1 2.5,0Z" style="opacity: 1; stroke-width: 0px; fill: rgb(198, 53, 51); fill-opacity: 1;"/><path class="point" transform="translate(374.75,79.21)" d="M2.5,0A2.5,2.5 0 1,1 0,-2.5A2.5,2.5 0 0,1 2.5,0Z" style="opacity: 1; stroke-width: 0px; fill: rgb(198, 53, 51); fill-opacity: 1;"/><path class="point" transform="translate(382.67,77.4)" d="M2.5,0A2.5,2.5 0 1,1 0,-2.5A2.5,2.5 0 0,1 2.5,0Z" style="opacity: 1; stroke-width: 0px; fill: rgb(198, 53, 51); fill-opacity: 1;"/><path class="point" transform="translate(386.54,71.72)" d="M2.5,0A2.5,2.5 0 1,1 0,-2.5A2.5,2.5 0 0,1 2.5,0Z" style="opacity: 1; stroke-width: 0px; fill: rgb(198, 53, 51); fill-opacity: 1;"/><path class="point" transform="translate(393.17,76)" d="M2.5,0A2.5,2.5 0 1,1 0,-2.5A2.5,2.5 0 0,1 2.5,0Z" style="opacity: 1; stroke-width: 0px; fill: rgb(198, 53, 51); fill-opacity: 1;"/><path class="point" transform="translate(408.47,77.56)" d="M2.5,0A2.5,2.5 0 1,1 0,-2.5A2.5,2.5 0 0,1 2.5,0Z" style="opacity: 1; stroke-width: 0px; fill: rgb(198, 53, 51); fill-opacity: 1;"/><path class="point" transform="translate(413.81,76.1)" d="M2.5,0A2.5,2.5 0 1,1 0,-2.5A2.5,2.5 0 0,1 2.5,0Z" style="opacity: 1; stroke-width: 0px; fill: rgb(198, 53, 51); fill-opacity: 1;"/><path class="point" transform="translate(424.13,75.26)" d="M2.5,0A2.5,2.5 0 1,1 0,-2.5A2.5,2.5 0 0,1 2.5,0Z" style="opacity: 1; stroke-width: 0px; fill: rgb(198, 53, 51); fill-opacity: 1;"/><path class="point" transform="translate(432.6,74.1)" d="M2.5,0A2.5,2.5 0 1,1 0,-2.5A2.5,2.5 0 0,1 2.5,0Z" style="opacity: 1; stroke-width: 0px; fill: rgb(198, 53, 51); fill-opacity: 1;"/><path class="point" transform="translate(464.48,74.94)" d="M2.5,0A2.5,2.5 0 1,1 0,-2.5A2.5,2.5 0 0,1 2.5,0Z" style="opacity: 1; stroke-width: 0px; fill: rgb(198, 53, 51); fill-opacity: 1;"/><path class="point" transform="translate(497.64,75.87)" d="M2.5,0A2.5,2.5 0 1,1 0,-2.5A2.5,2.5 0 0,1 2.5,0Z" style="opacity: 1; stroke-width: 0px; fill: rgb(198, 53, 51); fill-opacity: 1;"/><path class="point" transform="translate(503.17,77.09)" d="M2.5,0A2.5,2.5 0 1,1 0,-2.5A2.5,2.5 0 0,1 2.5,0Z" style="opacity: 1; stroke-width: 0px; fill: rgb(198, 53, 51); fill-opacity: 1;"/><path class="point" transform="translate(510.9,75.21)" d="M2.5,0A2.5,2.5 0 1,1 0,-2.5A2.5,2.5 0 0,1 2.5,0Z" style="opacity: 1; stroke-width: 0px; fill: rgb(198, 53, 51); fill-opacity: 1;"/><path class="point" transform="translate(542.96,75.8)" d="M2.5,0A2.5,2.5 0 1,1 0,-2.5A2.5,2.5 0 0,1 2.5,0Z" style="opacity: 1; stroke-width: 0px; fill: rgb(198, 53, 51); fill-opacity: 1;"/></g></g><g class="trace violins" style="opacity: 1;"><path class="violin" d="M190.38,51.67L190.38,51.26Q199.43,51.04 203.95,50.86C208.47,50.68 213,50.47 217.52,50.19C222.04,49.91 226.56,49.58 231.08,49.18C235.61,48.78 240.13,48.31 244.65,47.77C249.18,47.23 253.7,46.61 258.22,45.92C262.75,45.23 267.27,44.47 271.78,43.65C276.31,42.82 280.83,41.92 285.35,40.97C289.88,40.01 294.4,38.98 298.92,37.92C303.45,36.85 307.96,35.72 312.48,34.58C317.01,33.44 321.52,32.22 326.05,31.07C330.57,29.92 335.09,28.72 339.62,27.67C344.13,26.62 348.65,25.58 353.18,24.77C357.69,23.97 362.22,23.26 366.75,22.84C371.26,22.42 375.8,22.21 380.32,22.25C384.84,22.29 389.37,22.62 393.88,23.1C398.41,23.59 402.94,24.36 407.45,25.17C411.98,25.98 416.5,27.01 421.02,27.96C425.54,28.91 430.05,29.97 434.58,30.89C439.1,31.81 443.62,32.71 448.15,33.46C452.66,34.21 457.18,34.85 461.71,35.4C466.23,35.95 470.75,36.36 475.28,36.75C479.8,37.14 484.33,37.41 488.85,37.73C493.37,38.05 497.89,38.33 502.41,38.68C506.93,39.04 511.46,39.42 515.98,39.86C520.51,40.31 525.03,40.82 529.55,41.35C534.07,41.88 538.59,42.47 543.11,43.03C547.63,43.59 552.15,44.17 556.68,44.69C561.2,45.21 565.73,45.7 570.25,46.13C574.77,46.56 579.29,46.94 583.81,47.29C588.33,47.63 592.86,47.92 597.38,48.2C601.9,48.48 606.43,48.71 610.95,48.95C615.47,49.19 619.99,49.41 624.51,49.62C629.03,49.83 633.56,50.03 638.08,50.21C642.6,50.39 647.13,50.56 651.65,50.71C656.17,50.86 660.69,50.99 665.21,51.1Q669.73,51.21 678.78,51.36L678.78,51.67" style="vector-effect: non-scaling-stroke; stroke-width: 2px; stroke: rgb(215, 48, 39); stroke-opacity: 1; fill: rgb(215, 48, 39); fill-opacity: 0.5;"/><g class="points"><path class="point" transform="translate(273.05,43.99)" d="M2.5,0A2.5,2.5 0 1,1 0,-2.5A2.5,2.5 0 0,1 2.5,0Z" style="opacity: 1; stroke-width: 0px; fill: rgb(215, 48, 39); fill-opacity: 1;"/><path class="point" transform="translate(300.04,48.16)" d="M2.5,0A2.5,2.5 0 1,1 0,-2.5A2.5,2.5 0 0,1 2.5,0Z" style="opacity: 1; stroke-width: 0px; fill: rgb(215, 48, 39); fill-opacity: 1;"/><path class="point" transform="translate(317.08,42.82)" d="M2.5,0A2.5,2.5 0 1,1 0,-2.5A2.5,2.5 0 0,1 2.5,0Z" style="opacity: 1; stroke-width: 0px; fill: rgb(215, 48, 39); fill-opacity: 1;"/><path class="point" transform="translate(327.21,49.15)" d="M2.5,0A2.5,2.5 0 1,1 0,-2.5A2.5,2.5 0 0,1 2.5,0Z" style="opacity: 1; stroke-width: 0px; fill: rgb(215, 48, 39); fill-opacity: 1;"/><path class="point" transform="translate(333.94,46.79)" d="M2.5,0A2.5,2.5 0 1,1 0,-2.5A2.5,2.5 0 0,1 2.5,0Z" style="opacity: 1; stroke-width: 0px; fill: rgb(215, 48, 39); fill-opacity: 1;"/><path class="point" transform="translate(356.14,43.53)" d="M2.5,0A2.5,2.5 0 1,1 0,-2.5A2.5,2.5 0 0,1 2.5,0Z" style="opacity: 1; stroke-width: 0px; fill: rgb(215, 48, 39); fill-opacity: 1;"/><path class="point" transform="translate(358.26,45.96)" d="M2.5,0A2.5,2.5 0 1,1 0,-2.5A2.5,2.5 0 0,1 2.5,0Z" style="opacity: 1; stroke-width: 0px; fill: rgb(215, 48, 39); fill-opacity: 1;"/><path class="point" transform="translate(367.75,44.26)" d="M2.5,0A2.5,2.5 0 1,1 0,-2.5A2.5,2.5 0 0,1 2.5,0Z" style="opacity: 1; stroke-width: 0px; fill: rgb(215, 48, 39); fill-opacity: 1;"/><path class="point" transform="translate(373,47.56)" d="M2.5,0A2.5,2.5 0 1,1 0,-2.5A2.5,2.5 0 0,1 2.5,0Z" style="opacity: 1; stroke-width: 0px; fill: rgb(215, 48, 39); fill-opacity: 1;"/><path class="point" transform="translate(380.55,50.1)" d="M2.5,0A2.5,2.5 0 1,1 0,-2.5A2.5,2.5 0 0,1 2.5,0Z" style="opacity: 1; stroke-width: 0px; fill: rgb(215, 48, 39); fill-opacity: 1;"/><path class="point" transform="translate(380.83,44.28)" d="M2.5,0A2.5,2.5 0 1,1 0,-2.5A2.5,2.5 0 0,1 2.5,0Z" style="opacity: 1; stroke-width: 0px; fill: rgb(215, 48, 39); fill-opacity: 1;"/><path class="point" transform="translate(383.96,47.57)" d="M2.5,0A2.5,2.5 0 1,1 0,-2.5A2.5,2.5 0 0,1 2.5,0Z" style="opacity: 1; stroke-width: 0px; fill: rgb(215, 48, 39); fill-opacity: 1;"/><path class="point" transform="translate(388.94,42.14)" d="M2.5,0A2.5,2.5 0 1,1 0,-2.5A2.5,2.5 0 0,1 2.5,0Z" style="opacity: 1; stroke-width: 0px; fill: rgb(215, 48, 39); fill-opacity: 1;"/><path class="point" transform="translate(390.96,50.64)" d="M2.5,0A2.5,2.5 0 1,1 0,-2.5A2.5,2.5 0 0,1 2.5,0Z" style="opacity: 1; stroke-width: 0px; fill: rgb(215, 48, 39); fill-opacity: 1;"/><path class="point" transform="translate(391.05,48.44)" d="M2.5,0A2.5,2.5 0 1,1 0,-2.5A2.5,2.5 0 0,1 2.5,0Z" style="opacity: 1; stroke-width: 0px; fill: rgb(215, 48, 39); fill-opacity: 1;"/><path class="point" transform="translate(418.41,42.17)" d="M2.5,0A2.5,2.5 0 1,1 0,-2.5A2.5,2.5 0 0,1 2.5,0Z" style="opacity: 1; stroke-width: 0px; fill: rgb(215, 48, 39); fill-opacity: 1;"/><path class="point" transform="translate(425.69,46.79)" d="M2.5,0A2.5,2.5 0 1,1 0,-2.5A2.5,2.5 0 0,1 2.5,0Z" style="opacity: 1; stroke-width: 0px; fill: rgb(215, 48, 39); fill-opacity: 1;"/><path class="point" transform="translate(427.63,49.1)" d="M2.5,0A2.5,2.5 0 1,1 0,-2.5A2.5,2.5 0 0,1 2.5,0Z" style="opacity: 1; stroke-width: 0px; fill: rgb(215, 48, 39); fill-opacity: 1;"/><path class="point" transform="translate(452.59,47.07)" d="M2.5,0A2.5,2.5 0 1,1 0,-2.5A2.5,2.5 0 0,1 2.5,0Z" style="opacity: 1; stroke-width: 0px; fill: rgb(215, 48, 39); fill-opacity: 1;"/><path class="point" transform="translate(474.06,45.85)" d="M2.5,0A2.5,2.5 0 1,1 0,-2.5A2.5,2.5 0 0,1 2.5,0Z" style="opacity: 1; stroke-width: 0px; fill: rgb(215, 48, 39); fill-opacity: 1;"/><path class="point" transform="translate(499.2,44.36)" d="M2.5,0A2.5,2.5 0 1,1 0,-2.5A2.5,2.5 0 0,1 2.5,0Z" style="opacity: 1; stroke-width: 0px; fill: rgb(215, 48, 39); fill-opacity: 1;"/><path class="point" transform="translate(507.4,45.44)" d="M2.5,0A2.5,2.5 0 1,1 0,-2.5A2.5,2.5 0 0,1 2.5,0Z" style="opacity: 1; stroke-width: 0px; fill: rgb(215, 48, 39); fill-opacity: 1;"/><path class="point" transform="translate(521.04,46.59)" d="M2.5,0A2.5,2.5 0 1,1 0,-2.5A2.5,2.5 0 0,1 2.5,0Z" style="opacity: 1; stroke-width: 0px; fill: rgb(215, 48, 39); fill-opacity: 1;"/><path class="point" transform="translate(522.42,48.19)" d="M2.5,0A2.5,2.5 0 1,1 0,-2.5A2.5,2.5 0 0,1 2.5,0Z" style="opacity: 1; stroke-width: 0px; fill: rgb(215, 48, 39); fill-opacity: 1;"/><path class="point" transform="translate(596.12,45.79)" d="M2.5,0A2.5,2.5 0 1,1 0,-2.5A2.5,2.5 0 0,1 2.5,0Z" style="opacity: 1; stroke-width: 0px; fill: rgb(215, 48, 39); fill-opacity: 1;"/></g></g></g></g><g class="overplot"/><path class="xlines-above crisp" d="M111,445.5H720" style="fill: none; stroke-width: 1px; stroke: rgb(255, 255, 255); stroke-opacity: 1;"/><path class="ylines-above crisp" d="M111.5,50V445" style="fill: none; stroke-width: 1px; stroke: rgb(255, 255, 255); stroke-opacity: 1;"/><g class="overlines-above"/><g class="xaxislayer-above"><g class="xtick"><text text-anchor="middle" x="0" y="460.4" transform="translate(167.27,0)" style="font-family: 'Open Sans', verdana, arial, sans-serif; font-size: 12px; fill: rgb(42, 63, 95); fill-opacity: 1; white-space: pre;">15</text></g><g class="xtick"><text text-anchor="middle" x="0" y="460.4" transform="translate(259.39,0)" style="font-family: 'Open Sans', verdana, arial, sans-serif; font-size: 12px; fill: rgb(42, 63, 95); fill-opacity: 1; white-space: pre;">10</text></g><g class="xtick"><text text-anchor="middle" x="0" y="460.4" transform="translate(351.52,0)" style="font-family: 'Open Sans', verdana, arial, sans-serif; font-size: 12px; fill: rgb(42, 63, 95); fill-opacity: 1; white-space: pre;">5</text></g><g class="xtick"><text text-anchor="middle" x="0" y="460.4" transform="translate(443.64,0)" style="font-family: 'Open Sans', verdana, arial, sans-serif; font-size: 12px; fill: rgb(42, 63, 95); fill-opacity: 1; white-space: pre;">0</text></g><g class="xtick"><text text-anchor="middle" x="0" y="460.4" transform="translate(535.76,0)" style="font-family: 'Open Sans', verdana, arial, sans-serif; font-size: 12px; fill: rgb(42, 63, 95); fill-opacity: 1; white-space: pre;">5</text></g><g class="xtick"><text text-anchor="middle" x="0" y="460.4" transform="translate(627.88,0)" style="font-family: 'Open Sans', verdana, arial, sans-serif; font-size: 12px; fill: rgb(42, 63, 95); fill-opacity: 1; white-space: pre;">10</text></g><g class="xtick"><text text-anchor="middle" x="0" y="460.4" transform="translate(720,0)" style="font-family: 'Open Sans', verdana, arial, sans-serif; font-size: 12px; fill: rgb(42, 63, 95); fill-opacity: 1; white-space: pre;">15</text></g></g><g class="yaxislayer-above"><g class="ytick"><text text-anchor="end" x="108.6" y="4.199999999999999" transform="translate(0,425.25)" style="font-family: 'Open Sans', verdana, arial, sans-serif; font-size: 12px; fill: rgb(42, 63, 95); fill-opacity: 1; white-space: pre;">Sample 134-2_A5</text></g><g class="ytick"><text text-anchor="end" x="108.6" y="4.199999999999999" transform="translate(0,395.83)" style="font-family: 'Open Sans', verdana, arial, sans-serif; font-size: 12px; fill: rgb(42, 63, 95); fill-opacity: 1; white-space: pre;">Sample 4-2_B2</text></g><g class="ytick"><text text-anchor="end" x="108.6" y="4.199999999999999" transform="translate(0,366.42)" style="font-family: 'Open Sans', verdana, arial, sans-serif; font-size: 12px; fill: rgb(42, 63, 95); fill-opacity: 1; white-space: pre;">Sample 4-1_B2</text></g><g class="ytick"><text text-anchor="end" x="108.6" y="4.199999999999999" transform="translate(0,337)" style="font-family: 'Open Sans', verdana, arial, sans-serif; font-size: 12px; fill: rgb(42, 63, 95); fill-opacity: 1; white-space: pre;">Sample 134-1_H4</text></g><g class="ytick"><text text-anchor="end" x="108.6" y="4.199999999999999" transform="translate(0,307.58)" style="font-family: 'Open Sans', verdana, arial, sans-serif; font-size: 12px; fill: rgb(42, 63, 95); fill-opacity: 1; white-space: pre;">Sample 7-2_F2</text></g><g class="ytick"><text text-anchor="end" x="108.6" y="4.199999999999999" transform="translate(0,278.16999999999996)" style="font-family: 'Open Sans', verdana, arial, sans-serif; font-size: 12px; fill: rgb(42, 63, 95); fill-opacity: 1; white-space: pre;">Sample 80-1_H3</text></g><g class="ytick"><text text-anchor="end" x="108.6" y="4.199999999999999" transform="translate(0,248.75)" style="font-family: 'Open Sans', verdana, arial, sans-serif; font-size: 12px; fill: rgb(42, 63, 95); fill-opacity: 1; white-space: pre;">Sample 7-1_E2</text></g><g class="ytick"><text text-anchor="end" x="108.6" y="4.199999999999999" transform="translate(0,219.33)" style="font-family: 'Open Sans', verdana, arial, sans-serif; font-size: 12px; fill: rgb(42, 63, 95); fill-opacity: 1; white-space: pre;">Sample 69-1_F3</text></g><g class="ytick"><text text-anchor="end" x="108.6" y="4.199999999999999" transform="translate(0,189.92)" style="font-family: 'Open Sans', verdana, arial, sans-serif; font-size: 12px; fill: rgb(42, 63, 95); fill-opacity: 1; white-space: pre;">Sample 117-2_C4</text></g><g class="ytick"><text text-anchor="end" x="108.6" y="4.199999999999999" transform="translate(0,160.5)" style="font-family: 'Open Sans', verdana, arial, sans-serif; font-size: 12px; fill: rgb(42, 63, 95); fill-opacity: 1; white-space: pre;">Sample 79-2_G3</text></g><g class="ytick"><text text-anchor="end" x="108.6" y="4.199999999999999" transform="translate(0,131.07999999999998)" style="font-family: 'Open Sans', verdana, arial, sans-serif; font-size: 12px; fill: rgb(42, 63, 95); fill-opacity: 1; white-space: pre;">Sample 11-1_A3</text></g><g class="ytick"><text text-anchor="end" x="108.6" y="4.199999999999999" transform="translate(0,101.67)" style="font-family: 'Open Sans', verdana, arial, sans-serif; font-size: 12px; fill: rgb(42, 63, 95); fill-opacity: 1; white-space: pre;">Sample 131-1_F4</text></g></g><g class="overaxes-above"/></g></g><g class="polarlayer"/><g class="ternarylayer"/><g class="geolayer"/><g class="funnelarealayer"/><g class="pielayer"/><g class="treemaplayer"/><g class="sunburstlayer"/><g class="glimages"/><defs id="topdefs-8a59c0"><g class="clips"/></defs><g class="layer-above"><g class="imagelayer"/><g class="shapelayer"/></g><g class="infolayer"><g class="g-gtitle"/><g class="g-xtitle"><text class="xtitle" x="416" y="488.20625" text-anchor="middle" style="font-family: 'Open Sans', verdana, arial, sans-serif; font-size: 14px; fill: rgb(42, 63, 95); opacity: 1; font-weight: normal; white-space: pre;">CpG median log likelihood ratio</text></g><g class="g-ytitle"/><g class="annotation" data-index="0" style="opacity: 1;"><g class="annotation-text-g" transform="rotate(0,443.64,35.29999999999998)"><g class="cursor-pointer" transform="translate(412, 26)"><rect class="bg" x="0.5" y="0.5" width="63" height="17" style="stroke-width: 1px; stroke: rgb(0, 0, 0); stroke-opacity: 0; fill: rgb(0, 0, 0); fill-opacity: 0;"/><text class="annotation-text" text-anchor="middle" x="32.03125" y="13" style="font-family: 'Open Sans', verdana, arial, sans-serif; font-size: 12px; fill: rgb(100, 100, 100); fill-opacity: 1; white-space: pre;">Ambiguous</text></g></g></g><g class="annotation" data-index="1" style="opacity: 1;"><g class="annotation-text-g" transform="rotate(0,268.61,35.29999999999998)"><g class="cursor-pointer" transform="translate(230, 26)"><rect class="bg" x="0.5" y="0.5" width="77" height="17" style="stroke-width: 1px; stroke: rgb(0, 0, 0); stroke-opacity: 0; fill: rgb(0, 0, 0); fill-opacity: 0;"/><text class="annotation-text" text-anchor="middle" x="39.03125" y="13" style="font-family: 'Open Sans', verdana, arial, sans-serif; font-size: 12px; fill: rgb(33, 102, 172); fill-opacity: 1; white-space: pre;">Unmethylated</text></g></g></g><g class="annotation" data-index="2" style="opacity: 1;"><g class="annotation-text-g" transform="rotate(0,591.03,35.29999999999998)"><g class="cursor-pointer" transform="translate(560, 26)"><rect class="bg" x="0.5" y="0.5" width="62" height="17" style="stroke-width: 1px; stroke: rgb(0, 0, 0); stroke-opacity: 0; fill: rgb(0, 0, 0); fill-opacity: 0;"/><text class="annotation-text" text-anchor="middle" x="31.359375" y="13" style="font-family: 'Open Sans', verdana, arial, sans-serif; font-size: 12px; fill: rgb(215, 48, 39); fill-opacity: 1; white-space: pre;">Methylated</text></g></g></g></g></svg>